<svg width="112" height="70" viewBox="0 0 112 70" fill="none" xmlns="http://www.w3.org/2000/svg">
<path d="M56 69.9184C86.9279 69.9184 112 64.3219 112 57.4184C112 50.5148 86.9279 44.9184 56 44.9184C25.0721 44.9184 0 50.5148 0 57.4184C0 64.3219 25.0721 69.9184 56 69.9184Z" fill="#F03F6D"/>
<path d="M76.1255 51.8287L77.7758 52.2804L75.9501 58.9495L74.2998 58.4977L76.1255 51.8287Z" fill="#37474F"/>
<path d="M71.5372 55.6074L80.01 57.6617C80.01 57.6617 78.9946 62.1696 78.8919 62.3574C78.4359 62.9162 77.9246 63.4275 77.3657 63.8835C77.0957 64.0303 74.6334 65.4654 73.6591 65.2746C72.6847 65.0838 71.1352 62.648 70.9297 62.196C70.7243 61.744 70.2488 60.7726 70.2254 60.4586C70.2019 60.1446 71.5372 55.6074 71.5372 55.6074Z" fill="#37474F"/>
<path d="M80.01 57.653C80.01 57.653 78.9916 62.1608 78.8918 62.3487C78.4359 62.9075 77.9246 63.4188 77.3657 63.8748C77.3012 63.91 77.1016 64.0244 76.8228 64.1682C76.3356 64.2299 75.0795 61.7881 75.1265 61.5621C75.1734 61.3361 76.453 56.796 76.4207 56.7901L80.01 57.653Z" fill="#263238"/>
<path d="M76.4208 56.7872L75.1295 61.5591C74.9299 61.7264 72.2739 63.0265 71.7309 62.8945C71.502 62.8417 71.1587 62.4278 70.8505 61.9671C70.5965 61.4804 70.393 60.969 70.243 60.441C70.2225 60.1475 71.4316 56.0182 71.5461 55.6367V55.6074L76.4208 56.7872Z" fill="#455A64"/>
<path d="M74.6628 59.5194C74.4809 60.6405 73.6004 61.43 72.6994 61.2803C71.7984 61.1307 71.2115 60.1064 71.3934 58.9882C71.5754 57.8701 72.4529 57.0748 73.3568 57.2274C74.2607 57.38 74.836 58.3984 74.6628 59.5194Z" fill="#31DB9D"/>
<path d="M78.8038 60.5328C79.0304 59.4178 78.6618 58.4016 77.9804 58.263C77.2989 58.1245 76.5628 58.9162 76.3362 60.0312C76.1095 61.1462 76.4782 62.1624 77.1596 62.3009C77.841 62.4394 78.5771 61.6478 78.8038 60.5328Z" fill="#31DB9D"/>
<path d="M74.0259 58.9119C73.9698 59.396 73.7466 59.8454 73.395 60.1827C73.1015 60.4557 72.4676 60.532 72.3208 60.4204C72.1741 60.3089 72.3208 58.7769 72.3208 58.7769L72.1301 58.6625L72.3678 58.1724L72.8814 58.4013C72.8227 58.5216 72.7141 58.73 72.6935 58.7916C72.6501 58.9983 72.6255 59.2085 72.6202 59.4197C72.7781 59.3139 72.9096 59.1734 73.0046 59.0088L72.8139 58.8679L73.0105 58.46L73.4654 58.6625C73.4032 58.8736 73.3227 59.0788 73.2247 59.2759C73.1367 59.4167 72.717 59.8012 72.717 59.8305C72.717 59.8599 72.7992 59.9068 72.9078 59.898C73.0164 59.8892 73.3773 59.7308 73.6327 59.1966L73.3773 59.0528L73.5358 58.6918L74.0259 58.9119ZM77.1838 60.0653L77.4391 59.9421C77.4414 60.1203 77.4197 60.2979 77.3745 60.4703C77.3347 60.6445 77.2297 60.7968 77.0811 60.8959C77.0605 60.8959 77.0312 60.8577 77.04 60.8342C77.126 60.7383 77.1866 60.6222 77.2161 60.4967C77.219 60.3522 77.2082 60.2078 77.1838 60.0653ZM77.3804 59.5547C77.4093 59.4079 77.4466 59.2629 77.4919 59.1203C77.642 59.1999 77.788 59.2871 77.9292 59.3815C78.0349 59.4373 78.3019 59.4167 78.3108 59.4549C78.3196 59.493 78.1112 59.9333 78.0173 60.2766C77.9559 60.4952 77.9166 60.7194 77.8999 60.9458C77.8696 61.0376 77.8229 61.1231 77.7619 61.1982C77.7334 60.9819 77.7334 60.7629 77.7619 60.5466C77.8151 60.2725 77.8947 60.0042 77.9997 59.7454L77.3804 59.5547Z" fill="white"/>
<path d="M90.9774 50.0928V55.757L94.2409 58.2134C94.2409 58.2134 97.9534 57.154 98.5903 56.9485C99.2271 56.7431 100.093 55.1172 100.334 53.9081C100.509 53.2236 100.509 52.5059 100.334 51.8214C99.9888 50.9395 99.3877 50.181 98.6079 49.6438C97.6071 49.0216 96.1221 48.7986 95.0157 48.8514C94.2908 48.8837 90.9774 50.0928 90.9774 50.0928Z" fill="#31DB9D"/>
<path d="M100.266 53.6733C100.243 54.0894 100.166 54.5008 100.037 54.8971C99.6615 55.8627 99.0657 56.793 98.5903 56.9515C97.9534 57.1599 94.2409 58.2164 94.2409 58.2164L94.4522 52.6403L98.7928 51.2932C98.7928 51.2932 100.266 52.5904 100.266 53.6733Z" fill="black"/>
<path d="M98.7928 51.302L94.4522 52.6373L90.9774 50.0928C91.0772 50.0547 94.2996 48.8837 95.0127 48.8514C96.1192 48.7986 97.6042 49.0216 98.6049 49.6438C98.6813 49.6937 98.7576 49.7436 98.8309 49.7994C99.2682 50.4949 98.7928 51.302 98.7928 51.302Z" fill="black"/>
<path d="M92.6679 54.8648L88.4623 56.3117L87.9428 54.5039L92.1191 53.0717H92.1484C92.4067 52.9983 92.7354 53.3446 92.8733 53.8406C93.0112 54.3366 92.9232 54.7944 92.6679 54.8648Z" fill="#37474F"/>
<path d="M88.6677 55.2787C88.8086 55.7776 88.7176 56.2413 88.4623 56.3147C88.207 56.388 87.8753 56.0417 87.7374 55.5428C87.5995 55.0439 87.6875 54.5802 87.9428 54.5068C88.1982 54.4335 88.5239 54.7768 88.6677 55.2787Z" fill="#455A64"/>
<path d="M95.2211 51.4869C96.2763 51.4869 97.1317 51.031 97.1317 50.4685C97.1317 49.9061 96.2763 49.4502 95.2211 49.4502C94.1659 49.4502 93.3105 49.9061 93.3105 50.4685C93.3105 51.031 94.1659 51.4869 95.2211 51.4869Z" fill="white"/>
<path d="M94.2409 50.7033L94.5344 50.6563L94.3436 50.489C94.4597 50.4234 94.5872 50.3806 94.7193 50.3629C94.8543 50.3472 94.9877 50.3207 95.1184 50.2836C95.2813 50.1428 95.4901 50.0666 95.7054 50.0694C96.0693 50.0928 96.1397 50.5155 96.1397 50.5155H96.486C96.486 50.5155 96.1163 49.9285 95.6056 49.9667C95.3793 49.9657 95.16 50.0447 94.9864 50.1897C94.7222 50.2983 94.2116 50.2807 94.0267 50.4597L94.2409 50.7033Z" fill="#263238"/>
<path d="M98.5244 55.4143C99.0534 54.3904 98.8284 53.2227 98.022 52.8061C97.2155 52.3895 96.133 52.8818 95.6041 53.9057C95.0752 54.9295 95.3002 56.0973 96.1066 56.5139C96.913 56.9304 97.9955 56.4381 98.5244 55.4143Z" fill="white"/>
<path d="M96.1925 55.3521V54.7886C96.3133 54.7865 96.4334 54.7708 96.5506 54.7417C96.7803 54.6395 96.9955 54.5073 97.1904 54.3484C97.3312 54.2281 97.4046 54.0901 97.4839 54.0549C97.5631 54.0197 97.7773 53.9639 97.8243 54.0285C97.8712 54.0931 97.566 54.5127 97.566 54.5127C97.6571 54.5412 97.7454 54.5775 97.8302 54.6213C97.9226 54.7105 97.9869 54.8248 98.0151 54.95C98.012 54.9726 98.0042 54.9944 97.9923 55.0138C97.9803 55.0332 97.9644 55.05 97.9457 55.063C97.9269 55.0759 97.9056 55.0849 97.8832 55.0892C97.8608 55.0935 97.8377 55.0931 97.8155 55.088C97.704 55.0557 97.5866 54.859 97.4692 54.7945C97.2457 54.7118 97.001 54.7056 96.7736 54.7769C96.5154 54.859 96.5124 54.95 96.5154 54.9911C96.5297 55.0527 96.5473 55.1134 96.5682 55.1731L96.1925 55.3521Z" fill="#263238"/>
<path d="M26.3237 59.7337C26.2826 60.4351 28.2871 60.5995 29.1147 60.1299C29.7814 59.6309 30.4147 59.0887 31.0106 58.507C32.9828 56.6962 35.7063 54.0519 35.7063 54.0519L37.7782 54.9324L46.2305 58.0168L51.9035 47.0612C51.9035 47.0612 47.0111 45.0978 42.3595 43.3428C41.6463 43.0728 40.939 42.8145 40.2552 42.5622L40.1261 42.5123C37.0064 41.3794 34.4238 40.5254 34.1626 40.7162C33.4553 41.2297 26.3618 59.0293 26.3237 59.7337Z" fill="#C88FEB"/>
<path d="M26.3237 59.7337C26.2826 60.4351 28.2871 60.5995 29.1147 60.1299C29.7814 59.6309 30.4147 59.0887 31.0106 58.507C28.9239 58.2663 38.7878 44.3817 40.1261 42.5151C37.0064 41.3823 34.4238 40.5283 34.1626 40.719C33.4553 41.2297 26.3618 59.0293 26.3237 59.7337Z" fill="#263238"/>
<path d="M39.5156 55.5721C39.5156 55.5721 54.0635 62.2987 66.2488 59.8746C72.1184 58.7006 73.8587 51.8948 72.3297 49.547C70.7655 47.1463 65.157 43.9708 62.143 41.9546C61.1951 41.3236 60.7754 40.0852 60.7754 40.0852H49.7317C49.7317 40.0852 47.3222 42.8233 48.5431 44.954C48.5617 44.9922 48.5854 45.0278 48.6135 45.0597L44.7337 44.2379L39.5156 55.5721Z" fill="#C88FEB"/>
<path d="M48.5431 44.957C49.1506 45.6261 58.2279 50.5478 58.2279 50.5478C58.2279 50.5478 64.978 46.7325 70.6598 47.2461C67.9379 45.1082 65.0273 43.2222 61.964 41.6113C61.2978 41.2709 61.0835 40.0881 61.0835 40.0881H49.7258C49.7258 40.0881 46.7 42.9232 48.5431 44.957Z" fill="#FFCB01"/>
<path d="M49.5967 42.9348C49.5967 43.0002 49.5707 43.0629 49.5245 43.1091C49.4783 43.1554 49.4156 43.1813 49.3502 43.1813C49.2848 43.1813 49.2221 43.1554 49.1759 43.1091C49.1296 43.0629 49.1037 43.0002 49.1037 42.9348C49.1037 42.8694 49.1296 42.8067 49.1759 42.7605C49.2221 42.7143 49.2848 42.6883 49.3502 42.6883C49.4156 42.6883 49.4783 42.7143 49.5245 42.7605C49.5707 42.8067 49.5967 42.8694 49.5967 42.9348ZM52.5315 42.6883C52.4661 42.6883 52.4034 42.7143 52.3572 42.7605C52.311 42.8067 52.285 42.8694 52.285 42.9348C52.285 43.0002 52.311 43.0629 52.3572 43.1091C52.4034 43.1554 52.4661 43.1813 52.5315 43.1813C52.5969 43.1813 52.6596 43.1554 52.7058 43.1091C52.7521 43.0629 52.778 43.0002 52.778 42.9348C52.778 42.8694 52.7521 42.8067 52.7058 42.7605C52.6596 42.7143 52.5969 42.6883 52.5315 42.6883ZM55.7099 42.6883C55.6612 42.6883 55.6135 42.7028 55.573 42.7298C55.5324 42.7569 55.5008 42.7954 55.4822 42.8405C55.4635 42.8855 55.4586 42.9351 55.4681 42.9829C55.4776 43.0307 55.5011 43.0747 55.5356 43.1091C55.5701 43.1436 55.614 43.1671 55.6618 43.1766C55.7096 43.1861 55.7592 43.1812 55.8043 43.1626C55.8493 43.1439 55.8878 43.1123 55.9149 43.0718C55.942 43.0312 55.9564 42.9836 55.9564 42.9348C55.9564 42.9019 55.9499 42.8694 55.9371 42.8391C55.9244 42.8088 55.9057 42.7814 55.8822 42.7584C55.8587 42.7354 55.8308 42.7174 55.8002 42.7053C55.7696 42.6933 55.7369 42.6875 55.704 42.6883H55.7099ZM58.8883 42.6883C58.8396 42.6883 58.7919 42.7028 58.7513 42.7298C58.7108 42.7569 58.6792 42.7954 58.6606 42.8405C58.6419 42.8855 58.637 42.9351 58.6465 42.9829C58.656 43.0307 58.6795 43.0747 58.714 43.1091C58.7485 43.1436 58.7924 43.1671 58.8402 43.1766C58.888 43.1861 58.9376 43.1812 58.9827 43.1626C59.0277 43.1439 59.0662 43.1123 59.0933 43.0718C59.1204 43.0312 59.1348 42.9836 59.1348 42.9348C59.1348 42.9019 59.1283 42.8694 59.1155 42.8391C59.1028 42.8088 59.0841 42.7814 59.0606 42.7584C59.0371 42.7354 59.0092 42.7174 58.9786 42.7053C58.948 42.6933 58.9153 42.6875 58.8824 42.6883H58.8883ZM62.0667 42.6883C62.0013 42.6883 61.9386 42.7143 61.8924 42.7605C61.8462 42.8067 61.8202 42.8694 61.8202 42.9348C61.8202 43.0002 61.8462 43.0629 61.8924 43.1091C61.9386 43.1554 62.0013 43.1813 62.0667 43.1813C62.1321 43.1813 62.1948 43.1554 62.241 43.1091C62.2873 43.0629 62.3132 43.0002 62.3132 42.9348C62.3132 42.8694 62.2873 42.8067 62.241 42.7605C62.1948 42.7143 62.1321 42.6883 62.0667 42.6883ZM50.9438 40.4021C50.895 40.4021 50.8474 40.4165 50.8068 40.4436C50.7663 40.4707 50.7347 40.5092 50.716 40.5543C50.6974 40.5993 50.6925 40.6489 50.702 40.6967C50.7115 40.7445 50.735 40.7884 50.7695 40.8229C50.8039 40.8574 50.8479 40.8809 50.8957 40.8904C50.9435 40.8999 50.9931 40.895 51.0381 40.8764C51.0832 40.8577 51.1217 40.8261 51.1488 40.7856C51.1759 40.745 51.1903 40.6974 51.1903 40.6486C51.1899 40.6158 51.1831 40.5835 51.1702 40.5534C51.1573 40.5232 51.1386 40.496 51.1152 40.4731C51.0917 40.4502 51.064 40.4321 51.0336 40.4199C51.0032 40.4078 50.9707 40.4017 50.9379 40.4021H50.9438ZM54.1222 40.4021C54.0734 40.4021 54.0258 40.4165 53.9852 40.4436C53.9447 40.4707 53.9131 40.5092 53.8944 40.5543C53.8758 40.5993 53.8709 40.6489 53.8804 40.6967C53.8899 40.7445 53.9134 40.7884 53.9479 40.8229C53.9823 40.8574 54.0263 40.8809 54.0741 40.8904C54.1219 40.8999 54.1715 40.895 54.2165 40.8764C54.2616 40.8577 54.3001 40.8261 54.3272 40.7856C54.3543 40.745 54.3687 40.6974 54.3687 40.6486C54.3687 40.6157 54.3622 40.5832 54.3494 40.5529C54.3366 40.5226 54.318 40.4951 54.2944 40.4722C54.2709 40.4492 54.2431 40.4312 54.2125 40.4191C54.1819 40.4071 54.1492 40.4013 54.1163 40.4021H54.1222ZM57.3006 40.4021C57.2352 40.4021 57.1725 40.4281 57.1263 40.4743C57.08 40.5205 57.0541 40.5832 57.0541 40.6486C57.0541 40.714 57.08 40.7767 57.1263 40.8229C57.1725 40.8692 57.2352 40.8951 57.3006 40.8951C57.366 40.8951 57.4287 40.8692 57.4749 40.8229C57.5211 40.7767 57.5471 40.714 57.5471 40.6486C57.5471 40.5832 57.5211 40.5205 57.4749 40.4743C57.4287 40.4281 57.366 40.4021 57.3006 40.4021ZM60.476 40.4021C60.4107 40.4021 60.348 40.4281 60.3017 40.4743C60.2555 40.5205 60.2295 40.5832 60.2295 40.6486C60.2295 40.714 60.2555 40.7767 60.3017 40.8229C60.348 40.8692 60.4107 40.8951 60.476 40.8951C60.5414 40.8951 60.6041 40.8692 60.6504 40.8229C60.6966 40.7767 60.7226 40.714 60.7226 40.6486C60.7226 40.5832 60.6966 40.5205 60.6504 40.4743C60.6041 40.4281 60.5414 40.4021 60.476 40.4021ZM52.5315 47.3282C52.5032 47.3278 52.4751 47.3338 52.4493 47.3458L52.7722 47.5249C52.7612 47.4692 52.7312 47.4191 52.6873 47.3832C52.6433 47.3473 52.5883 47.3278 52.5315 47.3282ZM55.7099 47.3282C55.6612 47.3282 55.6135 47.3427 55.573 47.3698C55.5324 47.3969 55.5008 47.4354 55.4822 47.4804C55.4635 47.5255 55.4586 47.575 55.4681 47.6228C55.4776 47.6707 55.5011 47.7146 55.5356 47.7491C55.5701 47.7835 55.614 47.807 55.6618 47.8165C55.7096 47.826 55.7592 47.8212 55.8043 47.8025C55.8493 47.7839 55.8878 47.7522 55.9149 47.7117C55.942 47.6712 55.9564 47.6235 55.9564 47.5747C55.9561 47.542 55.9492 47.5096 55.9363 47.4795C55.9234 47.4494 55.9047 47.4221 55.8813 47.3992C55.8579 47.3763 55.8302 47.3583 55.7997 47.3461C55.7693 47.3339 55.7368 47.3278 55.704 47.3282H55.7099ZM58.8883 47.3282C58.8396 47.3282 58.7919 47.3427 58.7513 47.3698C58.7108 47.3969 58.6792 47.4354 58.6606 47.4804C58.6419 47.5255 58.637 47.575 58.6465 47.6228C58.656 47.6707 58.6795 47.7146 58.714 47.7491C58.7485 47.7835 58.7924 47.807 58.8402 47.8165C58.888 47.826 58.9376 47.8212 58.9827 47.8025C59.0277 47.7839 59.0662 47.7522 59.0933 47.7117C59.1204 47.6712 59.1348 47.6235 59.1348 47.5747C59.1345 47.542 59.1276 47.5096 59.1147 47.4795C59.1018 47.4494 59.0831 47.4221 59.0597 47.3992C59.0363 47.3763 59.0085 47.3583 58.9781 47.3461C58.9477 47.3339 58.9152 47.3278 58.8824 47.3282H58.8883ZM62.0667 47.3282C62.0179 47.3282 61.9703 47.3427 61.9297 47.3698C61.8892 47.3969 61.8576 47.4354 61.839 47.4804C61.8203 47.5255 61.8154 47.575 61.8249 47.6228C61.8344 47.6707 61.8579 47.7146 61.8924 47.7491C61.9269 47.7835 61.9708 47.807 62.0186 47.8165C62.0664 47.826 62.116 47.8212 62.161 47.8025C62.2061 47.7839 62.2446 47.7522 62.2717 47.7117C62.2988 47.6712 62.3132 47.6235 62.3132 47.5747C62.3132 47.5419 62.3067 47.5093 62.2939 47.479C62.2812 47.4487 62.2625 47.4213 62.239 47.3983C62.2154 47.3753 62.1876 47.3573 62.157 47.3453C62.1264 47.3332 62.0937 47.3274 62.0608 47.3282H62.0667ZM65.2451 47.3282C65.1865 47.3286 65.1299 47.35 65.0856 47.3883C65.0412 47.4267 65.012 47.4796 65.0032 47.5376C64.9943 47.5956 65.0065 47.6548 65.0373 47.7046C65.0682 47.7545 65.1159 47.7917 65.1717 47.8095C65.2539 47.786 65.3331 47.7655 65.4153 47.7479C65.4485 47.7131 65.4708 47.6694 65.4795 47.6221C65.4882 47.5748 65.4828 47.526 65.4641 47.4817C65.4454 47.4374 65.4141 47.3996 65.3742 47.3728C65.3342 47.3461 65.2873 47.3316 65.2392 47.3312L65.2451 47.3282ZM50.9438 45.0449C50.895 45.0449 50.8474 45.0594 50.8068 45.0865C50.7663 45.1136 50.7347 45.1521 50.716 45.1971C50.6974 45.2422 50.6925 45.2917 50.702 45.3396C50.7115 45.3874 50.735 45.4313 50.7695 45.4658C50.8039 45.5003 50.8479 45.5237 50.8957 45.5333C50.9435 45.5428 50.9931 45.5379 51.0381 45.5192C51.0832 45.5006 51.1217 45.469 51.1488 45.4284C51.1759 45.3879 51.1903 45.3402 51.1903 45.2915C51.1903 45.2586 51.1838 45.226 51.171 45.1958C51.1582 45.1655 51.1396 45.138 51.116 45.115C51.0925 45.0921 51.0647 45.074 51.0341 45.062C51.0035 45.05 50.9708 45.0442 50.9379 45.0449H50.9438ZM54.1222 45.0449C54.0568 45.0449 53.9941 45.0709 53.9479 45.1172C53.9016 45.1634 53.8757 45.2261 53.8757 45.2915C53.8757 45.3569 53.9016 45.4196 53.9479 45.4658C53.9941 45.512 54.0568 45.538 54.1222 45.538C54.1876 45.538 54.2503 45.512 54.2965 45.4658C54.3427 45.4196 54.3687 45.3569 54.3687 45.2915C54.3687 45.2261 54.3427 45.1634 54.2965 45.1172C54.2503 45.0709 54.1876 45.0449 54.1222 45.0449ZM57.3006 45.0449C57.2517 45.0444 57.2038 45.0583 57.1628 45.0851C57.1219 45.1118 57.0898 45.1501 57.0707 45.1951C57.0516 45.2401 57.0463 45.2897 57.0555 45.3377C57.0647 45.3858 57.0879 45.43 57.1223 45.4647C57.1566 45.4995 57.2006 45.5233 57.2485 45.533C57.2964 45.5428 57.3461 45.5381 57.3913 45.5195C57.4365 45.5009 57.4752 45.4693 57.5024 45.4287C57.5296 45.3881 57.5442 45.3404 57.5442 45.2915C57.5446 45.2587 57.5384 45.2263 57.5259 45.196C57.5135 45.1657 57.4951 45.1382 57.4718 45.1152C57.4485 45.0922 57.4209 45.0741 57.3904 45.062C57.36 45.05 57.3274 45.0442 57.2947 45.0449H57.3006ZM60.476 45.0449C60.4273 45.0449 60.3796 45.0594 60.3391 45.0865C60.2985 45.1136 60.2669 45.1521 60.2483 45.1971C60.2296 45.2422 60.2247 45.2917 60.2343 45.3396C60.2438 45.3874 60.2672 45.4313 60.3017 45.4658C60.3362 45.5003 60.3801 45.5237 60.4279 45.5333C60.4758 45.5428 60.5253 45.5379 60.5704 45.5192C60.6154 45.5006 60.6539 45.469 60.681 45.4284C60.7081 45.3879 60.7226 45.3402 60.7226 45.2915C60.7226 45.2586 60.716 45.226 60.7033 45.1958C60.6905 45.1655 60.6718 45.138 60.6483 45.115C60.6248 45.0921 60.5969 45.074 60.5663 45.062C60.5357 45.05 60.503 45.0442 60.4702 45.0449H60.476ZM63.6544 45.0449C63.6057 45.0449 63.558 45.0594 63.5175 45.0865C63.4769 45.1136 63.4453 45.1521 63.4267 45.1971C63.408 45.2422 63.4031 45.2917 63.4127 45.3396C63.4222 45.3874 63.4456 45.4313 63.4801 45.4658C63.5146 45.5003 63.5585 45.5237 63.6063 45.5333C63.6542 45.5428 63.7037 45.5379 63.7488 45.5192C63.7938 45.5006 63.8323 45.469 63.8594 45.4284C63.8865 45.3879 63.901 45.3402 63.901 45.2915C63.901 45.2586 63.8944 45.226 63.8816 45.1958C63.8689 45.1655 63.8502 45.138 63.8267 45.115C63.8032 45.0921 63.7753 45.074 63.7447 45.062C63.7141 45.05 63.6814 45.0442 63.6486 45.0449H63.6544ZM66.8328 45.0449C66.7841 45.0449 66.7364 45.0594 66.6959 45.0865C66.6553 45.1136 66.6237 45.1521 66.6051 45.1971C66.5864 45.2422 66.5815 45.2917 66.591 45.3396C66.6006 45.3874 66.624 45.4313 66.6585 45.4658C66.693 45.5003 66.7369 45.5237 66.7847 45.5333C66.8326 45.5428 66.8821 45.5379 66.9272 45.5192C66.9722 45.5006 67.0107 45.469 67.0378 45.4284C67.0649 45.3879 67.0794 45.3402 67.0794 45.2915C67.0794 45.2586 67.0728 45.226 67.06 45.1958C67.0473 45.1655 67.0286 45.138 67.0051 45.115C66.9816 45.0921 66.9537 45.074 66.9231 45.062C66.8925 45.05 66.8598 45.0442 66.827 45.0449H66.8328ZM57.3006 49.6849C57.2394 49.6847 57.1803 49.7075 57.1352 49.7488C57.0901 49.7901 57.0622 49.8469 57.057 49.9079L57.4503 50.1251C57.4903 50.0935 57.5197 50.0503 57.5341 50.0014C57.5486 49.9525 57.5476 49.9003 57.5312 49.852C57.5148 49.8037 57.4838 49.7617 57.4425 49.7318C57.4012 49.7018 57.3516 49.6855 57.3006 49.6849Z" fill="white"/>
<path d="M18.0006 62.5687C17.9595 63.2702 19.9639 63.4492 20.7916 62.9649C21.4573 62.4669 22.0906 61.9267 22.6874 61.3479C24.6596 59.5371 27.3831 56.8928 27.3831 56.8928L38.1862 60.488L43.5803 49.905C43.5803 49.905 38.688 47.9417 34.0422 46.1808C33.3291 45.9108 32.6247 45.6496 31.938 45.3972L31.8118 45.3502C28.6891 44.2174 26.1065 43.3634 25.8482 43.5512C25.1409 44.0648 18.0416 61.8644 18.0006 62.5687Z" fill="#C88FEB"/>
<path d="M18.0006 62.5687C17.9595 63.2702 19.9639 63.4492 20.7916 62.9649C21.4573 62.4669 22.0906 61.9267 22.6874 61.3479C20.6008 61.1072 30.4647 47.2197 31.8059 45.3561C28.6833 44.2232 26.1006 43.3692 25.8424 43.557C25.1409 44.0648 18.0416 61.8644 18.0006 62.5687Z" fill="#263238"/>
<path d="M58.7914 40.0969H41.2119C41.2119 40.0969 38.9991 45.673 40.22 47.7949C41.4409 49.9167 53.8727 52.784 53.8727 52.784L36.528 47.1375L31.9233 58.4013C49.8461 64.8725 57.4414 63.7984 61.3887 62.5423C64.7608 61.4681 67.8453 55.1407 66.2811 52.8281C64.0917 49.6233 56.6402 44.2848 56.6402 44.2848L58.7914 40.0969Z" fill="#C88FEB"/>
<path d="M40.8481 40.0881H59.0849L56.9895 44.0853C58.8879 45.552 60.7062 47.1194 62.4365 48.781C62.4365 48.781 58.1634 47.9182 51.2989 52.1561C51.2989 52.1561 48.0706 50.9821 44.9832 49.9579C42.4827 49.1156 40.0733 48.5169 39.7006 47.3899C38.9052 44.8689 40.8481 40.0881 40.8481 40.0881Z" fill="#FFCB01"/>
<path d="M40.0615 42.9349C40.0617 42.9878 40.0446 43.0394 40.0128 43.0817C39.981 43.1241 39.9363 43.155 39.8854 43.1696C39.9177 43.0288 39.9529 42.8908 39.9881 42.7558C40.0346 42.8039 40.0609 42.868 40.0615 42.9349ZM42.9963 42.6883C42.9476 42.6883 42.8999 42.7028 42.8594 42.7299C42.8188 42.757 42.7872 42.7955 42.7686 42.8405C42.7499 42.8856 42.745 42.9351 42.7545 42.983C42.764 43.0308 42.7875 43.0747 42.822 43.1092C42.8565 43.1437 42.9004 43.1671 42.9482 43.1766C42.996 43.1862 43.0456 43.1813 43.0907 43.1626C43.1357 43.144 43.1742 43.1124 43.2013 43.0718C43.2284 43.0313 43.2428 42.9836 43.2428 42.9349C43.2428 42.9022 43.2364 42.8699 43.2238 42.8398C43.2112 42.8097 43.1928 42.7824 43.1696 42.7595C43.1464 42.7366 43.1189 42.7185 43.0886 42.7062C43.0584 42.694 43.026 42.6879 42.9934 42.6883H42.9963ZM46.1747 42.6883C46.126 42.6883 46.0783 42.7028 46.0378 42.7299C45.9972 42.757 45.9656 42.7955 45.947 42.8405C45.9283 42.8856 45.9234 42.9351 45.9329 42.983C45.9424 43.0308 45.9659 43.0747 46.0004 43.1092C46.0349 43.1437 46.0788 43.1671 46.1266 43.1766C46.1744 43.1862 46.224 43.1813 46.2691 43.1626C46.3141 43.144 46.3526 43.1124 46.3797 43.0718C46.4068 43.0313 46.4212 42.9836 46.4212 42.9349C46.4212 42.9022 46.4148 42.8699 46.4022 42.8398C46.3896 42.8097 46.3712 42.7824 46.348 42.7595C46.3248 42.7366 46.2973 42.7185 46.267 42.7062C46.2368 42.694 46.2044 42.6879 46.1718 42.6883H46.1747ZM49.3531 42.6883C49.2877 42.6883 49.225 42.7143 49.1788 42.7605C49.1326 42.8068 49.1066 42.8695 49.1066 42.9349C49.1066 43.0002 49.1326 43.0629 49.1788 43.1092C49.225 43.1554 49.2877 43.1814 49.3531 43.1814C49.4185 43.1814 49.4812 43.1554 49.5274 43.1092C49.5737 43.0629 49.5996 43.0002 49.5996 42.9349C49.5996 42.8695 49.5737 42.8068 49.5274 42.7605C49.4812 42.7143 49.4185 42.6883 49.3531 42.6883ZM52.5286 42.6883C52.4632 42.6883 52.4005 42.7143 52.3543 42.7605C52.308 42.8068 52.2821 42.8695 52.2821 42.9349C52.2821 43.0002 52.308 43.0629 52.3543 43.1092C52.4005 43.1554 52.4632 43.1814 52.5286 43.1814C52.594 43.1814 52.6567 43.1554 52.7029 43.1092C52.7491 43.0629 52.7751 43.0002 52.7751 42.9349C52.7751 42.8695 52.7491 42.8068 52.7029 42.7605C52.6567 42.7143 52.594 42.6883 52.5286 42.6883ZM55.707 42.6883C55.6582 42.6883 55.6105 42.7028 55.57 42.7299C55.5295 42.757 55.4979 42.7955 55.4792 42.8405C55.4606 42.8856 55.4557 42.9351 55.4652 42.983C55.4747 43.0308 55.4982 43.0747 55.5327 43.1092C55.5671 43.1437 55.6111 43.1671 55.6589 43.1766C55.7067 43.1862 55.7563 43.1813 55.8013 43.1626C55.8464 43.144 55.8849 43.1124 55.9119 43.0718C55.939 43.0313 55.9535 42.9836 55.9535 42.9349C55.9535 42.9022 55.947 42.8699 55.9345 42.8398C55.9219 42.8097 55.9035 42.7824 55.8803 42.7595C55.8571 42.7366 55.8295 42.7185 55.7993 42.7062C55.769 42.694 55.7367 42.6879 55.704 42.6883L55.707 42.6883ZM41.4086 40.4021C41.3598 40.4021 41.3122 40.4166 41.2716 40.4437C41.2311 40.4708 41.1995 40.5093 41.1808 40.5543C41.1622 40.5993 41.1573 40.6489 41.1668 40.6967C41.1763 40.7446 41.1998 40.7885 41.2343 40.823C41.2687 40.8574 41.3127 40.8809 41.3605 40.8904C41.4083 40.8999 41.4579 40.8951 41.5029 40.8764C41.548 40.8577 41.5865 40.8261 41.6136 40.7856C41.6407 40.7451 41.6551 40.6974 41.6551 40.6486C41.6551 40.616 41.6486 40.5837 41.6361 40.5536C41.6235 40.5235 41.6051 40.4962 41.5819 40.4733C41.5587 40.4503 41.5311 40.4323 41.5009 40.42C41.4706 40.4078 41.4383 40.4017 41.4057 40.4021H41.4086ZM44.5841 40.4021C44.5353 40.4021 44.4876 40.4166 44.4471 40.4437C44.4065 40.4708 44.375 40.5093 44.3563 40.5543C44.3376 40.5993 44.3328 40.6489 44.3423 40.6967C44.3518 40.7446 44.3753 40.7885 44.4097 40.823C44.4442 40.8574 44.4881 40.8809 44.536 40.8904C44.5838 40.8999 44.6333 40.8951 44.6784 40.8764C44.7234 40.8577 44.7619 40.8261 44.789 40.7856C44.8161 40.7451 44.8306 40.6974 44.8306 40.6486C44.8306 40.616 44.8241 40.5837 44.8115 40.5536C44.799 40.5235 44.7805 40.4962 44.7573 40.4733C44.7341 40.4503 44.7066 40.4323 44.6764 40.42C44.6461 40.4078 44.6137 40.4017 44.5811 40.4021H44.5841ZM47.7624 40.4021C47.6971 40.4021 47.6344 40.4281 47.5881 40.4743C47.5419 40.5206 47.5159 40.5833 47.5159 40.6486C47.5159 40.714 47.5419 40.7767 47.5881 40.823C47.6344 40.8692 47.6971 40.8952 47.7624 40.8952C47.8278 40.8952 47.8905 40.8692 47.9368 40.823C47.983 40.7767 48.009 40.714 48.009 40.6486C48.009 40.5833 47.983 40.5206 47.9368 40.4743C47.8905 40.4281 47.8278 40.4021 47.7624 40.4021ZM50.9408 40.4021C50.8921 40.4021 50.8444 40.4166 50.8039 40.4437C50.7633 40.4708 50.7317 40.5093 50.7131 40.5543C50.6944 40.5993 50.6895 40.6489 50.6991 40.6967C50.7086 40.7446 50.732 40.7885 50.7665 40.823C50.801 40.8574 50.8449 40.8809 50.8927 40.8904C50.9406 40.8999 50.9901 40.8951 51.0352 40.8764C51.0802 40.8577 51.1187 40.8261 51.1458 40.7856C51.1729 40.7451 51.1874 40.6974 51.1874 40.6486C51.1866 40.583 51.16 40.5203 51.1133 40.4741C51.0666 40.428 51.0036 40.4021 50.9379 40.4021L50.9408 40.4021ZM54.1192 40.4021C54.0705 40.4021 54.0228 40.4166 53.9823 40.4437C53.9417 40.4708 53.9101 40.5093 53.8915 40.5543C53.8728 40.5993 53.8679 40.6489 53.8775 40.6967C53.887 40.7446 53.9104 40.7885 53.9449 40.823C53.9794 40.8574 54.0233 40.8809 54.0711 40.8904C54.119 40.8999 54.1685 40.8951 54.2136 40.8764C54.2586 40.8577 54.2971 40.8261 54.3242 40.7856C54.3513 40.7451 54.3658 40.6974 54.3658 40.6486C54.3658 40.616 54.3593 40.5837 54.3467 40.5536C54.3341 40.5235 54.3157 40.4962 54.2925 40.4733C54.2693 40.4503 54.2418 40.4323 54.2116 40.42C54.1813 40.4078 54.1489 40.4017 54.1163 40.4021L54.1192 40.4021ZM57.2976 40.4021C57.2323 40.4021 57.1695 40.4281 57.1233 40.4743C57.0771 40.5206 57.0511 40.5833 57.0511 40.6486C57.0511 40.714 57.0771 40.7767 57.1233 40.823C57.1695 40.8692 57.2323 40.8952 57.2976 40.8952C57.363 40.8952 57.4257 40.8692 57.472 40.823C57.5182 40.7767 57.5442 40.714 57.5442 40.6486C57.5442 40.5833 57.5182 40.5206 57.472 40.4743C57.4257 40.4281 57.363 40.4021 57.2976 40.4021ZM39.8179 47.3283C39.7801 47.328 39.7428 47.337 39.7093 47.3547C39.708 47.3634 39.708 47.3723 39.7093 47.3811C39.7595 47.529 39.8383 47.6656 39.9412 47.7832C39.9772 47.7617 40.007 47.7311 40.0276 47.6946C40.0482 47.658 40.0589 47.6167 40.0586 47.5748C40.0586 47.5099 40.033 47.4476 39.9874 47.4015C39.9418 47.3554 39.8799 47.329 39.815 47.3283H39.8179ZM42.9963 47.3283C42.9476 47.3283 42.8999 47.3427 42.8594 47.3698C42.8188 47.3969 42.7872 47.4354 42.7686 47.4804C42.7499 47.5255 42.745 47.5751 42.7545 47.6229C42.764 47.6707 42.7875 47.7146 42.822 47.7491C42.8565 47.7836 42.9004 47.8071 42.9482 47.8166C42.996 47.8261 43.0456 47.8212 43.0907 47.8025C43.1357 47.7839 43.1742 47.7523 43.2013 47.7117C43.2284 47.6712 43.2428 47.6235 43.2428 47.5748C43.2421 47.5091 43.2154 47.4464 43.1688 47.4003C43.1221 47.3541 43.059 47.3283 42.9934 47.3283H42.9963ZM46.1747 47.3283C46.126 47.3283 46.0783 47.3427 46.0378 47.3698C45.9972 47.3969 45.9656 47.4354 45.947 47.4804C45.9283 47.5255 45.9234 47.5751 45.9329 47.6229C45.9424 47.6707 45.9659 47.7146 46.0004 47.7491C46.0349 47.7836 46.0788 47.8071 46.1266 47.8166C46.1744 47.8261 46.224 47.8212 46.2691 47.8025C46.3141 47.7839 46.3526 47.7523 46.3797 47.7117C46.4068 47.6712 46.4212 47.6235 46.4212 47.5748C46.4205 47.5091 46.3938 47.4464 46.3471 47.4003C46.3004 47.3541 46.2374 47.3283 46.1718 47.3283H46.1747ZM49.3531 47.3283C49.3044 47.3283 49.2567 47.3427 49.2162 47.3698C49.1756 47.3969 49.144 47.4354 49.1254 47.4804C49.1067 47.5255 49.1018 47.5751 49.1113 47.6229C49.1208 47.6707 49.1443 47.7146 49.1788 47.7491C49.2133 47.7836 49.2572 47.8071 49.305 47.8166C49.3528 47.8261 49.4024 47.8212 49.4475 47.8025C49.4925 47.7839 49.531 47.7523 49.5581 47.7117C49.5852 47.6712 49.5996 47.6235 49.5996 47.5748C49.5996 47.5422 49.5932 47.5099 49.5806 47.4798C49.568 47.4497 49.5496 47.4224 49.5264 47.3994C49.5032 47.3765 49.4757 47.3584 49.4454 47.3462C49.4152 47.334 49.3828 47.3279 49.3502 47.3283H49.3531ZM52.5286 47.3283C52.4798 47.3283 52.4322 47.3427 52.3916 47.3698C52.3511 47.3969 52.3195 47.4354 52.3008 47.4804C52.2822 47.5255 52.2773 47.5751 52.2868 47.6229C52.2963 47.6707 52.3198 47.7146 52.3543 47.7491C52.3887 47.7836 52.4327 47.8071 52.4805 47.8166C52.5283 47.8261 52.5779 47.8212 52.6229 47.8025C52.668 47.7839 52.7065 47.7523 52.7336 47.7117C52.7606 47.6712 52.7751 47.6235 52.7751 47.5748C52.7751 47.5099 52.7495 47.4476 52.7039 47.4015C52.6583 47.3554 52.5964 47.329 52.5315 47.3282L52.5286 47.3283ZM55.707 47.3283C55.6582 47.3283 55.6105 47.3427 55.57 47.3698C55.5295 47.3969 55.4979 47.4354 55.4792 47.4804C55.4606 47.5255 55.4557 47.5751 55.4652 47.6229C55.4747 47.6707 55.4982 47.7146 55.5327 47.7491C55.5671 47.7836 55.6111 47.8071 55.6589 47.8166C55.7067 47.8261 55.7563 47.8212 55.8013 47.8025C55.8464 47.7839 55.8849 47.7523 55.9119 47.7117C55.939 47.6712 55.9535 47.6235 55.9535 47.5748C55.9527 47.5091 55.9261 47.4464 55.8794 47.4003C55.8327 47.3541 55.7697 47.3282 55.704 47.3282L55.707 47.3283ZM58.8854 47.3283C58.8366 47.3283 58.7889 47.3427 58.7484 47.3698C58.7079 47.3969 58.6763 47.4354 58.6576 47.4804C58.639 47.5255 58.6341 47.5751 58.6436 47.6229C58.6531 47.6707 58.6766 47.7146 58.711 47.7491C58.7455 47.7836 58.7895 47.8071 58.8373 47.8166C58.8851 47.8261 58.9347 47.8212 58.9797 47.8025C59.0248 47.7839 59.0633 47.7523 59.0903 47.7117C59.1174 47.6712 59.1319 47.6235 59.1319 47.5748C59.1311 47.5091 59.1045 47.4464 59.0578 47.4003C59.0111 47.3541 58.9481 47.3282 58.8824 47.3282L58.8854 47.3283ZM41.4086 45.045C41.3432 45.045 41.2805 45.071 41.2343 45.1172C41.188 45.1634 41.1621 45.2261 41.1621 45.2915C41.1621 45.3569 41.188 45.4196 41.2343 45.4658C41.2805 45.5121 41.3432 45.538 41.4086 45.538C41.474 45.538 41.5367 45.5121 41.5829 45.4658C41.6291 45.4196 41.6551 45.3569 41.6551 45.2915C41.6551 45.2261 41.6291 45.1634 41.5829 45.1172C41.5367 45.071 41.474 45.045 41.4086 45.045ZM44.5841 45.045C44.5187 45.045 44.456 45.071 44.4097 45.1172C44.3635 45.1634 44.3375 45.2261 44.3375 45.2915C44.3375 45.3569 44.3635 45.4196 44.4097 45.4658C44.456 45.5121 44.5187 45.538 44.5841 45.538C44.6494 45.538 44.7121 45.5121 44.7584 45.4658C44.8046 45.4196 44.8306 45.3569 44.8306 45.2915C44.8306 45.2261 44.8046 45.1634 44.7584 45.1172C44.7121 45.071 44.6494 45.045 44.5841 45.045ZM47.7624 45.045C47.7137 45.045 47.666 45.0594 47.6255 45.0865C47.5849 45.1136 47.5533 45.1521 47.5347 45.1972C47.516 45.2422 47.5112 45.2918 47.5207 45.3396C47.5302 45.3874 47.5537 45.4313 47.5881 45.4658C47.6226 45.5003 47.6665 45.5238 47.7144 45.5333C47.7622 45.5428 47.8117 45.5379 47.8568 45.5193C47.9018 45.5006 47.9403 45.469 47.9674 45.4285C47.9945 45.3879 48.009 45.3403 48.009 45.2915C48.009 45.2589 48.0025 45.2266 47.9899 45.1965C47.9774 45.1664 47.9589 45.1391 47.9357 45.1161C47.9125 45.0932 47.885 45.0751 47.8548 45.0629C47.8245 45.0507 47.7921 45.0446 47.7595 45.045H47.7624ZM50.9408 45.045C50.8921 45.045 50.8444 45.0594 50.8039 45.0865C50.7633 45.1136 50.7317 45.1521 50.7131 45.1972C50.6944 45.2422 50.6895 45.2918 50.6991 45.3396C50.7086 45.3874 50.732 45.4313 50.7665 45.4658C50.801 45.5003 50.8449 45.5238 50.8927 45.5333C50.9406 45.5428 50.9901 45.5379 51.0352 45.5193C51.0802 45.5006 51.1187 45.469 51.1458 45.4285C51.1729 45.3879 51.1874 45.3403 51.1874 45.2915C51.1874 45.2589 51.1809 45.2266 51.1683 45.1965C51.1558 45.1664 51.1373 45.1391 51.1141 45.1161C51.0909 45.0932 51.0634 45.0751 51.0332 45.0629C51.0029 45.0507 50.9705 45.0446 50.9379 45.0449L50.9408 45.045ZM54.1192 45.045C54.0539 45.045 53.9912 45.071 53.9449 45.1172C53.8987 45.1634 53.8727 45.2261 53.8727 45.2915C53.8727 45.3569 53.8987 45.4196 53.9449 45.4658C53.9912 45.5121 54.0539 45.538 54.1192 45.538C54.1846 45.538 54.2473 45.5121 54.2936 45.4658C54.3398 45.4196 54.3658 45.3569 54.3658 45.2915C54.3658 45.2261 54.3398 45.1634 54.2936 45.1172C54.2473 45.071 54.1846 45.045 54.1192 45.045ZM57.2976 45.045C57.2488 45.0444 57.2008 45.0584 57.1599 45.0851C57.119 45.1118 57.0869 45.1501 57.0678 45.1951C57.0487 45.2401 57.0434 45.2898 57.0526 45.3378C57.0617 45.3858 57.085 45.43 57.1193 45.4648C57.1537 45.4995 57.1976 45.5233 57.2455 45.5331C57.2934 45.5428 57.3431 45.5381 57.3884 45.5195C57.4336 45.501 57.4722 45.4694 57.4995 45.4288C57.5267 45.3882 57.5412 45.3404 57.5412 45.2915C57.5416 45.259 57.5355 45.2268 57.5233 45.1967C57.511 45.1666 57.4929 45.1393 57.4699 45.1163C57.4469 45.0933 57.4196 45.0752 57.3895 45.063C57.3594 45.0507 57.3272 45.0446 57.2947 45.0449L57.2976 45.045ZM44.5841 49.6849C44.5189 49.6855 44.4567 49.7119 44.4109 49.7583L44.8276 49.8962C44.8191 49.8371 44.7894 49.7831 44.7441 49.7443C44.6987 49.7054 44.6408 49.6843 44.5811 49.6849H44.5841ZM47.7624 49.6849C47.7137 49.6849 47.666 49.6994 47.6255 49.7265C47.5849 49.7536 47.5533 49.7921 47.5347 49.8371C47.516 49.8821 47.5112 49.9317 47.5207 49.9795C47.5302 50.0274 47.5537 50.0713 47.5881 50.1058C47.6226 50.1402 47.6665 50.1637 47.7144 50.1732C47.7622 50.1827 47.8117 50.1779 47.8568 50.1592C47.9018 50.1405 47.9403 50.1089 47.9674 50.0684C47.9945 50.0279 48.009 49.9802 48.009 49.9314C48.0082 49.8658 47.9816 49.8031 47.9349 49.7569C47.8882 49.7108 47.8252 49.6849 47.7595 49.6849H47.7624ZM50.9408 49.6849C50.8921 49.6849 50.8444 49.6994 50.8039 49.7265C50.7633 49.7536 50.7317 49.7921 50.7131 49.8371C50.6944 49.8821 50.6895 49.9317 50.6991 49.9795C50.7086 50.0274 50.732 50.0713 50.7665 50.1058C50.801 50.1402 50.8449 50.1637 50.8927 50.1732C50.9406 50.1827 50.9901 50.1779 51.0352 50.1592C51.0802 50.1405 51.1187 50.1089 51.1458 50.0684C51.1729 50.0279 51.1874 49.9802 51.1874 49.9314C51.1866 49.8658 51.16 49.8031 51.1133 49.7569C51.0666 49.7108 51.0036 49.6849 50.9379 49.6849H50.9408ZM54.1192 49.6849C54.0705 49.6849 54.0228 49.6994 53.9823 49.7265C53.9417 49.7536 53.9101 49.7921 53.8915 49.8371C53.8728 49.8821 53.8679 49.9317 53.8775 49.9795C53.887 50.0274 53.9104 50.0713 53.9449 50.1058C53.9794 50.1402 54.0233 50.1637 54.0711 50.1732C54.119 50.1827 54.1685 50.1779 54.2136 50.1592C54.2586 50.1405 54.2971 50.1089 54.3242 50.0684C54.3513 50.0279 54.3658 49.9802 54.3658 49.9314C54.3658 49.8988 54.3593 49.8665 54.3467 49.8364C54.3341 49.8063 54.3157 49.779 54.2925 49.7561C54.2693 49.7331 54.2418 49.715 54.2116 49.7028C54.1813 49.6906 54.1489 49.6845 54.1163 49.6849H54.1192Z" fill="white"/>
<path d="M62.636 48.9277C62.9295 49.1713 65.43 51.3225 66.1578 52.3731C66.4898 52.8454 66.7271 53.3777 66.8563 53.9403C66.9779 54.5922 66.9458 55.2635 66.7624 55.9008C66.3428 57.3826 65.6554 58.7752 64.7344 60.0095C64.7109 60.0418 64.6581 60.0095 64.6816 59.9772C65.4521 58.8891 66.0307 57.6771 66.3926 56.3938C66.628 55.7017 66.7111 54.9669 66.6362 54.2397C66.5371 53.6689 66.3158 53.1263 65.9876 52.649C65.3155 51.6218 62.8004 49.4207 62.4805 49.1507C61.7438 48.5285 62.4599 48.778 62.636 48.9277ZM56.156 53.7936C55.3871 53.459 54.5947 53.1802 53.8081 52.8838C53.5146 52.7752 53.2417 52.6725 52.957 52.5698C53.4325 52.6784 53.9108 52.8134 54.3951 52.8809C54.4042 52.8816 54.4133 52.8791 54.4207 52.8738C54.4281 52.8685 54.4333 52.8606 54.4355 52.8518C54.4376 52.8429 54.4365 52.8335 54.4323 52.8254C54.4281 52.8173 54.4212 52.8109 54.4127 52.8075C53.9418 52.6496 53.4589 52.5299 52.9688 52.4494C52.7487 52.4054 52.5227 52.3702 52.2996 52.335L51.4632 52.0415C49.8755 51.478 48.2819 50.9351 46.6912 50.3834C43.504 49.274 40.309 48.1832 37.1061 47.111L34.4237 46.2306C33.5227 45.9371 32.6041 45.67 31.7032 45.3707C31.6767 45.3707 31.6679 45.403 31.7032 45.4118C32.5073 45.7053 33.2997 46.031 34.1038 46.3216L36.4517 47.1668C38.0365 47.7391 39.6271 48.2938 41.2149 48.8543C44.3903 49.9715 47.5707 51.076 50.7559 52.1677C51.6364 52.4612 52.5168 52.7752 53.3973 53.0482C54.2777 53.3211 55.208 53.6351 56.1266 53.8846C56.1736 53.8963 56.2088 53.8112 56.156 53.7936ZM60.388 0.444674C60.9162 0.500435 63.2024 0.186411 64.7726 2.23784C66.2605 4.17775 66.8944 10.1618 67.2319 11.4649C67.5694 12.7679 69.2863 12.9323 69.7236 14.4349C70.0963 15.7321 69.1572 16.231 69.0779 17.1907C69.0192 17.9332 69.7911 19.0308 69.1366 20.1431C68.5497 21.1556 67.452 20.9678 66.7888 21.2935C66.1255 21.6193 65.7675 23.1454 64.5642 23.5768C63.3609 24.0082 62.2662 22.9312 61.6294 22.9488C60.9925 22.9664 60.2647 24.9591 58.1634 24.83C56.0621 24.7009 55.4193 22.94 54.5477 22.6083C53.6761 22.2767 51.5131 22.9253 50.4977 21.8629C49.4822 20.8005 49.2827 19.3624 48.8219 18.84C48.3611 18.3176 47.4337 18.4204 46.8497 17.2024C46.2657 15.9845 47.3956 15.1774 47.5364 14.1062C47.6333 13.3608 46.9495 12.6916 47.3985 11.547C48.0031 9.97106 49.9224 10.2645 50.6268 8.64453C51.1727 7.37669 52.238 1.89447 55.5162 0.465215C57.7819 -0.512075 60.388 0.444674 60.388 0.444674Z" fill="#263238"/>
<path d="M67.1615 11.1509C67.2983 11.4259 67.4997 11.6635 67.7485 11.8436L68.444 12.4305C68.9183 12.7796 69.3344 13.2015 69.6766 13.6807C69.8359 13.9092 69.9402 14.1714 69.9814 14.4468C70.0226 14.7222 69.9997 15.0034 69.9144 15.2685C69.8125 15.5344 69.6699 15.783 69.4917 16.0051C69.2852 16.2476 69.1161 16.5197 68.9899 16.8122C68.915 17.1435 68.9522 17.4903 69.0956 17.7983C69.1983 18.0918 69.3127 18.3588 69.389 18.6376C69.4942 18.8999 69.5465 19.1804 69.543 19.4629C69.5395 19.7454 69.4802 20.0245 69.3685 20.2841C69.2527 20.538 69.054 20.745 68.805 20.871C68.5435 20.9902 68.2615 21.0579 67.9744 21.0706C67.681 21.097 67.3875 21.0941 67.0764 21.1058C66.7675 21.085 66.4598 21.1609 66.196 21.323C66.4711 21.1969 66.7769 21.1531 67.0764 21.1968C67.3699 21.1968 67.6634 21.2408 67.9803 21.2379C68.2947 21.2421 68.6069 21.1842 68.8989 21.0677C69.1992 20.9342 69.4469 20.7051 69.6033 20.4161C69.9437 19.8468 69.8645 19.1336 69.6884 18.5584C69.6003 18.2649 69.4888 17.9714 69.3949 17.7014C69.2841 17.4601 69.2523 17.19 69.3039 16.9296C69.4741 16.4483 70.0053 16.008 70.1844 15.38C70.2827 15.0715 70.3055 14.7438 70.2509 14.4246C70.1963 14.1054 70.0657 13.804 69.8703 13.5457C69.4895 13.0641 69.0337 12.647 68.5203 12.3102L67.7925 11.7731C67.5394 11.6141 67.3241 11.4018 67.1615 11.1509ZM52.5315 3.62609C51.9798 4.55936 51.6511 5.59242 51.2167 6.5609C51.0025 7.05101 50.8029 7.54993 50.5564 8.01363C50.441 8.24317 50.3013 8.45963 50.1396 8.65929C50.1054 8.70587 50.0638 8.74652 50.0164 8.77962C49.9736 8.81759 49.9263 8.85012 49.8755 8.87646C49.764 8.9381 49.6436 8.99386 49.5233 9.04962C49.0223 9.26312 48.5325 9.50214 48.0559 9.76571C47.5549 10.0387 47.1516 10.4615 46.9025 10.9748C46.7804 11.2379 46.7278 11.5279 46.7499 11.8171C46.7861 12.0968 46.8758 12.3668 47.0141 12.6125C47.3054 13.0623 47.4882 13.5737 47.5482 14.1063C47.5516 13.5614 47.4205 13.0242 47.1667 12.542C47.0535 12.3105 46.9858 12.0595 46.9671 11.8025C46.9647 11.5531 47.0242 11.3071 47.1403 11.0864C47.3898 10.6391 47.764 10.2741 48.2173 10.0357C48.6878 9.78619 49.1707 9.5609 49.6642 9.36071C49.7875 9.30201 49.9107 9.24038 50.034 9.16995C50.1665 9.09429 50.2839 8.99479 50.3803 8.87646C50.5557 8.65549 50.7054 8.41524 50.8264 8.16037C51.0676 7.67404 51.2783 7.17318 51.4574 6.66068L51.9798 5.13165C52.1358 4.62004 52.32 4.11742 52.5315 3.62609ZM48.3142 18.485C48.5091 18.8142 48.6349 19.1797 48.684 19.5592C48.772 19.9319 48.8601 20.3105 48.9774 20.6832C49.0807 21.0642 49.2244 21.4332 49.4059 21.7837C49.5876 22.1554 49.8577 22.4769 50.1925 22.7199C50.9379 23.1748 51.8037 23.1015 52.555 22.9459C52.9365 22.8696 53.3092 22.7698 53.6819 22.7023C54.0514 22.6047 54.439 22.5976 54.8118 22.6818C54.447 22.532 54.0491 22.4814 53.6585 22.5351C53.2711 22.5703 52.8895 22.6407 52.511 22.6877C51.7684 22.7816 50.976 22.8109 50.3803 22.4323C50.0898 22.2228 49.8534 21.9472 49.6906 21.6282C49.5078 21.2993 49.3527 20.9557 49.2269 20.601C49.0919 20.243 48.9774 19.8791 48.8542 19.5122C48.7867 19.3302 48.7192 19.1483 48.6429 18.9693C48.5788 18.7813 48.4652 18.614 48.3142 18.485Z" fill="#263238"/>
<path d="M55.6629 20.7741C56.9572 23.8792 63.5869 33.6873 66.2282 34.8994C68.9136 36.1379 79.0856 33.5083 81.4599 32.2845C82.4313 31.7826 79.4055 23.9613 78.2316 23.9848C76.9608 24.0083 69.4272 26.8815 68.5849 26.6408C67.7426 26.4002 61.8906 21.1116 58.1957 18.5173C56.0034 16.9618 54.6152 18.259 55.6629 20.7741Z" fill="#EB9481"/>
<path d="M79.2382 33.0856C80.2302 32.977 85.6743 32.1347 86.8687 31.6035C88.0632 31.0723 91.406 29.2997 91.0949 28.34C90.7838 27.3804 89.7625 27.8235 89.7625 27.8235C89.7625 27.8235 91.1917 26.7787 90.6429 25.913C90.2115 25.2233 88.7441 25.7692 88.7441 25.7692C88.7441 25.7692 90.2496 24.5395 89.604 23.75C89.017 23.031 87.5819 24.02 87.5819 24.02C87.5819 24.02 88.7382 22.8666 88.0397 22.2826C87.1974 21.5783 85.1959 23.5769 83.8283 24.0611C83.5172 24.1726 77.3717 25.8484 77.3717 25.8484L79.2382 33.0856Z" fill="#EB9481"/>
<path d="M87.5819 23.9319C85.9296 25.2761 85.2076 25.7838 83.209 26.227C83.1709 26.227 83.1738 26.2974 83.209 26.2915C85.2047 26.0333 86.1057 25.4933 87.6465 23.9994C87.7316 23.929 87.6582 23.8762 87.5819 23.9319ZM88.7294 25.7574C87.0624 27.1456 86.0881 27.5183 84.0337 28.1405C84.0044 28.1405 84.0337 28.1991 84.0484 28.1933C86.1174 27.7531 87.306 27.4068 88.7852 25.8014C88.8527 25.728 88.8057 25.6958 88.7294 25.7574ZM89.6539 27.8528C87.9458 29.0796 86.901 29.5932 84.8261 29.9395C84.816 29.9395 84.8063 29.9435 84.7991 29.9507C84.792 29.9578 84.788 29.9675 84.788 29.9776C84.788 29.9878 84.792 29.9975 84.7991 30.0046C84.8063 30.0118 84.816 30.0158 84.8261 30.0158C86.9773 29.8691 88.2863 29.2381 89.6803 27.9086C89.7801 27.8176 89.7625 27.7765 89.6539 27.8528Z" fill="#263238"/>
<path d="M75.558 24.6774C75.558 24.6774 77.9293 23.5768 78.9946 23.0867C80.06 22.5966 82.8715 20.7946 83.7637 21.2613C84.7674 21.7837 82.8392 24.1374 80.9492 25.0266C80.9492 25.0266 81.4452 28.4251 79.6667 29.3643C77.8882 30.3034 75.558 24.6774 75.558 24.6774Z" fill="#EB9481"/>
<path d="M80.7878 25.1881C81.0285 26.5028 80.826 28.252 79.8428 29.153C79.8382 29.1586 79.8357 29.1656 79.8356 29.1729C79.8354 29.1801 79.8378 29.1872 79.8422 29.193C79.8466 29.1988 79.8528 29.2029 79.8599 29.2047C79.8669 29.2065 79.8743 29.2058 79.881 29.2029C81.0549 28.3782 81.319 26.3561 81.0314 25.1939C80.9786 24.9709 80.7262 24.8476 80.7878 25.1881Z" fill="#263238"/>
<path d="M74.8361 24.7067L79.2383 34.0981C79.2383 34.0981 68.3413 36.3902 66.1285 35.1722C63.9156 33.9543 57.2478 25.0237 55.6542 21.4109C54.0606 17.7982 55.4781 16.7152 58.4686 18.4761C61.4592 20.237 68.2269 26.3238 68.7405 26.3561C69.2541 26.3884 74.8361 24.7067 74.8361 24.7067Z" fill="#AD49EB"/>
<path d="M40.8158 40.1702C40.8158 40.1468 61.0894 40.0881 61.0894 40.0881C61.1364 40.0059 60.074 22.8021 58.0226 18.4673C57.327 16.9999 54.8735 15.9199 52.5081 17.6749C46.0926 22.4411 40.8275 40.1908 40.8158 40.1702Z" fill="#FFCB01"/>
<path d="M52.7722 19.7293C52.7704 19.7779 52.7543 19.8249 52.7259 19.8643C52.6976 19.9038 52.6581 19.934 52.6126 19.9511C52.5671 19.9683 52.5176 19.9716 52.4702 19.9606C52.4228 19.9496 52.3798 19.9249 52.3464 19.8895C52.3131 19.8541 52.2909 19.8097 52.2828 19.7617C52.2746 19.7138 52.2808 19.6645 52.3006 19.6201C52.3204 19.5757 52.3529 19.5381 52.394 19.5121C52.435 19.4861 52.4829 19.4728 52.5315 19.474C52.5643 19.4743 52.5966 19.4813 52.6266 19.4944C52.6566 19.5076 52.6837 19.5266 52.7061 19.5505C52.7286 19.5743 52.746 19.6024 52.7574 19.6332C52.7687 19.6639 52.7738 19.6966 52.7722 19.7293ZM55.707 19.4828C55.6416 19.4828 55.5789 19.5087 55.5327 19.555C55.4864 19.6012 55.4604 19.6639 55.4604 19.7293C55.4604 19.7947 55.4864 19.8574 55.5327 19.9036C55.5789 19.9498 55.6416 19.9758 55.707 19.9758C55.7724 19.9758 55.8351 19.9498 55.8813 19.9036C55.9275 19.8574 55.9535 19.7947 55.9535 19.7293C55.9535 19.6639 55.9275 19.6012 55.8813 19.555C55.8351 19.5087 55.7724 19.4828 55.707 19.4828ZM54.1192 17.1995C54.0705 17.1995 54.0228 17.2139 53.9823 17.241C53.9417 17.2681 53.9101 17.3066 53.8915 17.3517C53.8728 17.3967 53.8679 17.4463 53.8775 17.4941C53.887 17.5419 53.9104 17.5858 53.9449 17.6203C53.9794 17.6548 54.0233 17.6783 54.0711 17.6878C54.119 17.6973 54.1685 17.6924 54.2136 17.6738C54.2586 17.6551 54.2971 17.6235 54.3242 17.583C54.3513 17.5424 54.3658 17.4948 54.3658 17.446C54.3658 17.4134 54.3593 17.3811 54.3467 17.351C54.3342 17.3209 54.3157 17.2936 54.2925 17.2706C54.2693 17.2477 54.2418 17.2296 54.2116 17.2174C54.1813 17.2052 54.1489 17.1991 54.1163 17.1995H54.1192ZM57.0541 17.3756C57.0498 17.3989 57.0498 17.4227 57.0541 17.446C57.0541 17.5114 57.08 17.5741 57.1263 17.6203C57.1725 17.6666 57.2352 17.6925 57.3006 17.6925C57.3433 17.6931 57.3852 17.6808 57.4209 17.6573C57.3084 17.5538 57.1877 17.4596 57.0599 17.3756H57.0541ZM49.3443 24.1256C49.2789 24.1256 49.2162 24.1516 49.17 24.1978C49.1238 24.2441 49.0978 24.3068 49.0978 24.3722C49.0978 24.4375 49.1238 24.5002 49.17 24.5465C49.2162 24.5927 49.2789 24.6187 49.3443 24.6187C49.4097 24.6187 49.4724 24.5927 49.5186 24.5465C49.5649 24.5002 49.5908 24.4375 49.5908 24.3722C49.5908 24.3068 49.5649 24.2441 49.5186 24.1978C49.4724 24.1516 49.4097 24.1256 49.3443 24.1256ZM52.5198 24.1256C52.4544 24.1256 52.3917 24.1516 52.3455 24.1978C52.2992 24.2441 52.2732 24.3068 52.2732 24.3722C52.2732 24.4375 52.2992 24.5002 52.3455 24.5465C52.3917 24.5927 52.4544 24.6187 52.5198 24.6187C52.5852 24.6187 52.6479 24.5927 52.6941 24.5465C52.7403 24.5002 52.7663 24.4375 52.7663 24.3722C52.7663 24.3068 52.7403 24.2441 52.6941 24.1978C52.6479 24.1516 52.5852 24.1256 52.5198 24.1256ZM55.6982 24.1256C55.6494 24.1256 55.6017 24.1401 55.5612 24.1672C55.5207 24.1943 55.4891 24.2328 55.4704 24.2778C55.4518 24.3229 55.4469 24.3724 55.4564 24.4202C55.4659 24.4681 55.4894 24.512 55.5238 24.5465C55.5583 24.5809 55.6023 24.6044 55.6501 24.6139C55.6979 24.6235 55.7475 24.6186 55.7925 24.5999C55.8376 24.5813 55.8761 24.5497 55.9031 24.5091C55.9302 24.4686 55.9447 24.4209 55.9447 24.3722C55.9447 24.3078 55.9195 24.2459 55.8746 24.1999C55.8296 24.1538 55.7684 24.1272 55.704 24.1256H55.6982ZM58.8766 24.1256C58.8278 24.1256 58.7801 24.1401 58.7396 24.1672C58.6991 24.1943 58.6675 24.2328 58.6488 24.2778C58.6302 24.3229 58.6253 24.3724 58.6348 24.4202C58.6443 24.4681 58.6678 24.512 58.7022 24.5465C58.7367 24.5809 58.7807 24.6044 58.8285 24.6139C58.8763 24.6235 58.9259 24.6186 58.9709 24.5999C59.016 24.5813 59.0545 24.5497 59.0815 24.5091C59.1086 24.4686 59.1231 24.4209 59.1231 24.3722C59.1231 24.3078 59.0979 24.2459 59.053 24.1999C59.008 24.1538 58.9468 24.1272 58.8824 24.1256H58.8766ZM50.932 21.8394C50.8833 21.8394 50.8356 21.8539 50.7951 21.881C50.7545 21.9081 50.7229 21.9466 50.7043 21.9916C50.6856 22.0366 50.6807 22.0862 50.6903 22.134C50.6998 22.1819 50.7232 22.2258 50.7577 22.2603C50.7922 22.2947 50.8361 22.3182 50.8839 22.3277C50.9318 22.3372 50.9813 22.3324 51.0264 22.3137C51.0714 22.295 51.1099 22.2634 51.137 22.2229C51.1641 22.1824 51.1786 22.1347 51.1786 22.0859C51.1779 22.0218 51.1524 21.9604 51.1076 21.9145C51.0628 21.8685 51.002 21.8417 50.9379 21.8394H50.932ZM54.1104 21.8394C54.0617 21.8394 54.014 21.8539 53.9735 21.881C53.9329 21.9081 53.9013 21.9466 53.8827 21.9916C53.864 22.0366 53.8591 22.0862 53.8687 22.134C53.8782 22.1819 53.9016 22.2258 53.9361 22.2603C53.9706 22.2947 54.0145 22.3182 54.0623 22.3277C54.1102 22.3372 54.1597 22.3324 54.2048 22.3137C54.2498 22.295 54.2883 22.2634 54.3154 22.2229C54.3425 22.1824 54.357 22.1347 54.357 22.0859C54.357 22.0216 54.3318 21.9597 54.2868 21.9137C54.2419 21.8676 54.1807 21.8409 54.1163 21.8394H54.1104ZM57.2888 21.8394C57.2235 21.8394 57.1607 21.8654 57.1145 21.9116C57.0683 21.9579 57.0423 22.0206 57.0423 22.0859C57.0423 22.1513 57.0683 22.214 57.1145 22.2603C57.1607 22.3065 57.2235 22.3325 57.2888 22.3325C57.3542 22.3325 57.4169 22.3065 57.4632 22.2603C57.5094 22.214 57.5354 22.1513 57.5354 22.0859C57.5354 22.0206 57.5094 21.9579 57.4632 21.9116C57.4169 21.8654 57.3542 21.8394 57.2888 21.8394ZM46.1659 28.7656C46.1172 28.7656 46.0695 28.78 46.029 28.8071C45.9884 28.8342 45.9568 28.8727 45.9382 28.9177C45.9195 28.9628 45.9146 29.0124 45.9241 29.0602C45.9336 29.108 45.9571 29.1519 45.9916 29.1864C46.0261 29.2209 46.07 29.2444 46.1178 29.2539C46.1656 29.2634 46.2152 29.2585 46.2603 29.2398C46.3053 29.2212 46.3438 29.1896 46.3709 29.149C46.398 29.1085 46.4124 29.0608 46.4124 29.0121C46.4117 28.9479 46.3863 28.8865 46.3415 28.8406C46.2967 28.7947 46.2359 28.7678 46.1718 28.7656H46.1659ZM49.3443 28.7656C49.2956 28.7656 49.2479 28.78 49.2074 28.8071C49.1668 28.8342 49.1352 28.8727 49.1166 28.9177C49.0979 28.9628 49.093 29.0124 49.1025 29.0602C49.112 29.108 49.1355 29.1519 49.17 29.1864C49.2045 29.2209 49.2484 29.2444 49.2962 29.2539C49.344 29.2634 49.3936 29.2585 49.4387 29.2398C49.4837 29.2212 49.5222 29.1896 49.5493 29.149C49.5764 29.1085 49.5908 29.0608 49.5908 29.0121C49.5909 28.9477 49.5657 28.8859 49.5207 28.8398C49.4758 28.7937 49.4145 28.7671 49.3502 28.7656H49.3443ZM52.5198 28.7656C52.471 28.7656 52.4234 28.78 52.3828 28.8071C52.3423 28.8342 52.3107 28.8727 52.292 28.9177C52.2734 28.9628 52.2685 29.0124 52.278 29.0602C52.2875 29.108 52.311 29.1519 52.3455 29.1864C52.3799 29.2209 52.4239 29.2444 52.4717 29.2539C52.5195 29.2634 52.5691 29.2585 52.6141 29.2398C52.6592 29.2212 52.6977 29.1896 52.7248 29.149C52.7518 29.1085 52.7663 29.0608 52.7663 29.0121C52.7664 28.9487 52.742 28.8877 52.6983 28.8418C52.6546 28.7959 52.5948 28.7686 52.5315 28.7656H52.5198ZM55.6982 28.7656C55.6494 28.7656 55.6017 28.78 55.5612 28.8071C55.5207 28.8342 55.4891 28.8727 55.4704 28.9177C55.4518 28.9628 55.4469 29.0124 55.4564 29.0602C55.4659 29.108 55.4894 29.1519 55.5238 29.1864C55.5583 29.2209 55.6023 29.2444 55.6501 29.2539C55.6979 29.2634 55.7475 29.2585 55.7925 29.2398C55.8376 29.2212 55.8761 29.1896 55.9031 29.149C55.9302 29.1085 55.9447 29.0608 55.9447 29.0121C55.944 28.9479 55.9186 28.8865 55.8738 28.8406C55.8289 28.7947 55.7682 28.7678 55.704 28.7656H55.6982ZM58.8766 28.7656C58.8278 28.7656 58.7801 28.78 58.7396 28.8071C58.6991 28.8342 58.6675 28.8727 58.6488 28.9177C58.6302 28.9628 58.6253 29.0124 58.6348 29.0602C58.6443 29.108 58.6678 29.1519 58.7022 29.1864C58.7367 29.2209 58.7807 29.2444 58.8285 29.2539C58.8763 29.2634 58.9259 29.2585 58.9709 29.2398C59.016 29.2212 59.0545 29.1896 59.0815 29.149C59.1086 29.1085 59.1231 29.0608 59.1231 29.0121C59.1224 28.9479 59.097 28.8865 59.0522 28.8406C59.0073 28.7947 58.9466 28.7678 58.8824 28.7656H58.8766ZM47.7536 26.4823C47.7192 26.4785 47.6844 26.482 47.6514 26.4926C47.6184 26.5032 47.588 26.5206 47.5622 26.5438C47.5364 26.5669 47.5158 26.5952 47.5017 26.6268C47.4876 26.6584 47.4803 26.6927 47.4803 26.7273C47.4803 26.762 47.4876 26.7962 47.5017 26.8279C47.5158 26.8595 47.5364 26.8878 47.5622 26.9109C47.588 26.934 47.6184 26.9515 47.6514 26.962C47.6844 26.9726 47.7192 26.9762 47.7536 26.9724C47.7881 26.9762 47.8229 26.9726 47.8559 26.962C47.8889 26.9515 47.9193 26.934 47.9451 26.9109C47.9708 26.8878 47.9915 26.8595 48.0056 26.8279C48.0197 26.7962 48.027 26.762 48.027 26.7273C48.027 26.6927 48.0197 26.6584 48.0056 26.6268C47.9915 26.5952 47.9708 26.5669 47.9451 26.5438C47.9193 26.5206 47.8889 26.5032 47.8559 26.4926C47.8229 26.482 47.7881 26.4785 47.7536 26.4823ZM50.932 26.4823C50.8833 26.4823 50.8356 26.4967 50.7951 26.5238C50.7545 26.5509 50.7229 26.5894 50.7043 26.6345C50.6856 26.6795 50.6807 26.7291 50.6903 26.7769C50.6998 26.8247 50.7232 26.8686 50.7577 26.9031C50.7922 26.9376 50.8361 26.9611 50.8839 26.9706C50.9318 26.9801 50.9813 26.9752 51.0264 26.9566C51.0714 26.9379 51.1099 26.9063 51.137 26.8658C51.1641 26.8252 51.1786 26.7776 51.1786 26.7288C51.1786 26.6644 51.1534 26.6026 51.1084 26.5565C51.0635 26.5105 51.0023 26.4838 50.9379 26.4823H50.932ZM54.1104 26.4823C54.0617 26.4823 54.014 26.4967 53.9735 26.5238C53.9329 26.5509 53.9013 26.5894 53.8827 26.6345C53.864 26.6795 53.8591 26.7291 53.8687 26.7769C53.8782 26.8247 53.9016 26.8686 53.9361 26.9031C53.9706 26.9376 54.0145 26.9611 54.0623 26.9706C54.1102 26.9801 54.1597 26.9752 54.2048 26.9566C54.2498 26.9379 54.2883 26.9063 54.3154 26.8658C54.3425 26.8252 54.357 26.7776 54.357 26.7288C54.3574 26.6968 54.3514 26.6651 54.3395 26.6354C54.3277 26.6057 54.31 26.5786 54.2877 26.5557C54.2654 26.5328 54.2387 26.5145 54.2093 26.5019C54.1799 26.4893 54.1483 26.4827 54.1163 26.4823H54.1104ZM57.2888 26.4823C57.24 26.4817 57.192 26.4957 57.1511 26.5224C57.1102 26.5491 57.0781 26.5874 57.059 26.6324C57.0399 26.6774 57.0346 26.7271 57.0438 26.7751C57.0529 26.8231 57.0762 26.8673 57.1105 26.9021C57.1449 26.9368 57.1888 26.9606 57.2367 26.9704C57.2846 26.9801 57.3343 26.9754 57.3796 26.9568C57.4248 26.9383 57.4634 26.9067 57.4907 26.8661C57.5179 26.8255 57.5324 26.7777 57.5324 26.7288C57.5332 26.6647 57.5087 26.6029 57.4642 26.5567C57.4197 26.5106 57.3588 26.4838 57.2947 26.4823H57.2888ZM43.1489 33.4671C43.0902 33.6109 43.0374 33.7606 42.9817 33.8985C43.0316 33.8982 43.0802 33.8827 43.1212 33.8541C43.1621 33.8255 43.1934 33.7852 43.2109 33.7384C43.2284 33.6916 43.2313 33.6407 43.2192 33.5922C43.2071 33.5438 43.1805 33.5001 43.1431 33.4671H43.1489ZM46.1659 33.4055C46.1172 33.4055 46.0695 33.42 46.029 33.447C45.9884 33.4741 45.9568 33.5126 45.9382 33.5577C45.9195 33.6027 45.9146 33.6523 45.9241 33.7001C45.9336 33.7479 45.9571 33.7919 45.9916 33.8263C46.0261 33.8608 46.07 33.8843 46.1178 33.8938C46.1656 33.9033 46.2152 33.8984 46.2603 33.8798C46.3053 33.8611 46.3438 33.8295 46.3709 33.789C46.398 33.7484 46.4124 33.7008 46.4124 33.652C46.4117 33.5879 46.3863 33.5264 46.3415 33.4805C46.2967 33.4346 46.2359 33.4078 46.1718 33.4055H46.1659ZM49.3443 33.4055C49.2956 33.4055 49.2479 33.42 49.2074 33.447C49.1668 33.4741 49.1352 33.5126 49.1166 33.5577C49.0979 33.6027 49.093 33.6523 49.1025 33.7001C49.112 33.7479 49.1355 33.7919 49.17 33.8263C49.2045 33.8608 49.2484 33.8843 49.2962 33.8938C49.344 33.9033 49.3936 33.8984 49.4387 33.8798C49.4837 33.8611 49.5222 33.8295 49.5493 33.789C49.5764 33.7484 49.5908 33.7008 49.5908 33.652C49.5909 33.5876 49.5657 33.5258 49.5207 33.4797C49.4758 33.4337 49.4145 33.407 49.3502 33.4055H49.3443ZM52.5198 33.4055C52.471 33.4055 52.4234 33.42 52.3828 33.447C52.3423 33.4741 52.3107 33.5126 52.292 33.5577C52.2734 33.6027 52.2685 33.6523 52.278 33.7001C52.2875 33.7479 52.311 33.7919 52.3455 33.8263C52.3799 33.8608 52.4239 33.8843 52.4717 33.8938C52.5195 33.9033 52.5691 33.8984 52.6141 33.8798C52.6592 33.8611 52.6977 33.8295 52.7248 33.789C52.7518 33.7484 52.7663 33.7008 52.7663 33.652C52.7664 33.5886 52.742 33.5276 52.6983 33.4817C52.6546 33.4358 52.5948 33.4085 52.5315 33.4055H52.5198ZM55.6982 33.4055C55.6328 33.4055 55.5701 33.4315 55.5238 33.4777C55.4776 33.5239 55.4516 33.5866 55.4516 33.652C55.4516 33.7174 55.4776 33.7801 55.5238 33.8263C55.5701 33.8726 55.6328 33.8985 55.6982 33.8985C55.7636 33.8985 55.8263 33.8726 55.8725 33.8263C55.9187 33.7801 55.9447 33.7174 55.9447 33.652C55.9447 33.5866 55.9187 33.5239 55.8725 33.4777C55.8263 33.4315 55.7636 33.4055 55.6982 33.4055ZM58.8766 33.4055C58.8278 33.4055 58.7801 33.42 58.7396 33.447C58.6991 33.4741 58.6675 33.5126 58.6488 33.5577C58.6302 33.6027 58.6253 33.6523 58.6348 33.7001C58.6443 33.7479 58.6678 33.7919 58.7022 33.8263C58.7367 33.8608 58.7807 33.8843 58.8285 33.8938C58.8763 33.9033 58.9259 33.8984 58.9709 33.8798C59.016 33.8611 59.0545 33.8295 59.0815 33.789C59.1086 33.7484 59.1231 33.7008 59.1231 33.652C59.1224 33.5879 59.097 33.5264 59.0522 33.4805C59.0073 33.4346 58.9466 33.4078 58.8824 33.4055H58.8766ZM44.5752 31.1222C44.5099 31.1222 44.4472 31.1482 44.4009 31.1944C44.3547 31.2407 44.3287 31.3034 44.3287 31.3687C44.3287 31.4341 44.3547 31.4968 44.4009 31.5431C44.4472 31.5893 44.5099 31.6153 44.5752 31.6153C44.6406 31.6153 44.7033 31.5893 44.7496 31.5431C44.7958 31.4968 44.8218 31.4341 44.8218 31.3687C44.8218 31.3034 44.7958 31.2407 44.7496 31.1944C44.7033 31.1482 44.6406 31.1222 44.5752 31.1222ZM47.7536 31.1222C47.7049 31.1222 47.6572 31.1367 47.6167 31.1638C47.5761 31.1908 47.5445 31.2294 47.5259 31.2744C47.5072 31.3194 47.5023 31.369 47.5119 31.4168C47.5214 31.4647 47.5449 31.5086 47.5793 31.5431C47.6138 31.5775 47.6577 31.601 47.7056 31.6105C47.7534 31.62 47.8029 31.6152 47.848 31.5965C47.893 31.5778 47.9315 31.5462 47.9586 31.5057C47.9857 31.4652 48.0002 31.4175 48.0002 31.3687C48.0002 31.3044 47.975 31.2425 47.93 31.1965C47.8851 31.1504 47.8239 31.1237 47.7595 31.1222H47.7536ZM50.932 31.1222C50.8833 31.1222 50.8356 31.1367 50.7951 31.1638C50.7545 31.1908 50.7229 31.2294 50.7043 31.2744C50.6856 31.3194 50.6807 31.369 50.6903 31.4168C50.6998 31.4647 50.7232 31.5086 50.7577 31.5431C50.7922 31.5775 50.8361 31.601 50.8839 31.6105C50.9318 31.62 50.9813 31.6152 51.0264 31.5965C51.0714 31.5778 51.1099 31.5462 51.137 31.5057C51.1641 31.4652 51.1786 31.4175 51.1786 31.3687C51.1786 31.3044 51.1534 31.2425 51.1084 31.1965C51.0635 31.1504 51.0023 31.1237 50.9379 31.1222H50.932ZM54.1104 31.1222C54.0451 31.1222 53.9824 31.1482 53.9361 31.1944C53.8899 31.2407 53.8639 31.3034 53.8639 31.3687C53.8639 31.4341 53.8899 31.4968 53.9361 31.5431C53.9824 31.5893 54.0451 31.6153 54.1104 31.6153C54.1758 31.6153 54.2385 31.5893 54.2848 31.5431C54.331 31.4968 54.357 31.4341 54.357 31.3687C54.357 31.3034 54.331 31.2407 54.2848 31.1944C54.2385 31.1482 54.1758 31.1222 54.1104 31.1222ZM57.2888 31.1222C57.24 31.1216 57.192 31.1356 57.1511 31.1623C57.1102 31.1891 57.0781 31.2274 57.059 31.2723C57.0399 31.3173 57.0346 31.367 57.0438 31.415C57.0529 31.463 57.0762 31.5072 57.1105 31.542C57.1449 31.5768 57.1888 31.6005 57.2367 31.6103C57.2846 31.62 57.3343 31.6153 57.3796 31.5968C57.4248 31.5782 57.4634 31.5466 57.4907 31.506C57.5179 31.4654 57.5324 31.4176 57.5324 31.3687C57.5332 31.3046 57.5087 31.2428 57.4642 31.1966C57.4197 31.1505 57.3588 31.1238 57.2947 31.1222H57.2888ZM60.3674 31.1428C60.3198 31.1639 60.2801 31.1997 60.254 31.2449C60.2279 31.2901 60.2169 31.3424 60.2224 31.3942C60.228 31.4461 60.2498 31.4949 60.2849 31.5335C60.3199 31.5722 60.3663 31.5988 60.4173 31.6094C60.4056 31.4538 60.388 31.2983 60.3733 31.1428H60.3674ZM42.9934 38.0484C42.9445 38.0484 42.8967 38.0629 42.8561 38.0901C42.8155 38.1173 42.7839 38.156 42.7654 38.2012C42.7468 38.2465 42.7421 38.2962 42.7518 38.3441C42.7616 38.392 42.7854 38.4359 42.8201 38.4702C42.8549 38.5046 42.8991 38.5278 42.9471 38.537C42.9951 38.5462 43.0448 38.5409 43.0898 38.5218C43.1348 38.5027 43.1731 38.4706 43.1998 38.4297C43.2265 38.3888 43.2405 38.3408 43.2399 38.2919C43.2391 38.2271 43.2128 38.1651 43.1667 38.1195C43.1205 38.0739 43.0583 38.0484 42.9934 38.0484ZM46.1718 38.0484C46.1229 38.0484 46.0751 38.0629 46.0345 38.0901C45.9939 38.1173 45.9623 38.156 45.9438 38.2012C45.9252 38.2465 45.9205 38.2962 45.9302 38.3441C45.94 38.392 45.9638 38.4359 45.9985 38.4702C46.0333 38.5046 46.0775 38.5278 46.1255 38.537C46.1735 38.5462 46.2232 38.5409 46.2682 38.5218C46.3132 38.5027 46.3515 38.4706 46.3782 38.4297C46.4049 38.3888 46.4189 38.3408 46.4183 38.2919C46.4175 38.2271 46.3912 38.1651 46.3451 38.1195C46.2989 38.0739 46.2367 38.0484 46.1718 38.0484ZM49.3502 38.0484C49.3157 38.0446 49.2809 38.0481 49.2479 38.0587C49.2149 38.0693 49.1846 38.0867 49.1588 38.1098C49.133 38.133 49.1123 38.1613 49.0982 38.1929C49.0841 38.2245 49.0768 38.2588 49.0768 38.2934C49.0768 38.3281 49.0841 38.3623 49.0982 38.3939C49.1123 38.4256 49.133 38.4539 49.1588 38.477C49.1846 38.5001 49.2149 38.5175 49.2479 38.5281C49.2809 38.5387 49.3157 38.5422 49.3502 38.5385C49.3846 38.5422 49.4195 38.5387 49.4524 38.5281C49.4854 38.5175 49.5158 38.5001 49.5416 38.477C49.5674 38.4539 49.588 38.4256 49.6021 38.3939C49.6163 38.3623 49.6236 38.3281 49.6236 38.2934C49.6236 38.2588 49.6163 38.2245 49.6021 38.1929C49.588 38.1613 49.5674 38.133 49.5416 38.1098C49.5158 38.0867 49.4854 38.0693 49.4524 38.0587C49.4195 38.0481 49.3846 38.0446 49.3502 38.0484ZM52.5256 38.0484C52.4768 38.0484 52.429 38.0629 52.3884 38.0901C52.3478 38.1173 52.3162 38.156 52.2976 38.2012C52.279 38.2465 52.2743 38.2962 52.2841 38.3441C52.2938 38.392 52.3176 38.4359 52.3524 38.4702C52.3872 38.5046 52.4314 38.5278 52.4794 38.537C52.5274 38.5462 52.577 38.5409 52.622 38.5218C52.667 38.5027 52.7053 38.4706 52.7321 38.4297C52.7588 38.3888 52.7728 38.3408 52.7722 38.2919C52.7722 38.2278 52.7469 38.1663 52.7019 38.1207C52.6568 38.0751 52.5956 38.0491 52.5315 38.0484H52.5256ZM55.704 38.0484C55.6552 38.0484 55.6074 38.0629 55.5668 38.0901C55.5262 38.1173 55.4946 38.156 55.476 38.2012C55.4574 38.2465 55.4527 38.2962 55.4625 38.3441C55.4722 38.392 55.496 38.4359 55.5308 38.4702C55.5656 38.5046 55.6098 38.5278 55.6578 38.537C55.7058 38.5462 55.7554 38.5409 55.8004 38.5218C55.8454 38.5027 55.8837 38.4706 55.9104 38.4297C55.9372 38.3888 55.9511 38.3408 55.9506 38.2919C55.9498 38.2271 55.9235 38.1651 55.8773 38.1195C55.8312 38.0739 55.7689 38.0484 55.704 38.0484ZM58.8824 38.0484C58.8336 38.0484 58.7858 38.0629 58.7452 38.0901C58.7046 38.1173 58.673 38.156 58.6544 38.2012C58.6358 38.2465 58.6311 38.2962 58.6409 38.3441C58.6506 38.392 58.6744 38.4359 58.7092 38.4702C58.744 38.5046 58.7882 38.5278 58.8362 38.537C58.8842 38.5462 58.9338 38.5409 58.9788 38.5218C59.0238 38.5027 59.0621 38.4706 59.0888 38.4297C59.1156 38.3888 59.1295 38.3408 59.129 38.2919C59.1282 38.2271 59.1019 38.1651 59.0557 38.1195C59.0096 38.0739 58.9473 38.0484 58.8824 38.0484ZM44.5811 35.7621C44.5324 35.7621 44.4847 35.7766 44.4442 35.8037C44.4036 35.8308 44.372 35.8693 44.3534 35.9143C44.3347 35.9594 44.3298 36.0089 44.3393 36.0568C44.3488 36.1046 44.3723 36.1485 44.4068 36.183C44.4413 36.2175 44.4852 36.2409 44.533 36.2505C44.5808 36.26 44.6304 36.2551 44.6755 36.2364C44.7205 36.2178 44.759 36.1862 44.7861 36.1456C44.8132 36.1051 44.8276 36.0574 44.8276 36.0087C44.8276 35.9433 44.8017 35.8806 44.7554 35.8343C44.7092 35.7881 44.6465 35.7621 44.5811 35.7621ZM47.7595 35.7621C47.7108 35.7621 47.6631 35.7766 47.6226 35.8037C47.582 35.8308 47.5504 35.8693 47.5318 35.9143C47.5131 35.9594 47.5082 36.0089 47.5177 36.0568C47.5272 36.1046 47.5507 36.1485 47.5852 36.183C47.6197 36.2175 47.6636 36.2409 47.7114 36.2505C47.7592 36.26 47.8088 36.2551 47.8539 36.2364C47.8989 36.2178 47.9374 36.1862 47.9645 36.1456C47.9916 36.1051 48.006 36.0574 48.006 36.0087C48.0053 35.9435 47.9791 35.8813 47.933 35.8352C47.8869 35.7891 47.8247 35.7629 47.7595 35.7621ZM50.9379 35.7621C50.8892 35.7621 50.8415 35.7766 50.8009 35.8037C50.7604 35.8308 50.7288 35.8693 50.7102 35.9143C50.6915 35.9594 50.6866 36.0089 50.6961 36.0568C50.7056 36.1046 50.7291 36.1485 50.7636 36.183C50.7981 36.2175 50.842 36.2409 50.8898 36.2505C50.9376 36.26 50.9872 36.2551 51.0323 36.2364C51.0773 36.2178 51.1158 36.1862 51.1429 36.1456C51.17 36.1051 51.1844 36.0574 51.1844 36.0087C51.1837 35.9435 51.1575 35.8813 51.1114 35.8352C51.0653 35.7891 51.0031 35.7629 50.9379 35.7621ZM54.1163 35.7621C54.0675 35.7621 54.0199 35.7766 53.9793 35.8037C53.9388 35.8308 53.9072 35.8693 53.8886 35.9143C53.8699 35.9594 53.865 36.0089 53.8745 36.0568C53.884 36.1046 53.9075 36.1485 53.942 36.183C53.9765 36.2175 54.0204 36.2409 54.0682 36.2505C54.116 36.26 54.1656 36.2551 54.2106 36.2364C54.2557 36.2178 54.2942 36.1862 54.3213 36.1456C54.3484 36.1051 54.3628 36.0574 54.3628 36.0087C54.3628 35.9433 54.3369 35.8806 54.2906 35.8343C54.2444 35.7881 54.1817 35.7621 54.1163 35.7621ZM57.2947 35.7621C57.2458 35.7616 57.1979 35.7755 57.157 35.8023C57.116 35.829 57.084 35.8673 57.0649 35.9123C57.0458 35.9573 57.0405 36.0069 57.0496 36.0549C57.0588 36.1029 57.0821 36.1471 57.1164 36.1819C57.1508 36.2167 57.1947 36.2405 57.2426 36.2502C57.2905 36.26 57.3402 36.2553 57.3854 36.2367C57.4306 36.2181 57.4693 36.1865 57.4965 36.1459C57.5238 36.1053 57.5383 36.0575 57.5383 36.0087C57.5383 35.9438 57.5127 35.8815 57.4671 35.8354C57.4215 35.7892 57.3596 35.7629 57.2947 35.7621ZM60.4702 35.7621C60.4214 35.7621 60.3737 35.7766 60.3332 35.8037C60.2927 35.8308 60.2611 35.8693 60.2424 35.9143C60.2237 35.9594 60.2189 36.0089 60.2284 36.0568C60.2379 36.1046 60.2614 36.1485 60.2958 36.183C60.3303 36.2175 60.3743 36.2409 60.4221 36.2505C60.4699 36.26 60.5195 36.2551 60.5645 36.2364C60.6096 36.2178 60.6481 36.1862 60.6751 36.1456C60.7022 36.1051 60.7167 36.0574 60.7167 36.0087C60.7159 35.9435 60.6897 35.8813 60.6436 35.8352C60.5976 35.7891 60.5353 35.7629 60.4702 35.7621Z" fill="white"/>
<path d="M50.4214 20.331C47.1637 27.2072 46.5298 38.5796 46.8996 41.5203C47.4866 45.9958 60.9515 51.0173 63.5899 52.1971C64.7139 52.6989 67.6986 41.9018 66.5012 41.3383C65.4623 40.8482 54.9381 37.3264 54.8999 36.8392C54.8676 36.4372 53.9989 27.2307 53.5851 21.3699C53.2388 16.322 51.2842 18.5114 50.4214 20.331Z" fill="#EB9481"/>
<path d="M63.6016 40.9861C63.6016 40.9861 64.2619 41.1534 67.8923 41.4645C70.4015 41.6817 76.3797 43.8123 78.3842 50.6064C79.1531 53.2066 77.6622 54.8824 76.3827 52.3203C75.4846 50.5154 75.015 49.1889 74.5572 48.6841C74.5572 48.6841 73.9145 51.7011 72.2739 52.4113C70.838 53.0314 69.3601 53.5493 67.8512 53.9609C67.7133 53.7017 67.5917 53.4341 67.4873 53.1597C66.8143 53.3821 66.0921 53.4098 65.4041 53.2395C64.716 53.0691 64.0901 52.7078 63.5986 52.1971L63.6016 40.9861Z" fill="#EB9481"/>
<path d="M70.2548 42.0544C71.1734 43.0053 73.0811 45.0538 74.0701 47.2695C75.1589 49.7348 76.5881 54.7738 74.7627 55.5574C73.4215 56.1444 72.7083 54.2573 72.7083 54.2573C72.7083 54.2573 72.8609 56.4643 71.5344 56.7167C70.3282 56.9485 69.8616 55.4665 69.8616 55.4665C69.8616 55.4665 69.7236 56.8194 68.5174 56.8194C67.0676 56.8194 67.5959 53.9814 66.1285 52.7107C65.791 52.426 70.2548 42.0544 70.2548 42.0544Z" fill="#EB9481"/>
<path d="M71.2644 47.9856C71.9805 49.0215 73.0018 51.8008 72.7318 54.2103C72.7318 54.266 72.6819 54.2925 72.676 54.2396C72.4543 52.1074 71.9734 50.0102 71.2438 47.9944C71.2438 47.9944 71.2585 47.9738 71.2644 47.9856ZM68.8109 49.1566C69.3362 50.1133 70.2607 53.0129 69.8997 55.4576C69.8997 55.5133 69.8469 55.5339 69.8439 55.484C69.7316 53.3446 69.3772 51.2249 68.7874 49.1654C68.7815 49.1507 68.8021 49.1419 68.8109 49.1566Z" fill="#263238"/>
<path d="M55.4663 16.0549C54.3658 15.9992 53.5763 17.3286 53.9989 19.0719C54.4215 20.8152 56.1355 22.8402 56.8838 22.8431C57.6322 22.8461 57.5031 21.1879 57.5031 21.1879C57.5031 21.1879 58.2339 22.4557 58.6917 22.3178C59.1495 22.1799 59.1055 19.7997 58.1605 18.3646C57.2155 16.9295 56.5463 16.1078 55.4663 16.0549Z" fill="white"/>
<path d="M54.2924 17.1026C54.3247 17.5106 55.795 20.3309 57.597 20.5393C58.1839 20.6038 58.6711 17.4137 58.6711 17.4137L58.7621 17.1848L60.0153 14.0035L56.021 10.4817C56.021 10.4817 54.2748 16.9324 54.2924 17.1026Z" fill="#EB9481"/>
<path d="M60.0065 14.0035L58.7504 17.1848L58.6623 17.4138C58.6623 17.4138 58.5743 18.0007 58.4275 18.6493C56.0445 17.9039 55.1992 15.8965 54.9263 14.5582C55.4164 12.6946 56.0122 10.4935 56.0122 10.4935L60.0065 14.0035Z" fill="#263238"/>
<path d="M66.824 10.5786C65.8057 17.8364 61.3418 18.0448 59.7805 17.8247C58.3601 17.6251 53.5499 16.7593 53.8111 9.43699C54.0723 2.11465 57.7702 0.292128 61.0425 0.579739C64.3148 0.86735 67.8395 3.33259 66.824 10.5786Z" fill="#EB9481"/>
<path d="M65.7587 10.1853C65.6008 10.1246 65.446 10.0561 65.295 9.97987C65.1231 9.93151 64.9717 9.82849 64.8636 9.68639C64.8385 9.63445 64.8315 9.5756 64.8437 9.51921C64.8559 9.46283 64.8867 9.41217 64.9311 9.3753C65.0303 9.31699 65.1432 9.28624 65.2583 9.28624C65.3734 9.28624 65.4863 9.31699 65.5855 9.3753C65.8072 9.45652 65.9904 9.61775 66.0991 9.82726C66.1108 9.87504 66.1103 9.925 66.0977 9.97254C66.0851 10.0201 66.0607 10.0637 66.0268 10.0993C65.9929 10.135 65.9506 10.1615 65.9037 10.1766C65.8569 10.1916 65.807 10.1946 65.7587 10.1853ZM60.84 9.38117C61.0081 9.38999 61.1766 9.38999 61.3447 9.38117C61.5232 9.40498 61.7045 9.36994 61.8613 9.28139C61.9056 9.24446 61.9361 9.1936 61.9478 9.13711C61.9596 9.08062 61.9518 9.02182 61.9258 8.9703C61.862 8.87542 61.7739 8.79946 61.6706 8.7504C61.5673 8.70134 61.4527 8.68099 61.3389 8.69149C61.1032 8.67561 60.87 8.74778 60.6844 8.89399C60.649 8.93212 60.6243 8.97898 60.613 9.02977C60.6016 9.08056 60.604 9.13346 60.6198 9.18304C60.6357 9.23262 60.6644 9.27709 60.7031 9.31191C60.7417 9.34673 60.789 9.37063 60.84 9.38117ZM61.3154 10.4377C60.5377 10.2293 60.1767 11.7995 60.8987 11.9931C61.6206 12.1868 61.9669 10.6138 61.3154 10.4377Z" fill="#263238"/>
<path d="M60.9867 10.4494C60.8312 10.5081 60.661 10.6343 60.4907 10.6138C60.3205 10.5932 60.1973 10.3907 60.1004 10.2029C60.1004 10.1853 60.074 10.2029 60.0681 10.2029C59.9948 10.4964 60.0388 10.8398 60.3616 10.9572C60.6844 11.0745 60.9192 10.8486 61.063 10.5639C61.0806 10.5228 61.0425 10.4289 60.9867 10.4494ZM64.8577 11.0716C65.6501 11.1978 65.342 12.7767 64.6053 12.6593C63.8687 12.5419 64.1945 10.963 64.8577 11.0716Z" fill="#263238"/>
<path d="M65.1717 11.2389C65.2803 11.3475 65.3742 11.5324 65.521 11.5617C65.6677 11.5911 65.8526 11.462 65.9964 11.3211C66.0111 11.3064 66.0199 11.3211 66.0169 11.3416C65.9671 11.6351 65.8056 11.9286 65.5034 11.9433C65.2011 11.9579 65.0837 11.6498 65.0719 11.3299C65.069 11.2712 65.1277 11.1949 65.1717 11.2389ZM60.5964 14.7783C60.6815 14.9221 60.7519 15.1099 60.9221 15.1715C61.1024 15.2175 61.2903 15.2255 61.4739 15.195C61.4763 15.1966 61.4783 15.1988 61.4796 15.2014C61.481 15.2039 61.4817 15.2068 61.4817 15.2097C61.4817 15.2126 61.481 15.2155 61.4796 15.218C61.4783 15.2206 61.4763 15.2228 61.4739 15.2244C61.3793 15.3 61.266 15.3484 61.1461 15.3644C61.0261 15.3804 60.904 15.3635 60.793 15.3154C60.7019 15.2632 60.6284 15.1851 60.5819 15.091C60.5354 14.9969 60.5179 14.8911 60.5318 14.7871C60.5435 14.7783 60.5846 14.7783 60.5964 14.7783ZM63.0176 13.4635C63.0176 13.4635 62.9589 14.2148 62.8855 14.5582C62.8855 14.5905 62.7916 14.5875 62.6742 14.5582H62.6595C62.3532 14.5475 62.0558 14.4529 61.7996 14.2847C61.5434 14.1165 61.3383 13.8812 61.2068 13.6044C61.1892 13.5662 61.242 13.5398 61.2684 13.5691C61.6418 13.962 62.1315 14.2243 62.6654 14.3175C62.7124 14.2295 62.7241 13.0174 62.7769 13.0379C62.997 13.126 63.3786 13.3138 63.5194 13.3843C63.5664 12.8971 63.6339 11.5089 63.7249 10.6226C63.7249 10.5668 63.8158 10.5698 63.8188 10.6226C63.8888 11.6662 63.8888 12.7134 63.8188 13.757C63.8012 13.845 63.1408 13.5515 63.0176 13.4635Z" fill="#263238"/>
<path d="M62.7036 14.2999C62.4619 14.5552 62.1587 14.7441 61.8231 14.8487C61.6389 14.9019 61.4424 14.8947 61.2626 14.8282C60.8722 14.6844 60.8987 14.3146 61.0043 14.0064C61.061 13.8425 61.1369 13.6859 61.2303 13.5398C61.628 13.9435 62.1441 14.2098 62.7036 14.2999Z" fill="#263238"/>
<path d="M61.826 14.8487C61.6418 14.9019 61.4454 14.8947 61.2655 14.8282C60.8752 14.6844 60.9016 14.3146 61.0072 14.0064C61.2187 14.0338 61.4148 14.132 61.5634 14.2849C61.7121 14.4378 61.8046 14.6365 61.826 14.8487Z" fill="#FF9CBD"/>
<path d="M53.7994 10.1354C54.3129 10.0475 54.7947 9.82758 55.1975 9.49726C55.6004 9.16695 55.9104 8.73758 56.0973 8.25129C57.4773 8.06935 58.784 7.52337 59.8832 6.66942C59.7922 6.80149 59.1524 7.7465 58.812 8.21607C63.5077 8.6739 65.8555 5.67159 65.8555 5.67159C66.8798 7.52639 66.9003 8.53009 66.9766 9.04955C66.9766 9.04955 67.7984 6.33192 66.9268 4.10147C66.6569 3.3362 66.1887 2.65634 65.5699 2.13141C64.9511 1.60648 64.204 1.25531 63.405 1.11384C62.3845 0.529907 61.2254 0.232061 60.0499 0.251688C58.8743 0.271315 57.7258 0.607691 56.7254 1.22536C52.916 3.53505 53.7994 10.1354 53.7994 10.1354Z" fill="#263238"/>
<path d="M62.4013 8.4597C61.5745 8.64405 60.7247 8.70341 59.8803 8.63579C61.2286 8.65702 62.5561 8.30127 63.7131 7.60861C64.2055 7.31321 64.6582 6.95619 65.0602 6.54621C65.5184 6.11513 65.8865 5.59741 66.1432 5.02304C66.1578 4.97902 66.2253 5.00543 66.2107 5.04946C66.0174 5.64308 65.7268 6.20046 65.3508 6.69882C64.9544 7.17275 64.4751 7.57055 63.9362 7.87274C63.4549 8.13994 62.9381 8.33756 62.4013 8.4597Z" fill="#263238"/>
<path d="M63.3903 1.11093C62.3698 0.528308 61.2112 0.231455 60.0362 0.251597C58.8613 0.271739 57.7135 0.608135 56.7136 1.2254C54.0312 2.85715 53.6849 6.62837 53.7142 8.70328C53.5411 7.10381 53.3386 3.31204 54.9967 1.55703C57.1274 -0.699841 61.9757 -0.189186 63.3903 1.11093Z" fill="#FFCB01"/>
<path d="M54.8794 10.156C54.8794 10.156 53.8316 7.56752 52.6929 7.89035C51.5542 8.21318 51.9827 11.7056 53.0686 12.4305C53.2014 12.5307 53.3531 12.6032 53.5145 12.6435C53.676 12.6838 53.8439 12.6912 54.0082 12.6651C54.1726 12.6391 54.33 12.5802 54.4711 12.492C54.6122 12.4038 54.7341 12.2881 54.8295 12.1517L54.8794 10.156Z" fill="#EB9481"/>
<path d="M52.8455 8.89106C52.8279 8.89106 52.8191 8.9116 52.8455 8.92041C53.5998 9.45161 53.861 10.3232 53.9842 11.1949C53.8081 10.828 53.5088 10.5815 53.0275 10.784C53.004 10.784 53.0275 10.831 53.0275 10.831C53.185 10.8182 53.3427 10.8546 53.4787 10.935C53.6148 11.0154 53.7227 11.1359 53.7876 11.28C53.8932 11.5213 53.9729 11.7732 54.0253 12.0313C54.0488 12.1135 54.1926 12.1047 54.1838 12.0137V11.9932C54.445 10.9366 53.9608 9.26085 52.8455 8.89106Z" fill="#263238"/>
<path d="M66.0316 40.6956L61.5091 52.1413C61.5091 52.1413 48.0912 46.3187 46.8351 42.0485C45.579 37.7784 48.3025 24.3546 49.9283 20.959C51.5542 17.5634 53.2916 16.9911 53.8228 21.0558C54.354 25.1206 55.1024 36.3168 55.3959 36.5751C55.6894 36.8334 66.0316 40.6956 66.0316 40.6956Z" fill="#AD49EB"/>
</svg>
