<svg width="308" height="158" viewBox="0 0 308 158" fill="none" xmlns="http://www.w3.org/2000/svg">
<path d="M29.3864 44.829C29.3864 49.8621 25.307 53.9415 20.274 53.9415C15.2409 53.9415 11.1615 49.8621 11.1615 44.829C11.1615 39.796 15.2409 35.7166 20.274 35.7166C25.307 35.7166 29.3864 39.796 29.3864 44.829Z" fill="white"/>
<path d="M20.274 37.4762C24.3343 37.4762 27.6269 40.7688 27.6269 44.829" stroke="#4DDBFF" stroke-width="0.972824" stroke-miterlimit="10"/>
<path d="M300.542 15.1248C300.542 20.1578 296.462 24.2373 291.429 24.2373C286.396 24.2373 282.317 20.1578 282.317 15.1248C282.317 10.0918 286.396 6.01233 291.429 6.01233C296.462 6.01233 300.542 10.0918 300.542 15.1248Z" fill="white"/>
<path d="M291.429 7.77197C295.489 7.77197 298.782 11.0646 298.782 15.1248" stroke="#4DDBFF" stroke-width="0.972824" stroke-miterlimit="10"/>
<path d="M109.225 18.1125C109.225 23.1455 105.145 27.2249 100.112 27.2249C95.0794 27.2249 91 23.1455 91 18.1125C91 13.0794 95.0794 9 100.112 9C105.145 9 109.225 13.0794 109.225 18.1125Z" fill="white"/>
<path d="M99 12C103.06 12 106.353 15.2926 106.353 19.3528" stroke="#4DDBFF" stroke-width="0.972824" stroke-miterlimit="10"/>
<path d="M50.5407 20.0232C50.5407 22.6316 48.4262 24.7462 45.8177 24.7462C43.2093 24.7462 41.0947 22.6316 41.0947 20.0232C41.0947 17.4147 43.2093 15.3002 45.8177 15.3002C48.4262 15.3002 50.5407 17.4147 50.5407 20.0232Z" fill="white"/>
<path d="M45.8177 16.2131C47.9216 16.2131 49.6278 17.9193 49.6278 20.0232" stroke="#4DDBFF" stroke-width="0.972824" stroke-miterlimit="10"/>
<path d="M77.072 141.348C77.072 143.957 74.9574 146.071 72.349 146.071C69.7405 146.071 67.626 143.957 67.626 141.348C67.626 138.74 69.7405 136.625 72.349 136.625C74.9574 136.625 77.072 138.74 77.072 141.348Z" fill="white"/>
<path d="M72.3491 137.538C74.453 137.538 76.1592 139.245 76.1592 141.348" stroke="#4DDBFF" stroke-width="0.972824" stroke-miterlimit="10"/>
<path d="M21.5646 106.782C21.5646 112.737 16.7368 117.565 10.7823 117.565C4.82777 117.565 0 112.737 0 106.782C0 100.828 4.82777 96 10.7823 96C16.7368 96 21.5646 100.828 21.5646 106.782Z" fill="white"/>
<path d="M10.7822 98.0847C15.5865 98.0847 19.4799 101.98 19.4799 106.782" stroke="#4DDBFF" stroke-width="0.972824" stroke-miterlimit="10"/>
<path d="M204.542 111.154C204.542 108.961 202.763 107.182 200.569 107.182C202.763 107.182 204.542 105.403 204.542 103.209C204.542 105.403 206.321 107.182 208.514 107.182C206.321 107.182 204.542 108.961 204.542 111.154ZM288.611 97.9324C288.611 95.7387 286.832 93.9598 284.638 93.9598C286.832 93.9598 288.611 92.181 288.611 89.9873C288.611 92.181 290.39 93.9598 292.583 93.9598C290.39 93.9598 288.611 95.7387 288.611 97.9324ZM197.118 101.766C197.118 100.293 195.923 99.0998 194.452 99.0998C195.925 99.0998 197.118 97.9067 197.118 96.4336C197.118 97.9067 198.311 99.0998 199.785 99.0998C198.311 99.0998 197.118 100.295 197.118 101.766ZM284.523 107.22C284.523 105.747 283.33 104.554 281.857 104.554C283.33 104.554 284.523 103.361 284.523 101.888C284.523 103.361 285.716 104.554 287.189 104.554C285.716 104.554 284.523 105.747 284.523 107.22ZM215.867 42.9454C215.867 41.4723 214.674 40.2792 213.201 40.2792C214.674 40.2792 215.867 39.0862 215.867 37.613C215.867 39.0862 217.06 40.2792 218.533 40.2792C217.06 40.2792 215.867 41.4744 215.867 42.9454ZM280.512 47.0099C280.512 45.5367 279.319 44.3437 277.846 44.3437C279.319 44.3437 280.512 43.1507 280.512 41.6775C280.512 43.1507 281.705 44.3437 283.178 44.3437C281.705 44.3437 280.512 45.5367 280.512 47.0099Z" fill="#363F90"/>
<path d="M150.382 139.373C150.382 140.146 149.756 140.773 148.982 140.773C148.21 140.773 147.581 140.146 147.581 139.373C147.581 138.601 148.208 137.972 148.982 137.972C149.756 137.972 150.382 138.599 150.382 139.373ZM177.264 92.0548C177.264 92.8266 176.638 93.4552 175.864 93.4552C175.092 93.4552 174.463 92.8288 174.463 92.0548C174.463 91.2808 175.09 90.6544 175.864 90.6544C176.638 90.6544 177.264 91.2808 177.264 92.0548ZM156.658 9.65556C156.658 10.4295 156.031 11.056 155.257 11.056C154.483 11.056 153.857 10.4295 153.857 9.65556C153.857 8.88158 154.483 8.25512 155.257 8.25512C156.029 8.25512 156.658 8.88158 156.658 9.65556ZM255.845 11.0539C255.845 11.8278 255.219 12.4543 254.445 12.4543C253.671 12.4543 253.044 11.8278 253.044 11.0539C253.044 10.282 253.671 9.65342 254.445 9.65342C255.219 9.65342 255.845 10.2799 255.845 11.0539ZM38.4157 56.8236C38.4157 57.5976 37.7892 58.2241 37.0152 58.2241C36.2413 58.2241 35.6148 57.5976 35.6148 56.8236C35.6148 56.0496 36.2413 55.4232 37.0152 55.4232C37.7892 55.4232 38.4157 56.0496 38.4157 56.8236ZM55.8196 4.51991C55.8196 5.29389 55.1931 5.92035 54.4192 5.92035C53.6452 5.92035 53.0187 5.29389 53.0187 4.51991C53.0187 3.74592 53.6452 3.11947 54.4192 3.11947C55.1931 3.11947 55.8196 3.74592 55.8196 4.51991ZM6.27401 141.348C6.27401 142.122 5.64755 142.749 4.87357 142.749C4.09959 142.749 3.47313 142.122 3.47313 141.348C3.47313 140.574 4.09959 139.948 4.87357 139.948C5.64755 139.948 6.27401 140.574 6.27401 141.348ZM247.323 134.126C247.323 134.9 246.696 135.526 245.922 135.526C245.148 135.526 244.522 134.9 244.522 134.126C244.522 133.352 245.148 132.725 245.922 132.725C246.696 132.725 247.323 133.352 247.323 134.126ZM172.736 150.476C172.736 152.062 171.449 153.349 169.862 153.349C168.276 153.349 166.989 152.062 166.989 150.476C166.989 148.889 168.276 147.602 169.862 147.602C171.449 147.602 172.736 148.889 172.736 150.476ZM150.928 109.04C150.928 110.626 149.64 111.913 148.054 111.913C146.468 111.913 145.18 110.626 145.18 109.04C145.18 107.453 146.468 106.166 148.054 106.166C149.64 106.166 150.928 107.453 150.928 109.04ZM128.92 26.6019C128.92 28.1884 127.633 29.4755 126.047 29.4755C124.46 29.4755 123.173 28.1884 123.173 26.6019C123.173 25.0155 124.46 23.7284 126.047 23.7284C127.633 23.7284 128.92 25.0155 128.92 26.6019ZM205.525 4.6204C205.525 6.20685 204.238 7.49397 202.652 7.49397C201.065 7.49397 199.778 6.20685 199.778 4.6204C199.778 3.03395 201.065 1.74683 202.652 1.74683C204.238 1.74683 205.525 3.03395 205.525 4.6204ZM306.887 71.9355C306.887 73.522 305.6 74.8091 304.014 74.8091C302.427 74.8091 301.14 73.522 301.14 71.9355C301.14 70.3491 302.427 69.0619 304.014 69.0619C305.6 69.0619 306.887 70.3491 306.887 71.9355ZM7.74714 93.9812C7.74714 95.5676 6.46002 96.8548 4.87357 96.8548C3.28712 96.8548 2 95.5676 2 93.9812C2 92.3947 3.28712 91.1076 4.87357 91.1076C6.46002 91.1076 7.74714 92.3947 7.74714 93.9812ZM63.2943 128.659C63.2943 130.245 62.0072 131.532 60.4207 131.532C58.8343 131.532 57.5472 130.245 57.5472 128.659C57.5472 127.072 58.8343 125.785 60.4207 125.785C62.0072 125.785 63.2943 127.072 63.2943 128.659ZM305.769 143.009C305.769 144.596 304.482 145.883 302.895 145.883C301.309 145.883 300.022 144.596 300.022 143.009C300.022 141.423 301.309 140.136 302.895 140.136C304.482 140.136 305.769 141.423 305.769 143.009Z" stroke="#4DDBFF" stroke-width="0.972824" stroke-miterlimit="10"/>
<path d="M186.203 131.434C186.203 132.92 184.998 134.126 183.512 134.126C182.026 134.126 180.82 132.92 180.82 131.434C180.82 129.948 182.026 128.742 183.512 128.742C184.998 128.742 186.203 129.948 186.203 131.434Z" fill="#DBE8FF"/>
<path d="M297.796 38.1305C297.796 39.6164 296.59 40.8223 295.104 40.8223C293.618 40.8223 292.413 39.6164 292.413 38.1305C292.413 36.6445 293.618 35.4386 295.104 35.4386C296.59 35.4386 297.796 36.6445 297.796 38.1305ZM13.8536 11.0539C13.8536 12.5399 12.6478 13.7457 11.1618 13.7457C9.67584 13.7457 8.46997 12.5399 8.46997 11.0539C8.46997 9.56793 9.67584 8.36206 11.1618 8.36206C12.6478 8.36206 13.8536 9.56793 13.8536 11.0539ZM41.1077 145.883C41.1077 147.369 39.9018 148.575 38.4158 148.575C36.9299 148.575 35.724 147.369 35.724 145.883C35.724 144.397 36.9299 143.191 38.4158 143.191C39.9018 143.191 41.1077 144.397 41.1077 145.883Z" fill="white"/>
<path d="M134.189 155.393C134.189 156.357 133.406 157.14 132.442 157.14C131.478 157.14 130.695 156.357 130.695 155.393C130.695 154.429 131.478 153.646 132.442 153.646C133.406 153.646 134.189 154.429 134.189 155.393Z" fill="#DBE8FF"/>
<path d="M193.418 25.3105C193.418 26.2748 192.635 27.0573 191.671 27.0573C190.706 27.0573 189.924 26.2748 189.924 25.3105C189.924 24.3462 190.706 23.5637 191.671 23.5637C192.635 23.5637 193.418 24.3462 193.418 25.3105ZM283.415 1.74681C283.415 2.71108 282.633 3.49361 281.669 3.49361C280.704 3.49361 279.922 2.71108 279.922 1.74681C279.922 0.782535 280.704 0 281.669 0C282.633 0 283.415 0.782535 283.415 1.74681ZM296.851 99.0976C296.851 100.062 296.069 100.844 295.104 100.844C294.14 100.844 293.358 100.062 293.358 99.0976C293.358 98.1333 294.14 97.3508 295.104 97.3508C296.069 97.3508 296.851 98.1333 296.851 99.0976ZM72.3491 29.4755C72.3491 30.4398 71.5666 31.2223 70.6023 31.2223C69.638 31.2223 68.8555 30.4398 68.8555 29.4755C68.8555 28.5112 69.638 27.7287 70.6023 27.7287C71.5666 27.7287 72.3491 28.5112 72.3491 29.4755ZM37.3617 100.365C37.3617 101.33 36.5791 102.112 35.6148 102.112C34.6506 102.112 33.868 101.33 33.868 100.365C33.868 99.4012 34.6506 98.6187 35.6148 98.6187C36.5791 98.6187 37.3617 99.4012 37.3617 100.365ZM108.959 133.523C108.959 134.487 108.177 135.27 107.213 135.27C106.248 135.27 105.466 134.487 105.466 133.523C105.466 132.558 106.248 131.776 107.213 131.776C108.177 131.776 108.959 132.558 108.959 133.523Z" fill="white"/>
<path d="M242.499 153.646C242.499 154.61 241.717 155.393 240.752 155.393C239.788 155.393 239.005 154.61 239.005 153.646C239.005 152.682 239.788 151.899 240.752 151.899C241.717 151.899 242.499 152.682 242.499 153.646Z" fill="#DBE8FF"/>
</svg>
