<svg width="208" height="134" viewBox="0 0 208 134" fill="none" xmlns="http://www.w3.org/2000/svg">
<path d="M29.3864 29.5289C29.3864 34.5619 25.307 38.6413 20.274 38.6413C15.2409 38.6413 11.1615 34.5619 11.1615 29.5289C11.1615 24.4958 15.2409 20.4164 20.274 20.4164C25.307 20.4164 29.3864 24.4958 29.3864 29.5289Z" fill="white"/>
<path d="M20.274 22.176C24.3343 22.176 27.6269 25.4687 27.6269 29.5289" stroke="#4DDBFF" stroke-width="0.972824" stroke-miterlimit="10"/>
<path d="M50.5407 4.72301C50.5407 7.33146 48.4262 9.44601 45.8177 9.44601C43.2093 9.44601 41.0947 7.33146 41.0947 4.72301C41.0947 2.11455 43.2093 0 45.8177 0C48.4262 0 50.5407 2.11455 50.5407 4.72301Z" fill="white"/>
<path d="M45.8177 0.912964C47.9216 0.912964 49.6278 2.61915 49.6278 4.72301" stroke="#4DDBFF" stroke-width="0.972824" stroke-miterlimit="10"/>
<path d="M77.072 126.048C77.072 128.657 74.9574 130.771 72.349 130.771C69.7405 130.771 67.626 128.657 67.626 126.048C67.626 123.44 69.7405 121.325 72.349 121.325C74.9574 121.325 77.072 123.44 77.072 126.048Z" fill="white"/>
<path d="M72.3491 122.238C74.453 122.238 76.1592 123.944 76.1592 126.048" stroke="#4DDBFF" stroke-width="0.972824" stroke-miterlimit="10"/>
<path d="M21.5646 91.4821C21.5646 97.4367 16.7368 102.264 10.7823 102.264C4.82777 102.264 0 97.4367 0 91.4821C0 85.5276 4.82777 80.6998 10.7823 80.6998C16.7368 80.6998 21.5646 85.5276 21.5646 91.4821Z" fill="white"/>
<path d="M10.7822 82.7844C15.5865 82.7844 19.4799 86.68 19.4799 91.4821" stroke="#4DDBFF" stroke-width="0.972824" stroke-miterlimit="10"/>
<path d="M137.508 75.2245C137.508 76.7105 136.303 77.9164 134.817 77.9164C133.331 77.9164 132.125 76.7105 132.125 75.2245C132.125 73.7386 133.331 72.5327 134.817 72.5327C136.303 72.5327 137.508 73.7386 137.508 75.2245Z" fill="#DBE8FF"/>
<path d="M85.4936 99.1838C85.4936 100.148 84.7111 100.931 83.7468 100.931C82.7825 100.931 82 100.148 82 99.1838C82 98.2195 82.7825 97.437 83.7468 97.437C84.7111 97.437 85.4936 98.2195 85.4936 99.1838Z" fill="#DBE8FF"/>
<path d="M193.804 97.437C193.804 98.4013 193.022 99.1838 192.057 99.1838C191.093 99.1838 190.31 98.4013 190.31 97.437C190.31 96.4727 191.093 95.6902 192.057 95.6902C193.022 95.6902 193.804 96.4727 193.804 97.437Z" fill="#DBE8FF"/>
<path d="M38.2249 124.812C38.2249 129.845 34.1455 133.925 29.1125 133.925C24.0794 133.925 20 129.845 20 124.812C20 119.779 24.0794 115.7 29.1125 115.7C34.1455 115.7 38.2249 119.779 38.2249 124.812Z" fill="white"/>
<path d="M28 118.7C32.0602 118.7 35.3528 121.992 35.3528 126.053" stroke="#4DDBFF" stroke-width="0.972824" stroke-miterlimit="10"/>
<path d="M56.7342 21.9221C57.6985 21.9221 58.481 21.1395 58.481 20.1753C58.481 19.211 57.6985 18.4285 56.7342 18.4285C55.77 18.4285 54.9874 19.211 54.9874 20.1753C54.9874 21.1395 55.77 21.9221 56.7342 21.9221Z" fill="white"/>
<path d="M71.8736 72.447C73.46 72.447 74.7471 71.1598 74.7471 69.5734C74.7471 67.9869 73.46 66.6998 71.8736 66.6998C70.2871 66.6998 69 67.9869 69 69.5734C69 71.1598 70.2871 72.447 71.8736 72.447Z" stroke="#4DDBFF" stroke-width="0.972824" stroke-miterlimit="10"/>
<path d="M151.874 50.9725C154.068 50.9725 155.847 52.7514 155.847 54.9451C155.847 52.7514 157.626 50.9725 159.819 50.9725C157.626 50.9725 155.847 49.1937 155.847 47C155.847 49.1937 154.068 50.9725 151.874 50.9725Z" fill="#363F90"/>
<path d="M152.296 31.2245C152.296 32.7105 153.502 33.9164 154.987 33.9164C156.473 33.9164 157.679 32.7105 157.679 31.2245C157.679 29.7386 156.473 28.5327 154.987 28.5327C153.502 28.5327 152.296 29.7386 152.296 31.2245Z" fill="#DBE8FF"/>
<path d="M204.31 55.1838C204.31 56.1481 205.093 56.9306 206.057 56.9306C207.022 56.9306 207.804 56.1481 207.804 55.1838C207.804 54.2195 207.022 53.437 206.057 53.437C205.093 53.437 204.31 54.2195 204.31 55.1838Z" fill="#DBE8FF"/>
<path d="M96 53.437C96 54.4013 96.7826 55.1838 97.7468 55.1838C98.7111 55.1838 99.4937 54.4013 99.4937 53.437C99.4937 52.4727 98.7111 51.6902 97.7468 51.6902C96.7826 51.6902 96 52.4727 96 53.437Z" fill="#DBE8FF"/>
<path d="M137.93 6.97254C135.736 6.97254 133.957 8.75143 133.957 10.9451C133.957 8.75143 132.178 6.97254 129.985 6.97254C132.178 6.97254 133.957 5.19366 133.957 3C133.957 5.19366 135.736 6.97254 137.93 6.97254Z" fill="#363F90"/>
</svg>
