<svg width="131" height="81" viewBox="0 0 131 81" fill="none" xmlns="http://www.w3.org/2000/svg">
<path d="M130.886 70.6571C130.886 75.9898 101.59 80.3142 65.4488 80.3142C29.3074 80.3142 0 75.9898 0 70.6571C0 65.3244 29.2962 61 65.4488 61C101.59 61 130.886 65.3244 130.886 70.6571Z" fill="white"/>
<path d="M99.6038 26.6261C98.1775 25.898 86.0397 26.2808 80.3799 26.506C74.72 26.2808 62.5822 25.898 61.1559 26.6261C61.1559 26.6261 60.0075 62.9046 61.1559 63.6252C62.1093 64.2182 74.2321 64.1582 80.3799 64.1206C86.5276 64.1582 98.6504 64.2257 99.6038 63.6252C100.752 62.9046 99.6038 26.6261 99.6038 26.6261Z" fill="#75E1BA"/>
<path d="M61.126 27.617C61.3662 27.7221 61.6589 27.7746 62.0192 27.7746H98.9733C99.2285 27.7746 99.4462 27.7446 99.6414 27.692C99.6188 27.0089 99.6113 26.6261 99.6113 26.6261C98.1851 25.898 86.0472 26.2808 80.3874 26.506C74.7276 26.2808 62.5897 25.898 61.1635 26.6261C61.1635 26.6261 61.156 26.9789 61.1335 27.617H61.126Z" fill="#262449" fill-opacity="0.501961"/>
<path d="M101 23.2782C101 25.1322 100.82 26.626 98.9658 26.626H62.0117C60.1576 26.626 60 25.1247 60 23.2782C60 21.4316 60.1576 19.9303 62.0117 19.9303H98.9658C100.82 19.9303 101 21.4316 101 23.2782Z" fill="#75E1BA"/>
<path d="M93.426 45.0242C93.426 52.0577 87.7286 57.7551 80.6951 57.7551C73.6616 57.7551 67.9642 52.0577 67.9642 45.0242C67.9642 37.9907 73.6616 32.2933 80.6951 32.2933C87.7286 32.2933 93.426 37.9907 93.426 45.0242Z" fill="#EBAA66"/>
<path d="M91.8047 45.0242C91.8047 51.1644 86.8279 56.1336 80.6952 56.1336C74.5549 56.1336 69.5857 51.1569 69.5857 45.0242C69.5857 38.8839 74.5624 33.9147 80.6952 33.9147C86.8354 33.9147 91.8047 38.8914 91.8047 45.0242Z" fill="white"/>
<path d="M69.5857 49.1302C69.5857 50.3087 68.6324 50.6765 67.4463 50.6765C66.2678 50.6765 65.307 50.3162 65.307 49.1302V40.6479C65.307 39.4694 66.2603 39.3718 67.4463 39.3718C68.6248 39.3718 69.5857 39.4694 69.5857 40.6479V49.1302Z" fill="#3F6D6B"/>
<path d="M69.5857 49.13V40.6478C69.5857 39.6494 68.8951 39.4318 67.9718 39.3867C68.0093 39.4017 68.6249 39.7245 68.6249 42.4193V49.0625C68.6249 50.4662 67.4539 50.6688 67.4539 50.6688C68.6324 50.6688 69.5932 50.3085 69.5932 49.1225L69.5857 49.13Z" fill="#262449" fill-opacity="0.2"/>
<path d="M80.2673 45.1443C77.5801 47.8316 75.2155 49.8283 74.9903 49.6031C74.7652 49.3779 76.7619 47.0134 79.4567 44.3261C82.1439 41.6388 84.5085 39.6421 84.7337 39.8673C84.9589 40.0925 82.9621 42.457 80.2749 45.1443H80.2673ZM81.9413 46.6531C79.254 49.3404 76.8895 51.3371 76.6643 51.1194C76.4391 50.8942 78.4358 48.5297 81.1231 45.8424C83.8104 43.1551 86.1749 41.1584 86.4001 41.3836C86.6253 41.6088 84.6286 43.9733 81.9413 46.6606V46.6531Z" fill="#D4D4D4"/>
<path d="M99.8064 33.9072C99.8064 33.9072 84.741 49.6181 60.6455 52.9585C60.6304 58.806 60.7581 63.3774 61.1559 63.6251C62.1092 64.2181 74.2321 64.158 80.3798 64.1205C86.5275 64.158 98.6504 64.2256 99.6037 63.6251C100.422 63.1147 100.077 44.5438 99.8064 33.9072Z" fill="#262449" fill-opacity="0.301961"/>
<path d="M66.7558 23.4959C66.7558 24.5693 65.885 25.4325 64.8191 25.4325C63.7457 25.4325 62.8824 24.5618 62.8824 23.4959C62.8824 22.4224 63.7532 21.5592 64.8191 21.5592C65.8925 21.5592 66.7558 22.4299 66.7558 23.4959Z" fill="white"/>
<path d="M90.3259 22.1446C90.3259 22.58 89.9731 22.9328 89.5377 22.9328C89.1023 22.9328 88.7495 22.58 88.7495 22.1446C88.7495 21.7092 89.1023 21.3564 89.5377 21.3564C89.9731 21.3564 90.3259 21.7092 90.3259 22.1446ZM94.1691 22.1446C94.1691 22.58 93.8163 22.9328 93.381 22.9328C92.9456 22.9328 92.5928 22.58 92.5928 22.1446C92.5928 21.7092 92.9456 21.3564 93.381 21.3564C93.8163 21.3564 94.1691 21.7092 94.1691 22.1446ZM98.1626 22.1446C98.1626 22.58 97.8098 22.9328 97.3744 22.9328C96.939 22.9328 96.5862 22.58 96.5862 22.1446C96.5862 21.7092 96.939 21.3564 97.3744 21.3564C97.8098 21.3564 98.1626 21.7092 98.1626 22.1446ZM90.3259 24.8394C90.3259 25.2748 89.9731 25.6276 89.5377 25.6276C89.1023 25.6276 88.7495 25.2748 88.7495 24.8394C88.7495 24.404 89.1023 24.0512 89.5377 24.0512C89.9731 24.0512 90.3259 24.404 90.3259 24.8394ZM94.1691 24.8394C94.1691 25.2748 93.8163 25.6276 93.381 25.6276C92.9456 25.6276 92.5928 25.2748 92.5928 24.8394C92.5928 24.404 92.9456 24.0512 93.381 24.0512C93.8163 24.0512 94.1691 24.404 94.1691 24.8394ZM98.1626 24.8394C98.1626 25.2748 97.8098 25.6276 97.3744 25.6276C96.939 25.6276 96.5862 25.2748 96.5862 24.8394C96.5862 24.404 96.939 24.0512 97.3744 24.0512C97.8098 24.0512 98.1626 24.404 98.1626 24.8394Z" fill="#3F6D6B" fill-opacity="0.501961"/>
<path d="M85.9347 25.4324H74.8252V21.5516H85.9347V25.4324Z" fill="#262449" fill-opacity="0.501961"/>
<path d="M75.9285 22.2948C75.9285 22.4899 75.7709 22.6551 75.5682 22.6551C75.373 22.6551 75.2079 22.4974 75.2079 22.2948C75.2079 22.0996 75.3655 21.9344 75.5682 21.9344C75.7634 21.9344 75.9285 22.0921 75.9285 22.2948Z" fill="#B54431"/>
<path d="M77.1447 22.2948C77.1447 22.4899 76.9871 22.6551 76.7844 22.6551C76.5892 22.6551 76.4241 22.4974 76.4241 22.2948C76.4241 22.0996 76.5817 21.9344 76.7844 21.9344C76.9796 21.9344 77.1447 22.0921 77.1447 22.2948Z" fill="#B54431"/>
<path d="M65.855 23.4958C65.855 24.0738 65.3896 24.5392 64.8116 24.5392C64.2336 24.5392 63.7682 24.0738 63.7682 23.4958C63.7682 22.9178 64.2336 22.4524 64.8116 22.4524C65.3896 22.4524 65.855 22.9178 65.855 23.4958Z" fill="#B54431"/>
<path d="M69.0903 32.2933H62.875V29.1631H69.0903V32.2933Z" fill="white"/>
<path d="M80.5376 6.29861H78.3983V5H80.5376V6.29861Z" fill="#262449"/>
<path d="M80.4324 6.29858H78.3982C78.3982 6.29858 76.4465 6.37366 76.4465 8.8883V20.0278H82.3841V8.8883C82.3841 6.37366 80.4324 6.29858 80.4324 6.29858Z" fill="#B54431"/>
<path d="M82.3842 13.775H76.4541V10.2996H82.3842V13.775Z" fill="#EBAA66"/>
<path d="M82.3842 13.775H76.4541V13.167H82.3842V13.775Z" fill="white"/>
<path d="M79.3665 20.0279H82.3841V8.88837C82.3841 8.67819 82.3691 8.49052 82.3391 8.31787C82.0763 9.45134 80.5225 15.2763 76.4465 15.4565V20.0354H79.3665V20.0279Z" fill="#262449" fill-opacity="0.2"/>
<path d="M93.6062 9.31609C93.6062 9.60134 93.381 9.82654 93.0957 9.82654H88.8021C88.5243 9.82654 88.2916 9.60134 88.2916 9.31609C88.2916 9.03085 88.5168 8.80566 88.8021 8.80566H93.0957C93.3735 8.80566 93.6062 9.03085 93.6062 9.31609Z" fill="#262449"/>
<path d="M94.4318 17.1302V14.6156C94.4318 13.2794 95.843 14.1727 95.843 12.4988C95.7755 10.382 93.0206 9.83398 93.0206 9.83398H88.8696C88.8696 9.83398 86.1147 10.382 86.0471 12.4988C86.0471 14.1727 87.4584 13.2869 87.4584 14.6156V17.1302C87.4584 17.6031 85.8145 16.8149 85.8145 19.0894C85.8145 20.0277 86.4225 20.0277 87.3458 20.0277H94.5444C95.4602 20.0277 96.0757 20.0277 96.0757 19.0894C96.0757 16.8149 94.4318 17.5956 94.4318 17.1302Z" fill="#3F6D6B"/>
<path d="M95.843 12.4988C95.843 12.4313 95.828 12.3712 95.8205 12.3112C95.7379 12.3487 93.9664 13.2495 91.0089 13.2495C88.0063 13.2495 86.3624 12.8666 86.0696 12.3187C86.0621 12.3787 86.0546 12.4388 86.0471 12.5063C86.0471 14.1802 87.4583 13.2945 87.4583 14.6231V16.3646L94.4243 15.2987V14.6231C94.4243 13.287 95.8355 14.1802 95.8355 12.5063L95.843 12.4988Z" fill="#262449" fill-opacity="0.2"/>
<path d="M94.4318 17.2129H87.4283L87.3833 14.1729H94.5069L94.4318 17.2129Z" fill="white"/>
<path d="M90.536 18.7142C87.3533 18.7142 86.2198 18.399 85.912 18.2864C85.852 18.504 85.8145 18.7593 85.8145 19.0896C85.8145 20.0279 86.4225 20.0279 87.3458 20.0279H94.5444C95.4602 20.0279 96.0757 20.0279 96.0757 19.0896C96.0757 18.7518 96.0382 18.489 95.9706 18.2714C95.9256 18.2638 95.888 18.2563 95.8355 18.2488C95.8355 18.2488 94.4168 18.7217 90.536 18.7217V18.7142ZM87.3833 14.1729L87.3983 14.931H94.4318C94.4318 14.931 94.4543 14.9235 94.4919 14.916L94.5069 14.1729H87.3833Z" fill="#262449" fill-opacity="0.2"/>
<path d="M30.7181 24.4533C30.1718 24.2956 29.5633 24.4977 29.1369 24.8752C28.9548 24.5243 28.5594 24.2956 28.1663 24.3089C27.771 24.3222 27.3935 24.5754 27.2336 24.9374C26.0276 23.4006 24.4242 24.2667 24.1155 25.5259C24.0133 25.9457 24.0644 26.5964 24.4397 26.8118C24.0977 26.7519 23.6846 26.9473 23.6358 27.2915C23.5958 27.5736 23.8068 27.8379 24.0533 27.9845C24.6485 28.342 25.4258 28.2199 26.0521 27.9178C26.6784 27.6158 27.2158 27.1561 27.8266 26.8252C28.5861 26.4099 29.4545 26.2011 30.3206 26.2211C30.7537 26.2322 31.7464 26.4254 31.7286 25.7569C31.7131 25.2061 31.2378 24.6043 30.7204 24.4555L30.7181 24.4533Z" fill="#AFCFD3"/>
<path d="M37.6895 21.233C37.6895 21.233 33.2255 22.7899 30.8114 27.2205C39.8948 32.6706 37.6895 21.233 37.6895 21.233Z" fill="#F03F6D"/>
<path d="M33.6763 8.51392C33.5297 9.78426 33.3343 11.0524 33.11 12.3116C32.9234 13.3532 32.8035 14.4414 32.4415 15.4408C32.1017 16.3803 31.5998 17.262 31.28 18.2125C31.0157 18.9987 30.6915 20.8087 31.7242 21.2107C31.944 21.2973 32.1994 21.2684 32.4126 21.1663C32.9057 20.9264 33.1566 20.349 33.4209 19.9026C33.6452 19.5206 34.0428 19.0054 34.1383 18.5723C33.9739 19.3229 33.4143 21.7126 34.5358 22.0435C34.8201 22.1279 35.1177 21.968 35.3398 21.7726C35.9172 21.2618 36.2037 20.5044 36.4502 19.7716C36.659 20.9597 37.6117 22.4166 39.1686 22.2323C40.8031 22.0391 44.4165 19.2763 44.4165 19.2763L40.2257 15.7806L35.0977 10.2151L33.6763 8.51392Z" fill="#FFCB01"/>
<path d="M51.9475 13.8596C51.9475 13.8596 50.9925 22.6188 48.1165 23.3228C45.2405 24.0268 42.8663 19.5673 42.8663 19.5673L44.0056 16.2337L51.9475 13.8596Z" fill="#FFCB01"/>
<path d="M50.3374 41.2142C49.6222 37.0389 49.1714 33.3189 49.2447 30.8249C49.0937 25.5036 48.8982 21.2329 48.8982 21.2329C48.8982 21.2329 41.2962 19.6605 37.6917 21.2329C34.0872 22.8053 34.2004 30.3674 34.2004 30.3674C34.2004 30.3674 33.1167 35.1512 33.8251 41.4918C35.6151 42.6311 41.134 45.1873 50.3396 41.2142H50.3374Z" fill="#F288A4"/>
<path d="M33.9606 5.38251C33.683 5.38251 32.7458 1.52706 33.5098 1.3183C34.2737 1.10954 34.1005 4.17657 34.1005 4.17657C34.1005 4.17657 34.5869 1.42268 35.3864 1.63144C36.1859 1.84021 34.5536 5.38251 33.9628 5.38251H33.9606Z" fill="#FFDB4D"/>
<path d="M34.3559 11.6432C34.3559 11.6432 33.1056 10.2929 32.4326 10.7748C31.7597 11.2568 33.3943 13.1623 34.598 13.34C35.7995 13.5176 34.3582 11.6432 34.3582 11.6432H34.3559Z" fill="#F99C89"/>
<path d="M51.5921 11.4323C51.2478 13.0912 50.697 15.3721 50.1218 16.196C49.1846 17.5463 42.0667 18.7856 38.6554 19.2564C35.7083 19.6606 33.9449 14.0906 33.3697 9.68886C33.2765 8.99817 33.2165 8.33412 33.1854 7.73004C33.0966 6.04884 33.7562 4.92507 34.6134 4.17664C34.6645 4.23882 34.7178 4.30767 34.78 4.3854C35.7594 5.56247 38.3179 8.06984 41.1406 7.71894C44.7473 7.2681 45.4424 5.86006 45.7311 7.06378C46.1353 5.70682 46.4329 6.7684 46.3908 6.69511C46.5995 6.82615 50.0641 9.09144 49.6466 10.5617C49.3801 11.5144 50.626 11.5411 51.5921 11.4345V11.4323ZM42.1489 36.2928L50.1374 36.0019L50.0596 31.3247L55.4941 31.1381C55.4941 31.1381 57.8461 40.2082 53.3488 40.85C48.8515 41.4919 41.4337 40.2082 41.4337 40.2082L42.1489 36.295V36.2928ZM36.5856 51.3992C37.6805 56.3385 38.8775 66.5945 40.461 71.7758L43.1705 72.6242C43.1705 72.6242 42.8262 58.0552 42.4087 52.463C42.3821 52.4586 42.9928 53.5446 42.9684 53.5401C40.1745 53.9488 38.3312 52.0077 36.5856 51.3992ZM44.0588 51.9322C47.2413 61.8396 51.2989 71.1873 51.2989 71.1873L54.1549 70.9208C54.1549 70.9208 52.7269 59.3944 51.1945 48.6786C49.5066 51.7435 46.4685 52.2409 44.0588 51.9322Z" fill="#FFAFA3"/>
<path d="M41.8115 10.1596C41.8625 10.5438 42.0558 10.837 42.2423 10.8103C42.4289 10.7837 42.5355 10.4506 42.4844 10.0663C42.4333 9.68213 42.2401 9.38897 42.0535 9.41562C41.867 9.44227 41.7604 9.77319 41.8115 10.1596ZM34.8557 10.9591C34.9067 11.3433 35.1 11.6365 35.2865 11.6099C35.4731 11.5832 35.5797 11.2523 35.5286 10.8659C35.4775 10.4816 35.2843 10.1885 35.0977 10.2151C34.9112 10.2418 34.8046 10.5727 34.8557 10.9591ZM37.6828 13.9262C37.4119 13.9551 37.1409 13.9795 36.87 14.0128C37.0099 13.4088 37.1387 12.8025 37.2564 12.1939C37.383 11.5477 37.4963 10.897 37.5829 10.2418C37.3963 10.877 37.2364 11.5144 37.0899 12.1584C36.9388 12.8002 36.8056 13.4443 36.6812 14.0928L36.659 14.2105L36.7745 14.195C37.0832 14.1505 37.3919 14.0884 37.6984 14.0373C38.0071 13.9818 38.3136 13.9196 38.6201 13.8529C38.3069 13.8729 37.9938 13.8951 37.6828 13.9285V13.9262Z" fill="#363B50"/>
<path d="M36.4435 13.8596C36.4435 14.2638 36.117 14.5903 35.7128 14.5903C35.3086 14.5903 34.9822 14.2638 34.9822 13.8596C34.9822 13.4554 35.3109 13.129 35.7128 13.129C36.117 13.129 36.4435 13.4554 36.4435 13.8596ZM43.2949 11.983C43.2949 12.3872 42.9685 12.7137 42.5643 12.7137C42.1601 12.7137 41.8336 12.3872 41.8336 11.983C41.8336 11.5788 42.1623 11.2523 42.5643 11.2523C42.9685 11.2523 43.2949 11.581 43.2949 11.983Z" fill="#E28979"/>
<path d="M41.1407 7.71661C43.4837 7.42346 44.874 7.44344 45.638 7.82321C46.1044 8.05419 46.633 7.61445 46.5308 7.10365C46.473 6.81938 46.382 6.68834 46.382 6.68834C46.382 6.68834 50.0731 9.0447 49.6467 10.5593C49.378 11.5099 50.6239 11.5387 51.59 11.4299C51.8098 10.3617 51.9475 9.54884 51.9475 9.54884L50.1242 3.49028L41.7714 1.8446L38.0071 2.72629C38.0071 2.72629 36.0349 2.93284 34.6113 4.17653C35.4331 5.22701 38.1359 8.09194 41.1407 7.71661Z" fill="#FFDB4D"/>
<path d="M38.9443 35.8908L42.9685 35.5177L42.7664 41.3608C42.7664 41.3608 36.4258 40.2415 35.4309 37.9629C34.4359 35.6843 38.9443 35.8908 38.9443 35.8908Z" fill="#701D33"/>
<path d="M47.3836 20.7333C47.3836 20.7333 56.0184 22.4189 57.0001 33.5788C52.9536 34.1296 48.8983 32.7816 48.8983 32.7816C48.8983 32.7816 47.2459 23.9913 47.3836 20.7333Z" fill="#F288A4"/>
<path d="M43.286 53.5912C45.6979 53.8977 50.0575 52.6651 51.7432 49.6003C51.1568 46.8464 50.7793 43.8016 50.3373 41.2142C41.1318 45.1874 35.6151 42.6312 33.8229 41.4918C34.1893 44.7765 34.7668 48.6031 35.664 52.6473C37.4096 53.2558 40.1746 53.9488 42.9685 53.5401C42.9929 53.5446 43.0195 53.549 43.0462 53.5534C43.0107 53.0737 42.984 52.6162 42.9685 52.1898C43.0662 52.6607 43.1728 53.127 43.286 53.5912Z" fill="#404040"/>
<path d="M35.1465 29.6613C36.7322 33.3879 35.4508 37.501 32.2838 38.8491C29.1168 40.1971 25.2658 38.2672 23.6801 34.5405C22.0944 30.8139 23.3759 26.7008 26.5428 25.3528C29.7098 24.0047 33.5608 25.9346 35.1465 29.6613Z" fill="#C6C6C6"/>
<path d="M49.187 29.5568C49.2803 29.5057 49.3202 29.368 49.1981 29.3147C49.1848 29.3103 49.1737 29.3036 49.1603 29.2969L49.0315 27.9644C49.0138 27.7801 48.7251 27.7778 48.7428 27.9644C48.7806 28.3619 48.8205 28.7573 48.8583 29.1548C48.5629 29.0149 48.272 28.8661 47.9922 28.6951C47.8323 28.5974 47.6879 28.8483 47.8456 28.946C48.1832 29.1504 48.5318 29.328 48.8916 29.4879C48.9916 30.5029 49.0893 31.5178 49.1892 32.5328C49.207 32.7171 49.4957 32.7193 49.4779 32.5328C49.3802 31.54 49.2847 30.5473 49.187 29.5546V29.5568Z" fill="#F03F6D"/>
<path d="M46.5774 43.6306C46.3664 43.3597 46.2287 43.051 46.1555 42.7156C46.1155 42.5335 45.8379 42.6112 45.8756 42.7933C45.96 43.1798 46.1288 43.524 46.3709 43.8349C46.4841 43.9815 46.6885 43.775 46.5752 43.6306H46.5774ZM47.7234 43.2464C47.5191 42.9999 47.3547 42.7245 47.2326 42.4291C47.1637 42.2581 46.8839 42.3336 46.9528 42.5068C47.0949 42.8533 47.2792 43.1642 47.5169 43.4529C47.6346 43.5973 47.8389 43.3907 47.7212 43.2486L47.7234 43.2464ZM49.7488 42.6312C49.6733 42.2714 49.5734 41.9205 49.4468 41.5763C49.3824 41.4031 49.1026 41.4786 49.167 41.654C49.2936 41.9983 49.3935 42.3492 49.4668 42.7089C49.5045 42.8911 49.7844 42.8133 49.7466 42.6312H49.7488ZM39.0153 44.2769C38.9087 43.9038 38.7666 43.544 38.5911 43.1975C38.5067 43.031 38.258 43.1775 38.3402 43.3441C38.5045 43.6684 38.6356 44.0059 38.7355 44.3546C38.7866 44.5345 39.0664 44.4568 39.0153 44.2769ZM37.7894 43.9393C37.6939 43.6173 37.5984 43.2975 37.5029 42.9754C37.4496 42.7978 37.1698 42.8733 37.2231 43.0532L37.5096 44.017C37.5629 44.1947 37.8427 44.1192 37.7894 43.9393ZM35.533 42.9266C35.3775 42.6379 35.2221 42.3492 35.0622 42.0649C34.9711 41.9028 34.7224 42.0471 34.8134 42.2115C34.9733 42.498 35.1288 42.7844 35.2842 43.0754C35.3731 43.2397 35.6218 43.0931 35.5352 42.9288L35.533 42.9266ZM51.0547 48.8896C48.9582 51.1438 46.3975 51.91 43.4704 52.4097C43.0529 51.0972 42.7131 49.7536 42.3378 48.4321C42.3067 48.3211 42.1867 48.3078 42.1135 48.3589C41.6093 48.3766 41.1052 48.3944 40.6033 48.4122C40.4167 48.4188 40.4167 48.7075 40.6033 48.7009L41.8958 48.6542C41.5049 48.7897 41.1185 48.9341 40.7365 49.0917C40.5677 49.1606 40.641 49.4426 40.8142 49.3716C41.2584 49.1895 41.707 49.0229 42.1623 48.8697C42.4999 50.0778 42.8175 51.3015 43.1995 52.4986C43.1595 52.5652 43.1928 52.6674 43.2683 52.7073C43.3616 52.9916 43.4526 53.2781 43.5548 53.5579C43.6192 53.7312 43.899 53.6557 43.8346 53.4802C43.7391 53.2181 43.6547 52.9516 43.5681 52.6874C46.5419 52.1788 49.147 51.3726 51.2657 49.0962C51.3923 48.9607 51.188 48.7542 51.0614 48.8919L51.0547 48.8896Z" fill="#F03F6D"/>
<path d="M42.8419 52.1742C40.4567 52.0565 38.0892 51.7989 35.7329 51.4014C35.5508 51.3703 35.473 51.6501 35.6551 51.6812C38.0359 52.0832 40.4278 52.3452 42.8397 52.4629C43.0262 52.4718 43.0262 52.1831 42.8397 52.1742H42.8419ZM50.9792 45.5471C50.464 45.8536 49.6289 45.6559 49.1226 45.3761C48.8383 45.2184 48.1298 44.7076 48.2764 44.3634C48.3586 44.1702 49.107 43.957 49.3069 43.8615C49.74 43.6527 50.153 43.4106 50.555 43.1486C50.7105 43.0464 50.5661 42.7977 50.4084 42.8976C50.0065 43.1597 49.5912 43.4018 49.1603 43.6105C48.7717 43.7993 48.3164 43.9015 47.9522 44.1258C47.91 44.1524 47.8766 44.199 47.8811 44.2501C47.9544 45.5382 50.1131 46.3999 51.1258 45.7959C51.2857 45.7004 51.1413 45.4516 50.9792 45.5449V45.5471ZM37.2875 46.1623C37.2631 45.7803 37.1987 44.9208 36.8322 44.6987C36.599 44.5588 36.0038 44.6566 35.7506 44.6521C35.2798 44.641 34.809 44.6321 34.3382 44.621C34.1516 44.6166 34.1516 44.9053 34.3382 44.9097C34.809 44.9208 35.2798 44.9297 35.7506 44.9408C35.9461 44.9453 36.2681 44.8897 36.4569 44.9564C36.8389 45.0918 36.8722 45.4161 36.9388 45.7514C37.0809 46.4488 37.001 47.2061 36.2859 47.557C35.8417 47.7747 35.2909 47.7813 34.8068 47.8413C34.6247 47.8635 34.6224 48.1522 34.8068 48.13C35.4442 48.0523 36.2237 48.0545 36.7434 47.6236C37.172 47.2683 37.3208 46.6975 37.2875 46.1601V46.1623ZM50.6372 46.9907C50.5795 46.8486 50.555 46.7153 50.5639 46.5621C50.575 46.3755 50.2841 46.3755 50.2752 46.5621C50.2641 46.7397 50.2907 46.9041 50.3596 47.0684C50.4284 47.2372 50.7105 47.1639 50.6394 46.9907H50.6372ZM50.8882 47.8346C50.8637 47.6503 50.5839 47.7302 50.6083 47.9124L50.6616 48.2921C50.6861 48.4765 50.9659 48.3965 50.9415 48.2144L50.8882 47.8346ZM35.4197 48.5498V48.8029C35.4197 48.9895 35.7084 48.9895 35.7084 48.8029V48.5498C35.7084 48.3632 35.4197 48.3632 35.4197 48.5498ZM36.1371 50.0755C36.0882 49.8912 36.0016 49.7357 35.8794 49.5913C35.7573 49.4492 35.5552 49.6558 35.6751 49.7957C35.7662 49.9023 35.8239 50.0178 35.8595 50.1532C35.9083 50.3331 36.1859 50.2576 36.1393 50.0755H36.1371Z" fill="#F03F6D"/>
<path d="M36.8899 71.4893C35.7084 71.7713 34.5113 72.1267 34.0871 72.4909C33.1521 73.2948 33.5741 74.3275 33.5741 74.3275L38.3157 74.0943C37.8826 72.5553 37.3296 71.8313 36.8899 71.4893Z" fill="#C6C6C6"/>
<path d="M43.1017 70.9207H39.7193C39.7193 70.9207 38.3157 71.1494 36.8899 71.4892C37.3296 71.8312 37.8826 72.5552 38.3157 74.0943L43.1705 73.8544L43.1017 70.9207Z" fill="#F03F6D"/>
<path d="M45.7157 72.7197C44.7186 73.1461 45.1961 74.0966 45.1961 74.0966L48.8472 74.1499C48.725 72.8307 48.4852 72.0978 48.2586 71.6936C47.186 72.12 46.1377 72.542 45.718 72.7219L45.7157 72.7197Z" fill="#C6C6C6"/>
<path d="M54.1085 70.2278L51.2502 70.5098C51.2502 70.5098 49.7311 71.1072 48.2587 71.6936C48.483 72.1 48.7251 72.8306 48.8472 74.1499L54.4238 74.232L54.1107 70.23L54.1085 70.2278Z" fill="#F03F6D"/>
<path d="M43.0551 72.8551C39.8659 73.0505 36.6834 73.317 33.5031 73.6502C33.3188 73.6701 33.3188 73.9589 33.5031 73.9389C36.6812 73.6057 39.8637 73.3414 43.0551 73.1438C43.2395 73.1327 43.2417 72.844 43.0551 72.8551ZM54.3683 72.9417C51.2591 72.9839 48.1787 73.4614 45.0695 73.4925C44.8829 73.4947 44.8829 73.7834 45.0695 73.7812C48.1787 73.7501 51.2591 73.2748 54.3683 73.2304C54.5548 73.2282 54.5548 72.9395 54.3683 72.9417ZM49.7644 72.0689C49.7555 71.9379 49.6067 71.9001 49.5268 71.9556C49.4535 71.909 49.2025 71.7424 49.1825 71.7313C49.0471 71.6491 48.9116 71.5692 48.7761 71.487C48.6162 71.3915 48.4696 71.6403 48.6295 71.738C48.8383 71.8623 49.0471 71.9889 49.2558 72.1133C49.3957 72.1977 49.5312 72.311 49.6933 72.2199C49.7355 72.1977 49.7688 72.1444 49.7644 72.0955C49.7644 72.0867 49.7622 72.0778 49.7622 72.0689H49.7644ZM50.8926 71.6092C50.6017 71.4271 50.3041 71.2538 49.9998 71.0917C49.8355 71.0029 49.6889 71.2538 49.8532 71.3427C50.1553 71.507 50.4529 71.678 50.746 71.8601C50.9037 71.9578 51.0503 71.7091 50.8926 71.6092ZM38.3868 71.9112C38.0737 71.698 37.7628 71.4848 37.4496 71.2716C37.2964 71.1672 37.1498 71.4159 37.303 71.5226L38.2403 72.1622C38.3935 72.2665 38.5401 72.0178 38.3868 71.9112ZM40.0925 71.5892C39.7549 71.3826 39.4195 71.1783 39.082 70.9718C38.9221 70.8741 38.7777 71.125 38.9354 71.2227L39.9459 71.8401C40.1058 71.9379 40.2502 71.6869 40.0925 71.5892Z" fill="white"/>
<path d="M45.9267 20.2557L46.051 17.0332L42.3333 17.9016L42.1467 20.54C42.1467 20.54 43.9923 21.9302 45.9244 20.2557H45.9267Z" fill="#FFAFA3"/>
<path d="M45.9267 20.2557C43.9945 21.9325 42.149 20.54 42.149 20.54L39.6749 20.771C39.6749 20.771 41.3828 24.4265 43.8613 24.0157C46.3398 23.6026 48.1143 20.9775 48.1143 20.9775L45.9245 20.258L45.9267 20.2557Z" fill="#F03F6D"/>
<path d="M49.751 9.58658C49.751 9.58658 49.7466 10.9124 48.6606 12.7136C47.126 15.2587 43.9279 18.1992 44.9473 18.9121C45.92 19.5939 46.8017 17.795 46.8017 17.795C46.8017 17.795 46.302 19.5406 47.408 19.7804C48.514 20.0203 49.5112 18.0259 49.5112 18.0259C49.5112 18.0259 48.9093 20.4933 49.9243 20.7354C53.7109 21.6326 54.1439 5.58455 49.9998 1.35156C45.8556 -2.88144 34.6135 4.18096 34.6135 4.18096L47.9255 6.2597L49.751 9.59102V9.58658Z" fill="#FFDB4D"/>
<path d="M47.9454 9.46008C47.9454 9.46008 47.6278 7.45684 49.4934 7.09706C51.3589 6.73728 52.2251 9.20468 51.0302 10.1952C49.8354 11.1857 48.3518 10.8859 47.9476 9.46008H47.9454Z" fill="#F99C89"/>
<path d="M49.9354 8.54287C49.7977 8.57618 49.6645 8.62504 49.5445 8.70278C49.509 8.72498 49.4757 8.75608 49.4402 8.78273C49.4468 8.75386 49.4513 8.72498 49.4579 8.69833C49.509 8.49401 49.5889 8.30524 49.7044 8.13645C49.8288 7.97211 49.9976 7.84552 50.2041 7.71893C49.9687 7.71448 49.7178 7.79444 49.5223 7.96766C49.3313 8.14311 49.2158 8.38075 49.1492 8.61838C49.0893 8.86046 49.0737 9.10476 49.1026 9.34239C49.1292 9.58002 49.187 9.81322 49.2958 10.0242C49.3269 9.65775 49.3424 9.30686 49.398 8.97594C49.6134 8.94041 49.8066 8.89599 49.9998 8.85602C50.1175 8.82715 50.2374 8.80494 50.3596 8.78051C50.4817 8.75386 50.6083 8.73609 50.7505 8.69611C50.5173 8.51622 50.2064 8.48513 49.9332 8.54509L49.9354 8.54287Z" fill="#363B50"/>
<path d="M34.7801 4.38325C34.6957 5.59141 34.3981 8.21871 33.372 9.68894C33.2788 8.99824 33.2188 8.3342 33.1877 7.73012C33.0989 6.04891 33.7585 4.86074 34.6135 4.1123C34.6646 4.17449 34.7179 4.30774 34.7801 4.38547V4.38325Z" fill="#FFDB4D"/>
<path d="M39.897 14.6903C40.5321 14.4438 41.1096 14.1462 41.5293 13.6953C41.7447 13.4755 41.9158 13.2156 42.0357 12.9247C42.1712 12.636 42.2333 12.3184 42.3222 11.983C42.3955 12.3162 42.4177 12.6759 42.3222 13.0202C42.2911 13.1979 42.2067 13.3578 42.1334 13.5243C42.0379 13.6776 41.938 13.8308 41.8114 13.9596C41.5604 14.2195 41.2517 14.4216 40.9208 14.5415C40.5921 14.6636 40.2412 14.7258 39.897 14.6903Z" fill="#363B50"/>
<path d="M24.8994 29.0661C24.8994 29.0661 27.5667 26.5831 31.0157 28.0378C33.4542 29.0661 34.2005 33.5545 34.2005 33.5545C34.2005 33.5545 35.4864 29.1527 31.4888 27.0939C27.4912 25.0352 25.2858 27.8135 24.8994 29.0661Z" fill="#C6C6C6"/>
<path d="M34.1094 30.1453C35.3753 33.1213 34.3515 36.406 31.8241 37.4831C29.2968 38.558 26.2186 37.019 24.9527 34.0408C23.6868 31.0648 24.7107 27.7801 27.238 26.703C29.7654 25.6281 32.8435 27.1671 34.1094 30.1453Z" stroke="white" stroke-width="0.393749" stroke-miterlimit="10"/>
<path d="M30.8047 33.3523C30.9447 32.9459 30.8181 32.5017 30.8158 32.0731C30.8114 31.3579 31.1734 30.6473 31.7553 30.232C32.0484 30.0232 32.3949 29.8899 32.7525 29.8433C32.6969 29.81 32.6436 29.7745 32.5859 29.7456C30.4361 28.6929 31.1179 31.0359 30.345 31.9731C29.8675 32.5528 28.9792 32.7393 28.4151 33.2301C27.7422 33.8142 27.8354 34.7714 28.4773 35.34C28.7993 35.0135 29.1591 34.7204 29.5499 34.4783C30.0385 34.1762 30.6182 33.8942 30.8047 33.3523Z" fill="#F288A4"/>
<path d="M34.6934 31.9953C34.4491 31.4734 34.0827 30.987 33.7384 30.6494C33.4342 30.3496 33.1188 30.0565 32.7524 29.8433C32.3948 29.8921 32.0483 30.0232 31.7552 30.2319C31.1711 30.6472 30.8091 31.3557 30.8158 32.073C30.818 32.5017 30.9446 32.9458 30.8047 33.3523C30.6181 33.8964 30.0385 34.1762 29.5499 34.4782C29.159 34.7203 28.7992 35.0113 28.4772 35.3399C28.4816 35.3444 28.4838 35.3488 28.4883 35.3533C28.9902 35.7886 29.672 35.9462 30.3316 36.0373C30.8158 36.1039 31.311 36.1417 31.7885 36.0395C32.8034 35.8241 33.03 34.8358 33.9317 34.4849C35.1776 34.0007 35.1376 32.9414 34.6956 31.9953H34.6934Z" fill="#F03F6D"/>
<path d="M37.0587 38.609C39.4772 37.6296 39.575 34.245 37.323 32.9258C37.1609 32.8303 36.9876 32.7393 36.8011 32.6482C33.4253 31.0047 32.2705 31.5822 32.2261 32.1152C32.1816 32.6482 34.6246 33.7586 34.6246 33.7586C34.6246 33.7586 30.4049 32.6482 30.3161 33.6698C30.2273 34.6914 33.1766 35.0023 33.1766 35.0023C33.1766 35.0023 29.4277 34.8247 30.0496 35.6686C30.6714 36.5125 32.6702 36.3349 32.6702 36.3349C32.6702 36.3349 30.3228 36.8679 31.0312 37.4009C31.7375 37.9339 33.8251 37.9783 33.8251 37.9783C33.8251 37.9783 35.2709 39.333 37.0565 38.609H37.0587Z" fill="#701D33"/>
<path d="M38.6889 35.6864C37.8627 36.0217 37.0876 36.4437 36.3636 36.9634C36.2126 37.07 36.357 37.3209 36.5102 37.2121C37.0987 36.7924 37.7206 36.4348 38.3757 36.1372C38.0826 36.5037 37.7872 36.8723 37.4941 37.2388C37.3786 37.3831 37.5829 37.5897 37.6984 37.4431L38.7866 36.0839C38.8244 36.0351 38.8266 35.9818 38.8088 35.9351C38.9199 35.8396 38.8466 35.6198 38.6911 35.6842L38.6889 35.6864ZM33.934 35.3377C33.7474 35.3377 33.7474 35.6264 33.934 35.6264C34.1205 35.6264 34.1205 35.3377 33.934 35.3377ZM34.9822 34.1384C34.7957 34.1384 34.7957 34.4271 34.9822 34.4271C35.1688 34.4271 35.1688 34.1384 34.9822 34.1384Z" fill="#F03F6D"/>
<path d="M34.2137 9.36226C34.2403 9.41334 34.307 9.45332 34.4224 9.47331C34.6534 9.51328 34.9666 9.40668 35.1731 9.32229C35.2331 9.29786 35.2952 9.26677 35.3286 9.21569C35.5373 8.86923 34.5513 8.96028 34.398 9.05356C34.247 9.14462 34.1648 9.26899 34.2137 9.36226ZM41.9113 8.1963C41.7602 8.18964 41.6003 8.22073 41.4804 8.31179C41.3871 8.38286 41.3205 8.52055 41.3871 8.61827C41.4382 8.69378 41.5426 8.7071 41.6336 8.71377C41.8735 8.73153 42.1134 8.74708 42.3554 8.76485C42.4665 8.77151 42.5975 8.76929 42.6575 8.67601C42.8573 8.35843 42.0823 8.20519 41.9135 8.1963H41.9113Z" fill="#52527C"/>
<path d="M27.7177 20.9531C27.7177 21.3484 27.3979 21.6704 27.0004 21.6704C26.605 21.6704 26.283 21.3506 26.283 20.9531C26.283 20.5577 26.6028 20.2357 27.0004 20.2357C27.3957 20.2357 27.7177 20.5555 27.7177 20.9531ZM26.3585 22.7431C26.3585 22.9852 26.1631 23.1806 25.921 23.1806C25.6789 23.1806 25.4835 22.9852 25.4835 22.7431C25.4835 22.501 25.6789 22.3056 25.921 22.3056C26.1631 22.3056 26.3585 22.501 26.3585 22.7431ZM29.9808 24.2644C29.9808 24.3843 29.8831 24.482 29.7631 24.482C29.6432 24.482 29.5455 24.3843 29.5455 24.2644C29.5455 24.1445 29.6432 24.0467 29.7631 24.0467C29.8831 24.0467 29.9808 24.1445 29.9808 24.2644ZM26.796 23.4005C26.796 23.5204 26.6983 23.6181 26.5784 23.6181C26.4585 23.6181 26.3607 23.5204 26.3607 23.4005C26.3607 23.2805 26.4585 23.1828 26.5784 23.1828C26.6983 23.1828 26.796 23.2805 26.796 23.4005ZM28.9148 20.7332C28.9148 20.8531 28.817 20.9508 28.6971 20.9508C28.5772 20.9508 28.4795 20.8531 28.4795 20.7332C28.4795 20.6133 28.5772 20.5155 28.6971 20.5155C28.817 20.5155 28.9148 20.6133 28.9148 20.7332ZM25.1171 26.1366C25.1171 26.2565 25.0193 26.3542 24.8994 26.3542C24.7795 26.3542 24.6818 26.2565 24.6818 26.1366C24.6818 26.0167 24.7795 25.919 24.8994 25.919C25.0193 25.919 25.1171 26.0167 25.1171 26.1366Z" fill="#AFCFD3"/>
</svg>
