<svg width="208" height="134" viewBox="0 0 208 134" fill="none" xmlns="http://www.w3.org/2000/svg">
<path d="M178.418 29.5289C178.418 34.5619 182.497 38.6413 187.53 38.6413C192.563 38.6413 196.643 34.5619 196.643 29.5289C196.643 24.4958 192.563 20.4164 187.53 20.4164C182.497 20.4164 178.418 24.4958 178.418 29.5289Z" fill="white"/>
<path d="M187.53 22.176C183.47 22.176 180.177 25.4687 180.177 29.5289" stroke="#4DDBFF" stroke-width="0.972824" stroke-miterlimit="10"/>
<path d="M157.263 4.72301C157.263 7.33146 159.378 9.44601 161.986 9.44601C164.595 9.44601 166.709 7.33146 166.709 4.72301C166.709 2.11455 164.595 0 161.986 0C159.378 0 157.263 2.11455 157.263 4.72301Z" fill="white"/>
<path d="M161.986 0.912964C159.882 0.912964 158.176 2.61915 158.176 4.72301" stroke="#4DDBFF" stroke-width="0.972824" stroke-miterlimit="10"/>
<path d="M130.732 126.048C130.732 128.657 132.847 130.771 135.455 130.771C138.064 130.771 140.178 128.657 140.178 126.048C140.178 123.44 138.064 121.325 135.455 121.325C132.847 121.325 130.732 123.44 130.732 126.048Z" fill="white"/>
<path d="M135.455 122.238C133.351 122.238 131.645 123.944 131.645 126.048" stroke="#4DDBFF" stroke-width="0.972824" stroke-miterlimit="10"/>
<path d="M186.239 91.4821C186.239 97.4367 191.067 102.264 197.022 102.264C202.976 102.264 207.804 97.4367 207.804 91.4821C207.804 85.5276 202.976 80.6998 197.022 80.6998C191.067 80.6998 186.239 85.5276 186.239 91.4821Z" fill="white"/>
<path d="M197.022 82.7844C192.218 82.7844 188.324 86.68 188.324 91.4821" stroke="#4DDBFF" stroke-width="0.972824" stroke-miterlimit="10"/>
<path d="M70.2957 75.2245C70.2957 76.7105 71.5015 77.9164 72.9875 77.9164C74.4734 77.9164 75.6793 76.7105 75.6793 75.2245C75.6793 73.7386 74.4734 72.5327 72.9875 72.5327C71.5015 72.5327 70.2957 73.7386 70.2957 75.2245Z" fill="#DBE8FF"/>
<path d="M122.31 99.1838C122.31 100.148 123.093 100.931 124.057 100.931C125.022 100.931 125.804 100.148 125.804 99.1838C125.804 98.2195 125.022 97.437 124.057 97.437C123.093 97.437 122.31 98.2195 122.31 99.1838Z" fill="#DBE8FF"/>
<path d="M14 97.437C14 98.4013 14.7826 99.1838 15.7468 99.1838C16.7111 99.1838 17.4937 98.4013 17.4937 97.437C17.4937 96.4727 16.7111 95.6902 15.7468 95.6902C14.7826 95.6902 14 96.4727 14 97.437Z" fill="#DBE8FF"/>
<path d="M169.579 124.812C169.579 129.845 173.659 133.925 178.692 133.925C183.725 133.925 187.804 129.845 187.804 124.812C187.804 119.779 183.725 115.7 178.692 115.7C173.659 115.7 169.579 119.779 169.579 124.812Z" fill="white"/>
<path d="M179.804 118.7C175.744 118.7 172.451 121.992 172.451 126.053" stroke="#4DDBFF" stroke-width="0.972824" stroke-miterlimit="10"/>
<path d="M151.07 21.9221C150.106 21.9221 149.323 21.1395 149.323 20.1753C149.323 19.211 150.106 18.4285 151.07 18.4285C152.034 18.4285 152.817 19.211 152.817 20.1753C152.817 21.1395 152.034 21.9221 151.07 21.9221Z" fill="white"/>
<path d="M135.93 72.447C134.344 72.447 133.057 71.1598 133.057 69.5734C133.057 67.9869 134.344 66.6998 135.93 66.6998C137.517 66.6998 138.804 67.9869 138.804 69.5734C138.804 71.1598 137.517 72.447 135.93 72.447Z" stroke="#4DDBFF" stroke-width="0.972824" stroke-miterlimit="10"/>
<path d="M55.9298 50.9725C53.7361 50.9725 51.9573 52.7514 51.9573 54.9451C51.9573 52.7514 50.1784 50.9725 47.9847 50.9725C50.1784 50.9725 51.9573 49.1937 51.9573 47C51.9573 49.1937 53.7361 50.9725 55.9298 50.9725Z" fill="#363F90"/>
<path d="M55.5084 31.2245C55.5084 32.7105 54.3026 33.9164 52.8166 33.9164C51.3306 33.9164 50.1248 32.7105 50.1248 31.2245C50.1248 29.7386 51.3306 28.5327 52.8166 28.5327C54.3026 28.5327 55.5084 29.7386 55.5084 31.2245Z" fill="#DBE8FF"/>
<path d="M3.49362 55.1838C3.49362 56.1481 2.71107 56.9306 1.7468 56.9306C0.782532 56.9306 0 56.1481 0 55.1838C0 54.2195 0.782532 53.437 1.7468 53.437C2.71107 53.437 3.49362 54.2195 3.49362 55.1838Z" fill="#DBE8FF"/>
<path d="M111.804 53.437C111.804 54.4013 111.022 55.1838 110.057 55.1838C109.093 55.1838 108.31 54.4013 108.31 53.437C108.31 52.4727 109.093 51.6902 110.057 51.6902C111.022 51.6902 111.804 52.4727 111.804 53.437Z" fill="#DBE8FF"/>
<path d="M69.8743 6.97254C72.0679 6.97254 73.8468 8.75143 73.8468 10.9451C73.8468 8.75143 75.6257 6.97254 77.8194 6.97254C75.6257 6.97254 73.8468 5.19366 73.8468 3C73.8468 5.19366 72.0679 6.97254 69.8743 6.97254Z" fill="#363F90"/>
</svg>
