<svg width="118" height="96" viewBox="0 0 118 96" fill="none" xmlns="http://www.w3.org/2000/svg">
<path d="M93.1728 77.9303C83.2858 76.7319 69.7712 76 54.8765 76C24.5747 76 0 79.0483 0 82.8124C0 85.2815 10.5573 87.437 26.3687 88.6354C25.59 88.9974 25.5703 89.5443 25.1661 89.7534C10.8136 97.1529 108.817 98.9625 116.85 89.7534C124.293 81.2279 93.1629 77.9383 93.1629 77.9383L93.1728 77.9303Z" fill="#4DDBFF" fill-opacity="0.2"/>
<path d="M57.105 3.18633C57.1137 3.07312 58.2741 0.715382 57.8256 0.602176C57.3771 0.488969 56.9265 3.03611 56.9265 3.03611C56.9265 3.03611 56.785 1.41421 56.3887 1.15732C55.9903 0.900431 56.6282 3.18633 56.6282 3.18633H57.1072H57.105ZM53.3692 4.13552C53.3692 4.13552 49.3917 5.84233 48.8496 11.4722C48.3075 17.0998 57.105 14.5723 57.105 14.5723L53.367 4.1377L53.3692 4.13552Z" fill="#404040"/>
<path d="M63.4902 27.3885C63.4902 27.3885 68.5976 33.2927 70.0148 39.5016C67.5265 40.0699 65.8784 39.9109 65.8784 39.9109L64.9358 39.014L60.0309 28.0286L63.488 27.3907L63.4902 27.3885Z" fill="#FFAFA3"/>
<path d="M56.8024 22.8538C56.8024 22.8538 63.2486 23.4699 65.9873 29.694C60.4402 32.0714 59.8916 30.5104 59.8916 30.5104L56.8024 22.8538Z" fill="#31DB9D"/>
<path d="M82.3848 90.5578C84.2963 90.4642 86.1577 89.8568 88.0691 89.7893C89.617 89.7349 91.1583 90.0375 92.7062 90.0919C94.2541 90.1464 95.9 89.9178 97.1126 88.9533C97.6503 88.5245 98.0922 87.9345 97.9834 87.2073C97.7156 85.4026 94.9573 85.4396 93.6032 85.4374C92.1467 85.4352 90.7012 85.4047 89.2512 85.3656C87.2222 85.3111 85.2629 85.3503 83.2796 85.8227C81.7448 86.1841 79.0169 86.8372 78.3921 88.5593C77.7325 90.3771 81.2811 90.6122 82.3805 90.5578H82.3848Z" fill="#AFCFD3"/>
<path d="M51.4577 43.3441C51.4577 43.3441 50.4976 72.092 48.8605 84.6057C51.9889 85.4591 53.6957 85.1739 53.6957 85.1739C53.6957 85.1739 57.5273 57.9673 57.3139 50.217C59.1013 50.3912 57.8212 50.2649 59.2102 50.4239C61.0236 60.754 60.6361 79.0259 60.3814 83.1144C63.4402 83.1863 65.7152 82.7596 65.7152 82.7596C65.7152 82.7596 68.9372 57.6255 64.3393 43.3463C59.1013 42.63 51.4599 43.3463 51.4599 43.3463L51.4577 43.3441Z" fill="#404040"/>
<path d="M69.3487 10.1616C65.3843 11.8314 60.9693 9.02086 59.023 7.42944C56.6239 9.84814 52.7749 10.6493 51.3554 10.5209C50.2147 12.761 49.2154 14.1979 50.1102 15.6217C51.0485 17.113 56.1841 21.5563 59.3953 22.2704C60.9453 22.6143 62.6282 21.0599 64.4569 18.8437L65.6238 19.6296L65.9417 16.9127C67.2849 15.0535 68.4278 13.1877 69.0831 12.1253C69.475 11.4875 69.5164 10.8169 69.3509 10.1616H69.3487Z" fill="#FFAFA3"/>
<path d="M60.8082 9.2777C63.2487 10.3575 65.3865 11.8314 69.3487 10.1616C68.7936 7.95406 65.8698 5.9207 65.8698 5.9207L62.3757 4.1377C62.3757 4.1377 58.8815 4.2792 55.3852 5.9207C53.7654 6.68049 50.748 10.8278 49.7618 12.7632C53.8373 12.7719 59.0208 12.1318 60.806 9.27988L60.8082 9.2777ZM63.8865 14.4417C63.6057 14.716 63.2726 14.8292 63.1398 14.6942C63.007 14.5592 63.1267 14.2261 63.4076 13.9518C63.6884 13.6775 64.0215 13.5643 64.1543 13.6993C64.2871 13.8343 64.1674 14.1674 63.8865 14.4417Z" fill="#404040"/>
<path d="M57.8365 23.0431C57.8365 23.0431 54.4337 20.3327 48.2945 19.8276C43.1784 25.5642 46.6573 29.3261 46.6573 29.3261L50.3648 45.3666L65.0142 45.1598C65.0142 45.1598 64.9228 30.8413 57.8386 23.0431H57.8365Z" fill="#75E1BA"/>
<path d="M60.9671 82.9925C60.9671 82.9925 60.1551 86.6478 61.0302 86.9569C61.9054 87.266 68.5519 87.3684 68.7065 86.7C68.8611 86.0295 64.8945 84.6906 64.8945 84.6906V82.4744L60.9671 82.9925ZM49.4396 85.4613C49.4396 85.4613 48.5318 88.1195 49.6138 88.6332C50.6958 89.1492 57.0636 89.3756 56.9591 88.4482C56.8568 87.5208 53.2124 86.9569 53.2124 86.9569L53.4563 84.8321L49.4374 85.4591L49.4396 85.4613Z" fill="#CDCDCD"/>
<path d="M54.3314 34.49C60.5948 48.8259 66.8582 63.1617 73.1215 77.4954L75.7862 83.5955C76.0932 84.3009 77.1251 83.6913 76.8203 82.9903C70.557 68.6544 64.2936 54.3186 58.0302 39.9849L55.3655 33.8848C55.0586 33.1794 54.0266 33.789 54.3314 34.49Z" fill="#E16262"/>
<path d="M48.4098 82.1652L54.8495 82.4744L54.0767 86.3364L48.203 85.7182L48.4098 82.1652ZM59.8459 81.597L66.2333 81.1333V83.761L59.8459 84.2508V81.597Z" fill="#A4A5A6"/>
<path d="M62.7545 15.6347C62.7545 16.0571 62.4127 16.3989 61.9881 16.3989C61.5658 16.3989 61.224 16.0571 61.224 15.6347C61.224 15.2124 61.5658 14.8684 61.9881 14.8684C62.4105 14.8684 62.7545 15.2102 62.7545 15.6347Z" fill="#F99C89"/>
<path d="M62.9765 19.168C62.5128 18.6629 62.1231 18.1361 61.9424 17.5396C61.8444 17.2457 61.8074 16.9344 61.8292 16.6165C61.8336 16.2965 61.9206 15.9786 61.9903 15.6368C61.7748 15.9046 61.5941 16.2203 61.5266 16.5751C61.4743 16.7493 61.4809 16.9322 61.4722 17.1151C61.4918 17.2958 61.5114 17.4808 61.5701 17.6528C61.6812 18.0011 61.8706 18.319 62.1166 18.5759C62.3604 18.8327 62.65 19.0461 62.9765 19.1658V19.168Z" fill="#363B50"/>
<path d="M54.6471 45.4624C54.1028 46.7774 53.1188 47.9704 51.6079 48.0814C51.4163 48.0945 51.4163 48.3949 51.6079 48.3797C53.2668 48.2578 54.3358 46.9907 54.9345 45.5408C55.0085 45.3623 54.7189 45.2861 54.6449 45.4603L54.6471 45.4624ZM64.6942 47.4C63.7602 47.1496 62.8371 46.5379 62.8241 45.469C62.8219 45.2774 62.5236 45.2752 62.5258 45.469C62.5389 46.6729 63.5469 47.4022 64.6158 47.6874C64.803 47.7374 64.8814 47.4479 64.6963 47.3978L64.6942 47.4ZM52.7618 49.9276C52.6856 49.6728 52.6594 49.4203 52.679 49.1547C52.6943 48.9631 52.396 48.9631 52.3808 49.1547C52.3568 49.4443 52.3895 49.7294 52.4744 50.0081C52.531 50.191 52.8184 50.1126 52.7639 49.9276H52.7618ZM52.5724 50.9747C52.5245 51.2098 52.5049 51.4428 52.5223 51.6823C52.5354 51.8738 52.8358 51.8738 52.8205 51.6823C52.8053 51.4689 52.8162 51.2621 52.8597 51.0531C52.8989 50.8659 52.6094 50.7853 52.5702 50.9725L52.5724 50.9747ZM52.777 52.7882C52.7509 52.5988 52.4635 52.6793 52.4875 52.8688L52.5658 53.4435C52.592 53.6329 52.8793 53.5523 52.8554 53.3629L52.777 52.7882ZM52.777 54.6909C52.7966 54.4994 52.4962 54.5015 52.4787 54.6909C52.4548 54.9304 52.47 55.1655 52.5158 55.4007C52.5528 55.5901 52.8401 55.5095 52.8053 55.3201C52.7639 55.1089 52.7596 54.9021 52.7792 54.6888L52.777 54.6909ZM52.6682 56.5066C52.6551 56.315 52.3547 56.315 52.3699 56.5066C52.3895 56.8092 52.4113 57.1096 52.4309 57.4122C52.4439 57.6038 52.7422 57.6038 52.7291 57.4122C52.7095 57.1096 52.6877 56.8092 52.6682 56.5066ZM52.5158 58.3789C52.4613 58.196 52.1718 58.2744 52.2262 58.4594C52.3111 58.7424 52.3459 59.0276 52.3285 59.3237C52.3176 59.5153 52.6181 59.5153 52.6268 59.3237C52.6442 59.0037 52.605 58.688 52.5136 58.381L52.5158 58.3789ZM52.5092 60.9543C52.4809 60.7649 52.1936 60.8454 52.2197 61.0349C52.2589 61.3048 52.2981 61.5748 52.3372 61.8425C52.3655 62.0319 52.6529 61.9514 52.6268 61.762C52.5876 61.492 52.5484 61.2221 52.5092 60.9543ZM52.2349 63.0443V63.8563C52.2349 64.0479 52.5332 64.0501 52.5332 63.8563V63.0443C52.5332 62.8527 52.2349 62.8505 52.2349 63.0443ZM52.2828 65.1059C52.2523 64.9165 51.9628 64.9971 51.9933 65.1865C52.0455 65.5043 52.0586 65.8244 52.0412 66.1487C52.0303 66.3403 52.3307 66.3403 52.3394 66.1487C52.359 65.7982 52.3372 65.4543 52.2806 65.1081L52.2828 65.1059ZM52.1544 67.3396C52.1435 67.148 51.8452 67.1458 51.8561 67.3396C51.8757 67.6901 51.8931 68.0384 51.9127 68.3889C51.9236 68.5805 52.2219 68.5827 52.211 68.3889C52.1914 68.0384 52.174 67.6901 52.1544 67.3396ZM51.8039 69.7278V70.4919C51.8039 70.6835 52.1021 70.6857 52.1021 70.4919V69.7278C52.1021 69.5362 51.8039 69.5341 51.8039 69.7278ZM51.6145 71.9223V72.878C51.6145 73.0696 51.9127 73.0718 51.9127 72.878V71.9223C51.9127 71.7307 51.6145 71.7285 51.6145 71.9223ZM51.2792 74.3584C51.2944 74.6849 51.264 75.0028 51.1812 75.3185C51.1333 75.5057 51.4229 75.5841 51.4708 75.399C51.5579 75.0572 51.5949 74.7111 51.5774 74.3584C51.5687 74.1668 51.2683 74.1646 51.2792 74.3584ZM51.1921 76.4592C51.1682 76.272 50.8677 76.2677 50.8939 76.4592C50.9309 76.7314 50.8982 76.9948 50.7828 77.2452C50.7023 77.4193 50.9613 77.5717 51.0419 77.3954C51.1812 77.0971 51.2357 76.7858 51.1943 76.4571L51.1921 76.4592ZM50.6108 78.51V79.4657C50.6108 79.6573 50.9091 79.6595 50.9091 79.4657V78.51C50.9091 78.3184 50.6108 78.3163 50.6108 78.51ZM50.3757 80.3714C50.3757 80.613 50.3583 80.8547 50.3213 81.0942C50.293 81.2836 50.5804 81.3641 50.6108 81.1747C50.6522 80.9091 50.6762 80.6435 50.6762 80.3736C50.6762 80.182 50.3779 80.1798 50.3779 80.3736L50.3757 80.3714ZM59.6391 49.2244C58.8488 49.4943 58.0585 49.7621 57.2683 50.0321C57.0876 50.093 57.1659 50.3826 57.3488 50.3216C58.1391 50.0516 58.9293 49.7839 59.7196 49.5139C59.9003 49.453 59.8241 49.1634 59.6391 49.2244ZM60.4533 51.31C60.4271 51.1206 60.1376 51.2011 60.1637 51.3905C60.2225 51.8216 60.2835 52.2505 60.3422 52.6815C60.3684 52.8709 60.6579 52.7904 60.6318 52.601C60.573 52.1699 60.5121 51.741 60.4533 51.31ZM61.1347 54.9326C61.0237 54.606 60.9388 54.2751 60.88 53.9355C60.8473 53.7461 60.5578 53.8266 60.5904 54.0161C60.6492 54.3557 60.7341 54.6866 60.8451 55.0131C60.9061 55.1938 61.1956 55.1176 61.1347 54.9326ZM61.3611 57.0378C61.3001 56.7657 61.2392 56.4957 61.1804 56.2236C61.139 56.0364 60.8495 56.1147 60.8909 56.3041C60.9518 56.5763 61.0128 56.8462 61.0716 57.1183C61.1129 57.3056 61.4025 57.2272 61.3611 57.0378ZM61.2631 58.5182C61.2239 58.3288 60.9344 58.4093 60.9736 58.5987C61.0171 58.8077 61.028 59.0146 61.0149 59.2279C61.0019 59.4195 61.3023 59.4195 61.3132 59.2279C61.3284 58.9884 61.311 58.7555 61.261 58.5204L61.2631 58.5182ZM61.692 62.2888C61.6136 62.0515 61.5853 61.8142 61.6028 61.5639C61.6158 61.3723 61.3176 61.3723 61.3045 61.5639C61.2849 61.8382 61.3197 62.106 61.4046 62.3672C61.4634 62.5501 61.753 62.4717 61.6942 62.2867L61.692 62.2888ZM61.8771 64.6292C61.7987 64.3897 61.7726 64.1546 61.7965 63.902C61.8161 63.7104 61.5157 63.7126 61.4983 63.902C61.4721 64.1763 61.5026 64.4463 61.5897 64.7075C61.6507 64.8904 61.9402 64.812 61.8792 64.627L61.8771 64.6292ZM61.8466 65.8614C61.8596 65.6698 61.5592 65.6698 61.5483 65.8614C61.5287 66.1509 61.5353 66.4361 61.5679 66.7235C61.5897 66.9129 61.8879 66.9151 61.8662 66.7235C61.8335 66.4361 61.827 66.1509 61.8466 65.8614ZM61.6463 68.304C61.6093 68.1146 61.3197 68.1952 61.3567 68.3846C61.4046 68.6262 61.4155 68.8635 61.3959 69.1073C61.3807 69.2989 61.6811 69.2989 61.6942 69.1073C61.716 68.8352 61.6964 68.5718 61.6441 68.304H61.6463ZM61.4678 70.7771C61.4482 70.5877 61.1478 70.5856 61.1695 70.7771C61.2022 71.0797 61.2327 71.3824 61.2653 71.685C61.2849 71.8744 61.5853 71.8766 61.5636 71.685C61.5309 71.3824 61.5004 71.0797 61.4678 70.7771ZM61.4395 72.7474C61.3894 72.5623 61.102 72.6407 61.1499 72.8279C61.2414 73.1741 61.2958 73.5224 61.3089 73.8816C61.3176 74.0732 61.6158 74.0754 61.6071 73.8816C61.5919 73.4985 61.5353 73.1196 61.4373 72.7496L61.4395 72.7474ZM61.6049 75.079C61.5657 74.8896 61.2762 74.9701 61.3154 75.1595C61.3959 75.5427 61.4199 75.9237 61.3959 76.3134C61.3829 76.505 61.6833 76.505 61.6942 76.3134C61.7225 75.8976 61.6898 75.4883 61.6049 75.079ZM61.4939 77.2691V78.3184C61.4939 78.51 61.7922 78.5122 61.7922 78.3184V77.2691C61.7922 77.0775 61.4939 77.0753 61.4939 77.2691ZM61.7508 79.8946C61.7639 79.703 61.4656 79.703 61.4525 79.8946C61.4308 80.1994 61.4395 80.4998 61.4787 80.8046C61.5026 80.994 61.803 80.9962 61.7769 80.8046C61.7377 80.502 61.729 80.1994 61.7508 79.8946Z" fill="#52527C"/>
<path d="M81.8732 82.7074C81.6294 82.2176 81.4226 81.6972 81.0655 81.2814C80.4516 80.563 79.4763 80.2582 78.538 80.1494C77.3885 80.0166 76.2129 80.132 75.1113 80.4825C74.0402 80.8243 72.9735 81.46 72.5402 82.4984C72.0983 83.5499 72.4053 84.7734 72.9365 85.7836C74.1404 88.0804 76.4742 89.7131 79.0213 90.2117C81.5663 90.7102 84.2789 90.1115 86.4712 88.7226C87.625 87.9933 88.7962 87.0071 90.1547 87.1377C90.736 87.1921 91.2824 87.4555 91.8637 87.4991C92.445 87.5448 93.1351 87.2596 93.2287 86.6849C93.3201 86.1319 92.8151 85.6573 92.3035 85.4244C91.7309 85.1631 91.0996 85.0564 90.4726 84.9977C88.6243 84.8235 86.9392 85.4244 85.1388 85.4265C83.617 85.4287 82.4959 83.9483 81.8754 82.7074H81.8732Z" fill="#FFDB4D"/>
<path d="M74.5192 80.7262C74.0097 81.0092 73.5199 81.412 73.3675 81.9998C73.25 82.4504 73.2347 83.121 73.6353 83.4301C73.7877 83.5477 73.9379 83.2886 73.7855 83.171C73.4568 82.9185 73.5983 82.0956 73.7703 81.7886C73.9727 81.4272 74.3145 81.1812 74.6694 80.9853C74.837 80.8917 74.6868 80.6326 74.5192 80.7262ZM79.0518 81.3423C78.218 80.4454 76.9966 80.0927 75.8123 80.4018C75.6251 80.4497 75.7057 80.7393 75.8929 80.6914C76.9792 80.4084 78.0786 80.7327 78.8406 81.5557C78.9712 81.6972 79.1824 81.486 79.0518 81.3445V81.3423ZM76.6135 81.6798C76.2652 81.2378 75.8254 80.8873 75.316 80.6457C75.1418 80.5629 74.9916 80.822 75.1658 80.9047C75.6556 81.1355 76.0692 81.4664 76.4045 81.8909C76.5242 82.0412 76.7332 81.83 76.6157 81.6798H76.6135ZM77.3624 88.2436C77.0119 88.2523 76.6875 88.1652 76.3893 87.9801C76.2238 87.8778 76.0736 88.1369 76.239 88.2392C76.5808 88.4482 76.964 88.5527 77.3646 88.544C77.5562 88.5396 77.5583 88.2392 77.3646 88.2457L77.3624 88.2436ZM76.9139 87.1986C76.6004 87.1224 76.3087 86.8873 76.0344 86.724C75.8689 86.626 75.7165 86.8829 75.8842 86.983C76.1824 87.1594 76.4938 87.4032 76.8356 87.4881C77.0228 87.5338 77.1033 87.2465 76.9161 87.1986H76.9139ZM84.7208 88.1064C84.2593 88.3241 83.7738 88.4634 83.2687 88.5222C83.0793 88.544 83.0771 88.8444 83.2687 88.8205C83.8304 88.7552 84.3616 88.605 84.871 88.3655C85.0452 88.2827 84.8928 88.0259 84.7208 88.1064ZM85.2934 87.3662C84.7752 87.5034 84.2571 87.6383 83.7368 87.7755C83.5496 87.8234 83.6301 88.1129 83.8173 88.065C84.3355 87.9279 84.8536 87.7929 85.3739 87.6558C85.5612 87.6057 85.4806 87.3183 85.2934 87.3662ZM83.5626 85.7835C83.3732 85.7813 83.2121 85.7182 83.0728 85.5897C82.9313 85.4591 82.7201 85.6703 82.8616 85.8009C83.0597 85.9838 83.2927 86.0774 83.5626 86.0818C83.7542 86.0839 83.7564 85.7857 83.5626 85.7835Z" fill="#FFAF64"/>
<path d="M64.9358 39.014L61.9903 43.3093L62.9351 45.4733C62.9351 45.4733 69.3814 42.2665 70.0127 39.5038C68.7457 36.051 64.9337 39.0162 64.9337 39.0162L64.9358 39.014ZM57.4751 37.7121C57.4751 37.7121 59.1427 37.7535 59.1014 37.2528C59.06 36.7521 57.1072 37.0024 57.1072 37.0024C57.1072 37.0024 58.6028 36.7172 58.3111 36.2143C58.0194 35.7114 55.3721 36.8631 55.3721 36.8631C55.3721 36.8631 54.2291 37.4204 53.9156 37.919L45.0703 32.8551L47.8656 25.6578L49.7662 20.0802C49.7662 20.0802 44.1712 18.1209 41.4695 25.5141C38.7677 32.9096 39.1226 33.9763 39.1226 33.9763C39.1226 33.9763 42.1574 41.2194 52.3068 40.8253C52.6268 40.8122 52.9447 40.7469 53.2473 40.6403C54.1812 40.305 56.256 39.506 57.1094 38.7114C59.1471 39.2121 59.3974 38.6287 59.3974 38.3369C59.3974 38.0452 57.4795 37.7121 57.4795 37.7121H57.4751Z" fill="#FFAFA3"/>
<path d="M61.9903 43.3071C61.9903 43.3071 59.4518 43.024 58.4939 43.4355C57.5339 43.847 56.8372 45.1597 57.3771 45.471C57.917 45.7824 58.7726 44.4827 58.7726 44.4827C58.7726 44.4827 57.536 45.9413 57.9802 46.1307C58.4243 46.3201 59.3952 45.323 59.3952 45.323C59.3952 45.323 58.3285 46.786 58.9315 46.8709C59.5346 46.9558 60.1659 45.6561 60.1659 45.6561C60.1659 45.6561 61.5157 46.1481 62.8284 45.4689C64.1412 44.7896 61.9946 43.3071 61.9946 43.3071H61.9903Z" fill="#FFAFA3"/>
<path d="M67.7007 38.718C66.8298 38.5264 65.959 38.5786 65.1209 38.8856C64.9423 38.9509 65.0185 39.2404 65.2014 39.1751C65.9917 38.8856 66.7994 38.8268 67.6223 39.0075C67.8095 39.0489 67.8901 38.7615 67.7028 38.718H67.7007Z" fill="#E28979"/>
<path d="M57.1049 20.2631L53.4802 17.9532L52.3024 21.4866C52.3024 21.4866 54.1833 24.6063 55.6049 24.4822C57.0266 24.3581 56.1993 23.1629 56.1993 23.1629L57.1049 20.2631Z" fill="#FFAFA3"/>
<path d="M49.7639 20.0802C49.7639 20.0802 44.256 17.6528 39.5449 27.1752C43.8053 30.9894 47.8503 31.2115 47.8503 31.2115L49.7639 20.0781V20.0802Z" fill="#75E1BA"/>
<path d="M49.7966 25.8755C49.3351 26.8682 49.0608 27.911 48.7799 28.9669C48.621 29.5634 48.5775 30.2122 48.0463 30.5562C47.4955 30.911 46.6007 30.6998 45.9541 30.6606C45.7625 30.6498 45.7625 30.948 45.9541 30.9589C46.6725 31.0024 48.0811 31.4379 48.5492 30.7608C48.9149 30.2296 48.9976 29.3109 49.1609 28.697C49.4047 27.7826 49.6573 26.8878 50.0557 26.0257C50.1362 25.8516 49.8771 25.6992 49.7966 25.8755Z" fill="#5D809A"/>
<path d="M68.2971 10.351C68.2971 10.351 71.2492 10.2051 71.2013 9.33431C71.1534 8.46349 69.0352 9.33431 69.0352 9.33431C69.0352 9.33431 71.3951 8.38511 70.9118 7.96494C70.4285 7.54477 68.6955 8.74868 68.6955 8.74868C68.6955 8.74868 69.9931 7.54477 69.7514 7.10937C69.5098 6.67396 68.2993 7.96494 68.2993 7.96494C68.2993 7.96494 61.0868 -1.9428 51.843 5.17397C52.0368 8.13693 54.2791 8.13693 54.2791 8.13693L59.6064 6.19065C59.6064 6.19065 67.2478 10.5426 68.3015 10.3532L68.2971 10.351Z" fill="#404040"/>
<path d="M58.901 12.2952C58.901 12.2952 60.4576 11.2001 59.4801 9.70883C58.5027 8.21755 56.2755 9.2473 56.3909 10.6994C56.5063 12.1515 57.6754 12.9548 58.901 12.2952Z" fill="#F99C89"/>
<path d="M58.2196 10.3554C58.2871 10.4708 58.3415 10.5927 58.3676 10.7233C58.3763 10.7625 58.3785 10.8038 58.3807 10.8452C58.3959 10.8234 58.4112 10.8017 58.4264 10.7777C58.5287 10.6101 58.6071 10.4316 58.6441 10.2443C58.6724 10.0528 58.6485 9.85682 58.6006 9.63477C58.7573 9.78934 58.8683 10.0136 58.8771 10.2552C58.8858 10.4991 58.8009 10.732 58.6833 10.9323C58.5614 11.1304 58.4046 11.3002 58.2261 11.4374C58.0498 11.5745 57.856 11.6877 57.6405 11.753C57.8669 11.4918 58.0933 11.2545 58.2805 10.9998C58.1652 10.8321 58.0672 10.671 57.967 10.5165C57.9104 10.4163 57.8451 10.3249 57.7842 10.2247C57.7232 10.1246 57.6514 10.0288 57.5861 9.90472C57.8582 9.94391 58.0824 10.1333 58.2218 10.3575L58.2196 10.3554ZM63.7427 11.5571C63.6252 11.5941 63.4989 11.6485 63.4401 11.7574C63.4118 11.8096 63.401 11.8793 63.4336 11.9316C63.4684 11.9903 63.5425 12.0121 63.61 12.0252C63.9801 12.0883 64.3545 12.036 64.7268 12.1035C64.9358 12.1405 65.1252 12.1819 65.0707 11.925C64.9532 11.3568 64.1128 11.4417 63.7427 11.5593V11.5571Z" fill="#363B50"/>
<path d="M45.5535 30.8544C45.3031 31.7361 44.8329 32.5982 44.4693 33.4386C44.4084 33.5801 44.5325 33.7042 44.674 33.6432C44.6827 33.6388 44.6914 33.6345 44.7023 33.6323C44.7719 33.6018 44.7894 33.5431 44.7741 33.4886C45.142 32.6548 45.5949 31.8101 45.8409 30.935C45.8931 30.7499 45.6036 30.6694 45.5513 30.8544H45.5535Z" fill="#E28979"/>
<path d="M49.4831 12.9786C49.4831 12.9786 50.1253 14.0672 51.5665 13.3422C52.6551 13.9322 53.4018 13.5686 54.2748 11.8009C55.1456 10.0331 50.343 11.1673 49.4831 12.9786Z" fill="#404040"/>
<path d="M45.4643 87.5904C45.4643 88.3937 42.3685 89.0446 38.55 89.0446C34.7314 89.0446 31.6357 88.3937 31.6357 87.5904C31.6357 86.787 34.7314 86.1361 38.55 86.1361C42.3685 86.1361 45.4643 86.787 45.4643 87.5904Z" fill="#404040"/>
<path d="M45.4643 87.5904L46.1 78.6318H31L31.6357 87.5904H45.4643Z" fill="#404040"/>
<path d="M46.1 78.6297C46.1 78.8626 45.8605 79.0869 45.4273 79.285C44.243 79.838 41.6066 80.2189 38.55 80.2189C35.4934 80.2189 32.857 79.838 31.6727 79.285C31.2395 79.089 31 78.8626 31 78.6297C31 77.7545 34.381 77.0448 38.55 77.0448C42.719 77.0448 46.1 77.7545 46.1 78.6297Z" fill="#404040"/>
<path d="M45.4273 79.285C44.243 79.838 41.6066 80.219 38.55 80.219C35.4934 80.219 32.857 79.838 31.6727 79.285C32.857 78.7321 35.4934 78.3511 38.55 78.3511C41.6066 78.3511 44.243 78.7321 45.4273 79.285Z" fill="#AFCFD3"/>
<path d="M42.301 80.8111C41.2561 82.5701 40.1283 83.8437 37.9861 84.007C35.5783 84.1898 32.6741 83.3626 32.5239 80.4889C32.5152 80.3147 32.2431 80.3125 32.2518 80.4889C32.3781 82.9097 34.4702 84.1528 36.7169 84.2943C39.5558 84.4729 41.1298 83.319 42.5383 80.9482C42.6276 80.798 42.3925 80.6587 42.3032 80.8111H42.301Z" fill="#CDCDCD"/>
<path d="M29.4292 44.5366H3.63637C3.63637 44.5366 3.17971 78.9624 3.63637 79.6438C4.09303 80.3252 8.51586 82.0205 16.5328 82.0205C24.5497 82.0205 28.9725 80.3252 29.4292 79.6438C29.8858 78.9624 29.4292 44.5366 29.4292 44.5366Z" fill="#75E1BA"/>
<path d="M3.61102 46.1508H29.4461L29.4292 44.5366H3.63639C3.63639 44.5366 3.62793 44.9746 3.61947 45.7371C3.61947 45.7371 3.61102 46.1427 3.61102 46.1508Z" fill="#2D5660" fill-opacity="0.2"/>
<path d="M32 41H0C0 41 1.42918 43.1171 3.62791 45.2424H29.3446C29.3446 45.2424 31.1121 42.6953 32 41Z" fill="#2DBC88"/>
<path d="M29.4292 79.6439C29.666 79.2951 29.6575 69.9424 29.5899 60.979C28.9303 62.3661 19.3742 81.8259 3.61102 76.7967C3.56028 76.8048 3.51799 76.8129 3.47571 76.8292C3.50953 78.4839 3.56028 79.5303 3.63639 79.6439C4.09305 80.3253 8.51588 82.0206 16.5328 82.0206C24.5497 82.0206 28.9725 80.3253 29.4292 79.6439Z" fill="#31DB9D"/>
<path d="M7.55182 63.1286C7.55182 71.3132 7.16282 77.9485 6.68924 77.9485C6.21567 77.9485 5.82666 71.3132 5.82666 63.1286C5.82666 54.9439 6.21567 48.3086 6.68924 48.3086C7.16282 48.3086 7.55182 54.9439 7.55182 63.1286ZM27.4503 63.1286C27.4503 71.3132 27.0613 77.9485 26.5878 77.9485C26.1142 77.9485 25.7252 71.3132 25.7252 63.1286C25.7252 54.9439 26.1142 48.3086 26.5878 48.3086C27.0613 48.3086 27.4503 54.9439 27.4503 63.1286ZM17.9873 63.1286C17.9873 71.3132 17.5983 77.9485 17.1248 77.9485C16.6512 77.9485 16.2622 71.3132 16.2622 63.1286C16.2622 54.9439 16.6512 48.3086 17.1248 48.3086C17.5983 48.3086 17.9873 54.9439 17.9873 63.1286ZM13.1924 63.1286C13.1924 71.3132 12.8034 77.9485 12.3298 77.9485C11.8563 77.9485 11.4673 71.3132 11.4673 63.1286C11.4673 54.9439 11.8563 48.3086 12.3298 48.3086C12.8034 48.3086 13.1924 54.9439 13.1924 63.1286ZM23.0698 63.1286C23.0698 71.3132 22.6808 77.9485 22.2072 77.9485C21.7336 77.9485 21.3446 71.3132 21.3446 63.1286C21.3446 54.9439 21.7336 48.3086 22.2072 48.3086C22.6808 48.3086 23.0698 54.9439 23.0698 63.1286Z" fill="#25B37F"/>
</svg>
