<svg width="215" height="60" viewBox="0 0 215 60" fill="none" xmlns="http://www.w3.org/2000/svg">
<path d="M205.475 28.2889C205.674 27.3716 205.781 26.4202 205.781 25.4431C205.781 18.0454 199.784 12.048 192.386 12.048C187.325 12.048 182.919 14.8553 180.642 18.9989C179.171 18.0282 177.409 17.4617 175.515 17.4617C174.283 17.4617 173.107 17.7033 172.029 18.1373C171.854 10.8913 165.93 5.07151 158.643 5.07151C152.259 5.07151 146.922 9.54008 145.577 15.5181C143.649 14.804 141.562 14.4149 139.385 14.4149C135.379 14.4149 131.68 15.7341 128.699 17.962C126.292 14.3957 122.214 12.048 117.588 12.048C113.69 12.048 110.184 13.7136 107.735 16.3712C106.046 14.6736 103.707 13.6217 101.122 13.6217C100.492 13.6217 99.8737 13.6858 99.2793 13.8056C99.2836 13.6687 99.29 13.5319 99.29 13.395C99.29 5.9973 93.2927 0 85.895 0C78.9291 0 73.2077 5.31739 72.562 12.1122C70.2293 10.9961 67.6187 10.3697 64.8606 10.3697C58.4122 10.3697 52.7613 13.7884 49.6226 18.9113C47.2579 15.1162 43.048 12.589 38.248 12.589C30.8503 12.589 24.853 18.5863 24.853 25.984C24.853 28.9517 25.8194 31.6927 27.4529 33.912C23.6428 34.8634 20.765 38.1582 20.4314 42.1778C18.3874 40.912 15.9757 40.1808 13.395 40.1808C5.9973 40.1808 0 46.1781 0 53.5759C0 55.6904 0.489618 57.6895 1.36195 59.4663H214.135V31.3442C211.633 29.6337 208.676 28.5412 205.482 28.2889H205.475Z" fill="white" fill-opacity="0.6"/>
<path d="M194.171 36.1142C194.345 35.3103 194.441 34.4743 194.441 33.617C194.441 27.1279 189.179 21.8661 182.69 21.8661C178.249 21.8661 174.386 24.3292 172.389 27.9639C171.097 27.1129 169.554 26.6169 167.892 26.6169C166.811 26.6169 165.78 26.8286 164.835 27.2092C164.681 20.8527 159.486 15.7469 153.093 15.7469C147.493 15.7469 142.811 19.666 141.633 24.9107C139.939 24.2843 138.111 23.9422 136.2 23.9422C132.685 23.9422 129.441 25.0989 126.826 27.0552C124.716 23.9272 121.137 21.8682 117.079 21.8682C113.66 21.8682 110.583 23.3285 108.437 25.6612C106.955 24.171 104.905 23.2494 102.636 23.2494C102.082 23.2494 101.542 23.305 101.018 23.4098C101.022 23.2901 101.026 23.1703 101.026 23.0485C101.026 16.5594 95.7645 11.2976 89.2754 11.2976C83.1648 11.2976 78.1467 15.9607 77.5802 21.9217C75.534 20.9425 73.2441 20.393 70.8238 20.393C65.1665 20.393 60.2104 23.3927 57.4566 27.8869C55.3827 24.5579 51.6902 22.3408 47.4782 22.3408C40.9892 22.3408 35.7274 27.6026 35.7274 34.0916C35.7274 36.6936 36.5762 39.099 38.0087 41.0468C34.6669 41.8828 32.1418 44.7713 31.8489 48.297C30.0551 47.1873 27.9405 46.5459 25.6763 46.5459C19.1872 46.5459 13.9254 51.8077 13.9254 58.2968C13.9254 58.6923 13.9447 59.0814 13.9831 59.4663H206.547C207.847 57.1828 208.591 54.5444 208.591 51.7307C208.591 43.497 202.238 36.7514 194.167 36.1164L194.171 36.1142Z" fill="white"/>
</svg>
