<svg width="131" height="142" viewBox="0 0 131 142" fill="none" xmlns="http://www.w3.org/2000/svg">
<path d="M78.1972 45.8053C78.4372 45.8053 78.6773 45.7903 78.921 45.7641C80.7474 45.5466 82.3675 44.4702 83.4738 42.7339C84.8801 40.5325 85.2702 37.5323 84.4714 35.0909C83.0725 30.8232 79.2773 27.9243 75.7446 25.6479C75.5121 25.4979 75.2758 25.3478 75.0433 25.1978C78.111 21.1138 82.8475 18.1174 88.1016 17.4874C92.2193 16.9923 96.4458 17.8549 100.226 19.7788C97.8897 24.7928 97.4921 30.7332 99.686 35.8372C100.849 38.5411 103.114 40.8625 105.458 41.7476C106.991 42.3289 108.525 42.2914 109.894 41.6463C111.278 40.9938 112.283 39.8275 112.793 38.2711C113.626 35.751 113.153 32.2333 111.585 29.3043C109.302 25.0328 105.818 21.5751 101.779 19.28C103.549 15.9798 106.238 13.1971 109.62 11.5508C114.942 8.95937 121.43 9.45439 126.609 12.2483V10.932C121.197 8.22432 114.571 7.82679 109.103 10.4895C105.499 12.2446 102.634 15.211 100.751 18.7287C96.7646 16.7036 92.3056 15.796 87.9591 16.3173C82.36 16.9886 77.3122 20.1988 74.0532 24.5716C71.0831 22.6852 68.0641 20.7051 66.129 17.8437C65.9453 17.5736 65.5777 17.5024 65.3077 17.6861C65.0377 17.8699 64.9664 18.2374 65.1502 18.5074C67.2091 21.5526 70.318 23.6002 73.3744 25.5429C71.3606 28.5993 70.198 32.1433 70.2693 35.7547C70.333 38.9462 71.7768 42.2314 73.9482 44.1215C75.2233 45.2315 76.6821 45.8053 78.1972 45.8053ZM74.3608 26.1691C74.6083 26.3267 74.8595 26.4842 75.1033 26.6454C78.4597 28.8056 82.0637 31.5432 83.3463 35.4622C84.0401 37.5773 83.6988 40.1837 82.4762 42.1001C81.5649 43.5327 80.2524 44.414 78.7823 44.5902C77.3459 44.759 75.9433 44.2902 74.7245 43.2289C72.8232 41.5713 71.5068 38.5599 71.4506 35.7285C71.3831 32.3495 72.4706 29.0306 74.3608 26.1691ZM101.254 20.3375C105.075 22.5239 108.375 25.8091 110.543 29.8631C111.942 32.4808 112.396 35.7097 111.672 37.9036C111.255 39.1599 110.487 40.06 109.388 40.5813C108.3 41.095 107.119 41.1175 105.874 40.645C103.819 39.8687 101.816 37.7986 100.77 35.3722C98.7147 30.5944 99.0785 25.0366 101.25 20.3375H101.254Z" fill="#FDFDFD"/>
<path d="M58.8986 11.3744L59.4686 15.8184L55.7071 13.7521C55.5684 13.9321 55.4409 14.1233 55.3396 14.3334L52.8457 18.1323L42.0001 0L68.0566 10.3244L58.8911 11.3744H58.8986Z" fill="#FFF6E6"/>
<path d="M48.3754 4.35767L56.2583 11.2056L55.5233 14.0783L59.041 11.2543L48.3754 4.35767Z" fill="#082454"/>
<path d="M59.0411 11.2544L55.7109 13.752L60.3875 16.6547L59.0411 11.2544Z" fill="#082454"/>
<path d="M129.91 99.4638C128.222 99.9263 126.572 100.311 125.043 100.567C115.925 102.092 109.066 106.087 104.532 107.243C99.9976 108.399 91.1021 111.971 89.386 107.407C89.0771 106.582 88.9323 105.924 88.9069 105.379C90.3626 106.734 92.7347 108.13 95.9096 107.324C101.496 105.908 102.771 99.8763 101.079 97.5468C99.3863 95.2172 102.154 92.3322 105.301 92.9363C108.452 93.5393 108.14 98.4821 116.283 98.0907C124.426 97.6992 123.989 91.6291 121.279 87.4181C119.074 83.9884 118.212 79.5088 122.33 78.181L129.912 99.4644L129.91 99.4638Z" fill="#005B52"/>
<path d="M97.4949 91.4457C97.0226 97.5454 95.4526 95.3848 93.3725 95.072C91.2918 94.7573 90.4677 96.1252 91.947 96.7542C93.4271 97.383 93.9764 96.11 95.1452 97.8217C96.3157 99.5348 93.9438 103.444 92.7748 104.119C91.6057 104.794 87.0319 100.993 84.9534 101.758C82.8735 102.521 82.0007 104.217 85.5616 105.669C89.1225 107.12 90.4917 106.849 90.5993 107.524C90.7061 108.2 83.9186 111.753 80.5585 111.947C77.196 112.14 77.0536 112.234 76.6804 114.059C76.5274 114.811 76.2673 115.272 75.9508 115.537C75.5008 115.915 74.9355 115.895 74.3949 115.749C74.1947 115.694 74.0094 115.616 73.8416 115.527C73.5858 115.391 73.372 115.23 73.2096 115.09C72.986 114.895 72.8601 114.74 72.8601 114.74C73.1939 114.429 73.4329 114.024 73.5645 113.535C73.9575 112.085 73.4184 109.912 71.6743 107.383C69.3423 104.001 67.9816 99.2007 68.8991 97.6616C69.8172 96.1243 70.0673 98.195 71.5141 101.177C72.9615 104.162 75.3174 103.984 75.8202 101.659C76.3247 99.3338 72.6649 96.5777 70.2064 95.1138C67.7487 93.6517 67.3765 89.1152 68.277 86.883C69.1781 84.6496 71.6762 83.5706 71.6762 83.5706C71.6762 83.5706 73.3119 88.3429 75.487 89.5826C77.6613 90.8227 79.4414 88.4141 79.1205 86.6896C78.798 84.9667 75.2684 85.018 73.6547 83.1622C72.041 81.3064 73.1816 80.6722 73.8549 79.4807C74.5288 78.288 78.732 75.7951 79.8899 74.7846C81.0479 73.7742 80.1794 76.9946 81.7431 77.4014C83.3058 77.8086 83.9946 75.9002 83.2351 75.0996C82.4742 74.3005 80.8913 74.1152 81.4247 73.3027C81.9578 72.4923 85.6444 69.9064 90.6253 67.3788C91.1172 67.1299 91.5845 67.1045 92.0248 67.2676C96.0433 68.7665 97.92 85.9505 97.4962 91.4463L97.4949 91.4457Z" fill="#59CA9E"/>
<path d="M97.4948 91.4457C97.0224 97.5454 95.4524 95.3848 93.3724 95.072C91.2916 94.7574 90.4675 96.1252 91.9468 96.7543C93.427 97.383 93.9762 96.11 95.1451 97.8217C96.3155 99.5349 93.9436 103.444 92.7746 104.119C91.6056 104.794 87.0317 100.993 84.9533 101.758C82.8733 102.521 82.0005 104.217 85.5614 105.669C89.1224 107.12 90.4916 106.849 90.5992 107.524C90.7059 108.2 83.9184 111.753 80.5584 111.947C77.1958 112.141 77.0534 112.234 76.6802 114.059C76.5272 114.811 76.2671 115.272 75.9507 115.537C75.5007 115.915 74.9353 115.895 74.3948 115.749C74.1945 115.695 74.0093 115.616 73.8415 115.527C74.8633 111.498 78.4521 97.8461 82.2725 89.1943C86.5909 79.4185 91.0888 70.0919 92.0244 67.2667C96.0428 68.7656 97.9195 85.9497 97.4957 91.4454L97.4948 91.4457Z" fill="#2A6D60" fill-opacity="0.521569"/>
<path d="M40.7552 128.528C40.7552 128.528 38.4051 129.365 30.8723 133.716C24.6422 137.316 20.5462 140.85 19.3155 141.966L11.8754 121.081C13.0709 121.088 13.9542 121.479 14.0301 121.514C13.8865 121.386 10.0295 118.028 10.4683 114.353C10.6559 112.763 11.6473 111.112 14.0949 109.639C22.2999 104.697 24.0503 116.336 24.0503 116.336C24.0503 116.336 24.7422 111.903 26.6735 110.598C28.6056 109.294 33.6941 106.933 35.6358 111.316C37.5233 115.585 33.424 120.842 33.2103 121.118C33.445 120.916 37.6037 117.44 40.4663 121.691C43.4135 126.068 40.7565 128.528 40.7565 128.528L40.7552 128.528Z" fill="#05D1A3"/>
<path d="M40.7552 128.528C40.7552 128.528 38.4051 129.365 30.8723 133.716C24.6422 137.316 20.5462 140.85 19.3155 141.966L18.3636 139.294C19.3565 138.213 20.4339 136.452 21.8836 135.173C24.3252 133.02 29.8434 131.568 30.8226 128.908C31.8008 126.245 28.4214 125.048 28.4214 125.048C28.4214 125.048 30.8943 119.233 26.5275 118.151C22.1634 117.067 20.3548 122.233 20.3548 122.233C20.3548 122.233 17.7451 113.623 10.4683 114.353C10.6559 112.763 11.6473 111.112 14.0949 109.639C22.2999 104.697 24.0503 116.336 24.0503 116.336C24.0503 116.336 24.7422 111.903 26.6735 110.598C28.6056 109.294 33.6941 106.933 35.6358 111.316C37.5233 115.585 33.424 120.842 33.2103 121.118C33.445 120.916 37.6037 117.44 40.4663 121.691C43.4135 126.068 40.7565 128.528 40.7565 128.528L40.7552 128.528Z" fill="#2A6D60" fill-opacity="0.521569"/>
<path d="M49.0493 111.75C48.9547 111.935 48.8647 112.118 48.7782 112.3C45.8186 118.488 47.1454 122.333 44.5559 125.413C41.8914 128.584 38.4723 129.895 35.5863 130.367C33.9424 130.636 31.9305 130.796 29.8156 130.256C28.2191 129.849 26.5668 129.041 24.9709 127.58C21.2611 124.181 17.3126 122.721 13.0686 122.224C12.7795 122.19 12.5007 122.142 12.2306 122.081L9.37518 114.065C10.675 112.759 12.4077 112.719 14.2183 113.108C15.5832 113.401 16.9908 113.938 18.2917 114.362C21.6093 115.443 23.7391 114.51 22.8127 112.426C21.8844 110.342 19.3623 112.091 11.1798 108.346C2.99971 104.602 10.0043 95.4368 14.8894 97.1994C19.7745 98.962 22.8158 104.383 24.1987 103.072C25.5834 101.76 22.0712 96.3193 19.9811 92.5267C17.8891 88.7346 17.3062 80.3441 24.2387 79.2635C31.1704 78.1833 31.7167 83.9089 31.983 88.5557C32.2517 93.2037 31.6022 103.009 34.1146 102.332C37.6603 101.377 34.3748 96.7301 38.5375 93.4493C42.2572 90.5174 44.9768 93.3427 44.9884 97.2748C45.0026 101.208 41.4393 103.672 39.7056 106.863C37.9738 110.052 40.323 112.489 41.8782 110.445C43.4334 108.401 42.4049 103.789 45.2202 103.165C48.0354 102.54 52.3614 105.241 49.0503 111.753L49.0493 111.75Z" fill="#019A74"/>
<path d="M48.7782 112.3C45.8186 118.488 47.1454 122.333 44.5558 125.413C41.8914 128.584 38.4723 129.895 35.5863 130.367C33.9424 130.636 31.9305 130.796 29.8156 130.256C27.4829 129.223 26.0117 127.649 25.4514 126.269C24.4437 123.787 19.484 120.624 15.7794 120.532C12.073 120.439 9.57946 115.818 11.8543 113.877C12.4538 113.365 13.1357 113.277 13.8772 113.436C15.9463 113.884 18.4735 116.278 20.9651 116.848C24.3489 117.622 24.7806 114.077 23.3901 111.757C21.9992 109.436 18.1246 109.667 13.9194 107.776C9.71257 105.883 13.0831 99.879 16.3329 100.276C19.5828 100.671 21.4487 105.515 23.8659 106.35C26.2826 107.186 28.4602 104.573 27.0312 101.268C25.6031 97.962 20.7889 91.7646 20.1454 87.3329C19.5031 82.8988 28.9259 82.0861 29.9326 88.0852C30.9385 94.0824 31.0038 103.384 31.4793 104.326C31.9569 105.268 35.6119 104.427 36.877 100.587C38.1405 96.7451 39.2623 95.6391 41.4567 96.5541C43.6505 97.4673 42.7507 99.4836 40.4261 102.995C38.0995 106.509 35.1347 107.847 36.4838 112.027C37.8318 116.21 41.6363 116.974 42.036 112.796C42.4358 108.616 46.4787 106.772 47.8591 108.966C48.2667 109.613 48.5954 110.794 48.7792 112.303L48.7782 112.3Z" fill="#2A6D60" fill-opacity="0.521569"/>
<path d="M29.8597 109.578C29.8407 109.585 29.8197 109.589 29.7982 109.591C26.3213 109.943 23.0301 108.13 19.9934 106.118L19.4781 105.777C16.7565 103.967 13.9413 102.096 10.7444 101.838C10.6013 101.827 10.4943 101.701 10.5054 101.558C10.5167 101.414 10.6431 101.307 10.7861 101.318C14.1176 101.586 16.9893 103.496 19.7668 105.342L20.2808 105.683C23.2382 107.641 26.4319 109.407 29.7458 109.071C29.8889 109.057 30.0172 109.162 30.0314 109.305C30.0439 109.426 29.97 109.537 29.8594 109.577L29.8597 109.578ZM32.5694 121.588C30.095 122.47 27.4857 122.158 25.6448 121.701C23.5357 121.178 21.5255 120.275 19.5823 119.402C19.1612 119.213 18.7392 119.024 18.3172 118.838C16.0004 117.821 13.5002 116.859 10.9178 116.717C10.7738 116.709 10.6638 116.587 10.6718 116.443C10.6799 116.299 10.8022 116.189 10.9461 116.197C13.6117 116.343 16.1647 117.323 18.5264 118.361C18.9496 118.547 19.3728 118.737 19.7952 118.927C21.7178 119.791 23.7062 120.684 25.7703 121.196C27.755 121.689 30.6654 122.008 33.2512 120.736C33.3818 120.672 33.537 120.727 33.6002 120.855C33.6638 120.985 33.6109 121.141 33.4813 121.204C33.1804 121.352 32.876 121.479 32.5694 121.588Z" fill="#BFEDE4"/>
</svg>
