<svg width="110" height="124" viewBox="0 0 110 124" fill="none" xmlns="http://www.w3.org/2000/svg">
<path d="M27.8862 7.60295L25.4984 12.8554L30.9125 11.7361C31.0161 12.0138 31.099 12.2957 31.1446 12.5901L32.7738 18.2114L53 0L17 2.83142L27.8862 7.60295Z" fill="#FFF6E6"/>
<path d="M43.5067 2.95581L31.2026 8.39478L31.0161 12.217L27.7577 7.40399L43.5067 2.95581Z" fill="#082454"/>
<path d="M27.7578 7.40405L30.9125 11.7403L24.0558 13.5395L27.7578 7.40405Z" fill="#082454"/>
<path d="M41.5209 110.824C40.2144 112.255 38.6128 113.406 36.7888 114.128C36.5961 114.204 36.3771 114.111 36.3006 113.915C36.2242 113.722 36.3191 113.502 36.5135 113.427C42.4091 111.095 45.8496 103.994 44.032 97.9211C43.8009 97.1503 43.4472 96.3225 42.9718 95.5358C42.401 97.1918 41.3876 98.7478 39.7789 99.7052C38.3496 100.555 36.4463 100.683 34.8091 100.042C33.4336 99.5042 32.4723 98.5163 32.0991 97.2599C31.6959 95.9017 32.0651 94.4205 33.1138 93.1977C34.3626 91.724 36.3389 90.931 38.1136 91.1735C40.0092 91.4325 41.5209 92.4766 42.6497 93.8019C42.7635 93.1778 42.8166 92.5599 42.8208 91.9814C42.8561 87.3904 40.2534 83.0205 36.4234 80.6002C35.7623 82.6137 34.3031 84.3709 32.323 85.2284C30.7724 85.9024 29.1227 85.9552 27.7992 85.371C26.2548 84.6885 25.2485 83.0803 25.4107 81.5494C25.5122 80.5809 26.012 79.7432 26.8547 79.1216C28.1915 78.136 30.3182 77.7487 32.2753 78.1351C33.5584 78.3881 34.7861 78.8363 35.9263 79.4441C36.1439 78.3131 36.0906 77.1386 35.705 76.0553C34.5751 72.8784 30.7361 70.8931 27.4901 71.8046C27.2898 71.861 27.0832 71.7435 27.0268 71.5432C26.9703 71.3428 27.0878 71.1363 27.2864 71.0782C30.9548 70.0478 35.1366 72.2103 36.4121 75.8017C36.8773 77.1097 36.9241 78.5145 36.6276 79.8452C40.7755 82.3779 43.6088 87.0587 43.57 91.9829C43.5632 92.8017 43.4649 93.6922 43.2466 94.5831C43.9449 95.5897 44.4446 96.6899 44.7493 97.7025C46.1123 102.254 44.6846 107.353 41.519 110.819L41.5209 110.824ZM33.7886 93.5713C33.7531 93.6101 33.7161 93.6507 33.6824 93.6911C32.8039 94.7168 32.4891 95.9401 32.8166 97.0481C33.122 98.0776 33.9267 98.8934 35.0802 99.345C36.5056 99.9026 38.1579 99.7939 39.3929 99.0615C41.01 98.1021 41.9582 96.4509 42.4335 94.7401C41.3822 93.3335 39.9045 92.1813 38.0107 91.9239C36.5321 91.7221 34.8923 92.3663 33.7903 93.5729L33.7886 93.5713ZM26.8253 80.1527C26.4403 80.5743 26.2176 81.0698 26.1568 81.6322C26.0294 82.8488 26.8468 84.1324 28.1013 84.6859C29.2333 85.1859 30.6615 85.1346 32.0213 84.542C33.8239 83.7585 35.16 82.0864 35.739 80.1984C34.6169 79.5813 33.4042 79.1273 32.1296 78.8756C30.3977 78.5331 28.4568 78.8765 27.2999 79.7288C27.1215 79.8603 26.9639 80.001 26.8269 80.151L26.8253 80.1527Z" fill="#FDFDFD"/>
<path d="M21.0049 69.1496L23.8551 70.8856L20.9024 72.1101C20.942 72.2758 20.9968 72.439 21.0697 72.5929L22.1169 75.8108L6.52368 73.6736L24.6623 63.3274L21.0065 69.1479L21.0049 69.1496Z" fill="#FFF6E6"/>
<path d="M104.499 103.062C101.607 99.1264 96.1477 93.1853 87.5054 89.3594L93.6428 98.451C93.6428 98.451 84.5512 90.722 75.0045 90.0407L78.0717 97.7073C77.7236 97.6805 77.3725 97.6537 77.0215 97.6299C73.3682 94.4973 63.5358 87.3722 47.7297 85.2659L60.9119 98.222L60.9506 98.2666C57.1812 98.8705 53.4209 99.8433 49.7824 101.295C49.7259 101.316 49.6753 101.34 49.6218 101.361C45.2604 103.122 41.3632 105.401 37.9003 107.95L38.5637 96.3745C31.7748 100.239 29.5019 113.103 29.5019 113.103C20.2139 112.359 12 117.027 12 117.027C13.4994 116.405 23.7155 122.2 23.7155 122.2L24.0011 122.025C23.7006 122.43 23.4121 122.834 23.1265 123.233H109.401V96.794C106.757 99.6262 105.108 102.086 104.499 103.059V103.062Z" fill="#31DB9D"/>
<path d="M50.7316 123.239C46.8968 112.755 42.6128 105.538 42.5385 105.413L42.836 105.237C42.9074 105.359 47.236 112.654 51.0975 123.239H50.7316ZM57.1754 123.239C54.6497 110.125 49.5505 101.581 49.4732 101.456L49.7707 101.277C49.7736 101.28 49.7766 101.286 49.7855 101.301C50.0949 101.825 55.0543 110.342 57.5265 123.239H57.1754Z" fill="#116B93" fill-opacity="0.741176"/>
<path d="M101.541 102.143C104.112 105.204 107.158 107.998 109.398 111.255V77.034C106.236 69.659 101.271 63.0664 94.8775 58.2112C94.7882 58.1428 94.693 58.0714 94.5978 58C94.5443 58.1339 94.4907 58.2707 94.4372 58.4046C88.7549 72.8244 91.5722 90.2608 101.538 102.14L101.541 102.143Z" fill="#31DB9D"/>
<path d="M94.4402 58.4076C96.2787 67.7729 98.6438 78.5632 101.833 88.6752C104.094 95.8449 106.623 102.973 109.401 110.003V108.724C106.798 102.063 104.418 95.3183 102.279 88.5294C99.0841 78.4055 96.722 67.5854 94.8805 58.2112C94.7912 58.1428 94.696 58.0714 94.6008 58C94.5473 58.1339 94.4937 58.2707 94.4402 58.4046V58.4076Z" fill="#004D79"/>
</svg>
