<svg width="119" height="107" viewBox="0 0 119 107" fill="none" xmlns="http://www.w3.org/2000/svg">
<g opacity="0.9">
<path d="M51.4283 2.23906C61.4005 2.0056 71.4173 5.32853 79.4899 11.5478C86.2046 16.7206 91.4788 23.722 96.1187 31.022C101.08 38.8281 105.501 47.331 106.736 56.6551C107.971 65.9792 105.495 76.3048 98.6358 82.2775C94.2795 86.0709 88.5799 87.794 82.9539 88.1412C77.328 88.4885 71.7076 87.5582 66.1521 86.5604C58.2145 85.1335 50.2536 83.5491 42.7036 80.5852C35.1536 77.6214 27.9732 73.1951 22.6286 66.8052C16.7481 59.773 13.3265 50.4761 13.1613 41.075C13.0083 32.4003 15.7386 23.4672 20.316 16.281C23.6817 10.9967 30.0837 7.95347 35.4863 5.68406C40.555 3.55567 45.9777 2.36586 51.4283 2.23787V2.23906Z" fill="#F2F2F2"/>
<path d="M90.4592 81.6459C91.2487 81.6459 92.0382 81.6234 92.8333 81.5736C97.0489 81.314 103.09 80.1183 107.934 75.9007C111.092 73.1513 113.474 69.2726 114.824 64.6852C116.071 60.4509 116.408 55.7865 115.8 51.1979C114.549 41.741 109.816 33.3353 105.833 27.0686C100.465 18.6238 95.653 12.9948 90.2325 8.81857C82.5731 2.9181 73.1448 -0.211668 63.6818 0.0111257C58.5372 0.130818 53.4618 1.22819 48.5986 3.27125C42.9268 5.65324 37.2451 8.53771 34.0982 13.4783C29.6448 20.4702 27.1702 29.0513 27.3109 37.0221C27.4672 45.9243 30.7514 54.8491 36.3204 61.508C40.938 67.028 47.3155 71.4128 55.2753 74.5366C62.4077 77.337 69.9644 78.8219 77.0934 80.1017C81.7836 80.9443 86.0951 81.6459 90.4603 81.6459H90.4592ZM64.621 2.3706C73.2977 2.3706 81.893 5.3238 88.9193 10.7372C94.1197 14.7439 98.7641 20.1893 103.98 28.3947C107.829 34.4505 112.4 42.5516 113.588 51.5285C114.15 55.7722 113.841 60.0776 112.692 63.98C111.472 68.1242 109.337 71.6143 106.516 74.0697C102.137 77.8833 96.5877 78.9688 92.7027 79.2094C87.7412 79.5151 82.8656 78.7377 77.4642 77.766C70.439 76.5039 62.9995 75.0438 56.0481 72.3146C48.4355 69.3271 42.3596 65.1615 37.9888 59.9354C32.7671 53.6924 29.6883 45.3247 29.5421 36.9794C29.4103 29.485 31.7442 21.404 35.9463 14.8079C38.7537 10.4006 44.0804 7.71882 49.4182 5.47667C54.0358 3.53789 58.8499 2.49622 63.7299 2.38245C64.0269 2.37534 64.3239 2.37179 64.621 2.37179V2.3706ZM2.3437 101.346C2.3437 104.276 28.3986 106.651 60.5372 106.651C92.677 106.651 118.731 104.276 118.731 101.346C118.731 98.417 92.6759 96.0421 60.5372 96.0421C28.3974 96.0421 2.3437 98.417 2.3437 101.346Z" fill="#AD49EB"/>
<path d="M80.5227 91.674C80.8689 91.5673 81.2296 91.5176 81.5892 91.5306C81.8282 91.5389 82.0671 91.5756 82.2994 91.6432C82.4937 91.4429 82.6769 91.232 82.8466 91.0104C83.1883 90.5683 83.4809 90.0896 83.7254 89.5823C83.8472 89.3287 83.9566 89.0692 84.0526 88.8038C84.343 88.0074 84.5183 87.1624 84.573 86.3068C84.5909 86.0212 84.5965 85.7344 84.5875 85.4476C85.2274 85.7415 85.8795 86.2357 86.2849 87.0783C85.9287 89.7044 85.1894 91.6444 83.9398 93.9422C83.463 94.818 82.8042 95.7412 81.8561 95.8466C80.9437 95.9485 80.0939 95.196 79.7556 94.2918C79.5032 93.6175 79.4786 92.8816 79.5445 92.1528C79.645 92.0828 79.7477 92.0177 79.8549 91.9584C80.0682 91.8399 80.2916 91.7439 80.5227 91.674Z" fill="#D86DBD"/>
<path d="M72.2146 68.61C74.0628 69.4632 76.4592 69.9917 78.4749 70.0474C77.8986 71.8642 77.2621 73.8432 76.6591 75.731C76.5921 75.942 76.5273 76.1446 76.4603 76.3544C74.3721 75.7014 72.3609 74.7865 70.5228 73.5742C70.8701 71.7172 71.4195 69.5959 72.2146 68.6088V68.61Z" fill="#DD917C"/>
<path d="M76.4603 76.3558C76.3642 76.6592 76.266 76.9649 76.1722 77.2588C78.6389 79.6479 80.802 82.0963 82.6859 85.0222C82.6859 85.0222 83.6217 85.0056 84.5876 85.4488C84.5965 85.7356 84.591 86.0224 84.5731 86.308C84.5184 87.1636 84.3419 88.0086 84.0527 88.8049C83.9567 89.0704 83.8472 89.3299 83.7255 89.5835C83.4821 90.0896 83.1884 90.5695 82.8467 91.0115C82.6758 91.232 82.4938 91.4441 82.2995 91.6444C82.0672 91.5768 81.8282 91.5401 81.5893 91.5318C81.2308 91.5187 80.869 91.5685 80.5228 91.6752C80.2917 91.7463 80.0672 91.8423 79.855 91.9596C79.7489 92.0188 79.6451 92.084 79.5446 92.1539C79.5669 91.9051 79.6004 91.6574 79.6384 91.4133C79.7891 90.4534 80.0304 89.5077 79.9879 88.5359C77.7612 86.9693 75.5144 85.386 73.664 83.3418C71.8126 81.2975 70.324 79.7759 70.0426 76.9566C70.0392 76.927 70.1877 75.3757 70.5239 73.5768C72.362 74.7891 74.372 75.7028 76.4614 76.357L76.4603 76.3558Z" fill="#EBAE90"/>
<path d="M80.5228 91.6741C80.2916 91.7452 80.0672 91.8412 79.855 91.9585C80.0683 91.84 80.2916 91.744 80.5228 91.6741ZM82.2994 91.6433C82.4937 91.443 82.6769 91.232 82.8466 91.0104C82.6758 91.2309 82.4937 91.443 82.2994 91.6433ZM83.7255 89.5836C83.482 90.0896 83.1883 90.5696 82.8466 91.0116C83.1883 90.5696 83.4809 90.0908 83.7255 89.5836Z" fill="#EBAE90"/>
<path d="M92.5908 93.2478C92.937 93.1411 93.2977 93.0913 93.6573 93.1044C93.8963 93.1127 94.1352 93.1494 94.3675 93.2169C94.5618 93.0167 94.7449 92.8045 94.9147 92.5841C95.2564 92.1421 95.549 91.6633 95.7935 91.1561C95.9153 90.9025 96.0247 90.643 96.1218 90.3775C96.4122 89.5811 96.5875 88.7362 96.6422 87.8806C96.6601 87.595 96.6657 87.3082 96.6567 87.0226C97.2966 87.3165 97.9488 87.8107 98.3541 88.6521C97.9979 91.2782 97.2586 93.2181 96.0091 95.516C95.5322 96.3917 94.8734 97.3149 93.9253 97.4204C93.0129 97.5223 92.1631 96.7698 91.8248 95.8656C91.5724 95.1913 91.5478 94.4553 91.6137 93.7265C91.7142 93.6566 91.817 93.5914 91.9242 93.5322C92.1375 93.4137 92.3608 93.3177 92.5919 93.2478H92.5908Z" fill="#D86DBD"/>
<path d="M90.5439 71.6225C89.9677 73.4393 89.3312 75.4183 88.7282 77.3061C88.7014 77.3915 88.6746 77.4732 88.6478 77.5586C86.5048 77.7067 84.3585 77.7091 82.2245 77.5005C82.4657 75.6115 83.1045 71.6498 84.2837 70.1851C86.1319 71.0383 88.5283 71.5669 90.5439 71.6225Z" fill="#DD917C"/>
<path d="M88.6477 77.5585C88.5104 77.9887 88.373 78.4177 88.2412 78.8325C90.708 81.2216 92.8711 83.6699 94.755 86.5959C94.755 86.5959 95.6908 86.5793 96.6567 87.0225C96.6656 87.3093 96.66 87.5949 96.6422 87.8805C96.5875 88.7361 96.411 89.5811 96.1218 90.3774C96.0246 90.6429 95.9163 90.9024 95.7935 91.156C95.55 91.662 95.2564 92.142 94.9146 92.584C94.7438 92.8045 94.5618 93.0166 94.3675 93.2169C94.1352 93.1493 93.8962 93.1126 93.6572 93.1043C93.2988 93.0912 92.937 93.141 92.5908 93.2477C92.3596 93.3188 92.1352 93.4148 91.923 93.5321C91.8169 93.5913 91.7131 93.6565 91.6126 93.7264C91.6349 93.4776 91.6684 93.2299 91.7064 92.9858C91.8571 92.0259 92.0983 91.0802 92.0559 90.1084C89.8292 88.5418 87.5824 86.9585 85.732 84.9143C83.8816 82.87 82.392 81.3484 82.1106 78.5291C82.1094 78.5149 82.1452 78.1167 82.2245 77.4993C84.3585 77.7078 86.5048 77.7055 88.6477 77.5573V77.5585Z" fill="#EBAE90"/>
<path d="M95.7936 91.1573C95.5501 91.6634 95.2564 92.1433 94.9147 92.5854C95.2564 92.1433 95.549 91.6646 95.7936 91.1573ZM94.3687 93.2182C94.563 93.0179 94.7461 92.8058 94.9159 92.5854C94.745 92.8058 94.563 93.0179 94.3687 93.2182ZM93.6584 93.1056C93.2989 93.0926 92.9382 93.1423 92.592 93.249C92.9382 93.1423 93.3 93.0926 93.6584 93.1056ZM92.5909 93.2478C92.3597 93.3189 92.1353 93.4149 91.9231 93.5322C92.1364 93.4137 92.3597 93.3177 92.5909 93.2478Z" fill="#EBAE90"/>
<path d="M73.9533 24.4213C73.1727 17.1603 77.0142 10.6282 87.3068 11.8323C95.7279 12.8171 98.8703 17.8584 98.5029 23.4412L98.5487 23.446C99.0378 36.0492 96.9674 41.8217 94.7005 45.0913C94.3979 45.2062 94.0908 45.3093 93.7837 45.4089C94.0115 44.6765 94.083 43.8955 94.0718 43.1205C93.9278 43.9809 93.643 44.8128 93.2399 45.5736C85.8641 47.7518 77.5089 45.9623 71.9991 43.7533C72.2425 43.2141 72.4033 42.6512 72.5172 42.0326C72.2582 42.5825 71.9366 43.098 71.5703 43.5756C71.1459 43.399 70.7383 43.2212 70.3531 43.0423C71.0164 42.1973 71.5211 41.2113 71.8227 40.1578C71.1738 41.1106 70.3654 41.939 69.4508 42.6038C68.0594 41.8975 67.0074 41.2113 66.4279 40.6544C72.1554 34.6259 73.5212 28.4529 73.9533 24.4201V24.4213Z" fill="#701D33"/>
<path d="M111.545 41.7707L98.6179 40.3226L97.9121 45.5878L111.285 45.2738C111.866 46.069 112.44 46.9044 113.022 47.6996C113.177 47.9118 113.34 48.131 113.566 48.2542C113.792 48.3775 114.1 48.3739 114.27 48.1737C114.388 48.035 114.415 47.8288 114.383 47.6451C114.352 47.4614 114.27 47.292 114.187 47.1261C113.948 46.6414 113.709 46.1579 113.47 45.6732C114.778 45.5606 116.044 45.1399 117.326 44.8448C117.528 44.7974 117.737 44.7452 117.902 44.6137C118.067 44.481 118.179 44.2463 118.113 44.0378C118.06 43.8671 117.9 43.7533 117.735 43.7131C117.569 43.6728 117.397 43.6929 117.229 43.7119C116.554 43.7925 115.881 43.8719 115.206 43.9524C116.018 43.6917 116.696 43.4049 117.508 43.1442C117.73 43.0731 117.98 42.9748 118.061 42.7437C118.149 42.4877 117.96 42.1997 117.721 42.099C117.482 41.9983 117.214 42.035 116.96 42.0753C116.241 42.1891 115.524 42.3194 114.809 42.4652C115.334 42.3206 115.83 42.1464 116.299 41.8572C116.476 41.7482 116.664 41.6036 116.696 41.3891C116.733 41.1343 116.519 40.9009 116.283 40.8404C116.047 40.78 115.801 40.8452 115.566 40.9115C114.967 41.0786 114.37 41.2457 113.771 41.4128C113.87 41.2363 114.06 41.0621 114.216 40.9435C114.372 40.8239 114.532 40.6852 114.595 40.492C114.658 40.2989 114.581 40.0405 114.395 39.9872C114.255 39.9469 114.113 40.0299 113.989 40.1093C113.216 40.607 112.318 41.2718 111.545 41.7695V41.7707ZM58.8845 35.1545L71.6987 37.4677L71.0376 42.7389L58.2424 38.6007C57.4797 39.1991 56.7148 39.8391 55.951 40.4375C55.7466 40.5975 55.5344 40.761 55.2854 40.8156C55.0364 40.8689 54.7416 40.7776 54.6288 40.5359C54.5506 40.3676 54.5763 40.1626 54.6534 39.9943C54.7304 39.826 54.8532 39.6874 54.975 39.5511C55.329 39.1541 55.6818 38.7559 56.0358 38.3589C54.8063 37.8766 53.6941 37.1075 52.535 36.4545C52.3518 36.3514 52.1642 36.2412 52.038 36.0658C51.9119 35.8916 51.865 35.6332 51.9822 35.4519C52.0771 35.3038 52.2603 35.2398 52.43 35.2481C52.5986 35.2564 52.7606 35.3251 52.9169 35.3927C53.5456 35.6629 54.1743 35.9343 54.803 36.2045C54.0872 35.7209 53.5087 35.2505 52.7929 34.767C52.5975 34.6354 52.3809 34.4683 52.363 34.223C52.3429 33.9504 52.5986 33.7277 52.8544 33.6992C53.1101 33.6708 53.3591 33.7833 53.5936 33.8947C54.2569 34.2112 54.9147 34.5418 55.5646 34.8867C55.0967 34.5963 54.6623 34.287 54.2848 33.8734C54.1419 33.717 53.9979 33.5238 54.0224 33.3081C54.0515 33.0522 54.3183 32.8898 54.5607 32.8981C54.803 32.9076 55.023 33.0415 55.2329 33.1719C55.7667 33.5049 56.2994 33.8367 56.8332 34.1697C56.7829 33.9718 56.6456 33.7502 56.5249 33.5902C56.4043 33.4302 56.2871 33.2513 56.2748 33.0474C56.2625 32.8436 56.4021 32.6161 56.5953 32.6184C56.7405 32.6196 56.8555 32.7405 56.9549 32.8531C57.5724 33.5546 58.2681 34.4529 58.8857 35.1533L58.8845 35.1545Z" fill="#EBAE90"/>
<path d="M84.3899 45.9635C78.0817 45.2193 74.2682 42.1594 71.6964 36.4189L81.4285 38.1148L84.9885 39.9836L84.9081 41.1545L85.0309 39.9884L88.8891 38.987L98.7362 39.5819C95.0489 44.59 90.6993 46.6947 84.3888 45.9623L84.3899 45.9635Z" fill="#C63F95"/>
<path d="M71.6953 36.4189H71.6976C74.2682 42.1594 78.0817 45.2193 84.3911 45.9635C90.7016 46.6959 95.0511 44.5912 98.7385 39.5831H98.7407C100.382 43.1122 99.0098 47.0632 99.0098 47.0632L94.3811 46.5442L94.4124 47.3311L94.4939 49.3765C94.4939 49.3765 95.1717 60.1002 100.967 71.5136C95.4889 77.8917 70.9203 76.498 67.4295 67.053C69.4362 53.4366 74.5217 44.2203 74.5217 44.2203L69.8974 43.6574C69.8974 43.6574 69.3681 39.4847 71.6953 36.4189Z" fill="#D86DBD"/>
<path d="M81.4106 40.0901C81.3012 39.6647 81.261 39.212 81.309 38.7486C81.3749 38.1111 81.596 37.5328 81.9254 37.0469L84.8132 38.0139L87.7993 37.7401C88.0181 38.2888 88.1142 38.9015 88.0483 39.5367C88.0003 40.0024 87.8674 40.435 87.6731 40.8249C85.5759 41.2065 83.3749 40.9564 81.4106 40.0901Z" fill="#CD806E"/>
<path d="M87.6731 40.825C87.041 42.0895 85.73 42.8847 84.3074 42.7176C82.8847 42.5505 81.7669 41.4709 81.4106 40.0891C83.3738 40.9554 85.5759 41.2054 87.6731 40.8239V40.825Z" fill="#DD917C"/>
<path d="M87.0632 14.1797C98.1666 15.4786 100.489 23.6698 97.5088 31.2459L86.3016 21.5141L73.3658 28.4219C72.0123 20.3385 75.9599 12.8809 87.0632 14.1797Z" fill="#D86DBD"/>
<path d="M71.6641 26.7722C70.8757 27.1254 70.4681 28.1363 70.5932 29.0357C70.7171 29.9352 71.2799 30.7102 71.9578 31.266C72.3285 31.5694 72.7528 31.8254 73.2185 31.8775C73.6842 31.9297 74.1945 31.7401 74.4413 31.3182C74.6367 30.984 74.6423 30.5657 74.6122 30.1746C74.5697 29.633 74.4692 29.0974 74.314 28.5795C74.2113 28.237 74.113 27.7985 73.922 27.4951C73.4709 26.777 72.4056 26.4416 71.6652 26.7734L71.6641 26.7722Z" fill="#DD917C"/>
<path d="M71.7891 27.5533C72.7059 27.9894 73.3625 28.9872 73.4318 30.0514C73.4452 30.2517 73.4373 30.4591 73.3636 30.6428C73.2899 30.8277 73.1381 30.9865 72.9516 31.0185C72.7952 31.0457 72.6333 30.9805 72.5105 30.8739C72.3876 30.7684 72.2972 30.625 72.2213 30.4781C72.0727 30.1925 71.9622 29.8642 72.0169 29.5419C72.0705 29.2207 72.3329 28.9221 72.64 28.9351C72.6188 28.384 72.2335 27.8377 71.7891 27.5521V27.5533Z" fill="#CD806E"/>
<path d="M99.8585 30.638C100.522 31.2128 100.645 32.3042 100.287 33.1302C99.93 33.9562 99.184 34.5333 98.3867 34.864C97.9512 35.0453 97.4755 35.1638 97.0143 35.0749C96.5542 34.986 96.1142 34.6518 95.9891 34.1731C95.8909 33.795 95.9958 33.3909 96.1287 33.0247C96.313 32.5175 96.5508 32.0328 96.8367 31.5837C97.0266 31.285 97.2365 30.894 97.5 30.6593C98.1232 30.1047 99.2343 30.1 99.8574 30.6392L99.8585 30.638Z" fill="#DD917C"/>
<path d="M99.5312 31.3502C98.5352 31.4948 97.6418 32.258 97.2934 33.2582C97.2286 33.4466 97.1806 33.6469 97.2029 33.846C97.2253 34.0451 97.328 34.243 97.4989 34.3295C97.6418 34.4018 97.8138 34.3876 97.9601 34.3224C98.1063 34.2572 98.2303 34.147 98.342 34.0285C98.5608 33.7986 98.7529 33.5165 98.7864 33.1918C98.8199 32.8671 98.6468 32.5033 98.3487 32.4239C98.5151 31.9013 99.0287 31.4912 99.5312 31.3502Z" fill="#CD806E"/>
<path d="M86.8925 16.5109C93.5513 17.2895 98.5843 21.442 97.8506 28.5086C97.7401 29.5727 97.5078 30.5907 97.175 31.5518C97.1505 30.4011 96.9137 29.2611 96.5251 28.1625C90.0058 27.4503 83.8282 23.7232 79.9164 18.1416C78.9214 21.3365 76.9549 24.3703 74.2246 26.0815C74.0013 26.7321 73.8293 27.4159 73.7009 28.1104C73.6428 27.3164 73.6506 26.507 73.7355 25.6869C74.4692 18.6203 80.2336 15.7311 86.8925 16.5109Z" fill="#701D33"/>
<path d="M79.9164 18.1426C83.8282 23.7231 90.0058 27.4501 96.5251 28.1635C96.9137 29.2621 97.1505 30.4021 97.175 31.5528C95.2945 36.9769 90.1197 40.557 84.4636 39.8945C78.5775 39.206 74.1442 34.1552 73.7009 28.1114C73.8293 27.4169 74.0013 26.7343 74.2246 26.0825C76.9549 24.3701 78.9215 21.3375 79.9164 18.1426Z" fill="#EBAE90"/>
<path d="M80.0405 19.4379C79.6731 21.1669 78.8467 22.6944 77.5469 23.8072C76.9919 24.2824 76.371 24.6688 75.711 24.9579C77.6742 23.1993 79.1125 20.7237 79.9165 18.1426C83.8283 23.7231 90.0059 27.4501 96.5252 28.1623C96.7005 28.6577 96.8424 29.1614 96.9507 29.6709C93.8195 29.5927 90.7519 28.365 88.0763 26.6063C85.0947 24.6474 82.5363 22.0521 80.0405 19.4379Z" fill="#DD917C"/>
<path d="M91.5569 29.671C91.577 29.6699 91.5982 29.6639 91.6172 29.6533L92.5005 29.2112C92.5876 29.1674 92.6245 29.0584 92.5832 28.9659C92.5418 28.8735 92.4391 28.8344 92.352 28.8782L91.4687 29.3203C91.3816 29.3641 91.3447 29.4731 91.3861 29.5656C91.4173 29.6367 91.4866 29.6758 91.5569 29.671ZM79.9868 28.3355C79.9667 28.3295 79.9477 28.3189 79.9309 28.3047L79.1593 27.6695C79.0834 27.6066 79.07 27.4917 79.1292 27.4099C79.1883 27.3293 79.2967 27.3139 79.3726 27.3779L80.1442 28.0131C80.2202 28.0759 80.2336 28.1909 80.1744 28.2727C80.1286 28.3343 80.0527 28.358 79.9868 28.3355Z" fill="#333149"/>
<path d="M87.2643 32.5082C86.8489 33.1908 86.0962 33.6055 85.2844 33.5095C84.4725 33.4147 83.8226 32.8352 83.5568 32.0732L87.2643 32.507V32.5082Z" fill="#DD917C"/>
<path d="M89.2565 35.2171C88.3385 36.7257 86.6735 37.643 84.8768 37.4332C83.08 37.2223 81.6428 35.9424 81.0565 34.2584L89.2565 35.2183V35.2171Z" fill="white"/>
<path d="M89.0724 29.8736C88.9808 30.7577 89.5816 31.5528 90.4135 31.65C91.2466 31.7472 91.9959 31.1096 92.0875 30.2268C92.179 29.3427 91.5782 28.5475 90.7463 28.4503C89.9132 28.3532 89.1639 28.9907 89.0724 29.8736Z" fill="#333149"/>
<path d="M90.4525 29.5572C90.4179 29.8937 90.6468 30.1971 90.964 30.235C91.2811 30.2718 91.567 30.0288 91.6027 29.6923C91.6374 29.3557 91.4084 29.0523 91.0913 29.0144C90.7741 28.9777 90.4883 29.2206 90.4525 29.5572Z" fill="white"/>
<path d="M79.3168 28.7324C79.2252 29.6164 79.826 30.4116 80.6579 30.5088C81.491 30.606 82.2403 29.9684 82.3318 29.0855C82.4234 28.2015 81.8226 27.4063 80.9907 27.3091C80.1576 27.2119 79.4083 27.8495 79.3168 28.7324Z" fill="#333149"/>
<path d="M80.6981 28.4159C80.6635 28.7525 80.8924 29.0559 81.2096 29.0938C81.5267 29.1305 81.8126 28.8876 81.8483 28.551C81.883 28.2145 81.654 27.9111 81.3369 27.8732C81.0198 27.8364 80.7339 28.0794 80.6981 28.4159Z" fill="white"/>
<path d="M88.7194 26.6645C88.8523 26.6799 88.9908 26.642 89.1025 26.546C90.1209 25.6797 91.6128 25.8539 92.4291 26.9347C92.6089 27.1741 92.9372 27.212 93.1617 27.0212C93.3861 26.8304 93.423 26.482 93.2421 26.2426C92.0662 24.6866 89.9165 24.4342 88.4492 25.6821C88.2247 25.8729 88.1879 26.2213 88.3688 26.4607C88.4592 26.5803 88.5866 26.6491 88.7183 26.6645H88.7194ZM83.0243 25.9985C82.8914 25.9831 82.7641 25.9131 82.6747 25.7946C81.8584 24.7139 80.3665 24.5397 79.3481 25.4059C79.1236 25.5967 78.7953 25.5588 78.6155 25.3206C78.4357 25.0824 78.4715 24.734 78.6959 24.5432C80.1633 23.2953 82.3129 23.5477 83.4888 25.1037C83.6686 25.3419 83.6329 25.6904 83.4084 25.8812C83.2956 25.9771 83.1583 26.0151 83.0254 25.9997L83.0243 25.9985Z" fill="#333149"/>
<path d="M98.1365 69.9481C95.8517 70.492 93.5636 70.863 91.2665 71.0123C88.9706 71.1533 86.6724 71.0905 84.3966 70.8061C82.1208 70.524 79.8717 70.0228 77.6685 69.3224C75.4663 68.6137 73.32 67.6941 71.2151 66.6062C73.0744 68.1207 75.1749 69.3141 77.3826 70.2076C79.5892 71.1107 81.9119 71.7044 84.2659 71.9971C86.6199 72.2874 89.0097 72.2791 91.3525 71.9402C93.6942 71.6096 95.998 70.9649 98.1365 69.9481Z" fill="#C63F95"/>
<path d="M96.8367 67.0245C95.4196 67.5922 93.9924 67.9726 92.5452 68.1883C91.0991 68.4051 89.6395 68.4656 88.1789 68.4217C86.6959 68.3767 85.2219 68.3115 83.7501 68.1741C82.276 68.0425 80.8064 67.8268 79.3056 67.6017C80.6691 68.3056 82.132 68.7867 83.6228 69.1067C85.1158 69.4255 86.6356 69.5748 88.1465 69.6198C89.6786 69.6661 91.2275 69.5167 92.7194 69.1103C94.2068 68.7014 95.6474 68.0307 96.8367 67.0245Z" fill="#C63F95"/>
<path d="M36.5674 74.1088C36.0616 73.8268 35.779 73.2437 35.5613 72.6844C34.8645 70.8937 34.4993 68.9585 34.4915 67.0209C34.4892 66.5599 34.5094 66.093 34.6333 65.6522C34.7014 65.4092 34.8086 65.177 34.9482 64.9719C35.8081 64.9589 36.7863 65.4377 37.4117 65.8856C38.6892 66.8005 38.6311 68.5461 38.5373 70.0322C38.4736 71.0454 38.286 72.0515 37.9778 73.0126C37.8338 73.4642 37.6249 73.9334 37.3279 74.2819C37.0632 74.289 36.8008 74.2404 36.5674 74.11V74.1088Z" fill="#333149"/>
<path d="M34.2936 72.5481C33.781 70.8973 33.4493 69.1849 33.3064 67.4547C33.2662 66.9629 33.2439 66.4474 33.4348 65.9982C33.752 65.2528 34.3181 64.9826 34.9479 64.9731C34.8084 65.1782 34.7012 65.4104 34.633 65.6534C34.5091 66.0954 34.489 66.5611 34.4912 67.0221C34.499 68.9597 34.8642 70.8949 35.561 72.6856C35.7788 73.2461 36.0613 73.8292 36.5672 74.11C36.8005 74.2404 37.063 74.2878 37.3276 74.2819C37.1199 74.5248 36.8698 74.7109 36.5616 74.7796C36.0077 74.904 35.427 74.6007 35.0518 74.1491C34.6766 73.6976 34.47 73.1205 34.2936 72.5493V72.5481Z" fill="white"/>
<path d="M40.7973 66.0541C40.5684 65.5587 40.364 65.0444 40.2836 64.4993C40.2211 64.0738 40.2434 63.6283 40.3786 63.2265C43.8348 61.4489 47.8214 60.8149 51.6025 61.552C51.8728 62.2429 52.2256 62.935 52.3094 63.678C52.3932 64.4211 52.2647 65.2234 51.8091 65.7946C51.224 66.5281 50.2524 66.7296 49.3591 66.886C47.0587 67.2901 44.7583 67.6931 42.4579 68.0972C42.2993 68.0189 42.1485 67.9218 42.0123 67.8104C41.4662 67.3624 41.1022 66.7118 40.7984 66.0541H40.7973Z" fill="#EBAE90"/>
<path d="M36.3775 66.0326C37.5813 64.9056 38.9347 63.9682 40.3775 63.2263C40.2424 63.6292 40.2201 64.0748 40.2826 64.4991C40.363 65.0442 40.5673 65.5585 40.7963 66.0539C41.1 66.7116 41.4641 67.3622 42.0101 67.8102C42.1464 67.9216 42.2971 68.0187 42.4557 68.097C40.8342 68.3814 39.2117 68.6658 37.5902 68.9514C36.1486 68.3636 35.9074 66.695 36.3764 66.0326H36.3775Z" fill="white"/>
<path d="M14.4532 71.3179C14.0489 70.8901 13.9406 70.2455 13.8881 69.6423C13.7195 67.713 13.9082 65.7493 14.4386 63.8959C14.5648 63.455 14.7134 63.0153 14.9546 62.6326C15.0874 62.4216 15.255 62.2332 15.4448 62.0803C16.27 62.3375 17.0718 63.1007 17.5453 63.724C18.5124 64.998 17.9719 66.6476 17.4683 68.0377C17.1254 68.9869 16.6676 69.8888 16.1059 70.7112C15.8423 71.0963 15.5129 71.4803 15.1321 71.7197C14.8775 71.6438 14.6396 71.5159 14.4532 71.3179Z" fill="#333149"/>
<path d="M12.7157 69.1149C12.6845 67.3776 12.843 65.6367 13.187 63.9385C13.2852 63.4562 13.407 62.9561 13.7141 62.5864C14.2244 61.9737 14.8408 61.8919 15.4449 62.0803C15.2551 62.2332 15.0876 62.4216 14.9547 62.6326C14.7135 63.0154 14.565 63.455 14.4388 63.8959C13.9072 65.7493 13.7196 67.713 13.8883 69.6423C13.9407 70.2455 14.048 70.8913 14.4533 71.318C14.6409 71.5159 14.8777 71.6439 15.1323 71.7197C14.8654 71.8868 14.575 71.9852 14.2624 71.9555C13.6984 71.901 13.2283 71.4294 12.9949 70.8819C12.7615 70.3332 12.7247 69.7169 12.7146 69.1149H12.7157Z" fill="white"/>
<path d="M20.7336 64.9446C20.6521 64.3995 20.5996 63.8437 20.6744 63.2986C20.7325 62.8731 20.8777 62.4536 21.1189 62.1111C24.9157 61.4937 28.9012 62.1348 32.3093 64.0238C32.3752 64.7692 32.5204 65.5407 32.3942 66.2766C32.268 67.0126 31.923 67.739 31.3278 68.1419C30.5651 68.6598 29.5812 68.5484 28.6834 68.4192C26.373 68.0851 24.0625 67.7509 21.7521 67.4179C21.6225 67.2934 21.5053 67.1536 21.4059 67.0043C21.0083 66.4046 20.8419 65.6699 20.7336 64.9458V64.9446Z" fill="#EBAE90"/>
<path d="M16.5158 63.5404C17.9798 62.84 19.532 62.3683 21.1177 62.11C20.8776 62.4525 20.7324 62.8708 20.6732 63.2974C20.5984 63.8437 20.6509 64.3995 20.7324 64.9435C20.8407 65.6676 21.0071 66.4035 21.4047 67.002C21.5041 67.1513 21.6213 67.2911 21.7509 67.4155C20.1227 67.1797 18.4934 66.9451 16.8642 66.7092C15.6503 65.696 15.8826 64.0262 16.5147 63.5392L16.5158 63.5404Z" fill="white"/>
<path d="M48.7941 43.8789C52.0549 49.2591 53.2408 60.362 53.2408 60.362C49.8182 65.3085 40.9046 64.7563 40.9046 64.7563L40.4345 56.1776L39.3893 56.4288L38.5607 65.1723C29.6271 68.8436 26.3753 64.4873 26.3753 64.4873L27.5735 49.764L48.793 43.8801L48.7941 43.8789Z" fill="#333149"/>
<path d="M20.2232 36.7815L6.84963 36.4982C6.26894 37.2946 5.6972 38.1325 5.11651 38.9288C4.96129 39.1421 4.79937 39.3614 4.57379 39.4846C4.34822 39.6079 4.04002 39.6055 3.87028 39.4064C3.75191 39.2678 3.72399 39.0627 3.75526 38.8779C3.78652 38.6942 3.86916 38.5247 3.95068 38.3588C4.18853 37.8741 4.42751 37.3894 4.66536 36.9047C3.3577 36.7957 2.09026 36.3774 0.808281 36.0847C0.606155 36.0384 0.397331 35.9863 0.230942 35.8548C0.0645523 35.7232 -0.04599 35.4886 0.0187759 35.28C0.0723801 35.1093 0.232071 34.9956 0.396225 34.9541C0.561493 34.9126 0.733459 34.9328 0.902077 34.9517C1.57657 35.0299 2.25105 35.1093 2.92442 35.1876C2.11147 34.9292 1.43362 34.6436 0.621788 34.3853C0.399559 34.3142 0.149429 34.217 0.0690231 33.9859C-0.0203094 33.7299 0.168411 33.4408 0.407387 33.34C0.646362 33.2393 0.914368 33.2749 1.16898 33.314C1.88813 33.4265 2.60617 33.5545 3.32086 33.6991C2.79601 33.5557 2.29908 33.3827 1.82895 33.0947C1.65139 32.9857 1.46266 32.8411 1.4314 32.6266C1.39342 32.373 1.60784 32.1384 1.84347 32.0768C2.07909 32.0151 2.32587 32.0803 2.56038 32.1455L4.35604 32.6432C4.25665 32.4666 4.06793 32.2936 3.91048 32.1739C3.75303 32.0554 3.59445 31.9168 3.5308 31.7236C3.46714 31.5304 3.54308 31.2721 3.72957 31.2188C3.86916 31.1785 4.01098 31.2614 4.13494 31.3408C4.90881 31.8374 5.80887 32.4998 6.58274 32.9964L19.5063 31.5186L20.2232 36.7827V36.7815ZM59.6662 17.6722L48.1419 24.0526L50.2982 28.8534L61.2754 20.7427C62.1743 21.0639 63.0878 21.4242 63.9879 21.7441C64.228 21.8295 64.4781 21.9171 64.7305 21.8863C64.9828 21.8555 65.2375 21.673 65.2743 21.4064C65.3 21.2215 65.2162 21.0343 65.0945 20.8992C64.9728 20.7641 64.8153 20.6716 64.6601 20.5816C64.209 20.3185 63.7567 20.0554 63.3056 19.7923C64.3363 18.932 65.1727 17.8369 66.0861 16.8391C66.2302 16.6815 66.3765 16.5156 66.4457 16.3082C66.515 16.1008 66.4848 15.8401 66.3218 15.705C66.1878 15.5948 65.9957 15.5936 65.8371 15.6564C65.6785 15.7192 65.5457 15.8377 65.415 15.9527C64.8946 16.4149 64.3754 16.8782 63.8561 17.3404C64.3966 16.6471 64.812 16.0108 65.3525 15.3163C65.4999 15.1267 65.6573 14.898 65.6037 14.6586C65.5445 14.3931 65.2363 14.264 64.984 14.3208C64.7327 14.3777 64.5283 14.565 64.3374 14.7487C63.7969 15.2653 63.2676 15.7951 62.7483 16.3355C63.1101 15.9065 63.4329 15.4704 63.673 14.9549C63.7634 14.7593 63.8449 14.5282 63.7589 14.3315C63.6573 14.0981 63.3569 14.0293 63.128 14.117C62.9002 14.2047 62.7293 14.4038 62.5674 14.597C62.1565 15.0876 61.7455 15.5782 61.3346 16.0676C61.3245 15.8626 61.3915 15.6066 61.4608 15.4147C61.5289 15.2239 61.5892 15.0153 61.5412 14.8162C61.4932 14.6183 61.2955 14.4476 61.1124 14.5128C60.975 14.5614 60.9002 14.7143 60.8388 14.8529C60.4535 15.7216 60.0526 16.8024 59.6673 17.671L59.6662 17.6722Z" fill="#EBAE90"/>
<path d="M19.1323 30.7281L19.8659 30.6902L19.9687 30.6843L30.4054 30.1368L34.2457 29.9353L37.6885 28.211L47.1391 23.4778L47.2229 23.4364L47.932 23.082C49.4116 24.913 50.468 27.084 51.0197 29.4233L51.109 29.8026L45.578 33.6896L49.9465 44.6847C49.9465 44.6847 45.473 47.0797 38.7293 48.9509C31.9498 50.6705 26.9403 50.7925 26.9403 50.7925L25.9151 38.9086L19.3109 38.2438L19.2216 37.8646C18.67 35.5253 18.6387 33.0817 19.1323 30.7269V30.7281Z" fill="#01CAFE"/>
<path d="M37.9084 33.0734C34.4042 34.9861 30.2166 35.4424 26.4187 34.3272C24.2623 33.6944 22.1663 32.4916 20.8028 30.6393L30.4064 30.1357L34.2468 29.9342L37.6895 28.2099L45.3792 24.3596C43.9688 28.0807 41.2708 31.239 37.9084 33.0734Z" fill="#006680"/>
<path d="M34.9549 31.8577C33.5623 32.2321 32.0637 32.1196 30.7248 31.5732C30.6768 31.0672 30.7192 30.5683 30.8409 30.0978L34.2469 29.9189L37.2999 28.3901C37.6774 28.8144 37.9733 29.3299 38.1531 29.9153C37.272 30.8468 36.1598 31.5341 34.9537 31.8588L34.9549 31.8577Z" fill="#CD806E"/>
<path d="M34.9548 31.8576C36.1608 31.5329 37.273 30.8455 38.1541 29.9141C38.1809 30.0018 38.2055 30.0918 38.2267 30.1819C38.7382 32.3529 37.4953 34.5524 35.4495 35.0964C33.4037 35.6391 31.3311 34.3202 30.8185 32.1491C30.7727 31.9559 30.7426 31.764 30.7247 31.572C32.0636 32.1195 33.5623 32.2321 34.9548 31.8564V31.8576Z" fill="#DD917C"/>
<path d="M46.1239 40.4611C44.8486 41.4756 43.5466 42.4011 42.1842 43.2022C40.824 44.0069 39.4114 44.6918 37.9552 45.2524C36.4991 45.8129 35.0016 46.2502 33.4717 46.5595C31.9418 46.8724 30.384 47.0489 28.7927 47.1414C30.3572 47.4768 31.9787 47.5242 33.58 47.3594C35.1825 47.1912 36.7682 46.8048 38.2858 46.2182C39.8034 45.6328 41.2529 44.8495 42.584 43.8872C43.9106 42.9225 45.1256 41.7825 46.1239 40.46V40.4611Z" fill="#006680"/>
<path d="M39.2955 43.7545C38.4223 43.8114 37.5669 43.86 36.7137 43.8541C35.8606 43.8517 35.013 43.8043 34.1699 43.7095C33.3268 43.6147 32.4881 43.4736 31.6539 43.2876C30.8175 43.1051 29.9912 42.8693 29.147 42.6216C29.8795 43.1312 30.6869 43.5139 31.5211 43.8078C32.3575 44.0994 33.2251 44.2937 34.1018 44.3909C34.9795 44.4881 35.865 44.4893 36.7405 44.3897C37.6138 44.2854 38.4792 44.0911 39.2955 43.7545Z" fill="#006680"/>
<path d="M18.9457 24.0017C18.4421 24.7104 18.5649 25.7757 19.0853 26.4702C19.6057 27.1646 20.4387 27.5285 21.2673 27.6446C21.7196 27.7086 22.1964 27.7038 22.6141 27.5059C23.0306 27.308 23.3746 26.8826 23.388 26.3979C23.3991 26.0151 23.2104 25.6584 23.0038 25.3432C22.7191 24.9083 22.3863 24.5077 22.0166 24.151C21.771 23.9152 21.4862 23.5964 21.1847 23.4388C20.4722 23.0667 19.4181 23.3369 18.9457 24.0017Z" fill="#DD917C"/>
<path d="M19.4125 24.5953C20.3885 24.4875 21.4025 24.9887 21.953 25.8515C22.0568 26.0138 22.1462 26.1928 22.1685 26.3859C22.1908 26.5803 22.1361 26.7936 21.9943 26.9169C21.8748 27.0211 21.7084 27.0496 21.5554 27.0247C21.4025 26.9998 21.2606 26.9252 21.1277 26.841C20.8698 26.6775 20.6263 26.4571 20.5236 26.1572C20.4209 25.8574 20.5046 25.4699 20.7704 25.3206C20.4979 24.8667 19.9206 24.6048 19.4136 24.5941L19.4125 24.5953Z" fill="#CD806E"/>
<path d="M45.2854 15.7087C46.0269 16.1187 46.3474 17.1367 46.1586 18.0018C45.9699 18.8657 45.3658 19.5744 44.6645 20.0567C44.2815 20.321 43.8493 20.5343 43.3926 20.545C42.9358 20.5556 42.4534 20.3293 42.2446 19.8967C42.0804 19.5554 42.105 19.1478 42.1642 18.7697C42.2457 18.2471 42.3831 17.734 42.574 17.2433C42.7002 16.9186 42.8275 16.5003 43.0363 16.2206C43.5288 15.5605 44.5908 15.3223 45.2865 15.7075L45.2854 15.7087Z" fill="#DD917C"/>
<path d="M45.1045 16.4575C44.1798 16.8047 43.4663 17.7208 43.32 18.7506C43.2921 18.9438 43.2843 19.1464 43.3423 19.3313C43.4004 19.5174 43.5355 19.6845 43.7153 19.7319C43.8661 19.771 44.028 19.7212 44.1553 19.6288C44.2826 19.5363 44.3809 19.4048 44.4668 19.2673C44.6332 19.0019 44.765 18.6914 44.736 18.3738C44.708 18.0562 44.4747 17.7445 44.1743 17.7315C44.2368 17.197 44.6511 16.6981 45.1056 16.4575H45.1045Z" fill="#CD806E"/>
<path d="M17.7318 9.57705C18.7391 7.34082 20.6118 5.63195 22.7146 4.55353C24.8162 3.47512 27.1445 2.98095 29.4661 2.71549C31.0184 2.53773 32.6376 2.35049 34.02 3.1196C33.704 2.72142 33.3891 2.32323 33.0742 1.92505C33.8246 1.98075 34.5025 2.40974 34.9168 3.07575C35.3154 2.40737 36.067 1.99378 36.8107 2.03289C36.3115 2.28057 35.9642 2.82215 35.7308 3.35306C36.4723 2.84348 37.4639 2.88614 38.2702 3.26655C39.0765 3.64696 39.7264 4.32363 40.2959 5.03941C41.5678 6.63689 42.4612 8.49745 42.9894 10.4718C42.8665 10.1767 42.737 9.88517 42.5952 9.59957C41.885 8.17274 40.8855 6.86916 39.5633 6.07161C38.2412 5.27524 36.5706 5.04297 35.1825 5.6995C31.8726 3.75717 27.2283 3.99537 24.0546 6.17945C24.5426 6.0408 25.092 6.44965 25.2807 6.94738C25.4695 7.44511 25.3701 8.02342 25.1345 8.49745C24.8988 8.97148 24.5404 9.36137 24.1864 9.74414C23.6961 10.2739 23.1959 10.8131 22.5761 11.1579C21.9563 11.5028 21.1858 11.626 20.5582 11.299C19.9295 10.9719 19.5409 10.1091 19.8446 9.43958C18.0177 12.0918 17.3578 15.6636 17.9105 18.9403C17.7531 18.5848 17.6146 18.2269 17.5007 17.8666C16.6565 15.1777 16.5805 12.1321 17.7318 9.57468V9.57705Z" fill="#FFCB01"/>
<path d="M19.8448 9.44211C19.5399 10.1105 19.9296 10.9732 20.5583 11.3015C21.1859 11.6286 21.9564 11.5041 22.5762 11.1605C23.196 10.8156 23.6963 10.2764 24.1865 9.74667C24.5405 9.36389 24.899 8.974 25.1346 8.49998C25.3702 8.02595 25.4707 7.44763 25.2809 6.9499C25.0921 6.45217 24.5427 6.04451 24.0547 6.18198C27.2284 3.99908 31.8727 3.75969 35.1826 5.70202C36.5707 5.0455 38.2424 5.27658 39.5635 6.07414C40.8856 6.8705 41.8851 8.17527 42.5953 9.60209C42.7371 9.88769 42.8667 10.1792 42.9895 10.4743C43.7879 13.4583 43.7433 16.7054 42.8454 19.7202L22.2691 25.2877C20.7761 23.4129 18.9268 21.2395 17.9095 18.944C17.3568 15.6673 18.0178 12.0955 19.8436 9.44329L19.8448 9.44211Z" fill="#FFDB4D"/>
<path d="M23.6125 16.5975C25.4439 16.4079 27.2786 15.7324 28.842 14.6979C28.5316 15.3757 28.0391 15.9161 27.4506 16.3262C30.794 15.9197 33.999 14.3246 36.2703 11.6653C37.5757 13.5104 39.167 14.8958 41.042 16.0346C41.3524 17.3951 41.9822 18.6679 42.8455 19.719C42.43 24.6442 39.1402 28.9756 34.3652 30.2436C29.6248 31.5022 24.8353 29.3667 22.2691 25.2877C22.4109 23.7945 22.2937 22.2207 21.9263 20.8164C22.8331 19.6124 23.512 18.15 23.6114 16.5987L23.6125 16.5975Z" fill="#EBAE90"/>
<path d="M26.6298 16.9898C25.6694 17.6226 24.5215 17.9462 23.388 17.9177C23.5053 17.4875 23.5846 17.0467 23.6136 16.5975C25.445 16.4079 27.2797 15.7324 28.8431 14.6979C28.5327 15.3757 28.0402 15.9161 27.4517 16.3262C30.7951 15.9197 34 14.3246 36.2714 11.6653C36.5026 11.9924 36.7449 12.3052 36.9939 12.605C34.4199 15.64 30.4735 17.3489 26.6298 16.9898Z" fill="#DD917C"/>
<path d="M34.3998 22.4231C34.2379 23.1969 33.6817 23.8476 32.9079 24.0526C32.134 24.2588 31.3545 23.9625 30.8677 23.3605L34.3998 22.4231Z" fill="#DD917C"/>
<path d="M37.09 24.1865C36.7315 25.8978 35.5009 27.3376 33.789 27.7915C32.0771 28.2466 30.3529 27.5912 29.2775 26.2604L37.09 24.1865Z" fill="white"/>
<path d="M35.2128 19.362C35.4116 20.2034 36.2156 20.7154 37.0085 20.5056C37.8013 20.2947 38.2837 19.4414 38.0861 18.6C37.8873 17.7586 37.0833 17.2467 36.2904 17.4564C35.4976 17.6674 35.0152 18.5206 35.2128 19.362Z" fill="#333149"/>
<path d="M36.3753 18.5741C36.4513 18.8952 36.7573 19.0907 37.0599 19.0102C37.3625 18.9296 37.5468 18.6049 37.4708 18.2837C37.3949 17.9626 37.0889 17.767 36.7863 17.8476C36.4837 17.9282 36.2994 18.2529 36.3753 18.5741Z" fill="white"/>
<path d="M25.9184 21.8294C26.1171 22.672 26.9212 23.1839 27.714 22.973C28.5069 22.762 28.9893 21.9088 28.7916 21.0674C28.5929 20.2248 27.7888 19.714 26.996 19.9238C26.2031 20.1347 25.7207 20.988 25.9184 21.8294Z" fill="#333149"/>
<path d="M27.0808 21.0412C27.1567 21.3624 27.4627 21.5579 27.7653 21.4773C28.0679 21.3967 28.2522 21.072 28.1763 20.7509C28.1003 20.4297 27.7944 20.2342 27.4917 20.3148C27.1891 20.3954 27.0049 20.7201 27.0808 21.0412Z" fill="white"/>
<path d="M33.8646 16.551C33.9907 16.5178 34.1058 16.4325 34.1772 16.3045C34.8327 15.1455 36.2532 14.7675 37.3464 15.4631C37.5876 15.616 37.9003 15.5342 38.0444 15.2771C38.1895 15.0211 38.1114 14.6893 37.869 14.5364C36.2956 13.535 34.2476 14.079 33.3028 15.7487C33.1577 16.0047 33.2358 16.3365 33.4782 16.4894C33.5988 16.5664 33.7372 16.5842 33.8634 16.5498L33.8646 16.551ZM28.4396 17.9921C28.3134 18.0253 28.175 18.0075 28.0544 17.9316C26.9622 17.2372 25.5407 17.614 24.8852 18.773C24.74 19.029 24.4284 19.112 24.1872 18.9591C23.946 18.8062 23.8679 18.4732 24.0119 18.2184C24.9555 16.5487 27.0047 16.0047 28.5781 17.0061C28.8193 17.159 28.8975 17.4908 28.7534 17.7468C28.6808 17.8747 28.5669 17.9589 28.4407 17.9933L28.4396 17.9921Z" fill="#333149"/>
</g>
</svg>
