<svg width="188" height="192" viewBox="0 0 188 192" fill="none" xmlns="http://www.w3.org/2000/svg">
<g clip-path="url(#clip0_21_82)">
<path d="M183.164 176.551C183.164 168.02 142.726 161.103 92.8432 161.103C42.9603 161.103 2.52229 168.02 2.52229 176.551C2.52229 185.083 42.9603 192 92.8432 192C142.726 192 183.164 185.083 183.164 176.551Z" fill="#31DB9D"/>
<path d="M84.6541 167.368C52.9771 160.699 28.8389 137.265 14.8469 99.5998C4.88038 72.7691 3.52697 47.9406 3.47384 46.8975L2.92996 36.158L87.6257 6.22693L172.32 36.158L171.777 46.8975C171.722 47.9406 170.369 72.7691 160.402 99.5998C146.411 137.266 122.272 160.699 90.5962 167.368L87.6247 167.994L84.6532 167.368H84.6541Z" fill="#74309D"/>
<path d="M154.711 47.7436L87.6266 24.0355L20.5417 47.7436C20.5417 47.7436 25.0849 137.576 87.6266 150.744C150.167 137.576 154.711 47.7436 154.711 47.7436Z" fill="#AD49EB"/>
<path d="M87.4595 141.608L118.219 137.214H145.26L169.428 141.946L127.852 162.899L87.4595 141.608Z" fill="#006680"/>
<path d="M143.926 163.744C143.926 163.744 89.5055 133.835 83.0834 143.635C73.8056 157.794 87.9841 164.926 138.517 178.445L143.926 163.744Z" fill="#006680"/>
<path d="M158.925 178.69C160.273 175.436 158.727 171.706 155.473 170.359L142.907 165.156L138.026 176.939L150.592 182.141C153.847 183.489 157.578 181.943 158.925 178.689V178.69Z" fill="#01CAFE"/>
<path d="M142.113 167.057L151.62 170.992C153.824 171.905 154.88 174.431 153.968 176.635C153.056 178.838 150.517 179.89 148.314 178.977L138.806 175.041L142.113 167.057Z" fill="#489AFF"/>
<path d="M138.849 174.953L151.415 180.156C154.33 181.362 157.612 180.238 159.236 177.655C159.157 178.003 159.065 178.349 158.925 178.69C157.578 181.944 153.847 183.49 150.592 182.142L138.026 176.94L138.849 174.953Z" fill="#053172" fill-opacity="0.45098"/>
<path d="M143.009 175.15L145.017 170.3C145.119 170.056 145.401 169.939 145.645 170.04C145.889 170.141 146.007 170.424 145.905 170.668L143.896 175.518C143.795 175.763 143.513 175.88 143.269 175.778C143.025 175.678 142.908 175.395 143.009 175.151V175.15ZM145.967 176.375L147.976 171.525C148.078 171.281 148.36 171.163 148.604 171.265C148.849 171.366 148.966 171.648 148.864 171.893L146.855 176.743C146.754 176.987 146.472 177.104 146.228 177.003C145.983 176.902 145.867 176.62 145.968 176.375H145.967ZM149.222 177.723L151.231 172.872C151.332 172.629 151.614 172.511 151.859 172.612C152.102 172.713 152.22 172.996 152.119 173.24L150.109 178.091C150.009 178.335 149.727 178.452 149.482 178.35C149.238 178.249 149.121 177.967 149.223 177.723H149.222Z" fill="#E6E6E6"/>
<path d="M163.642 123.322C162.804 120.448 158.639 115.58 154.938 105.598C151.088 95.2186 134.683 94.1011 134.683 94.1011L128.315 97.5086L121.946 94.1011C121.946 94.1011 105.542 95.2186 101.692 105.598C97.9892 115.58 93.8247 120.448 92.9881 123.322C92.1505 126.197 96.6706 144.799 109.643 147.433H146.987C159.96 144.798 164.478 126.197 163.642 123.322Z" fill="#F03F6D"/>
<path d="M135.394 94.1687V99.2714C135.394 99.2714 134.215 104.968 128.665 105.916C122.88 104.624 121.985 99.2714 121.985 99.2714V94.1687H135.394Z" fill="#F49190"/>
<path d="M115.935 84.1479C115.935 84.1479 114.037 72.2253 118.573 70.7755C119.81 70.3805 118.906 66.4436 125.812 66.3953C135.239 66.3287 142.669 65.0615 141.432 84.3121L115.935 84.1479Z" fill="#404040"/>
<path d="M121.912 85.4644C121.912 83.6659 120.454 82.2084 118.655 82.2084C116.855 82.2084 115.397 83.6659 115.397 85.4644C115.397 87.2638 116.856 88.7212 118.655 88.7212C120.453 88.7212 121.912 87.2638 121.912 85.4644ZM141.754 85.4644C141.754 83.6659 140.296 82.2084 138.497 82.2084C136.698 82.2084 135.239 83.6659 135.239 85.4644C135.239 87.2638 136.698 88.7212 138.497 88.7212C140.296 88.7212 141.754 87.2638 141.754 85.4644Z" fill="#FFB5B1"/>
<path d="M139.345 79.7605L139.328 79.7547V79.7528H139.321C139.189 79.7112 136.59 78.8468 136.092 75.4286L134.666 75.8294C130.722 76.9276 126.523 76.888 122.602 75.7145L121.464 75.4286C120.967 78.841 118.24 79.7074 118.093 79.7518C118.089 79.7518 118.066 79.7528 118.066 79.7528L117.976 85.0312C117.976 88.1026 119.272 91.8357 121.349 94.7082C123.038 97.0446 125.772 98.3978 128.654 98.3978C131.538 98.3978 134.272 97.0446 135.96 94.7082C138.036 91.8357 139.333 88.1026 139.333 85.0312L139.329 79.7759L139.346 79.7614L139.345 79.7605Z" fill="#FFB5B1"/>
<path d="M145.807 123.64H111.484C109.575 123.64 108.026 125.188 108.026 127.098V147.671C108.026 149.579 109.575 151.128 111.484 151.128H145.807C147.717 151.128 149.264 149.579 149.264 147.671V127.098C149.264 125.188 147.717 123.64 145.807 123.64Z" fill="#D1EBFF"/>
<path d="M132.8 137.102C132.8 134.738 130.883 132.822 128.519 132.822C126.154 132.822 124.237 134.738 124.237 137.102C124.237 139.467 126.154 141.383 128.519 141.383C130.883 141.383 132.8 139.467 132.8 137.102Z" fill="#01CAFE"/>
<path d="M111.628 163.744C111.628 163.744 166.048 133.835 172.47 143.635C181.748 157.794 167.568 164.926 117.035 178.445L111.628 163.744Z" fill="#006680"/>
<path d="M96.6281 178.69C95.2805 175.436 96.8261 171.706 100.081 170.359L112.647 165.156L117.527 176.939L104.961 182.141C101.707 183.489 97.9757 181.943 96.6281 178.689V178.69Z" fill="#01CAFE"/>
<path d="M116.747 175.041L107.239 178.977C105.034 179.89 102.498 178.838 101.585 176.635C100.673 174.431 101.729 171.905 103.932 170.992L113.44 167.057L116.746 175.041H116.747Z" fill="#489AFF"/>
<path d="M116.704 174.953L104.138 180.156C101.223 181.362 97.9419 180.238 96.317 177.655C96.3953 178.003 96.487 178.349 96.6281 178.69C97.9757 181.944 101.707 183.49 104.961 182.142L117.527 176.94L116.704 174.953Z" fill="#053172" fill-opacity="0.45098"/>
<path d="M112.543 175.15L110.535 170.3C110.434 170.056 110.152 169.939 109.907 170.04C109.663 170.141 109.546 170.424 109.647 170.668L111.657 175.518C111.758 175.763 112.04 175.88 112.285 175.778C112.528 175.678 112.645 175.395 112.544 175.151L112.543 175.15ZM109.585 176.375L107.577 171.525C107.476 171.281 107.194 171.163 106.95 171.265C106.706 171.366 106.589 171.648 106.689 171.893L108.699 176.743C108.799 176.987 109.082 177.104 109.326 177.003C109.57 176.902 109.687 176.62 109.585 176.375ZM106.332 177.723L104.323 172.872C104.221 172.629 103.939 172.511 103.695 172.612C103.451 172.713 103.333 172.996 103.435 173.24L105.444 178.091C105.545 178.335 105.828 178.452 106.071 178.35C106.315 178.249 106.432 177.967 106.331 177.723H106.332Z" fill="#E6E6E6"/>
<path d="M28.5916 141.989C28.5916 141.989 14.1755 118.976 18.6357 115.641C23.0978 112.306 27.4729 125.854 29.7556 123.681C32.0384 121.507 21.8023 102.156 26.6363 97.9935C31.4694 93.8316 31.1081 107.963 35.2137 110.589C39.3184 113.215 32.9918 91.332 37.9041 87.9128C42.8173 84.4946 45.1812 95.3789 45.1812 95.3789C45.1812 95.3789 50.6267 73.7108 57.9511 77.9586C65.2756 82.2065 46.722 104.023 51.0788 103.276C55.4346 102.528 59.9093 95.1635 63.6884 100.126C67.4665 105.089 42.7198 117.721 46.6872 117.396C50.6547 117.07 57.6836 112.151 58.9036 116.536C60.1237 120.921 38.8228 128.832 41.0292 130.349C43.2366 131.866 54.371 123.269 56.1263 129.598C57.8816 135.927 33.0131 146.014 28.5906 141.989H28.5916Z" fill="#31DB9D"/>
<path d="M26.8411 150.973C29.5286 146.49 31.7717 141.622 33.5087 136.504C34.4206 133.818 35.2002 131.04 35.9537 128.352C36.2976 127.127 36.6405 125.903 36.997 124.683C40.9732 111.07 46.5858 97.9404 53.6813 85.6585L53.9624 85.8208C46.8804 98.0805 41.2775 111.186 37.309 124.774C36.9526 125.993 36.6096 127.216 36.2667 128.438C35.5122 131.13 34.7317 133.914 33.8168 136.608C32.0712 141.747 29.8184 146.635 27.1193 151.139L26.8411 150.972V150.973Z" fill="#D1EBFF"/>
<path d="M42.57 108.391C42.542 108.372 42.5188 108.343 42.5072 108.307C40.8843 103.356 39.7878 98.2176 39.2478 93.0357C39.2391 92.9469 39.3039 92.8677 39.3927 92.858C39.4816 92.8493 39.5618 92.9131 39.5705 93.0029C40.1086 98.1616 41.2002 103.277 42.8154 108.207C42.8434 108.292 42.797 108.383 42.7111 108.411C42.6608 108.428 42.6087 108.418 42.569 108.391H42.57ZM40.5433 114.368C40.5288 114.357 40.5153 114.346 40.5037 114.33C40.4505 114.258 40.466 114.156 40.5394 114.103C45.0083 110.839 49.6298 107.465 54.5836 104.766C55.4926 104.272 56.4692 103.767 57.5338 103.509C57.6217 103.488 57.7087 103.541 57.7299 103.628C57.7512 103.715 57.6971 103.803 57.6101 103.824C56.5832 104.073 55.6288 104.567 54.7391 105.051C49.8036 107.738 45.1909 111.107 40.7307 114.365C40.6737 114.406 40.5983 114.405 40.5433 114.368ZM37.3148 124.176C37.2984 124.165 37.2829 124.149 37.2713 124.133C35.3857 121.297 33.0025 117.515 31.2839 113.411C30.1131 110.613 29.2427 107.657 28.4003 104.8C28.3752 104.714 28.4235 104.624 28.5104 104.598C28.5964 104.573 28.6872 104.621 28.7114 104.708C29.5508 107.557 30.4193 110.503 31.5834 113.285C33.2913 117.364 35.6648 121.129 37.5418 123.952C37.5911 124.027 37.5708 124.127 37.4964 124.177C37.4394 124.215 37.3679 124.213 37.3148 124.176Z" fill="#D1EBFF"/>
<path d="M37.2665 124.323C37.2076 124.281 37.1806 124.205 37.2057 124.135C37.2356 124.051 37.3293 124.006 37.4134 124.037C37.8713 124.203 38.3842 124.139 38.8692 124.046C40.1859 123.794 41.4746 123.315 42.7198 122.852C42.9516 122.766 43.1844 122.68 43.4172 122.595C47.0997 121.251 50.9445 120.225 54.6618 119.233C54.7488 119.21 54.8367 119.262 54.8608 119.348C54.884 119.435 54.8318 119.524 54.7459 119.547C51.0354 120.537 47.1973 121.561 43.5293 122.9C43.2965 122.985 43.0656 123.07 42.8338 123.157C41.576 123.625 40.2757 124.109 38.931 124.366C38.4248 124.463 37.8365 124.536 37.3032 124.343C37.2907 124.337 37.2781 124.332 37.2665 124.324V124.323ZM33.3203 137.261C29.0118 134.298 24.0735 126.316 21.1532 120.379C21.1135 120.299 21.1474 120.202 21.2275 120.162C21.3077 120.121 21.4043 120.155 21.4449 120.236C24.3478 126.137 29.2485 134.066 33.5048 136.992C33.5782 137.043 33.5975 137.145 33.5463 137.218C33.4961 137.292 33.3947 137.311 33.3203 137.26V137.261Z" fill="#D1EBFF"/>
<path d="M33.5985 137.385C33.5599 137.359 33.5222 137.33 33.4855 137.3C33.4159 137.243 33.4063 137.141 33.4633 137.071C33.5193 137.003 33.6294 136.994 33.6912 137.049C34.3008 137.542 35.2137 137.388 36.1131 137.142L51.8381 132.836C51.9251 132.813 52.0139 132.864 52.0371 132.949C52.0603 133.036 52.0101 133.125 51.9231 133.149L36.1971 137.455C35.2649 137.711 34.3085 137.875 33.5975 137.385H33.5985Z" fill="#D1EBFF"/>
<path d="M26.6769 141.566C26.6769 141.566 1.72242 130.758 3.51151 125.474C5.29963 120.192 16.5983 128.888 17.2485 125.799C17.8996 122.711 -1.52827 112.552 0.0975614 106.375C1.72339 100.199 9.44486 112.065 14.3223 111.902C19.1998 111.739 1.5611 97.273 3.67477 91.6652C5.78748 86.0574 13.9166 93.6974 13.9166 93.6974C13.9166 93.6974 6.11303 72.7295 14.5668 72.0794C23.0205 71.4294 20.0944 99.9552 23.2649 96.8673C26.4354 93.7795 25.9475 85.164 31.8809 87.115C37.8152 89.0661 24.5652 113.528 27.6536 111.009C30.7429 108.49 33.7502 100.443 37.2453 103.37C40.7404 106.295 27.6536 124.906 30.3362 124.906C33.0179 124.906 37.3274 111.496 42.3662 115.723C47.406 119.95 32.6122 142.38 26.6779 141.567L26.6769 141.566Z" fill="#006680"/>
<path d="M30.3324 149.972C30.0049 144.748 29.0939 139.459 27.6236 134.252C26.8518 131.519 25.9176 128.783 25.0144 126.139C24.6028 124.933 24.1913 123.729 23.7933 122.521C19.3476 109.033 16.5278 95.0158 15.412 80.8572L15.7357 80.8321C16.8495 94.9646 19.6645 108.957 24.1015 122.419C24.4995 123.628 24.911 124.831 25.3216 126.034C26.2258 128.684 27.1619 131.424 27.9366 134.164C29.4127 139.394 30.3285 144.707 30.6569 149.953L30.3324 149.973V149.972Z" fill="#D1EBFF"/>
<path d="M19.1448 105.916C19.11 105.916 19.0752 105.905 19.0462 105.883C14.8981 102.718 11.0775 99.1004 7.69056 95.1307C7.6326 95.0622 7.64033 94.9598 7.70892 94.9018C7.77751 94.8439 7.87991 94.8516 7.93883 94.9202C11.3103 98.8715 15.1145 102.473 19.2443 105.624C19.3158 105.678 19.3293 105.78 19.2742 105.852C19.2423 105.893 19.194 105.916 19.1448 105.916ZM20.8643 111.997C20.846 111.997 20.8286 111.994 20.8102 111.988C20.7262 111.958 20.6808 111.865 20.7107 111.78C22.5462 106.552 24.4435 101.145 27.0005 96.1091C27.47 95.1858 27.9888 94.2151 28.721 93.398C28.7819 93.3313 28.8843 93.3255 28.9509 93.3854C29.0176 93.4453 29.0234 93.5486 28.9635 93.6153C28.2573 94.4025 27.7502 95.3519 27.2913 96.2569C24.7439 101.274 22.8505 106.67 21.0189 111.888C20.9957 111.955 20.9319 111.998 20.8653 111.998L20.8643 111.997ZM23.7663 121.921C23.746 121.921 23.7257 121.917 23.7054 121.909C20.5407 120.639 16.4273 118.872 12.6801 116.459C10.1259 114.814 7.73114 112.871 5.4146 110.989C5.34504 110.933 5.33442 110.831 5.39141 110.761C5.44744 110.692 5.55081 110.681 5.6194 110.738C7.92917 112.613 10.3182 114.551 12.8569 116.187C16.5809 118.584 20.6759 120.343 23.8271 121.608C23.9102 121.642 23.9508 121.736 23.917 121.819C23.8918 121.883 23.831 121.922 23.7663 121.922V121.921Z" fill="#D1EBFF"/>
<path d="M23.8107 122.07C23.7382 122.07 23.6726 122.021 23.6532 121.949C23.63 121.861 23.6822 121.773 23.7692 121.75C24.2406 121.627 24.628 121.284 24.9757 120.932C25.9186 119.977 26.7098 118.85 27.4748 117.762C27.6178 117.559 27.7598 117.356 27.9038 117.154C30.1797 113.955 32.7697 110.928 35.2736 108.001C35.3325 107.933 35.4349 107.926 35.5026 107.983C35.5711 108.041 35.5789 108.144 35.5209 108.211C33.0208 111.134 30.4357 114.155 28.1685 117.341C28.0255 117.543 27.8825 117.745 27.7405 117.947C26.9677 119.047 26.1688 120.183 25.2056 121.159C24.8434 121.526 24.399 121.92 23.8493 122.064C23.8358 122.068 23.8213 122.069 23.8088 122.069L23.8107 122.07ZM27.896 134.983C22.6602 134.983 14.0548 131.198 8.27694 127.958C8.19869 127.913 8.17068 127.815 8.21415 127.736C8.25762 127.657 8.35712 127.63 8.43634 127.674C14.1794 130.895 22.7229 134.658 27.896 134.658C27.9859 134.658 28.0593 134.731 28.0593 134.82C28.0593 134.91 27.9868 134.982 27.896 134.982V134.983Z" fill="#D1EBFF"/>
<path d="M28.1965 134.928C28.1501 134.928 28.1028 134.925 28.0554 134.921C27.9656 134.914 27.8999 134.835 27.9067 134.746C27.9144 134.657 28.0004 134.587 28.0825 134.597C28.865 134.658 29.5315 134.012 30.1334 133.3L40.665 120.826C40.7239 120.757 40.8263 120.748 40.894 120.806C40.9626 120.865 40.9712 120.968 40.9133 121.035L30.3816 133.509C29.7576 134.249 29.0611 134.927 28.1965 134.927V134.928ZM15.6323 145.416L19.6172 170.073C20.1823 173.569 23.2011 176.14 26.7436 176.14H38.8846C42.4271 176.14 45.4459 173.569 46.011 170.073L49.9959 145.416H15.6323Z" fill="#D1EBFF"/>
<path d="M49.9969 145.416H15.6323L16.1849 148.833H42.6763L39.244 170.073C38.6789 173.569 35.66 176.14 32.1176 176.14H38.8856C42.428 176.14 45.4469 173.569 46.012 170.073L49.4453 148.833L49.9969 145.416Z" fill="#ACCFE4"/>
<path d="M50.3794 138.323H15.2488C13.2732 138.323 11.658 139.939 11.658 141.913C11.658 143.887 13.2732 145.503 15.2488 145.503H50.3794C52.354 145.503 53.9701 143.887 53.9701 141.913C53.9701 139.939 52.354 138.323 50.3794 138.323Z" fill="#D1EBFF"/>
<path d="M184.356 35.5051H113.619C111.615 35.5051 109.975 37.1442 109.975 39.1474V55.9582C109.975 57.9614 111.614 59.6015 113.619 59.6015H184.356C186.36 59.6015 188 57.9624 188 55.9582V39.1474C188 37.1442 186.361 35.5051 184.356 35.5051Z" fill="#FFCB01"/>
<path d="M126.866 55.9805H117.145C116.309 55.9805 115.631 55.3024 115.631 54.466V47.816C115.631 46.9796 116.309 46.3025 117.145 46.3025H126.866C127.701 46.3025 128.38 46.9806 128.38 47.816V54.466C128.38 55.3024 127.702 55.9805 126.866 55.9805ZM126.415 45.2072H125.213V43.3035C125.213 41.535 123.773 40.0959 122.006 40.0959C120.237 40.0959 118.797 41.535 118.797 43.3035V45.2072H117.596V43.3035C117.596 40.8724 119.574 38.8943 122.006 38.8943C124.437 38.8943 126.416 40.8724 126.416 43.3035V45.2072H126.415Z" fill="#404040"/>
<path d="M123.35 49.8646C123.35 49.1219 122.748 48.5201 122.005 48.5201C121.262 48.5201 120.66 49.1219 120.66 49.8646C120.66 50.3649 120.936 50.7967 121.342 51.0285L120.877 53.6778H123.133L122.668 51.0285C123.073 50.7967 123.35 50.3649 123.35 49.8646Z" fill="#FFAA44"/>
<path d="M144.711 48.2748C144.711 49.4927 143.724 50.4798 142.506 50.4798C141.288 50.4798 140.3 49.4927 140.3 48.2748C140.3 47.0568 141.288 46.0687 142.506 46.0687C143.724 46.0687 144.711 47.0558 144.711 48.2748ZM153.132 48.2748C153.132 49.4927 152.144 50.4798 150.926 50.4798C149.708 50.4798 148.72 49.4927 148.72 48.2748C148.72 47.0568 149.708 46.0687 150.926 46.0687C152.144 46.0687 153.132 47.0558 153.132 48.2748ZM161.552 48.2748C161.552 49.4927 160.565 50.4798 159.347 50.4798C158.127 50.4798 157.14 49.4927 157.14 48.2748C157.14 47.0568 158.127 46.0687 159.347 46.0687C160.565 46.0687 161.552 47.0558 161.552 48.2748ZM169.973 48.2748C169.973 49.4927 168.986 50.4798 167.766 50.4798C166.548 50.4798 165.561 49.4927 165.561 48.2748C165.561 47.0568 166.548 46.0687 167.766 46.0687C168.985 46.0687 169.973 47.0558 169.973 48.2748ZM178.393 48.2748C178.393 49.4927 177.405 50.4798 176.186 50.4798C174.968 50.4798 173.98 49.4927 173.98 48.2748C173.98 47.0568 174.967 46.0687 176.186 46.0687C177.405 46.0687 178.393 47.0558 178.393 48.2748Z" fill="#404040"/>
<path d="M71.9682 3.76107V33.1272C71.9682 35.1912 70.2709 36.8892 68.2065 36.8892H14.531C12.4541 36.8892 10.7577 35.1922 10.7577 33.1272V3.76107C10.7577 1.69702 12.455 0 14.531 0H68.2065C70.2709 0 71.9682 1.69605 71.9682 3.76107Z" fill="#F288A4"/>
<path d="M71.9682 10.2874V18.5929H10.7567V10.2874H71.9682ZM67.225 23.4174H51.9956C51.2314 23.4174 50.6112 24.0365 50.6112 24.8014C50.6112 25.5654 51.2314 26.1855 51.9956 26.1855H67.225C67.9892 26.1855 68.6093 25.5654 68.6093 24.8014C68.6093 24.0365 67.9901 23.4174 67.225 23.4174ZM67.225 28.83H60.3015C59.5374 28.83 58.9172 29.4501 58.9172 30.2141C58.9172 30.9791 59.5374 31.5982 60.3015 31.5982H67.225C67.9892 31.5982 68.6093 30.9781 68.6093 30.2141C68.6093 29.4501 67.9901 28.83 67.225 28.83Z" fill="#404040"/>
</g>
<defs>
<clipPath id="clip0_21_82">
<rect width="188" height="192" fill="white"/>
</clipPath>
</defs>
</svg>
