<svg width="159" height="107" viewBox="0 0 159 107" fill="none" xmlns="http://www.w3.org/2000/svg">
<path d="M46.3989 106.023H26.9158C25.7357 101.159 23.9179 93.6795 22.3419 87.1617V87.1464C22.2466 86.7462 22.1513 86.3461 22.0561 85.9613C21.9974 85.7151 21.9388 85.4765 21.8801 85.238C20.3555 78.9741 19.1607 74.0184 19.1314 73.903C19.1167 73.8337 19.1021 73.7799 19.0874 73.7337L19.0654 73.6414H45.2554C45.2554 73.6414 47.8135 85.7381 47.5936 89.8243C47.3737 94.0104 46.3989 106.015 46.3989 106.015V106.023Z" fill="#36464F"/>
<path d="M45.3871 73.6414C45.3871 73.6414 45.3798 73.6644 45.3871 73.6568C45.7536 73.272 41.8321 94.5568 39.7577 97.7811C39.7577 97.7811 32.4937 101.344 32.0832 101.536C32.0759 101.536 29.9062 106.03 29.9062 106.03H0L1.8838 100.328C1.71521 99.3586 1.46599 94.5645 1.94244 91.6865C2.8367 86.2537 9.70487 73.6568 9.70487 73.6568L45.3871 73.6414Z" fill="#36464F"/>
<path d="M30.4047 106.022H29.7377C30.2288 104.929 32.1712 101.228 32.1859 101.128C32.1932 101.051 32.3251 101.051 32.3251 101.136C32.3251 101.213 30.9398 104.883 30.4047 106.022Z" fill="#263138"/>
<path d="M26.4756 104.114C27.6777 103.237 28.9751 102.506 30.2506 101.744C31.5553 100.974 32.8747 100.228 34.2307 99.5662C36.8768 98.2734 39.6769 97.3346 42.4549 96.4343C42.5282 96.4112 42.5722 96.5343 42.5063 96.5651C39.8235 97.7732 37.2213 99.1583 34.5532 100.405C33.2119 101.028 31.8558 101.628 30.5144 102.252C29.173 102.875 27.861 103.575 26.5049 104.168C26.4683 104.183 26.4463 104.137 26.4756 104.114Z" fill="#263138"/>
<path d="M33.8205 90.3241C33.8498 88.9467 33.9451 87.5616 34.0111 86.1841C34.165 82.9291 34.2823 79.6509 34.5755 76.4036C34.5901 76.2728 34.766 76.2805 34.766 76.4113C34.8027 78.9276 34.7147 81.4593 34.6634 83.9756C34.6414 85.2376 34.6048 86.4996 34.5681 87.7616C34.5388 88.9621 34.4582 90.1779 34.5461 91.3784C34.6121 92.2864 34.8027 94.0486 35.9315 94.164C36.9944 94.264 37.5808 93.0636 37.8446 92.1787C38.519 89.9317 38.7609 87.5154 38.9808 85.1761C39.1127 83.7909 39.2373 82.4135 39.318 81.0284C39.3986 79.6279 39.5012 77.5656 39.4279 76.1727C39.4206 76.0804 39.5452 76.0881 39.5598 76.1727C39.7651 77.3732 39.7797 79.8048 39.7504 81.2361C39.4939 94.0871 37.5588 94.8258 36.5399 95.0336C36.408 95.0566 36.2834 95.072 36.1587 95.072C36.1441 95.3645 36.1074 95.6569 36.0854 95.9493C36.0561 96.4033 36.0048 96.8573 35.9462 97.3113C35.8875 97.7576 35.7922 98.1963 35.6823 98.6272C35.5723 99.0581 35.4624 99.5045 35.2425 99.8892C35.2058 99.9508 35.1252 99.9123 35.1179 99.8507C35.0886 99.4198 35.1692 98.9812 35.2205 98.5502C35.2791 98.1039 35.3378 97.6576 35.4257 97.219C35.5137 96.7881 35.587 96.3571 35.675 95.9262C35.7336 95.6338 35.7703 95.3414 35.8216 95.049C35.1692 94.9412 34.6194 94.4872 34.3116 93.8023C33.8351 92.7404 33.7985 91.4861 33.8205 90.3318V90.3241ZM12.5709 88.8697C14.2788 88.9929 15.9647 89.2237 17.6799 89.016C19.2925 88.8159 20.8391 88.2387 22.1292 87.1845C24.9512 84.8913 26.1827 81.1361 26.945 77.6117C26.9596 77.5348 27.0696 77.5502 27.0623 77.6271C26.7471 80.6821 26.1167 83.8448 24.2402 86.2996C23.4193 87.3692 22.4151 88.2772 21.2423 88.8928C20.0182 89.5315 18.6328 89.7547 17.2841 89.747C15.7008 89.747 14.0736 89.493 12.5416 89.0775C12.417 89.0467 12.439 88.862 12.5709 88.8697ZM47.3443 88.1541C46.8678 88.1002 46.3987 88.1387 45.9223 87.7693C45.4678 87.4231 45.028 86.7382 44.6542 85.6455C43.8332 83.2677 43.4301 79.7048 43.1589 76.4113C43.1515 76.3343 43.1222 76.342 43.1295 76.419C43.2688 79.2431 43.4887 82.198 44.0531 84.6297C44.3023 85.6916 44.5955 86.6228 44.9327 87.2999C45.2845 88.0079 45.673 88.3465 46.0542 88.4773C46.494 88.6312 46.9484 88.5696 47.3663 88.3388C47.4029 88.3234 47.3882 88.1541 47.3516 88.1464L47.3443 88.1541ZM12.2704 74.9954C10.6505 80.0896 8.85463 85.2299 7.15408 90.2933C6.69229 91.817 6.03992 93.2868 5.90798 94.8874C5.79803 96.5033 5.864 98.1347 5.98128 99.7507C5.68075 100.736 5.39489 101.721 5.0797 102.698C4.77917 103.668 4.47864 104.637 4.16345 105.599C4.39068 104.606 4.63257 103.621 4.87446 102.629C5.10902 101.636 5.36557 100.659 5.60745 99.666C5.42421 98.4502 5.30693 96.3648 5.38756 94.8412C5.41688 94.2871 5.49751 93.7177 5.65143 93.1867C6.24516 91.0936 6.95617 89.0698 7.66717 87.0306C9.10385 82.9753 10.6211 78.9507 12.2631 74.98L12.2704 74.9954Z" fill="#263138"/>
<path d="M33.0418 43.5187C36.9193 55.6309 44.8064 73.7684 51.374 71.0597C55.838 69.2206 65.8507 61.6947 70.0948 56.0849C72.3524 53.0992 61.2182 37.8243 59.0558 40.4253C54.2474 46.212 51.4986 49.5133 50.2086 50.983C49.7908 51.4601 43.3257 43.6649 38.6785 39.0478C32.646 33.0533 31.3193 38.1706 33.0345 43.5187H33.0418Z" fill="#EB9380"/>
<path d="M68.2333 56.3693C70.2271 55.7306 81.0608 51.6983 83.3111 50.0669C85.5613 48.4356 91.7185 43.2567 90.6997 41.3175C89.6881 39.3784 87.7677 40.7481 87.7677 40.7481C87.7677 40.7481 90.2892 37.9163 88.8452 36.2772C87.6944 34.969 84.9017 36.7389 84.9017 36.7389C84.9017 36.7389 87.5111 33.4839 85.8839 32.0526C84.3959 30.7444 81.8451 33.4531 81.8451 33.4531C81.8451 33.4531 83.7655 30.4981 82.1016 29.5286C80.1005 28.3589 76.7801 33.4762 74.1633 35.0768C73.5695 35.4384 61.6364 41.5561 61.6364 41.5561L68.2333 56.3693Z" fill="#EB9380"/>
<path d="M81.8006 33.2685C78.9346 36.8314 77.6519 38.2165 73.7303 39.9864C73.657 40.0172 73.6864 40.148 73.767 40.1172C77.7545 38.7475 79.3964 37.2161 81.9766 33.3762C82.1012 33.1916 81.9326 33.0915 81.8006 33.2608V33.2685ZM84.8572 36.7313C81.9839 40.3942 80.1441 41.5947 76.1639 43.7724C76.1053 43.8032 76.1492 43.9032 76.2079 43.8801C80.276 42.0949 82.5776 40.8559 84.9892 36.8006C85.0991 36.6159 84.9892 36.562 84.8572 36.7313ZM87.5693 40.8636C84.542 44.2033 82.5996 45.7347 78.4802 47.3199C78.3849 47.3583 78.4288 47.5122 78.5241 47.4815C82.8708 46.2887 85.3117 44.3957 87.6499 40.9714C87.8112 40.7405 87.7526 40.6559 87.562 40.8636H87.5693Z" fill="#263138"/>
<path d="M57.3696 43.18C57.3696 43.18 58.9016 37.9473 62.5446 35.9004C66.5247 33.6611 68.0934 27.8204 70.1018 28.4591C72.3594 29.1748 70.6735 36.4621 68.6285 38.332C68.6285 38.332 70.9667 45.4347 67.6902 48.1895C64.4137 50.9367 57.3696 43.18 57.3696 43.18Z" fill="#EB9380"/>
<path d="M68.3649 38.7401C69.3691 41.4719 69.633 45.3194 67.9691 47.6588C67.9178 47.728 68.0057 47.8127 68.0644 47.7434C70.1754 45.4887 69.9042 41.0332 68.8707 38.6477C68.6728 38.186 68.1083 38.0244 68.3649 38.7324V38.7401Z" fill="#263138"/>
<path d="M57.4281 40.8333L70.776 58.6168C70.776 58.6168 53.5432 73.6378 49.2845 72.6836C42.4896 71.1676 34.6612 53.3533 32.7628 44.8733C30.8643 36.3932 31.5973 31.0912 38.744 38.14C45.7661 45.0656 49.8856 50.4215 50.1275 50.3753C50.362 50.3291 57.4354 40.8256 57.4354 40.8256L57.4281 40.8333Z" fill="#FFC626"/>
<path d="M70.7765 58.6168C70.7765 58.6168 66.6497 62.2104 61.9365 65.7733C57.0181 69.4901 51.462 73.1683 49.285 72.6835C42.4901 71.1676 34.6617 53.3533 32.7633 44.8733C31.5758 39.5867 31.4146 35.5313 33.2031 34.9388C34.2806 34.5848 36.0544 35.4852 38.7445 38.14C45.7666 45.0656 49.8861 50.4215 50.128 50.3753C50.3625 50.3291 57.4359 40.8256 57.4359 40.8256L70.7838 58.6091L70.7765 58.6168Z" fill="#F03F6D"/>
<path d="M50.2522 50.1594C49.2773 51.2367 48.515 52.4141 47.782 53.5915C47.4228 54.1763 47.1003 54.7842 46.7925 55.3844C46.4846 55.977 46.1987 56.6003 46.0228 57.2313C46.0155 57.2544 46.0668 57.2697 46.0814 57.2467C46.5066 56.6926 46.8584 56.0924 47.2029 55.5076C47.5474 54.915 47.9139 54.3302 48.2584 53.7377C48.9475 52.5526 49.7098 51.3906 50.3402 50.1902C50.3621 50.1517 50.2815 50.1209 50.2522 50.1517V50.1594Z" fill="#263138"/>
<path d="M61.9364 65.7732C57.018 69.49 51.4619 73.1683 49.2849 72.6835C42.49 71.1675 34.6616 53.3532 32.7632 44.8732C31.5757 39.5866 31.4145 35.5312 33.203 34.9387L61.9437 65.7732H61.9364Z" fill="black" fill-opacity="0.101961"/>
<path d="M66.3342 61.1867C64.7509 59.3399 63.2629 57.4238 61.7823 55.5C60.3016 53.5762 58.8136 51.6524 57.3843 49.6978C56.578 48.5897 55.757 47.4893 54.9874 46.3581C54.9654 46.3274 55.0094 46.2889 55.0387 46.3197C56.622 48.1588 58.1173 50.0749 59.6053 51.9833C61.1006 53.8994 62.5739 55.8309 64.0252 57.7701C64.8462 58.8705 65.6525 59.9786 66.4221 61.1098C66.4588 61.1636 66.3782 61.2406 66.3268 61.1867H66.3342Z" fill="#263138"/>
<path d="M48.1266 84.5105L45.5978 67.812C45.5978 67.812 49.1235 63.9952 48.2366 60.0091C47.4742 56.5617 39.6532 41.7177 35.5337 36.7851C32.0447 32.599 25.6676 32.9299 22.7429 36.7851C16.725 44.7188 13.1114 66.7962 13.1114 66.7962C13.1114 66.7962 7.08615 76.4998 4.48401 84.5259L48.1193 84.5105H48.1266Z" fill="#F288A4"/>
<path d="M38.2919 65.546C36.0636 65.8307 33.828 66.2 31.6583 66.831C30.5808 67.1466 29.5253 67.5082 28.4625 67.9007C27.9347 68.0931 27.4069 68.27 26.8719 68.4393C26.3221 68.6163 25.7357 68.7856 25.164 68.8164C25.1127 68.8164 25.1127 68.901 25.164 68.901C25.721 68.9087 26.2561 68.9087 26.8132 68.8318C27.341 68.7625 27.8687 68.6317 28.3818 68.4855C29.4813 68.1777 30.5588 67.816 31.6583 67.4928C33.8646 66.8464 36.071 66.2 38.3213 65.7306C38.4239 65.7076 38.3946 65.5229 38.2919 65.5383V65.546ZM43.8774 67.5159C42.0375 67.3543 40.1611 67.2928 38.3139 67.3543C37.383 67.3851 36.4668 67.4697 35.5432 67.5852C35.1034 67.639 34.6636 67.7006 34.2238 67.7699C33.74 67.8468 33.2636 67.9853 32.7798 68.0546C32.7285 68.0623 32.7285 68.1469 32.7798 68.1392C33.2416 68.0931 33.7034 68.1238 34.1652 68.1008L35.5505 68.0315C36.4741 67.9853 37.405 67.9545 38.3286 67.9007C40.1831 67.7929 42.0302 67.7083 43.8847 67.6775C43.9873 67.6775 43.9727 67.5236 43.8774 67.5159Z" fill="#263138"/>
<path d="M38.7092 29.4632C42.7333 33.6339 50.1512 32.649 54.1461 28.9861C54.2413 28.9014 51.3753 26.7314 49.0737 22.0681C47.8716 19.6364 47.4831 16.8508 46.8381 14.196C46.5522 13.0032 46.2663 11.8105 45.9512 10.6254C45.658 9.49423 45.3574 8.23992 44.7344 7.23185C42.9679 4.36925 38.35 5.562 37.9102 6.40078C34.8976 12.1875 34.1279 24.7229 38.7018 29.4709L38.7092 29.4632Z" fill="#404040"/>
<path d="M39.0981 25.8157C40.2562 28.4936 42.3746 30.579 45.072 31.4639C47.916 32.3874 51.2805 31.8333 53.802 30.1865C53.846 30.1558 53.8973 30.225 53.8533 30.2558C51.2658 32.0719 48.2312 32.8337 45.1673 31.9333C42.3379 31.1023 39.8751 28.8399 38.9075 25.9003C38.8635 25.7695 39.0394 25.6926 39.0908 25.8157H39.0981Z" fill="#263138"/>
<path d="M37.06 25.1923C38.2035 27.8702 39.948 29.9402 42.5208 31.1869C45.0716 32.4258 48.7953 33.2645 51.5 32.1488C51.5733 32.118 51.6173 32.2334 51.544 32.2642C48.6926 33.5262 44.947 32.8182 42.2276 31.4716C39.816 30.2788 37.4924 28.0549 36.8474 25.2462C36.8181 25.1154 37.0087 25.0769 37.0527 25.1846L37.06 25.1923ZM45.1669 9.75584C46.0099 13.1263 46.8675 16.366 48.4288 19.4671C49.99 22.5606 52.0204 25.5001 54.3953 27.9626C54.4393 28.0088 54.3807 28.1011 54.3294 28.0472C51.8592 25.6694 49.7921 22.9838 48.1869 19.8827C46.6036 16.82 45.2549 13.2802 44.9544 9.77893C44.9397 9.63272 45.1303 9.61733 45.1596 9.74815L45.1669 9.75584Z" fill="#404040"/>
<path d="M26.9078 34.4647C26.9371 35.342 30.5801 40.6901 34.2671 41.2749C35.4692 41.4596 35.8797 35.519 35.8797 35.519L36.0849 35.0342L38.9289 28.2855L32.0314 21.3137L31.0199 20.3672C31.0199 20.3672 30.3602 22.2679 29.5539 24.6457C29.5173 24.7534 29.4806 24.8689 29.4366 24.9843C29.3853 25.1151 29.3413 25.2459 29.2974 25.369C29.1727 25.723 29.0481 26.0847 28.9309 26.4464C28.8429 26.7234 28.7476 26.9927 28.667 27.2851C28.5717 27.5776 28.4911 27.8623 28.3958 28.1547C27.5382 31.0481 26.8931 34.103 26.9005 34.4724L26.9078 34.4647Z" fill="#EB9380"/>
<path d="M29.5542 24.6461C30.4191 30.6714 34.26 33.8572 36.0852 35.0422L38.9292 28.2936L32.0317 21.3217L31.0202 20.3752C31.0202 20.3752 30.3605 22.2759 29.5542 24.6538V24.6461Z" fill="#263138"/>
<path d="M47.2265 14.6271C50.6349 27.0779 43.9133 30.633 41.3552 31.4025C39.0316 32.1028 31.0346 34.1728 26.4167 22.1606C21.7988 10.1485 26.2408 4.54643 31.4744 2.64573C36.708 0.752722 43.818 2.17633 47.2265 14.6271Z" fill="#EB9380"/>
<path d="M44.4122 12.8112C44.119 12.8574 43.8404 12.8497 43.5472 12.8574C43.2174 12.8728 42.9535 12.9189 42.653 12.7342C42.4917 12.6342 42.4331 12.3495 42.5137 12.1802C42.697 11.78 43.1001 11.6569 43.5032 11.6184C43.9357 11.58 44.2802 11.6646 44.6394 11.9262C44.9839 12.1725 44.8007 12.7496 44.4122 12.8112ZM36.7304 16.6357C37.0089 16.5203 37.2435 16.3664 37.5073 16.2201C37.8005 16.0585 38.0571 15.9585 38.2183 15.643C38.3063 15.4737 38.2257 15.1967 38.0791 15.089C37.7272 14.8427 37.3168 14.9427 36.9576 15.1197C36.5618 15.3121 36.3052 15.5738 36.122 15.9816C35.9387 16.3817 36.3712 16.7819 36.7377 16.628L36.7304 16.6357ZM39.0906 18.4363C39.076 18.4056 39.0393 18.4979 39.0466 18.5287C39.3105 19.3829 39.4791 20.4063 38.8194 20.9219C38.7974 20.9373 38.8121 20.9834 38.8414 20.9681C39.7137 20.5525 39.4718 19.1982 39.0906 18.4287V18.4363Z" fill="#404040"/>
<path d="M38.1085 17.7667C36.7592 18.067 37.4339 20.8846 38.6805 20.6075C39.9124 20.3303 39.2378 17.5204 38.1085 17.7667Z" fill="#404040"/>
<path d="M37.617 18.0514C37.4191 18.2745 37.2578 18.6131 36.9866 18.7208C36.6714 18.844 36.3489 18.6131 36.0704 18.3822C36.0411 18.3592 36.0264 18.3899 36.0337 18.4284C36.1583 18.9671 36.4882 19.4673 37.0526 19.4057C37.573 19.3441 37.8149 18.7747 37.8149 18.1976C37.8149 18.0898 37.6976 17.9667 37.617 18.0514ZM43.6569 17.0818C43.6569 17.0433 43.7302 17.1048 43.7375 17.1433C43.9134 18.0206 44.2579 18.9979 45.0789 19.0979C45.1009 19.0979 45.1156 19.1441 45.0862 19.1518C44.1333 19.2518 43.6935 17.9513 43.6642 17.0895L43.6569 17.0818Z" fill="#404040"/>
<path d="M44.1926 15.9816C45.5052 15.5351 46.2605 18.3219 45.0506 18.7377C43.8553 19.1457 43.0927 16.3588 44.1926 15.9816Z" fill="#404040"/>
<path d="M44.7931 15.9969C45.0423 16.0816 45.3209 16.2893 45.5774 16.2278C45.8706 16.1585 46.0099 15.7969 46.1125 15.4506C46.1272 15.4121 46.1492 15.4352 46.1638 15.466C46.3251 15.9969 46.3031 16.5972 45.8413 16.8511C45.4235 17.0743 44.969 16.7203 44.7052 16.2201C44.6539 16.1277 44.6905 15.9585 44.7858 15.9892L44.7931 15.9969ZM40.3145 25.3312C40.5491 25.5081 40.791 25.7621 41.1062 25.739C41.4067 25.7159 41.7292 25.5235 41.9858 25.3696C42.0077 25.3542 42.0444 25.3773 42.0297 25.4081C41.8611 25.7852 41.4287 26.0699 41.0255 26.0622C40.6297 26.0545 40.3878 25.739 40.2412 25.385C40.2192 25.3389 40.2852 25.3081 40.3145 25.3312Z" fill="#404040"/>
<path d="M43.144 21.1908C43.144 21.1908 43.5838 22.4605 43.7157 23.0839C43.7304 23.1454 43.5911 23.1993 43.3932 23.2608C43.3859 23.2685 43.3785 23.2685 43.3712 23.2685C42.367 23.6764 41.2382 23.5302 40.4246 22.7837C40.3733 22.7299 40.4319 22.6529 40.4979 22.676C41.3995 23.0992 42.2864 23.0608 43.2173 22.8684C43.2246 22.6914 42.389 20.7137 42.4843 20.683C42.7995 20.5829 43.4812 20.6676 43.8916 20.6984C43.0487 18.0204 41.7953 15.5041 40.9963 12.8185C40.967 12.7185 41.0989 12.6646 41.1429 12.7416C42.6309 15.281 43.6644 18.3436 44.61 21.0908C44.7273 21.4294 43.4225 21.2447 43.166 21.1908H43.144Z" fill="#404040"/>
<path d="M43.1305 23.138C43.1305 23.138 42.8079 24.031 42.1625 24.516C41.9279 24.6931 41.6492 24.8162 41.3339 24.8239C40.6739 24.8393 40.5053 24.2542 40.4759 23.7154C40.4539 23.2766 40.5419 22.8608 40.5419 22.8608C40.5419 22.8608 41.6712 23.469 43.1305 23.138Z" fill="#404040"/>
<path d="M42.1624 24.5157C41.9278 24.6927 41.6491 24.8159 41.3338 24.8236C40.6738 24.839 40.5052 24.2539 40.4758 23.715C41.1505 23.5919 41.9278 23.8613 42.1624 24.5157Z" fill="#FF99BA"/>
<path d="M28.5426 24.2767C30.7636 23.8304 28.8432 16.6124 28.8432 16.6124C28.8432 16.6124 36.7962 14.6655 37.0014 5.94686C37.0014 5.94686 41.9784 9.93295 45.145 8.88641C46.2445 8.51705 42.2277 0.190886 35.6673 1.47598C35.6673 1.47598 27.5091 0.398654 23.9687 8.06303C20.4284 15.7274 25.4934 24.8923 28.55 24.2844L28.5426 24.2767Z" fill="#404040"/>
<path d="M28.0003 16.4738C30.5585 16.3891 33.1459 15.8505 34.9198 13.742C36.9502 11.3257 37.0162 8.01678 37.0748 4.9695C37.0748 4.91564 37.1554 4.90794 37.1554 4.96181C37.3827 8.07834 37.1408 11.6412 35.0151 14.0652C33.2852 16.0428 30.4852 16.8431 27.993 16.62C27.9123 16.6123 27.9197 16.4738 28.0003 16.4738Z" fill="#404040"/>
<path d="M36.6862 4.33057C37.5584 5.82344 38.4307 7.10083 39.86 8.08581C41.2454 9.04001 42.77 9.47863 44.4046 9.66332C44.4339 9.66332 44.4339 9.72488 44.4046 9.72488C41.2747 9.86339 37.6317 7.56254 36.5396 4.40753C36.5102 4.31518 36.6349 4.23823 36.6862 4.32288V4.33057Z" fill="#404040"/>
<path d="M19.0796 17.4051C19.3728 19.8598 19.2629 22.2684 18.6911 24.6847C18.222 26.6623 17.5696 28.6631 17.8115 30.7331C18.2513 34.4267 21.6304 36.3044 24.6211 37.3432C26.6221 38.0358 30.4117 36.2428 33.8422 35.6964C36.2464 35.3117 23.998 20.4754 34.282 1.5992C34.3259 1.51456 26.3729 0.922028 21.931 5.92388C19.0356 9.18663 18.5738 13.2497 19.0723 17.4128L19.0796 17.4051Z" fill="#404040"/>
<path d="M18.6619 15.6198C18.6252 12.6571 19.3509 9.9946 20.9048 7.52445C20.9195 7.50137 20.9561 7.52445 20.9415 7.54754C19.4535 10.1023 18.8305 13.0111 18.9111 15.9891C18.9771 18.5131 19.3069 21.0448 18.5739 23.4996C18.1561 24.9001 17.5844 26.1929 17.5697 27.6858C17.555 29.094 17.8996 30.4868 18.5226 31.7334C19.8713 34.4344 22.3122 35.9888 25.0096 36.8738C25.0902 36.9046 25.0756 37.0431 24.9876 37.02C20.1059 35.8426 16.133 30.7561 17.709 25.3926C18.2074 23.6997 18.7572 22.1914 18.8085 20.3908C18.8524 18.7979 18.6839 17.2127 18.6619 15.6198Z" fill="#404040"/>
<path d="M20.8388 8.31727C20.8534 8.29418 20.8974 8.30957 20.8828 8.34035C19.2848 11.2106 18.7791 14.4503 19.2555 17.7208C19.4827 19.2598 19.8053 20.7911 19.7759 22.3532C19.7466 23.7768 19.4388 25.1389 18.999 26.4855C18.0094 29.5482 16.8293 33.1572 19.9079 35.3811C22.598 37.328 26.263 37.8051 29.4442 37.6127C29.5394 37.605 29.5468 37.7512 29.4588 37.7666C26.3289 38.0898 22.7812 37.5127 20.0765 35.7428C17.8262 34.2653 17.3277 31.8337 17.9434 29.2404C18.3832 27.4013 19.1969 25.6852 19.4681 23.7922C19.7466 21.7915 19.3874 19.9062 19.0942 17.9439C18.5812 14.535 19.1016 11.2722 20.8461 8.32496L20.8388 8.31727Z" fill="#404040"/>
<path d="M18.7354 16.7508C18.6034 13.6958 18.838 10.4177 20.8977 8.07064C20.927 8.03986 20.971 8.07834 20.9417 8.10912C18.5228 11.0871 18.86 15.181 19.0579 18.8285C19.1532 20.6291 19.2118 22.4683 18.8526 24.2536C18.4861 26.0388 17.5186 27.6625 17.4013 29.5017C17.1667 33.3646 20.1061 36.3119 23.3019 37.343C26.813 38.4819 30.2581 37.6047 33.7911 37.1737C33.8791 37.166 33.9157 37.3122 33.8277 37.3353C28.9533 38.5512 22.2171 39.136 18.7354 34.4496C17.2913 32.5028 16.8076 30.0403 17.5406 27.6471C18.105 25.8003 18.772 24.1458 18.8819 22.1836C18.9846 20.3752 18.8087 18.5668 18.728 16.7585L18.7354 16.7508Z" fill="#404040"/>
<path d="M30.3309 20.9522C30.3309 20.9522 26.9445 17.5279 25.4125 18.8745C23.8806 20.2212 26.9445 25.5616 29.1068 25.931C31.2692 26.3004 31.6357 24.2073 31.6357 24.2073L30.3309 20.9522Z" fill="#EB9380"/>
<path d="M26.329 20.383C26.2924 20.383 26.2997 20.4368 26.329 20.4445C27.8536 20.7523 28.8505 21.9759 29.6422 23.2917C29.1217 22.83 28.4914 22.6453 27.8903 23.3148C27.861 23.3533 27.905 23.3995 27.9416 23.3841C28.4987 23.1378 28.9312 23.1532 29.4149 23.5611C29.7594 23.8458 30.0233 24.2459 30.3019 24.5999C30.3898 24.7153 30.6097 24.5999 30.5291 24.4614C30.5218 24.4537 30.5144 24.4383 30.5144 24.4306C30.1992 22.5299 28.3081 20.1752 26.3363 20.383H26.329Z" fill="#404040"/>
<path d="M20.2675 44.6765C21.5429 61.5982 26.7545 77.8581 32.208 79.1201C38.2846 80.5206 39.7652 62.3523 39.0102 61.7521C38.4385 61.2981 32.8824 53.3721 27.5535 42.6758C22.2319 31.9949 19.9523 40.4904 20.2675 44.6765Z" fill="#F03F6D"/>
<path d="M40.021 64.2452C35.7257 57.4273 31.7088 50.4247 27.9926 43.2451C32.2879 50.063 36.2974 57.0733 40.021 64.2452Z" fill="#263138"/>
<path d="M30.3901 47.2621C29.9136 46.3002 29.6131 45.2768 29.3932 44.2148C29.9283 45.1383 30.2361 46.1925 30.3901 47.2621Z" fill="#263138"/>
<path d="M33.036 78.8973C37.4926 79.0742 42.8581 73.0105 56.052 60.652C57.8772 58.9437 49.2352 42.8608 47.1975 44.5769C44.632 46.7469 35.1103 55.7425 34.4946 56.4967C29.2904 62.8221 30.016 78.7741 33.036 78.8973ZM50.4666 39.6058C54.7766 36.166 56.3892 35.9814 58.5589 31.0488C59.9809 27.8168 62.5611 27.3782 62.7443 31.0796C63.0375 37.1356 58.361 42.7993 56.1987 44.2691L50.4666 39.5981V39.6058Z" fill="#EB9380"/>
<path d="M40.5712 51.6563C40.5712 51.6563 44.1922 45.5002 48.4362 41.3525C51.3755 38.4899 58.4343 33.0033 69.8984 36.5969C72.6178 37.4511 75.9236 40.683 70.9978 40.9908C67.5015 41.2063 65.2218 40.2367 63.2061 40.7523C63.2061 40.7523 66.937 45.3925 66.0208 48.2243C65.6103 49.4863 64.4155 52.9106 63.1181 55.4346C63.1181 55.4346 62.5171 55.2884 61.7841 54.9883C61.7841 54.9883 59.4385 59.7131 54.9599 61.6831L40.5638 51.664L40.5712 51.6563Z" fill="#EB9380"/>
<path d="M51.6614 39.09C53.7651 39.0207 58.2144 38.9592 61.8793 40.2366C65.9475 41.6525 73.4167 45.5385 72.3905 48.6782C71.6355 50.979 68.6596 49.7632 68.6596 49.7632C68.6596 49.7632 71.423 52.0486 70.3088 53.9724C69.2899 55.7269 67.047 54.6342 67.047 54.6342C67.047 54.6342 68.4983 56.3271 67.2082 57.82C65.6616 59.613 62.8762 55.7731 59.8123 56.1655C59.1233 56.2502 51.6687 39.0823 51.6687 39.0823L51.6614 39.09Z" fill="#EB9380"/>
<path d="M59.732 44.4922C61.7184 44.7692 66.0724 46.6084 68.6379 49.6634C68.6965 49.7326 68.6745 49.8173 68.6085 49.7634C65.1048 47.0316 61.3519 45.2002 59.7173 44.5307C59.6953 44.523 59.71 44.4845 59.732 44.4922ZM58.4859 48.8477C60.1791 49.2709 64.5844 51.3794 67.0839 54.5729C67.1426 54.6421 67.1132 54.7268 67.0546 54.6729C63.5069 51.6564 60.0691 49.6634 58.4712 48.8862C58.4492 48.8785 58.4639 48.84 58.4859 48.8477Z" fill="#263138"/>
<path d="M56.6166 36.3353C60.1423 35.281 63.9099 34.8424 67.5309 35.6658C68.7403 35.9274 69.9278 36.3122 71.0566 36.8201C71.6357 37.0663 72.2294 37.3433 72.7205 37.7743C73.5268 38.3899 74.2818 39.7981 73.2849 40.6138C72.486 41.2525 71.4158 41.2294 70.4922 41.2217C69.2608 41.2063 68.044 41.0755 66.8345 40.9216C65.6324 40.7831 64.4157 40.4984 63.2136 40.7446C64.3937 40.3675 65.6544 40.5907 66.8565 40.6369C68.0733 40.7215 69.2828 40.7908 70.4849 40.76C72.2734 40.8062 74.487 40.1598 72.3687 38.2206C71.9142 37.8281 71.3791 37.5896 70.8294 37.3587C69.7299 36.8586 68.5791 36.4815 67.4063 36.2045C63.8513 35.3349 60.1863 35.6273 56.6093 36.3276L56.6166 36.3353Z" fill="#263138"/>
<path d="M59.7026 39.8059C63.9687 40.3215 68.1761 42.176 71.3133 45.3002C72.2662 46.2468 73.1385 47.7781 72.6107 49.2171C71.9144 50.733 70.0379 50.3637 68.8138 49.9635L69.041 49.5326C70.0379 50.5407 71.1154 51.9796 70.6829 53.5187C70.1918 55.1347 68.3227 55.3116 67.0619 54.6653C67.3918 54.7807 67.7289 54.8422 68.0661 54.873C70.0232 55.0962 71.0861 53.2263 70.0159 51.4948C69.5321 50.5868 68.6525 49.8404 67.9122 49.1709L68.953 49.4787C70.3531 49.9558 72.64 50.0559 72.1562 47.8396C71.7678 46.139 70.2431 45.0386 68.997 44.0075C66.2483 41.9221 63.0304 40.5216 59.7026 39.8059Z" fill="#263138"/>
<path d="M44.1612 45.6963L50.2964 72.1369C50.2964 72.1369 36.582 80.7939 32.5726 79.5242C29.7065 78.6239 28.7243 63.6568 34.5003 56.6619L44.1539 45.6963H44.1612Z" fill="#F03F6D"/>
<path d="M30.4835 67.4504C30.3956 65.6267 31.2165 60.7402 34.5003 56.6464C34.5297 56.6079 34.5883 56.6541 34.5663 56.6926C32.404 59.9938 30.6155 65.6959 30.5568 67.4581C30.5568 67.5043 30.4908 67.4966 30.4835 67.4504ZM45.466 70.7978C44.6817 68.2969 44.0293 65.7575 43.3769 63.2181C42.7319 60.671 42.0722 58.1316 41.4858 55.5691C41.1559 54.1224 40.8114 52.6757 40.5256 51.2213C40.5182 51.1828 40.5769 51.1598 40.5915 51.1982C41.3758 53.6915 42.0429 56.2309 42.7026 58.7626C43.3696 61.302 44.0073 63.8491 44.623 66.4039C44.9749 67.8429 45.2974 69.2972 45.5832 70.7516C45.5979 70.8209 45.4879 70.8671 45.466 70.7901V70.7978Z" fill="#263138"/>
<path d="M43.993 45.5428C43.2307 46.1815 42.571 46.9433 41.8967 47.682C41.2223 48.4208 40.5626 49.1826 39.9102 49.9367C38.6128 51.4527 35.6882 54.4999 33.7751 57.6242C33.7531 57.655 34.0243 57.5934 34.039 57.5549C34.8819 56.0159 43.458 46.7509 44.059 45.9198C44.0957 45.9891 44.5208 47.6589 44.5648 47.7282C44.5941 47.7744 44.6747 47.7667 44.6747 47.6974C44.6747 47.5435 44.2349 45.8044 44.2203 45.6505C44.2129 45.5197 44.081 45.4581 43.9857 45.5428H43.993Z" fill="#263138"/>
<path d="M20.8171 50.1713C21.4255 56.5198 25.9261 78.0816 32.7943 79.0358C37.2802 79.3282 45.8343 73.9493 49.9024 71.5099L49.8658 71.61C49.5799 70.1787 49.3014 68.7474 49.0302 67.3084C49.3747 68.7243 49.7045 70.1479 50.0344 71.5638L50.049 71.6254L49.9977 71.6638C46.4573 74.057 42.7997 76.2655 38.9295 78.02C37.4635 78.651 35.9535 79.2513 34.3702 79.5206C29.2832 80.5364 26.4905 73.4953 24.9439 69.5092C23.4339 65.3769 22.4151 61.0676 21.6234 56.7275C21.2643 54.5575 20.8831 52.3721 20.8171 50.1636V50.1713Z" fill="#263138"/>
<path d="M20.3849 51.5718C20.788 52.6953 21.1545 53.8034 21.3891 54.9807C20.7954 53.9573 20.4069 52.7799 20.3849 51.5718Z" fill="#263138"/>
<path d="M156.062 106.023H106.115C106.379 97.1192 107.442 87.4387 110.206 79.6743H136.821C136.821 79.6743 136.828 79.6743 136.835 79.682C137.297 80.0129 147.64 88.7931 156.062 106.023Z" fill="#FFC626"/>
<path d="M156.062 106.023H106.115C106.379 97.1192 107.442 87.4387 110.206 79.6743H136.821C136.821 79.6743 136.828 79.6743 136.835 79.682C137.297 80.0129 147.64 88.7931 156.062 106.023Z" fill="white" fill-opacity="0.701961"/>
<path d="M158.393 106.023H100.311C101.784 96.7345 104.731 87.3233 110.199 79.6743H136.814C136.814 79.6743 136.821 79.6743 136.828 79.682C137.356 79.8821 145.456 85.892 158.393 106.023Z" fill="#C88FEB"/>
<path d="M112.64 106.022H108.608C110.375 93.3406 113.197 79.7433 113.197 79.7433C113.197 79.7433 113.27 93.3406 112.64 106.022ZM152.148 106.022H148.204C141.923 95.4799 134.468 80.1127 134.285 79.751C134.527 80.0819 145.771 95.4722 152.148 106.022ZM124.199 106.022H122.528C120.842 100.851 122.234 79.7048 122.234 79.7048C122.234 79.7048 125.401 100.851 124.199 106.022Z" fill="#AD49EB"/>
<path d="M129.088 27.3475C129.088 27.3475 133.046 29.2636 133.552 33.1188C134.058 36.9741 131.573 38.8056 128.128 39.4981C124.683 40.1907 120.153 39.3904 118.885 36.1353C116.862 30.9411 122.235 26.147 124.983 26.2009C127.725 26.2471 129.088 27.3552 129.088 27.3552V27.3475Z" fill="#404040"/>
<path d="M129.088 27.347C131.727 29.2324 135.267 32.6259 133.427 36.258C132.02 38.6589 128.663 39.3669 126.163 39.7209C128.846 39.7901 132.401 39.1514 133.941 36.5658C136.037 32.6721 132.255 28.863 129.088 27.3394V27.347Z" fill="#404040"/>
<path d="M130.583 38.0277C130.583 38.0277 133.244 39.205 133.698 42.6755C134.153 46.146 131.917 47.7928 128.816 48.4161C125.716 49.0394 120.841 48.2853 120.504 43.8991C120.116 38.8664 124.668 36.2809 127.138 36.327C129.608 36.3732 130.583 38.0277 130.583 38.0277Z" fill="#404040"/>
<path d="M129.689 37.4813C132.042 39.1973 135.216 42.2292 133.574 45.4843C132.298 47.6466 129.308 48.2699 127.057 48.6162C129.491 48.6932 132.68 48.1391 134.08 45.7921C135.978 42.2754 132.562 38.8203 129.689 37.4736V37.4813Z" fill="#404040"/>
<path d="M128.208 56.5504C128.208 56.5504 125.775 56.5042 124.382 53.9417C122.989 51.3792 124.25 49.3554 126.486 47.8472C128.721 46.3389 133.2 45.7926 134.571 49.2092C135.883 52.5027 133.354 55.9732 131.404 56.7505C129.462 57.5277 128.208 56.5504 128.208 56.5504Z" fill="#404040"/>
<path d="M129.073 56.6811C126.749 56.0731 123.392 54.765 123.693 51.7023C124.059 49.5861 126.163 48.1548 127.805 47.1006C125.848 47.8239 123.517 49.286 123.106 51.6099C122.659 55.0112 126.39 56.6195 129.066 56.6734L129.073 56.6811Z" fill="#404040"/>
<path d="M133.244 65.3076C133.244 65.3076 133.559 65.2615 134.036 65.123C132.621 63.2684 132.555 61.7756 132.555 61.7756C133.325 63.1761 134.446 64.1303 135.238 64.6843C135.971 64.3534 136.792 63.8533 137.466 63.1068C139.145 61.2677 139.819 58.8591 139.819 58.8591C137.041 55.5425 134.49 54.9961 133.317 54.9423C132.885 54.9192 132.636 54.9731 132.636 54.9731L129.77 56.8122C129.081 61.3216 133.237 65.3 133.237 65.3L133.244 65.3076Z" fill="#404040"/>
<path d="M132.511 55.1421C134.974 54.6342 137.378 55.6731 139.218 57.3506C139.482 57.5969 139.731 57.8508 140.01 58.0971C139.805 57.797 139.585 57.4968 139.358 57.2044C137.723 55.2345 134.901 54.0571 132.511 55.1421Z" fill="#404040"/>
<path d="M123.217 27.709C125.166 27.3396 126.808 28.794 127.321 31.7797C127.93 35.2964 125.811 37.1433 123.862 37.5203C121.912 37.8897 120.49 35.712 120.358 32.3569C120.248 29.5943 120.974 28.1399 123.217 27.709Z" fill="#AD49EB"/>
<path d="M116.488 59.2048C112.904 62.1059 97.1516 72.1557 90.8991 71.8095C86.6917 71.5786 81.9419 58.3737 80.432 54.0875C79.8969 52.5485 91.5295 47.4774 92.5337 48.8779C93.8238 50.6632 95.9348 58.2352 96.6458 58.2891C97.8919 58.3814 107.216 56.2114 113.578 55.2033C117.39 54.5954 118.504 57.5734 116.488 59.2048Z" fill="#F6A8A0"/>
<path d="M81.2821 56.4885C80.4465 55.2726 76.1511 48.3701 75.5721 46.5001C74.993 44.6379 73.6883 39.1436 75.0076 38.528C76.3197 37.9123 76.8255 39.4899 76.8255 39.4899C76.8255 39.4899 76.5689 36.8504 78.0056 36.5888C79.1491 36.381 79.97 38.5587 79.97 38.5587C79.97 38.5587 79.8381 35.6577 81.2894 35.5807C82.6161 35.5115 82.9313 38.097 82.9313 38.097C82.9313 38.097 83.0559 35.6577 84.3387 35.85C85.8853 36.0809 85.6801 40.3132 86.4644 42.3217C86.6403 42.7757 90.7231 51.2942 90.7231 51.2942L81.2894 56.4808L81.2821 56.4885Z" fill="#F6A8A0"/>
<path d="M83.0192 38.0199C83.1658 41.2057 83.3197 42.5138 84.7564 45.1841C84.7857 45.2379 84.7197 45.2918 84.6831 45.2379C83.0558 42.7601 82.7699 41.2134 82.8799 38.0045C82.8872 37.8506 83.0192 37.8737 83.0265 38.0199H83.0192ZM79.9919 38.5739C80.1092 41.8136 80.6369 43.2757 81.9416 46.1844C81.9636 46.2229 81.8977 46.2614 81.8757 46.2229C80.3657 43.4757 79.6034 41.8059 79.8966 38.5508C79.9112 38.4046 79.9919 38.4277 79.9992 38.5739H79.9919ZM76.884 39.6435C77.2138 42.7755 77.661 44.453 79.2735 47.1078C79.3102 47.1694 79.2296 47.231 79.1856 47.1771C77.2871 44.6377 76.7154 42.5446 76.796 39.6666C76.8033 39.4666 76.862 39.4512 76.884 39.6435Z" fill="#263138"/>
<path d="M93.0394 53.1182C93.0394 53.1182 93.9776 49.2552 93.8823 47.5007C93.787 45.7462 93.0101 40.7213 91.8226 39.8671C90.4886 38.9129 88.8247 43.1222 88.9786 46.2464C88.9786 46.2464 84.3754 47.9855 84.3827 50.9943C84.3974 54.0031 93.0394 53.1182 93.0394 53.1182Z" fill="#F6A8A0"/>
<path d="M88.8825 46.5693C87.0647 47.1772 84.9976 48.6778 84.5285 50.617C84.5138 50.6709 84.4332 50.6632 84.4405 50.6016C84.6751 48.4546 87.0573 46.6925 88.7066 46.2538C89.0218 46.1692 89.3516 46.4154 88.8825 46.5693Z" fill="#263138"/>
<path d="M102.348 70.0317L98.0893 56.9192C98.0893 56.9192 96.5793 57.3193 96.8286 58.589C97.0778 59.8587 98.5364 60.0665 98.5364 60.0665C98.5364 60.0665 97.4589 60.5975 97.7741 61.8518C98.0893 63.1061 99.5553 63.0291 99.5553 63.0291C99.5553 63.0291 98.3019 63.8294 98.7124 65.1068C99.1228 66.3842 100.633 66.3765 100.633 66.3765C100.633 66.3765 99.3207 66.8767 99.8265 68.4158C100.435 70.2472 102.348 70.0394 102.348 70.0394V70.0317Z" fill="white"/>
<path d="M101.887 70.4857L97.6941 56.8114C97.6941 56.8114 105.068 54.6567 112.354 54.1719C119.64 53.6871 119.963 58.0965 115.22 62.0826C110.478 66.0687 101.887 70.4857 101.887 70.4857Z" fill="#AD49EB"/>
<path d="M115.219 62.0752C110.477 66.0613 101.886 70.4783 101.886 70.4783L100.244 65.1225L117.023 54.8726C119.39 56.2423 118.569 59.2588 115.219 62.0752Z" fill="black" fill-opacity="0.101961"/>
<path d="M100.472 56.9964C101.908 60.7286 103.264 64.5146 104.357 68.3468C104.371 68.4006 104.291 68.4237 104.269 68.3699C102.773 64.6531 101.52 60.8363 100.376 57.0195C100.354 56.9579 100.45 56.9349 100.472 56.9964Z" fill="#263138"/>
<path d="M136.821 79.674C136.828 79.6433 110.045 79.7048 110.045 79.7048C109.971 79.6125 109.422 61.8828 110.594 55.6805C111.393 51.4405 114.941 50.3555 118.269 52.0638C127.285 56.6963 136.821 79.674 136.821 79.674Z" fill="#AD49EB"/>
<path d="M117.558 53.1567C117.404 53.8647 114.186 58.4587 111.108 58.3125C110.103 58.2586 110.118 52.5027 110.118 52.5027L110.03 52.0794L108.755 46.1157L116.385 41.0215C116.385 41.0215 117.624 52.8566 117.558 53.1567Z" fill="#F6A8A0"/>
<path d="M108.755 46.1155L110.03 52.0716L110.118 52.5025C110.118 52.5025 110.118 53.5491 110.191 54.7495C114.391 54.0877 116.312 50.7788 117.147 48.4934C116.81 45.0767 116.385 41.0291 116.385 41.0291L108.755 46.1232V46.1155Z" fill="#263138"/>
<path d="M101.557 33.3569C95.7 44.9073 101.623 49.9015 103.997 51.2251C106.152 52.4255 113.636 56.2346 120.6 45.3767C127.563 34.5189 124.301 28.0088 119.508 24.9846C114.714 21.9604 107.406 21.8065 101.549 33.3569H101.557Z" fill="#F6A8A0"/>
<path d="M103.411 33.9112C103.69 34.0035 103.968 34.042 104.254 34.1035C104.577 34.1728 104.826 34.2651 105.149 34.1266C105.317 34.0497 105.42 33.788 105.368 33.6111C105.244 33.1878 104.87 33.0031 104.482 32.9031C104.064 32.7954 103.712 32.8261 103.323 33.0185C102.942 33.2032 103.045 33.8034 103.411 33.9189V33.9112ZM110.983 37.9126C110.727 37.7587 110.521 37.5664 110.287 37.3817C110.023 37.1739 109.788 37.0431 109.671 36.6968C109.613 36.5121 109.73 36.2582 109.891 36.1812C110.272 35.9966 110.653 36.1658 110.983 36.3967C111.342 36.6506 111.555 36.9431 111.68 37.3817C111.797 37.8049 111.313 38.1204 110.983 37.9126ZM109.275 38.9438C110.551 39.4594 109.473 42.1065 108.293 41.6294C107.128 41.16 108.205 38.5129 109.275 38.9438Z" fill="#263138"/>
<path d="M109.707 39.3055C109.869 39.5517 109.971 39.9134 110.228 40.0596C110.521 40.2289 110.866 40.0596 111.173 39.8826C111.203 39.8672 111.217 39.898 111.203 39.9288C111.005 40.4367 110.609 40.8753 110.059 40.7214C109.561 40.5752 109.4 39.9749 109.488 39.4132C109.502 39.3055 109.641 39.2054 109.7 39.3055H109.707ZM103.755 36.1274C102.539 35.4733 101.381 38.0819 102.509 38.6899C103.624 39.2824 104.774 36.6737 103.755 36.1274Z" fill="#263138"/>
<path d="M103.162 36.0503C102.906 36.0964 102.598 36.2503 102.356 36.1503C102.077 36.0349 101.997 35.6578 101.945 35.3038C101.938 35.2654 101.909 35.2807 101.894 35.3115C101.66 35.804 101.586 36.3965 102.004 36.7197C102.385 37.0122 102.876 36.7274 103.206 36.2888C103.265 36.2042 103.265 36.0349 103.162 36.0503ZM105.911 45.977C105.654 46.1001 105.368 46.2925 105.068 46.2079C104.782 46.1232 104.504 45.8616 104.291 45.6615C104.269 45.6384 104.232 45.6615 104.24 45.6923C104.335 46.0924 104.694 46.4618 105.09 46.5388C105.471 46.6157 105.772 46.3541 105.977 46.0463C106.006 46.0001 105.955 45.9616 105.911 45.977Z" fill="#263138"/>
<path d="M103.902 41.5289C103.902 41.5289 103.228 42.6755 102.986 43.2449C102.964 43.2988 103.089 43.3834 103.265 43.4835C103.272 43.4912 103.272 43.4989 103.287 43.4912C104.188 44.0991 105.31 44.1991 106.241 43.6451C106.299 43.6066 106.255 43.5143 106.189 43.5296C105.237 43.7528 104.379 43.5296 103.514 43.1449C103.543 42.9679 104.738 41.2057 104.643 41.1826C104.254 41.0749 103.543 40.9518 103.279 40.9056C103.697 40.1515 104.995 38.0738 105.757 36.704C105.808 36.6194 105.684 36.527 105.632 36.604C104.181 38.5201 103.455 39.5435 102.517 41.1441C102.444 41.2673 103.646 41.5366 103.902 41.5443V41.5289Z" fill="#263138"/>
<path d="M103.499 43.0603C103.499 43.0603 103.602 44.0919 104.152 44.777C104.357 45.0311 104.606 45.2389 104.944 45.339C105.626 45.5392 105.963 44.9772 106.124 44.4229C106.264 43.9687 106.278 43.5068 106.278 43.5068C106.278 43.5068 104.936 43.8224 103.499 43.0603Z" fill="#263138"/>
<path d="M104.159 44.7766C104.364 45.0307 104.613 45.2385 104.951 45.3386C105.633 45.5388 105.97 44.9768 106.131 44.4225C105.457 44.0992 104.577 44.1685 104.159 44.7843V44.7766Z" fill="#FF99BA"/>
<path d="M119.911 46.4002C117.77 44.1456 118.635 41.2676 118.635 41.2676C115.931 38.6127 115.095 35.3423 115.007 35.0037C115 35.2884 114.934 37.32 114.934 38.3588C108.029 34.0957 107.787 27.2855 107.787 27.2855C104.518 28.8861 103.484 30.3174 102.861 30.9868C102.861 30.9868 104.452 26.2005 107.882 23.8919C112.082 21.0678 115.725 23.2917 115.725 23.2917C115.725 23.2917 122.095 23.6764 124.807 30.4713C127.724 37.7971 119.903 46.4002 119.903 46.4002H119.911Z" fill="#404040"/>
<path d="M109.759 34.9421C110.697 36.0886 111.848 37.0505 113.05 37.8431C113.057 37.8508 113.072 37.8354 113.057 37.8277C111.188 36.4195 109.708 34.5573 108.813 32.318C108.432 31.3715 108.168 30.3865 108.022 29.3708C107.868 28.3088 107.787 27.0776 108.058 26.0311C108.08 25.9541 107.963 25.9156 107.941 26.0003C107.655 27.1084 107.406 28.1318 107.472 29.2861C107.538 30.3865 107.795 31.4792 108.234 32.4796C108.623 33.3722 109.143 34.1956 109.759 34.9421Z" fill="#263138"/>
<path d="M118.401 45.2842C118.401 45.2842 122.432 42.6448 123.671 44.307C124.917 45.9691 120.82 50.5785 118.613 50.4708C116.407 50.363 116.458 48.2161 116.458 48.2161L118.401 45.2842Z" fill="#F6A8A0"/>
<path d="M122.469 45.5997C122.499 45.6074 122.491 45.6612 122.455 45.6612C120.886 45.6305 119.654 46.6154 118.614 47.7466C119.222 47.408 119.882 47.3619 120.343 48.1545C120.365 48.193 120.314 48.2391 120.278 48.216C119.779 47.8467 119.347 47.7697 118.79 48.0621C118.394 48.2699 118.049 48.6008 117.705 48.8932C117.595 48.9932 117.404 48.824 117.507 48.7008C117.514 48.6931 117.521 48.6854 117.529 48.6701C118.218 46.8617 120.563 44.9533 122.469 45.592V45.5997Z" fill="#263138"/>
<path d="M117.587 58.4277C112.126 72.3944 106.929 90.5011 105.749 94.8027C104.979 97.596 119.31 99.5044 119.903 97.6114C120.658 95.1874 122.645 77.4424 123.422 62.5984C123.891 53.7567 118.994 54.8263 117.587 58.4353V58.4277ZM100.992 101.051C99.6506 101.644 89.286 101.99 89.2933 104.345C89.3007 106.699 102.473 106.045 102.473 106.045L100.992 101.051Z" fill="#F6A8A0"/>
<path d="M119.786 96.9421C120.116 100.897 117.448 105.384 115.872 105.845C114.78 106.169 103.059 105.938 101.227 106.053C99.3944 106.169 92.8561 105.992 92.7095 104.306C92.497 101.921 99.7756 101.821 100.985 101.044C102.202 100.266 105.75 94.7952 105.75 94.7952L119.786 96.9421Z" fill="#F6A8A0"/>
<path d="M92.5405 104.275C92.6285 104.714 92.951 105.083 93.2882 105.337C94.0871 105.93 95.1426 105.976 96.0882 106.061C97.5102 106.184 98.9615 106.23 100.384 106.099C100.413 106.099 100.413 106.045 100.384 106.045C99.3134 106.03 98.2432 106.015 97.173 105.922C96.2128 105.838 95.1939 105.768 94.2704 105.453C93.8526 105.314 93.4421 105.107 93.1489 104.745C92.951 104.499 92.8264 104.168 92.929 103.837C93.2442 102.798 95.1939 102.49 96.0955 102.282C97.2757 102.005 98.4924 101.767 99.6726 101.513C99.7239 101.505 99.7019 101.421 99.6506 101.428C98.4191 101.682 97.1291 101.782 95.8903 102.013C94.8934 102.205 93.8232 102.413 93.0096 103.113C92.6724 103.406 92.4452 103.806 92.5332 104.275H92.5405Z" fill="#263138"/>
<path d="M123.693 77.0348L110.866 73.7798C110.866 73.7798 110.375 75.3342 111.533 75.7882C112.684 76.2422 113.637 75.0726 113.637 75.0726C113.637 75.0726 113.483 76.3115 114.663 76.7039C115.843 77.0964 116.569 75.7497 116.569 75.7497C116.569 75.7497 116.539 77.2888 117.785 77.612C119.031 77.9352 119.838 76.5885 119.838 76.5885C119.838 76.5885 119.537 78.0198 121.047 78.3892C122.85 78.8355 123.701 77.0271 123.701 77.0271L123.693 77.0348Z" fill="white"/>
<path d="M123.81 77.681L110.565 74.072C110.565 74.072 112.786 66.3846 116.297 59.6667C119.808 52.9488 123.532 55.0265 124.191 61.3596C124.851 67.6927 123.803 77.681 123.803 77.681H123.81Z" fill="#9747FF"/>
<path d="M112.208 71.7095C115.983 72.4328 119.75 73.2639 123.415 74.3489C123.467 74.3643 123.437 74.449 123.386 74.4413C119.596 73.7718 115.858 72.8407 112.178 71.8095C112.12 71.7941 112.149 71.7018 112.215 71.7095H112.208ZM115.022 62.3368C114.348 63.7835 113.732 65.2456 113.153 66.723C113.256 66.2075 113.359 65.6842 113.461 65.1609C113.476 65.0917 113.366 65.084 113.351 65.1532C113.249 65.638 113.153 66.1228 113.051 66.6076C112.999 66.8385 112.955 67.077 112.904 67.3079C112.897 67.3463 112.889 67.3925 112.882 67.431C112.809 67.6311 112.728 67.8311 112.655 68.0312L112.648 68.0389V68.0543C112.626 68.1082 112.611 68.162 112.589 68.2159C111.878 70.1474 111.064 72.1096 110.654 74.1104C110.639 74.1796 110.742 74.1873 110.771 74.1335C111.695 72.2558 112.296 70.2243 113.014 68.2698C113.732 66.2998 114.436 64.3298 115.074 62.3445C115.081 62.3137 115.044 62.306 115.03 62.3291L115.022 62.3368ZM124.375 71.9096V71.6018C124.427 71.4248 124.485 71.2478 124.529 71.0785C124.61 70.7938 124.676 70.509 124.735 70.2166C124.859 69.6318 124.947 69.0393 125.035 68.4467C125.042 68.4237 124.999 68.416 124.991 68.439C124.852 69.0162 124.698 69.5856 124.566 70.1628C124.507 70.4398 124.441 70.7168 124.39 70.9938C124.383 71.0169 124.383 71.0477 124.375 71.0708C124.405 69.4625 124.405 67.8619 124.331 66.2536C124.331 66.2152 124.258 66.2152 124.251 66.2536C124.053 68.1774 123.943 70.0935 123.877 72.025C123.818 73.8487 123.65 75.7264 123.804 77.5424C123.672 77.5347 123.533 77.5193 123.401 77.5193C123.342 77.5193 123.313 77.5886 123.371 77.6117C123.54 77.6809 123.723 77.7271 123.892 77.7964C123.972 77.8271 124.068 77.7733 124.082 77.6963C124.383 75.7956 124.309 73.8257 124.361 71.9173L124.375 71.9096Z" fill="#263138"/>
<path d="M89.5794 9.76015C68.8936 -3.73983 49.8171 28.4041 70.535 41.9226C91.2208 55.4226 110.297 23.2786 89.5794 9.76015Z" fill="#FFC626"/>
<path d="M89.5794 9.76015C68.8936 -3.73983 49.8171 28.4041 70.535 41.9226C91.2208 55.4226 110.297 23.2786 89.5794 9.76015Z" fill="black" fill-opacity="0.101961"/>
<path d="M91.5245 11.0288C71.8096 -1.83314 52.7331 30.3108 72.4802 43.1913C92.1951 56.0532 111.272 23.9093 91.5245 11.0288Z" fill="#FFDB4D"/>
<path d="M92.2085 37.9461C87.8798 42.7909 81.0393 44.9868 74.1014 40.4564C57.7161 29.7663 73.5471 3.08206 89.9067 13.7574C90.0124 13.8271 90.1182 13.8967 90.2204 13.9731C74.6332 4.2516 59.7371 29.5784 75.3595 39.7766C81.7301 43.9365 88.0397 42.1808 92.2021 37.9424L92.2085 37.9461Z" fill="black" fill-opacity="0.101961"/>
<path d="M87.9354 17.0987C87.6491 16.9426 87.271 17.0584 87.1223 17.3589L86.6522 18.2906C84.9867 17.5422 83.553 17.4539 81.8805 17.7108C81.6031 17.7617 81.4198 17.8405 81.3 18.0699C81.1372 18.3975 81.2703 18.7988 81.5823 18.9697C81.7173 19.0474 81.8406 19.0833 82.0625 19.0268C83.6087 18.7235 84.9094 18.8581 86.1537 19.3728L82.8503 25.8874C79.106 24.7494 77.0134 25.2823 75.8547 27.564C74.6073 30.0317 75.6949 32.8784 78.4138 34.523L77.4919 36.3356C77.3397 36.6429 77.4534 37.0331 77.7397 37.1892C78.0325 37.349 78.4042 37.2295 78.5529 36.929L79.4889 35.0895C81.5027 36.0033 83.4528 36.1433 85.6237 35.6204C85.852 35.5676 86.0096 35.474 86.1153 35.2716C86.2675 34.9643 86.145 34.5427 85.8558 34.3761C85.6566 34.2614 85.4787 34.2819 85.3757 34.3191C83.5166 34.8371 81.8055 34.7998 79.9803 34.0208L83.3436 27.3915C87.06 28.487 89.0864 27.9688 90.2599 25.6428C91.4538 23.2936 90.4102 20.4107 87.7415 18.8301L88.1869 17.9456C88.3355 17.645 88.2253 17.248 87.939 17.0919L87.9354 17.0987ZM83.9406 26.2168L87.1594 19.8641C89.2825 21.113 90.0183 23.2569 89.1704 24.9277C88.3684 26.5109 87.1632 27.0895 83.9342 26.2132L83.9406 26.2168ZM82.2457 27.0927L78.9881 33.5197C76.7943 32.2301 76.0392 30.0751 76.9365 28.3098C77.7491 26.7064 79.0221 26.1581 82.2457 27.0927Z" fill="black" fill-opacity="0.101961"/>
</svg>
