<svg width="72" height="66" viewBox="0 0 72 66" fill="none" xmlns="http://www.w3.org/2000/svg">
<path d="M61.8474 23.6056C61.5547 24.6644 61.362 25.7484 61.2717 26.8432C61.3018 26.8974 61.2958 27.0994 61.2717 27.0421C61.2717 27.223 60.9944 27.1898 60.9944 27.012V26.6713C60.3613 25.8846 59.4389 25.3842 58.6943 24.6999C58.0938 24.1625 57.6571 23.4667 57.4343 22.6923C56.8163 20.561 57.3951 18.3062 56.6505 16.1811C56.0115 14.3513 54.8599 12.7566 53.8893 11.0987C52.8614 9.34429 52.1047 7.49945 52.0294 5.4436C51.9691 3.87005 52.156 1.772 53.3557 0.593352C54.6248 -0.657644 56.2014 0.291908 57.175 1.3952C59.9936 4.63271 61.2988 8.72332 61.8263 12.9074C62.1278 15.2225 62.4292 17.5526 62.3509 19.8888C62.3065 21.1414 62.1379 22.3864 61.8474 23.6056Z" fill="#AD49EB"/>
<path d="M61.2837 27.7053C61.4385 25.5204 61.4123 23.3265 61.2053 21.1459V21.1218C61.2415 19.3493 61.3832 17.5828 61.3108 15.8073C61.226 13.8873 60.9646 11.9791 60.5301 10.107C60.5301 10.0859 60.4939 10.107 60.4969 10.107C60.8457 11.9496 61.0563 13.8157 61.1269 15.6897C61.1631 16.6905 61.1541 17.6943 61.1028 18.7042C61.0847 19.0297 61.0546 19.3583 61.0335 19.6869C60.297 14.709 58.4979 9.9479 55.7582 5.72699C55.719 5.66972 55.6195 5.727 55.6557 5.7903C57.6113 8.99912 59.0592 12.4909 59.9483 16.1419C58.5918 13.6279 56.542 11.5599 55.0227 9.14538H54.9986C56.3641 11.8343 58.6159 13.9685 60.0598 16.6031C60.311 17.6823 60.512 18.7705 60.6627 19.8678C60.8659 21.3717 60.9746 22.8869 60.9883 24.4045C60.1623 22.8611 59.3062 21.3901 58.628 19.7502C58.6099 19.705 58.5496 19.7351 58.5647 19.7803C59.1374 21.4775 59.9121 23.3042 60.9943 24.7512C60.9943 25.8243 60.9672 26.9005 60.9039 27.9736C60.7351 30.8373 60.2467 33.6619 60.0206 36.5166C60.0238 36.5314 60.032 36.5446 60.0438 36.5541C60.0556 36.5636 60.0703 36.5688 60.0854 36.5688C60.1006 36.5688 60.1153 36.5636 60.1271 36.5541C60.1389 36.5446 60.147 36.5314 60.1503 36.5166C60.7277 33.6086 61.1064 30.6647 61.2837 27.7053Z" fill="#263238"/>
<path d="M58.2421 5.62151C58.2421 5.61751 58.2405 5.61368 58.2377 5.61085C58.2349 5.60802 58.231 5.60643 58.227 5.60643C58.223 5.60643 58.2192 5.60802 58.2164 5.61085C58.2136 5.61368 58.212 5.61751 58.212 5.62151C58.7335 7.06844 59.0289 8.53346 59.4177 10.0166C59.4178 10.0244 59.4195 10.0322 59.4229 10.0394C59.4262 10.0465 59.4311 10.0528 59.4371 10.0579C59.4432 10.0629 59.4502 10.0666 59.4578 10.0687C59.4654 10.0707 59.4734 10.0711 59.4812 10.0698C59.4889 10.0685 59.4963 10.0655 59.5028 10.061C59.5093 10.0565 59.5147 10.0507 59.5187 10.0439C59.5227 10.0371 59.5252 10.0295 59.526 10.0217C59.5268 10.0138 59.5258 10.0059 59.5232 9.99848C59.3106 8.48511 58.879 7.01069 58.2421 5.62151Z" fill="#263238"/>
<path d="M71.5268 11.6835C71.1761 12.5305 70.7734 13.355 70.321 14.1523C69.3805 15.8645 68.3978 17.4321 68.2109 19.4216C68.1815 20.3131 68.0541 21.1986 67.831 22.0622C67.5849 22.7999 67.2303 23.4969 66.779 24.1302C65.7601 25.6163 64.485 26.8974 63.5385 28.4408C62.5536 30.0492 61.8264 31.8016 61.3831 33.6347C61.359 33.7372 61.2023 33.7101 61.2264 33.6076C61.2268 33.6006 61.2268 33.5935 61.2264 33.5865C61.2248 33.5832 61.224 33.5796 61.224 33.5759C61.224 33.5723 61.2248 33.5687 61.2264 33.5654C61.0757 29.2939 61.4163 24.9893 62.7336 20.9047C63.3094 19.1068 64.0001 17.3478 64.8015 15.6385C65.4569 14.1268 66.4069 12.7608 67.5959 11.6202C68.3887 10.9028 70.113 9.54627 71.2464 10.2637C71.777 10.6043 71.7378 11.15 71.5268 11.6835Z" fill="#AD49EB"/>
<path d="M67.2342 21.3629C66.4818 22.6035 65.6522 23.7955 64.7503 24.932C64.3373 25.4716 63.9183 26.0051 63.5053 26.5477C63.3124 26.8009 63.0923 27.0572 62.9024 27.3315C63.014 26.8823 63.1255 26.4272 63.2401 25.984C63.7887 23.8257 64.3192 21.6493 65.1392 19.5753C65.9794 17.5648 66.971 15.6209 68.1054 13.7605C68.1355 13.7122 68.0541 13.676 68.024 13.7243C67.1196 15.2074 66.2153 16.6905 65.4496 18.2459C65.03 19.1189 64.6646 20.0169 64.3554 20.9348C64.7023 18.9872 65.1888 17.0671 65.8114 15.1893C65.8114 15.1742 65.7933 15.1622 65.7842 15.1893C64.9706 17.0891 64.462 19.1055 64.277 21.1639C64.0921 21.7186 63.9203 22.2783 63.7616 22.843C63.0893 25.2334 62.4985 27.648 61.9529 30.0777C61.9477 28.4875 62.089 26.9002 62.3749 25.3359C62.3749 25.2998 62.3297 25.2907 62.3207 25.3359C61.9038 26.9701 61.7642 28.6626 61.9077 30.3429C61.7067 31.2613 61.5057 32.1827 61.3048 33.1072C60.8858 35.0756 60.3703 37.0802 60.1231 39.0788C60.1256 39.0877 60.1309 39.0956 60.1382 39.1012C60.1456 39.1068 60.1546 39.1098 60.1638 39.1098C60.1731 39.1098 60.182 39.1068 60.1894 39.1012C60.1968 39.0956 60.2021 39.0877 60.2045 39.0788C60.506 38.0026 60.6717 36.8843 60.9129 35.7961C61.1541 34.7078 61.4012 33.6076 61.6545 32.5163C62.0252 30.9277 62.4141 29.3421 62.809 27.7595C63.0743 27.1808 63.5867 26.6653 63.9696 26.177C64.3524 25.6886 64.8106 25.1098 65.2206 24.5672C65.987 23.5625 66.6734 22.4992 67.2734 21.387C67.2824 21.3569 67.2553 21.3418 67.2342 21.3629Z" fill="#263238"/>
<path d="M67.4151 19.5361C66.4818 20.7367 65.6737 22.0296 65.0035 23.3946C65.0035 23.4127 65.0216 23.4308 65.0306 23.4157C65.8475 22.1346 66.6524 20.8444 67.4693 19.5602C67.4663 19.5391 67.4301 19.518 67.4151 19.5361Z" fill="#263238"/>
<path d="M49.2349 15.7319C49.7896 16.6845 50.4226 17.842 50.1845 18.9724C50.0338 19.6989 49.5032 20.2867 49.4068 21.0253C49.1927 22.6561 50.8175 23.7383 51.9962 24.5039C54.9262 26.4302 58.9475 28.1454 59.481 32.0732C59.5021 32.2119 59.7433 32.1787 59.7252 32.0401C59.7266 32.0321 59.7266 32.0239 59.7252 32.0159C59.7252 32.0159 59.7403 32.0159 59.7403 31.9918C60.1247 30.0078 60.1063 27.9668 59.686 25.9901C59.2489 23.9644 58.3627 22.1466 57.3197 20.3681C55.5562 17.3537 53.7024 14.2729 51.0195 11.9669C50.281 11.3308 48.7677 10.1823 48.1799 11.6232C47.5921 13.0641 48.5657 14.5683 49.2349 15.7319Z" fill="#AD49EB"/>
<path d="M51.9208 22.1134C53.8652 24.2236 56.955 25.3992 58.628 27.7565C57.6947 24.1678 55.9287 20.8496 53.4733 18.0711C53.4624 18.0566 53.4571 18.0386 53.4584 18.0205C53.4597 18.0024 53.4675 17.9854 53.4803 17.9726C53.4931 17.9597 53.5101 17.952 53.5282 17.9507C53.5463 17.9494 53.5643 17.9547 53.5788 17.9656C55.372 19.7029 56.8059 21.776 57.799 24.0668C57.3392 22.4684 56.7338 20.9155 55.9903 19.4276C55.9632 19.3703 56.0446 19.3191 56.0778 19.3763C57.0015 21.0003 57.6618 22.7605 58.0341 24.5913C60.2377 29.9299 60.4457 36.1909 59.9815 41.8189C59.9815 41.8973 59.8519 41.9003 59.8549 41.8189C59.9815 37.3846 59.9091 32.872 58.845 28.5403C58.8239 28.4498 58.7998 28.3624 58.7757 28.272C56.967 25.7338 53.8772 24.5582 51.8997 22.1466C51.8983 22.143 51.8977 22.1392 51.8981 22.1354C51.8984 22.1315 51.8997 22.1278 51.9017 22.1246C51.9038 22.1213 51.9066 22.1186 51.9099 22.1167C51.9133 22.1148 51.917 22.1136 51.9208 22.1134Z" fill="#263238"/>
<path d="M51.4686 20.3078C52.4905 21.2423 53.4943 22.2009 54.5162 23.1354C54.5162 23.1354 54.5162 23.1625 54.5012 23.1565C53.3452 22.3758 52.3042 21.4372 51.4083 20.3681C51.3752 20.3259 51.4294 20.2686 51.4686 20.3078ZM51.3089 16.2504C52.2107 17.7309 53.232 19.1353 54.3625 20.4495C54.3661 20.4531 54.3681 20.458 54.3681 20.4631C54.3681 20.4682 54.3661 20.473 54.3625 20.4766C54.3589 20.4802 54.354 20.4822 54.3489 20.4822C54.3438 20.4822 54.339 20.4802 54.3354 20.4766C53.0693 19.2749 52.0262 17.8583 51.2546 16.2926C51.2518 16.289 51.2498 16.2849 51.2486 16.2806C51.2474 16.2762 51.2471 16.2717 51.2476 16.2672C51.2482 16.2627 51.2496 16.2584 51.2519 16.2545C51.2541 16.2506 51.2571 16.2471 51.2606 16.2443C51.2642 16.2416 51.2683 16.2395 51.2726 16.2383C51.277 16.2371 51.2815 16.2368 51.286 16.2374C51.2905 16.2379 51.2948 16.2394 51.2987 16.2416C51.3026 16.2438 51.3061 16.2468 51.3089 16.2504Z" fill="#263238"/>
<path d="M55.9029 45.7859H64.8437L63.6379 33.7582H57.2805L55.9029 45.7859Z" fill="#455A64"/>
<path d="M57.0574 35.7146H63.8338L63.6379 33.7582H57.2805L57.0574 35.7146Z" fill="#263238"/>
<path d="M64.5635 34.3462H56.1833V32.4259H64.5635V34.3462Z" fill="#455A64"/>
<path d="M7.82552 61.7173C8.06969 61.027 20.7153 45.0203 21.5624 44.7248C21.6618 44.6857 27.0788 48.716 27.0788 48.716C27.3019 49.0174 37.8042 47.0309 37.8042 47.0309L37.6444 59.6494L18.6052 58.8475C18.6052 58.8475 16.0097 60.3035 13.6223 61.4882C12.6094 62.0284 11.5656 62.5086 10.4963 62.9261C9.52868 63.1522 7.56929 62.4136 7.82552 61.7173Z" fill="#F7A9A0"/>
<path d="M10.4843 62.9291C10.855 62.8417 12.1482 62.2237 13.6133 61.4912C15.9886 60.3065 18.5961 58.8475 18.5961 58.8475L22.8314 59.0254L29.6923 48.4537C28.2303 48.6828 27.1421 48.8154 27.0698 48.716C27.0698 48.716 21.6438 44.6856 21.5533 44.7278C20.7063 45.0293 8.06366 61.027 7.81949 61.7143C7.57532 62.4015 9.52868 63.1552 10.4843 62.9291Z" fill="white"/>
<path d="M7.714 61.7354C7.97023 61.027 20.6761 45.0353 21.5413 44.7309C21.8698 44.6133 24.5256 46.3315 27.0788 48.716L18.8795 59.0194C18.8795 59.0194 11.4338 62.7663 10.4391 62.9954C9.4443 63.2245 7.45778 62.4438 7.714 61.7354Z" fill="#263238"/>
<path d="M8.53695 62.0127C10.7315 59.3841 19.3347 48.5743 21.3061 45.8101C21.3212 45.789 21.3061 45.7769 21.2881 45.8101C19.0544 48.3663 10.5385 59.2454 8.49173 61.9916C8.44953 62.0368 8.48872 62.07 8.53695 62.0127ZM11.8347 62.4136C12.0801 62.1219 12.262 61.7823 12.3689 61.4164C12.4758 61.0505 12.5054 60.6664 12.4557 60.2884C12.3708 59.6088 12.0288 58.9875 11.5001 58.5521C11.4821 58.5521 11.4579 58.5702 11.473 58.5853C11.9364 59.1014 12.2182 59.7549 12.2754 60.4462C12.3325 61.1375 12.1619 61.8284 11.7895 62.4136C11.7895 62.4136 11.8167 62.4468 11.8347 62.4136ZM17.942 59.6464C18.8102 58.5853 19.4191 57.0389 19.0724 55.6763C19.0574 55.6221 18.982 55.6432 18.973 55.6763C18.72 57.0047 18.3259 58.3022 17.7973 59.5469C17.7908 59.5564 17.7862 59.5671 17.7838 59.5784C17.7814 59.5896 17.7813 59.6013 17.7833 59.6126C17.7854 59.6239 17.7898 59.6348 17.796 59.6444C17.8023 59.6541 17.8104 59.6624 17.8199 59.669C17.8294 59.6755 17.8401 59.6801 17.8514 59.6825C17.8627 59.6849 17.8743 59.685 17.8857 59.6829C17.897 59.6808 17.9078 59.6765 17.9175 59.6703C17.9271 59.664 17.9355 59.6559 17.942 59.6464ZM16.9623 60.2161C17.8305 59.155 18.4394 57.6116 18.0897 56.2461C18.0897 56.1948 18.0023 56.2159 17.9933 56.2461C17.7398 57.5756 17.3446 58.8742 16.8146 60.1196C16.8018 60.1392 16.7973 60.1631 16.8021 60.186C16.807 60.2089 16.8207 60.2289 16.8402 60.2417C16.8598 60.2545 16.8837 60.259 16.9066 60.2542C16.9295 60.2494 16.9495 60.2357 16.9623 60.2161ZM15.9826 60.7888C16.8478 59.7277 17.4567 58.1844 17.11 56.8188C17.11 56.7676 17.0196 56.7857 17.0136 56.8188C16.7601 58.1484 16.3649 59.447 15.8349 60.6924C15.8221 60.712 15.8176 60.7358 15.8225 60.7587C15.8273 60.7816 15.841 60.8017 15.8605 60.8145C15.8801 60.8273 15.904 60.8317 15.9269 60.8269C15.9498 60.8221 15.9698 60.8084 15.9826 60.7888ZM14.9999 61.3616C15.8681 60.3005 16.477 58.7541 16.1273 57.3916C16.1273 57.3373 16.0399 57.3584 16.0309 57.3916C15.7784 58.72 15.3842 60.0176 14.8552 61.2621C14.842 61.2813 14.837 61.3049 14.8412 61.3278C14.8455 61.3507 14.8586 61.371 14.8778 61.3842C14.897 61.3974 14.9207 61.4024 14.9436 61.3982C14.9665 61.3939 14.9867 61.3808 14.9999 61.3616Z" fill="#263238"/>
<path d="M26.0117 45.2313L45.8226 44.0797C45.8226 44.0797 54.4108 40.6674 61.2174 42.455C69.0248 44.5018 70.2909 54.0063 62.1881 57.277C51.6767 61.5183 19.597 59.0857 19.597 59.0857L27.0065 47.7785C27.0065 47.7785 38.4614 46.4099 48.5266 46.4612L27.9138 48.2698L26.0117 45.2313Z" fill="#37474F"/>
<path d="M36.0438 47.1757C37.2496 46.9767 40.1887 46.7566 41.4156 46.6451C42.6424 46.5336 43.8874 46.4401 45.1233 46.3617C47.5891 46.208 46.8777 46.1568 49.3436 46.2502C49.5757 46.2502 49.8048 46.2713 50.0369 46.2864L50.1906 46.2502C50.3112 46.2261 50.4288 46.199 50.5493 46.1779C50.7724 46.1387 50.9985 46.1116 51.2246 46.0814C51.6918 46.0211 52.1621 45.9819 52.6293 45.9036C52.6595 45.9036 52.6685 45.9427 52.6293 45.9458C52.1591 46.0422 51.6948 46.1658 51.2246 46.2472L50.8176 46.3256C51.722 46.3919 52.6263 46.4793 53.5306 46.5818C53.5352 46.5835 53.5392 46.5866 53.542 46.5906C53.5448 46.5947 53.5463 46.5995 53.5463 46.6044C53.5463 46.6093 53.5448 46.6141 53.542 46.6182C53.5392 46.6222 53.5352 46.6253 53.5306 46.627C52.3037 46.5275 51.0618 46.4914 49.8289 46.4884C48.596 46.4853 47.3781 46.4884 46.1543 46.5306C43.6794 46.621 37.4455 47.3746 36.0559 47.4047C35.9353 47.4198 35.9052 47.1998 36.0438 47.1757ZM23.136 58.8416C23.5942 58.1422 23.986 57.3946 24.405 56.6742L25.6711 54.5038C26.5151 53.0629 29.5356 48.2156 29.831 47.872C29.8491 47.8509 29.8853 47.872 29.8763 47.9021C29.7316 48.2789 27.8415 51.4893 27.4074 52.2068C26.5393 53.6386 25.6289 55.0403 24.7306 56.4511C24.4744 56.855 24.2091 57.2529 23.9499 57.6569C23.6906 58.0608 23.4133 58.4497 23.1721 58.8627C23.1601 58.8928 23.1209 58.8657 23.136 58.8416Z" fill="#263238"/>
<path d="M69.3956 64.0445C69.1846 63.3421 57.3107 46.7566 56.4787 46.422C56.3823 46.3798 50.7784 50.1479 50.7784 50.1479C50.5433 50.4493 40.1464 47.9564 40.1464 47.9564L39.7093 60.5658L58.7667 60.6683C58.7667 60.6683 61.2988 62.2479 63.6169 63.5441C65.0458 64.3459 66.3088 65.0242 66.6736 65.1267C67.6292 65.398 69.6127 64.7408 69.3956 64.0445Z" fill="#F7A9A0"/>
<path d="M66.6827 65.1266C66.3179 65.0241 65.0549 64.3459 63.626 63.544C61.3079 62.2478 58.7758 60.6652 58.7758 60.6652L54.5344 60.6441L48.174 49.7529C49.6239 50.0544 50.7061 50.2322 50.7815 50.1358C50.7815 50.1358 56.3823 46.3677 56.4788 46.4129C57.3107 46.7475 69.1816 63.333 69.3957 64.0354C69.6097 64.7378 67.6292 65.3979 66.6827 65.1266Z" fill="white"/>
<path d="M69.5071 64.0685C69.2841 63.3511 57.3559 46.7717 56.4998 46.428C56.1772 46.2954 53.4431 47.887 50.7723 50.1478L58.4773 60.825C58.4773 60.825 65.736 64.9216 66.7157 65.199C67.6954 65.4763 69.7302 64.786 69.5071 64.0685Z" fill="#263238"/>
<path d="M68.6721 64.3067C66.6042 61.5937 58.5225 50.3739 56.6867 47.5162C56.6716 47.4951 56.6867 47.4831 56.7018 47.5162C58.8119 50.178 66.8032 61.449 68.7174 64.2856C68.7626 64.3338 68.7174 64.364 68.6721 64.3067ZM65.3563 64.5629C65.1268 64.2596 64.9628 63.912 64.8746 63.542C64.7864 63.1721 64.7759 62.7879 64.8438 62.4136C64.9589 61.7391 65.3291 61.1346 65.8777 60.7255C65.8958 60.7255 65.92 60.7436 65.9019 60.7587C65.4231 61.2479 65.1149 61.8785 65.0231 62.5568C64.9313 63.2351 65.0609 63.9249 65.3924 64.5238C65.395 64.5261 65.3971 64.529 65.3985 64.5322C65.4 64.5354 65.4008 64.5388 65.401 64.5423C65.4011 64.5458 65.4006 64.5493 65.3994 64.5526C65.3982 64.5558 65.3963 64.5589 65.3939 64.5614C65.3916 64.564 65.3887 64.5661 65.3855 64.5676C65.3823 64.569 65.3789 64.5699 65.3754 64.57C65.3719 64.5701 65.3684 64.5696 65.3651 64.5684C65.3618 64.5672 65.3588 64.5653 65.3563 64.5629ZM59.3876 61.5093C58.5737 60.406 58.0372 58.8355 58.4502 57.488C58.4502 57.4368 58.5406 57.4609 58.5466 57.5061C58.7365 58.844 59.069 60.1578 59.5384 61.4249C59.5456 61.4444 59.5457 61.4659 59.5385 61.4855C59.5313 61.5051 59.5173 61.5214 59.4991 61.5316C59.4809 61.5418 59.4597 61.5452 59.4393 61.5411C59.4188 61.537 59.4005 61.5257 59.3876 61.5093ZM60.3402 62.1122C59.5263 61.0089 58.9897 59.4384 59.4027 58.0909C59.4178 58.0397 59.4931 58.0638 59.4992 58.109C59.6894 59.4468 60.0219 60.7605 60.4909 62.0278C60.4982 62.0473 60.4982 62.0688 60.491 62.0884C60.4838 62.108 60.4699 62.1243 60.4517 62.1345C60.4335 62.1447 60.4123 62.148 60.3918 62.144C60.3714 62.1399 60.3531 62.1286 60.3402 62.1122ZM61.2928 62.7332C60.4789 61.6299 59.9423 60.0594 60.3553 58.7119C60.3704 58.6607 60.4457 58.6848 60.4517 58.73C60.642 60.0678 60.9744 61.3815 61.4435 62.6488C61.4508 62.6683 61.4508 62.6898 61.4436 62.7094C61.4364 62.7289 61.4225 62.7453 61.4043 62.7555C61.3861 62.7657 61.3648 62.769 61.3444 62.7649C61.324 62.7608 61.3056 62.7496 61.2928 62.7332ZM62.2453 63.3481C61.4314 62.2478 60.8949 60.6773 61.3078 59.3299C61.3229 59.2786 61.3983 59.3027 61.4043 59.3479C61.5945 60.6858 61.927 61.9995 62.3961 63.2667C62.4069 63.2867 62.4093 63.3102 62.4028 63.3319C62.3963 63.3537 62.3814 63.372 62.3614 63.3828C62.3414 63.3936 62.318 63.396 62.2962 63.3895C62.2744 63.383 62.2561 63.3681 62.2453 63.3481Z" fill="#263238"/>
<path d="M40.8669 45.0022L37.1712 44.7942C37.1712 44.7942 25.858 41.3125 20.23 42.048C12.504 43.0368 11.3916 53.1472 16.9593 56.6621C24.0161 61.1114 56.6535 61.1536 56.6535 61.1536L50.073 49.2827C50.073 49.2827 38.805 46.7475 29.1769 46.8139L40.8337 46.7596L40.8669 45.0022Z" fill="#37474F"/>
<path d="M50.4951 50.0544C50.4937 50.0343 50.4937 50.0142 50.4951 49.9941C50.4968 49.9781 50.4968 49.9619 50.4951 49.9459C50.4892 49.907 50.4802 49.8687 50.4679 49.8313C50.448 49.7527 50.4238 49.6752 50.3956 49.5992C50.3675 49.5248 50.3373 49.4495 50.3052 49.3731C50.2686 49.3011 50.2274 49.2316 50.1816 49.1651H50.1273C48.9667 48.9179 38.4282 47.5524 37.2526 47.3866C36.077 47.2208 34.8802 47.0851 33.6895 46.9465C31.3172 46.6842 30.8559 46.5214 28.4685 46.4973H27.7661L27.6214 46.4581L27.2808 46.3707C27.0668 46.3255 26.8497 46.2863 26.6327 46.2471C26.1836 46.1657 25.7284 46.1085 25.2852 46.012C25.2797 46.012 25.2743 46.0142 25.2703 46.0182C25.2664 46.0221 25.2642 46.0275 25.2642 46.0331C25.2642 46.0387 25.2664 46.0441 25.2703 46.048C25.2743 46.052 25.2797 46.0542 25.2852 46.0542C25.7344 46.1657 26.1896 46.3074 26.6237 46.419L27.0125 46.5124C26.1383 46.5335 25.2611 46.5787 24.3869 46.633C24.3598 46.633 24.3568 46.6782 24.3869 46.6782C25.5746 46.639 26.7744 46.6631 27.9621 46.7144C29.1498 46.7656 30.3224 46.8229 31.501 46.9224C33.8855 47.1213 34.3407 47.3987 36.71 47.7122C38.0394 47.887 48.7346 49.3008 50.073 49.3942C50.073 49.4244 50.0941 49.4545 50.1092 49.4877C50.1243 49.5208 50.1786 49.6324 50.2147 49.7047C50.2509 49.777 50.2871 49.8434 50.3293 49.9097L50.3926 50.0092L50.4257 50.0574C50.4257 50.0725 50.4559 50.0936 50.4589 50.1086C50.4619 50.1237 50.5101 50.0755 50.4951 50.0544Z" fill="#263238"/>
<path d="M54.1727 60.3759C53.7657 59.6826 53.4221 58.944 53.0483 58.2296L51.9269 56.0833C51.1793 54.6545 48.4904 49.8434 48.2191 49.5058C48.2041 49.4847 48.1649 49.5058 48.1739 49.5299C48.2975 49.9007 49.9826 53.0839 50.3564 53.7923C51.1311 55.2121 51.945 56.6048 52.7468 58.0126C52.9729 58.4105 53.211 58.8084 53.4432 59.2183C53.6753 59.6283 53.9255 60.0081 54.1365 60.4241C54.1485 60.4241 54.1877 60.4 54.1727 60.3759Z" fill="#263238"/>
<path d="M36.1493 24.7511C33.0414 26.6623 22.8435 31.1146 19.5216 29.6194C17.3452 28.6397 8.79017 21.1036 8.81127 18.3454C8.81127 17.1396 15.3014 12.1025 16.1515 13.0671C17.0015 14.0317 22.0387 21.3568 22.943 21.6915C23.8473 22.0261 34.0392 20.3078 37.3129 20.2536C42.9529 20.1601 37.8223 23.7232 36.1493 24.7511Z" fill="#F7A9A0"/>
<path d="M23.7599 21.1369C22.8043 20.6636 19.2623 15.9159 19.2623 15.9159L10.2823 24.0699C10.2823 24.0699 16.8056 30.1471 20.3445 30.5118C26.8678 31.184 35.7905 25.9901 37.8283 24.6065C40.7553 22.626 41.5843 20.7812 39.7967 20.1481C39.1034 19.8949 38.0152 19.8286 36.4959 20.0155C33.0142 20.4285 24.6974 21.6011 23.7599 21.1369Z" fill="#31DB9D"/>
<path d="M26.8196 27.5938C26.9764 27.5426 27.1442 27.5353 27.3049 27.5727C27.3924 27.6045 27.4681 27.6622 27.5219 27.7381C27.5758 27.8141 27.6052 27.9046 27.6064 27.9977C27.6055 28.0608 27.6208 28.123 27.6509 28.1784C27.681 28.2338 27.7248 28.2806 27.7782 28.3142C27.8364 28.3531 27.9042 28.375 27.9741 28.3775C28.0495 28.3926 28.1279 28.3986 28.2032 28.4197C28.0449 28.4669 27.8762 28.4669 27.7179 28.4197C27.6336 28.3828 27.5618 28.322 27.5115 28.2449C27.4612 28.1678 27.4344 28.0777 27.4345 27.9856C27.4322 27.9242 27.4144 27.8644 27.3828 27.8117C27.3512 27.759 27.3068 27.7151 27.2537 27.6842C27.1931 27.6493 27.1246 27.6306 27.0547 27.6299C26.9733 27.6209 26.898 27.6118 26.8196 27.5938ZM21.6317 21.4172C21.7019 21.4188 21.7704 21.4385 21.8307 21.4744C21.8842 21.5049 21.9289 21.5487 21.9606 21.6015C21.9923 21.6543 22.0098 21.7143 22.0115 21.7759C22.0107 21.8681 22.0371 21.9586 22.0875 22.0358C22.1379 22.1131 22.2101 22.1737 22.2949 22.21C22.4545 22.2539 22.6237 22.2486 22.7802 22.1949C22.7049 22.1768 22.6265 22.1678 22.5511 22.1527C22.4523 22.1503 22.3583 22.1092 22.2895 22.0381C22.2207 21.967 22.1826 21.8718 22.1834 21.7729C22.1818 21.6799 22.1522 21.5895 22.0984 21.5137C22.0446 21.4378 21.9692 21.38 21.8819 21.3478C21.721 21.3135 21.5539 21.3207 21.3966 21.3689C21.474 21.3895 21.5525 21.4056 21.6317 21.4172ZM15.8289 27.636C15.8988 27.6367 15.9673 27.6554 16.0279 27.6902C16.081 27.7212 16.1254 27.765 16.157 27.8177C16.1886 27.8704 16.2064 27.9302 16.2087 27.9917C16.2086 28.0837 16.2354 28.1738 16.2857 28.2509C16.336 28.328 16.4078 28.3888 16.4921 28.4257C16.6504 28.4729 16.8191 28.4729 16.9774 28.4257C16.9021 28.4046 16.8237 28.3986 16.7483 28.3835C16.6784 28.381 16.6105 28.3591 16.5524 28.3202C16.499 28.2866 16.4552 28.2399 16.4251 28.1845C16.395 28.129 16.3797 28.0668 16.3806 28.0037C16.3794 27.9106 16.35 27.8201 16.2961 27.7442C16.2423 27.6683 16.1666 27.6105 16.0791 27.5787C15.9184 27.5413 15.7506 27.5486 15.5938 27.5998C15.6752 27.6118 15.7505 27.6209 15.8289 27.636ZM18.2405 18.2249C18.3106 18.2265 18.3792 18.2462 18.4394 18.2821C18.4931 18.3124 18.538 18.3561 18.5697 18.4089C18.6014 18.4618 18.6188 18.522 18.6203 18.5836C18.6204 18.676 18.6476 18.7663 18.6985 18.8435C18.7494 18.9206 18.8218 18.9812 18.9067 19.0177C19.0665 19.0599 19.2351 19.0547 19.392 19.0026C19.3136 18.9845 19.2383 18.9755 19.1599 18.9604C19.0905 18.9573 19.023 18.9366 18.9639 18.9001C18.9105 18.8658 18.8667 18.8185 18.8367 18.7626C18.8066 18.7067 18.7913 18.644 18.7921 18.5806C18.791 18.4875 18.7615 18.3969 18.7077 18.321C18.6538 18.2451 18.5782 18.1874 18.4907 18.1555C18.33 18.1182 18.1622 18.1255 18.0053 18.1766C18.0958 18.2038 18.1742 18.2098 18.2495 18.2249H18.2405ZM21.9724 28.0972C22.0422 28.0979 22.1108 28.1166 22.1713 28.1514C22.2244 28.1824 22.2688 28.2262 22.3005 28.2789C22.3321 28.3316 22.3499 28.3915 22.3522 28.4529C22.3521 28.5449 22.3788 28.6351 22.4291 28.7122C22.4795 28.7893 22.5512 28.85 22.6355 28.887C22.7964 28.9291 22.966 28.9239 23.1239 28.8719C23.0455 28.8508 22.9671 28.8448 22.8918 28.8297C22.8218 28.8272 22.754 28.8053 22.6958 28.7664C22.6424 28.7328 22.5986 28.686 22.5685 28.6306C22.5384 28.5752 22.5231 28.5129 22.524 28.4499C22.5229 28.3568 22.4934 28.2662 22.4396 28.1903C22.3857 28.1144 22.31 28.0567 22.2226 28.0248C22.0616 27.9884 21.8938 27.9968 21.7372 28.0489C21.8277 28.0731 21.906 28.0821 21.9814 28.0972H21.9724ZM35.5615 22.0411C35.6314 22.0441 35.6996 22.0638 35.7604 22.0984C35.8139 22.1292 35.8588 22.173 35.8909 22.2256C35.9231 22.2783 35.9414 22.3382 35.9443 22.3999C35.9426 22.4923 35.9687 22.5831 36.0192 22.6605C36.0698 22.7379 36.1424 22.7983 36.2277 22.8339C36.3873 22.8777 36.5564 22.8724 36.713 22.8189C36.6346 22.8008 36.5593 22.7917 36.4809 22.7767C36.4113 22.7751 36.3434 22.7542 36.285 22.7164C36.2319 22.6819 36.1885 22.6345 36.159 22.5786C36.1294 22.5226 36.1147 22.4601 36.1161 22.3969C36.1138 22.3041 36.0839 22.2141 36.0302 22.1384C35.9765 22.0627 35.9015 22.0047 35.8147 21.9718C35.6538 21.9373 35.4867 21.9446 35.3294 21.9929C35.4087 22.0138 35.4892 22.0299 35.5705 22.0411H35.5615ZM25.2702 25.2666C25.2192 25.3144 25.157 25.3486 25.0893 25.3661C25.0286 25.3815 24.9649 25.3813 24.9043 25.3655C24.8437 25.3497 24.7881 25.3188 24.7426 25.2756C24.678 25.2101 24.5955 25.1652 24.5054 25.1464C24.4153 25.1276 24.3216 25.1359 24.2362 25.1701C24.0584 25.2455 23.992 25.3992 23.9016 25.5228C23.9709 25.4836 24.0312 25.4354 24.0975 25.3902C24.1476 25.3424 24.2104 25.3099 24.2784 25.2967C24.3401 25.2828 24.4044 25.2849 24.4651 25.3029C24.5258 25.3208 24.5808 25.354 24.6251 25.3992C24.6915 25.4641 24.7759 25.5075 24.8673 25.5236C24.9588 25.5398 25.0529 25.5279 25.1375 25.4897C25.2762 25.4014 25.3886 25.2775 25.4631 25.131C25.4058 25.1732 25.3546 25.2214 25.2792 25.2666H25.2702ZM17.5261 22.1165C17.4771 22.1661 17.4156 22.2015 17.3482 22.219C17.287 22.2347 17.2229 22.2346 17.1617 22.2188C17.1006 22.203 17.0444 22.172 16.9985 22.1286C16.9341 22.0627 16.8515 22.0175 16.7614 21.9987C16.6712 21.9799 16.5775 21.9884 16.4921 22.0231C16.3173 22.0984 16.2509 22.2522 16.1605 22.3757C16.2268 22.3366 16.2871 22.2853 16.3534 22.2431C16.4046 22.1962 16.4668 22.163 16.5343 22.1467C16.5963 22.1337 16.6606 22.1366 16.7211 22.155C16.7817 22.1734 16.8367 22.2069 16.881 22.2522C16.948 22.316 17.0324 22.3586 17.1235 22.3747C17.2147 22.3908 17.3086 22.3796 17.3934 22.3426C17.5325 22.2549 17.6451 22.1308 17.719 21.9839C17.6617 22.02 17.6014 22.0713 17.5351 22.1165H17.5261ZM32.7671 21.3116C32.717 21.3614 32.6546 21.3967 32.5862 21.4141C32.5255 21.4296 32.4619 21.4294 32.4013 21.4136C32.3406 21.3978 32.285 21.3668 32.2396 21.3237C32.1749 21.2582 32.0924 21.2132 32.0023 21.1945C31.9122 21.1757 31.8186 21.184 31.7331 21.2182C31.5553 21.2936 31.489 21.4473 31.3985 21.5709C31.4679 21.5317 31.5282 21.4835 31.5945 21.4383C31.6446 21.3904 31.7073 21.358 31.7753 21.3448C31.8371 21.3309 31.9013 21.333 31.962 21.3509C32.0227 21.3689 32.0778 21.4021 32.122 21.4473C32.1884 21.5122 32.2728 21.5556 32.3643 21.5717C32.4557 21.5878 32.5499 21.576 32.6345 21.5377C32.7731 21.4494 32.8855 21.3255 32.96 21.179C32.8907 21.2212 32.8394 21.2694 32.7761 21.3116H32.7671ZM28.369 22.4149C28.3674 22.4851 28.3477 22.5536 28.3117 22.6139C28.2815 22.6676 28.2378 22.7125 28.1849 22.7442C28.1321 22.7759 28.0719 22.7933 28.0103 22.7948C27.9181 22.7943 27.8279 22.8208 27.7507 22.8712C27.6735 22.9216 27.6128 22.9935 27.5762 23.0781C27.5276 23.2362 27.5276 23.4053 27.5762 23.5634C27.5943 23.4881 27.6033 23.4097 27.6184 23.3343C27.6195 23.2646 27.6404 23.1967 27.6787 23.1384C27.713 23.085 27.7603 23.0412 27.8162 23.0111C27.8721 22.9811 27.9348 22.9657 27.9982 22.9666C28.091 22.9642 28.181 22.9343 28.2567 22.8806C28.3324 22.8269 28.3904 22.7519 28.4233 22.6651C28.4576 22.5042 28.4504 22.3372 28.4022 22.1798C28.3867 22.2575 28.3756 22.336 28.369 22.4149ZM14.2915 24.3743C14.2905 24.4432 14.2718 24.5106 14.2373 24.5703C14.2061 24.6234 14.1622 24.668 14.1096 24.7001C14.0571 24.7321 13.9974 24.7507 13.9358 24.7542C13.8439 24.7531 13.7538 24.7794 13.677 24.8299C13.6002 24.8804 13.5402 24.9527 13.5048 25.0375C13.4562 25.1956 13.4562 25.3647 13.5048 25.5228C13.5232 25.4463 13.5373 25.3688 13.547 25.2907C13.5491 25.2217 13.571 25.1547 13.6103 25.0978C13.6439 25.0444 13.6906 25.0006 13.7461 24.9705C13.8015 24.9404 13.8637 24.9251 13.9268 24.926C14.0201 24.9242 14.1107 24.8946 14.187 24.8408C14.2633 24.7871 14.3218 24.7118 14.3549 24.6245C14.3898 24.4635 14.3814 24.296 14.3307 24.1392C14.3157 24.2176 14.3066 24.296 14.2915 24.3743ZM19.5397 24.6758C19.539 24.7456 19.5203 24.8142 19.4854 24.8747C19.4537 24.9271 19.4096 24.971 19.3571 25.0025C19.3046 25.034 19.2452 25.0522 19.184 25.0556C19.0922 25.0549 19.0022 25.0814 18.9255 25.1319C18.8488 25.1823 18.7887 25.2544 18.7529 25.339C18.7043 25.4971 18.7043 25.6662 18.7529 25.8243C18.7716 25.7478 18.7857 25.6703 18.7951 25.5922C18.7998 25.4943 18.8417 25.402 18.9124 25.3341C18.983 25.2663 19.077 25.2281 19.175 25.2274C19.2682 25.2257 19.3589 25.196 19.4352 25.1423C19.5115 25.0886 19.5699 25.0132 19.603 24.926C19.6379 24.7649 19.6296 24.5975 19.5789 24.4406C19.5638 24.519 19.5548 24.5944 19.5397 24.6728V24.6758ZM31.495 25.565C31.4934 25.6352 31.4736 25.7037 31.4377 25.764C31.4074 25.8177 31.3638 25.8626 31.3109 25.8943C31.2581 25.926 31.1979 25.9434 31.1363 25.9449C31.0439 25.945 30.9535 25.9722 30.8764 26.0231C30.7992 26.074 30.7387 26.1463 30.7022 26.2312C30.6536 26.3894 30.6536 26.5584 30.7022 26.7165C30.7203 26.6382 30.7293 26.5628 30.7444 26.4844C30.7468 26.3856 30.7879 26.2916 30.859 26.2228C30.93 26.154 31.0253 26.1159 31.1242 26.1167C31.2172 26.1151 31.3075 26.0855 31.3834 26.0317C31.4592 25.9779 31.5171 25.9025 31.5493 25.8152C31.5836 25.6543 31.5763 25.4873 31.5282 25.3299C31.513 25.4066 31.502 25.4841 31.495 25.562V25.565Z" fill="white"/>
<path d="M12.6335 25.134C13.9026 24.085 18.9307 19.5995 19.9526 18.5565C20.0219 18.4842 19.9948 18.4209 19.9104 18.4872C16.0369 21.5408 13.7851 23.9885 12.5944 25.0828C12.5642 25.1099 12.6034 25.1612 12.6335 25.134Z" fill="#263238"/>
<path d="M37.8162 24.6064C35.7905 25.9779 26.8677 31.1839 20.3324 30.5117C19.4914 30.4243 18.4816 30.0143 17.4295 29.4415L40.7282 21.1367C40.7945 22.02 39.7726 23.283 37.8162 24.6064Z" fill="black"/>
<path d="M13.6223 9.53117C12.2688 8.73837 10.7827 7.7225 9.16397 7.43613C7.54521 7.14975 5.79081 9.02474 5.67325 9.63366C5.55568 10.2426 5.42606 14.1553 7.0418 14.4779C8.65755 14.8004 8.24758 11.6805 8.37117 11.3549C8.49477 11.0293 8.64247 10.6164 8.9409 10.7068C9.23933 10.7972 14.0655 14.3573 14.0655 14.3573L13.6223 9.53117Z" fill="#F7A9A0"/>
<path d="M13.4776 9.73317C13.3842 9.7181 9.39302 7.17391 7.77427 6.89356C6.15551 6.61322 4.4011 8.47916 4.28354 9.09109C4.16598 9.70302 4.03635 13.6128 5.6521 13.9353C7.26784 14.2579 6.85788 11.1349 6.98147 10.8123C7.10506 10.4898 7.25277 10.0738 7.5512 10.1642C7.84963 10.2547 12.6758 13.8147 12.6758 13.8147L13.4776 9.73317Z" fill="#F7A9A0"/>
<path d="M6.23693 13.8358C6.46598 13.5799 6.62305 13.2679 6.69211 12.9315C6.79332 12.5943 6.84112 12.2434 6.83379 11.8915C6.80016 11.5842 6.7921 11.2747 6.80968 10.9661C6.86896 10.6673 7.00272 10.3884 7.19854 10.1552C7.36735 9.95321 7.59042 10.0768 7.77732 10.1883C8.05618 10.3603 8.32399 10.5496 8.57916 10.7551C8.8595 10.9661 9.1308 11.1861 9.40813 11.4032C9.70054 11.6179 9.9794 11.8504 10.2431 12.0995C10.2487 12.1031 10.2527 12.1088 10.2541 12.1153C10.2555 12.1218 10.2543 12.1286 10.2507 12.1342C10.2471 12.1398 10.2414 12.1437 10.2349 12.1451C10.2284 12.1465 10.2216 12.1453 10.216 12.1417C9.95375 11.988 9.71259 11.792 9.46842 11.6142C9.22425 11.4363 8.91075 11.2102 8.62739 11.0113C8.34403 10.8123 8.10891 10.6284 7.84364 10.4476C7.74717 10.3843 7.56329 10.2366 7.44271 10.2396C7.32214 10.2426 7.19251 10.541 7.14127 10.6254C7.01883 10.9027 6.98007 11.2097 7.02974 11.5087C7.05909 11.8094 7.05909 12.1123 7.02974 12.413C7.00227 12.7006 6.92474 12.9811 6.80063 13.242C6.65125 13.462 6.4773 13.6642 6.28215 13.8449C6.25502 13.9052 6.2098 13.8599 6.23693 13.8358Z" fill="#263238"/>
<path d="M17.6617 15.3642C17.6617 15.3642 15.3165 11.0626 13.3179 9.03384C11.5514 7.22517 9.37799 5.87772 7.63564 5.52201C5.89329 5.16631 2.17648 9.98942 3.65054 10.5381C5.19093 11.1108 6.90012 8.66909 7.56933 9.16045C8.30786 9.70606 9.20919 10.6677 8.9831 11.5569C8.75702 12.4462 7.58138 13.9383 6.08622 13.6068C4.59105 13.2752 4.55488 11.3128 3.22249 10.8003C1.89011 10.2879 1.79967 12.5788 2.48998 14.2277C3.23754 15.8384 4.42718 17.2037 5.92042 18.1646C7.1262 18.9031 10.8099 21.4142 10.8099 21.4142L17.6617 15.3642Z" fill="#F7A9A0"/>
<path d="M4.20517 10.6224C4.75881 10.5847 5.29248 10.4006 5.75158 10.0889C6.18911 9.77832 6.64624 9.49638 7.12014 9.24482C7.16743 9.22314 7.21884 9.21192 7.27086 9.21192C7.32289 9.21192 7.3743 9.22314 7.42159 9.24482C7.52835 9.30686 7.62925 9.3785 7.72303 9.45884C7.92682 9.62695 8.11452 9.81364 8.28372 10.0165C8.60928 10.4144 8.93785 10.8937 8.84441 11.3579C8.73613 11.8662 8.4912 12.3352 8.13601 12.7144C7.7963 13.1078 7.342 13.3851 6.83679 13.5072C6.58282 13.5554 6.32207 13.5554 6.0681 13.5072C5.81311 13.4483 5.57299 13.3375 5.36272 13.1817C4.9414 12.8436 4.59885 12.4177 4.35891 11.9337C4.5485 12.4547 4.85834 12.9236 5.26325 13.3023C5.48231 13.4861 5.73827 13.6207 6.01384 13.6972C6.29298 13.7704 6.58353 13.7899 6.86994 13.7544C7.43941 13.6457 7.95616 13.3497 8.33798 12.9134C8.74318 12.4966 9.02311 11.9744 9.14585 11.4062C9.18994 11.1025 9.1316 10.7928 8.98005 10.526C8.84674 10.2736 8.68271 10.0387 8.49172 9.82661C8.30801 9.61556 8.10628 9.42089 7.88883 9.24482C7.7747 9.15074 7.65032 9.06984 7.51805 9.00366C7.43862 8.97351 7.35394 8.95957 7.26903 8.96267C7.18412 8.96578 7.1007 8.98587 7.02368 9.02175C6.77247 9.14861 6.53507 9.30115 6.31528 9.47693L5.66416 9.96226C5.2412 10.3017 4.73934 10.5288 4.20517 10.6224Z" fill="#263238"/>
<path d="M9.1579 11.4062C9.03516 11.9744 8.75522 12.4966 8.35003 12.9134C7.96821 13.3497 7.45146 13.6457 6.88199 13.7544C6.59558 13.7899 6.30503 13.7704 6.02589 13.6972C5.75032 13.6207 5.49436 13.4861 5.27529 13.3023C5.18654 13.2286 5.1048 13.1468 5.03112 13.0581L4.97083 13.4138L7.75618 14.2217C7.75684 14.2307 7.75684 14.2398 7.75618 14.2488C7.7572 14.2618 7.7572 14.2749 7.75618 14.288C7.75618 14.3151 7.75618 14.3543 7.74111 14.3995C7.69589 14.7492 7.58135 15.5782 7.43967 16.4403L7.41253 16.6242C7.301 17.3567 7.17741 18.0922 7.07793 18.5655C7.07793 18.6228 7.05381 18.674 7.04176 18.7222C7.0297 18.7705 7.04176 18.7584 7.04176 18.7765L7.01463 18.876C7.00892 18.8693 7.00167 18.8642 6.99352 18.8609C6.65289 18.6348 6.34542 18.4359 6.08919 18.2821L5.90833 18.1706C5.63371 18.0006 5.37086 17.8122 5.12156 17.6069C4.93466 17.4562 4.74776 17.3055 4.56087 17.1125C4.30366 16.8741 4.06106 16.6205 3.83439 16.3529C3.43282 15.8952 3.08116 15.396 2.78536 14.8637C2.67336 14.6594 2.57273 14.4491 2.48391 14.2337C2.3972 14.0279 2.32469 13.8164 2.26687 13.6007C2.22467 13.462 2.19151 13.3204 2.16137 13.1787C1.88102 11.7709 2.16137 10.3994 3.21642 10.8063C3.48297 10.9118 3.72061 11.0792 3.90975 11.2946C4.08529 11.4896 4.24081 11.7017 4.37397 11.9277C4.46742 12.0754 4.55484 12.2291 4.64828 12.3708C4.66025 12.3926 4.67333 12.4137 4.68747 12.4341C4.79384 12.6128 4.91377 12.7832 5.04619 12.9435C5.30328 13.272 5.66489 13.5028 6.0711 13.5977C7.57833 13.9293 8.7419 12.4281 8.96799 11.5479C9.19407 10.6676 8.29275 9.69699 7.55421 9.15137C7.16233 8.84993 6.4027 9.59449 5.53152 10.125C5.15983 10.3744 4.73791 10.539 4.2956 10.6074C4.26553 10.6104 4.23523 10.6104 4.20516 10.6074C4.69211 10.5261 5.15227 10.3286 5.54659 10.0316L5.66415 9.94719L6.32432 9.46186C6.5441 9.28608 6.7815 9.13354 7.03271 9.00668C7.10973 8.9708 7.19316 8.95071 7.27807 8.9476C7.36298 8.94449 7.44765 8.95844 7.52708 8.98859C7.65936 9.05477 7.78373 9.13567 7.89786 9.22975C8.11532 9.40583 8.31704 9.60049 8.50075 9.81154C8.69174 10.0236 8.85577 10.2585 8.98909 10.5109C9.14504 10.7816 9.20455 11.0972 9.1579 11.4062Z" fill="#F7A9A0"/>
<path d="M9.1579 11.4062C9.03516 11.9744 8.75522 12.4966 8.35003 12.9134C7.96821 13.3497 7.45146 13.6457 6.88199 13.7544C6.59558 13.7899 6.30503 13.7704 6.02589 13.6972C5.75032 13.6207 5.49436 13.4861 5.27529 13.3023C5.18654 13.2286 5.1048 13.1468 5.03112 13.0581C4.75008 12.726 4.52691 12.349 4.37095 11.9428C4.45837 12.0935 4.5488 12.2442 4.64527 12.3859C4.65723 12.4077 4.6703 12.4288 4.68445 12.4492C4.79283 12.6128 4.91593 12.7662 5.05221 12.9074C5.14361 13.0065 5.24458 13.0964 5.35366 13.1757C5.56393 13.3315 5.80405 13.4423 6.05904 13.5013C6.313 13.5494 6.57376 13.5494 6.82772 13.5013C7.33293 13.3791 7.78724 13.1018 8.12695 12.7085C8.48114 12.3285 8.72592 11.8598 8.83534 11.352C8.92879 10.8877 8.60022 10.4084 8.27466 10.0105C8.10546 9.80765 7.91776 9.62095 7.71397 9.45285C7.62019 9.37251 7.51929 9.30087 7.41253 9.23883C7.36523 9.21715 7.31382 9.20593 7.2618 9.20593C7.20978 9.20593 7.15837 9.21715 7.11108 9.23883C6.63718 9.49039 6.18005 9.77232 5.74252 10.0829L5.5074 10.2155C5.13604 10.4389 4.71836 10.574 4.28655 10.6104C4.25648 10.6134 4.22618 10.6134 4.19611 10.6104C4.68306 10.5292 5.14322 10.3317 5.53754 10.0346L5.6551 9.95024L6.31527 9.46491C6.53505 9.28913 6.77245 9.13659 7.02366 9.00973C7.10068 8.97384 7.18411 8.95376 7.26902 8.95065C7.35392 8.94755 7.4386 8.96148 7.51803 8.99164C7.65031 9.05782 7.77468 9.13872 7.88881 9.2328C8.10627 9.40887 8.30799 9.60353 8.4917 9.81458C8.6827 10.0267 8.84672 10.2616 8.98004 10.5139C9.13843 10.7827 9.20114 11.0972 9.1579 11.4062Z" fill="#263238"/>
<path d="M7.75621 14.2096C7.75687 14.2186 7.75687 14.2277 7.75621 14.2367C7.75723 14.2498 7.75723 14.2629 7.75621 14.2759C7.75621 14.306 7.75621 14.3422 7.74114 14.3874C7.69592 14.7371 7.58137 15.5661 7.4397 16.4282L7.41256 16.6121C7.30103 17.3446 7.17744 18.0801 7.07796 18.5534C7.07796 18.6107 7.05384 18.6619 7.04179 18.7102C7.02973 18.7584 7.04179 18.7463 7.04179 18.7644L7.01466 18.8639C7.01466 18.9061 6.99356 18.9423 6.9815 18.9724C6.74336 19.6205 4.6664 21.179 3.55709 21.0825C2.58342 20.9861 1.69115 20.2747 1.034 19.4065C0.376846 18.5383 0.0211402 17.6762 0.0151114 17.209C0.00908246 16.7417 0.669246 13.2088 0.669246 13.2088L2.17647 13.1786L3.60833 13.1515H4.07858L4.98292 13.4168L7.75621 14.2096Z" fill="#C7C7C7"/>
<path d="M4.32272 18.7252C4.14788 19.1111 2.78535 19.7321 1.8569 19.3281C0.928451 18.9242 0.129621 18.056 0 17.1909C0 16.7267 0.654134 13.1907 0.654134 13.1907L4.97082 14.2458L4.32272 18.7252Z" fill="#DBDBDB"/>
<path d="M3.80728 16.7266C3.65053 17.6309 2.87883 18.27 2.08603 18.1344C1.29323 17.9987 0.777761 17.1456 0.934512 16.2322C1.09126 15.3189 1.85995 14.6919 2.65275 14.8275C3.44555 14.9632 3.95197 15.8132 3.80728 16.7266Z" fill="#455A64"/>
<path d="M7.75621 14.2096C7.75687 14.2186 7.75687 14.2277 7.75621 14.2367C7.75723 14.2498 7.75723 14.2629 7.75621 14.2759C7.75621 14.303 7.75621 14.3422 7.74114 14.3874C7.69592 14.7371 7.58137 15.5661 7.4397 16.4282L7.41256 16.6121C7.30103 17.3446 7.17744 18.0801 7.07796 18.5534C7.07796 18.6107 7.05384 18.6619 7.04179 18.7102C7.02973 18.7584 7.04179 18.7463 7.04179 18.7644C7.04179 18.7825 7.01166 18.8217 6.99357 18.8488C6.7494 19.2618 6.33341 19.6326 5.98374 19.6446C5.63406 19.6567 4.43431 19.1563 4.33785 18.7192L4.98595 14.2518L7.75621 14.2096Z" fill="#A6A6A6"/>
<path d="M2.97834 16.7025C2.85221 16.9162 2.6771 17.0967 2.46744 17.2293C2.25779 17.3619 2.01961 17.4428 1.77256 17.4652L1.69117 15.958L1.54346 15.8585L1.67308 15.5058L2.07099 15.6143C2.07099 15.6867 2.02577 15.9399 2.01673 15.9489L1.96247 16.0303V16.6754C2.06997 16.6149 2.16104 16.529 2.22774 16.4252C2.27761 16.3175 2.30333 16.2002 2.3031 16.0816L2.16142 16.0092L2.23678 15.6626L2.59249 15.759C2.57864 15.9224 2.55346 16.0845 2.51713 16.2444C2.48546 16.4384 2.4045 16.6211 2.282 16.7749C2.18855 16.8563 2.05893 16.9919 2.0529 17.001C2.26603 16.9678 2.46498 16.8736 2.62565 16.7297C2.74916 16.5768 2.82188 16.3893 2.83364 16.1931L2.65881 16.1147L2.68594 15.7831L3.0959 15.8947C3.11517 16.1693 3.07507 16.4448 2.97834 16.7025Z" fill="#31DB9D"/>
<path d="M6.99056 16.9557C6.78256 17.8299 6.19776 18.4419 5.68832 18.3183C5.17887 18.1947 4.93169 17.3898 5.1427 16.5096C5.35371 15.6294 5.9355 15.0235 6.44494 15.1441C6.95439 15.2646 7.19856 16.0785 6.99056 16.9557Z" fill="#455A64"/>
<path d="M5.73347 16.3258C5.73347 16.2987 5.82691 15.8224 5.82691 15.8224C5.9314 15.8577 6.03816 15.8859 6.14645 15.9068C6.27844 15.9021 6.40921 15.8798 6.53531 15.8405C6.48592 15.9855 6.44564 16.1335 6.41473 16.2836C6.3762 16.5714 6.35706 16.8614 6.35746 17.1518L6.38459 17.3115L6.20372 17.6401C6.20372 17.6401 6.13137 17.2301 6.12836 17.0734C6.16433 16.828 6.2167 16.5853 6.28511 16.3469L5.98367 16.3228L5.73347 16.3258Z" fill="#31DB9D"/>
<path d="M5.92339 16.386L5.67621 16.6875C5.67621 16.6875 5.67621 17.0462 5.64003 17.218C5.61396 17.3576 5.57973 17.4955 5.53754 17.631H5.58878C5.58878 17.631 5.72142 17.3477 5.81487 17.1065C5.88084 16.8718 5.9173 16.6298 5.92339 16.386ZM5.54658 10.0467V10.1341L5.0703 12.9013V13.046L5.01001 13.4017L4.97384 13.6097C4.97384 13.7002 4.63622 13.7213 4.25339 13.655C3.87055 13.5886 3.56911 13.462 3.58117 13.3716L3.62035 13.1515L3.93687 11.2946L4.05443 10.6254C4.11665 10.63 4.17911 10.63 4.24133 10.6254C4.71587 10.5378 5.16306 10.3395 5.54658 10.0467ZM27.7178 44.5952C27.7178 44.5952 51.3752 44.7701 51.4144 44.7249C51.7159 44.3481 48.7617 28.1786 41.3612 20.4947C39.2119 18.264 35.6338 19.6808 34.5787 21.179C31.0548 26.2011 27.4164 44.2727 27.7178 44.5952Z" fill="#31DB9D"/>
<path d="M39.3446 28.9533C39.5014 28.9021 39.6692 28.8948 39.8299 28.9322C39.9174 28.964 39.9931 29.0217 40.0469 29.0977C40.1008 29.1736 40.1302 29.2641 40.1313 29.3572C40.1308 29.4206 40.1462 29.4832 40.1763 29.539C40.2063 29.5949 40.25 29.6423 40.3032 29.6768C40.3623 29.7132 40.4297 29.734 40.4991 29.737C40.5745 29.7521 40.6528 29.7581 40.7312 29.7792C40.5718 29.8263 40.4023 29.8263 40.2429 29.7792C40.1585 29.7423 40.0868 29.6816 40.0365 29.6045C39.9862 29.5274 39.9594 29.4372 39.9595 29.3452C39.9572 29.2837 39.9394 29.2239 39.9078 29.1712C39.8762 29.1185 39.8318 29.0747 39.7787 29.0437C39.7181 29.0088 39.6496 28.9902 39.5797 28.9895C39.4983 28.9744 39.423 28.9533 39.3446 28.9533ZM44.4028 44.6284C44.4005 44.5356 44.3705 44.4457 44.3168 44.37C44.2632 44.2943 44.1881 44.2363 44.1014 44.2034C43.9413 44.1684 43.7748 44.1768 43.6191 44.2275C43.6944 44.2456 43.7728 44.2546 43.8482 44.2667C43.9181 44.2697 43.9863 44.2893 44.0471 44.3239C44.1004 44.3549 44.1451 44.3987 44.1772 44.4514C44.2093 44.504 44.2278 44.5638 44.231 44.6254C44.2279 44.6474 44.2279 44.6697 44.231 44.6917H44.4058C44.4017 44.6709 44.4007 44.6495 44.4028 44.6284ZM35.5705 22.0381C35.6404 22.0411 35.7086 22.0608 35.7694 22.0954C35.8229 22.1262 35.8678 22.1699 35.8999 22.2226C35.9321 22.2753 35.9504 22.3352 35.9533 22.3969C35.9516 22.4893 35.9777 22.5801 36.0282 22.6575C36.0788 22.7349 36.1514 22.7953 36.2367 22.8309C36.3963 22.8747 36.5654 22.8694 36.722 22.8159C36.6436 22.7978 36.5683 22.7887 36.4899 22.7737C36.4203 22.7721 36.3524 22.7512 36.294 22.7134C36.2409 22.6789 36.1975 22.6315 36.168 22.5756C36.1384 22.5196 36.1237 22.4571 36.1251 22.3939C36.1228 22.3011 36.0929 22.2111 36.0392 22.1354C35.9855 22.0597 35.9105 22.0017 35.8237 21.9688C35.6628 21.9343 35.4957 21.9416 35.3384 21.9899C35.4147 22.0115 35.4922 22.0286 35.5705 22.0411L35.5705 22.0381ZM33.5176 35.3801C33.5875 35.3808 33.656 35.3995 33.7166 35.4343C33.7697 35.4653 33.8141 35.5091 33.8457 35.5618C33.8774 35.6145 33.8952 35.6744 33.8975 35.7358C33.897 35.828 33.9236 35.9182 33.9739 35.9954C34.0243 36.0726 34.0963 36.1332 34.1808 36.1699C34.3406 36.2121 34.5093 36.2069 34.6662 36.1548C34.5908 36.1367 34.5124 36.1277 34.4371 36.1126C34.3677 36.1096 34.3002 36.0888 34.2411 36.0523C34.1879 36.0178 34.1443 35.9704 34.1142 35.9146C34.0842 35.8587 34.0687 35.7962 34.0693 35.7328C34.0682 35.6397 34.0387 35.5492 33.9849 35.4732C33.931 35.3973 33.8553 35.3396 33.7678 35.3077C33.6072 35.2704 33.4393 35.2777 33.2825 35.3288C33.3639 35.359 33.4393 35.368 33.5176 35.3831V35.3801ZM38.1509 41.8581C38.2209 41.8602 38.2894 41.8799 38.3498 41.9154C38.4027 41.9466 38.447 41.9905 38.4786 42.0431C38.5102 42.0958 38.5281 42.1555 38.5307 42.2169C38.5302 42.309 38.5568 42.3993 38.6071 42.4765C38.6575 42.5536 38.7295 42.6143 38.814 42.6509C38.9738 42.6932 39.1425 42.688 39.2994 42.6359C39.224 42.6178 39.1456 42.6087 39.0672 42.5937C38.9988 42.5906 38.9323 42.5699 38.8743 42.5334C38.8209 42.4991 38.7771 42.4517 38.747 42.3958C38.717 42.3399 38.7016 42.2773 38.7025 42.2138C38.7001 42.1211 38.6702 42.0311 38.6165 41.9554C38.5628 41.8797 38.4878 41.8217 38.4011 41.7888C38.2402 41.7529 38.0728 41.7602 37.9157 41.8099C37.9971 41.84 38.0725 41.8461 38.1509 41.8611V41.8581ZM29.837 43.2267C29.9069 43.2274 29.9754 43.2461 30.036 43.2809C30.0891 43.3122 30.1337 43.356 30.1657 43.4086C30.1978 43.4612 30.2164 43.5209 30.2198 43.5824C30.2187 43.6743 30.2451 43.7644 30.2956 43.8412C30.3461 43.9181 30.4184 43.978 30.5032 44.0135C30.6613 44.0621 30.8304 44.0621 30.9885 44.0135C30.912 43.995 30.8345 43.9809 30.7564 43.9713C30.6865 43.9688 30.6186 43.9468 30.5605 43.908C30.5071 43.8744 30.4633 43.8276 30.4332 43.7722C30.4031 43.7167 30.3878 43.6545 30.3887 43.5914C30.388 43.4983 30.3587 43.4075 30.3048 43.3315C30.2509 43.2555 30.1749 43.1979 30.0872 43.1664C29.9265 43.129 29.7587 43.1363 29.6019 43.1875C29.6833 43.2056 29.7616 43.2146 29.837 43.2297V43.2267ZM41.9762 35.564C42.0463 35.5656 42.1149 35.5853 42.1751 35.6212C42.2288 35.6515 42.2737 35.6952 42.3054 35.7481C42.3371 35.8009 42.3546 35.8611 42.356 35.9227C42.3555 36.0148 42.3821 36.1051 42.4325 36.1823C42.4828 36.2595 42.5548 36.3201 42.6394 36.3568C42.7987 36.4038 42.9683 36.4038 43.1277 36.3568C43.0493 36.3387 42.971 36.3296 42.8956 36.3146C42.8262 36.3115 42.7588 36.2908 42.6997 36.2543C42.6462 36.22 42.6024 36.1727 42.5724 36.1168C42.5423 36.0609 42.527 35.9982 42.5278 35.9347C42.5263 35.8418 42.4967 35.7514 42.4429 35.6756C42.3891 35.5997 42.3136 35.5419 42.2264 35.5097C42.0656 35.4738 41.8981 35.4811 41.7411 35.5308C41.8224 35.5459 41.8978 35.5519 41.9762 35.567V35.564ZM35.8629 26.4724C35.8119 26.5202 35.7497 26.5544 35.682 26.5719C35.6216 26.5886 35.5579 26.5893 35.4971 26.574C35.4364 26.5587 35.3806 26.5278 35.3354 26.4845C35.2711 26.4184 35.1887 26.3729 35.0986 26.3536C35.0084 26.3343 34.9146 26.3421 34.8289 26.3759C34.686 26.4595 34.5707 26.5832 34.4973 26.7316C34.5637 26.6894 34.624 26.6412 34.6903 26.596C34.7411 26.5492 34.8036 26.5169 34.8711 26.5025C34.9331 26.4899 34.9973 26.4929 35.0579 26.5113C35.1184 26.5297 35.1734 26.563 35.2178 26.608C35.2845 26.6724 35.3691 26.7152 35.4605 26.7308C35.552 26.7464 35.6459 26.7341 35.7303 26.6955C35.8694 26.6077 35.9819 26.4837 36.0558 26.3367C35.9895 26.382 35.9292 26.4302 35.8629 26.4754V26.4724ZM48.3548 35.4645C48.3033 35.5117 48.2413 35.5458 48.1739 35.564C48.1132 35.5797 48.0495 35.5796 47.9888 35.5638C47.9281 35.548 47.8725 35.5169 47.8272 35.4735C47.7626 35.408 47.68 35.3631 47.5899 35.3443C47.4999 35.3255 47.4062 35.3338 47.3208 35.368C47.1429 35.4434 47.0766 35.5971 46.9862 35.7207C47.0528 35.68 47.1172 35.6357 47.1791 35.5881C47.2296 35.5408 47.2922 35.5085 47.36 35.4946C47.4217 35.4801 47.4861 35.4819 47.5469 35.4999C47.6077 35.5179 47.6628 35.5514 47.7066 35.5971C47.7733 35.6617 47.8577 35.7048 47.949 35.7209C48.0404 35.737 48.1344 35.7254 48.2191 35.6876C48.3586 35.5993 48.472 35.4755 48.5477 35.3288C48.4784 35.371 48.4181 35.4193 48.3548 35.4645ZM40.4057 23.681C40.405 23.7509 40.3863 23.8194 40.3514 23.88C40.3204 23.9333 40.2766 23.978 40.224 24.0101C40.1713 24.0422 40.1115 24.0607 40.05 24.0639C39.958 24.0628 39.8679 24.0891 39.7911 24.1396C39.7143 24.1901 39.6543 24.2624 39.6189 24.3472C39.5703 24.5053 39.5703 24.6744 39.6189 24.8325C39.6373 24.756 39.6514 24.6785 39.6611 24.6004C39.6632 24.5314 39.6852 24.4644 39.7244 24.4075C39.7578 24.3539 39.8045 24.3099 39.86 24.2798C39.9155 24.2497 39.9778 24.2345 40.0409 24.2357C40.1342 24.2339 40.2248 24.2043 40.3011 24.1505C40.3774 24.0968 40.4359 24.0215 40.469 23.9342C40.504 23.7732 40.4957 23.6057 40.4448 23.4489C40.4268 23.5273 40.4268 23.6057 40.4057 23.681ZM38.5668 37.2641C38.5658 37.333 38.5471 37.4004 38.5126 37.4601C38.4814 37.5132 38.4375 37.5578 38.3849 37.5898C38.3324 37.6219 38.2726 37.6405 38.2111 37.6439C38.1189 37.643 38.0285 37.6695 37.9512 37.7199C37.874 37.7703 37.8134 37.8425 37.7771 37.9273C37.7348 38.0871 37.74 38.2558 37.7921 38.4126C37.8132 38.3342 37.8193 38.2589 37.8343 38.1805C37.8369 38.112 37.8577 38.0454 37.8946 37.9876C37.9287 37.934 37.976 37.89 38.0319 37.8599C38.0879 37.8298 38.1506 37.8146 38.2142 37.8158C38.3071 37.8142 38.3975 37.7846 38.4733 37.7308C38.5492 37.677 38.607 37.6016 38.6392 37.5143C38.6766 37.3536 38.6693 37.1858 38.6181 37.029C38.591 37.1074 38.5819 37.1857 38.5668 37.2641ZM31.082 37.7494C31.08 37.8195 31.0603 37.888 31.0247 37.9484C30.9935 38.0013 30.9496 38.0456 30.897 38.0772C30.8443 38.1088 30.7846 38.1267 30.7233 38.1293C30.6311 38.1288 30.5408 38.1553 30.4636 38.2057C30.3865 38.2561 30.3258 38.328 30.2892 38.4126C30.2406 38.5707 30.2406 38.7398 30.2892 38.8979C30.3073 38.8226 30.3163 38.7442 30.3314 38.6658C30.3329 38.5971 30.3538 38.5302 30.3917 38.4729C30.426 38.4195 30.4733 38.3757 30.5292 38.3456C30.5851 38.3156 30.6477 38.3002 30.7112 38.3011C30.804 38.2987 30.8939 38.2688 30.9696 38.2151C31.0453 38.1614 31.1033 38.0864 31.1362 37.9996C31.1706 37.8387 31.1633 37.6717 31.1151 37.5143C31.0996 37.592 31.0886 37.6705 31.082 37.7494ZM34.7445 29.8878C34.7438 29.9576 34.7251 30.0262 34.6903 30.0867C34.6593 30.1398 34.6155 30.1842 34.5628 30.2159C34.5101 30.2475 34.4502 30.2653 34.3888 30.2676C34.297 30.2669 34.207 30.2934 34.1303 30.3439C34.0536 30.3943 33.9935 30.4664 33.9578 30.5509C33.9091 30.7101 33.9091 30.8801 33.9578 31.0393C33.9759 30.9627 33.99 30.8852 34 30.8072C34.0025 30.7372 34.0244 30.6694 34.0633 30.6112C34.0969 30.5579 34.1436 30.514 34.1991 30.4839C34.2545 30.4538 34.3167 30.4385 34.3798 30.4394C34.4733 30.4385 34.5643 30.4091 34.6407 30.3553C34.7172 30.3015 34.7754 30.2257 34.8078 30.138C34.8427 29.9769 34.8344 29.8095 34.7837 29.6526C34.7686 29.734 34.7596 29.8124 34.7445 29.8878ZM45.4609 31.5337C45.4593 31.6038 45.4395 31.6723 45.4036 31.7326C45.373 31.7863 45.3294 31.8313 45.2766 31.8635C45.2239 31.8956 45.1639 31.9139 45.1022 31.9165C45.0098 31.9152 44.9192 31.9415 44.8419 31.9919C44.7646 32.0424 44.7041 32.1148 44.6681 32.1998C44.6258 32.3596 44.6311 32.5283 44.6832 32.6852C44.7012 32.6068 44.7103 32.5314 44.7254 32.4531C44.7284 32.3837 44.7492 32.3162 44.7856 32.2571C44.8199 32.2039 44.8673 32.1603 44.9233 32.1308C44.9792 32.1012 45.0419 32.0866 45.1052 32.0883C45.1981 32.0864 45.2882 32.0566 45.364 32.0028C45.4398 31.9491 45.4977 31.8739 45.5302 31.7869C45.5676 31.6262 45.5603 31.4584 45.5091 31.3015C45.482 31.3799 45.476 31.4583 45.4609 31.5337ZM49.0481 39.3561C49.0461 39.4253 49.0264 39.4928 48.9908 39.5521C48.9602 39.6057 48.9165 39.6508 48.8638 39.6829C48.8111 39.7151 48.7511 39.7333 48.6894 39.736C48.597 39.7347 48.5064 39.7609 48.4291 39.8114C48.3518 39.8619 48.2912 39.9343 48.2553 40.0193C48.213 40.1791 48.2182 40.3478 48.2703 40.5046C48.2884 40.4263 48.2975 40.3509 48.3126 40.2725C48.3152 40.204 48.336 40.1374 48.3728 40.0796C48.4071 40.0262 48.4545 39.9824 48.5104 39.9523C48.5663 39.9223 48.6289 39.9069 48.6924 39.9078C48.7852 39.9054 48.8751 39.8755 48.9508 39.8218C49.0265 39.7681 49.0845 39.6931 49.1174 39.6063C49.1533 39.4455 49.146 39.2781 49.0963 39.121C49.0692 39.2024 49.0632 39.2778 49.0481 39.3561ZM43.7215 26.7949C43.773 26.7477 43.835 26.7136 43.9024 26.6955C43.9631 26.6797 44.0268 26.6798 44.0875 26.6956C44.1482 26.7114 44.2038 26.7425 44.2491 26.7859C44.3137 26.8514 44.3963 26.8964 44.4864 26.9151C44.5765 26.9339 44.6701 26.9256 44.7555 26.8914C44.9334 26.816 44.9997 26.6623 45.0901 26.5387C45.0235 26.5794 44.9591 26.6237 44.8972 26.6713C44.8467 26.7186 44.7841 26.751 44.7163 26.7648C44.6546 26.7793 44.5902 26.7775 44.5294 26.7595C44.4686 26.7415 44.4136 26.708 44.3697 26.6623C44.303 26.5978 44.2186 26.5547 44.1273 26.5385C44.036 26.5224 43.9419 26.534 43.8572 26.5719C43.7177 26.6601 43.6043 26.7839 43.5286 26.9306C43.598 26.8884 43.6582 26.8432 43.7215 26.7949ZM37.6082 32.9444C37.6587 32.8953 37.721 32.86 37.7891 32.8419C37.8498 32.8262 37.9135 32.8262 37.9742 32.8421C38.0349 32.8579 38.0905 32.889 38.1358 32.9324C38.2004 32.9979 38.283 33.0428 38.3731 33.0616C38.4632 33.0804 38.5568 33.0721 38.6422 33.0379C38.8201 32.9625 38.8864 32.8088 38.9768 32.6852C38.9102 32.7259 38.8458 32.7702 38.7839 32.8178C38.7334 32.8651 38.6708 32.8974 38.603 32.9113C38.5413 32.9258 38.4769 32.9239 38.4161 32.906C38.3553 32.888 38.3003 32.8545 38.2564 32.8088C38.1897 32.7442 38.1053 32.7011 38.014 32.685C37.9226 32.6689 37.8286 32.6805 37.7439 32.7183C37.5721 32.8027 37.5088 32.9535 37.4153 33.077C37.4847 33.0379 37.5449 32.9866 37.6082 32.9444ZM33.388 41.2854C33.437 41.2358 33.4984 41.2004 33.5659 41.1829C33.6266 41.1672 33.6903 41.1672 33.751 41.183C33.8116 41.1989 33.8673 41.2299 33.9125 41.2733C33.9777 41.3391 34.0607 41.3842 34.1513 41.4029C34.242 41.4217 34.3361 41.4133 34.422 41.3788C34.5968 41.3035 34.6631 41.1497 34.7536 41.0261C34.6873 41.0653 34.624 41.1136 34.5606 41.1588C34.5102 41.2061 34.4476 41.2384 34.3798 41.2522C34.3181 41.2664 34.2537 41.2645 34.193 41.2465C34.1323 41.2286 34.0772 41.1952 34.0331 41.1497C33.9665 41.0852 33.8821 41.0421 33.7908 41.026C33.6994 41.0098 33.6053 41.0215 33.5207 41.0593C33.3812 41.1476 33.2678 41.2714 33.1921 41.418C33.2494 41.3758 33.3096 41.3276 33.376 41.2854H33.388ZM43.4111 40.4263C43.4625 40.379 43.5245 40.3449 43.5919 40.3268C43.6523 40.3101 43.7161 40.3094 43.7768 40.3247C43.8376 40.34 43.8933 40.3709 43.9386 40.4142C44.0029 40.4802 44.0853 40.5257 44.1754 40.5451C44.2655 40.5644 44.3593 40.5566 44.445 40.5227C44.6229 40.4444 44.6892 40.2906 44.7796 40.167C44.7103 40.2092 44.65 40.2575 44.5837 40.3027C44.5329 40.3495 44.4704 40.3817 44.4028 40.3961C44.3408 40.4097 44.2764 40.4071 44.2157 40.3886C44.155 40.3701 44.1001 40.3364 44.0562 40.2906C43.9899 40.2265 43.9058 40.1838 43.8149 40.1682C43.724 40.1526 43.6306 40.1648 43.5467 40.2032C43.4065 40.2905 43.2928 40.4146 43.2181 40.5619C43.2754 40.5197 43.3357 40.4715 43.399 40.4263H43.4111ZM49.0511 43.8778C49.1025 43.8306 49.1645 43.7965 49.232 43.7783C49.2926 43.762 49.3565 43.7618 49.4173 43.7776C49.4781 43.7935 49.5337 43.8249 49.5786 43.8688C49.6433 43.9343 49.7258 43.9792 49.8159 43.998C49.906 44.0168 49.9996 44.0085 50.0851 43.9743C50.2629 43.8959 50.3292 43.7452 50.4197 43.6186C50.3503 43.6608 50.29 43.709 50.2267 43.7542C50.1751 43.8016 50.1115 43.8339 50.0428 43.8477C49.9816 43.8619 49.9177 43.86 49.8574 43.842C49.7972 43.824 49.7426 43.7907 49.6992 43.7452C49.633 43.6799 49.5486 43.6363 49.4571 43.6201C49.3655 43.604 49.2713 43.6161 49.1867 43.6547C49.0473 43.743 48.9339 43.8668 48.8582 44.0135C48.9154 43.9713 48.9757 43.923 49.039 43.8778H49.0511ZM31.3081 33.0258C31.2573 33.0733 31.1949 33.1066 31.1272 33.1223C31.0652 33.1349 31.001 33.1319 30.9405 33.1135C30.8799 33.0951 30.825 33.0618 30.7805 33.0168C30.7137 32.9526 30.6293 32.9097 30.5381 32.8936C30.4468 32.8775 30.3528 32.8889 30.2681 32.9263C30.2276 32.9461 30.19 32.9715 30.1565 33.0017C30.1565 33.0559 30.1294 33.1132 30.1143 33.1675L30.1354 33.1524C30.1855 33.1027 30.2479 33.0673 30.3163 33.0499C30.377 33.0345 30.4407 33.0347 30.5013 33.0505C30.5619 33.0663 30.6175 33.0972 30.663 33.1404C30.7276 33.2059 30.8102 33.2508 30.9003 33.2696C30.9903 33.2884 31.084 33.2801 31.1694 33.2459C31.3442 33.1705 31.4136 33.0168 31.504 32.8932C31.4226 32.9203 31.3623 32.9715 31.296 33.0137L31.3081 33.0258Z" fill="white"/>
<path d="M44.6621 23.2439C48.0322 25.8604 55.4719 33.8547 55.7763 37.4841C55.9783 39.8655 51.3149 51.0491 48.8913 52.3845C47.8363 52.9603 42.0214 46.633 42.4495 45.4211C42.8775 44.2093 47.574 37.1736 47.4354 36.218C47.2967 35.2625 43.5889 29.2547 41.9521 26.4151C39.1275 21.5256 43.1066 22.0381 44.6621 23.2439Z" fill="#F7A9A0"/>
<path d="M34.9043 50.9798C35.5976 51.9806 38.2684 49.774 39.0401 49.3822C39.8118 48.9903 40.0379 49.0958 39.8269 49.548C39.7767 49.6347 39.717 49.7155 39.649 49.7891C40.5986 48.8064 43.3839 45.0293 43.3839 45.0293C43.3839 45.0293 40.689 45.804 39.3687 46.3647C38.0483 46.9254 34.214 49.973 34.9043 50.9798Z" fill="#F7A9A0"/>
<path d="M35.456 56.4601C36.1101 57.3192 37.6897 56.6711 37.7982 56.6259C37.7078 56.6711 36.3965 57.3915 37.1109 58.1964C37.8254 59.0013 39.3778 58.6757 39.3778 58.6757C39.3778 58.6757 39.1155 59.1671 39.8993 59.5228C41.0267 60.0322 43.3961 58.7993 44.4813 57.8648C45.5665 56.9303 48.8462 52.7011 49.3375 52.0409L43.3839 45.0293C43.3839 45.0293 40.5986 48.8064 39.649 49.7891L39.634 49.8042C38.9943 50.5069 38.3106 51.1684 37.5872 51.7847C36.4116 52.7222 34.0905 52.9905 34.4944 54.0244C34.8591 54.9559 36.4508 54.6273 36.4508 54.6273C36.4508 54.6273 34.7778 55.5768 35.456 56.4601Z" fill="#F7A9A0"/>
<path d="M36.508 54.576C38.6935 53.9521 39.5406 53.2979 41.0297 51.6279C41.0568 51.5978 41.1111 51.6279 41.084 51.6701C39.7757 53.4366 38.8291 54.4072 36.5291 54.6846C36.4296 54.6846 36.4146 54.5941 36.508 54.576ZM37.7138 56.6289C39.9264 55.7818 40.8518 55.0825 42.5369 53.4486C42.561 53.4245 42.6032 53.4637 42.5821 53.4878C41.0568 55.2302 40.0922 56.1767 37.759 56.7344C37.6565 56.7585 37.5992 56.6681 37.7138 56.6289ZM39.3959 58.6486C41.4788 57.6719 42.5279 56.9514 43.9628 55.1548C43.9691 55.1456 43.9789 55.1394 43.99 55.1374C44.001 55.1354 44.0123 55.1379 44.0215 55.1443C44.0307 55.1507 44.037 55.1605 44.039 55.1715C44.041 55.1825 44.0385 55.1939 44.0321 55.203C42.7449 57.1775 41.4457 58.0879 39.432 58.7089C39.2934 58.7511 39.2632 58.7119 39.3959 58.6486ZM38.1569 49.9308C37.8886 50.1026 37.6113 50.2654 37.3521 50.4493C37.337 50.4493 37.3521 50.4794 37.3671 50.4734C37.9248 50.2744 39.4622 49.1742 39.7335 49.2375C40.0982 49.3249 39.3928 49.9187 39.2934 50.0122C38.8322 50.4462 38.3649 50.8773 37.9158 51.3235C37.5139 51.7828 37.0199 52.1526 36.4658 52.4087C36.4387 52.4087 36.4085 52.4539 36.4357 52.4448C36.9232 52.3003 37.373 52.0502 37.753 51.7123C38.2202 51.3024 38.6573 50.8683 39.1155 50.4372C39.3265 50.2322 39.5496 50.0363 39.7516 49.8343C39.8312 49.7664 39.8941 49.681 39.9354 49.5848C39.9767 49.4886 39.9953 49.3842 39.9897 49.2797C39.8782 48.5954 38.4312 49.7529 38.1569 49.9308Z" fill="#263238"/>
<path d="M41.2015 26.1016C38.4885 21.3629 40.4901 19.7472 44.6108 22.418C46.8264 23.8529 54.7363 31.0182 56.0898 37.0471C56.9701 40.9659 51.8696 50.6121 51.8696 50.6121L41.943 44.6887C41.943 44.6887 46.8053 37.2672 46.8566 36.197C46.8897 35.7238 42.1269 27.7174 41.2015 26.1016Z" fill="#31DB9D"/>
<path d="M43.619 44.2306C43.7748 44.1798 43.9413 44.1715 44.1013 44.2064C44.1881 44.2393 44.2631 44.2973 44.3168 44.373C44.3705 44.4487 44.4004 44.5387 44.4028 44.6315C44.4013 44.6947 44.4161 44.7573 44.4456 44.8132C44.4752 44.8691 44.5185 44.9166 44.5716 44.951C44.6304 44.9886 44.6979 45.0104 44.7675 45.0143C44.8459 45.0143 44.9213 45.0354 44.9997 45.0535C44.8415 45.1021 44.6724 45.1021 44.5143 45.0535C44.4295 45.0181 44.3572 44.9581 44.3067 44.8813C44.2563 44.8045 44.2299 44.7143 44.231 44.6224C44.2278 44.5609 44.2093 44.501 44.1772 44.4484C44.1451 44.3958 44.1004 44.352 44.0471 44.321C43.9863 44.2864 43.9181 44.2667 43.8481 44.2637C43.7728 44.2577 43.6944 44.2486 43.619 44.2306ZM49.1686 29.8155C49.2385 29.8162 49.307 29.8349 49.3676 29.8697C49.4207 29.9009 49.4653 29.9448 49.4974 29.9974C49.5294 30.05 49.548 30.1097 49.5515 30.1712C49.5506 30.2634 49.577 30.3539 49.6274 30.4311C49.6779 30.5084 49.75 30.569 49.8348 30.6053C49.9946 30.6475 50.1633 30.6423 50.3202 30.5902C50.2418 30.5691 50.1664 30.5631 50.088 30.548C49.9902 30.5434 49.8978 30.5014 49.83 30.4307C49.7621 30.3601 49.7239 30.2661 49.7233 30.1682C49.7217 30.0752 49.6921 29.9848 49.6383 29.909C49.5845 29.8331 49.5091 29.7753 49.4218 29.7431C49.2612 29.7058 49.0933 29.7131 48.9365 29.7642C49.0119 29.7914 49.0903 29.8004 49.1686 29.8155ZM44.9032 22.623H44.858C44.7895 22.6204 44.7229 22.5996 44.665 22.5627C44.5951 22.5187 44.5428 22.4515 44.5173 22.3728L44.3244 22.2522C44.3243 22.3435 44.3511 22.4328 44.4015 22.509C44.4519 22.5851 44.5237 22.6447 44.6078 22.6803C44.7303 22.7193 44.862 22.7193 44.9846 22.6803L44.9032 22.623ZM55.092 43.1212C55.0905 43.0283 55.0609 42.9379 55.0071 42.8621C54.9533 42.7862 54.8778 42.7284 54.7906 42.6962C54.6299 42.6588 54.4621 42.6661 54.3053 42.7173C54.3806 42.7354 54.459 42.7444 54.5343 42.7595C54.6042 42.7602 54.6727 42.7789 54.7333 42.8138C54.7864 42.845 54.831 42.8888 54.8631 42.9414C54.8952 42.994 54.9137 43.0537 54.9172 43.1152C54.9139 43.2248 54.9503 43.3318 55.0197 43.4167C55.0438 43.3413 55.0709 43.2689 55.0981 43.1936C55.0913 43.1701 55.0892 43.1455 55.092 43.1212ZM52.6051 45.8614C52.675 45.8621 52.7435 45.8808 52.8041 45.9156C52.8574 45.9466 52.9021 45.9904 52.9342 46.0431C52.9663 46.0957 52.9848 46.1555 52.9879 46.2171C52.9868 46.309 53.0132 46.3991 53.0637 46.4759C53.1142 46.5527 53.1865 46.6127 53.2713 46.6481C53.4296 46.6953 53.5983 46.6953 53.7566 46.6481C53.6801 46.6297 53.6026 46.6156 53.5245 46.6059C53.4546 46.6034 53.3867 46.5815 53.3286 46.5426C53.2759 46.5085 53.2329 46.4615 53.2033 46.4062C53.1738 46.3508 53.1588 46.2888 53.1598 46.2261C53.158 46.1328 53.1283 46.0422 53.0746 45.9659C53.0209 45.8896 52.9456 45.8312 52.8583 45.7981C52.6973 45.763 52.5298 45.7713 52.373 45.8222C52.4514 45.8342 52.5297 45.8553 52.6051 45.8704V45.8614ZM48.3548 35.4645C48.3033 35.5117 48.2413 35.5458 48.1739 35.564C48.1132 35.5797 48.0495 35.5796 47.9888 35.5638C47.9281 35.548 47.8725 35.5169 47.8272 35.4735C47.7626 35.408 47.68 35.3631 47.5899 35.3443C47.4999 35.3255 47.4062 35.3338 47.3208 35.368C47.1429 35.4434 47.0766 35.5971 46.9862 35.7207C47.0528 35.68 47.1172 35.6357 47.1791 35.5881C47.2296 35.5408 47.2922 35.5085 47.36 35.4946C47.4217 35.4801 47.4861 35.4819 47.5469 35.4999C47.6077 35.5179 47.6628 35.5514 47.7066 35.5971C47.7733 35.6617 47.8577 35.7048 47.949 35.7209C48.0404 35.737 48.1344 35.7254 48.2191 35.6876C48.3586 35.5993 48.472 35.4755 48.5477 35.3288C48.4784 35.371 48.4181 35.4193 48.3548 35.4645ZM40.4478 23.452C40.4298 23.5273 40.4207 23.6057 40.4057 23.681C40.4058 23.7455 40.3899 23.8091 40.3594 23.8659C40.3288 23.9228 40.2847 23.9711 40.2308 24.0066C40.2308 24.0579 40.2639 24.1091 40.282 24.1634C40.3696 24.1123 40.4368 24.0324 40.4719 23.9373C40.507 23.7762 40.4987 23.6088 40.4478 23.452ZM48.1799 47.1365C48.1618 47.2118 48.1528 47.2902 48.1377 47.3686C48.1366 47.4375 48.1179 47.5049 48.0834 47.5645C48.0522 47.6177 48.0084 47.6622 47.9558 47.6943C47.9032 47.7264 47.8435 47.745 47.782 47.7484C47.7081 47.7476 47.6352 47.7644 47.5691 47.7974C47.503 47.8304 47.4458 47.8787 47.4022 47.9383L47.5318 48.0167C47.6002 47.9524 47.6912 47.9177 47.785 47.9202C47.878 47.9187 47.9683 47.8891 48.0442 47.8353C48.12 47.7815 48.1778 47.706 48.21 47.6188C48.2439 47.4583 48.2335 47.2915 48.1799 47.1365ZM52.3338 34.8828C52.3318 34.9528 52.3121 35.0213 52.2765 35.0817C52.2454 35.1346 52.2015 35.1789 52.1488 35.2105C52.0962 35.2421 52.0364 35.26 51.9751 35.2626C51.8829 35.2621 51.7926 35.2887 51.7155 35.339C51.6383 35.3894 51.5776 35.4614 51.541 35.5459C51.4924 35.7041 51.4924 35.8731 51.541 36.0313C51.5591 35.9559 51.5681 35.8775 51.5832 35.7991C51.5847 35.7304 51.6056 35.6636 51.6435 35.6062C51.6778 35.5528 51.7251 35.509 51.781 35.4789C51.8369 35.4489 51.8996 35.4336 51.963 35.4344C52.0558 35.432 52.1458 35.4021 52.2215 35.3484C52.2972 35.2947 52.3552 35.2197 52.3881 35.133C52.4224 34.972 52.4151 34.805 52.367 34.6476C52.3514 34.7253 52.3404 34.8038 52.3338 34.8828ZM45.5031 31.3016C45.482 31.38 45.476 31.4583 45.4609 31.5337C45.4593 31.6038 45.4395 31.6723 45.4036 31.7326C45.373 31.7863 45.3294 31.8313 45.2766 31.8635C45.2239 31.8956 45.1639 31.9139 45.1022 31.9165C45.0246 31.9154 44.948 31.934 44.8795 31.9703C44.8111 32.0067 44.7528 32.0597 44.7103 32.1245L44.7856 32.2571C44.8199 32.2039 44.8673 32.1603 44.9233 32.1308C44.9791 32.1007 45.0417 32.0848 45.1052 32.0854C45.1982 32.0842 45.2888 32.0548 45.3647 32.0009C45.4406 31.9471 45.4984 31.8714 45.5302 31.7839C45.565 31.6237 45.5557 31.4569 45.5031 31.3016ZM49.0481 39.3561C49.0461 39.4253 49.0264 39.4928 48.9908 39.5521C48.9602 39.6057 48.9165 39.6508 48.8638 39.6829C48.8111 39.7151 48.7511 39.7333 48.6894 39.736C48.597 39.7347 48.5064 39.7609 48.4291 39.8114C48.3518 39.8619 48.2912 39.9343 48.2553 40.0193C48.213 40.1791 48.2182 40.3478 48.2703 40.5046C48.2884 40.4263 48.2975 40.3509 48.3126 40.2725C48.3152 40.204 48.336 40.1374 48.3728 40.0796C48.4071 40.0262 48.4545 39.9824 48.5104 39.9523C48.5663 39.9223 48.6289 39.9069 48.6924 39.9078C48.7852 39.9054 48.8751 39.8755 48.9508 39.8218C49.0265 39.7681 49.0845 39.6931 49.1174 39.6063C49.1533 39.4455 49.146 39.2781 49.0963 39.121C49.0692 39.2024 49.0632 39.2778 49.0481 39.3561ZM55.6798 36.9657C55.6791 37.0356 55.6604 37.1041 55.6256 37.1647C55.5946 37.2178 55.5508 37.2622 55.4981 37.2938C55.4454 37.3255 55.3855 37.3432 55.3241 37.3456C55.2321 37.3454 55.1419 37.3722 55.0648 37.4225C54.9877 37.4729 54.927 37.5446 54.8901 37.6289C54.8429 37.7873 54.8429 37.9559 54.8901 38.1143C54.9085 38.0388 54.9226 37.9623 54.9323 37.8851C54.9361 37.7868 54.9778 37.6937 55.0485 37.6252C55.1192 37.5567 55.2136 37.5181 55.3121 37.5174C55.4052 37.5163 55.4957 37.4868 55.5716 37.433C55.6475 37.3791 55.7053 37.3034 55.7371 37.2159C55.7745 37.0553 55.7672 36.8874 55.716 36.7306C55.6919 36.812 55.6829 36.8874 55.6678 36.9657H55.6798ZM43.7336 26.795C43.785 26.7478 43.847 26.7137 43.9145 26.6955C43.9752 26.6798 44.0389 26.6798 44.0995 26.6957C44.1602 26.7115 44.2158 26.7426 44.2611 26.786C44.3258 26.8515 44.4083 26.8964 44.4984 26.9152C44.5885 26.934 44.6821 26.9257 44.7675 26.8915C44.9454 26.8161 45.0117 26.6624 45.1021 26.5388C45.0355 26.5795 44.9711 26.6238 44.9092 26.6714C44.8587 26.7187 44.7961 26.751 44.7283 26.7649C44.6666 26.7794 44.6022 26.7775 44.5414 26.7596C44.4806 26.7416 44.4256 26.7081 44.3817 26.6624C44.3151 26.5978 44.2307 26.5547 44.1393 26.5386C44.048 26.5225 43.9539 26.5341 43.8692 26.5719C43.7298 26.6602 43.6163 26.784 43.5407 26.9307C43.5979 26.8884 43.6582 26.8432 43.7215 26.7949L43.7336 26.795ZM51.8002 40.4263C51.8512 40.3785 51.9134 40.3443 51.9811 40.3269C52.0415 40.3101 52.1052 40.3094 52.166 40.3247C52.2268 40.3401 52.2825 40.3709 52.3278 40.4143C52.3921 40.4803 52.4745 40.5258 52.5646 40.5451C52.6547 40.5644 52.7485 40.5567 52.8342 40.5228C52.9772 40.4383 53.0932 40.3149 53.1688 40.1671C53.0995 40.2093 53.0392 40.2575 52.9729 40.3027C52.922 40.3495 52.8596 40.3818 52.792 40.3962C52.73 40.4097 52.6656 40.4071 52.6049 40.3887C52.5442 40.3702 52.4893 40.3364 52.4453 40.2907C52.3786 40.2263 52.294 40.1835 52.2026 40.1679C52.1112 40.1523 52.0172 40.1646 51.9329 40.2033C51.7938 40.291 51.6812 40.415 51.6073 40.562C51.6616 40.5198 51.7219 40.4715 51.7882 40.4263H51.8002ZM49.0511 43.8778C49.1025 43.8306 49.1645 43.7965 49.232 43.7783C49.2926 43.762 49.3565 43.7618 49.4173 43.7776C49.4781 43.7935 49.5337 43.8249 49.5786 43.8688C49.6433 43.9343 49.7258 43.9792 49.8159 43.998C49.906 44.0168 49.9996 44.0085 50.0851 43.9743C50.2629 43.8959 50.3292 43.7452 50.4197 43.6186C50.3503 43.6608 50.29 43.709 50.2267 43.7542C50.1751 43.8016 50.1115 43.8339 50.0428 43.8477C49.9816 43.8619 49.9177 43.86 49.8574 43.842C49.7972 43.824 49.7426 43.7907 49.6992 43.7452C49.633 43.6799 49.5486 43.6363 49.4571 43.6201C49.3655 43.604 49.2713 43.6161 49.1867 43.6547C49.0473 43.743 48.9339 43.8668 48.8582 44.0135C48.9154 43.9713 48.9757 43.923 49.039 43.8778H49.0511Z" fill="white"/>
<path d="M52.0806 48.2939C50.7904 47.3896 45.3764 43.8657 44.1556 43.1694C44.0712 43.1211 44.0199 43.1694 44.1013 43.2236C47.9026 46.0361 50.7331 47.5042 52.0414 48.3301C52.0745 48.3633 52.1137 48.3181 52.0806 48.2939ZM46.6606 35.6664C46.0577 34.5671 45.4548 33.4618 44.8519 32.3505C44.1646 31.0965 43.4351 29.8757 42.7117 28.6458C42.7117 28.6247 42.6725 28.6458 42.6815 28.6639C43.0734 29.4356 43.4532 30.2103 43.8511 30.979L43.6401 30.7559C43.4442 30.5419 43.2543 30.3278 43.0674 30.1078C43.2308 30.3448 43.409 30.5714 43.6009 30.786C43.6974 30.8915 43.7999 30.994 43.9024 31.0875L43.9506 31.1297C44.0923 31.401 44.234 31.6693 44.3787 31.9375C44.9574 32.9956 45.5332 34.0477 46.115 35.1118C46.2536 35.368 46.4164 35.6182 46.534 35.8774C46.6167 36.0038 46.6489 36.1565 46.6244 36.3055C46.5685 36.4669 46.4969 36.6224 46.4104 36.7697C46.1481 37.2882 42.2384 44.0556 41.9098 44.6073C41.8948 44.6344 41.9339 44.6645 41.955 44.6404C42.3168 44.1943 46.3019 37.6168 46.5641 37.0862C46.7088 36.8529 46.8109 36.5956 46.8656 36.3266C46.8651 36.0909 46.7937 35.8609 46.6606 35.6664Z" fill="#263238"/>
<path d="M36.0648 23.8799C37.3731 24.1452 39.5435 22.0923 40.3725 20.4555C40.4298 20.344 40.2248 19.1864 40.0409 17.7666C39.9354 16.9075 39.8359 15.9579 39.8088 15.0536L34.3074 16.5608C34.6581 17.6558 34.8728 18.7897 34.9465 19.937C34.95 20.0592 34.9409 20.1814 34.9194 20.3018C34.9206 20.3218 34.9206 20.342 34.9194 20.3621C34.8229 21.0735 34.8018 23.6207 36.0648 23.8799Z" fill="#F7A9A0"/>
<path d="M39.8239 15.0627C39.8239 15.5239 39.8721 16.0062 39.9173 16.4855C39.4018 18.3243 38.1297 20.9529 35.0098 21.1187H34.8892C34.8875 20.8699 34.9005 20.6213 34.9284 20.3741C34.9297 20.3541 34.9297 20.3339 34.9284 20.3138C34.9495 20.1934 34.9596 20.0713 34.9585 19.9491C34.8782 18.8085 34.6596 17.6819 34.3074 16.594L39.8239 15.0627Z" fill="#263238"/>
<path d="M40.2158 6.11278C41.4005 8.66903 41.2317 15.4968 39.5737 17.4772C37.1622 20.347 32.6978 21.2091 30.1234 18.1977C27.6305 15.2767 27.953 6.64634 29.8551 4.79246C32.6555 2.05835 38.4674 2.34171 40.2158 6.11278Z" fill="#F7A9A0"/>
<path d="M40.3424 12.4824C38.9798 12.3889 39.438 8.78062 39.438 8.78062C39.438 8.78062 37.3038 8.68114 36.5532 5.60641C36.5532 5.60641 35.0822 9.30513 29.4241 9.00971C29.1825 8.0285 29.2553 6.99621 29.632 6.05857C29.1453 7.06477 28.742 8.10928 28.4263 9.18154C28.4263 9.18154 26.7623 4.60561 30.6328 2.68541C32.1732 1.92275 34.5938 1.8926 38.38 3.45107L39.1426 3.8309L39.7455 4.32828C40.4829 4.53608 41.1209 5.00211 41.5431 5.6413C41.9654 6.28049 42.1437 7.05021 42.0455 7.80997C41.8436 10.4386 41.0297 12.5276 40.3424 12.4824Z" fill="#263238"/>
<path d="M34.4672 2.27245C34.4672 2.27245 35.7845 5.88978 42.0485 8.23502C42.0485 8.23502 43.0373 4.84678 40.062 2.64021C37.3731 0.644646 34.4672 2.27245 34.4672 2.27245Z" fill="#31DB9D"/>
<path d="M42.1631 7.62913C42.148 7.7467 42.13 7.84919 42.1149 7.93058C39.0371 6.80318 37.1621 5.21758 36.1131 4.0962C35.5601 3.5128 35.0849 2.86028 34.6993 2.1549C34.7777 2.12174 34.8712 2.07954 34.9797 2.04035C35.5494 3.06828 37.4425 5.88377 42.1631 7.62913Z" fill="white"/>
<path d="M33.5206 11.9789C34.3767 11.9367 34.3948 13.6579 33.602 13.6941C32.8092 13.7303 32.8002 12.0121 33.5206 11.9789ZM29.6712 12.1748C28.8121 12.1748 28.8905 13.9021 29.6863 13.8931C30.4821 13.884 30.3886 12.1688 29.6712 12.1748ZM34.0753 10.9751C33.8923 10.9233 33.7122 10.8619 33.5357 10.7912C33.3353 10.7504 33.154 10.6444 33.0202 10.4898C32.9876 10.4334 32.9741 10.368 32.9817 10.3034C32.9893 10.2387 33.0176 10.1783 33.0625 10.131C33.1667 10.0531 33.2898 10.0045 33.4191 9.99016C33.5485 9.97585 33.6793 9.99639 33.798 10.0497C34.0535 10.1206 34.2743 10.2825 34.419 10.5048C34.4606 10.5565 34.4841 10.6205 34.4856 10.6869C34.4872 10.7533 34.4668 10.8183 34.4277 10.8719C34.3885 10.9255 34.3327 10.9647 34.269 10.9833C34.2053 11.002 34.1372 10.9991 34.0753 10.9751ZM28.9718 11.0715C29.1648 11.0384 29.3366 10.9751 29.5235 10.9238C29.7246 10.8972 29.9118 10.8063 30.057 10.6646C30.0925 10.6105 30.1096 10.5464 30.1058 10.4818C30.102 10.4172 30.0775 10.3555 30.0359 10.3059C29.9373 10.2205 29.8175 10.1634 29.689 10.1406C29.5606 10.1178 29.4284 10.1301 29.3064 10.1763C29.0457 10.2283 28.8142 10.3769 28.6583 10.5923C28.6187 10.6419 28.5958 10.7027 28.5928 10.7661C28.5898 10.8295 28.6069 10.8922 28.6416 10.9454C28.6764 10.9985 28.727 11.0393 28.7863 11.0619C28.8456 11.0846 28.9105 11.088 28.9718 11.0715ZM33.9065 16.5458C33.8221 16.7056 33.7558 16.9075 33.5779 16.9859C33.3886 17.0432 33.1897 17.0616 32.9931 17.0402C32.9899 17.0416 32.9871 17.0439 32.9852 17.0468C32.9833 17.0498 32.9823 17.0532 32.9823 17.0567C32.9823 17.0603 32.9833 17.0637 32.9852 17.0666C32.9871 17.0696 32.9899 17.0719 32.9931 17.0733C33.0988 17.1476 33.2224 17.1923 33.3512 17.2029C33.4799 17.2135 33.6092 17.1896 33.7256 17.1336C33.8197 17.0719 33.8933 16.9837 33.9373 16.8801C33.9813 16.7766 33.9936 16.6624 33.9728 16.5518C33.9577 16.5217 33.9155 16.5247 33.9065 16.5458ZM31.1844 14.9813C31.1844 14.9813 31.1483 15.7711 31.1844 16.1388C31.1844 16.175 31.2779 16.181 31.4045 16.178C31.7262 16.2055 32.0492 16.1441 32.3383 16.0005C32.6275 15.857 32.8717 15.6369 33.0444 15.3641C33.0474 15.3562 33.0478 15.3474 33.0454 15.3393C33.0431 15.3311 33.0381 15.3239 33.0313 15.3188C33.0245 15.3137 33.0162 15.3109 33.0077 15.3109C32.9991 15.311 32.9909 15.3138 32.9841 15.3189C32.5439 15.6819 31.9984 15.8933 31.4286 15.9218C31.3955 15.8223 31.5311 14.5562 31.4769 14.5713C31.2357 14.6346 30.8137 14.7853 30.6569 14.8396C30.6569 14.3241 30.7715 12.8651 30.7896 11.9307C30.7896 11.8704 30.6991 11.8613 30.6901 11.9307C30.4906 13.0122 30.3637 14.1059 30.3103 15.2044C30.3163 15.2797 31.0428 15.0566 31.1844 14.9813Z" fill="#263238"/>
<path d="M31.4949 16.1389C31.7495 16.4078 32.0693 16.6061 32.4234 16.7146C32.6216 16.7723 32.8333 16.7639 33.0263 16.6905C33.4362 16.5368 33.4091 16.1479 33.2945 15.8223C33.2339 15.6496 33.153 15.4846 33.0534 15.331C32.6343 15.7609 32.0878 16.0442 31.4949 16.1389Z" fill="#263238"/>
<path d="M32.4234 16.7146C32.6216 16.7723 32.8333 16.7639 33.0263 16.6905C33.4362 16.5368 33.4091 16.1479 33.2945 15.8223C33.07 15.851 32.8618 15.9549 32.7037 16.1168C32.5455 16.2788 32.4467 16.4894 32.4234 16.7146Z" fill="#FF9CBD"/>
<path d="M39.9023 12.2804C39.9023 12.2804 41.1412 9.97131 42.1721 10.3873C43.2031 10.8033 42.4465 14.0288 41.3613 14.5864C41.2266 14.667 41.0771 14.7195 40.9217 14.741C40.7663 14.7624 40.6082 14.7523 40.4568 14.7112C40.3054 14.6701 40.1638 14.5989 40.0406 14.5018C39.9173 14.4048 39.8149 14.2839 39.7395 14.1463L39.9023 12.2804Z" fill="#F7A9A0"/>
<path d="M41.9339 11.3067C41.9379 11.3067 41.9418 11.3083 41.9446 11.3112C41.9474 11.314 41.949 11.3178 41.949 11.3218C41.949 11.3258 41.9474 11.3296 41.9446 11.3325C41.9418 11.3353 41.9379 11.3369 41.9339 11.3369C41.1743 11.7529 40.8427 12.5427 40.6407 13.3415C40.6762 13.2549 40.73 13.1772 40.7986 13.1136C40.8672 13.05 40.9489 13.0022 41.0379 12.9735C41.1269 12.9448 41.2211 12.9359 41.3139 12.9474C41.4067 12.9589 41.4959 12.9905 41.5752 13.04C41.5963 13.04 41.5752 13.0853 41.5571 13.0853C41.4117 13.0564 41.2609 13.0737 41.1258 13.1348C40.9906 13.1959 40.878 13.2977 40.8035 13.4259C40.6799 13.6399 40.5789 13.8662 40.5021 14.1011C40.4719 14.1765 40.3393 14.1554 40.3574 14.068V14.0499C40.2338 13.0521 40.8548 11.5389 41.9339 11.3067Z" fill="#263238"/>
<path d="M34.8953 20.0486L36.0589 23.268L40.3454 19.4819L41.4366 20.8203C41.4366 20.8203 37.1109 26.9577 37.1109 26.6713L35.9051 23.886L33.8553 25.6766L34.2532 20.9379L34.8953 20.0486Z" fill="white"/>
<path d="M33.9005 23.3253C33.9939 22.5446 34.0633 21.7548 34.2019 20.9801C34.2019 20.9529 34.2501 20.9439 34.2562 20.9801C34.3828 21.7427 34.009 24.724 33.9788 25.4415C34.0632 25.3631 35.8749 23.8679 35.89 23.895C36.1613 24.3412 37.0566 26.3699 37.1169 26.5538C37.7982 25.5771 40.68 21.7307 41.4758 20.8263C41.4999 20.7992 41.5421 20.8263 41.524 20.8535C40.9211 21.8904 37.1832 26.9547 37.135 26.9366C36.6579 25.9797 36.2332 24.9976 35.8629 23.9945C35.5614 24.3231 33.7136 26.0202 33.7136 25.9057C33.7288 25.0428 33.7912 24.1814 33.9005 23.3253Z" fill="#263238"/>
</svg>
