<svg width="98" height="91" viewBox="0 0 98 91" fill="none" xmlns="http://www.w3.org/2000/svg">
<path d="M75.3008 35.7588H31.4678C29.6856 35.7588 28.239 34.3139 28.239 32.5301V3.22874C28.239 1.44655 29.684 0 31.4678 0H75.3008C77.083 0 78.5296 1.44498 78.5296 3.22874V32.5301C78.5296 34.3123 77.0846 35.7588 75.3008 35.7588Z" fill="#006680"/>
<path d="M64.5305 32.5537C64.4927 32.6687 64.4643 32.7775 64.4533 32.8689C64.4296 33.0721 64.7842 33.6 65.3231 34.2587H67.5244L64.5289 32.5537H64.5305Z" fill="url(#paint0_linear_900_487)"/>
<path d="M75.9755 1.50171H30.7967C30.1538 1.50171 29.6338 2.02171 29.6338 2.66462V28.066C29.8922 28.1085 30.1128 28.1211 30.283 28.0975C31.9848 27.8627 36.2205 21.1436 36.72 20.9183C36.5924 20.2628 36.4348 19.3662 36.449 19.0148C36.4695 18.4711 37.3519 17.6186 37.6828 17.2735C37.6891 17.2657 37.6954 17.2609 37.7017 17.2546C37.8278 16.8008 37.9932 16.3265 38.1666 16.1973C38.5243 15.9294 40.0401 16.1374 40.9037 15.8995C41.7672 15.6615 42.7189 15.6615 43.1649 17.0451C43.3429 17.5982 43.677 19.1534 43.9937 20.8647C44.468 23.4395 44.8982 26.3657 44.6824 26.7581C44.3247 27.412 42.1501 26.788 41.1101 27.3837C40.0701 27.9793 38.6125 28.7514 38.4644 27.1757C38.4486 27.0086 38.4234 26.8069 38.3919 26.5784C36.8981 29.2021 34.7724 32.3946 34.0176 32.9619C33.808 33.1194 33.4661 33.2628 33.0311 33.392C33.0138 33.7009 33.0044 34.0019 33.0091 34.2571H34.4399C34.8527 33.734 35.2262 33.9262 35.3617 34.2571H58.0338C58.0212 33.6001 58.0244 32.9445 58.0527 32.3331C58.1126 31.0316 58.1914 29.8923 58.3994 29.0618C58.6547 28.0439 59.1053 27.494 59.9578 27.6909C61.5052 28.0486 63.5868 27.8249 64.0784 28.0029C64.5701 28.181 64.5118 29.5456 64.5118 29.5456C64.8569 29.9852 65.2839 30.6549 65.2382 30.8819C65.1831 31.1608 64.7229 31.9676 64.5338 32.5522L67.5294 34.2571H75.6635C76.1488 33.8144 76.6452 33.4472 77.1384 33.1557C77.14 33.1352 77.1415 33.1147 77.1415 33.0942V30.5572C75.2049 30.5368 74.4659 29.2793 74.4659 27.7067C74.4659 27.5239 74.4659 27.3364 74.4643 27.1489C71.8013 28.9909 72.0361 24.9995 72.0361 24.9995C71.2025 25.2769 70.7865 24.1659 70.9251 23.3339C71.0008 22.8801 71.6516 22.3853 72.3197 21.8511C72.8791 21.4021 73.4495 20.9246 73.7017 20.4188C73.9443 19.9334 74.4769 19.4749 75.0017 19.1125C75.6777 18.6445 76.3395 18.3356 76.3395 18.3356C75.8825 17.6502 76.3032 17.2594 77.14 17.1349V2.66462C77.14 2.02171 76.6184 1.50171 75.9771 1.50171H75.9755Z" fill="url(#paint1_linear_900_487)"/>
<mask id="mask0_900_487" style="mask-type:luminance" maskUnits="userSpaceOnUse" x="28" y="4" width="2" height="25">
<path d="M28.1934 4.31601H29.6777V28.1132H28.1934V4.31601Z" fill="url(#paint2_linear_900_487)"/>
</mask>
<g mask="url(#mask0_900_487)">
<path d="M29.6304 6.55044V28.0659C29.5784 28.0581 29.5248 28.0486 29.4697 28.0376C29.4224 28.0297 29.3736 28.0187 29.3231 28.0076C29.3168 28.0061 29.309 28.0045 29.3027 28.0029C29.2554 27.9919 29.2081 27.9809 29.1593 27.9698C29.1025 27.9556 29.0458 27.9399 28.9875 27.9257C28.9292 27.9099 28.8693 27.8942 28.8079 27.8769C28.6865 27.8422 28.562 27.8059 28.4344 27.7665C28.4281 27.7634 28.4218 27.7618 28.4171 27.7602C28.3588 27.7429 28.2989 27.7224 28.239 27.7035V4.36328C28.6534 5.03456 29.1199 5.76729 29.6304 6.55202V6.55044Z" fill="url(#paint3_linear_900_487)"/>
</g>
<mask id="mask1_900_487" style="mask-type:luminance" maskUnits="userSpaceOnUse" x="34" y="34" width="25" height="2">
<path d="M34.6841 34.213H58.1346V35.8061H34.6841V34.213Z" fill="url(#paint4_linear_900_487)"/>
</mask>
<g mask="url(#mask1_900_487)">
<path d="M58.0888 35.7604H34.7312C34.9502 35.3806 35.1173 35.0749 35.2638 34.9268C35.4356 34.7551 35.4482 34.4777 35.3584 34.2587H57.2899C57.5388 34.3958 57.7894 34.5329 58.0415 34.6652C58.0525 35.0356 58.0699 35.4043 58.0904 35.7588L58.0888 35.7604Z" fill="url(#paint5_linear_900_487)"/>
</g>
<path d="M98 83.5692C98 87.1855 76.0622 90.1165 49 90.1165C21.9378 90.1165 0 87.1855 0 83.5692C0 79.9528 21.9378 77.0219 49 77.0219C76.0622 77.0219 98 79.9528 98 83.5692Z" fill="black" fill-opacity="0.121569"/>
<path d="M79.9024 29.9774C79.3304 30.2169 78.7142 30.3981 78.0824 30.4974C77.794 30.5431 77.5277 30.5651 77.2787 30.5699C77.2346 30.5714 77.1905 30.5714 77.1479 30.5714V33.1084C77.1479 33.1289 77.1464 33.1494 77.1448 33.1699C77.1889 33.1431 77.2346 33.1179 77.2787 33.0927C77.9153 32.7318 78.5409 32.4907 79.1255 32.3536C79.5793 32.2481 80.0079 32.2024 80.394 32.2134C80.4271 32.215 80.4586 32.2165 80.4901 32.2181V30.9607C80.2002 30.7353 80.0158 30.3792 79.8992 29.9758L79.9024 29.9774Z" fill="url(#paint6_linear_900_487)"/>
<path d="M85.1039 67.156C84.3491 64.5891 84.5839 62.1167 84.6737 59.118C83.9441 59.4663 82.8301 59.7247 81.7333 59.8444C81.7192 60.1375 81.7034 60.3802 81.6861 60.5504C81.6561 60.864 81.144 61.1366 80.3782 61.3383C80.2521 63.2308 80.126 64.9042 80.145 66.4043C80.1891 66.6202 80.2364 66.814 80.2836 66.9764C81.1314 69.8773 83.8149 78.3061 83.1689 79.8141C82.9356 80.3593 82.2029 80.3136 81.4213 80.2868C81.4434 80.7879 81.4576 81.2591 81.467 81.6908C81.4796 82.3196 81.4781 82.8616 81.4576 83.2824C81.4465 83.5282 81.4276 83.7315 81.404 83.8875C81.3961 83.9395 81.3882 83.9899 81.3804 84.0403C82.0233 84.2152 82.7119 84.3066 83.317 84.2924C85.0582 84.2483 85.4584 84.1144 85.906 83.3549C85.958 83.2666 85.9989 83.0192 86.0289 82.6505C86.0777 82.058 86.0998 81.1472 86.0966 80.0521C86.0856 75.9488 85.7247 69.2722 85.1023 67.1544L85.1039 67.156Z" fill="url(#paint7_linear_900_487)"/>
<path d="M81.4686 81.6908C81.4607 81.2591 81.445 80.7879 81.4229 80.2868C81.259 76.4325 80.7485 70.8748 80.3734 68.9397C80.2206 68.1519 80.1576 67.3088 80.145 66.4028C80.126 64.9026 80.2521 63.2276 80.3782 61.3367C80.1308 61.4013 79.8566 61.458 79.5635 61.5069C77.9546 61.7716 75.7722 61.7763 74.2595 61.3414C74.302 63.7586 74.7716 66.0703 75.5532 68.5978C76.579 71.9148 78.2903 81.1535 77.9925 81.3016C77.6946 81.4497 76.5349 81.4797 75.4933 81.3016C75.372 81.2811 75.249 81.2685 75.1261 81.2669C74.1933 81.2449 73.2983 81.7712 73.7978 83.2965C74.3635 85.022 77.4268 86.6576 79.4359 86.3913C81.0715 86.1739 81.1377 85.9848 81.2779 84.8345C81.3047 84.6091 81.3362 84.3476 81.3804 84.0419C81.3882 83.9915 81.3945 83.9426 81.404 83.889C81.4292 83.733 81.4465 83.5298 81.4576 83.2839C81.4781 82.8632 81.4796 82.3196 81.467 81.6924L81.4686 81.6908Z" fill="url(#paint8_linear_900_487)"/>
<path d="M85.1038 53.4736C84.9242 53.6438 84.6831 53.8219 84.3711 53.9905C83.7487 54.3308 82.8489 54.6397 81.6277 54.8067C81.8184 56.1304 81.7979 58.5082 81.7333 59.8445C82.83 59.7247 83.9441 59.4663 84.6736 59.118C85.1826 58.8754 85.5056 58.5886 85.5056 58.275C85.4899 56.0926 85.3213 54.5546 85.1038 53.4736Z" fill="url(#paint9_linear_900_487)"/>
<path d="M81.6294 54.8067C81.2764 54.8556 80.8983 54.8918 80.4901 54.9123C80.0915 54.9328 79.6676 54.9407 79.2138 54.9312H79.1791C78.7127 54.9218 78.2809 54.9092 77.8791 54.8934C76.2277 54.8304 75.1057 54.7248 74.3762 54.5877C73.7679 54.4742 73.4307 54.3387 73.281 54.189C73.1029 57.1861 73.0336 60.6418 73.2353 60.9065C73.5174 61.083 73.8672 61.228 74.2627 61.3414C75.7754 61.7763 77.9579 61.7732 79.5667 61.5069C79.8598 61.458 80.134 61.4013 80.3814 61.3367C81.1488 61.1366 81.6593 60.8624 81.6893 60.5488C81.705 60.3786 81.7224 60.1344 81.7366 59.8429C81.8012 58.5066 81.8232 56.1288 81.631 54.8052L81.6294 54.8067Z" fill="url(#paint10_linear_900_487)"/>
<path d="M85.0155 47.8765C85.1936 46.7167 85.3732 37.9539 84.8375 35.8424C84.3017 33.7293 82.7842 32.6593 82.7842 32.6593C82.7842 32.6593 82.5085 32.5427 82.0294 32.4277C81.6402 32.3347 81.1171 32.2449 80.4946 32.2181C80.4615 32.2165 80.4316 32.215 80.3985 32.2134C80.0125 32.2008 79.5838 32.2465 79.13 32.3536C79.6626 32.549 80.1165 32.8027 80.4962 33.1021C80.7751 33.3211 81.0146 33.5638 81.2179 33.8254C82.6897 35.7179 82.2532 38.5637 81.0714 40.2025C79.2671 42.7017 74.2404 43.9733 73.6385 43.8173C73.5944 43.8063 73.5439 43.7653 73.4888 43.7039C73.0791 47.1942 73.1216 53.6879 73.191 54.0362C73.202 54.0897 73.2319 54.1402 73.2808 54.1906C73.4305 54.3387 73.7677 54.4742 74.3759 54.5892C75.1055 54.7263 76.2275 54.8319 77.8789 54.8949C78.2807 54.9107 78.7124 54.9233 79.1789 54.9328H79.2135C79.6674 54.9422 80.0912 54.9343 80.4899 54.9139C80.898 54.8918 81.2762 54.8555 81.6292 54.8083C82.8504 54.6412 83.7502 54.3324 84.3726 53.992C84.683 53.8218 84.9257 53.6454 85.1053 53.4752C85.3795 53.2136 85.5072 52.9678 85.5072 52.7866C85.5072 52.1169 84.8375 49.0378 85.0155 47.8781V47.8765Z" fill="#AD49EB"/>
<path d="M79.68 24.4575C79.1002 24.4575 78.6054 24.812 78.3958 25.3163C78.328 25.4786 78.2918 25.6582 78.2918 25.8457C78.2918 25.8725 78.2949 25.8993 78.2965 25.9277C77.9861 26.0585 77.5764 26.1231 77.1494 25.8804C77.0674 25.8347 76.9855 25.778 76.9035 25.7071C76.4702 25.3352 76.341 24.7143 76.33 24.1408C76.3174 23.4301 76.4875 22.7919 76.4875 22.7919C76.029 23.1858 75.5389 23.3765 75.1497 23.4695C74.7668 23.5609 74.48 23.5577 74.417 23.5561C74.4154 23.5672 74.4154 23.5782 74.4138 23.5892C74.4028 23.698 74.4044 23.7641 74.4044 23.7641C74.4044 23.7641 74.4611 25.5006 74.4721 27.1631C74.4737 27.3506 74.4737 27.5381 74.4737 27.7209C74.4737 29.2935 75.2127 30.551 77.1494 30.5715C77.1919 30.5715 77.236 30.5715 77.2801 30.5699C77.5291 30.5652 77.7954 30.5431 78.0838 30.4974C78.7157 30.3981 79.3318 30.2169 79.9038 29.9774C79.8471 29.782 79.8077 29.5756 79.7809 29.3676C79.6454 28.3276 79.8203 27.2356 79.8203 27.2356C79.814 27.234 79.8077 27.2308 79.8014 27.2293C80.2063 27.1946 80.5593 26.9866 80.7894 26.6793C80.9643 26.4477 81.0683 26.1593 81.0683 25.8473C81.0683 25.0799 80.4474 24.4591 79.68 24.4591V24.4575Z" fill="url(#paint11_linear_900_487)"/>
<path d="M86.0669 26.5406C85.8825 25.986 85.7801 25.5968 85.6856 25.2012C85.5674 24.7049 85.465 24.1975 85.2333 23.3481C84.8173 21.8212 84.5384 20.0154 83.0115 19.7381C83.0115 19.7381 82.8523 19.4418 82.5151 19.0526C82.0203 18.4806 81.1411 17.7085 79.819 17.3776C79.6803 17.3429 79.5432 17.3114 79.4061 17.283C78.5505 17.1065 77.7437 17.0593 77.1481 17.1475C76.3113 17.272 75.8906 17.6644 76.3476 18.3482C76.3476 18.3482 75.6873 18.6571 75.0098 19.1251C74.485 19.4875 73.9524 19.9461 73.7098 20.4314C73.4561 20.9372 72.8856 21.4147 72.3278 21.8638C71.6597 22.3995 71.0089 22.8943 70.9333 23.3466C70.7946 24.1801 71.2106 25.2895 72.0442 25.0121C72.0442 25.0121 71.8094 29.0036 74.4724 27.1615C74.4614 25.4991 74.4047 23.7626 74.4047 23.7626C74.4047 23.7626 74.4031 23.698 74.4141 23.5877C74.4157 23.5766 74.4157 23.5656 74.4173 23.5546C74.4803 23.5561 74.7671 23.5593 75.15 23.4679C75.5392 23.3749 76.0277 23.1843 76.4878 22.7903C76.4878 22.7903 76.3176 23.4285 76.3303 24.1392C76.3413 24.7128 76.4705 25.3336 76.9038 25.7055C76.9858 25.7764 77.0677 25.8331 77.1496 25.8788C77.5767 26.1215 77.9864 26.0569 78.2968 25.9261C78.2952 25.8993 78.2921 25.8725 78.2921 25.8442C78.2921 25.6566 78.3299 25.4786 78.3961 25.3147C78.6041 24.8104 79.1005 24.4559 79.6803 24.4559C80.4477 24.4559 81.0686 25.0768 81.0686 25.8442C81.0686 26.1577 80.9646 26.4445 80.7897 26.6762C80.5596 26.9834 80.2051 27.1914 79.8017 27.2261C79.808 27.2277 79.8143 27.2308 79.8206 27.2324C79.8206 27.2324 79.6457 28.3244 79.7812 29.3644C79.808 29.5724 79.8474 29.7788 79.9041 29.9742C80.0191 30.3776 80.2051 30.7322 80.495 30.9591C81.13 31.4539 82.2646 31.3294 84.2642 29.7316C84.6834 29.7316 85.0521 29.5535 85.3515 29.2714C86.0417 28.6191 86.36 27.4105 86.0701 26.5391L86.0669 26.5406Z" fill="#404040"/>
<path d="M81.2149 33.8238C81.0116 33.5622 80.7721 33.3196 80.4932 33.1005C80.1134 32.8027 79.6612 32.549 79.127 32.3521C78.5424 32.4891 77.9152 32.7302 77.2802 33.0911C77.236 33.1163 77.1903 33.1415 77.1462 33.1683C76.653 33.4598 76.1566 33.827 75.6713 34.2698C75.4885 34.4368 75.3089 34.6101 75.1308 34.7992C74.2326 35.7526 73.3408 36.572 72.6679 37.1897C72.0029 37.7995 71.5491 38.2155 71.516 38.3699C71.5097 38.3998 71.5176 38.4707 71.5397 38.5747C71.6815 39.2854 72.4 41.5435 73.0004 42.853C73.1785 43.2422 73.3471 43.5463 73.4873 43.7007C73.5409 43.7606 73.5913 43.8016 73.637 43.8142C74.2389 43.9702 79.2656 42.6985 81.0699 40.1994C82.2533 38.5606 82.6882 35.7147 81.2164 33.8222L81.2149 33.8238Z" fill="#C88FEB"/>
<path d="M64.085 28.0172C63.5933 27.8391 61.5118 28.0613 59.9644 27.7051C59.1119 27.5082 58.6612 28.0581 58.4075 29.0761C58.1995 29.9049 58.1207 31.0442 58.0608 32.3474C58.0325 32.9588 58.0277 33.6158 58.0419 34.2714C58.0908 36.7296 58.3854 39.1846 58.5966 39.2193C58.8645 39.2634 59.3104 39.1751 60.3819 38.1036C61.4535 37.0321 61.4976 38.6394 62.5691 38.8616C63.1379 38.9798 63.7446 38.5448 64.1874 38.0642C62.9851 36.4774 61.9514 35.0655 61.7875 34.8449C61.6441 34.6511 61.3337 34.4526 60.9933 34.2698C60.4339 33.9688 59.7926 33.7088 59.6681 33.5654C59.468 33.3354 59.1544 32.3458 59.3104 32.0038C59.4428 31.7155 60.0179 30.6833 60.1314 30.0562C60.1519 29.9412 60.1598 29.8387 60.1424 29.7568C60.0384 29.2368 60.4844 28.939 60.8263 28.7751C61.1682 28.6112 62.8196 29.459 63.0434 29.4889C63.2672 29.5189 63.9353 29.0572 64.1449 29.1612C64.211 29.1942 64.356 29.3502 64.5183 29.5583C64.5183 29.5583 64.5766 28.1952 64.085 28.0156V28.0172Z" fill="#01CAFE"/>
<path d="M71.5383 38.5763C71.5305 38.5826 71.521 38.5889 71.5131 38.5937C71.0908 38.9057 70.4889 39.2634 68.8375 37.8578C67.7864 36.9643 66.2769 35.4201 65.3346 34.2713C64.7956 33.6143 64.4395 33.0848 64.4647 32.8815C64.4758 32.7886 64.5041 32.6814 64.5419 32.5664C64.731 31.9818 65.1912 31.175 65.2463 30.8961C65.292 30.6691 64.8634 29.9994 64.5199 29.5598C64.3576 29.3534 64.2126 29.1958 64.1464 29.1627C63.9384 29.0587 63.2687 29.5204 63.045 29.4905C62.8212 29.4605 61.1714 28.6128 60.8279 28.7767C60.4859 28.9405 60.04 29.2384 60.144 29.7584C60.1597 29.8387 60.1534 29.9427 60.133 30.0578C60.0195 30.6849 59.4443 31.7155 59.312 32.0054C59.156 32.3473 59.468 33.3369 59.6697 33.567C59.7942 33.7104 60.4371 33.972 60.9949 34.2713C61.3353 34.4541 61.6457 34.6511 61.7891 34.8465C61.953 35.0671 62.9867 36.4774 64.189 38.0658C65.7805 40.1679 67.6651 42.5819 68.2088 42.9538C68.9273 43.4486 70.9348 43.5684 73.0038 42.8561C72.4034 41.5467 71.6849 39.2886 71.5431 38.5779L71.5383 38.5763Z" fill="url(#paint12_linear_900_487)"/>
<mask id="mask2_900_487" style="mask-type:luminance" maskUnits="userSpaceOnUse" x="80" y="59" width="5" height="15">
<path d="M80.0977 59.0723H84.7209V73.114H80.0977V59.0723Z" fill="url(#paint13_linear_900_487)"/>
</mask>
<g mask="url(#mask2_900_487)">
<path d="M82.5338 61.6912C83.0885 61.5998 83.8764 61.3792 84.6012 61.1555C84.6233 60.5 84.6532 59.824 84.6737 59.118C83.9441 59.4663 82.8301 59.7247 81.7333 59.8444C81.7192 60.1375 81.7034 60.3802 81.6861 60.5504C81.6561 60.864 81.144 61.1366 80.3782 61.3383C80.2521 63.2308 80.126 64.9042 80.145 66.4043C80.1891 66.6202 80.2364 66.814 80.2836 66.9764C80.6634 68.2732 81.4087 70.6731 82.0595 73.0667C81.7333 69.7308 81.3362 61.8882 82.5338 61.6897V61.6912Z" fill="url(#paint14_linear_900_487)"/>
</g>
<mask id="mask3_900_487" style="mask-type:luminance" maskUnits="userSpaceOnUse" x="81" y="80" width="5" height="5">
<path d="M81.3362 80.2285H85.6743V84.3397H81.3362V80.2285Z" fill="url(#paint15_linear_900_487)"/>
</mask>
<g mask="url(#mask3_900_487)">
<path d="M82.4408 80.2743C82.1429 80.3153 81.7884 80.2995 81.4228 80.2869C81.4449 80.788 81.4591 81.2591 81.4685 81.6909C81.4811 82.3196 81.4795 82.8617 81.4591 83.2824C81.448 83.5282 81.4291 83.7315 81.4055 83.8875C81.3976 83.9395 81.3897 83.9899 81.3818 84.0404C82.0247 84.2153 82.7134 84.3067 83.3185 84.2925C84.7036 84.2578 85.2393 84.1633 85.6269 83.7457C83.3421 83.4936 82.6472 81.3631 82.4408 80.2743Z" fill="url(#paint16_linear_900_487)"/>
</g>
<mask id="mask4_900_487" style="mask-type:luminance" maskUnits="userSpaceOnUse" x="73" y="54" width="9" height="4">
<path d="M73.0935 54.1449H81.8169V57.9409H73.0935V54.1449Z" fill="url(#paint17_linear_900_487)"/>
</mask>
<g mask="url(#mask4_900_487)">
<path d="M81.7711 56.9529C81.7538 56.154 81.7112 55.3803 81.6277 54.8067C81.2747 54.8556 80.8965 54.8918 80.4884 54.9123C80.0897 54.9328 79.6659 54.9407 79.212 54.9312H79.1774C78.711 54.9218 78.2792 54.9092 77.8774 54.8934C76.226 54.8304 75.104 54.7248 74.3744 54.5877C73.7662 54.4742 73.429 54.3387 73.2793 54.189C73.2178 55.2243 73.169 56.3147 73.1406 57.309C74.6675 57.8952 77.4945 58.3963 81.7711 56.9529Z" fill="url(#paint18_linear_900_487)"/>
</g>
<mask id="mask5_900_487" style="mask-type:luminance" maskUnits="userSpaceOnUse" x="74" y="22" width="3" height="4">
<path d="M74.3574 22.7446H76.5336V25.1225H74.3574V22.7446Z" fill="url(#paint19_linear_900_487)"/>
</mask>
<g mask="url(#mask5_900_487)">
<path d="M76.1078 24.9869C76.2228 24.968 76.3489 24.9995 76.4844 25.0689C76.3788 24.7774 76.3347 24.4512 76.33 24.1408C76.3174 23.4301 76.4875 22.7919 76.4875 22.7919C76.029 23.1858 75.5389 23.3765 75.1497 23.4695C74.7668 23.5609 74.48 23.5577 74.417 23.5561C74.4154 23.5672 74.4154 23.5782 74.4138 23.5892C74.4028 23.698 74.4044 23.7641 74.4044 23.7641C74.4044 23.7641 74.4217 24.3046 74.439 25.0705C74.9244 25.0894 75.5389 25.0783 76.1094 24.9885L76.1078 24.9869Z" fill="url(#paint20_linear_900_487)"/>
</g>
<mask id="mask6_900_487" style="mask-type:luminance" maskUnits="userSpaceOnUse" x="77" y="24" width="5" height="7">
<path d="M77.3447 24.4118H81.1155V30.4517H77.3447V24.4118Z" fill="url(#paint21_linear_900_487)"/>
</mask>
<g mask="url(#mask6_900_487)">
<path d="M78.5614 30.406C79.0247 30.302 79.4754 30.157 79.9024 29.9774C79.8457 29.782 79.8063 29.5756 79.7795 29.3676C79.644 28.3275 79.8189 27.2355 79.8189 27.2355C79.8126 27.234 79.8063 27.2308 79.8 27.2292C80.2049 27.1946 80.5579 26.9866 80.788 26.6793C80.9629 26.4477 81.0669 26.1593 81.0669 25.8473C81.0669 25.0799 80.446 24.459 79.6786 24.459C79.0988 24.459 78.604 24.8136 78.3944 25.3178C78.3266 25.4801 78.2904 25.6598 78.2904 25.8473C78.2904 25.8741 78.2935 25.9009 78.2951 25.9292C78.0446 26.0348 77.7278 26.0947 77.3906 25.986C78.1738 27.1221 78.8482 28.9972 78.5614 30.4076V30.406Z" fill="url(#paint22_linear_900_487)"/>
</g>
<mask id="mask7_900_487" style="mask-type:luminance" maskUnits="userSpaceOnUse" x="70" y="38" width="4" height="6">
<path d="M70.4321 38.5306H73.0447V43.3651H70.4321V38.5306Z" fill="url(#paint23_linear_900_487)"/>
</mask>
<g mask="url(#mask7_900_487)">
<path d="M70.8748 43.3178C71.5398 43.2548 72.2662 43.1083 73.0005 42.8546C72.4002 41.5451 71.6816 39.287 71.5398 38.5764C71.5319 38.5827 71.5225 38.589 71.5146 38.5937C71.2845 38.7639 70.9977 38.9482 70.5171 38.8505C70.4462 40.0465 70.4399 41.8618 70.8764 43.3178H70.8748Z" fill="url(#paint24_linear_900_487)"/>
</g>
<mask id="mask8_900_487" style="mask-type:luminance" maskUnits="userSpaceOnUse" x="77" y="29" width="4" height="3">
<path d="M77.1023 29.9301H80.539V31.8305H77.1023V29.9301Z" fill="url(#paint25_linear_900_487)"/>
</mask>
<g mask="url(#mask8_900_487)">
<path d="M80.4933 31.364V30.9607C80.2034 30.7353 80.019 30.3792 79.9024 29.9758C79.3304 30.2153 78.7143 30.3965 78.0824 30.4958C77.794 30.5415 77.5277 30.5636 77.2787 30.5683C77.2346 30.5699 77.1905 30.5699 77.1479 30.5699V31.7028C77.8098 31.8147 79.0168 31.8856 80.4917 31.3625L80.4933 31.364Z" fill="url(#paint26_linear_900_487)"/>
</g>
<mask id="mask9_900_487" style="mask-type:luminance" maskUnits="userSpaceOnUse" x="74" y="61" width="7" height="4">
<path d="M74.2139 61.2926H80.4255V64.8601H74.2139V61.2926Z" fill="url(#paint27_linear_900_487)"/>
</mask>
<g mask="url(#mask9_900_487)">
<path d="M80.1941 64.2897C80.2398 63.3679 80.3091 62.3877 80.3785 61.3383C80.1311 61.4029 79.8569 61.4596 79.5638 61.5085C77.9549 61.7732 75.7725 61.7779 74.2598 61.343C74.2771 62.3168 74.3638 63.2717 74.5119 64.2314C77.156 65.2304 79.1572 64.7309 80.1941 64.2897Z" fill="url(#paint28_linear_900_487)"/>
</g>
<mask id="mask10_900_487" style="mask-type:luminance" maskUnits="userSpaceOnUse" x="81" y="53" width="5" height="7">
<path d="M81.582 53.4279H85.3891V59.8917H81.582V53.4279Z" fill="url(#paint29_linear_900_487)"/>
</mask>
<g mask="url(#mask10_900_487)">
<path d="M84.3711 53.9921C83.7487 54.3324 82.8489 54.6413 81.6277 54.8083C81.8184 56.132 81.7979 58.5098 81.7333 59.846C82.0941 59.8066 82.4565 59.7515 82.8064 59.6837C82.7811 57.9094 82.9482 56.5243 83.6935 56.2564C84.1615 56.0878 84.8281 55.5426 85.3418 55.0793C85.2756 54.4569 85.1936 53.9259 85.1022 53.4752C84.9226 53.6454 84.6815 53.8235 84.3695 53.9921H84.3711Z" fill="url(#paint30_linear_900_487)"/>
</g>
<mask id="mask11_900_487" style="mask-type:luminance" maskUnits="userSpaceOnUse" x="73" y="40" width="9" height="14">
<path d="M73.0981 40.2072H81.0747V53.9716H73.0981V40.2072Z" fill="url(#paint31_linear_900_487)"/>
</mask>
<g mask="url(#mask11_900_487)">
<path d="M81.0273 40.253C79.19 42.7175 74.2326 43.9718 73.6338 43.8158C73.5897 43.8047 73.5393 43.7638 73.4841 43.7023C73.0965 47.0035 73.1138 52.9883 73.1753 53.9243C78.5061 50.7696 80.4144 43.5495 81.0258 40.253H81.0273Z" fill="#F03F6D"/>
</g>
<mask id="mask12_900_487" style="mask-type:luminance" maskUnits="userSpaceOnUse" x="70" y="19" width="17" height="13">
<path d="M70.8606 19.0195H86.2212V31.2648H70.8606V19.0195Z" fill="url(#paint32_linear_900_487)"/>
</mask>
<g mask="url(#mask12_900_487)">
<path d="M80.4931 30.9607C80.6254 31.0631 80.7783 31.1387 80.9579 31.1813C81.1391 31.1041 81.3219 31.019 81.5079 30.9229C81.3219 31.019 81.1376 31.1041 80.9579 31.1813C81.6387 31.3404 82.6787 31.0001 84.2623 29.7332C84.6815 29.7332 85.0502 29.5551 85.3496 29.273C86.0398 28.6207 86.3581 27.4121 86.0681 26.5407C85.8838 25.986 85.7813 25.5968 85.6868 25.2013C85.5686 24.7049 85.4662 24.1975 85.2345 23.3482C85.0943 22.8329 84.9682 22.2845 84.8059 21.7755C84.4861 22.5083 83.8778 23.0771 83.205 23.293C81.9554 23.6948 81.0698 21.5975 81.0698 21.5975C77.3715 22.8029 77.7371 20.3479 77.7371 20.3479C75.7343 20.2738 75.126 19.7066 75.0992 19.0668C75.0693 19.0873 75.0409 19.1062 75.011 19.1267C74.4863 19.4891 73.9536 19.9477 73.711 20.433C73.4573 20.9388 72.8868 21.4163 72.329 21.8654C71.6609 22.4011 71.0101 22.8959 70.9345 23.3482C70.7958 24.1817 71.2118 25.2911 72.0454 25.0137C72.0454 25.0137 71.8106 29.0052 74.4736 27.1631C74.4626 25.5007 74.4059 23.7642 74.4059 23.7642C74.4059 23.7642 74.4043 23.6996 74.4153 23.5893C74.4169 23.5782 74.4169 23.5672 74.4185 23.5562C74.4815 23.5577 74.7683 23.5609 75.1512 23.4695C75.5404 23.3765 76.0289 23.1859 76.4891 22.7919C76.4891 22.7919 76.3189 23.4301 76.3315 24.1408C76.3425 24.7143 76.4717 25.3352 76.9051 25.7071C76.987 25.778 77.0689 25.8347 77.1509 25.8804C77.5779 26.1231 77.9876 26.0585 78.298 25.9277C78.2965 25.9009 78.2933 25.8741 78.2933 25.8457C78.2933 25.6582 78.3311 25.4802 78.3973 25.3163C78.6053 24.812 79.1017 24.4575 79.6815 24.4575C80.4489 24.4575 81.0698 25.0783 81.0698 25.8457C81.0698 26.1593 80.9658 26.4461 80.7909 26.6777C80.5608 26.985 80.2063 27.193 79.8029 27.2277C79.8092 27.2293 79.8155 27.2324 79.8218 27.234C79.8218 27.234 79.6469 28.326 79.7824 29.366C79.8092 29.574 79.8486 29.7804 79.9053 29.9758C80.0203 30.3792 80.2063 30.7338 80.4962 30.9607H80.4931Z" fill="url(#paint33_linear_900_487)"/>
</g>
<mask id="mask13_900_487" style="mask-type:luminance" maskUnits="userSpaceOnUse" x="59" y="33" width="6" height="6">
<path d="M59.9768 33.7513H64.233V38.9277H59.9768V33.7513Z" fill="white"/>
</mask>
<g mask="url(#mask13_900_487)">
<path d="M60.221 35.0135C60.6149 35.6738 61.491 37.2669 62.2238 38.7292C62.3262 38.7891 62.4396 38.8348 62.5673 38.8616C63.1361 38.9797 63.7428 38.5448 64.1856 38.0642C62.9833 36.4774 61.9496 35.0655 61.7857 34.8449C61.6423 34.6511 61.3319 34.4526 60.9915 34.2698C60.6622 34.0933 60.3045 33.9294 60.0397 33.7955C59.994 34.2477 60.0271 34.6889 60.2194 35.012L60.221 35.0135Z" fill="#003948" fill-opacity="0.23"/>
</g>
<path d="M64.756 52.0191C63.6844 49.698 59.5796 49.5798 55.4731 54.5451C51.3667 59.5103 50.3314 66.42 52.0821 67.3119C52.1293 67.3356 52.175 67.3545 52.2207 67.3765C55.2777 68.8073 56.6849 65.2492 58.0432 62.6114C59.422 59.9342 65.8275 54.3402 64.756 52.0207V52.0191Z" fill="#F288A4"/>
<path d="M48.8675 37.6198C43.6013 40.8328 42.1438 51.9892 42.5598 57.4335C42.9584 62.6367 44.6051 66.0829 46.6205 66.5162C46.7135 66.5367 46.808 66.5524 46.9026 66.5587C48.8612 66.7021 49.8477 65.555 50.7411 58.1473C51.633 50.7396 53.9809 46.0517 55.3298 42.6433C56.5526 39.5533 54.1322 34.4052 48.8675 37.6182V37.6198Z" fill="#F03F6D"/>
<path d="M37.325 59.8034C34.4098 58.0874 31.4442 59.129 32.3361 62.1639C33.228 65.1989 35.7177 65.4069 37.2651 67.0141C38.7999 68.6072 40.9193 70.2571 42.5203 68.6009C42.5329 68.5868 42.5471 68.5757 42.5612 68.56C43.7399 67.2946 42.9189 63.2449 37.325 59.8034Z" fill="#FFDB4D"/>
<path d="M50.8483 74.395C50.8373 74.395 50.8278 74.3934 50.8168 74.3918C50.7428 74.3745 50.6955 74.2989 50.7128 74.2248C52.7471 65.536 55.4827 60.3313 57.4208 57.4949C59.5292 54.408 61.1365 53.3979 61.2043 53.357C61.2689 53.316 61.3555 53.3365 61.3949 53.4027C61.4359 53.4673 61.4154 53.5539 61.3492 53.5933C61.3335 53.6028 59.712 54.6254 57.6352 57.6746C55.7159 60.4904 53.004 65.659 50.9838 74.2878C50.9697 74.3524 50.9114 74.395 50.8483 74.395Z" fill="#74309D"/>
<path d="M47.3675 74.0169C47.2981 74.0169 47.2398 73.9664 47.2304 73.8955C45.8437 63.3537 46.9798 54.7531 48.1774 49.394C49.4758 43.5841 51.1241 40.2198 51.1414 40.1868C51.1761 40.1174 51.258 40.0906 51.3274 40.1237C51.3967 40.1584 51.4235 40.2403 51.3904 40.3097C51.3746 40.3428 49.7358 43.6834 48.4469 49.4649C47.2556 54.7988 46.1273 63.3615 47.5061 73.8593C47.5156 73.9349 47.462 74.0058 47.3864 74.0153C47.3801 74.0169 47.3738 74.0169 47.3675 74.0169Z" fill="#74309D"/>
<path d="M44.3325 73.5914C44.2679 73.5914 44.2112 73.5473 44.197 73.4827C42.7977 67.0961 34.1657 61.042 34.079 60.9821C34.016 60.938 34.0002 60.8513 34.0443 60.7883C34.0885 60.7253 34.1751 60.7095 34.2382 60.7536C34.3264 60.8151 43.0467 66.9291 44.4696 73.4228C44.4854 73.4984 44.4381 73.5709 44.364 73.5882C44.3546 73.5898 44.3435 73.5914 44.3341 73.5914H44.3325Z" fill="#74309D"/>
<path d="M53.1521 72.3103H42.2635C41.7372 72.3103 41.3118 72.7357 41.3118 73.262V74.5116C41.3118 75.0379 41.7388 75.4634 42.2635 75.4634H53.1536C53.6799 75.4634 54.1054 75.0379 54.1054 74.5116V73.262C54.1054 72.7357 53.6799 72.3103 53.1536 72.3103H53.1521Z" fill="url(#paint34_linear_900_487)"/>
<path d="M43.3633 80.4838C43.4815 81.2213 44.241 81.7712 45.1408 81.7712H50.2778C51.1776 81.7712 51.9371 81.2213 52.0537 80.4838L52.8558 75.4634H42.5613L43.3633 80.4838Z" fill="url(#paint35_linear_900_487)"/>
<mask id="mask14_900_487" style="mask-type:luminance" maskUnits="userSpaceOnUse" x="51" y="53" width="8" height="15">
<path d="M51.2188 53.1805H58.5366V67.75H51.2188V53.1805Z" fill="url(#paint36_linear_900_487)"/>
</mask>
<g mask="url(#mask14_900_487)">
<path d="M55.158 61.6912C52.8258 60.5457 55.0429 55.9933 56.6802 53.2262C56.2799 53.6186 55.8765 54.0567 55.4731 54.5436C51.3667 59.5088 50.3314 66.4185 52.0821 67.3104C52.1293 67.3341 52.175 67.353 52.2207 67.375C55.2777 68.8058 56.6849 65.2477 58.0432 62.6099C58.1598 62.3846 58.3111 62.1388 58.4907 61.8756C57.3514 62.1624 56.1806 62.1923 55.1595 61.6912H55.158Z" fill="url(#paint37_linear_900_487)"/>
</g>
<mask id="mask15_900_487" style="mask-type:luminance" maskUnits="userSpaceOnUse" x="42" y="45" width="10" height="22">
<path d="M42.4478 45.8516H51.0262V66.6171H42.4478V45.8516Z" fill="url(#paint38_linear_900_487)"/>
</mask>
<g mask="url(#mask15_900_487)">
<path d="M42.5616 57.4335C42.9603 62.6367 44.6069 66.0829 46.6223 66.5162C46.7153 66.5367 46.8099 66.5524 46.9044 66.5587C48.8631 66.7021 49.8495 65.555 50.743 58.1473C50.8123 57.5659 50.8927 57.0049 50.9793 56.4565C49.6557 58.1252 48.2501 59.2393 46.9091 59.088C43.6048 58.7162 43.5401 50.6514 43.7938 45.8973C42.6514 49.9848 42.3378 54.5246 42.5616 57.4335Z" fill="url(#paint39_linear_900_487)"/>
</g>
<mask id="mask16_900_487" style="mask-type:luminance" maskUnits="userSpaceOnUse" x="37" y="61" width="7" height="9">
<path d="M37.0901 61.2547H43.0717V69.3368H37.0901V61.2547Z" fill="url(#paint40_linear_900_487)"/>
</mask>
<g mask="url(#mask16_900_487)">
<path d="M42.5611 68.5615C43.5727 67.4758 43.1079 64.3416 39.4269 61.3004C40.2085 63.0558 40.7773 65.0412 39.9737 66.0308C39.304 66.855 38.2025 66.9999 37.1357 66.8865C37.1799 66.929 37.2224 66.97 37.265 67.0141C38.7998 68.6072 40.9192 70.257 42.5201 68.6009C42.5327 68.5867 42.5469 68.5757 42.5611 68.5599V68.5615Z" fill="url(#paint41_linear_900_487)"/>
</g>
<mask id="mask17_900_487" style="mask-type:luminance" maskUnits="userSpaceOnUse" x="42" y="75" width="11" height="7">
<path d="M42.5139 75.4177H52.8998V81.6798H42.5139V75.4177Z" fill="url(#paint42_linear_900_487)"/>
</mask>
<g mask="url(#mask17_900_487)">
<path d="M42.8985 77.5749C44.9675 77.6301 50.2526 77.8428 50.8498 78.6165C51.3336 79.2437 51.1886 80.6934 51.0279 81.6325C51.5699 81.4245 51.9718 81.0006 52.0537 80.4822L52.8558 75.4618H42.5613L42.8985 77.5733V77.5749Z" fill="url(#paint43_linear_900_487)"/>
</g>
<path d="M24.8465 14.872C24.8717 15.7434 24.9222 16.5912 24.9568 17.3838C25.9259 17.981 26.9391 17.2451 26.6618 16.5045C26.4869 16.0365 26.0851 15.2597 25.7179 14.5868C25.3933 14.5143 25.0482 14.3788 24.7205 14.2213C24.7961 14.4308 24.8402 14.6483 24.8465 14.872Z" fill="black"/>
<path d="M21.5881 25.1051C22.0609 25.2642 22.6849 25.5148 23.3877 25.8047C23.8084 25.2233 24.0132 24.2148 23.5673 23.471C23.4381 23.2551 23.3751 22.8864 23.3593 22.431C22.9291 22.5823 22.3997 22.6957 21.8245 22.7588C21.8355 23.2268 21.7914 23.9674 21.5881 25.1051Z" fill="black"/>
<path d="M21.4401 23.6034C21.2951 24.2037 21.0729 24.6245 20.8176 24.9207H20.8192C20.9689 24.9176 21.2368 24.9869 21.5882 25.1051C21.7899 23.9674 21.834 23.2268 21.8245 22.7588C21.7379 22.7682 21.6512 22.7761 21.563 22.784C21.5472 23.0471 21.5094 23.3213 21.4401 23.6049V23.6034Z" fill="url(#paint44_linear_900_487)"/>
<path d="M24.957 17.3838C24.9223 16.5896 24.8719 15.7435 24.8467 14.8721C24.8404 14.6483 24.7963 14.4324 24.7207 14.2213C23.9265 13.8415 23.241 13.3388 23.241 13.3388C22.7793 14.0227 20.9656 15.4961 20.8159 16.8055C20.8096 16.8638 20.8017 16.919 20.7938 16.9757C20.5386 16.6873 20.1683 16.5046 19.7523 16.5046C18.9849 16.5046 18.364 17.1254 18.364 17.8928C18.364 18.6602 18.9864 19.281 19.7523 19.281C19.9398 19.281 20.1194 19.2432 20.2817 19.1755L20.2786 19.1849C20.2786 19.1849 21.3643 20.2974 21.5455 22.0166C21.5707 22.2608 21.577 22.5161 21.5612 22.7824C21.6495 22.7745 21.7362 22.7666 21.8228 22.7572C22.398 22.6926 22.9259 22.5807 23.3576 22.4294C23.791 22.2766 24.1266 22.0843 24.3094 21.8637C25.0295 20.9939 25.0405 19.3535 24.9554 17.3838H24.957Z" fill="url(#paint45_linear_900_487)"/>
<path d="M24.5629 10.8413C24.1469 10.7073 25.4106 8.78804 24.161 8.52016C22.9115 8.25228 17.5113 7.27531 15.6377 10.9988C15.5715 11.1643 14.634 10.9973 13.5955 12.001C12.5571 13.0048 12.4011 15.9956 12.379 19.0069C12.357 22.0197 10.8616 23.2016 11.5092 24.251C12.1569 25.3005 13.7405 24.697 14.0084 24.3629C14.0084 24.3629 13.0093 26.6714 16.2223 26.175C16.8274 25.7559 17.6563 25.3604 18.7829 25.1287C18.8917 25.1067 19.002 25.0862 19.1154 25.0673C19.6244 24.9822 20.1885 24.9286 20.8157 24.9191C21.071 24.6245 21.2931 24.2038 21.4381 23.6018C21.5059 23.3182 21.5453 23.0456 21.561 22.7808C21.5768 22.5145 21.5705 22.2577 21.5453 22.015C21.3641 20.2974 20.2783 19.1834 20.2783 19.1834L20.2815 19.1739C20.1176 19.2417 19.9396 19.2795 19.752 19.2795C18.9846 19.2795 18.3638 18.6571 18.3638 17.8912C18.3638 17.1238 18.9862 16.503 19.752 16.503C20.1665 16.503 20.5384 16.6858 20.7936 16.9741C20.8015 16.9174 20.8078 16.8607 20.8157 16.804C20.9638 15.4945 22.7791 14.0227 23.2408 13.3373C23.2408 13.3373 23.9278 13.8384 24.7204 14.2197C25.0482 14.3773 25.3949 14.5128 25.7179 14.5853C26.167 14.6846 26.572 14.6609 26.8257 14.3946C27.7034 13.4728 24.9804 10.9736 24.5644 10.8397L24.5629 10.8413Z" fill="#404040"/>
<path d="M31.6144 38.5984C31.6081 38.5353 31.5955 38.4739 31.5813 38.4109C31.3292 37.2747 29.9993 36.2253 29.8291 36.0992C29.7251 36.022 28.7844 36.6681 28.0154 37.2227C28.31 38.8489 28.6457 40.7777 28.9041 42.4748C29.8575 41.5072 31.7137 39.495 31.6144 38.5984Z" fill="#F03F6D"/>
<path d="M23.5813 80.4586C23.4946 80.4255 23.3764 79.9417 23.2472 79.2058C23.1038 79.2011 22.9683 79.209 22.8438 79.2326C22.0607 79.3744 20.9245 79.0341 20.3273 78.6417C19.7411 79.0419 17.5508 79.9764 16.6637 79.4028C16.6637 79.6785 15.8821 83.9552 18.1811 84.5792C20.0342 85.0834 21.6746 84.6406 23.4489 83.1878C23.4347 82.039 23.4741 80.8099 23.5797 80.4586H23.5813Z" fill="url(#paint46_linear_900_487)"/>
<path d="M21.424 66.491C21.58 65.2446 21.9314 62.353 22.2308 59.8775C21.6209 57.0254 20.6897 52.1846 20.8914 49.0615C15.8914 49.4932 15.6756 49.8651 15.2659 49.8651C15.3226 50.9303 15.4802 52.1799 15.7102 53.5492C16.2759 56.8962 15.9041 64.9735 15.7701 66.2672C15.6362 67.5609 15.6504 78.7473 16.662 79.4028C17.5492 79.9764 19.7395 79.0404 20.3257 78.6417C20.4076 78.585 20.4596 78.5393 20.4706 78.5109C20.5604 78.273 20.4107 73.6324 20.4706 72.4411C20.5305 71.2514 21.1246 68.8704 21.4224 66.491H21.424Z" fill="url(#paint47_linear_900_487)"/>
<path d="M31.3908 81.3662C31.0331 81.2181 29.9632 81.0242 28.6458 80.7753C28.1542 80.6823 27.858 80.375 27.6815 80.0268C27.4451 80.2584 26.6115 80.6366 25.6346 80.7453C24.968 80.8194 24.2353 80.769 23.5813 80.4601C23.4758 80.8115 23.4364 82.0406 23.4505 83.1894C23.4616 84.1301 23.5088 85.0172 23.5813 85.3245C23.7452 86.0084 26.3626 86.9602 27.7918 86.0383C29.2194 85.1165 31.1245 83.8071 31.5405 83.1815C31.9565 82.5575 31.7485 81.5159 31.3924 81.3662H31.3908Z" fill="url(#paint48_linear_900_487)"/>
<path d="M29.0981 62.8305C29.2588 59.5734 29.2147 49.271 29.2147 49.271C28.5324 49.1828 26.6777 48.7762 23.148 48.9133C22.5776 48.9354 21.9662 48.9716 21.3059 49.0252C21.1641 49.0362 21.027 49.0488 20.8931 49.0598C20.6914 52.1846 21.6211 57.0238 22.2325 59.8759C22.409 60.6984 22.5571 61.3555 22.6453 61.7589C23.1811 64.214 22.3333 69.2123 22.3333 70.8621C22.3333 72.1133 22.8455 76.8989 23.2489 79.2042C23.3781 79.9417 23.4962 80.4255 23.5829 80.457C24.2369 80.7658 24.9696 80.8178 25.6361 80.7422C26.6131 80.6335 27.4483 80.2553 27.6831 80.0236C27.7035 80.0031 27.7209 79.9827 27.7335 79.9653C27.9572 79.6076 27.5097 74.655 27.7335 72.3339C27.9572 70.0128 28.9389 66.086 29.0997 62.8289L29.0981 62.8305Z" fill="url(#paint49_linear_900_487)"/>
<path d="M35.3682 34.2713C35.2326 33.9404 34.8592 33.7482 34.4463 34.2713C34.4243 34.2981 34.4038 34.328 34.3817 34.3596C33.6679 35.3854 33.3102 35.5193 33.088 34.8953C33.0423 34.7677 33.0218 34.5439 33.0155 34.2729C33.0108 34.016 33.0203 33.7151 33.0376 33.4062C32.2765 33.6331 31.2223 33.8159 30.0515 33.9546C30.05 33.9672 30.0484 33.9782 30.0484 33.9908C29.9759 34.6731 29.8813 35.5855 29.8293 36.0992C29.998 36.2268 31.3295 37.2763 31.5816 38.4108C31.8479 38.4235 32.1426 38.3604 32.4625 38.1965C34.2037 37.3047 34.8277 35.3854 35.2736 34.9394C35.4454 34.7677 35.458 34.4903 35.3682 34.2713Z" fill="url(#paint50_linear_900_487)"/>
<path d="M44.0016 20.8789C43.6865 19.1676 43.3524 17.6107 43.1744 17.0592C42.7284 15.6757 41.7767 15.6757 40.9131 15.9136C40.0496 16.1516 38.5337 15.9436 38.176 16.2115C38.0027 16.3422 37.8357 16.8166 37.7112 17.2688C37.7254 17.253 37.7411 17.2373 37.7522 17.2247C38.02 16.9316 38.7118 17.2231 39.1136 17.3791C39.5154 17.5351 40.9431 16.5298 41.4127 16.9095C41.8807 17.2893 41.5025 17.8928 41.6364 18.2489C41.7373 18.5184 42.0414 19.3078 42.2321 19.8704C42.2951 20.0547 42.3455 20.2139 42.3723 20.3242C42.4779 20.7449 41.6506 22.3522 39.8936 22.9289C39.922 22.9762 39.9456 23.0235 39.9629 23.0676C40.0859 23.4033 39.3799 24.875 38.4029 26.591C38.4345 26.8179 38.4597 27.0196 38.4754 27.1882C38.6235 28.7656 40.0827 27.9919 41.1211 27.3962C42.1611 26.8006 44.3357 27.4262 44.6934 26.7707C44.9077 26.3767 44.4775 23.4505 44.0048 20.8773L44.0016 20.8789Z" fill="#01CAFE"/>
<path d="M42.3691 20.3242C42.3423 20.2139 42.2919 20.0547 42.2288 19.8704C42.0382 19.3063 41.734 18.5184 41.6332 18.2489C41.4993 17.8912 41.879 17.2893 41.4094 16.9095C40.9414 16.5298 39.5122 17.5351 39.1104 17.3791C38.7086 17.2231 38.0168 16.9332 37.7489 17.2247C37.7379 17.2373 37.7221 17.253 37.708 17.2688C37.7017 17.2751 37.6969 17.2814 37.6891 17.2877C37.3566 17.6344 36.4757 18.4869 36.4552 19.0289C36.441 19.3803 36.6002 20.2769 36.7263 20.9325C36.7326 20.9293 36.7404 20.9261 36.7452 20.9261C36.8728 20.912 37.2148 21.0396 37.6308 21.2445C38.4502 21.651 39.5548 22.3664 39.8888 22.9274C41.6458 22.3506 42.4731 20.7434 42.3675 20.3226L42.3691 20.3242Z" fill="url(#paint51_linear_900_487)"/>
<path d="M39.9598 23.0676C39.9424 23.0219 39.9188 22.9762 39.8904 22.929C39.5564 22.3664 38.4502 21.651 37.6324 21.246C37.2164 21.0396 36.8744 20.912 36.7468 20.9277C36.7421 20.9277 36.7342 20.9309 36.7279 20.934C36.2284 21.1594 31.9927 27.8784 30.2909 28.1132C30.1207 28.1369 29.9001 28.1243 29.6417 28.0817C28.5402 27.9036 26.7375 27.193 25.0373 26.4902C24.6701 26.3389 24.3077 26.1876 23.9595 26.0427C23.7641 25.9623 23.5734 25.8819 23.389 25.8063C22.6862 25.5164 22.0607 25.2658 21.5895 25.1067C21.2381 24.9885 20.9702 24.9191 20.8205 24.9223H20.819C20.1918 24.9318 19.6277 24.9838 19.1187 25.0704C19.0053 25.0893 18.8934 25.1098 18.7862 25.1319C17.6595 25.3635 16.8307 25.759 16.2256 26.1782C15.1431 26.9267 14.7759 27.7508 14.7034 27.8469C14.7034 27.8469 14.1377 29.2746 14.1677 30.2563C14.1976 31.238 14.5837 34.4809 14.7034 37.9318C14.8232 41.3827 14.6735 49.8021 15.1793 49.8619C15.2108 49.8651 15.2407 49.8682 15.2691 49.8682C15.6788 49.8682 15.8931 49.4948 20.8946 49.0646C21.0285 49.0536 21.1656 49.041 21.3074 49.0299C21.9677 48.9748 22.5791 48.9401 23.1495 48.9181C26.6792 48.7794 28.5339 49.1875 29.2162 49.2758C29.388 49.2978 29.4872 49.301 29.5188 49.2695C29.6968 49.0914 29.6385 48.1097 29.1611 44.3011C29.0917 43.7495 29.0051 43.1318 28.9058 42.481C28.6489 40.784 28.3117 38.8536 28.0171 37.229C27.7823 35.9306 27.5727 34.8276 27.4514 34.1909C28.3212 34.1374 29.1957 34.0633 30.0151 33.9656C30.0277 33.964 30.0403 33.9625 30.0545 33.9609C31.2253 33.8222 32.2795 33.6379 33.0406 33.4125C33.4755 33.2833 33.8174 33.1399 34.027 32.9823C34.7834 32.4151 36.9075 29.2226 38.4013 26.5989C39.3783 24.8829 40.0858 23.4111 39.9614 23.0755L39.9598 23.0676Z" fill="#F288A4"/>
<mask id="mask18_900_487" style="mask-type:luminance" maskUnits="userSpaceOnUse" x="18" y="13" width="7" height="7">
<path d="M18.3181 13.2932H24.93V19.9145H18.3181V13.2932Z" fill="url(#paint52_linear_900_487)"/>
</mask>
<g mask="url(#mask18_900_487)">
<path d="M19.7521 19.2811C19.9396 19.2811 20.1193 19.2433 20.2816 19.1755L20.2784 19.185C20.2784 19.185 20.518 19.4324 20.789 19.8688C21.0253 17.6754 22.4104 15.9405 23.1195 15.7939C23.6411 15.6868 24.3786 15.7514 24.8812 15.8207C24.8671 15.5087 24.8545 15.192 24.845 14.8721C24.8387 14.6483 24.7946 14.4324 24.7189 14.2213C23.9248 13.8415 23.2393 13.3389 23.2393 13.3389C22.7776 14.0227 20.9639 15.4961 20.8142 16.8056C20.8079 16.8639 20.8 16.919 20.7921 16.9757C20.5369 16.6874 20.1666 16.5046 19.7506 16.5046C18.9832 16.5046 18.3623 17.1254 18.3623 17.8928C18.3623 18.6602 18.9847 19.2811 19.7506 19.2811H19.7521Z" fill="url(#paint53_linear_900_487)"/>
</g>
<mask id="mask19_900_487" style="mask-type:luminance" maskUnits="userSpaceOnUse" x="16" y="78" width="8" height="6">
<path d="M16.4905 78.5944H23.6271V83.6148H16.4905V78.5944Z" fill="url(#paint54_linear_900_487)"/>
</mask>
<g mask="url(#mask19_900_487)">
<path d="M16.6652 79.4029C16.6652 79.5195 16.5265 80.3452 16.5391 81.3095C17.7099 81.4167 19.9113 81.475 20.8662 80.5469C21.766 79.6739 22.5475 81.0369 22.8359 82.4961C22.9084 82.8585 22.9478 83.2273 22.9541 83.5676C23.1195 83.4479 23.285 83.3234 23.452 83.1863C23.4378 82.0376 23.4772 80.8085 23.5828 80.4571C23.4961 80.424 23.378 79.9402 23.2487 79.2043C23.1054 79.1996 22.9698 79.2075 22.8454 79.2311C22.0622 79.3729 20.9261 79.0326 20.3289 78.6402C19.7427 79.0404 17.5524 79.9749 16.6652 79.4013V79.4029Z" fill="url(#paint55_linear_900_487)"/>
</g>
<mask id="mask20_900_487" style="mask-type:luminance" maskUnits="userSpaceOnUse" x="15" y="49" width="8" height="21">
<path d="M15.2219 49.0157H22.2782V69.1052H15.2219V49.0157Z" fill="url(#paint56_linear_900_487)"/>
</mask>
<g mask="url(#mask20_900_487)">
<path d="M15.6834 53.3758C16.7628 53.1127 18.1716 52.881 18.7483 53.2734C19.7426 53.951 21.0836 56.4533 21.0158 69.0579C21.164 68.2416 21.3137 67.3655 21.424 66.4894C21.58 65.2429 21.9314 62.3514 22.2308 59.8759C21.6209 57.0237 20.6897 52.183 20.8914 49.0598C15.8914 49.4916 15.6756 49.8635 15.2659 49.8635C15.321 50.8846 15.4676 52.0743 15.6819 53.3743L15.6834 53.3758Z" fill="url(#paint57_linear_900_487)"/>
</g>
<mask id="mask21_900_487" style="mask-type:luminance" maskUnits="userSpaceOnUse" x="22" y="33" width="8" height="15">
<path d="M22.2781 33.0627H29.577V47.5598H22.2781V33.0627Z" fill="url(#paint58_linear_900_487)"/>
</mask>
<g mask="url(#mask21_900_487)">
<path d="M29.5316 47.514C29.4607 46.7734 29.3409 45.7366 29.1597 44.2947C29.0904 43.7432 29.0037 43.1255 28.9044 42.4747C28.6476 40.7776 28.3104 38.8473 28.0157 37.2227C27.7809 35.9243 27.5713 34.8212 27.45 34.1846C27.45 34.1846 23.8494 33.7355 22.3319 33.11C22.3319 33.11 21.8088 46.0533 29.5316 47.5156V47.514Z" fill="url(#paint59_linear_900_487)"/>
</g>
<mask id="mask22_900_487" style="mask-type:luminance" maskUnits="userSpaceOnUse" x="21" y="22" width="1" height="3">
<path d="M21.3027 22.7115H21.8716V24.0367H21.3027V22.7115Z" fill="url(#paint60_linear_900_487)"/>
</mask>
<g mask="url(#mask22_900_487)">
<path d="M21.8243 22.7572C21.7376 22.7666 21.6509 22.7745 21.5627 22.7824C21.5469 23.0455 21.5091 23.3197 21.4398 23.6034C21.413 23.7168 21.3815 23.8208 21.3484 23.9217C21.4918 23.9516 21.6257 23.9737 21.7534 23.9894C21.8148 23.4505 21.8306 23.0503 21.8243 22.7572Z" fill="url(#paint61_linear_900_487)"/>
</g>
<mask id="mask23_900_487" style="mask-type:luminance" maskUnits="userSpaceOnUse" x="38" y="21" width="5" height="8">
<path d="M38.3523 21.1846H42.8511V28.1668H38.3523V21.1846Z" fill="#006680"/>
</mask>
<g mask="url(#mask23_900_487)">
<path d="M42.7867 25.3745C42.6654 24.6481 42.3754 22.8344 42.0634 21.2318C41.6837 21.8464 40.9604 22.5791 39.892 22.9289C39.9204 22.9762 39.944 23.0235 39.9614 23.0676C40.0843 23.4032 39.3783 24.875 38.4014 26.591C38.4329 26.8179 38.4581 27.0196 38.4739 27.1882C38.6172 28.7088 39.9787 28.0423 41.0093 27.4592C41.419 26.1529 42.9963 26.6257 42.7883 25.3729L42.7867 25.3745Z" fill="#006680"/>
</g>
<mask id="mask24_900_487" style="mask-type:luminance" maskUnits="userSpaceOnUse" x="23" y="79" width="7" height="4">
<path d="M23.4016 79.9795H29.1075V82.9183H23.4016V79.9795Z" fill="url(#paint62_linear_900_487)"/>
</mask>
<g mask="url(#mask24_900_487)">
<path d="M27.196 82.496C28.0154 82.0501 28.6378 81.4024 29.0601 80.8525C28.9246 80.8273 28.7875 80.8005 28.6457 80.7737C28.1541 80.6807 27.8578 80.3735 27.6813 80.0252C27.445 80.2568 26.6114 80.635 25.6344 80.7438C24.9679 80.8178 24.2351 80.7674 23.5812 80.4585C23.4882 80.7642 23.4473 81.7286 23.4473 82.7292C24.6984 82.912 26.2758 82.9987 27.196 82.4976V82.496Z" fill="url(#paint63_linear_900_487)"/>
</g>
<mask id="mask25_900_487" style="mask-type:luminance" maskUnits="userSpaceOnUse" x="20" y="48" width="10" height="6">
<path d="M20.8188 48.8393H29.2681V53.7068H20.8188V48.8393Z" fill="url(#paint64_linear_900_487)"/>
</mask>
<g mask="url(#mask25_900_487)">
<path d="M29.2208 53.119C29.2224 50.9256 29.2161 49.271 29.2161 49.271C28.5338 49.1828 26.6791 48.7762 23.1494 48.9133C22.579 48.9354 21.9676 48.9716 21.3073 49.0252C21.1655 49.0362 21.0284 49.0488 20.8945 49.0599C20.8094 50.3804 20.926 52.005 21.1356 53.658C24.2225 52.3942 27.4513 52.7519 29.2224 53.1175L29.2208 53.119Z" fill="url(#paint65_linear_900_487)"/>
</g>
<mask id="mask26_900_487" style="mask-type:luminance" maskUnits="userSpaceOnUse" x="36" y="18" width="5" height="5">
<path d="M36.4097 18.9186H40.7257V22.9762H36.4097V18.9186Z" fill="url(#paint66_linear_900_487)"/>
</mask>
<g mask="url(#mask26_900_487)">
<path d="M36.7277 20.9324C36.734 20.9293 36.7419 20.9261 36.7466 20.9261C36.8743 20.912 37.2162 21.0396 37.6322 21.2444C38.4516 21.651 39.5562 22.3664 39.8903 22.9274C40.1787 22.8328 40.4402 22.7083 40.6782 22.5681C39.6902 20.3983 37.492 19.3504 36.4646 18.9627C36.4614 18.9848 36.4567 19.0069 36.4567 19.0273C36.4425 19.3787 36.6017 20.2754 36.7277 20.9309V20.9324Z" fill="url(#paint67_linear_900_487)"/>
</g>
<mask id="mask27_900_487" style="mask-type:luminance" maskUnits="userSpaceOnUse" x="28" y="33" width="3" height="3">
<path d="M28.6003 33.9073H30.0973V35.409H28.6003V33.9073Z" fill="url(#paint68_linear_900_487)"/>
</mask>
<g mask="url(#mask27_900_487)">
<path d="M30.0138 33.9593C30.0279 33.9577 30.0405 33.9562 30.0532 33.953C30.0516 33.9656 30.0516 33.9782 30.05 33.9908C30.0059 34.41 29.9523 34.9158 29.905 35.3617V35.3633C29.8877 35.3554 29.8735 35.3476 29.8578 35.3365C29.8404 35.3271 29.8262 35.3192 29.8105 35.3082C29.7758 35.2877 29.7412 35.2656 29.7065 35.242C29.6813 35.2262 29.6561 35.2105 29.6324 35.1916C29.2999 34.9599 29.0131 34.6668 28.7878 34.328C28.7626 34.2918 28.739 34.254 28.7169 34.2162C28.6996 34.1878 28.6822 34.1594 28.6649 34.1295C28.6586 34.1185 28.6523 34.1059 28.646 34.0948H28.6476C28.6807 34.0917 28.7153 34.0885 28.7484 34.0854C28.947 34.068 29.1424 34.0507 29.3378 34.0318C29.5662 34.0082 29.7916 33.9845 30.0122 33.9577L30.0138 33.9593Z" fill="url(#paint69_linear_900_487)"/>
</g>
<mask id="mask28_900_487" style="mask-type:luminance" maskUnits="userSpaceOnUse" x="32" y="34" width="3" height="2">
<path d="M32.9697 34.2256H34.4919V35.3176H32.9697V34.2256Z" fill="url(#paint70_linear_900_487)"/>
</mask>
<g mask="url(#mask28_900_487)">
<path d="M33.0168 34.2713H34.4461C34.4256 34.2981 34.4035 34.3264 34.3815 34.358C33.6676 35.3838 33.3115 35.5193 33.0878 34.8937C33.0421 34.7645 33.0216 34.5423 33.0168 34.2697V34.2713Z" fill="url(#paint71_linear_900_487)"/>
</g>
<defs>
<linearGradient id="paint0_linear_900_487" x1="67.8112" y1="6.50791" x2="65.1734" y2="45.4403" gradientUnits="userSpaceOnUse">
<stop stop-color="#C8DBD5"/>
<stop offset="1" stop-color="#A0BFB2"/>
</linearGradient>
<linearGradient id="paint1_linear_900_487" x1="53.3877" y1="1.50171" x2="53.3877" y2="34.2571" gradientUnits="userSpaceOnUse">
<stop stop-color="#BFFFF7"/>
<stop offset="1" stop-color="#BFFFF7" stop-opacity="0.61"/>
</linearGradient>
<linearGradient id="paint2_linear_900_487" x1="28.1398" y1="0.264717" x2="30.1646" y2="40.8785" gradientUnits="userSpaceOnUse">
<stop stop-color="white" stop-opacity="0.498039"/>
<stop offset="1" stop-color="white" stop-opacity="0"/>
</linearGradient>
<linearGradient id="paint3_linear_900_487" x1="28.1397" y1="0.264715" x2="30.1646" y2="40.8785" gradientUnits="userSpaceOnUse">
<stop/>
<stop offset="1"/>
</linearGradient>
<linearGradient id="paint4_linear_900_487" x1="46.3432" y1="33.6804" x2="46.4755" y2="36.3387" gradientUnits="userSpaceOnUse">
<stop stop-color="white" stop-opacity="0.498039"/>
<stop offset="1" stop-color="white" stop-opacity="0"/>
</linearGradient>
<linearGradient id="paint5_linear_900_487" x1="46.343" y1="33.6804" x2="46.4754" y2="36.3387" gradientUnits="userSpaceOnUse">
<stop/>
<stop offset="1"/>
</linearGradient>
<linearGradient id="paint6_linear_900_487" x1="77.5167" y1="29.9868" x2="80.8368" y2="34.0302" gradientUnits="userSpaceOnUse">
<stop stop-color="#F5CCB7"/>
<stop offset="0.0196078" stop-color="#F5CCB7"/>
<stop offset="1" stop-color="#FABA9B"/>
</linearGradient>
<linearGradient id="paint7_linear_900_487" x1="78.358" y1="66.3429" x2="91.4731" y2="81.1126" gradientUnits="userSpaceOnUse">
<stop stop-color="#F5CCB7"/>
<stop offset="0.0196078" stop-color="#F5CCB7"/>
<stop offset="1" stop-color="#FABA9B"/>
</linearGradient>
<linearGradient id="paint8_linear_900_487" x1="79.0561" y1="75.0742" x2="90.8239" y2="84.513" gradientUnits="userSpaceOnUse">
<stop stop-color="#F5CCB7"/>
<stop offset="0.0196078" stop-color="#F5CCB7"/>
<stop offset="1" stop-color="#FABA9B"/>
</linearGradient>
<linearGradient id="paint9_linear_900_487" x1="79.7021" y1="51.5055" x2="88.2695" y2="62.9282" gradientUnits="userSpaceOnUse">
<stop stop-color="#843B45"/>
<stop offset="1" stop-color="#71343E"/>
</linearGradient>
<linearGradient id="paint10_linear_900_487" x1="72.9722" y1="51.6599" x2="82.6206" y2="65.2084" gradientUnits="userSpaceOnUse">
<stop stop-color="#843B45"/>
<stop offset="1" stop-color="#71343E"/>
</linearGradient>
<linearGradient id="paint11_linear_900_487" x1="78.317" y1="27.2718" x2="82.269" y2="31.2774" gradientUnits="userSpaceOnUse">
<stop stop-color="#F5CCB7"/>
<stop offset="0.0196078" stop-color="#F5CCB7"/>
<stop offset="1" stop-color="#FABA9B"/>
</linearGradient>
<linearGradient id="paint12_linear_900_487" x1="66.2469" y1="39.7014" x2="66.4281" y2="45.4672" gradientUnits="userSpaceOnUse">
<stop stop-color="#F5CCB7"/>
<stop offset="0.0196078" stop-color="#F5CCB7"/>
<stop offset="1" stop-color="#FABA9B"/>
</linearGradient>
<linearGradient id="paint13_linear_900_487" x1="80.895" y1="57.287" x2="83.5234" y2="72.5751" gradientUnits="userSpaceOnUse">
<stop stop-color="white" stop-opacity="0.498039"/>
<stop offset="1" stop-color="white" stop-opacity="0"/>
</linearGradient>
<linearGradient id="paint14_linear_900_487" x1="80.895" y1="57.287" x2="83.5234" y2="72.575" gradientUnits="userSpaceOnUse">
<stop/>
<stop offset="1"/>
</linearGradient>
<linearGradient id="paint15_linear_900_487" x1="73.4605" y1="70.9725" x2="86.2053" y2="85.3277" gradientUnits="userSpaceOnUse">
<stop stop-color="white" stop-opacity="0.498039"/>
<stop offset="1" stop-color="white" stop-opacity="0"/>
</linearGradient>
<linearGradient id="paint16_linear_900_487" x1="73.4605" y1="70.9726" x2="86.2052" y2="85.3278" gradientUnits="userSpaceOnUse">
<stop/>
<stop offset="1"/>
</linearGradient>
<linearGradient id="paint17_linear_900_487" x1="66.4091" y1="36.8209" x2="83.9111" y2="67.2742" gradientUnits="userSpaceOnUse">
<stop stop-color="white" stop-opacity="0.498039"/>
<stop offset="1" stop-color="white" stop-opacity="0"/>
</linearGradient>
<linearGradient id="paint18_linear_900_487" x1="66.409" y1="36.8209" x2="83.911" y2="67.2742" gradientUnits="userSpaceOnUse">
<stop/>
<stop offset="1"/>
</linearGradient>
<linearGradient id="paint19_linear_900_487" x1="77.9423" y1="20.9451" x2="73.0779" y2="26.7707" gradientUnits="userSpaceOnUse">
<stop stop-color="white" stop-opacity="0.498039"/>
<stop offset="1" stop-color="white" stop-opacity="0"/>
</linearGradient>
<linearGradient id="paint20_linear_900_487" x1="77.942" y1="20.9451" x2="73.0776" y2="26.7707" gradientUnits="userSpaceOnUse">
<stop/>
<stop offset="1"/>
</linearGradient>
<linearGradient id="paint21_linear_900_487" x1="82.4282" y1="23.6018" x2="76.4749" y2="30.7306" gradientUnits="userSpaceOnUse">
<stop stop-color="white" stop-opacity="0.498039"/>
<stop offset="1" stop-color="white" stop-opacity="0"/>
</linearGradient>
<linearGradient id="paint22_linear_900_487" x1="82.4283" y1="23.6018" x2="76.4751" y2="30.7306" gradientUnits="userSpaceOnUse">
<stop/>
<stop offset="1"/>
</linearGradient>
<linearGradient id="paint23_linear_900_487" x1="80.1767" y1="37.3787" x2="67.0631" y2="42.9254" gradientUnits="userSpaceOnUse">
<stop stop-color="white" stop-opacity="0.498039"/>
<stop offset="1" stop-color="white" stop-opacity="0"/>
</linearGradient>
<linearGradient id="paint24_linear_900_487" x1="80.1766" y1="37.3788" x2="67.0631" y2="42.9255" gradientUnits="userSpaceOnUse">
<stop/>
<stop offset="1"/>
</linearGradient>
<linearGradient id="paint25_linear_900_487" x1="81.2308" y1="27.1347" x2="77.159" y2="33.4629" gradientUnits="userSpaceOnUse">
<stop stop-color="white" stop-opacity="0.498039"/>
<stop offset="1" stop-color="white" stop-opacity="0"/>
</linearGradient>
<linearGradient id="paint26_linear_900_487" x1="81.2308" y1="27.1347" x2="77.159" y2="33.463" gradientUnits="userSpaceOnUse">
<stop/>
<stop offset="1"/>
</linearGradient>
<linearGradient id="paint27_linear_900_487" x1="76.5775" y1="58.7603" x2="79.2122" y2="74.0815" gradientUnits="userSpaceOnUse">
<stop stop-color="white" stop-opacity="0.498039"/>
<stop offset="1" stop-color="white" stop-opacity="0"/>
</linearGradient>
<linearGradient id="paint28_linear_900_487" x1="76.5777" y1="58.7603" x2="79.2124" y2="74.0815" gradientUnits="userSpaceOnUse">
<stop/>
<stop offset="1"/>
</linearGradient>
<linearGradient id="paint29_linear_900_487" x1="65.6652" y1="25.655" x2="89.3159" y2="66.8046" gradientUnits="userSpaceOnUse">
<stop stop-color="white" stop-opacity="0.498039"/>
<stop offset="1" stop-color="white" stop-opacity="0"/>
</linearGradient>
<linearGradient id="paint30_linear_900_487" x1="65.6652" y1="25.6551" x2="89.3159" y2="66.8046" gradientUnits="userSpaceOnUse">
<stop/>
<stop offset="1"/>
</linearGradient>
<linearGradient id="paint31_linear_900_487" x1="100.263" y1="65.4305" x2="69.321" y2="40.9447" gradientUnits="userSpaceOnUse">
<stop stop-color="white" stop-opacity="0.498039"/>
<stop offset="1" stop-color="white" stop-opacity="0"/>
</linearGradient>
<linearGradient id="paint32_linear_900_487" x1="85.3498" y1="8.01278" x2="75.8463" y2="31.9203" gradientUnits="userSpaceOnUse">
<stop stop-color="white" stop-opacity="0.498039"/>
<stop offset="1" stop-color="white" stop-opacity="0"/>
</linearGradient>
<linearGradient id="paint33_linear_900_487" x1="85.3496" y1="8.01281" x2="75.8461" y2="31.9203" gradientUnits="userSpaceOnUse">
<stop/>
<stop offset="1"/>
</linearGradient>
<linearGradient id="paint34_linear_900_487" x1="47.6747" y1="69.1115" x2="47.7346" y2="77.8932" gradientUnits="userSpaceOnUse">
<stop stop-color="#7BADC6"/>
<stop offset="1" stop-color="#3F87AA"/>
</linearGradient>
<linearGradient id="paint35_linear_900_487" x1="48.2986" y1="65.9647" x2="47.3437" y2="86.4024" gradientUnits="userSpaceOnUse">
<stop stop-color="#7BADC6"/>
<stop offset="1" stop-color="#3F87AA"/>
</linearGradient>
<linearGradient id="paint36_linear_900_487" x1="55.4938" y1="48.0041" x2="54.2868" y2="72.4301" gradientUnits="userSpaceOnUse">
<stop stop-color="white" stop-opacity="0.498039"/>
<stop offset="1" stop-color="white" stop-opacity="0"/>
</linearGradient>
<linearGradient id="paint37_linear_900_487" x1="55.4936" y1="48.0041" x2="54.2866" y2="72.4301" gradientUnits="userSpaceOnUse">
<stop/>
<stop offset="1"/>
</linearGradient>
<linearGradient id="paint38_linear_900_487" x1="47.1703" y1="47.4431" x2="45.946" y2="72.2268" gradientUnits="userSpaceOnUse">
<stop stop-color="white" stop-opacity="0.498039"/>
<stop offset="1" stop-color="white" stop-opacity="0"/>
</linearGradient>
<linearGradient id="paint39_linear_900_487" x1="47.1707" y1="47.4431" x2="45.9463" y2="72.2268" gradientUnits="userSpaceOnUse">
<stop/>
<stop offset="1"/>
</linearGradient>
<linearGradient id="paint40_linear_900_487" x1="41.0027" y1="46.6237" x2="39.7579" y2="71.836" gradientUnits="userSpaceOnUse">
<stop stop-color="white" stop-opacity="0.498039"/>
<stop offset="1" stop-color="white" stop-opacity="0"/>
</linearGradient>
<linearGradient id="paint41_linear_900_487" x1="41.0027" y1="46.6237" x2="39.7578" y2="71.8359" gradientUnits="userSpaceOnUse">
<stop/>
<stop offset="1"/>
</linearGradient>
<linearGradient id="paint42_linear_900_487" x1="52.3703" y1="69.1761" x2="42.5958" y2="88.8212" gradientUnits="userSpaceOnUse">
<stop stop-color="white" stop-opacity="0.498039"/>
<stop offset="1" stop-color="white" stop-opacity="0"/>
</linearGradient>
<linearGradient id="paint43_linear_900_487" x1="52.3704" y1="69.1761" x2="42.596" y2="88.8212" gradientUnits="userSpaceOnUse">
<stop/>
<stop offset="1"/>
</linearGradient>
<linearGradient id="paint44_linear_900_487" x1="21.7316" y1="23.3843" x2="20.3087" y2="25.2816" gradientUnits="userSpaceOnUse">
<stop stop-color="#F5CCB7"/>
<stop offset="0.0196078" stop-color="#F5CCB7"/>
<stop offset="1" stop-color="#FABA9B"/>
</linearGradient>
<linearGradient id="paint45_linear_900_487" x1="22.7966" y1="16.1595" x2="18.8005" y2="22.9542" gradientUnits="userSpaceOnUse">
<stop stop-color="#F5CCB7"/>
<stop offset="0.0196078" stop-color="#F5CCB7"/>
<stop offset="1" stop-color="#FABA9B"/>
</linearGradient>
<linearGradient id="paint46_linear_900_487" x1="21.1893" y1="80.0378" x2="15.8805" y2="87.893" gradientUnits="userSpaceOnUse">
<stop stop-color="#F5CCB7"/>
<stop offset="0.0196078" stop-color="#F5CCB7"/>
<stop offset="1" stop-color="#FABA9B"/>
</linearGradient>
<linearGradient id="paint47_linear_900_487" x1="21.5595" y1="57.2633" x2="10.4298" y2="85.2237" gradientUnits="userSpaceOnUse">
<stop stop-color="#6A9DC7"/>
<stop offset="1" stop-color="#3B5F8A"/>
</linearGradient>
<linearGradient id="paint48_linear_900_487" x1="28.6884" y1="81.6624" x2="23.0802" y2="89.7713" gradientUnits="userSpaceOnUse">
<stop stop-color="#F5CCB7"/>
<stop offset="0.0196078" stop-color="#F5CCB7"/>
<stop offset="1" stop-color="#FABA9B"/>
</linearGradient>
<linearGradient id="paint49_linear_900_487" x1="28.2708" y1="62.6461" x2="7.89459" y2="76.4309" gradientUnits="userSpaceOnUse">
<stop stop-color="#6A9DC7"/>
<stop offset="1" stop-color="#3B5F8A"/>
</linearGradient>
<linearGradient id="paint50_linear_900_487" x1="32.88" y1="35.0371" x2="31.4335" y2="40.0244" gradientUnits="userSpaceOnUse">
<stop stop-color="#F5CCB7"/>
<stop offset="0.0196078" stop-color="#F5CCB7"/>
<stop offset="1" stop-color="#FABA9B"/>
</linearGradient>
<linearGradient id="paint51_linear_900_487" x1="40.1441" y1="18.1528" x2="36.616" y2="26.5138" gradientUnits="userSpaceOnUse">
<stop stop-color="#F5CCB7"/>
<stop offset="0.0196078" stop-color="#F5CCB7"/>
<stop offset="1" stop-color="#FABA9B"/>
</linearGradient>
<linearGradient id="paint52_linear_900_487" x1="16.6903" y1="4.81868" x2="25.6974" y2="26.3373" gradientUnits="userSpaceOnUse">
<stop stop-color="white" stop-opacity="0.498039"/>
<stop offset="1" stop-color="white" stop-opacity="0"/>
</linearGradient>
<linearGradient id="paint53_linear_900_487" x1="16.6904" y1="4.8187" x2="25.6975" y2="26.3374" gradientUnits="userSpaceOnUse">
<stop/>
<stop offset="1"/>
</linearGradient>
<linearGradient id="paint54_linear_900_487" x1="11.4165" y1="74.748" x2="26.2082" y2="85.6271" gradientUnits="userSpaceOnUse">
<stop stop-color="white" stop-opacity="0.498039"/>
<stop offset="1" stop-color="white" stop-opacity="0"/>
</linearGradient>
<linearGradient id="paint55_linear_900_487" x1="11.4163" y1="74.7481" x2="26.208" y2="85.6271" gradientUnits="userSpaceOnUse">
<stop/>
<stop offset="1"/>
</linearGradient>
<linearGradient id="paint56_linear_900_487" x1="16.295" y1="41.3827" x2="20.5748" y2="72.2047" gradientUnits="userSpaceOnUse">
<stop stop-color="white" stop-opacity="0.498039"/>
<stop offset="1" stop-color="white" stop-opacity="0"/>
</linearGradient>
<linearGradient id="paint57_linear_900_487" x1="16.2948" y1="41.3827" x2="20.5746" y2="72.2047" gradientUnits="userSpaceOnUse">
<stop/>
<stop offset="1"/>
</linearGradient>
<linearGradient id="paint58_linear_900_487" x1="0.426933" y1="56.4802" x2="33.6315" y2="35.4279" gradientUnits="userSpaceOnUse">
<stop stop-color="white" stop-opacity="0.498039"/>
<stop offset="1" stop-color="white" stop-opacity="0"/>
</linearGradient>
<linearGradient id="paint59_linear_900_487" x1="0.427194" y1="56.4801" x2="33.6317" y2="35.4279" gradientUnits="userSpaceOnUse">
<stop/>
<stop offset="1"/>
</linearGradient>
<linearGradient id="paint60_linear_900_487" x1="21.6399" y1="23.3024" x2="20.2407" y2="25.1681" gradientUnits="userSpaceOnUse">
<stop stop-color="white" stop-opacity="0.498039"/>
<stop offset="1" stop-color="white" stop-opacity="0"/>
</linearGradient>
<linearGradient id="paint61_linear_900_487" x1="21.6399" y1="23.3024" x2="20.2406" y2="25.1681" gradientUnits="userSpaceOnUse">
<stop/>
<stop offset="1"/>
</linearGradient>
<linearGradient id="paint62_linear_900_487" x1="21.112" y1="74.7779" x2="30.7731" y2="87.31" gradientUnits="userSpaceOnUse">
<stop stop-color="white" stop-opacity="0.498039"/>
<stop offset="1" stop-color="white" stop-opacity="0"/>
</linearGradient>
<linearGradient id="paint63_linear_900_487" x1="21.112" y1="74.7779" x2="30.773" y2="87.31" gradientUnits="userSpaceOnUse">
<stop/>
<stop offset="1"/>
</linearGradient>
<linearGradient id="paint64_linear_900_487" x1="23.5024" y1="40.1773" x2="28.1745" y2="73.8309" gradientUnits="userSpaceOnUse">
<stop stop-color="white" stop-opacity="0.498039"/>
<stop offset="1" stop-color="white" stop-opacity="0"/>
</linearGradient>
<linearGradient id="paint65_linear_900_487" x1="23.5024" y1="40.1773" x2="28.1745" y2="73.8309" gradientUnits="userSpaceOnUse">
<stop/>
<stop offset="1"/>
</linearGradient>
<linearGradient id="paint66_linear_900_487" x1="44.8211" y1="8.72971" x2="34.4967" y2="28.8979" gradientUnits="userSpaceOnUse">
<stop stop-color="white" stop-opacity="0.498039"/>
<stop offset="1" stop-color="white" stop-opacity="0"/>
</linearGradient>
<linearGradient id="paint67_linear_900_487" x1="44.8209" y1="8.72972" x2="34.4964" y2="28.8979" gradientUnits="userSpaceOnUse">
<stop/>
<stop offset="1"/>
</linearGradient>
<linearGradient id="paint68_linear_900_487" x1="29.3126" y1="33.9199" x2="29.3866" y2="35.3964" gradientUnits="userSpaceOnUse">
<stop stop-color="white" stop-opacity="0.498039"/>
<stop offset="1" stop-color="white" stop-opacity="0"/>
</linearGradient>
<linearGradient id="paint69_linear_900_487" x1="29.3125" y1="33.9199" x2="29.3866" y2="35.3964" gradientUnits="userSpaceOnUse">
<stop/>
<stop offset="1"/>
</linearGradient>
<linearGradient id="paint70_linear_900_487" x1="33.704" y1="34.2366" x2="33.7576" y2="35.3066" gradientUnits="userSpaceOnUse">
<stop stop-color="white" stop-opacity="0.498039"/>
<stop offset="1" stop-color="white" stop-opacity="0"/>
</linearGradient>
<linearGradient id="paint71_linear_900_487" x1="33.7039" y1="34.2366" x2="33.7575" y2="35.3066" gradientUnits="userSpaceOnUse">
<stop/>
<stop offset="1"/>
</linearGradient>
</defs>
</svg>
