<svg width="136" height="136" viewBox="0 0 136 136" fill="none" xmlns="http://www.w3.org/2000/svg">
<path fill-rule="evenodd" clip-rule="evenodd" d="M81.3618 14.6777C81.0483 14.2391 80.1137 13.8324 79.5949 13.9448C78.8924 14.0987 74.2451 17.6185 73.3625 18.2118C74.8606 20.2976 76.4612 21.6885 74.2679 23.2561C72.6074 24.4428 71.0471 21.7724 70.1533 20.5166L61.7619 26.525C63.102 28.4054 65.0119 30.2605 62.6797 31.5342C60.801 32.5623 59.6484 30.3682 58.5432 28.8217L51.3955 33.93C52.719 35.7661 54.2549 37.5065 52.4762 38.8527C50.4482 40.3844 49.1577 37.5886 48.1828 36.2297L40.1426 41.9647C41.4091 43.763 43.0849 45.5682 41.2389 46.8988C40.3824 47.5183 39.5314 47.3964 38.8623 46.8374C38.1724 46.2597 37.4801 45.0395 36.9267 44.2705C28.2298 50.5273 28.5331 48.7566 32.9542 54.9427C34.5288 57.1459 36.1286 59.3425 37.6767 61.561C37.1165 61.5682 29.9711 60.5867 29.5868 60.0489C27.2027 56.713 23.9626 53.2587 24.1427 49.8538C24.4059 44.9254 28.6382 42.863 33.4926 39.4497C32.0066 37.3966 29.299 34.7711 31.5019 33.2903C33.6535 31.8425 35.1604 34.9516 36.6979 37.1553L44.7427 31.4058C43.0582 29.0488 40.8629 27.0196 42.4447 25.4922C44.7207 23.2964 46.7265 27.3707 47.9579 29.1042L55.1073 23.9984C54.0346 22.5184 52.1835 20.5203 52.3403 19.1313C52.4237 18.394 53.056 17.6389 53.9834 17.4329C55.6108 17.0748 56.7057 19.445 58.3175 21.7003L66.7075 15.7004C65.2441 13.5899 62.5011 10.9411 64.9105 9.4138C66.9952 8.09239 68.2744 11.1134 69.9319 13.396C72.0173 11.9131 74.496 10.0218 76.4869 8.9883C79.9317 7.1966 83.7714 8.21546 86.1402 11.5248L123.035 63.1647C125.554 66.689 129.017 71.0101 131.197 74.5961C133.065 77.6647 132.389 82.1205 129.267 84.348L80.3188 119.33C77.3894 121.424 72.4511 120.026 70.9502 117.931L54.8661 95.4204C55.8108 95.0709 58.264 95.7477 59.3434 95.9273C62.9368 96.5231 62.3552 96.0289 63.5965 97.8077C66.0207 101.283 68.5352 104.728 71.0007 108.178C76.0506 115.244 75.4353 115.819 79.3217 113.026C82.288 110.895 103.677 95.2793 105.195 94.6957C108.446 93.4437 109.738 93.9055 111.362 90.4985C111.919 89.329 122.051 82.4879 123.804 81.2356C125.607 79.9504 127.314 78.9701 126.051 77.203L81.3618 14.6777Z" fill="#AD49EB"/>
<path fill-rule="evenodd" clip-rule="evenodd" d="M97.15 84.3601C96.8964 84.1257 91.7627 80.1489 90.9776 79.8676C90.5724 80.9772 89.6756 87.1933 89.3468 89.1956C89.186 90.1754 88.6859 91.3304 89.0782 92.2931C89.9962 91.7493 91.691 91.4068 92.7338 91.0584C93.8368 90.6895 95.1597 90.2982 96.3076 89.8821L97.1458 84.3594L97.15 84.3601ZM42.3241 71.453C43.3529 72.9082 43.5447 72.5165 44.9421 72.7533L79.8607 78.568C80.8739 78.7388 84.7865 80.0013 84.3695 77.6522C84.1368 76.3469 81.1006 76.2479 79.1985 75.9336L47.0348 70.5838C42.6984 69.8863 43.0283 69.5306 42.3241 71.453ZM107.087 88.0531C108.345 89.8237 104.401 90.5606 103.462 90.9132C99.5832 92.375 92.9131 94.1803 88.8308 95.6039C86.3575 96.4654 86.321 96.4877 84.0244 96.1034L38.996 88.6064C37.6096 88.3692 35.8003 88.2319 34.4889 87.78L38.1353 66.3516C39.4367 66.3126 63.9752 70.5857 66.6341 71.0107C68.2911 71.2755 69.7257 71.5382 71.3809 71.8006C75.1716 72.4051 74.206 72.7095 76.3696 71.137L92.9829 59.2601C94.7004 58.0326 96.7746 55.9473 98.2558 57.0192C99.0021 57.5605 99.3558 58.5321 98.7707 59.437C98.056 60.5431 81.54 72.0061 79.9761 73.15C81.3092 73.6688 85.433 74.1213 87.1545 74.4187C90.9409 75.0749 90.4134 75.4108 93.8228 77.8604C95.2154 78.8608 106.223 86.8437 107.081 88.0499L107.087 88.0531ZM31.2015 87.2352C29.8345 87.261 26.9185 86.5968 25.3642 86.3447C17.6706 85.0885 19.5446 82.1729 20.8298 74.3313C21.2558 71.7316 21.6429 66.5312 23.177 65.4348C25.3555 63.8779 26.9743 64.4245 29.4175 64.8202C30.8103 65.0454 33.6398 65.3633 34.8426 65.7993L31.1997 87.2327L31.2015 87.2352ZM79.6067 33.7435C81.3713 32.4824 83.219 34.7638 82.0713 36.2019C81.8171 36.5221 53.034 57.2726 52.0043 57.7389C50.014 58.6371 48.7632 55.7868 49.9504 54.9383L79.6067 33.7435Z" fill="#AD49EB"/>
<path fill-rule="evenodd" clip-rule="evenodd" d="M87.344 44.9469C89.6291 43.3138 91.4111 46.3573 89.5647 47.6769L60.2678 68.6149C58.4189 69.9363 56.1461 67.2434 58.2255 65.7574L87.344 44.9469Z" fill="#AD49EB"/>
</svg>
