<svg width="193" height="187" viewBox="0 0 193 187" fill="none" xmlns="http://www.w3.org/2000/svg">
<path d="M172.726 28.0532C160.932 1.16316 132.625 -8.96148 110.29 9.09318C101.569 16.1368 96.1271 27.3469 85.4479 31.8452C75.4275 36.0638 62.7338 34.8219 51.8982 37.1066C28.8239 41.9414 -2.2421 60.2852 0.1279 88.5498C1.16596 100.931 9.51784 114.681 13.6464 126.266C18.3864 139.595 21.2304 156.27 33.7772 164.238C55.2873 177.918 81.234 166.736 100.611 155.706C111.039 149.776 116.779 146.131 128.008 148.165C138.403 150.061 147.765 156.697 157.922 148.824C165.549 142.913 166.18 130.935 172.583 123.901C179.798 115.975 187.111 115.402 190.861 103.49C195.406 89.038 188.709 80.0083 184.182 67.0966C179.655 54.1848 178.281 40.7042 172.726 28.0532Z" fill="#AD49EB"/>
<path opacity="0.7" d="M172.726 28.0532C160.932 1.16316 132.625 -8.96149 110.29 9.09318C101.569 16.1368 96.1271 27.3469 85.4479 31.8452C75.4275 36.0638 62.7338 34.8219 51.8982 37.1066C28.8239 41.9414 -2.2421 60.2852 0.1279 88.5498C1.16596 100.931 9.51784 114.681 13.6464 126.266C18.3864 139.595 21.2304 156.27 33.7772 164.238C55.2873 177.918 81.234 166.736 100.611 155.706C111.039 149.776 116.779 146.131 128.008 148.165C138.403 150.061 147.765 156.697 157.922 148.824C165.549 142.913 166.18 130.935 172.583 123.901C179.798 115.975 187.111 115.402 190.861 103.49C195.406 89.038 188.709 80.0083 184.182 67.0966C179.655 54.1848 178.281 40.7042 172.726 28.0532Z" fill="white"/>
<path d="M82.9879 186.691C123.454 186.691 156.259 184.648 156.259 182.127C156.259 179.606 123.454 177.562 82.9879 177.562C42.5214 177.562 9.71693 179.606 9.71693 182.127C9.71693 184.648 42.5214 186.691 82.9879 186.691Z" fill="#AD49EB"/>
<path opacity="0.8" d="M82.9879 186.691C123.454 186.691 156.259 184.648 156.259 182.127C156.259 179.606 123.454 177.562 82.9879 177.562C42.5214 177.562 9.71693 179.606 9.71693 182.127C9.71693 184.648 42.5214 186.691 82.9879 186.691Z" fill="white"/>
<path d="M138.048 8.55292H64.3739C59.2874 8.55292 55.164 12.6763 55.164 17.7627V173.301C55.164 178.388 59.2874 182.511 64.3739 182.511H138.048C143.134 182.511 147.258 178.388 147.258 173.301V17.7627C147.258 12.6763 143.134 8.55292 138.048 8.55292Z" fill="#263238"/>
<path d="M59.2547 27.655H143.162V163.409H59.2547V27.655Z" fill="white" stroke="#263238" stroke-width="0.633923" stroke-miterlimit="10"/>
<path d="M114.071 82.6256C121.174 75.523 121.174 64.0074 114.071 56.9048C106.968 49.8022 95.4529 49.8022 88.3502 56.9048C81.2476 64.0074 81.2476 75.523 88.3502 82.6256C95.4529 89.7282 106.968 89.7282 114.071 82.6256Z" fill="#AD49EB"/>
<path d="M125.089 154.872H77.3377C77.2303 154.873 77.1238 154.852 77.0243 154.811C76.9248 154.771 76.8344 154.711 76.7582 154.635C76.682 154.559 76.6215 154.469 76.5802 154.37C76.539 154.271 76.5177 154.164 76.5177 154.057C76.5171 153.949 76.5379 153.842 76.5789 153.742C76.6199 153.642 76.6802 153.552 76.7565 153.475C76.8328 153.399 76.9234 153.339 77.0232 153.298C77.123 153.257 77.2299 153.236 77.3377 153.237H125.089C125.196 153.237 125.302 153.258 125.402 153.299C125.501 153.34 125.591 153.401 125.667 153.477C125.742 153.553 125.802 153.644 125.843 153.743C125.884 153.843 125.904 153.949 125.904 154.057C125.904 154.273 125.818 154.48 125.665 154.633C125.512 154.786 125.305 154.872 125.089 154.872Z" fill="#AD49EB"/>
<path d="M126.643 98.1768H75.7783C74.7286 98.1768 73.8776 99.0277 73.8776 100.077V106.074C73.8776 107.123 74.7286 107.974 75.7783 107.974H126.643C127.693 107.974 128.544 107.123 128.544 106.074V100.077C128.544 99.0277 127.693 98.1768 126.643 98.1768Z" fill="#AD49EB"/>
<path d="M126.643 116.502H75.7783C74.7286 116.502 73.8776 117.353 73.8776 118.402V124.398C73.8776 125.448 74.7286 126.299 75.7783 126.299H126.643C127.693 126.299 128.544 125.448 128.544 124.398V118.402C128.544 117.353 127.693 116.502 126.643 116.502Z" fill="#AD49EB"/>
<path d="M110.267 78.8375L104.915 75.7565V73.2112C105.69 72.2737 106.251 71.1786 106.56 70.0022C106.744 70.0676 106.938 70.1013 107.133 70.1017C107.797 70.1017 108.219 68.0446 108.29 66.5752C109.063 64.9399 108.01 63.9824 108.01 63.9824C108.01 63.9824 108.446 63.5463 108.736 61.7972C109.025 60.0482 107.716 60.7781 106.697 59.176C105.678 57.5739 104.948 55.8296 101.602 55.8296C100.68 55.7992 99.7698 56.047 98.9904 56.5407C98.211 57.0344 97.5982 57.7511 97.2315 58.5977C96.3985 58.6007 95.5685 58.6977 94.7573 58.8869C93.7334 59.176 93.4443 62.5272 94.3165 63.8402C94.7069 64.5577 94.9152 65.3601 94.9232 66.177C94.6909 65.8926 94.4492 65.8167 94.3165 66.4614C94.0273 67.9166 95.1933 69.9548 95.1933 69.9548L95.7953 69.7841C96.0986 71.0414 96.6837 72.2133 97.5065 73.2112V75.7565L92.155 78.8375C91.53 79.1984 91.011 79.7172 90.6499 80.342C90.2888 80.9668 90.0984 81.6756 90.0978 82.3973V84.1605C93.2806 86.6193 97.1889 87.9531 101.211 87.9531C105.233 87.9531 109.141 86.6193 112.324 84.1605V82.3973C112.324 81.6754 112.134 80.9663 111.773 80.3413C111.412 79.7163 110.892 79.1976 110.267 78.8375ZM80.8027 123.863C80.68 123.861 80.5628 123.812 80.4756 123.725C80.429 123.684 80.3918 123.632 80.3665 123.575C80.3411 123.518 80.3282 123.456 80.3287 123.394C80.3302 123.308 80.3547 123.224 80.3998 123.152L81.253 121.787L79.5893 121.839C79.5266 121.843 79.4638 121.833 79.4049 121.811C79.3461 121.789 79.2926 121.755 79.248 121.711C79.1707 121.624 79.128 121.512 79.128 121.396C79.128 121.279 79.1707 121.167 79.248 121.08C79.2917 121.035 79.3449 120.999 79.4038 120.976C79.4628 120.953 79.5261 120.943 79.5893 120.948L81.2293 121.009L80.3856 119.649C80.3397 119.575 80.3151 119.49 80.3145 119.402C80.314 119.34 80.3269 119.278 80.3522 119.221C80.3776 119.164 80.4148 119.112 80.4614 119.071C80.5485 118.984 80.6658 118.935 80.7885 118.933C80.8693 118.934 80.9482 118.957 81.0162 119.001C81.0841 119.044 81.1383 119.106 81.1724 119.18L81.983 120.644L82.784 119.189C82.822 119.112 82.8805 119.046 82.9532 118.999C83.0259 118.952 83.11 118.926 83.1964 118.924C83.2563 118.924 83.3155 118.937 83.3702 118.961C83.4249 118.986 83.4738 119.021 83.514 119.066C83.601 119.156 83.6487 119.277 83.6467 119.402C83.6465 119.484 83.6252 119.564 83.5851 119.635L82.7271 121.009L84.3909 120.948C84.454 120.943 84.5173 120.953 84.5763 120.976C84.6353 120.999 84.6885 121.035 84.7322 121.08C84.813 121.164 84.8573 121.277 84.8554 121.393C84.8551 121.511 84.8112 121.624 84.7322 121.711C84.6875 121.755 84.634 121.789 84.5752 121.811C84.5164 121.833 84.4536 121.843 84.3909 121.839L82.7177 121.787L83.5519 123.138C83.5987 123.213 83.6233 123.3 83.623 123.389C83.623 123.515 83.5731 123.635 83.4842 123.724C83.3953 123.813 83.2747 123.863 83.149 123.863C83.0677 123.862 82.9886 123.837 82.9212 123.791C82.8538 123.746 82.8012 123.682 82.7698 123.607L81.9782 122.185L81.1914 123.607C81.1565 123.681 81.1017 123.744 81.0331 123.79C80.9645 123.835 80.8848 123.86 80.8027 123.863ZM88.491 123.863C88.3683 123.861 88.251 123.812 88.1639 123.725C88.1173 123.684 88.0801 123.632 88.0547 123.575C88.0294 123.518 88.0165 123.456 88.017 123.394C88.0184 123.308 88.043 123.224 88.0881 123.152L88.9413 121.787L87.2823 121.839C87.219 121.842 87.1557 121.832 87.0963 121.81C87.0369 121.788 86.9825 121.754 86.9363 121.711C86.8734 121.646 86.8314 121.564 86.8159 121.475C86.8005 121.385 86.8122 121.294 86.8495 121.211C86.8868 121.129 86.9481 121.06 87.0253 121.013C87.1024 120.966 87.192 120.943 87.2823 120.948L88.9176 121.009L88.0739 119.649C88.028 119.575 88.0034 119.49 88.0028 119.402C88.0023 119.34 88.0152 119.278 88.0405 119.221C88.0659 119.164 88.1031 119.112 88.1497 119.071C88.2368 118.984 88.3541 118.935 88.4768 118.933C88.5575 118.934 88.6365 118.957 88.7045 119.001C88.7724 119.044 88.8266 119.106 88.8607 119.18L89.6713 120.644L90.4723 119.189C90.5103 119.112 90.5688 119.046 90.6415 118.999C90.7142 118.952 90.7983 118.926 90.8847 118.924C90.9447 118.923 91.0041 118.936 91.0588 118.961C91.1136 118.985 91.1625 119.021 91.2023 119.066C91.2462 119.11 91.281 119.163 91.3045 119.22C91.3281 119.278 91.3401 119.34 91.3397 119.402C91.338 119.484 91.3152 119.564 91.2734 119.635L90.4154 121.009L92.0839 120.957C92.1463 120.953 92.2089 120.963 92.2671 120.986C92.3253 121.009 92.3777 121.044 92.4205 121.09C92.5013 121.174 92.5456 121.286 92.5437 121.403C92.5434 121.52 92.4995 121.633 92.4205 121.72C92.3767 121.764 92.324 121.799 92.266 121.821C92.208 121.843 92.1459 121.852 92.0839 121.848L90.406 121.796L91.2402 123.147C91.2869 123.222 91.3116 123.31 91.3113 123.398C91.3113 123.524 91.2613 123.645 91.1725 123.733C91.0836 123.822 90.963 123.872 90.8373 123.872C90.756 123.871 90.6768 123.846 90.6095 123.801C90.5421 123.755 90.4895 123.691 90.4581 123.616L89.6665 122.194L88.8797 123.616C88.8435 123.689 88.7881 123.75 88.7196 123.794C88.6511 123.837 88.5721 123.861 88.491 123.863ZM96.184 123.863C96.0597 123.862 95.9405 123.813 95.8522 123.725C95.8056 123.684 95.7684 123.632 95.743 123.575C95.7177 123.518 95.7048 123.456 95.7053 123.394C95.7067 123.308 95.7313 123.224 95.7764 123.152L96.6296 121.787L94.9706 121.839C94.8812 121.842 94.7928 121.819 94.7167 121.772C94.6405 121.726 94.58 121.657 94.5429 121.576C94.5058 121.494 94.4938 121.404 94.5083 121.316C94.5228 121.227 94.5633 121.146 94.6245 121.08C94.6693 121.035 94.7234 120.999 94.7831 120.976C94.8428 120.953 94.9067 120.944 94.9706 120.948L96.6059 121.009L95.7621 119.649C95.7162 119.575 95.6916 119.49 95.691 119.402C95.6925 119.34 95.7063 119.279 95.7315 119.222C95.7567 119.165 95.7929 119.114 95.838 119.071C95.9263 118.983 96.0454 118.934 96.1698 118.933C96.2497 118.935 96.3277 118.958 96.3947 119.002C96.4618 119.046 96.5152 119.107 96.549 119.18L97.3595 120.644L98.1606 119.189C98.1986 119.112 98.2571 119.046 98.3298 118.999C98.4025 118.952 98.4866 118.926 98.573 118.924C98.633 118.923 98.6923 118.936 98.7471 118.961C98.8019 118.985 98.8508 119.021 98.8905 119.066C98.9345 119.11 98.9692 119.163 98.9928 119.22C99.0164 119.278 99.0284 119.34 99.028 119.402C99.0263 119.484 99.0035 119.564 98.9616 119.635L98.1037 121.009L99.7722 120.948C99.8335 120.942 99.8955 120.949 99.9539 120.968C100.012 120.988 100.066 121.02 100.111 121.063C100.156 121.105 100.191 121.156 100.214 121.213C100.238 121.27 100.249 121.332 100.246 121.393C100.247 121.51 100.205 121.623 100.128 121.711C100.083 121.755 100.03 121.789 99.9707 121.811C99.9119 121.833 99.8491 121.843 99.7864 121.839L98.1132 121.787L98.9427 123.138C98.9894 123.213 99.0141 123.3 99.0138 123.389C99.0123 123.451 98.9985 123.512 98.9733 123.569C98.9481 123.626 98.9119 123.678 98.8668 123.721C98.8256 123.765 98.7758 123.8 98.7203 123.825C98.6649 123.849 98.6051 123.862 98.5445 123.863C98.4639 123.861 98.3855 123.836 98.3189 123.791C98.2524 123.745 98.2006 123.681 98.1701 123.607L97.3737 122.185L96.5869 123.607C96.5514 123.684 96.4945 123.749 96.4231 123.794C96.3517 123.839 96.2686 123.863 96.184 123.863ZM103.872 123.863C103.748 123.862 103.629 123.813 103.54 123.725C103.451 123.638 103.4 123.519 103.398 123.394C103.397 123.308 103.42 123.224 103.465 123.152L104.318 121.787L102.659 121.839C102.596 121.842 102.532 121.832 102.473 121.81C102.413 121.788 102.359 121.754 102.313 121.711C102.236 121.624 102.193 121.512 102.193 121.396C102.193 121.279 102.236 121.167 102.313 121.08C102.359 121.036 102.413 121.002 102.472 120.979C102.532 120.956 102.595 120.945 102.659 120.948L104.299 121.009L103.46 119.649C103.414 119.575 103.389 119.49 103.389 119.402C103.39 119.34 103.404 119.279 103.429 119.222C103.454 119.165 103.491 119.114 103.536 119.071C103.624 118.983 103.743 118.934 103.868 118.933C103.948 118.934 104.027 118.957 104.095 119.001C104.163 119.044 104.217 119.106 104.251 119.18L105.057 120.644L105.858 119.189C105.896 119.112 105.955 119.046 106.028 118.999C106.1 118.952 106.184 118.926 106.271 118.924C106.331 118.923 106.39 118.936 106.445 118.961C106.5 118.985 106.549 119.021 106.588 119.066C106.632 119.11 106.667 119.163 106.691 119.22C106.714 119.278 106.726 119.34 106.726 119.402C106.724 119.484 106.701 119.564 106.659 119.635L105.801 121.009L107.47 120.948C107.531 120.942 107.593 120.949 107.652 120.968C107.71 120.988 107.763 121.02 107.808 121.063C107.853 121.105 107.889 121.156 107.912 121.213C107.935 121.27 107.946 121.332 107.944 121.393C107.945 121.51 107.903 121.623 107.825 121.711C107.781 121.755 107.727 121.789 107.668 121.811C107.61 121.833 107.547 121.843 107.484 121.839L105.811 121.787L106.64 123.138C106.687 123.213 106.712 123.3 106.712 123.389C106.712 123.451 106.699 123.513 106.674 123.571C106.648 123.628 106.611 123.679 106.565 123.721C106.523 123.765 106.474 123.8 106.418 123.825C106.363 123.849 106.303 123.862 106.242 123.863C106.162 123.861 106.083 123.836 106.017 123.791C105.95 123.745 105.898 123.681 105.868 123.607L105.072 122.185L104.285 123.607C104.249 123.685 104.19 123.751 104.117 123.797C104.044 123.842 103.959 123.865 103.872 123.863ZM111.561 123.863C111.436 123.862 111.317 123.813 111.229 123.725C111.155 123.651 111.109 123.554 111.096 123.451C111.083 123.347 111.105 123.242 111.158 123.152L112.006 121.787L110.347 121.839C110.284 121.842 110.221 121.832 110.161 121.81C110.102 121.788 110.047 121.754 110.001 121.711C109.924 121.624 109.881 121.512 109.881 121.396C109.881 121.279 109.924 121.167 110.001 121.08C110.047 121.036 110.101 121.002 110.161 120.979C110.22 120.956 110.283 120.945 110.347 120.948L111.987 121.009L111.143 119.649C111.098 119.575 111.073 119.49 111.072 119.402C111.074 119.277 111.125 119.158 111.215 119.071C111.303 118.983 111.422 118.934 111.546 118.933C111.627 118.934 111.706 118.957 111.774 119.001C111.842 119.044 111.896 119.106 111.93 119.18L112.736 120.644L113.537 119.189C113.575 119.112 113.634 119.046 113.706 118.999C113.779 118.952 113.863 118.926 113.95 118.924C114.01 118.923 114.07 118.936 114.126 118.96C114.181 118.985 114.231 119.021 114.272 119.066C114.359 119.156 114.407 119.277 114.405 119.402C114.403 119.484 114.38 119.564 114.338 119.635L113.48 121.009L115.149 120.948C115.21 120.942 115.272 120.949 115.33 120.968C115.389 120.988 115.442 121.02 115.487 121.063C115.532 121.105 115.567 121.156 115.591 121.213C115.614 121.27 115.625 121.332 115.623 121.393C115.624 121.51 115.582 121.623 115.504 121.711C115.46 121.755 115.406 121.789 115.347 121.811C115.288 121.833 115.226 121.843 115.163 121.839L113.49 121.787L114.319 123.138C114.366 123.213 114.391 123.3 114.39 123.389C114.391 123.451 114.378 123.513 114.353 123.571C114.327 123.628 114.29 123.679 114.243 123.721C114.202 123.765 114.152 123.8 114.097 123.825C114.041 123.849 113.982 123.862 113.921 123.863C113.84 123.861 113.762 123.836 113.696 123.791C113.629 123.745 113.577 123.681 113.547 123.607L112.75 122.185L111.963 123.607C111.928 123.684 111.871 123.749 111.8 123.794C111.728 123.839 111.645 123.863 111.561 123.863ZM119.249 123.863C119.126 123.861 119.009 123.812 118.922 123.725C118.875 123.684 118.838 123.632 118.813 123.575C118.787 123.518 118.774 123.456 118.775 123.394C118.776 123.308 118.801 123.224 118.846 123.152L119.694 121.787L118.035 121.839C117.974 121.843 117.913 121.835 117.855 121.815C117.798 121.795 117.745 121.762 117.7 121.72C117.656 121.679 117.62 121.628 117.596 121.571C117.572 121.515 117.561 121.454 117.561 121.393C117.561 121.335 117.572 121.278 117.594 121.224C117.616 121.17 117.649 121.122 117.689 121.08C117.733 121.035 117.786 120.999 117.845 120.976C117.904 120.953 117.968 120.943 118.031 120.948L119.671 121.009L118.827 119.649C118.781 119.575 118.756 119.49 118.756 119.402C118.758 119.277 118.809 119.158 118.898 119.071C118.986 118.983 119.106 118.934 119.23 118.933C119.311 118.934 119.39 118.957 119.458 119.001C119.526 119.044 119.58 119.106 119.614 119.18L120.42 120.644L121.225 119.189C121.263 119.112 121.321 119.047 121.393 119C121.464 118.953 121.547 118.927 121.633 118.924C121.694 118.923 121.754 118.936 121.809 118.96C121.865 118.985 121.915 119.021 121.955 119.066C122.042 119.156 122.09 119.277 122.088 119.402C122.088 119.484 122.067 119.564 122.026 119.635L121.169 121.009L122.832 120.948C122.895 120.943 122.959 120.953 123.018 120.976C123.077 120.999 123.13 121.035 123.174 121.08C123.254 121.164 123.299 121.277 123.297 121.393C123.297 121.511 123.253 121.624 123.174 121.711C123.129 121.755 123.075 121.789 123.017 121.811C122.958 121.833 122.895 121.843 122.832 121.839L121.159 121.787L121.989 123.138C122.035 123.213 122.06 123.3 122.06 123.389C122.058 123.514 122.007 123.633 121.917 123.721C121.831 123.809 121.714 123.86 121.59 123.863C121.51 123.861 121.431 123.836 121.365 123.791C121.298 123.745 121.247 123.681 121.216 123.607L120.42 122.185L119.633 123.607C119.599 123.681 119.545 123.744 119.477 123.789C119.409 123.834 119.33 123.86 119.249 123.863Z" fill="#263238"/>
<g style="mix-blend-mode:multiply">
<path d="M59.2547 27.8352H143.162V33.0919H59.2547V27.8352Z" fill="#AD49EB"/>
</g>
<path d="M110.333 18.1514H92.0839C91.7545 18.1514 91.4387 18.0205 91.2058 17.7876C90.9729 17.5547 90.842 17.2388 90.842 16.9095C90.842 16.5801 90.9729 16.2642 91.2058 16.0313C91.4387 15.7984 91.7545 15.6676 92.0839 15.6676H110.333C110.662 15.6676 110.978 15.7984 111.211 16.0313C111.444 16.2642 111.575 16.5801 111.575 16.9095C111.575 17.2388 111.444 17.5547 111.211 17.7876C110.978 18.0205 110.662 18.1514 110.333 18.1514Z" fill="#AD49EB" stroke="#263238" stroke-width="0.633923" stroke-linecap="round" stroke-linejoin="round"/>
<path d="M106.185 171.078C106.186 170.093 105.895 169.13 105.349 168.311C104.802 167.492 104.025 166.853 103.115 166.476C102.206 166.099 101.204 166 100.239 166.192C99.2727 166.383 98.3855 166.858 97.6891 167.554C96.9928 168.25 96.5187 169.138 96.3268 170.103C96.1349 171.069 96.2339 172.07 96.6112 172.98C96.9884 173.89 97.6271 174.667 98.4463 175.213C99.2655 175.76 100.228 176.051 101.213 176.05C102.531 176.049 103.795 175.525 104.728 174.592C105.66 173.66 106.184 172.396 106.185 171.078Z" fill="#AD49EB"/>
<path d="M98.6915 168.556H103.735V173.6H98.6915V168.556Z" fill="#AD49EB" stroke="#263238" stroke-width="0.633923" stroke-linecap="round" stroke-linejoin="round"/>
<path d="M161.288 113.847C161.288 113.847 154.68 97.0581 160.563 95.0626C166.687 92.9817 166.417 104.069 166.18 109.472C165.682 121.019 164.407 123.166 163.454 120.346L161.288 113.847ZM159.302 126.944C161.117 129.314 161.629 126.859 158.354 115.772C156.818 110.558 153.481 100.011 148.362 103.969C143.447 107.761 155.145 121.507 155.145 121.507L159.302 126.944ZM155.794 136.566C157.524 138.102 157.558 136.163 153.448 128.157C151.519 124.408 147.438 116.819 144.096 120.573C140.887 124.195 151.822 132.997 151.822 132.997L155.794 136.566ZM152.002 148.008C153.732 149.549 153.766 147.605 149.656 139.604C147.727 135.855 143.646 128.262 140.304 132.02C137.114 135.651 148.016 144.453 148.016 144.453L152.002 148.008ZM162.952 124.716C160.183 125.797 162.383 126.972 173.944 126.939C179.366 126.939 190.439 126.693 188.078 120.668C185.817 114.881 169.351 122.251 169.351 122.251L162.952 124.716ZM159.8 132.414C156.87 132.921 158.795 134.514 170.133 136.779C175.446 137.846 186.344 139.813 185.23 133.461C184.163 127.337 166.559 131.29 166.559 131.29L159.8 132.414ZM156.273 141.813C153.78 142.173 155.372 143.562 164.905 145.743C169.374 146.767 178.546 148.686 177.75 143.268C176.992 138.054 162.013 141.003 162.013 141.003L156.273 141.813ZM153.595 150.521C151.154 151.142 152.884 152.355 162.601 153.512C167.151 154.052 176.475 154.99 175.114 149.686C173.802 144.596 159.221 149.103 159.221 149.103L153.595 150.521ZM167.881 115.269C166.459 118.455 169.412 117.971 179.452 109.212C184.154 105.102 193.586 96.5036 186.116 92.2233C178.944 88.109 171.232 107.96 171.232 107.96L167.881 115.269ZM153.965 161.863C152.462 162.74 153.936 163.082 160.828 161.707C164.061 161.067 170.635 159.645 168.412 156.839C166.26 154.137 157.444 159.825 157.444 159.825L153.965 161.863Z" fill="#AD49EB"/>
<path opacity="0.3" d="M161.288 113.847C161.288 113.847 154.68 97.0581 160.563 95.0626C166.687 92.9817 166.417 104.069 166.18 109.472C165.682 121.019 164.407 123.166 163.454 120.346L161.288 113.847ZM159.302 126.944C161.117 129.314 161.629 126.859 158.354 115.772C156.818 110.558 153.481 100.011 148.362 103.969C143.447 107.761 155.145 121.507 155.145 121.507L159.302 126.944ZM155.794 136.566C157.524 138.102 157.558 136.163 153.448 128.157C151.519 124.408 147.438 116.819 144.096 120.573C140.887 124.195 151.822 132.997 151.822 132.997L155.794 136.566ZM152.002 148.008C153.732 149.549 153.766 147.605 149.656 139.604C147.727 135.855 143.646 128.262 140.304 132.02C137.114 135.651 148.016 144.453 148.016 144.453L152.002 148.008ZM162.952 124.716C160.183 125.797 162.383 126.972 173.944 126.939C179.366 126.939 190.439 126.693 188.078 120.668C185.817 114.881 169.351 122.251 169.351 122.251L162.952 124.716ZM159.8 132.414C156.87 132.921 158.795 134.514 170.133 136.779C175.446 137.846 186.344 139.813 185.23 133.461C184.163 127.337 166.559 131.29 166.559 131.29L159.8 132.414ZM156.273 141.813C153.78 142.173 155.372 143.562 164.905 145.743C169.374 146.767 178.546 148.686 177.75 143.268C176.992 138.054 162.013 141.003 162.013 141.003L156.273 141.813ZM153.595 150.521C151.154 151.142 152.884 152.355 162.601 153.512C167.151 154.052 176.475 154.99 175.114 149.686C173.802 144.596 159.221 149.103 159.221 149.103L153.595 150.521ZM167.881 115.269C166.459 118.455 169.412 117.971 179.452 109.212C184.154 105.102 193.586 96.5036 186.116 92.2233C178.944 88.109 171.232 107.96 171.232 107.96L167.881 115.269ZM153.965 161.863C152.462 162.74 153.936 163.082 160.828 161.707C164.061 161.067 170.635 159.645 168.412 156.839C166.26 154.137 157.444 159.825 157.444 159.825L153.965 161.863Z" fill="white"/>
<path d="M164.203 121.663L163.051 102.5L164.203 121.663ZM160.558 127.987L153.277 111.506L160.558 127.987ZM179.347 123.194L161.899 125.697L179.347 123.194ZM156.785 136.869L147.338 124.749L156.785 136.869ZM158.444 133.153L171.46 133.807L158.444 133.153ZM155.363 142.448L165.317 143.434L155.363 142.448ZM152.96 148.354L148.016 140.917L152.96 148.354ZM152.391 150.98L164.094 151.089L152.391 150.98ZM150.021 172.936C150.099 172.93 150.172 172.893 150.224 172.834C150.275 172.774 150.301 172.697 150.296 172.618C149.552 161.442 153.875 143.136 160.809 128.11C165.241 118.507 182.613 99.6319 182.798 99.4423C182.854 99.3864 182.885 99.3105 182.885 99.2314C182.885 99.1523 182.854 99.0765 182.798 99.0205C182.771 98.993 182.738 98.9711 182.702 98.9562C182.667 98.9413 182.628 98.9337 182.589 98.9337C182.551 98.9337 182.512 98.9413 182.477 98.9562C182.441 98.9711 182.408 98.993 182.381 99.0205C182.206 99.2101 164.762 118.156 160.293 127.844C153.23 143.235 148.964 161.209 149.722 172.656C149.728 172.732 149.762 172.802 149.817 172.854C149.873 172.906 149.945 172.935 150.021 172.936ZM164.198 121.957C164.277 121.952 164.35 121.917 164.402 121.858C164.455 121.8 164.482 121.723 164.478 121.645L163.345 102.471C163.343 102.432 163.334 102.394 163.317 102.359C163.3 102.323 163.276 102.292 163.247 102.266C163.218 102.24 163.184 102.22 163.147 102.207C163.11 102.194 163.071 102.189 163.032 102.192C162.954 102.196 162.881 102.232 162.828 102.291C162.776 102.349 162.749 102.426 162.753 102.504L163.904 121.668C163.908 121.744 163.941 121.815 163.995 121.867C164.05 121.919 164.123 121.948 164.198 121.948V121.957ZM160.662 128.257C160.733 128.225 160.789 128.166 160.817 128.093C160.846 128.021 160.844 127.94 160.814 127.868L153.529 111.387C153.497 111.315 153.438 111.259 153.366 111.231C153.293 111.202 153.211 111.204 153.14 111.235C153.068 111.267 153.012 111.326 152.984 111.398C152.955 111.471 152.957 111.552 152.988 111.624L160.269 128.105C160.292 128.158 160.329 128.203 160.377 128.235C160.425 128.267 160.481 128.284 160.539 128.285C160.588 128.288 160.637 128.278 160.681 128.257H160.662ZM161.923 125.982L179.362 123.488C179.404 123.487 179.445 123.478 179.483 123.46C179.521 123.442 179.555 123.416 179.582 123.384C179.61 123.352 179.63 123.314 179.642 123.274C179.654 123.233 179.657 123.191 179.651 123.149C179.645 123.108 179.631 123.067 179.609 123.032C179.586 122.996 179.557 122.965 179.522 122.942C179.487 122.918 179.447 122.903 179.406 122.895C179.364 122.888 179.322 122.89 179.281 122.901L161.842 125.394C161.765 125.399 161.692 125.435 161.64 125.493C161.589 125.552 161.563 125.629 161.568 125.707C161.573 125.785 161.608 125.857 161.667 125.909C161.726 125.96 161.802 125.987 161.88 125.982H161.923ZM156.951 137.106C157.013 137.058 157.053 136.987 157.063 136.909C157.072 136.83 157.051 136.752 157.003 136.689L147.551 124.545C147.503 124.483 147.432 124.441 147.353 124.431C147.274 124.421 147.195 124.442 147.132 124.491C147.069 124.539 147.028 124.611 147.018 124.689C147.008 124.768 147.029 124.848 147.077 124.91L156.548 137.073C156.575 137.109 156.611 137.137 156.651 137.157C156.691 137.177 156.735 137.187 156.78 137.187C156.851 137.183 156.918 137.155 156.97 137.106H156.951ZM171.721 133.822C171.723 133.743 171.695 133.667 171.642 133.609C171.588 133.552 171.515 133.517 171.436 133.513L158.444 132.855C158.371 132.86 158.302 132.891 158.251 132.944C158.2 132.996 158.17 133.065 158.166 133.138C158.163 133.211 158.186 133.283 158.232 133.34C158.278 133.397 158.343 133.435 158.415 133.447L171.432 134.106C171.51 134.109 171.586 134.08 171.644 134.027C171.702 133.974 171.736 133.9 171.74 133.822H171.721ZM165.592 143.463C165.596 143.424 165.593 143.384 165.582 143.347C165.571 143.309 165.553 143.274 165.528 143.243C165.503 143.213 165.473 143.187 165.438 143.169C165.403 143.151 165.365 143.139 165.326 143.136L155.372 142.154C155.334 142.151 155.295 142.154 155.258 142.166C155.22 142.177 155.186 142.195 155.156 142.22C155.126 142.245 155.101 142.275 155.083 142.309C155.065 142.344 155.054 142.381 155.05 142.42C155.043 142.498 155.067 142.575 155.117 142.635C155.167 142.695 155.238 142.734 155.316 142.742L165.27 143.728H165.298C165.374 143.733 165.45 143.709 165.508 143.659C165.567 143.609 165.604 143.539 165.611 143.463H165.592ZM153.102 148.601C153.168 148.557 153.214 148.49 153.23 148.412C153.246 148.335 153.23 148.255 153.187 148.189L148.267 140.751C148.222 140.687 148.154 140.643 148.077 140.628C148 140.613 147.921 140.628 147.855 140.671C147.789 140.714 147.743 140.782 147.727 140.859C147.711 140.937 147.726 141.017 147.769 141.083L152.69 148.52C152.718 148.561 152.755 148.594 152.799 148.617C152.843 148.64 152.891 148.653 152.941 148.653C153.005 148.657 153.068 148.638 153.121 148.601H153.102ZM164.393 151.089C164.391 151.011 164.36 150.937 164.306 150.881C164.251 150.826 164.177 150.793 164.099 150.791L152.396 150.682C152.318 150.682 152.243 150.713 152.188 150.768C152.133 150.823 152.102 150.898 152.102 150.976C152.1 151.015 152.107 151.054 152.121 151.09C152.136 151.127 152.157 151.16 152.185 151.188C152.212 151.216 152.245 151.238 152.281 151.253C152.318 151.268 152.356 151.275 152.396 151.274L164.099 151.383C164.139 151.385 164.179 151.379 164.216 151.365C164.254 151.351 164.288 151.33 164.317 151.303C164.347 151.275 164.37 151.242 164.386 151.206C164.402 151.169 164.411 151.129 164.412 151.089H164.393ZM148.689 168.589C148.713 168.537 150.708 163.039 156.709 161.726C156.786 161.709 156.854 161.662 156.896 161.595C156.939 161.529 156.954 161.448 156.937 161.37C156.917 161.295 156.87 161.229 156.804 161.188C156.737 161.146 156.658 161.132 156.581 161.148C150.253 162.532 148.153 168.338 148.13 168.395C148.105 168.47 148.111 168.551 148.145 168.622C148.18 168.693 148.241 168.747 148.315 168.774H148.409C148.472 168.78 148.535 168.765 148.589 168.731C148.643 168.698 148.685 168.648 148.708 168.589H148.689ZM150.021 172.936C150.099 172.93 150.172 172.893 150.224 172.834C150.275 172.774 150.301 172.697 150.296 172.618C149.552 161.442 153.875 143.136 160.809 128.11C165.241 118.507 182.613 99.6319 182.798 99.4423C182.854 99.3864 182.885 99.3105 182.885 99.2314C182.885 99.1523 182.854 99.0765 182.798 99.0205C182.771 98.993 182.738 98.9711 182.702 98.9562C182.667 98.9413 182.628 98.9337 182.589 98.9337C182.551 98.9337 182.512 98.9413 182.477 98.9562C182.441 98.9711 182.408 98.993 182.381 99.0205C182.206 99.2101 164.762 118.156 160.293 127.844C153.23 143.235 148.964 161.209 149.722 172.656C149.728 172.732 149.762 172.802 149.817 172.854C149.873 172.906 149.945 172.935 150.021 172.936ZM164.198 121.957C164.277 121.952 164.35 121.917 164.402 121.858C164.455 121.8 164.482 121.723 164.478 121.645L163.345 102.471C163.343 102.432 163.334 102.394 163.317 102.359C163.3 102.323 163.276 102.292 163.247 102.266C163.218 102.24 163.184 102.22 163.147 102.207C163.11 102.194 163.071 102.189 163.032 102.192C162.954 102.196 162.881 102.232 162.828 102.291C162.776 102.349 162.749 102.426 162.753 102.504L163.904 121.668C163.908 121.744 163.941 121.815 163.995 121.867C164.05 121.919 164.123 121.948 164.198 121.948V121.957ZM160.662 128.257C160.733 128.225 160.789 128.166 160.817 128.093C160.846 128.021 160.844 127.94 160.814 127.868L153.529 111.387C153.497 111.315 153.438 111.259 153.366 111.231C153.293 111.202 153.211 111.204 153.14 111.235C153.068 111.267 153.012 111.326 152.984 111.398C152.955 111.471 152.957 111.552 152.988 111.624L160.269 128.105C160.292 128.158 160.329 128.203 160.377 128.235C160.425 128.267 160.481 128.284 160.539 128.285C160.588 128.288 160.637 128.278 160.681 128.257H160.662ZM161.923 125.982L179.362 123.488C179.404 123.487 179.445 123.478 179.483 123.46C179.521 123.442 179.555 123.416 179.582 123.384C179.61 123.352 179.63 123.314 179.642 123.274C179.654 123.233 179.657 123.191 179.651 123.149C179.645 123.108 179.631 123.067 179.609 123.032C179.586 122.996 179.557 122.965 179.522 122.942C179.487 122.918 179.447 122.903 179.406 122.895C179.364 122.888 179.322 122.89 179.281 122.901L161.842 125.394C161.765 125.399 161.692 125.435 161.64 125.493C161.589 125.552 161.563 125.629 161.568 125.707C161.573 125.785 161.608 125.857 161.667 125.909C161.726 125.96 161.802 125.987 161.88 125.982H161.923ZM156.951 137.106C157.013 137.058 157.053 136.987 157.063 136.909C157.072 136.83 157.051 136.752 157.003 136.689L147.551 124.545C147.527 124.514 147.498 124.488 147.464 124.469C147.429 124.449 147.392 124.436 147.353 124.431C147.314 124.426 147.274 124.429 147.236 124.439C147.199 124.449 147.163 124.467 147.132 124.491C147.101 124.515 147.075 124.545 147.055 124.579C147.036 124.613 147.023 124.65 147.018 124.689C147.013 124.728 147.015 124.768 147.026 124.806C147.036 124.844 147.053 124.879 147.077 124.91L156.548 137.073C156.575 137.109 156.611 137.137 156.651 137.157C156.691 137.177 156.735 137.187 156.78 137.187C156.851 137.183 156.918 137.155 156.97 137.106H156.951ZM171.721 133.822C171.723 133.743 171.695 133.667 171.642 133.609C171.588 133.552 171.515 133.517 171.436 133.513L158.444 132.855C158.371 132.86 158.302 132.891 158.251 132.944C158.2 132.996 158.17 133.065 158.166 133.138C158.163 133.211 158.186 133.283 158.232 133.34C158.278 133.397 158.343 133.435 158.415 133.447L171.432 134.106C171.51 134.109 171.586 134.08 171.644 134.027C171.702 133.974 171.736 133.9 171.74 133.822H171.721ZM165.592 143.463C165.596 143.424 165.593 143.384 165.582 143.347C165.571 143.309 165.553 143.274 165.528 143.243C165.503 143.213 165.473 143.187 165.438 143.169C165.403 143.151 165.365 143.139 165.326 143.136L155.372 142.154C155.334 142.151 155.295 142.154 155.258 142.166C155.22 142.177 155.186 142.195 155.156 142.22C155.126 142.245 155.101 142.275 155.083 142.309C155.065 142.344 155.054 142.381 155.05 142.42C155.043 142.498 155.067 142.575 155.117 142.635C155.167 142.695 155.238 142.734 155.316 142.742L165.27 143.728H165.298C165.374 143.733 165.45 143.709 165.508 143.659C165.567 143.609 165.604 143.539 165.611 143.463H165.592ZM153.102 148.601C153.168 148.557 153.214 148.49 153.23 148.412C153.246 148.335 153.23 148.255 153.187 148.189L148.267 140.751C148.222 140.687 148.154 140.643 148.077 140.628C148 140.613 147.921 140.628 147.855 140.671C147.789 140.714 147.743 140.782 147.727 140.859C147.711 140.937 147.726 141.017 147.769 141.083L152.69 148.52C152.718 148.561 152.755 148.594 152.799 148.617C152.843 148.64 152.891 148.653 152.941 148.653C153.005 148.657 153.068 148.638 153.121 148.601H153.102ZM164.393 151.089C164.391 151.011 164.36 150.937 164.306 150.881C164.251 150.826 164.177 150.793 164.099 150.791L152.396 150.682C152.318 150.682 152.243 150.713 152.188 150.768C152.133 150.823 152.102 150.898 152.102 150.976C152.1 151.015 152.107 151.054 152.121 151.09C152.136 151.127 152.157 151.16 152.185 151.188C152.212 151.216 152.245 151.238 152.281 151.253C152.318 151.268 152.356 151.275 152.396 151.274L164.099 151.383C164.139 151.385 164.179 151.379 164.216 151.365C164.254 151.351 164.288 151.33 164.317 151.303C164.347 151.275 164.37 151.242 164.386 151.206C164.402 151.169 164.411 151.129 164.412 151.089H164.393ZM148.689 168.589C148.713 168.537 150.708 163.039 156.709 161.726C156.786 161.709 156.854 161.662 156.896 161.595C156.939 161.529 156.954 161.448 156.937 161.37C156.917 161.295 156.87 161.229 156.804 161.188C156.737 161.146 156.658 161.132 156.581 161.148C150.253 162.532 148.153 168.338 148.13 168.395C148.105 168.47 148.111 168.551 148.145 168.622C148.18 168.693 148.241 168.747 148.315 168.774H148.409C148.472 168.78 148.535 168.765 148.589 168.731C148.643 168.698 148.685 168.648 148.708 168.589H148.689Z" fill="#AD49EB"/>
<path opacity="0.2" d="M164.203 121.663L163.051 102.5L164.203 121.663ZM160.558 127.987L153.277 111.506L160.558 127.987ZM179.347 123.194L161.899 125.697L179.347 123.194ZM156.785 136.869L147.338 124.749L156.785 136.869ZM158.444 133.153L171.46 133.807L158.444 133.153ZM155.363 142.448L165.317 143.434L155.363 142.448ZM152.96 148.354L148.016 140.917L152.96 148.354ZM152.391 150.98L164.094 151.089L152.391 150.98ZM150.021 172.936C150.099 172.93 150.172 172.893 150.224 172.834C150.275 172.774 150.301 172.697 150.296 172.618C149.552 161.442 153.875 143.136 160.809 128.11C165.241 118.507 182.613 99.6319 182.798 99.4423C182.854 99.3864 182.885 99.3105 182.885 99.2314C182.885 99.1523 182.854 99.0765 182.798 99.0205C182.771 98.993 182.738 98.9711 182.702 98.9562C182.667 98.9413 182.628 98.9337 182.589 98.9337C182.551 98.9337 182.512 98.9413 182.477 98.9562C182.441 98.9711 182.408 98.993 182.381 99.0205C182.206 99.2101 164.762 118.156 160.293 127.844C153.23 143.235 148.964 161.209 149.722 172.656C149.728 172.732 149.762 172.802 149.817 172.854C149.873 172.906 149.945 172.935 150.021 172.936ZM164.198 121.957C164.277 121.952 164.35 121.917 164.402 121.858C164.455 121.8 164.482 121.723 164.478 121.645L163.345 102.471C163.343 102.432 163.334 102.394 163.317 102.359C163.3 102.323 163.276 102.292 163.247 102.266C163.218 102.24 163.184 102.22 163.147 102.207C163.11 102.194 163.071 102.189 163.032 102.192C162.954 102.196 162.881 102.232 162.828 102.291C162.776 102.349 162.749 102.426 162.753 102.504L163.904 121.668C163.908 121.744 163.941 121.815 163.995 121.867C164.05 121.919 164.123 121.948 164.198 121.948V121.957ZM160.662 128.257C160.733 128.225 160.789 128.166 160.817 128.093C160.846 128.021 160.844 127.94 160.814 127.868L153.529 111.387C153.497 111.315 153.438 111.259 153.366 111.231C153.293 111.202 153.211 111.204 153.14 111.235C153.068 111.267 153.012 111.326 152.984 111.398C152.955 111.471 152.957 111.552 152.988 111.624L160.269 128.105C160.292 128.158 160.329 128.203 160.377 128.235C160.425 128.267 160.481 128.284 160.539 128.285C160.588 128.288 160.637 128.278 160.681 128.257H160.662ZM161.923 125.982L179.362 123.488C179.404 123.487 179.445 123.478 179.483 123.46C179.521 123.442 179.555 123.416 179.582 123.384C179.61 123.352 179.63 123.314 179.642 123.274C179.654 123.233 179.657 123.191 179.651 123.149C179.645 123.108 179.631 123.067 179.609 123.032C179.586 122.996 179.557 122.965 179.522 122.942C179.487 122.918 179.447 122.903 179.406 122.895C179.364 122.888 179.322 122.89 179.281 122.901L161.842 125.394C161.765 125.399 161.692 125.435 161.64 125.493C161.589 125.552 161.563 125.629 161.568 125.707C161.573 125.785 161.608 125.857 161.667 125.909C161.726 125.96 161.802 125.987 161.88 125.982H161.923ZM156.951 137.106C157.013 137.058 157.053 136.987 157.063 136.909C157.072 136.83 157.051 136.752 157.003 136.689L147.551 124.545C147.503 124.483 147.432 124.441 147.353 124.431C147.274 124.421 147.195 124.442 147.132 124.491C147.069 124.539 147.028 124.611 147.018 124.689C147.008 124.768 147.029 124.848 147.077 124.91L156.548 137.073C156.575 137.109 156.611 137.137 156.651 137.157C156.691 137.177 156.735 137.187 156.78 137.187C156.851 137.183 156.918 137.155 156.97 137.106H156.951ZM171.721 133.822C171.723 133.743 171.695 133.667 171.642 133.609C171.588 133.552 171.515 133.517 171.436 133.513L158.444 132.855C158.371 132.86 158.302 132.891 158.251 132.944C158.2 132.996 158.17 133.065 158.166 133.138C158.163 133.211 158.186 133.283 158.232 133.34C158.278 133.397 158.343 133.435 158.415 133.447L171.432 134.106C171.51 134.109 171.586 134.08 171.644 134.027C171.702 133.974 171.736 133.9 171.74 133.822H171.721ZM165.592 143.463C165.596 143.424 165.593 143.384 165.582 143.347C165.571 143.309 165.553 143.274 165.528 143.243C165.503 143.213 165.473 143.187 165.438 143.169C165.403 143.151 165.365 143.139 165.326 143.136L155.372 142.154C155.334 142.151 155.295 142.154 155.258 142.166C155.22 142.177 155.186 142.195 155.156 142.22C155.126 142.245 155.101 142.275 155.083 142.309C155.065 142.344 155.054 142.381 155.05 142.42C155.043 142.498 155.067 142.575 155.117 142.635C155.167 142.695 155.238 142.734 155.316 142.742L165.27 143.728H165.298C165.374 143.733 165.45 143.709 165.508 143.659C165.567 143.609 165.604 143.539 165.611 143.463H165.592ZM153.102 148.601C153.168 148.557 153.214 148.49 153.23 148.412C153.246 148.335 153.23 148.255 153.187 148.189L148.267 140.751C148.222 140.687 148.154 140.643 148.077 140.628C148 140.613 147.921 140.628 147.855 140.671C147.789 140.714 147.743 140.782 147.727 140.859C147.711 140.937 147.726 141.017 147.769 141.083L152.69 148.52C152.718 148.561 152.755 148.594 152.799 148.617C152.843 148.64 152.891 148.653 152.941 148.653C153.005 148.657 153.068 148.638 153.121 148.601H153.102ZM164.393 151.089C164.391 151.011 164.36 150.937 164.306 150.881C164.251 150.826 164.177 150.793 164.099 150.791L152.396 150.682C152.318 150.682 152.243 150.713 152.188 150.768C152.133 150.823 152.102 150.898 152.102 150.976C152.1 151.015 152.107 151.054 152.121 151.09C152.136 151.127 152.157 151.16 152.185 151.188C152.212 151.216 152.245 151.238 152.281 151.253C152.318 151.268 152.356 151.275 152.396 151.274L164.099 151.383C164.139 151.385 164.179 151.379 164.216 151.365C164.254 151.351 164.288 151.33 164.317 151.303C164.347 151.275 164.37 151.242 164.386 151.206C164.402 151.169 164.411 151.129 164.412 151.089H164.393ZM148.689 168.589C148.713 168.537 150.708 163.039 156.709 161.726C156.786 161.709 156.854 161.662 156.896 161.595C156.939 161.529 156.954 161.448 156.937 161.37C156.917 161.295 156.87 161.229 156.804 161.188C156.737 161.146 156.658 161.132 156.581 161.148C150.253 162.532 148.153 168.338 148.13 168.395C148.105 168.47 148.111 168.551 148.145 168.622C148.18 168.693 148.241 168.747 148.315 168.774H148.409C148.472 168.78 148.535 168.765 148.589 168.731C148.643 168.698 148.685 168.648 148.708 168.589H148.689ZM150.021 172.936C150.099 172.93 150.172 172.893 150.224 172.834C150.275 172.774 150.301 172.697 150.296 172.618C149.552 161.442 153.875 143.136 160.809 128.11C165.241 118.507 182.613 99.6319 182.798 99.4423C182.854 99.3864 182.885 99.3105 182.885 99.2314C182.885 99.1523 182.854 99.0765 182.798 99.0205C182.771 98.993 182.738 98.9711 182.702 98.9562C182.667 98.9413 182.628 98.9337 182.589 98.9337C182.551 98.9337 182.512 98.9413 182.477 98.9562C182.441 98.9711 182.408 98.993 182.381 99.0205C182.206 99.2101 164.762 118.156 160.293 127.844C153.23 143.235 148.964 161.209 149.722 172.656C149.728 172.732 149.762 172.802 149.817 172.854C149.873 172.906 149.945 172.935 150.021 172.936ZM164.198 121.957C164.277 121.952 164.35 121.917 164.402 121.858C164.455 121.8 164.482 121.723 164.478 121.645L163.345 102.471C163.343 102.432 163.334 102.394 163.317 102.359C163.3 102.323 163.276 102.292 163.247 102.266C163.218 102.24 163.184 102.22 163.147 102.207C163.11 102.194 163.071 102.189 163.032 102.192C162.954 102.196 162.881 102.232 162.828 102.291C162.776 102.349 162.749 102.426 162.753 102.504L163.904 121.668C163.908 121.744 163.941 121.815 163.995 121.867C164.05 121.919 164.123 121.948 164.198 121.948V121.957ZM160.662 128.257C160.733 128.225 160.789 128.166 160.817 128.093C160.846 128.021 160.844 127.94 160.814 127.868L153.529 111.387C153.497 111.315 153.438 111.259 153.366 111.231C153.293 111.202 153.211 111.204 153.14 111.235C153.068 111.267 153.012 111.326 152.984 111.398C152.955 111.471 152.957 111.552 152.988 111.624L160.269 128.105C160.292 128.158 160.329 128.203 160.377 128.235C160.425 128.267 160.481 128.284 160.539 128.285C160.588 128.288 160.637 128.278 160.681 128.257H160.662ZM161.923 125.982L179.362 123.488C179.404 123.487 179.445 123.478 179.483 123.46C179.521 123.442 179.555 123.416 179.582 123.384C179.61 123.352 179.63 123.314 179.642 123.274C179.654 123.233 179.657 123.191 179.651 123.149C179.645 123.108 179.631 123.067 179.609 123.032C179.586 122.996 179.557 122.965 179.522 122.942C179.487 122.918 179.447 122.903 179.406 122.895C179.364 122.888 179.322 122.89 179.281 122.901L161.842 125.394C161.765 125.399 161.692 125.435 161.64 125.493C161.589 125.552 161.563 125.629 161.568 125.707C161.573 125.785 161.608 125.857 161.667 125.909C161.726 125.96 161.802 125.987 161.88 125.982H161.923ZM156.951 137.106C157.013 137.058 157.053 136.987 157.063 136.909C157.072 136.83 157.051 136.752 157.003 136.689L147.551 124.545C147.527 124.514 147.498 124.488 147.464 124.469C147.429 124.449 147.392 124.436 147.353 124.431C147.314 124.426 147.274 124.429 147.236 124.439C147.199 124.449 147.163 124.467 147.132 124.491C147.101 124.515 147.075 124.545 147.055 124.579C147.036 124.613 147.023 124.65 147.018 124.689C147.013 124.728 147.015 124.768 147.026 124.806C147.036 124.844 147.053 124.879 147.077 124.91L156.548 137.073C156.575 137.109 156.611 137.137 156.651 137.157C156.691 137.177 156.735 137.187 156.78 137.187C156.851 137.183 156.918 137.155 156.97 137.106H156.951ZM171.721 133.822C171.723 133.743 171.695 133.667 171.642 133.609C171.588 133.552 171.515 133.517 171.436 133.513L158.444 132.855C158.371 132.86 158.302 132.891 158.251 132.944C158.2 132.996 158.17 133.065 158.166 133.138C158.163 133.211 158.186 133.283 158.232 133.34C158.278 133.397 158.343 133.435 158.415 133.447L171.432 134.106C171.51 134.109 171.586 134.08 171.644 134.027C171.702 133.974 171.736 133.9 171.74 133.822H171.721ZM165.592 143.463C165.596 143.424 165.593 143.384 165.582 143.347C165.571 143.309 165.553 143.274 165.528 143.243C165.503 143.213 165.473 143.187 165.438 143.169C165.403 143.151 165.365 143.139 165.326 143.136L155.372 142.154C155.334 142.151 155.295 142.154 155.258 142.166C155.22 142.177 155.186 142.195 155.156 142.22C155.126 142.245 155.101 142.275 155.083 142.309C155.065 142.344 155.054 142.381 155.05 142.42C155.043 142.498 155.067 142.575 155.117 142.635C155.167 142.695 155.238 142.734 155.316 142.742L165.27 143.728H165.298C165.374 143.733 165.45 143.709 165.508 143.659C165.567 143.609 165.604 143.539 165.611 143.463H165.592ZM153.102 148.601C153.168 148.557 153.214 148.49 153.23 148.412C153.246 148.335 153.23 148.255 153.187 148.189L148.267 140.751C148.222 140.687 148.154 140.643 148.077 140.628C148 140.613 147.921 140.628 147.855 140.671C147.789 140.714 147.743 140.782 147.727 140.859C147.711 140.937 147.726 141.017 147.769 141.083L152.69 148.52C152.718 148.561 152.755 148.594 152.799 148.617C152.843 148.64 152.891 148.653 152.941 148.653C153.005 148.657 153.068 148.638 153.121 148.601H153.102ZM164.393 151.089C164.391 151.011 164.36 150.937 164.306 150.881C164.251 150.826 164.177 150.793 164.099 150.791L152.396 150.682C152.318 150.682 152.243 150.713 152.188 150.768C152.133 150.823 152.102 150.898 152.102 150.976C152.1 151.015 152.107 151.054 152.121 151.09C152.136 151.127 152.157 151.16 152.185 151.188C152.212 151.216 152.245 151.238 152.281 151.253C152.318 151.268 152.356 151.275 152.396 151.274L164.099 151.383C164.139 151.385 164.179 151.379 164.216 151.365C164.254 151.351 164.288 151.33 164.317 151.303C164.347 151.275 164.37 151.242 164.386 151.206C164.402 151.169 164.411 151.129 164.412 151.089H164.393ZM148.689 168.589C148.713 168.537 150.708 163.039 156.709 161.726C156.786 161.709 156.854 161.662 156.896 161.595C156.939 161.529 156.954 161.448 156.937 161.37C156.917 161.295 156.87 161.229 156.804 161.188C156.737 161.146 156.658 161.132 156.581 161.148C150.253 162.532 148.153 168.338 148.13 168.395C148.105 168.47 148.111 168.551 148.145 168.622C148.18 168.693 148.241 168.747 148.315 168.774H148.409C148.472 168.78 148.535 168.765 148.589 168.731C148.643 168.698 148.685 168.648 148.708 168.589H148.689Z" fill="black"/>
<path d="M157.761 164.579H144.342V167.357H145.513L147.935 182.511H154.168L156.591 167.357H157.761V164.579Z" fill="#AD49EB"/>
<path opacity="0.3" d="M157.761 164.579H144.342V167.357H145.513L147.935 182.511H154.168L156.591 167.357H157.761V164.579Z" fill="white"/>
<path d="M36.9482 80.5866L21.3394 75.4911L19.9506 71.8223L16.7795 71.7228L11.0252 70.6326L11.7172 71.8223L18.9599 77.079L20.7469 77.9701L37.0715 86.4973L36.9482 80.5866Z" fill="white" stroke="#263238" stroke-width="0.475877" stroke-miterlimit="10"/>
<path d="M19.9506 71.8223L18.4622 70.9312L15.4902 72.0213L15.9832 72.6138L19.9506 71.8223Z" fill="white" stroke="#263238" stroke-width="0.475877" stroke-linejoin="round"/>
<path d="M36.9482 80.5866L21.3394 75.4911L19.9506 71.8223L16.7795 71.7228L11.0252 70.6326L11.7172 71.8223L18.9599 77.079L20.7469 77.9701L37.0715 86.4973L36.9482 80.5866Z" fill="white"/>
<mask id="mask0_1063_1183" style="mask-type:luminance" maskUnits="userSpaceOnUse" x="11" y="70" width="27" height="17">
<path d="M36.9482 80.5866L21.3394 75.4911L19.9506 71.8223L16.7795 71.7228L11.0252 70.6326L11.7172 71.8223L18.9599 77.079L20.7469 77.9701L37.0715 86.4973L36.9482 80.5866Z" fill="white"/>
</mask>
<g mask="url(#mask0_1063_1183)">
<path opacity="0.5" d="M36.9482 80.5866L21.3394 75.4911L19.9506 71.8223L16.7795 71.7228L11.0252 70.6326L11.7172 71.8223L18.9599 77.079L20.7469 77.9701L37.0715 86.4973L36.9482 80.5866Z" fill="#AD49EB" stroke="#263238" stroke-width="0.475877" stroke-miterlimit="10"/>
</g>
<path d="M36.9482 80.5866L21.3394 75.4911L19.9506 71.8223L16.7795 71.7228L11.0252 70.6326L11.7172 71.8223L18.9599 77.079L20.7469 77.9701L37.0715 86.4973L36.9482 80.5866Z" stroke="#263238" stroke-width="0.475877" stroke-miterlimit="10"/>
<path d="M19.9506 71.8223L18.4622 70.9312L15.4902 72.0213L15.9832 72.6138L19.9506 71.8223Z" fill="white"/>
<mask id="mask1_1063_1183" style="mask-type:luminance" maskUnits="userSpaceOnUse" x="15" y="70" width="5" height="3">
<path d="M19.9506 71.8223L18.4622 70.9312L15.4902 72.0213L15.9832 72.6138L19.9506 71.8223Z" fill="white"/>
</mask>
<g mask="url(#mask1_1063_1183)">
<path opacity="0.5" d="M19.9506 71.8223L18.4622 70.9312L15.4902 72.0213L15.9832 72.6138L19.9506 71.8223Z" fill="#AD49EB" stroke="#263238" stroke-width="0.475877" stroke-linejoin="round"/>
</g>
<path d="M19.9506 71.8223L18.4622 70.9312L15.4902 72.0213L15.9832 72.6138L19.9506 71.8223Z" stroke="#263238" stroke-width="0.475877" stroke-linejoin="round"/>
<path d="M40.2615 47.5156C40.2615 47.5156 40.0198 49.6486 40.6217 51.0184C41.2237 52.3883 44.5654 57.0288 44.5654 57.0288L38.3276 62.0295C38.3276 62.0295 35.7395 56.8155 35.2466 55.9717C34.7536 55.128 34.1611 51.4972 35.768 48.8949C37.3748 46.2927 39.688 45.5911 40.2615 47.5156Z" fill="white"/>
<mask id="mask2_1063_1183" style="mask-type:luminance" maskUnits="userSpaceOnUse" x="34" y="46" width="11" height="17">
<path d="M40.2615 47.5156C40.2615 47.5156 40.0198 49.6486 40.6217 51.0184C41.2237 52.3883 44.5654 57.0288 44.5654 57.0288L38.3276 62.0295C38.3276 62.0295 35.7395 56.8155 35.2466 55.9717C34.7536 55.128 34.1611 51.4972 35.768 48.8949C37.3748 46.2927 39.688 45.5911 40.2615 47.5156Z" fill="white"/>
</mask>
<g mask="url(#mask2_1063_1183)">
<g style="mix-blend-mode:multiply" opacity="0.5">
<path d="M37.0573 54.3696L39.7638 59.9817L38.3228 62.0341L35.6021 57.1756L37.0573 54.3696Z" fill="#AD49EB"/>
</g>
</g>
<path d="M40.2615 47.5156C40.2615 47.5156 40.0198 49.6486 40.6217 51.0184C41.2237 52.3883 44.5654 57.0288 44.5654 57.0288L38.3276 62.0295C38.3276 62.0295 35.7395 56.8155 35.2466 55.9717C34.7536 55.128 34.1611 51.4972 35.768 48.8949C37.3748 46.2927 39.688 45.5911 40.2615 47.5156Z" stroke="#263238" stroke-width="0.475877" stroke-miterlimit="10"/>
<path d="M42.1954 43.6098C41.8115 41.2398 39.0955 36.4192 34.7868 36.6041C31.9902 36.7273 30.682 37.2914 29.4685 37.9787C28.4794 38.5615 27.5575 39.2513 26.7193 40.0359C24.6148 42.5623 23.8753 43.2543 24.283 45.1882C24.2495 45.9596 24.3704 46.7299 24.6385 47.454C25.2831 49.1746 25.7239 50.298 26.2832 51.118C26.1126 51.919 25.667 54.0331 25.6433 54.5166C25.6196 55 27.0653 54.6635 27.7953 54.4786C29.1509 57.5122 31.6347 59.6168 32.4073 59.8585C33.7535 60.2804 35.8817 58.0668 37.0099 56.3509C38.138 54.6351 37.2848 52.7059 37.2895 51.938C37.2943 51.1701 39.8254 49.4827 40.7639 48.9471C41.7025 48.4114 42.5746 45.9751 42.1954 43.6098Z" fill="white"/>
<mask id="mask3_1063_1183" style="mask-type:luminance" maskUnits="userSpaceOnUse" x="24" y="36" width="19" height="24">
<path d="M42.1954 43.6098C41.8115 41.2398 39.0955 36.4192 34.7868 36.6041C31.9902 36.7273 30.682 37.2914 29.4685 37.9787C28.4794 38.5615 27.5575 39.2513 26.7193 40.0359C24.6148 42.5623 23.8753 43.2543 24.283 45.1882C24.2495 45.9596 24.3704 46.7299 24.6385 47.454C25.2831 49.1746 25.7239 50.298 26.2832 51.118C26.1126 51.919 25.667 54.0331 25.6433 54.5166C25.6196 55 27.0653 54.6635 27.7953 54.4786C29.1509 57.5122 31.6347 59.6168 32.4073 59.8585C33.7535 60.2804 35.8817 58.0668 37.0099 56.3509C38.138 54.6351 37.2848 52.7059 37.2895 51.938C37.2943 51.1701 39.8254 49.4827 40.7639 48.9471C41.7025 48.4114 42.5746 45.9751 42.1954 43.6098Z" fill="white"/>
</mask>
<g mask="url(#mask3_1063_1183)">
<g style="mix-blend-mode:multiply" opacity="0.5">
<path d="M24.302 45.1882C24.2685 45.9596 24.3894 46.7299 24.6575 47.454C25.3021 49.1746 25.7429 50.298 26.3022 51.118C26.1316 51.9191 25.686 54.0331 25.6623 54.5166C25.6386 55.0001 27.0843 54.6635 27.8143 54.4787C29.1699 57.5123 31.6537 59.6168 32.4263 59.8586C33.7725 60.2804 35.9007 58.0668 37.0289 56.3509C37.3107 55.9226 37.4937 55.4368 37.5645 54.9289C37.5029 54.7062 37.4602 54.5687 37.4602 54.5687C37.4602 54.5687 36.825 57.0098 35.5642 56.6922C34.3034 56.3746 32.3742 53.8482 31.2982 52.9761C30.2222 52.1039 30.663 50.9568 30.4497 49.6581C30.2364 48.3593 27.0512 47.217 26.8379 46.4728C26.6246 45.7286 27.3687 42.6476 27.3687 42.6476C27.3687 42.6476 28.5774 41.036 28.3167 41.6996C28.1325 42.275 28.0656 42.8815 28.1202 43.4833C28.1747 44.085 28.3496 44.6696 28.6343 45.2025C28.8341 45.6229 29.1511 45.9768 29.5471 46.2215C29.9432 46.4661 30.4014 46.5913 30.8669 46.5818L32.0234 40.8512L29.5823 38.8319L26.7383 40.0169C24.6148 42.5623 23.8896 43.2543 24.302 45.1882Z" fill="#AD49EB"/>
</g>
</g>
<path d="M42.1954 43.6098C41.8115 41.2398 39.0955 36.4192 34.7868 36.6041C31.9902 36.7273 30.682 37.2914 29.4685 37.9787C28.4794 38.5615 27.5575 39.2513 26.7193 40.0359C24.6148 42.5623 23.8753 43.2543 24.283 45.1882C24.2495 45.9596 24.3704 46.7299 24.6385 47.454C25.2831 49.1746 25.7239 50.298 26.2832 51.118C26.1126 51.919 25.667 54.0331 25.6433 54.5166C25.6196 55 27.0653 54.6635 27.7953 54.4786C29.1509 57.5122 31.6347 59.6168 32.4073 59.8585C33.7535 60.2804 35.8817 58.0668 37.0099 56.3509C38.138 54.6351 37.2848 52.7059 37.2895 51.938C37.2943 51.1701 39.8254 49.4827 40.7639 48.9471C41.7025 48.4114 42.5746 45.9751 42.1954 43.6098Z" stroke="#263238" stroke-width="0.474" stroke-miterlimit="10"/>
<path d="M26.871 49.6865L27.345 51.0421C27.345 51.0421 28.3641 51.3787 29.606 50.023M30.3739 56.0191C30.3739 56.0191 31.502 55.9054 31.957 54.3222M26.0794 48.5536C26.0794 48.5536 26.416 47.5345 28.4494 47.5345" stroke="#263238" stroke-width="0.474" stroke-miterlimit="10" stroke-linecap="round"/>
<path d="M36.5027 34.7176C35.0251 34.5051 33.535 34.3911 32.0423 34.3763C32.0423 34.3763 27.5773 31.8025 23.2876 34.5469C18.9979 37.2914 21.0598 42.0978 21.0598 43.297C21.0598 44.4962 19.6852 44.5009 20.5431 46.0462C21.401 47.5914 24.3019 46.7382 24.3019 46.7382C24.3326 46.1554 24.4866 45.5857 24.7538 45.0669C25.021 44.548 25.3953 44.0918 25.8519 43.7283C27.3971 42.5291 28.6295 42.2684 29.1415 42.6144C29.1415 42.6144 28.8002 45.1882 29.3121 46.2168C29.3121 46.2168 31.028 47.0748 31.5446 47.0748C32.0613 47.0748 31.2081 47.8 32.9192 48.4446C33.231 48.5566 33.5644 48.5947 33.8934 48.5561C34.2224 48.5174 34.5379 48.403 34.8152 48.2218C35.0665 47.179 35.6163 45.6101 36.6401 45.9751C38.1427 46.5107 39.5126 50.2079 37.4791 51.4687C39.925 51.9143 42.8875 47.5867 43.0628 43.643C43.2382 39.6993 39.0433 35.1631 36.5027 34.7176Z" fill="#263238"/>
<path d="M29.2173 40.9222C29.2173 40.9222 30.4781 40.2444 32.0234 41.6948C33.5686 43.1453 36.5738 45.0839 40.5554 44.0174M29.0419 39.7609C29.0419 39.7609 29.9093 38.4053 31.3598 38.4053C32.8102 38.4053 36.1993 40.4387 38.9059 40.4387M28.056 42.3727C28.056 42.3727 26.4112 40.3439 24.866 41.9887C23.3207 43.6335 24.3019 45.1882 24.3019 45.1882M21.4816 43.7283C22.4242 42.8783 23.0101 41.703 23.1217 40.4387C23.316 38.3105 26.2216 36.4713 28.056 38.2157M24.4773 35.9879C24.4773 35.9879 27.3829 33.1818 29.8003 36.7605" stroke="white" stroke-width="0.237" stroke-linecap="round" stroke-linejoin="round"/>
<path d="M48.1252 173.955C48.1252 173.955 49.9121 176.733 49.7131 178.52L49.5187 180.307C49.5187 180.307 42.9633 182.103 41.5745 182.103C40.1857 182.103 32.8339 181.406 32.8339 181.406L32.5163 180.145C32.4941 180.052 32.5046 179.954 32.546 179.868C32.5874 179.782 32.6573 179.712 32.7439 179.671L39.2993 176.614L41.3659 174.353L48.1252 173.955Z" fill="white" stroke="#263238" stroke-width="0.475877" stroke-miterlimit="10"/>
<path d="M42.5699 180.705C44.3474 180.842 47.7222 179.757 49.6799 179.065L49.5424 180.307C49.5424 180.307 42.9633 182.103 41.5745 182.103C40.1856 182.103 32.8339 181.406 32.8339 181.406L32.6064 180.506C33.7819 180.51 40.2188 180.525 42.5699 180.705Z" fill="#AD49EB" stroke="#263238" stroke-width="0.475877" stroke-miterlimit="10"/>
<path d="M39.3088 176.614L29.7671 180.766C29.7671 180.766 28.9519 182.809 29.7671 183.217C30.5824 183.625 48.3574 183.217 48.3574 183.217C48.3574 183.217 49.5851 179.989 47.6464 177.823C45.7078 175.657 39.3088 176.614 39.3088 176.614Z" fill="white" stroke="#263238" stroke-width="0.475877" stroke-miterlimit="10"/>
<path d="M48.3574 183.217C48.3574 183.217 30.5824 183.625 29.7671 183.217C29.3737 183.018 29.3595 182.444 29.4496 181.899H48.6703C48.6074 182.347 48.5027 182.789 48.3574 183.217ZM34.7963 104.467C34.7963 104.467 32.303 115.516 31.3598 122.426C30.4165 129.337 29.8619 143.183 30.061 144.771C30.2601 146.359 40.1857 172.964 40.1857 172.964L41.1763 175.334L48.1252 173.946C48.1252 173.946 44.9494 163.821 43.7596 158.261C42.5699 152.701 39.9676 143.567 39.9676 141.979C39.9676 140.391 46.1296 110.065 46.5704 108.074C47.0113 106.083 49.0115 103.026 49.0115 103.026L35.7064 102.755L34.7963 104.467Z" fill="#AD49EB" stroke="#263238" stroke-width="0.475877" stroke-miterlimit="10"/>
<path d="M34.7963 104.467C34.7963 104.467 33.3364 114.558 33.9383 121.573C34.5403 128.589 35.8343 143.524 35.8343 145.747C35.8343 147.97 39.4225 161.247 39.6263 165.418C39.9439 171.443 39.4984 174.424 39.4984 174.424L39.2851 176.609C39.2851 176.609 43.4705 177.207 44.3853 177.467C45.4419 177.74 46.5323 177.858 47.6227 177.818C47.6227 177.818 49.1443 171.121 49.1443 165.414C49.1443 159.707 47.8787 147.961 47.2483 143.202C46.6178 138.443 48.6039 120.085 49.732 116.658C50.8601 113.231 53.3249 105.974 51.6659 102.267C50.0069 98.5607 34.7963 104.467 34.7963 104.467Z" fill="#AD49EB" stroke="#263238" stroke-width="0.475877" stroke-miterlimit="10"/>
<path d="M53.5098 100.409L53.3581 104.922C53.3581 104.922 50.6563 105.457 47.016 106.088C44.0108 106.609 36.4648 105.95 33.9241 105.704C33.6926 105.683 33.4785 105.572 33.3285 105.395C33.1785 105.217 33.1047 104.988 33.1231 104.756L33.3695 100.679L53.5098 100.409Z" fill="#263238"/>
<path d="M42.9491 55.4267C42.9491 55.4267 38.6831 60.0387 37.0762 62.9064C35.4694 65.7741 34.8342 70.1681 34.2322 73.6283C33.6303 77.0885 35.2608 85.2129 34.801 88.9432L33.3459 100.694C33.3459 100.694 33.033 101.49 34.0806 102.362C35.1281 103.234 40.2426 103.552 44.8641 103.784C46.5515 103.869 51.5901 102.784 52.4149 102.732C53.4103 102.67 53.4435 101.405 53.4861 100.409C53.6852 95.7309 54.5289 83.26 55.0835 77.8279C56.2258 66.7506 49.9738 56.0571 42.9491 55.4267Z" fill="white" stroke="#263238" stroke-width="0.475877" stroke-miterlimit="10"/>
<g style="mix-blend-mode:multiply">
<path d="M54.5621 84.1274C54.7517 81.6673 54.9413 79.4348 55.1072 77.8279C55.1546 77.3539 55.183 76.8799 55.2067 76.4059L43.8734 78.3019L34.1374 74.9839C34.1385 76.9985 34.2524 79.0114 34.4787 81.0132L44.0298 83.6865L54.5621 84.1274ZM42.5272 55.8912C41.8826 56.6069 40.6028 58.0621 39.3846 59.6073L46.5799 66.9212L48.9499 65.9732L42.5272 55.8912Z" fill="#AD49EB"/>
</g>
<path d="M42.9491 55.4267C42.9491 55.4267 38.6831 60.0387 37.0762 62.9064C36.5998 63.7779 36.2138 64.696 35.9244 65.6461L44.5038 55.7348C43.997 55.5813 43.4762 55.4781 42.9491 55.4267Z" fill="#263238"/>
<g style="mix-blend-mode:multiply">
<path d="M34.564 71.7606L43.8734 74.8226L55.1783 73.5239C55.0011 70.7077 54.3754 67.9378 53.3249 65.3189L44.2099 68.9735L36.0619 65.281C35.3956 67.3988 34.8948 69.5652 34.564 71.7606ZM50.59 95.7308C45.8683 96.5235 41.0235 96.1277 36.4932 94.579L34.2227 93.8016L33.5165 99.4896L36.1045 100.215C41.0245 101.59 46.1667 101.987 51.2393 101.381L53.3297 101.13C53.4385 100.899 53.4997 100.649 53.5098 100.395C53.5667 99.1293 53.6662 97.2902 53.7942 95.1809L50.59 95.7308ZM51.8555 87.9856C47.1337 88.7815 42.2878 88.3839 37.7588 86.8291L34.8674 85.8384C34.9391 86.8711 34.9248 87.908 34.8247 88.9383L34.4882 91.6733L37.3701 92.4791C42.2882 93.8562 47.4288 94.2539 52.5002 93.6499L53.9222 93.4793C54.0407 91.5833 54.1781 89.564 54.3251 87.5685L51.8555 87.9856Z" fill="#AD49EB"/>
</g>
<path d="M16.5504 75.31L7.38545 67.9412L7.78048 67.4499L16.9454 74.8187L16.5504 75.31Z" fill="#263238"/>
<path d="M47.362 60.541C47.362 60.541 50.7227 62.8304 50.7985 68.2388C50.8317 70.6088 50.5852 72.8224 50.0401 76.7044C49.495 80.5865 46.1106 93.2281 43.4752 94.7638C40.8398 96.2996 36.7491 93.3987 36.7491 93.3987L16.9644 80.2642L12.1817 76.4011L9.81172 71.9265L10.5559 70.5045L16.3908 74.9791L13.2482 72.0734L13.8644 71.2913L15.002 72.0829L18.32 73.3248L19.0452 78.0648L20.0691 78.7663L38.9959 85.682C38.9959 85.682 38.7589 75.4957 38.9343 73.5476C39.1097 71.5994 39.3514 66.703 41.437 63.1528" fill="white"/>
<mask id="mask4_1063_1183" style="mask-type:luminance" maskUnits="userSpaceOnUse" x="9" y="60" width="42" height="36">
<path d="M47.362 60.541C47.362 60.541 50.7227 62.8304 50.7985 68.2388C50.8317 70.6088 50.5852 72.8224 50.0401 76.7044C49.495 80.5865 46.1106 93.2281 43.4752 94.7638C40.8398 96.2996 36.7491 93.3987 36.7491 93.3987L16.9644 80.2642L12.1817 76.4011L9.81172 71.9265L10.5559 70.5045L16.3908 74.9791L13.2482 72.0734L13.8644 71.2913L15.002 72.0829L18.32 73.3248L19.0452 78.0648L20.0691 78.7663L38.9959 85.682C38.9959 85.682 38.7589 75.4957 38.9343 73.5476C39.1097 71.5994 39.3514 66.703 41.437 63.1528" fill="white"/>
</mask>
<g mask="url(#mask4_1063_1183)">
<g style="mix-blend-mode:multiply" opacity="0.5">
<path d="M38.8632 77.9843C38.8632 81.5014 38.9817 85.6821 38.9817 85.6821L20.0738 78.7948L19.05 78.0933L18.3248 73.3533L15.0068 72.1114L13.8739 71.3056L13.2577 72.0877L16.3909 74.9791L10.5559 70.5046L9.84966 71.9029L12.2197 76.3774L17.0023 80.2642L18.2063 81.0653L44.3474 89.4883L38.8632 77.9843Z" fill="#AD49EB"/>
</g>
</g>
<path d="M47.362 60.541C47.362 60.541 50.7227 62.8304 50.7985 68.2388C50.8317 70.6088 50.5852 72.8224 50.0401 76.7044C49.495 80.5865 46.1106 93.2281 43.4752 94.7638C40.8398 96.2996 36.7491 93.3987 36.7491 93.3987L16.9644 80.2642L12.1817 76.4011L9.81172 71.9265L10.5559 70.5045L16.3908 74.9791L13.2482 72.0734L13.8644 71.2913L15.002 72.0829L18.32 73.3248L19.0452 78.0648L20.0691 78.7663L38.9959 85.682C38.9959 85.682 38.7589 75.4957 38.9343 73.5476C39.1097 71.5994 39.3514 66.703 41.437 63.1528" stroke="#263238" stroke-width="0.475877" stroke-miterlimit="10"/>
<path d="M38.9959 85.6821L46.2197 90.8961L48.092 87.5781C48.092 87.5781 49.386 86.559 49.5756 85.7911C49.7652 85.0232 49.5235 83.7766 49.7178 83.0087C49.9121 82.2408 50.8791 81.5203 50.9692 79.6623C51.0592 77.8042 50.9692 76.2542 50.9692 76.2542C50.9692 76.2542 52.5334 69.822 52.3627 67.0254C52.1921 64.2288 49.495 59.285 47.3336 59.176C45.1721 59.067 42.3613 59.394 40.1809 62.6931C38.0005 65.9921 38.4461 75.6238 38.1048 76.2258C37.7635 76.8277 38.2375 79.7997 38.2375 79.7997C38.0481 79.941 37.8909 80.121 37.7765 80.3278C37.6621 80.5346 37.593 80.7634 37.5739 80.9989C37.536 81.7716 38.3702 83.6723 38.3702 83.6723L38.9959 85.6821Z" fill="white" stroke="#263238" stroke-width="0.475877" stroke-miterlimit="10"/>
<g style="mix-blend-mode:multiply">
<path d="M38.2944 73.7515C38.3093 74.5786 38.2474 75.4054 38.1095 76.2211C37.8062 76.7614 38.1522 79.2025 38.228 79.7002C42.2911 80.9622 46.5874 81.2863 50.7938 80.6482C50.8841 80.3186 50.9382 79.98 50.9549 79.6386C51.0497 77.7853 50.9549 76.2305 50.9549 76.2305C50.9549 76.2305 51.0924 75.657 51.282 74.7848C46.9257 75.0617 42.5521 74.7138 38.2944 73.7515ZM39.887 63.2192C39.2092 64.5796 38.83 66.6226 38.612 68.6939C42.915 70.3361 47.5544 70.9008 52.1257 70.3387C52.3081 69.2425 52.389 68.1318 52.3675 67.0207C52.2854 66.1425 52.0779 65.2805 51.7513 64.4611C47.7598 64.5543 43.7727 64.1369 39.887 63.2192Z" fill="#AD49EB"/>
</g>
<path d="M38.3702 83.7245L38.9817 85.6821L46.2054 90.8961L48.0777 87.5781C48.0777 87.5781 49.3718 86.559 49.5614 85.7911C49.5952 85.6576 49.6158 85.5211 49.623 85.3835C45.8162 85.3178 42.034 84.7601 38.3702 83.7245Z" fill="#263238"/>
<path d="M43.5985 177.406C43.5985 177.406 43.7596 173.301 44.5465 167.3C45.3333 161.299 43.442 152.777 43.1245 151.355C42.8069 149.933 43.2856 146.776 42.968 145.667C42.6505 144.558 41.1147 139.827 42.02 134.338C42.9254 128.849 43.6601 114.34 43.6601 114.34C43.6601 114.34 41.3801 112.487 40.7118 110.074C40.0435 107.661 40.5554 106.903 40.5554 106.903M44.6555 107.126L43.7786 111.98" stroke="#263238" stroke-width="0.475877" stroke-miterlimit="10"/>
</svg>
