<svg width="187" height="167" viewBox="0 0 187 167" fill="none" xmlns="http://www.w3.org/2000/svg">
<path d="M180.576 88.3541C181.512 75.9173 178.619 62.9329 174.743 51.3761C169.009 34.1697 157.813 16.5373 138.996 12.465C128.146 10.1246 117.104 12.6335 107.799 18.5125C98.8542 24.1669 91.8846 31.4735 80.8801 32.8871C69.7539 34.3194 58.3376 33.7437 47.1552 33.7437C18.4014 33.7437 -4.93222 63.9486 0.900007 95.4127C6.73223 126.877 34.2364 148.694 57.5699 148.694C78.5397 148.694 95.793 136.117 115.71 132.737C125.586 131.061 135.505 133.046 145.278 130.537C156.638 127.616 167.32 120.656 173.615 110.578C177.903 103.707 179.99 96.1382 180.576 88.3541Z" fill="#AD49EB"/>
<path opacity="0.7" d="M180.576 88.3541C181.512 75.9173 178.619 62.9329 174.743 51.3761C169.009 34.1697 157.813 16.5373 138.996 12.465C128.146 10.1246 117.104 12.6335 107.799 18.5125C98.8542 24.1669 91.8846 31.4735 80.8801 32.8871C69.7539 34.3194 58.3376 33.7437 47.1552 33.7437C18.4014 33.7437 -4.93222 63.9486 0.900007 95.4127C6.73223 126.877 34.2364 148.694 57.5699 148.694C78.5397 148.694 95.793 136.117 115.71 132.737C125.586 131.061 135.505 133.046 145.278 130.537C156.638 127.616 167.32 120.656 173.615 110.578C177.903 103.707 179.99 96.1382 180.576 88.3541Z" fill="white"/>
<path d="M177.21 83.9869C177.21 83.9869 177.21 81.6465 173.934 78.4028C170.657 75.159 168.579 73.2773 168.579 73.2773C168.579 73.2773 166.95 78.6321 169.983 81.8946C172.21 84.186 174.624 86.2872 177.201 88.1762L177.21 83.9869ZM172.483 98.5253C172.483 98.5253 172.483 96.185 169.206 92.9412C165.929 89.6974 163.861 87.8158 163.861 87.8158C163.861 87.8158 162.227 93.1706 165.265 96.433C167.491 98.7244 169.906 100.826 172.483 102.715V98.5253Z" fill="#AD49EB"/>
<path d="M177.004 87.9515C177.004 87.9515 177.252 85.6393 180.838 82.7419C184.423 79.8445 186.703 78.2156 186.703 78.2156C186.703 78.2156 187.756 83.7108 184.404 86.6409C181.948 88.6848 179.326 90.5198 176.564 92.1268L177.004 87.9515ZM171.294 105.121C171.294 105.121 171.762 102.846 175.651 100.342C179.541 97.8373 181.956 96.4565 181.956 96.4565C181.956 96.4565 182.424 102.036 178.787 104.587C176.13 106.362 173.329 107.912 170.414 109.221L171.294 105.121ZM172.365 123.844C172.365 123.844 172.365 121.503 175.642 118.255C178.919 115.006 180.992 113.134 180.992 113.134C180.992 113.134 182.626 118.489 179.588 121.747C177.362 124.04 174.948 126.143 172.37 128.033L172.365 123.844Z" fill="#AD49EB"/>
<path d="M172.314 128.412C172.314 128.412 172.642 126.109 169.88 122.421C167.118 118.732 165.307 116.588 165.307 116.588C165.307 116.588 162.934 121.658 165.466 125.313C167.343 127.899 169.433 130.322 171.715 132.559L172.314 128.412ZM169.098 141.953C169.098 141.953 169.098 139.613 172.375 136.369C175.651 133.125 177.73 131.244 177.73 131.244C177.73 131.244 179.358 136.599 176.325 139.861C174.098 142.153 171.684 144.256 169.108 146.147L169.098 141.953ZM171.275 154.231C171.275 154.231 170.685 151.98 173.011 148.001C175.338 144.022 176.896 141.691 176.896 141.691C176.896 141.691 179.827 146.456 177.725 150.379C176.153 153.16 174.35 155.804 172.337 158.285L171.275 154.231Z" fill="#AD49EB"/>
<path d="M177.505 83.3924C177.341 85.8159 177.044 88.2286 176.616 90.6195C175.324 97.2755 172.103 101.572 170.816 107.583C169.529 113.593 173.227 121.339 172.22 129.063C171.214 136.786 168.228 141.078 169.084 146.232C169.941 151.385 174.453 165.343 174.453 165.343M176.976 89.5008L180.487 86.8047M177.14 86.3974L175.665 83.7809M171.013 107.306C171.013 107.306 173.952 105.102 176.976 102.897M172.482 102.715C172.482 102.715 170.03 97.9121 167.254 94.7292M172.482 127.157C174.159 124.059 176.278 121.22 178.773 118.732" stroke="#263238" stroke-width="0.468076" stroke-linecap="round" stroke-linejoin="round"/>
<path d="M171.911 130.425C171.019 128.323 169.953 126.3 168.724 124.377C167.011 121.845 166.763 121.517 166.763 121.517M169.098 146.231C169.845 144.387 170.73 142.601 171.748 140.891C172.766 139.301 173.913 137.798 175.179 136.397M172.337 158.284C172.167 156.52 172.471 154.743 173.217 153.136C174.444 150.767 175.829 147.664 176.4 146.437" stroke="#263238" stroke-width="0.468076" stroke-linecap="round" stroke-linejoin="round"/>
<path d="M150.614 115.091C150.614 115.091 150.361 113.63 152.051 111.229C153.741 108.828 154.859 107.438 154.859 107.438C154.859 107.438 156.46 110.62 154.916 112.989C153.768 114.669 152.483 116.25 151.073 117.716L150.614 115.091ZM155.159 123.694C155.159 123.694 154.906 122.233 156.596 119.832C158.286 117.431 159.405 116.041 159.405 116.041C159.405 116.041 161.005 119.224 159.461 121.597C158.313 123.275 157.027 124.854 155.618 126.32L155.159 123.694Z" fill="#AD49EB"/>
<path d="M151.171 117.553C151.171 117.553 150.768 116.148 148.203 114.702C145.638 113.256 144.038 112.497 144.038 112.497C144.038 112.497 143.972 116.059 146.378 117.529C148.139 118.543 149.982 119.409 151.887 120.118L151.171 117.553ZM156.619 127.7C156.619 127.7 156.067 126.324 153.371 125.173C150.675 124.021 148.99 123.422 148.99 123.422C148.99 123.422 149.299 126.97 151.864 128.178C153.723 129.001 155.647 129.668 157.616 130.172L156.619 127.7ZM157.977 139.557C157.977 139.557 157.729 138.096 155.328 136.407C152.926 134.717 151.414 133.776 151.414 133.776C151.414 133.776 150.974 137.31 153.226 139.023C154.871 140.221 156.613 141.278 158.436 142.183L157.977 139.557Z" fill="#AD49EB"/>
<path d="M158.51 142.417C158.51 142.417 158.042 141.012 159.386 138.391C160.729 135.77 161.618 134.239 161.618 134.239C161.618 134.239 163.655 137.16 162.466 139.73C161.57 141.554 160.522 143.3 159.334 144.949L158.51 142.417ZM162.601 154.189C162.601 154.189 162.77 152.719 165.068 150.912C167.366 149.105 168.813 148.062 168.813 148.062C168.813 148.062 169.454 151.568 167.306 153.407C165.732 154.695 164.054 155.849 162.288 156.857L162.601 154.189ZM161.988 150.556C161.988 150.556 161.735 149.096 159.339 147.406C156.942 145.717 155.435 144.776 155.435 144.776C155.435 144.776 154.995 148.31 157.247 150.028C158.893 151.223 160.635 152.28 162.456 153.187L161.988 150.556ZM161.988 158.495C161.988 158.495 162.11 157.016 160.219 154.774C158.328 152.532 157.102 151.24 157.102 151.24C157.102 151.24 155.777 154.544 157.523 156.777C158.803 158.35 160.212 159.812 161.735 161.149L161.988 158.495Z" fill="#AD49EB"/>
<path d="M150.366 114.744C150.732 116.247 151.181 117.728 151.709 119.181C153.24 123.216 155.725 125.561 157.186 129.189C158.646 132.816 157.186 138.082 158.627 142.815C160.069 147.547 162.456 149.915 162.456 153.239C162.456 156.562 161.164 165.806 161.164 165.806M151.363 118.517L148.868 117.211M150.923 116.588L151.56 114.791M157.031 129.039C157.031 129.039 154.948 127.977 152.819 126.919M155.613 126.32C156.227 124.391 157.035 122.529 158.024 120.764M158.267 141.644C156.878 139.887 155.242 138.34 153.408 137.053" stroke="#263238" stroke-width="0.468076" stroke-linecap="round" stroke-linejoin="round"/>
<path d="M158.979 143.629C159.312 142.217 159.761 140.834 160.322 139.496C161.122 137.722 161.258 137.488 161.258 137.488M162.344 155.762C163.156 154.756 164.055 153.824 165.031 152.977C165.652 152.519 166.234 152.012 166.772 151.46M162.456 153.239C161.788 152.16 161.038 151.134 160.214 150.168C159.403 149.282 158.52 148.465 157.574 147.725M161.735 161.149C161.652 160.024 161.269 158.941 160.626 158.013C159.601 156.66 158.393 154.863 157.902 154.156" stroke="#263238" stroke-width="0.468076" stroke-linecap="round" stroke-linejoin="round"/>
<path d="M17.6664 94.7012L15.6163 88.8456L17.6664 91.331L16.0563 82.5453L18.5464 88.8456L19.4264 76.5399L20.8915 88.2558L22.5017 85.9154V88.8456L24.4067 84.8903L23.3816 91.771L25.1369 90.6008L22.3566 94.4063L17.6664 94.7012Z" fill="#AD49EB"/>
<path d="M24.1118 93.236H16.4962L17.8677 108.612H22.7403L24.1118 93.236Z" fill="#263238" stroke="#263238" stroke-width="0.468076" stroke-linecap="round" stroke-linejoin="round"/>
<path d="M12.4521 108.439H38.3976V163.391H12.4521V108.439Z" fill="white" stroke="#263238" stroke-width="0.468076" stroke-linecap="round" stroke-linejoin="round"/>
<path d="M25.4224 108.439H39.8158V163.391H25.4224V108.439Z" fill="white" stroke="#263238" stroke-width="0.468076" stroke-linecap="round" stroke-linejoin="round"/>
<path d="M25.4224 108.439H38.1962V163.391H25.4224V108.439Z" fill="#263238" stroke="#263238" stroke-width="0.468076" stroke-linecap="round" stroke-linejoin="round"/>
<path d="M25.4224 150.613H36.7592V161.865H25.4224V150.613Z" fill="#AD49EB" stroke="#263238" stroke-width="0.468076" stroke-linecap="round" stroke-linejoin="round"/>
<path d="M25.4224 151.221H36.7592V152.663H25.4224V151.221ZM25.4224 159.506H36.7592V160.948H25.4224V159.506Z" fill="white" stroke="#263238" stroke-width="0.468076" stroke-linecap="round" stroke-linejoin="round"/>
<path d="M27.5709 150.847V165.076M31.5262 150.847V165.076M34.9993 150.847V165.076" stroke="#263238" stroke-width="0.468076" stroke-linecap="round" stroke-linejoin="round"/>
<path d="M25.4224 110.48H36.7592V127.027H25.4224V110.48Z" fill="#AD49EB" stroke="#263238" stroke-width="0.468076" stroke-linecap="round" stroke-linejoin="round"/>
<path d="M25.4224 111.173H36.7592V112.811H25.4224V111.173ZM25.4224 121.779H36.7592V123.417H25.4224V121.779Z" fill="white" stroke="#263238" stroke-width="0.468076" stroke-linecap="round" stroke-linejoin="round"/>
<path d="M27.5709 110.742V126.914M31.5262 110.742V126.914M34.9993 110.742V126.914" stroke="#263238" stroke-width="0.468076" stroke-linecap="round" stroke-linejoin="round"/>
<path d="M25.4224 130.42H36.7592V146.967H25.4224V130.42Z" fill="#AD49EB" stroke="#263238" stroke-width="0.468076" stroke-linecap="round" stroke-linejoin="round"/>
<path d="M25.4224 131.113H36.7592V132.751H25.4224V131.113ZM25.4224 141.719H36.7592V143.358H25.4224V141.719Z" fill="white" stroke="#263238" stroke-width="0.468076" stroke-linecap="round" stroke-linejoin="round"/>
<path d="M27.5709 130.687V146.854M31.5262 130.687V146.854M34.9993 130.687V146.854" stroke="#263238" stroke-width="0.468076" stroke-linecap="round" stroke-linejoin="round"/>
<path d="M25.4224 126.797H38.3928V128.679H25.4224V126.797ZM25.4224 146.863H38.3928V148.745H25.4224V146.863Z" fill="white" stroke="#263238" stroke-width="0.468076" stroke-linecap="round" stroke-linejoin="round"/>
<path d="M38.3928 108.439V163.386" stroke="#263238" stroke-width="0.468076" stroke-linecap="round" stroke-linejoin="round"/>
<path d="M23.5923 108.439V163.387H25.4225V110.48H38.1682V108.416L23.5923 108.439Z" fill="white" stroke="#263238" stroke-width="0.468076" stroke-linecap="round" stroke-linejoin="round"/>
<path d="M25.4224 110.48V108.439" stroke="#263238" stroke-width="0.468076" stroke-linecap="round" stroke-linejoin="round"/>
<path d="M38.2945 83.1957C36.9324 80.5698 36.3614 78.6882 36.3614 78.2529C36.3614 77.3916 38.2337 76.8767 38.2337 76.8767C41.1545 75.3321 54.8925 77.5648 61.0758 78.5946C64.5371 79.198 68.0387 79.5422 71.5513 79.6243C71.5513 79.6243 72.4079 78.9409 73.4236 78.0797C74.4393 77.2184 79.2605 71.5547 81.1516 71.0585C83.0426 70.5624 84.7557 71.7466 84.7557 71.7466C84.7557 71.7466 87.8497 73.6189 87.3302 73.9793C86.8106 74.3397 79.2605 80.846 77.3695 82.0489C75.4785 83.2519 71.5326 82.737 68.0969 83.4251C65.1387 84.0149 53.1559 84.7451 50.4083 84.9697C48.3449 85.4592 46.1792 85.2788 44.2251 84.4549" fill="white"/>
<mask id="mask0_1063_1432" style="mask-type:luminance" maskUnits="userSpaceOnUse" x="36" y="70" width="52" height="16">
<path d="M38.2945 83.1957C36.9324 80.5698 36.3614 78.6882 36.3614 78.2529C36.3614 77.3916 38.2337 76.8767 38.2337 76.8767C41.1545 75.3321 54.8925 77.5648 61.0758 78.5946C64.5371 79.198 68.0387 79.5422 71.5513 79.6243C71.5513 79.6243 72.4079 78.9409 73.4236 78.0797C74.4393 77.2184 79.2605 71.5547 81.1516 71.0585C83.0426 70.5624 84.7557 71.7466 84.7557 71.7466C84.7557 71.7466 87.8497 73.6189 87.3302 73.9793C86.8106 74.3397 79.2605 80.846 77.3695 82.0489C75.4785 83.2519 71.5326 82.737 68.0969 83.4251C65.1387 84.0149 53.1559 84.7451 50.4083 84.9697C48.3449 85.4592 46.1792 85.2788 44.2251 84.4549" fill="white"/>
</mask>
<g mask="url(#mask0_1063_1432)">
<path d="M84.7886 71.7278C84.7886 71.7278 83.0708 70.5249 81.1845 71.0398C79.2981 71.5547 74.4863 77.223 73.4565 78.0609C72.4268 78.8988 71.5842 79.6056 71.5842 79.6056C68.0716 79.5234 64.57 79.1792 61.1087 78.5758C54.9254 77.546 41.1874 75.2993 38.2666 76.8579C38.2666 76.8579 36.3943 77.3728 36.3943 78.2341C36.4593 78.7156 36.5835 79.1872 36.7641 79.6383L37.0215 79.7319C37.0215 79.7319 40.4525 79.3715 47.8575 79.5494C55.2624 79.7273 72.3893 80.743 73.4893 81.1408C73.9574 81.3187 77.276 80.5698 80.9551 79.2685C83.7636 76.9796 87.0635 74.1197 87.3958 73.9184C87.8826 73.6142 84.7886 71.7278 84.7886 71.7278Z" fill="#AD49EB"/>
<path opacity="0.5" d="M84.7886 71.7278C84.7886 71.7278 83.0708 70.5249 81.1845 71.0398C79.2981 71.5547 74.4863 77.223 73.4565 78.0609C72.4268 78.8988 71.5842 79.6056 71.5842 79.6056C68.0716 79.5234 64.57 79.1792 61.1087 78.5758C54.9254 77.546 41.1874 75.2993 38.2666 76.8579C38.2666 76.8579 36.3943 77.3728 36.3943 78.2341C36.4593 78.7156 36.5835 79.1872 36.7641 79.6383L37.0215 79.7319C37.0215 79.7319 40.4525 79.3715 47.8575 79.5494C55.2624 79.7273 72.3893 80.743 73.4893 81.1408C73.9574 81.3187 77.276 80.5698 80.9551 79.2685C83.7636 76.9796 87.0635 74.1197 87.3958 73.9184C87.8826 73.6142 84.7886 71.7278 84.7886 71.7278Z" fill="white"/>
</g>
<path d="M38.2945 83.1957C36.9324 80.5698 36.3614 78.6882 36.3614 78.2529C36.3614 77.3916 38.2337 76.8767 38.2337 76.8767C41.1545 75.3321 54.8925 77.5648 61.0758 78.5946C64.5371 79.198 68.0387 79.5422 71.5513 79.6243C71.5513 79.6243 72.4079 78.9409 73.4236 78.0797C74.4393 77.2184 79.2605 71.5547 81.1516 71.0585C83.0426 70.5624 84.7557 71.7466 84.7557 71.7466C84.7557 71.7466 87.8497 73.6189 87.3302 73.9793C86.8106 74.3397 79.2605 80.846 77.3695 82.0489C75.4785 83.2519 71.5326 82.737 68.0969 83.4251C65.1387 84.0149 53.1559 84.7451 50.4083 84.9697C48.3449 85.4592 46.1792 85.2788 44.2251 84.4549" stroke="#263238" stroke-width="0.468076" stroke-linecap="round" stroke-linejoin="round"/>
<path d="M106.123 98.4645C106.434 97.8748 106.9 97.3812 107.471 97.0372C108.042 96.6932 108.696 96.5118 109.362 96.5126H140.583C140.583 96.5126 142.839 96.5126 142.165 100.8C141.491 105.088 132.233 131.267 129.995 139.182C127.758 147.098 127.285 163.78 127.285 163.78H89.8389C89.8389 163.78 92.8065 123.886 106.123 98.4645Z" fill="white"/>
<mask id="mask1_1063_1432" style="mask-type:luminance" maskUnits="userSpaceOnUse" x="89" y="96" width="54" height="68">
<path d="M106.123 98.4645C106.434 97.8748 106.9 97.3812 107.471 97.0372C108.042 96.6932 108.696 96.5118 109.362 96.5126H140.583C140.583 96.5126 142.839 96.5126 142.165 100.8C141.491 105.088 132.233 131.267 129.995 139.182C127.758 147.098 127.285 163.78 127.285 163.78H89.8389C89.8389 163.78 92.8065 123.886 106.123 98.4645Z" fill="white"/>
</mask>
<g mask="url(#mask1_1063_1432)">
<path opacity="0.16" d="M120.185 96.5126H109.363C108.696 96.5118 108.042 96.6932 107.471 97.0372C106.9 97.3812 106.434 97.8748 106.124 98.4645C92.8068 123.886 89.8064 163.766 89.8064 163.766H106.601L110.743 148.034L128.015 151.596C128.137 150.276 128.278 148.932 128.441 147.608L128.062 143.395C128.062 143.395 124.524 139.674 123.41 138.742C122.296 137.811 123.035 136.131 122.848 128.871C122.661 121.611 116.145 116.392 113.72 111.922C111.296 107.452 115.026 104.657 118.378 100.187C119.571 98.5722 120.058 97.3833 120.185 96.5126Z" fill="black"/>
</g>
<path d="M106.123 98.4645C106.434 97.8748 106.9 97.3812 107.471 97.0372C108.042 96.6932 108.696 96.5118 109.362 96.5126H140.583C140.583 96.5126 142.839 96.5126 142.165 100.8C141.491 105.088 132.233 131.267 129.995 139.182C127.758 147.098 127.285 163.78 127.285 163.78H89.8389C89.8389 163.78 92.8065 123.886 106.123 98.4645Z" stroke="#263238" stroke-width="0.468076" stroke-linecap="round" stroke-linejoin="round"/>
<path d="M135.167 103.96C132.013 111.323 125.338 140.47 124.252 163.766H127.266C127.266 163.766 127.734 147.065 129.977 139.168C132.219 131.272 141.486 105.088 142.146 100.786C142.806 96.4845 140.564 96.4986 140.564 96.4986C140.564 96.4986 137.7 98.0573 135.167 103.96ZM80.3231 89.2434C80.3231 89.2434 75.3427 86.3226 73.4564 81.1738C71.57 76.0249 88.2242 67.7774 95.4559 67.2626C102.688 66.7477 104.729 68.634 109.03 76.0203C113.332 83.4065 116.243 93.5356 114.01 98.516C111.778 103.496 108 104.699 110.734 108.814C113.467 112.928 121.209 124.611 120.695 130.106C120.18 135.602 114.858 140.404 107.12 140.928C99.3831 141.453 89.0854 136.805 80.5009 129.226C71.9164 121.648 74.1445 110.503 77.2244 106.899C80.3043 103.295 84.9523 101.919 85.294 98.3147C85.6357 94.7105 80.3231 89.2434 80.3231 89.2434Z" fill="#263238" stroke="#263238" stroke-width="0.468076" stroke-linecap="round" stroke-linejoin="round"/>
<path d="M101.55 81.0942C104.195 86.0184 107.504 92.6135 108.539 96.5969C110.345 103.571 101.049 107.962 103.629 111.318M97.9461 74.6441C97.9461 74.6441 98.9759 76.3994 100.399 78.9832M111.82 87.0341C112.125 87.957 112.323 88.9119 112.41 89.88M99.7342 72.0838C99.7342 72.0838 107.869 78.0938 111.118 85.2882M88.4442 76.5913C82.6354 78.2202 74.2802 80.8649 74.9589 82.3908M93.813 75.159C93.813 75.159 92.5726 75.4679 90.7237 75.9641M86.628 72.1259C89.9554 71.0772 93.4403 70.6179 96.9257 70.7685M84.2596 73.0948C84.7857 72.8207 85.3299 72.583 85.8885 72.3833" stroke="white" stroke-width="0.468076" stroke-linecap="round" stroke-linejoin="round"/>
<path d="M38.2946 83.1958C37.5063 81.7521 36.8784 80.2264 36.4223 78.6461C36.8762 80.2272 37.5042 81.7531 38.2946 83.1958ZM36.3708 78.3793V78.4822C36.3802 78.4401 36.3755 78.4073 36.3708 78.3793ZM38.2946 83.1911C40.0452 86.5068 42.2232 89.5787 44.7728 92.3279C50.9561 99.0261 68.8178 116.546 70.5169 117.749C72.2161 118.952 71.7199 122.383 70.5169 125.819C69.314 129.254 64.8485 134.244 65.0217 139.73C65.1949 145.216 66.894 153.641 66.7396 155.359C66.5851 157.077 62.2882 162.918 62.2882 162.918H106.596C106.596 162.918 101.073 155.897 101.073 153.496C101.073 151.095 108.656 120.328 108.997 118.095C109.339 115.863 107.968 114.318 105.22 114.145C102.472 113.972 91.9969 111.739 91.4821 110.021C90.9672 108.303 94.2297 101.778 94.2297 101.778L83.932 102.293C83.932 102.293 83.4171 106.759 82.729 107.62C82.041 108.481 81.0112 106.759 78.6053 105.56C76.1994 104.362 71.5842 103.328 69.8476 101.952C68.111 100.575 51.6441 85.1008 51.6441 85.1008" fill="white"/>
<mask id="mask2_1063_1432" style="mask-type:luminance" maskUnits="userSpaceOnUse" x="36" y="78" width="74" height="85">
<path d="M38.2946 83.1958C37.5063 81.7521 36.8784 80.2264 36.4223 78.6461C36.8762 80.2272 37.5042 81.7531 38.2946 83.1958ZM36.3708 78.3793V78.4822C36.3802 78.4401 36.3755 78.4073 36.3708 78.3793ZM38.2946 83.1911C40.0452 86.5068 42.2232 89.5787 44.7728 92.3279C50.9561 99.0261 68.8178 116.546 70.5169 117.749C72.2161 118.952 71.7199 122.383 70.5169 125.819C69.314 129.254 64.8485 134.244 65.0217 139.73C65.1949 145.216 66.894 153.641 66.7396 155.359C66.5851 157.077 62.2882 162.918 62.2882 162.918H106.596C106.596 162.918 101.073 155.897 101.073 153.496C101.073 151.095 108.656 120.328 108.997 118.095C109.339 115.863 107.968 114.318 105.22 114.145C102.472 113.972 91.9969 111.739 91.4821 110.021C90.9672 108.303 94.2297 101.778 94.2297 101.778L83.932 102.293C83.932 102.293 83.4171 106.759 82.729 107.62C82.041 108.481 81.0112 106.759 78.6053 105.56C76.1994 104.362 71.5842 103.328 69.8476 101.952C68.111 100.575 51.6441 85.1008 51.6441 85.1008" fill="white"/>
</mask>
<g mask="url(#mask2_1063_1432)">
<path d="M72.4782 103.276C73.3347 104.774 74.1913 106.127 74.1913 106.127C74.1913 106.127 77.0793 107.751 77.8002 107.751C78.521 107.751 82.8554 110.091 82.8554 110.091C82.8554 110.091 86.4689 109.188 85.1958 106.117C84.7941 105.331 84.287 104.604 83.6886 103.955C83.4733 105.317 83.1269 107.1 82.7196 107.61C82.0316 108.467 81.0018 106.749 78.5959 105.551C77.0372 104.774 74.5143 104.062 72.4782 103.276ZM63.6596 96.3252C58.3563 91.4151 51.6441 85.1194 51.6441 85.1194L47.7404 84.5577L47.2723 84.8199C47.2723 84.8199 58.2908 94.5699 60.6358 95.6558C61.5845 96.0919 62.6155 96.3201 63.6596 96.3252ZM69.2157 101.408L68.7944 101.034C69.0097 101.39 69.1314 101.614 69.1314 101.614L69.2157 101.408Z" fill="#AD49EB"/>
<g opacity="0.5">
<path d="M72.4782 103.276C73.3347 104.774 74.1913 106.127 74.1913 106.127C74.1913 106.127 77.0793 107.751 77.8002 107.751C78.521 107.751 82.8554 110.091 82.8554 110.091C82.8554 110.091 86.4689 109.188 85.1958 106.117C84.7941 105.331 84.287 104.604 83.6886 103.955C83.4733 105.317 83.1269 107.1 82.7196 107.61C82.0316 108.467 81.0018 106.749 78.5959 105.551C77.0372 104.774 74.5143 104.062 72.4782 103.276ZM63.6596 96.3252C58.3563 91.4151 51.6441 85.1194 51.6441 85.1194L47.7404 84.5577L47.2723 84.8199C47.2723 84.8199 58.2908 94.5699 60.6358 95.6558C61.5845 96.0919 62.6155 96.3201 63.6596 96.3252ZM69.2157 101.408L68.7944 101.034C69.0097 101.39 69.1314 101.614 69.1314 101.614L69.2157 101.408Z" fill="white"/>
</g>
</g>
<path d="M36.3615 78.2529C36.3593 78.2856 36.3593 78.3184 36.3615 78.3512M36.4223 78.6461C36.8784 80.2264 37.5063 81.7521 38.2946 83.1958C37.5042 81.7531 36.8762 80.2272 36.4223 78.6461ZM36.4223 78.6461C36.4094 78.6016 36.4 78.5562 36.3942 78.5103M38.2946 83.1911C40.0452 86.5068 42.2232 89.5787 44.7728 92.3279C50.9561 99.0261 68.8178 116.546 70.5169 117.749C72.2161 118.952 71.7199 122.383 70.5169 125.819C69.314 129.254 64.8485 134.244 65.0217 139.73C65.1949 145.216 66.894 153.641 66.7396 155.359C66.5851 157.077 62.2882 162.918 62.2882 162.918H106.596C106.596 162.918 101.073 155.897 101.073 153.496C101.073 151.095 108.656 120.328 108.997 118.095C109.339 115.863 107.968 114.318 105.22 114.145C102.472 113.972 91.9969 111.739 91.4821 110.021C90.9672 108.303 94.2297 101.778 94.2297 101.778L83.932 102.293C83.932 102.293 83.4171 106.759 82.729 107.62C82.041 108.481 81.0112 106.759 78.6053 105.56C76.1994 104.362 71.5842 103.328 69.8476 101.952C68.111 100.575 51.6441 85.1008 51.6441 85.1008M51.6441 85.1195C51.6441 85.1195 46.1583 85.2225 43.0971 82.6996M36.3708 78.3793V78.4822C36.3802 78.4401 36.3755 78.4073 36.3708 78.3793Z" stroke="#263238" stroke-width="0.468076" stroke-linecap="round" stroke-linejoin="round"/>
<path d="M91.4866 110.021C90.9717 108.308 94.2342 101.778 94.2342 101.778L83.9365 102.293C83.9365 102.293 83.4217 106.759 82.7336 107.62C82.0455 108.481 81.0157 106.759 78.6098 105.56C78.4273 105.467 78.226 105.378 78.0201 105.289L77.3975 115.076C77.3975 115.076 78.3009 124.555 89.1322 122.753C93.5181 122.023 98.1988 118.11 102.238 113.71C98.0818 112.947 91.8798 111.337 91.4866 110.021Z" fill="white"/>
<mask id="mask3_1063_1432" style="mask-type:luminance" maskUnits="userSpaceOnUse" x="77" y="101" width="26" height="22">
<path d="M91.4866 110.021C90.9717 108.308 94.2342 101.778 94.2342 101.778L83.9365 102.293C83.9365 102.293 83.4217 106.759 82.7336 107.62C82.0455 108.481 81.0157 106.759 78.6098 105.56C78.4273 105.467 78.226 105.378 78.0201 105.289L77.3975 115.076C77.3975 115.076 78.3009 124.555 89.1322 122.753C93.5181 122.023 98.1988 118.11 102.238 113.71C98.0818 112.947 91.8798 111.337 91.4866 110.021Z" fill="white"/>
</mask>
<g mask="url(#mask3_1063_1432)">
<path d="M91.1963 103.075C91.1963 103.075 90.5737 106.567 90.0729 110.428C89.5721 114.29 89.2023 117.164 89.2023 117.164L91.4865 110.021L94.0609 102.452C94.0609 102.452 91.5707 102.452 91.1963 103.075Z" fill="#AD49EB"/>
<path opacity="0.5" d="M91.1963 103.075C91.1963 103.075 90.5737 106.567 90.0729 110.428C89.5721 114.29 89.2023 117.164 89.2023 117.164L91.4865 110.021L94.0609 102.452C94.0609 102.452 91.5707 102.452 91.1963 103.075Z" fill="white"/>
</g>
<path d="M91.4866 110.021C90.9717 108.308 94.2342 101.778 94.2342 101.778L83.9365 102.293C83.9365 102.293 83.4217 106.759 82.7336 107.62C82.0455 108.481 81.0157 106.759 78.6098 105.56C78.4273 105.467 78.226 105.378 78.0201 105.289L77.3975 115.076C77.3975 115.076 78.3009 124.555 89.1322 122.753C93.5181 122.023 98.1988 118.11 102.238 113.71C98.0818 112.947 91.8798 111.337 91.4866 110.021Z" stroke="#263238" stroke-width="0.468076" stroke-linecap="round" stroke-linejoin="round"/>
<path d="M82.7289 107.62C82.0408 108.477 81.0111 106.759 78.6051 105.561C77.0886 104.798 74.6733 104.105 72.6746 103.356C72.1083 102.012 71.3593 100.262 70.8772 99.204C70.0206 97.3317 68.6445 98.516 68.6445 98.516C67.9266 97.6994 67.3464 96.7714 66.9267 95.7684C66.0701 93.8961 64.6939 94.0505 62.8076 93.7088C60.9212 93.3671 56.966 89.7583 56.966 89.7583C56.966 89.7583 55.1171 88.354 54.3541 87.6566C53.4648 89.4072 51.3351 92.4872 46.7292 94.411C54.0733 102.083 68.9721 116.659 70.5355 117.754C72.2534 118.952 71.7385 122.388 70.5355 125.824C69.3326 129.259 64.8671 134.249 65.0403 139.735C65.2135 145.221 66.9126 153.646 66.7582 155.364C66.6037 156.894 63.1774 161.692 62.4331 162.722L64.179 162.919H73.2691C73.2176 158.313 73.2223 139.515 76.3724 132.026C79.9813 123.418 82.7289 107.62 82.7289 107.62Z" fill="#AD49EB"/>
<mask id="mask4_1063_1432" style="mask-type:luminance" maskUnits="userSpaceOnUse" x="46" y="87" width="37" height="76">
<path d="M82.7289 107.62C82.0408 108.477 81.0111 106.759 78.6051 105.561C77.0886 104.798 74.6733 104.105 72.6746 103.356C72.1083 102.012 71.3593 100.262 70.8772 99.204C70.0206 97.3317 68.6445 98.516 68.6445 98.516C67.9266 97.6994 67.3464 96.7714 66.9267 95.7684C66.0701 93.8961 64.6939 94.0505 62.8076 93.7088C60.9212 93.3671 56.966 89.7583 56.966 89.7583C56.966 89.7583 55.1171 88.354 54.3541 87.6566C53.4648 89.4072 51.3351 92.4872 46.7292 94.411C54.0733 102.083 68.9721 116.659 70.5355 117.754C72.2534 118.952 71.7385 122.388 70.5355 125.824C69.3326 129.259 64.8671 134.249 65.0403 139.735C65.2135 145.221 66.9126 153.646 66.7582 155.364C66.6037 156.894 63.1774 161.692 62.4331 162.722L64.179 162.919H73.2691C73.2176 158.313 73.2223 139.515 76.3724 132.026C79.9813 123.418 82.7289 107.62 82.7289 107.62Z" fill="white"/>
</mask>
<g mask="url(#mask4_1063_1432)">
<path opacity="0.16" d="M78.6051 105.561C77.0886 104.798 74.6733 104.105 72.6746 103.356C72.1083 102.013 71.3593 100.262 70.8772 99.2041C70.0206 97.3317 68.6445 98.516 68.6445 98.516C67.9266 97.6994 67.3463 96.7714 66.9267 95.7684C66.0701 93.8961 64.6939 94.0505 62.8076 93.7088C60.9212 93.3672 56.966 89.7583 56.966 89.7583C56.966 89.7583 55.1171 88.354 54.3541 87.6566C53.9734 88.3999 53.5203 89.1039 53.0014 89.7583C56.072 92.3561 59.4608 95.1084 60.6451 95.656C62.9855 96.7373 63.5331 95.8339 65.3258 96.9198C67.1186 98.0058 69.1172 101.601 69.1172 101.601C69.1172 101.601 70.2032 98.7079 71.1066 100.697C72.01 102.687 74.1771 106.113 74.1771 106.113C74.1771 106.113 77.0652 107.737 77.786 107.737C78.3524 107.737 81.1281 109.179 82.3076 109.801C82.5697 108.43 82.7148 107.606 82.7148 107.606C82.0408 108.477 81.011 106.759 78.6051 105.561Z" fill="black"/>
</g>
<path d="M82.7289 107.62C82.0408 108.477 81.0111 106.759 78.6051 105.561C77.0886 104.798 74.6733 104.105 72.6746 103.356C72.1083 102.012 71.3593 100.262 70.8772 99.204C70.0206 97.3317 68.6445 98.516 68.6445 98.516C67.9266 97.6994 67.3464 96.7714 66.9267 95.7684C66.0701 93.8961 64.6939 94.0505 62.8076 93.7088C60.9212 93.3671 56.966 89.7583 56.966 89.7583C56.966 89.7583 55.1171 88.354 54.3541 87.6566C53.4648 89.4072 51.3351 92.4872 46.7292 94.411C54.0733 102.083 68.9721 116.659 70.5355 117.754C72.2534 118.952 71.7385 122.388 70.5355 125.824C69.3326 129.259 64.8671 134.249 65.0403 139.735C65.2135 145.221 66.9126 153.646 66.7581 155.364C66.6037 156.894 63.1774 161.692 62.4331 162.722L64.179 162.919H73.2691C73.2176 158.313 73.2223 139.515 76.3724 132.026C79.9813 123.418 82.7289 107.62 82.7289 107.62Z" stroke="#263238" stroke-width="0.468076" stroke-linecap="round" stroke-linejoin="round"/>
<path d="M82.8507 107.021C82.8507 107.021 80.7163 106.366 79.401 107.517C78.0857 108.669 76.1245 114.576 74.9683 120.984C74.2558 124.714 74.7475 128.574 76.3726 132.007C76.3726 132.007 79.0734 124.925 79.8925 121.475C80.7116 118.025 82.8507 107.021 82.8507 107.021Z" fill="#AD49EB"/>
<mask id="mask5_1063_1432" style="mask-type:luminance" maskUnits="userSpaceOnUse" x="74" y="106" width="9" height="27">
<path d="M82.8507 107.021C82.8507 107.021 80.7163 106.366 79.401 107.517C78.0857 108.669 76.1245 114.576 74.9683 120.984C74.2558 124.714 74.7475 128.574 76.3726 132.007C76.3726 132.007 79.0734 124.925 79.8925 121.475C80.7116 118.025 82.8507 107.021 82.8507 107.021Z" fill="white"/>
</mask>
<g mask="url(#mask5_1063_1432)">
<path opacity="0.16" d="M78.7552 108.065C78.7552 108.065 80.2998 107.69 80.9364 107.906C81.4725 108.135 81.9735 108.44 82.4249 108.809L82.8509 107.021C82.2119 106.694 81.4872 106.575 80.7773 106.679C79.7147 106.895 78.7552 108.065 78.7552 108.065Z" fill="black"/>
</g>
<path d="M68.476 107.583L71.2236 118.746L65.0403 104.662M82.8506 107.021C82.8506 107.021 80.7162 106.366 79.4009 107.517C78.0856 108.669 76.1244 114.576 74.9682 120.984C74.2556 124.714 74.7474 128.574 76.3725 132.007C76.3725 132.007 79.0733 124.925 79.8924 121.475C80.7115 118.025 82.8506 107.021 82.8506 107.021Z" stroke="#263238" stroke-width="0.468076" stroke-linecap="round" stroke-linejoin="round"/>
<path d="M86.5766 162.919H106.601C106.601 162.919 101.078 155.897 101.078 153.496C101.078 151.095 108.66 120.328 109.002 118.096C109.344 115.863 107.972 114.318 105.225 114.145C102.477 113.972 92.0016 111.739 91.4867 110.021C91.4867 110.021 87.5361 123.933 86.1647 133.378C84.9851 141.481 86.2068 158.294 86.5766 162.919Z" fill="#AD49EB"/>
<mask id="mask6_1063_1432" style="mask-type:luminance" maskUnits="userSpaceOnUse" x="85" y="110" width="25" height="53">
<path d="M86.5766 162.919H106.601C106.601 162.919 101.078 155.897 101.078 153.496C101.078 151.095 108.66 120.328 109.002 118.096C109.344 115.863 107.972 114.318 105.225 114.145C102.477 113.972 92.0016 111.739 91.4867 110.021C91.4867 110.021 87.5361 123.933 86.1647 133.378C84.9851 141.481 86.2068 158.294 86.5766 162.919Z" fill="white"/>
</mask>
<g mask="url(#mask6_1063_1432)">
<path opacity="0.16" d="M105.225 114.145C102.973 114.005 95.5356 112.479 92.6382 110.99L93.6914 113.424C95.5996 114.437 97.6518 115.15 99.7764 115.54C103.264 116.162 106.507 116.041 108.628 119.158L108.731 119.313C108.862 118.713 108.951 118.292 108.979 118.096C109.349 115.863 107.972 114.318 105.225 114.145Z" fill="black"/>
</g>
<path d="M86.5766 162.919H106.601C106.601 162.919 101.078 155.897 101.078 153.496C101.078 151.095 108.66 120.328 109.002 118.096C109.344 115.863 107.972 114.318 105.225 114.145C102.477 113.972 92.0016 111.739 91.4867 110.021C91.4867 110.021 87.5361 123.933 86.1647 133.378C84.9851 141.481 86.2068 158.294 86.5766 162.919Z" stroke="#263238" stroke-width="0.468076" stroke-linecap="round" stroke-linejoin="round"/>
<path d="M91.4866 110.021C91.4866 110.021 86.188 126.872 86.1646 133.378C86.1646 133.378 93.6913 124.265 94.6742 117.862C95.6572 111.458 91.4866 110.021 91.4866 110.021Z" fill="#AD49EB"/>
<mask id="mask7_1063_1432" style="mask-type:luminance" maskUnits="userSpaceOnUse" x="86" y="110" width="9" height="24">
<path d="M91.4866 110.021C91.4866 110.021 86.188 126.872 86.1646 133.378C86.1646 133.378 93.6913 124.265 94.6742 117.862C95.6572 111.458 91.4866 110.021 91.4866 110.021Z" fill="white"/>
</mask>
<g mask="url(#mask7_1063_1432)">
<path opacity="0.16" d="M90.5739 112.174C91.37 112.148 92.1607 112.315 92.8776 112.663C93.5944 113.01 94.2159 113.527 94.6882 114.168C94.6882 114.168 93.6491 111.112 91.4866 110.021L90.5739 112.174Z" fill="black"/>
</g>
<path d="M91.4866 110.021C91.4866 110.021 86.188 126.872 86.1646 133.378C86.1646 133.378 93.6913 124.265 94.6742 117.862C95.6572 111.458 91.4866 110.021 91.4866 110.021Z" stroke="#263238" stroke-width="0.468076" stroke-linecap="round" stroke-linejoin="round"/>
<path d="M148.054 159.749C148.054 159.749 151.934 159.909 154.476 160.274C156.171 160.503 157.877 160.639 159.587 160.681C159.587 160.681 158.183 157.844 156.685 157.044C155.187 156.244 152.472 154.811 150.197 155.13C147.923 155.448 144.669 157.741 144.941 158.472C145.212 159.202 146.425 159.529 148.054 159.749Z" fill="white"/>
<mask id="mask8_1063_1432" style="mask-type:luminance" maskUnits="userSpaceOnUse" x="144" y="155" width="16" height="6">
<path d="M148.054 159.749C148.054 159.749 151.934 159.909 154.476 160.274C156.171 160.503 157.877 160.639 159.587 160.681C159.587 160.681 158.183 157.844 156.685 157.044C155.187 156.244 152.472 154.811 150.197 155.13C147.923 155.448 144.669 157.741 144.941 158.472C145.212 159.202 146.425 159.529 148.054 159.749Z" fill="white"/>
</mask>
<g mask="url(#mask8_1063_1432)">
<path d="M148.054 159.749C148.054 159.749 151.934 159.909 154.476 160.274C156.171 160.503 157.877 160.639 159.587 160.681C159.587 160.681 158.183 157.844 156.685 157.044C155.187 156.244 152.472 154.811 150.197 155.13C147.923 155.448 144.669 157.741 144.941 158.472C145.212 159.202 146.425 159.529 148.054 159.749Z" fill="#AD49EB"/>
<path opacity="0.5" d="M148.054 159.749C148.054 159.749 151.934 159.909 154.476 160.274C156.171 160.503 157.877 160.639 159.587 160.681C159.587 160.681 158.183 157.844 156.685 157.044C155.187 156.244 152.472 154.811 150.197 155.13C147.923 155.448 144.669 157.741 144.941 158.472C145.212 159.202 146.425 159.529 148.054 159.749Z" fill="white"/>
</g>
<path d="M148.054 159.749C148.054 159.749 151.934 159.909 154.476 160.274C156.171 160.503 157.877 160.639 159.587 160.681C159.587 160.681 158.183 157.844 156.685 157.044C155.187 156.244 152.472 154.811 150.197 155.13C147.923 155.448 144.669 157.741 144.941 158.472C145.212 159.202 146.425 159.529 148.054 159.749Z" stroke="#263238" stroke-width="0.468076" stroke-linecap="round" stroke-linejoin="round"/>
<path d="M154.499 158.589C154.499 158.589 157.574 156.993 158.342 157.016C159.11 157.039 164.212 160.489 163.959 161.042C163.787 161.298 163.539 161.493 163.25 161.601C162.961 161.708 162.646 161.722 162.349 161.641C161.782 161.374 158.347 159.913 158.347 159.913L156.1 160.442L154.499 158.589Z" fill="white"/>
<mask id="mask9_1063_1432" style="mask-type:luminance" maskUnits="userSpaceOnUse" x="154" y="157" width="10" height="5">
<path d="M154.499 158.589C154.499 158.589 157.574 156.993 158.342 157.016C159.11 157.039 164.212 160.489 163.959 161.042C163.787 161.298 163.539 161.493 163.25 161.601C162.961 161.708 162.646 161.722 162.349 161.641C161.782 161.374 158.347 159.913 158.347 159.913L156.1 160.442L154.499 158.589Z" fill="white"/>
</mask>
<g mask="url(#mask9_1063_1432)">
<path d="M154.499 158.589C154.499 158.589 157.574 156.993 158.342 157.016C159.11 157.039 164.212 160.489 163.959 161.042C163.706 161.594 162.498 162.043 162.349 161.641C162.199 161.238 158.347 159.913 158.347 159.913L156.1 160.442L154.499 158.589Z" fill="#AD49EB"/>
<path opacity="0.5" d="M154.499 158.589C154.499 158.589 157.574 156.993 158.342 157.016C159.11 157.039 164.212 160.489 163.959 161.042C163.706 161.594 162.498 162.043 162.349 161.641C162.199 161.238 158.347 159.913 158.347 159.913L156.1 160.442L154.499 158.589Z" fill="white"/>
</g>
<path d="M154.499 158.589C154.499 158.589 157.574 156.993 158.342 157.016C159.11 157.039 164.212 160.489 163.959 161.042C163.787 161.298 163.539 161.493 163.25 161.601C162.961 161.708 162.646 161.722 162.349 161.641C161.782 161.374 158.347 159.913 158.347 159.913L156.1 160.442L154.499 158.589Z" stroke="#263238" stroke-width="0.468076" stroke-linecap="round" stroke-linejoin="round"/>
<path d="M152.304 155.963C152.304 155.963 156.404 155.832 157.219 156.244C158.033 156.656 161.712 162.965 161.16 163.424C160.607 163.883 159.082 163.747 159.128 163.237C159.175 162.727 155.739 159.347 155.739 159.347L153.067 158.762L152.304 155.963Z" fill="white"/>
<mask id="mask10_1063_1432" style="mask-type:luminance" maskUnits="userSpaceOnUse" x="152" y="155" width="10" height="9">
<path d="M152.304 155.963C152.304 155.963 156.404 155.832 157.219 156.244C158.033 156.656 161.712 162.965 161.16 163.424C160.607 163.883 159.082 163.747 159.128 163.237C159.175 162.727 155.739 159.347 155.739 159.347L153.067 158.762L152.304 155.963Z" fill="white"/>
</mask>
<g mask="url(#mask10_1063_1432)">
<path d="M152.304 155.963C152.304 155.963 156.404 155.832 157.219 156.244C158.033 156.656 161.712 162.965 161.16 163.424C160.607 163.883 159.082 163.747 159.128 163.237C159.175 162.727 155.739 159.347 155.739 159.347L153.067 158.762L152.304 155.963Z" fill="#AD49EB"/>
<path opacity="0.5" d="M152.304 155.963C152.304 155.963 156.404 155.832 157.219 156.244C158.033 156.656 161.712 162.965 161.16 163.424C160.607 163.883 159.082 163.747 159.128 163.237C159.175 162.727 155.739 159.347 155.739 159.347L153.067 158.762L152.304 155.963Z" fill="white"/>
</g>
<path d="M152.304 155.963C152.304 155.963 156.404 155.832 157.219 156.244C158.033 156.656 161.712 162.965 161.16 163.424C160.607 163.883 159.082 163.747 159.128 163.237C159.175 162.727 155.739 159.347 155.739 159.347L153.067 158.762L152.304 155.963Z" stroke="#263238" stroke-width="0.468076" stroke-linecap="round" stroke-linejoin="round"/>
<path d="M149.874 155.116C149.874 155.116 154.026 154.98 154.85 155.401C155.674 155.822 159.4 162.202 158.838 162.67C158.276 163.138 156.741 162.993 156.788 162.478C156.835 161.964 153.357 158.542 153.357 158.542L150.651 157.947L149.874 155.116Z" fill="white"/>
<mask id="mask11_1063_1432" style="mask-type:luminance" maskUnits="userSpaceOnUse" x="149" y="155" width="10" height="8">
<path d="M149.874 155.116C149.874 155.116 154.026 154.98 154.85 155.401C155.674 155.822 159.4 162.202 158.838 162.67C158.276 163.138 156.741 162.993 156.788 162.478C156.835 161.964 153.357 158.542 153.357 158.542L150.651 157.947L149.874 155.116Z" fill="white"/>
</mask>
<g mask="url(#mask11_1063_1432)">
<path d="M149.874 155.116C149.874 155.116 154.026 154.98 154.85 155.401C155.674 155.822 159.4 162.202 158.838 162.67C158.276 163.138 156.741 162.993 156.788 162.478C156.835 161.964 153.357 158.542 153.357 158.542L150.651 157.947L149.874 155.116Z" fill="#AD49EB"/>
<path opacity="0.5" d="M149.874 155.116C149.874 155.116 154.026 154.98 154.85 155.401C155.674 155.822 159.4 162.202 158.838 162.67C158.276 163.138 156.741 162.993 156.788 162.478C156.835 161.964 153.357 158.542 153.357 158.542L150.651 157.947L149.874 155.116Z" fill="white"/>
</g>
<path d="M149.874 155.116C149.874 155.116 154.026 154.98 154.85 155.401C155.674 155.822 159.4 162.202 158.838 162.67C158.276 163.138 156.741 162.993 156.788 162.478C156.835 161.964 153.357 158.542 153.357 158.542L150.651 157.947L149.874 155.116Z" stroke="#263238" stroke-width="0.468076" stroke-linecap="round" stroke-linejoin="round"/>
<path d="M102.669 131.328C105.674 135.957 111.707 147.687 113.467 149.007C116.215 151.067 134.582 156.066 136.352 157.433C138.121 158.799 137.999 160.171 139.675 160.672C141.351 161.173 147.632 162.609 150.029 162.834C152.425 163.059 151.353 161.575 151.353 161.575L147.267 158.767L150.829 157.887C150.829 157.887 154.401 162.184 155.07 162.418C155.739 162.652 156.919 162.418 156.844 161.889C156.713 161.041 152.903 154.109 151.55 153.814C150.197 153.519 141.987 154.657 141.987 154.657C141.987 154.657 124.767 143.044 124.458 142.632C124.458 142.632 123.428 139.711 122.586 138.508C121.743 137.305 121.209 137.652 121.209 137.652C121.209 137.652 121.556 136.102 121.041 135.587L118.293 132.84L118.195 132.971C117.727 132.035 117.259 130.968 116.744 129.751C115.307 126.366 110.219 116.869 109.362 115.498C108.721 114.473 103.348 113.738 100.623 113.429" fill="#AD49EB"/>
<mask id="mask12_1063_1432" style="mask-type:luminance" maskUnits="userSpaceOnUse" x="100" y="113" width="57" height="50">
<path d="M102.669 131.328C105.674 135.957 111.707 147.687 113.467 149.007C116.215 151.067 134.582 156.066 136.352 157.433C138.121 158.799 137.999 160.171 139.675 160.672C141.351 161.173 147.632 162.609 150.029 162.834C152.425 163.059 151.353 161.575 151.353 161.575L147.267 158.767L150.829 157.887C150.829 157.887 154.401 162.184 155.07 162.418C155.739 162.652 156.919 162.418 156.844 161.889C156.713 161.041 152.903 154.109 151.55 153.814C150.197 153.519 141.987 154.657 141.987 154.657C141.987 154.657 124.767 143.044 124.458 142.632C124.458 142.632 123.428 139.711 122.586 138.508C121.743 137.305 121.209 137.652 121.209 137.652C121.209 137.652 121.556 136.102 121.041 135.587L118.293 132.84L118.195 132.971C117.727 132.035 117.259 130.968 116.744 129.751C115.307 126.366 110.219 116.869 109.362 115.498C108.721 114.473 103.348 113.738 100.623 113.429" fill="white"/>
</mask>
<g mask="url(#mask12_1063_1432)">
<path opacity="0.16" d="M114.633 131.623C116.88 133.617 116.131 133.617 115.63 135.368C115.129 137.118 116.005 134.745 118.125 134.872C120.245 134.998 119.623 137.736 119.37 138.237C119.117 138.738 121.991 139.36 121.491 140.479C120.99 141.598 118.125 143.222 116.506 144.846C114.886 146.47 120.742 142.225 122.736 142.103C123.344 142.061 123.845 142.141 124.266 142.131C123.824 140.879 123.257 139.675 122.572 138.537C121.711 137.334 121.196 137.68 121.196 137.68C121.196 137.68 121.542 136.131 121.027 135.616L118.28 132.868L118.181 132.999C117.713 132.063 117.245 130.996 116.73 129.779C115.293 126.395 110.205 116.897 109.349 115.526C108.707 114.501 103.334 113.766 100.61 113.457L100.858 115.624L100.919 115.671C100.919 115.671 104.284 116.294 105.407 116.42C106.531 116.546 107.902 117.539 107.776 118.292C107.65 119.046 104.41 122.407 105.407 122.659C106.404 122.912 107.528 120.165 108.651 120.539C109.775 120.914 112.372 129.629 114.633 131.623Z" fill="black"/>
</g>
<path d="M102.669 131.328C105.674 135.957 111.707 147.687 113.467 149.007C116.215 151.067 134.582 156.066 136.352 157.433C138.121 158.799 137.999 160.171 139.675 160.672C141.351 161.173 147.632 162.609 150.029 162.834C152.425 163.059 151.353 161.575 151.353 161.575L147.267 158.767L150.829 157.887C150.829 157.887 154.401 162.184 155.07 162.418C155.739 162.652 156.919 162.418 156.844 161.889C156.713 161.041 152.903 154.109 151.55 153.814C150.197 153.519 141.987 154.657 141.987 154.657C141.987 154.657 124.767 143.044 124.458 142.632C124.458 142.632 123.428 139.711 122.586 138.508C121.743 137.305 121.209 137.652 121.209 137.652C121.209 137.652 121.556 136.102 121.041 135.587L118.293 132.84L118.195 132.971C117.727 132.035 117.259 130.968 116.744 129.751C115.307 126.366 110.219 116.869 109.362 115.498C108.721 114.473 103.348 113.738 100.623 113.429M102.716 124.976C102.589 125.397 102.482 125.819 102.397 126.249M107.265 117.23C105.795 118.906 104.554 120.771 103.577 122.776M114.141 143.807C115.405 141.935 117.418 139.561 119.637 138.883M112.742 146.11C112.742 146.11 112.967 145.67 113.369 145.005" stroke="#263238" stroke-width="0.468076" stroke-linecap="round" stroke-linejoin="round"/>
<path d="M112.742 143.152C112.742 143.152 115.04 137.404 117.338 135.925C119.637 134.445 118.321 137.404 118.321 137.404" stroke="#263238" stroke-width="0.468076" stroke-linecap="round" stroke-linejoin="round"/>
<path d="M136.352 157.437C138.126 158.809 137.999 160.175 139.675 160.676C141.351 161.177 147.632 162.614 150.029 162.839C152.425 163.064 151.353 161.58 151.353 161.58L147.267 158.771L150.829 157.891C150.829 157.891 154.401 162.188 155.07 162.422C155.739 162.656 157.012 162.741 156.844 161.893C156.516 160.255 152.903 154.114 151.55 153.819C150.197 153.524 141.987 154.662 141.987 154.662C141.987 154.662 126.302 143.896 124.584 142.73C117.923 143.372 114.755 146.859 113.421 148.951L113.467 148.988C116.215 151.067 134.582 156.066 136.352 157.437Z" fill="white"/>
<mask id="mask13_1063_1432" style="mask-type:luminance" maskUnits="userSpaceOnUse" x="113" y="142" width="44" height="21">
<path d="M136.352 157.437C138.126 158.809 137.999 160.175 139.675 160.676C141.351 161.177 147.632 162.614 150.029 162.839C152.425 163.064 151.353 161.58 151.353 161.58L147.267 158.771L150.829 157.891C150.829 157.891 154.401 162.188 155.07 162.422C155.739 162.656 157.012 162.741 156.844 161.893C156.516 160.255 152.903 154.114 151.55 153.819C150.197 153.524 141.987 154.662 141.987 154.662C141.987 154.662 126.302 143.896 124.584 142.73C117.923 143.372 114.755 146.859 113.421 148.951L113.467 148.988C116.215 151.067 134.582 156.066 136.352 157.437Z" fill="white"/>
</mask>
<g mask="url(#mask13_1063_1432)">
<path d="M156.839 161.912C155.987 159.829 152.898 154.133 151.545 153.838C150.193 153.543 141.983 154.68 141.983 154.68C141.983 154.68 126.297 143.915 124.579 142.749C122.831 142.901 121.116 143.316 119.492 143.98C121.968 145.384 138.472 154.746 140.555 155.162C142.764 155.631 150.136 154.418 151.433 155.289C152.257 155.841 154.71 159.731 156.367 162.493C156.839 162.422 157.012 162.333 156.839 161.912Z" fill="#AD49EB"/>
<path opacity="0.5" d="M156.839 161.912C155.51 158.93 152.898 154.133 151.545 153.838C150.193 153.543 141.983 154.68 141.983 154.68C141.983 154.68 126.297 143.915 124.579 142.749C122.831 142.901 121.116 143.316 119.492 143.98C121.968 145.384 138.472 154.746 140.555 155.162C142.764 155.631 150.136 154.418 151.433 155.289C152.257 155.841 154.71 159.731 156.367 162.493C156.839 162.422 157.027 162.329 156.839 161.912Z" fill="white"/>
</g>
<path d="M136.352 157.437C138.126 158.809 137.999 160.175 139.675 160.676C141.351 161.177 147.632 162.614 150.029 162.839C152.425 163.064 151.353 161.58 151.353 161.58L147.267 158.771L150.829 157.891C150.829 157.891 154.401 162.188 155.07 162.422C155.739 162.656 157.012 162.741 156.844 161.893C156.516 160.255 152.903 154.114 151.55 153.819C150.197 153.524 141.987 154.662 141.987 154.662C141.987 154.662 126.302 143.896 124.584 142.73C117.923 143.372 114.755 146.859 113.421 148.951L113.467 148.988C116.215 151.067 134.582 156.066 136.352 157.437Z" stroke="#263238" stroke-width="0.468076" stroke-linecap="round" stroke-linejoin="round"/>
<path d="M94.983 75.702L80.8846 81.5857C80.7137 84.0635 80.1002 86.4906 79.0731 88.7519C77.4068 92.2765 78.3804 98.9466 79.9812 102.546C81.582 106.146 88.6359 104.737 91.215 104.287C92.9642 103.955 94.6775 103.455 96.3311 102.794C97.084 103.084 97.8984 103.178 98.6976 103.067C99.4968 102.955 100.255 102.643 100.899 102.158C100.899 102.158 93.3541 80.9772 94.983 75.702Z" fill="white"/>
<mask id="mask14_1063_1432" style="mask-type:luminance" maskUnits="userSpaceOnUse" x="78" y="75" width="23" height="30">
<path d="M94.983 75.702L80.8846 81.5857C80.7137 84.0635 80.1002 86.4906 79.0731 88.7519C77.4068 92.2765 78.3804 98.9466 79.9812 102.546C81.582 106.146 88.6359 104.737 91.215 104.287C92.9642 103.955 94.6775 103.455 96.3311 102.794C97.084 103.084 97.8984 103.178 98.6976 103.067C99.4968 102.955 100.255 102.643 100.899 102.158C100.899 102.158 93.3541 80.9772 94.983 75.702Z" fill="white"/>
</mask>
<g mask="url(#mask14_1063_1432)">
<path d="M94.983 75.702L80.8846 81.5857C80.7137 84.0635 80.1002 86.4906 79.0731 88.7519C77.4068 92.2765 78.3804 98.9466 79.9812 102.546C80.2492 103.125 80.6802 103.613 81.2216 103.95V103.679C81.2216 103.679 78.605 97.196 79.1012 93.4561C79.5974 89.7162 81.7224 87.8392 81.9705 85.4754C82.2186 83.1116 82.0922 81.9882 86.8338 80.2423C91.5754 78.4964 93.5647 76.8768 94.0609 78.6181C94.5571 80.3593 96.5557 91.8365 97.9272 94.5795C99.2987 97.3224 99.1723 100.196 97.0566 101.437C94.9183 102.72 92.627 103.73 90.2367 104.442L91.2337 104.269C92.983 103.936 94.6962 103.436 96.3498 102.775C97.1027 103.066 97.9171 103.159 98.7163 103.048C99.5156 102.937 100.273 102.624 100.918 102.139C100.918 102.139 93.3541 80.9772 94.983 75.702Z" fill="#AD49EB"/>
<path opacity="0.5" d="M94.983 75.702L80.8846 81.5857C80.7137 84.0635 80.1002 86.4906 79.0731 88.7519C77.4068 92.2765 78.3804 98.9466 79.9812 102.546C80.2492 103.125 80.6802 103.613 81.2216 103.95V103.679C81.2216 103.679 78.605 97.196 79.1012 93.4561C79.5974 89.7162 81.7224 87.8392 81.9705 85.4754C82.2186 83.1116 82.0922 81.9882 86.8338 80.2423C91.5754 78.4964 93.5647 76.8768 94.0609 78.6181C94.5571 80.3593 96.5557 91.8365 97.9272 94.5795C99.2987 97.3224 99.1723 100.196 97.0566 101.437C94.9183 102.72 92.627 103.73 90.2367 104.442L91.2337 104.269C92.983 103.936 94.6962 103.436 96.3498 102.775C97.1027 103.066 97.9171 103.159 98.7163 103.048C99.5156 102.937 100.273 102.624 100.918 102.139C100.918 102.139 93.3541 80.9772 94.983 75.702Z" fill="white"/>
</g>
<path d="M94.983 75.702L80.8846 81.5857C80.7137 84.0635 80.1002 86.4906 79.0731 88.7519C77.4068 92.2765 78.3804 98.9466 79.9812 102.546C81.582 106.146 88.6359 104.737 91.215 104.287C92.9642 103.955 94.6775 103.455 96.3311 102.794C97.084 103.084 97.8984 103.178 98.6976 103.067C99.4968 102.955 100.255 102.643 100.899 102.158C100.899 102.158 93.3541 80.9772 94.983 75.702Z" stroke="#263238" stroke-width="0.468076" stroke-linecap="round" stroke-linejoin="round"/>
<path d="M87.8591 84.9276C87.8973 85.7565 87.7944 86.5859 87.5548 87.3803C87.1804 88.3165 83.6464 91.9956 83.7541 92.3934C83.8617 92.7913 84.18 94.0691 84.8072 94.1908M91.7769 88.2182C92.2684 87.2352 93.8832 88.1948 93.8598 90.4088M83.7728 85.3255C83.7728 85.3255 85.1489 84.7217 86.38 86.9497" stroke="#263238" stroke-width="0.468076" stroke-linecap="round" stroke-linejoin="round"/>
<path d="M89.8204 91.4619C91.4105 91.5419 92.9225 92.1762 94.0939 93.2546M82.1111 88.5364C82.9333 88.6462 83.7365 88.8683 84.4983 89.1964" stroke="#263238" stroke-width="0.234038" stroke-linecap="round" stroke-linejoin="round"/>
<path d="M87.7047 82.8493C87.3413 82.6571 86.9381 82.552 86.5271 82.5423C86.1161 82.5325 85.7084 82.6184 85.3363 82.7931C84.0771 83.3969 83.3048 84.0616 83.3891 83.2893C83.4733 82.517 84.9524 81.6651 85.3971 81.5527C85.8418 81.4404 87.8311 81.1315 87.7047 82.8493ZM91.234 81.1034C92.5462 82.165 93.5887 83.5219 94.2765 85.0633C95.2127 87.4037 95.9522 84.848 95.2127 83.3174C94.4731 81.7868 92.334 80.1579 91.234 81.1034Z" fill="#263238"/>
<path d="M101.106 106.16C101.106 107.25 100.488 108.135 99.7294 108.135C98.9711 108.135 98.358 107.25 98.358 106.16C98.358 105.069 98.9711 102.293 99.7294 102.293C100.488 102.293 101.106 105.069 101.106 106.16Z" fill="#AD49EB" stroke="#263238" stroke-width="0.468076" stroke-linecap="round" stroke-linejoin="round"/>
<path d="M91.8986 87.7923C91.8448 87.9353 91.8026 88.0825 91.7723 88.2323C91.6365 88.925 91.5008 90.3714 91.7723 90.4322C92.0437 90.4931 92.7084 89.1403 92.8254 88.4476C92.8518 88.3117 92.8674 88.174 92.8722 88.0357C92.5528 87.9355 92.2277 87.8542 91.8986 87.7923ZM83.9133 85.1898C83.8717 85.3121 83.8388 85.4372 83.815 85.5642C83.6746 86.257 83.6792 87.7782 83.9741 87.8344C84.269 87.8906 84.7511 86.4676 84.8869 85.7749C84.9207 85.6068 84.9395 85.4361 84.943 85.2647C84.608 85.1725 84.2581 85.1471 83.9133 85.1898Z" fill="#263238"/>
<path d="M91.777 88.2416L92.2451 87.371C92.9872 87.5156 93.6595 87.9045 94.1548 88.4757M83.9133 85.1898L84.3814 84.6421C84.3814 84.6421 84.5827 84.5439 85.6873 85.0447" stroke="#263238" stroke-width="0.351057" stroke-linecap="round" stroke-linejoin="round"/>
<path d="M82.1393 97.884C82.1393 97.884 82.9256 96.4377 83.9788 96.4377C85.032 96.4377 85.8184 98.8015 85.8184 98.8015" stroke="#263238" stroke-width="0.468076" stroke-linecap="round" stroke-linejoin="round"/>
<path d="M48.2457 160.26C47.2279 160.209 46.2282 159.971 45.2968 159.558C45.1669 159.51 45.0482 159.436 44.9478 159.34C44.8474 159.245 44.7675 159.13 44.7129 159.003C44.6583 158.876 44.6302 158.739 44.6303 158.6C44.6303 158.462 44.6586 158.325 44.7133 158.198C44.768 158.07 44.848 157.956 44.9484 157.86C45.0489 157.765 45.1677 157.691 45.2976 157.643C45.4275 157.595 45.5658 157.574 45.7041 157.582C45.8423 157.589 45.9777 157.624 46.1019 157.685C47.038 158.083 48.2503 158.331 48.5733 158.191C49.1678 157.526 50.0805 153.51 48.901 151.572C48.6342 151.142 48.3861 151.062 48.2222 151.043C47.5529 150.95 46.5606 151.638 46.2095 151.98C46.1118 152.072 45.9969 152.144 45.8713 152.192C45.7457 152.239 45.6119 152.262 45.4776 152.258C45.3433 152.254 45.2111 152.224 45.0885 152.169C44.9659 152.114 44.8554 152.035 44.7632 151.937C44.671 151.84 44.5989 151.725 44.5511 151.599C44.5034 151.474 44.4808 151.34 44.4847 151.206C44.4886 151.071 44.5189 150.939 44.5739 150.816C44.6289 150.694 44.7076 150.583 44.8053 150.491C44.9878 150.313 46.6776 148.792 48.4797 149.035C48.9267 149.101 49.3526 149.268 49.7243 149.525C50.0961 149.781 50.4038 150.12 50.6235 150.515C52.36 153.346 51.1711 158.734 49.8371 159.801C49.3735 160.129 48.8127 160.291 48.2457 160.26Z" fill="white"/>
<mask id="mask15_1063_1432" style="mask-type:luminance" maskUnits="userSpaceOnUse" x="44" y="149" width="8" height="12">
<path d="M48.2457 160.26C47.2279 160.209 46.2282 159.971 45.2968 159.558C45.1669 159.51 45.0482 159.436 44.9478 159.34C44.8474 159.245 44.7675 159.13 44.7129 159.003C44.6583 158.876 44.6302 158.739 44.6303 158.6C44.6303 158.462 44.6586 158.325 44.7133 158.198C44.768 158.07 44.848 157.956 44.9484 157.86C45.0489 157.765 45.1677 157.691 45.2976 157.643C45.4275 157.595 45.5658 157.574 45.7041 157.582C45.8423 157.589 45.9777 157.624 46.1019 157.685C47.038 158.083 48.2503 158.331 48.5733 158.191C49.1678 157.526 50.0805 153.51 48.901 151.572C48.6342 151.142 48.3861 151.062 48.2222 151.043C47.5529 150.95 46.5606 151.638 46.2095 151.98C46.1118 152.072 45.9969 152.144 45.8713 152.192C45.7457 152.239 45.6119 152.262 45.4776 152.258C45.3433 152.254 45.2111 152.224 45.0885 152.169C44.9659 152.114 44.8554 152.035 44.7632 151.937C44.671 151.84 44.5989 151.725 44.5511 151.599C44.5034 151.474 44.4808 151.34 44.4847 151.206C44.4886 151.071 44.5189 150.939 44.5739 150.816C44.6289 150.694 44.7076 150.583 44.8053 150.491C44.9878 150.313 46.6776 148.792 48.4797 149.035C48.9267 149.101 49.3526 149.268 49.7243 149.525C50.0961 149.781 50.4038 150.12 50.6235 150.515C52.36 153.346 51.1711 158.734 49.8371 159.801C49.3735 160.129 48.8127 160.291 48.2457 160.26Z" fill="white"/>
</mask>
<g mask="url(#mask15_1063_1432)">
<path d="M49.6172 151.264C49.4945 150.973 49.3023 150.717 49.0575 150.517C48.8126 150.318 48.5227 150.182 48.213 150.121C47.0428 149.934 45.9429 151.109 45.8212 151.24C45.7093 151.375 45.6401 151.54 45.6226 151.714C45.6051 151.889 45.64 152.064 45.7229 152.218C45.907 152.181 46.0772 152.094 46.2143 151.966C46.5654 151.638 47.5577 150.95 48.2271 151.029C48.3909 151.029 48.639 151.128 48.9058 151.558C50.0853 153.478 49.1726 157.512 48.5781 158.177C48.2551 158.317 47.0475 158.069 46.1067 157.671C45.9909 157.623 45.8671 157.596 45.7416 157.592C45.7501 157.72 45.7905 157.844 45.8592 157.953C45.9279 158.062 46.0226 158.152 46.1348 158.214C46.7266 158.531 47.3795 158.716 48.0492 158.757C48.4313 158.776 48.8056 158.645 49.093 158.392C49.973 157.583 50.75 153.44 49.6172 151.264Z" fill="#AD49EB"/>
<path opacity="0.5" d="M49.6172 151.264C49.4945 150.973 49.3023 150.717 49.0575 150.517C48.8126 150.318 48.5227 150.182 48.213 150.121C47.0428 149.934 45.9429 151.109 45.8212 151.24C45.7093 151.375 45.6401 151.54 45.6226 151.714C45.6051 151.889 45.64 152.064 45.7229 152.218C45.907 152.181 46.0772 152.094 46.2143 151.966C46.5654 151.638 47.5577 150.95 48.2271 151.029C48.3909 151.029 48.639 151.128 48.9058 151.558C50.0853 153.478 49.1726 157.512 48.5781 158.177C48.2551 158.317 47.0475 158.069 46.1067 157.671C45.9909 157.623 45.8671 157.596 45.7416 157.592C45.7501 157.72 45.7905 157.844 45.8592 157.953C45.9279 158.062 46.0226 158.152 46.1348 158.214C46.7266 158.531 47.3795 158.716 48.0492 158.757C48.4313 158.776 48.8056 158.645 49.093 158.392C49.973 157.583 50.75 153.44 49.6172 151.264Z" fill="white"/>
</g>
<path d="M48.2457 160.26C47.2279 160.209 46.2282 159.971 45.2968 159.558C45.1669 159.51 45.0482 159.436 44.9478 159.34C44.8474 159.245 44.7675 159.13 44.7129 159.003C44.6583 158.876 44.6302 158.739 44.6303 158.6C44.6303 158.462 44.6586 158.325 44.7133 158.198C44.768 158.07 44.848 157.956 44.9484 157.86C45.0489 157.765 45.1677 157.691 45.2976 157.643C45.4275 157.595 45.5658 157.574 45.7041 157.582C45.8423 157.589 45.9777 157.624 46.1019 157.685C47.038 158.083 48.2503 158.331 48.5733 158.191C49.1678 157.526 50.0805 153.51 48.901 151.572C48.6342 151.142 48.3861 151.062 48.2222 151.043C47.5529 150.95 46.5606 151.638 46.2095 151.98C46.1118 152.072 45.9969 152.144 45.8713 152.192C45.7457 152.239 45.6119 152.262 45.4776 152.258C45.3433 152.254 45.2111 152.224 45.0885 152.169C44.9659 152.114 44.8554 152.035 44.7632 151.937C44.671 151.84 44.5989 151.725 44.5511 151.599C44.5034 151.474 44.4808 151.34 44.4847 151.206C44.4886 151.071 44.5189 150.939 44.5739 150.816C44.6289 150.694 44.7076 150.583 44.8053 150.491C44.9878 150.313 46.6776 148.792 48.4797 149.035C48.9267 149.101 49.3526 149.268 49.7243 149.525C50.0961 149.781 50.4038 150.12 50.6235 150.515C52.36 153.346 51.1711 158.734 49.8371 159.801C49.3735 160.129 48.8127 160.291 48.2457 160.26Z" stroke="#263238" stroke-width="0.468076" stroke-linecap="round" stroke-linejoin="round"/>
<path d="M35.2005 148.183H46.4577V163.124H35.2005V148.183Z" fill="white"/>
<mask id="mask16_1063_1432" style="mask-type:luminance" maskUnits="userSpaceOnUse" x="35" y="148" width="12" height="16">
<path d="M35.2005 148.183H46.4577V163.124H35.2005V148.183Z" fill="white"/>
</mask>
<g mask="url(#mask16_1063_1432)">
<path d="M35.2005 148.183H39.811V163.124H35.2005V148.183Z" fill="#AD49EB"/>
<path opacity="0.5" d="M35.2005 148.183H39.811V163.124H35.2005V148.183Z" fill="white"/>
</g>
<path d="M35.2005 148.183H46.4577V163.124H35.2005V148.183Z" stroke="#263238" stroke-width="0.468076" stroke-linecap="round" stroke-linejoin="round"/>
<path d="M108.319 162.919H60.2285L58.6605 136.482C58.6171 136.225 58.6299 135.963 58.6979 135.712C58.7659 135.461 58.8876 135.228 59.0544 135.028C59.2213 134.829 59.4294 134.668 59.6645 134.557C59.8995 134.446 60.1558 134.387 60.4158 134.385H108.113C108.374 134.384 108.633 134.441 108.87 134.551C109.107 134.661 109.318 134.821 109.487 135.021C109.656 135.221 109.779 135.455 109.848 135.707C109.917 135.959 109.93 136.224 109.887 136.482L108.319 162.919Z" fill="#263238" stroke="#263238" stroke-width="0.468076" stroke-linecap="round" stroke-linejoin="round"/>
<path d="M62.5969 135.017H107.766C108.021 135.014 108.274 135.067 108.506 135.172C108.739 135.278 108.946 135.432 109.112 135.626C109.278 135.819 109.4 136.047 109.469 136.293C109.538 136.538 109.553 136.796 109.512 137.048M59.0115 136.631C59.0492 136.189 59.2522 135.777 59.5802 135.478C59.9081 135.178 60.3368 135.014 60.7808 135.017" stroke="white" stroke-width="0.468076" stroke-linecap="round" stroke-linejoin="round"/>
<path d="M60.0273 160.344H108.52V162.919H60.0273V160.344Z" fill="white" stroke="#263238" stroke-width="0.468076" stroke-linecap="round" stroke-linejoin="round"/>
<path d="M84.1004 150.814C85.9979 150.814 87.5361 149.892 87.5361 148.755C87.5361 147.617 85.9979 146.695 84.1004 146.695C82.2029 146.695 80.6647 147.617 80.6647 148.755C80.6647 149.892 82.2029 150.814 84.1004 150.814Z" fill="white" stroke="#263238" stroke-width="0.468076" stroke-linecap="round" stroke-linejoin="round"/>
<path d="M1.0498 162.614H181.661V167H1.0498V162.614Z" fill="#263238"/>
<path d="M134.831 0H47.9417C45.0127 0 42.6384 2.37437 42.6384 5.3033V55.158C42.6384 58.087 45.0127 60.4613 47.9417 60.4613H134.831C137.759 60.4613 140.134 58.087 140.134 55.158V5.3033C140.134 2.37437 137.759 0 134.831 0Z" fill="#AD49EB"/>
<path d="M93.6787 34.7454C101.56 33.4787 106.923 26.0625 105.656 18.1808C104.39 10.2991 96.9734 4.93657 89.0917 6.20325C81.21 7.46992 75.8475 14.8861 77.1141 22.7678C78.3808 30.6495 85.797 36.012 93.6787 34.7454Z" fill="#263238"/>
<path d="M91.2761 23.1465L86.4596 29.3298C86.2959 29.5872 86.0707 29.7998 85.8043 29.9485C85.5379 30.0972 85.2387 30.1774 84.9337 30.1817C84.5152 30.1874 84.1115 30.0276 83.8103 29.737C83.6572 29.5966 83.5361 29.4248 83.4554 29.2334C83.3746 29.0419 83.336 28.8354 83.3422 28.6277C83.3573 28.1626 83.5214 27.7146 83.8103 27.3498L89.3008 20.5581L84.152 13.7616C83.9128 13.4426 83.7816 13.0556 83.7775 12.6569C83.7763 12.4192 83.8244 12.1837 83.9186 11.9654C84.0129 11.7471 84.1513 11.5506 84.3252 11.3885C84.4885 11.2179 84.6847 11.0823 84.9019 10.9898C85.1192 10.8973 85.3529 10.8498 85.589 10.8502C85.8914 10.8551 86.1877 10.9356 86.451 11.0844C86.7142 11.2332 86.9361 11.4455 87.0962 11.7021L91.7489 17.8292L96.4296 11.805C96.597 11.524 96.831 11.2885 97.111 11.1195C97.3911 10.9505 97.7085 10.8532 98.0351 10.8361C98.2379 10.8356 98.4385 10.8769 98.6246 10.9575C98.8106 11.038 98.978 11.156 99.1164 11.3042C99.2639 11.4431 99.3815 11.6106 99.462 11.7965C99.5425 11.9825 99.5841 12.1829 99.5845 12.3855C99.5795 12.748 99.4544 13.0986 99.2287 13.3825L93.7195 20.4317L99.0415 27.4528C99.2931 27.7666 99.4331 28.1553 99.4394 28.5575C99.4409 28.79 99.3919 29.0201 99.2957 29.2319C99.1995 29.4436 99.0585 29.632 98.8823 29.7838C98.5389 30.1141 98.081 30.2986 97.6045 30.2987C97.3006 30.2949 97.0026 30.215 96.7376 30.0661C96.4726 29.9173 96.2493 29.7044 96.0879 29.4468L91.2761 23.1465ZM118.925 49.9907H63.8282C62.7109 49.9907 61.6394 49.5468 60.8493 48.7568C60.0593 47.9668 59.6155 46.8952 59.6155 45.778C59.6155 44.6607 60.0593 43.5892 60.8493 42.7992C61.6394 42.0091 62.7109 41.5653 63.8282 41.5653H118.925C120.043 41.5653 121.114 42.0091 121.904 42.7992C122.694 43.5892 123.138 44.6607 123.138 45.778C123.138 46.8952 122.694 47.9668 121.904 48.7568C121.114 49.5468 120.043 49.9907 118.925 49.9907Z" fill="white"/>
<path d="M71.3782 47.1352C71.3415 47.1352 71.3051 47.1277 71.2713 47.1133C71.2375 47.0988 71.207 47.0776 71.1816 47.051C71.154 47.0235 71.1322 46.9906 71.1177 46.9544C71.1032 46.9181 71.0963 46.8793 71.0974 46.8403C71.0973 46.7744 71.1151 46.7097 71.1489 46.6531L71.5701 45.9978H70.7089C70.6691 45.9998 70.6293 45.9934 70.5922 45.9788C70.555 45.9643 70.5214 45.9421 70.4936 45.9135C70.4455 45.8575 70.419 45.7861 70.419 45.7123C70.419 45.6384 70.4455 45.567 70.4936 45.511C70.5214 45.4825 70.555 45.4602 70.5922 45.4457C70.6293 45.4311 70.6691 45.4247 70.7089 45.4267L71.5561 45.4501L71.1816 44.8416C71.1441 44.7793 71.1232 44.7084 71.1208 44.6357C71.1197 44.5967 71.1266 44.5579 71.1411 44.5216C71.1556 44.4854 71.1774 44.4525 71.205 44.4251C71.2313 44.3983 71.2626 44.377 71.2972 44.3626C71.3317 44.3481 71.3688 44.3407 71.4063 44.3408C71.4587 44.34 71.5102 44.3547 71.5543 44.383C71.5984 44.4113 71.6333 44.452 71.6544 44.4999L72.0663 45.2348L72.4595 44.5327C72.4843 44.4781 72.5235 44.4313 72.5731 44.3975C72.6226 44.3636 72.6804 44.344 72.7403 44.3408C72.7771 44.3408 72.8135 44.3483 72.8473 44.3628C72.8811 44.3772 72.9116 44.3984 72.9369 44.4251C72.9644 44.4508 72.9861 44.482 73.0006 44.5167C73.0151 44.5514 73.0221 44.5887 73.0212 44.6263C73.0206 44.6928 73.0011 44.7577 72.965 44.8136L72.5531 45.4735L73.4097 45.4501C73.4495 45.4478 73.4894 45.4541 73.5266 45.4686C73.5638 45.4832 73.5973 45.5056 73.625 45.5344C73.6731 45.5904 73.6996 45.6618 73.6996 45.7357C73.6996 45.8095 73.6731 45.8809 73.625 45.9369C73.5973 45.9657 73.5638 45.9881 73.5266 46.0027C73.4894 46.0172 73.4495 46.0235 73.4097 46.0212H72.5437L72.9276 46.6203C72.9709 46.6926 72.995 46.7748 72.9978 46.859C72.9991 46.897 72.9928 46.9348 72.9791 46.9702C72.9654 47.0056 72.9447 47.0378 72.9182 47.065C72.8936 47.0913 72.8639 47.1123 72.8309 47.1268C72.7979 47.1412 72.7623 47.1489 72.7263 47.1492C72.6684 47.1478 72.612 47.1299 72.5639 47.0976C72.5158 47.0652 72.478 47.0198 72.4548 46.9667L72.0663 46.2786L71.6778 46.9667C71.6497 47.0209 71.6064 47.0657 71.5532 47.0956C71.4999 47.1256 71.4392 47.1393 71.3782 47.1352ZM75.6752 47.1352C75.6384 47.1352 75.602 47.1277 75.5682 47.1133C75.5344 47.0988 75.5039 47.0776 75.4786 47.051C75.4509 47.0235 75.4291 46.9906 75.4146 46.9544C75.4001 46.9181 75.3932 46.8793 75.3943 46.8403C75.3943 46.7744 75.4121 46.7097 75.4458 46.6531L75.8671 45.9978H75.0058C74.966 45.9998 74.9262 45.9934 74.8891 45.9788C74.852 45.9643 74.8184 45.9421 74.7905 45.9135C74.7424 45.8575 74.7159 45.7861 74.7159 45.7123C74.7159 45.6384 74.7424 45.567 74.7905 45.511C74.8184 45.4825 74.852 45.4602 74.8891 45.4457C74.9262 45.4311 74.966 45.4247 75.0058 45.4267L75.853 45.4501L75.4552 44.8182C75.4176 44.7559 75.3967 44.685 75.3943 44.6123C75.3932 44.5733 75.4001 44.5345 75.4146 44.4982C75.4291 44.462 75.4509 44.4291 75.4786 44.4016C75.5048 44.3749 75.5361 44.3536 75.5707 44.3392C75.6053 44.3247 75.6424 44.3173 75.6799 44.3174C75.7323 44.3166 75.7837 44.3313 75.8279 44.3596C75.872 44.3879 75.9068 44.4286 75.9279 44.4765L76.3398 45.2114L76.733 44.5093C76.7578 44.4547 76.7971 44.4079 76.8466 44.374C76.8961 44.3402 76.954 44.3206 77.0139 44.3174C77.0506 44.3174 77.087 44.3249 77.1208 44.3393C77.1546 44.3538 77.1851 44.375 77.2105 44.4016C77.2379 44.4274 77.2596 44.4586 77.2741 44.4933C77.2886 44.528 77.2956 44.5653 77.2947 44.6029C77.2941 44.6694 77.2746 44.7343 77.2385 44.7902L76.8266 45.4501L77.6832 45.4267C77.7231 45.4244 77.7629 45.4307 77.8001 45.4452C77.8373 45.4598 77.8709 45.4822 77.8985 45.511C77.9466 45.567 77.9731 45.6384 77.9731 45.7123C77.9731 45.7861 77.9466 45.8575 77.8985 45.9135C77.8709 45.9423 77.8373 45.9647 77.8001 45.9793C77.7629 45.9938 77.7231 46.0001 77.6832 45.9978H76.8173L77.2011 46.5969C77.2444 46.6692 77.2686 46.7514 77.2713 46.8356C77.2726 46.8736 77.2663 46.9114 77.2526 46.9468C77.2389 46.9822 77.2182 47.0144 77.1917 47.0416C77.1671 47.0679 77.1374 47.0889 77.1044 47.1034C77.0714 47.1178 77.0358 47.1255 76.9998 47.1258C76.9417 47.125 76.8852 47.1073 76.837 47.0749C76.7888 47.0425 76.751 46.9968 76.7283 46.9433L76.3398 46.2552L75.9513 46.9433C75.9283 46.9982 75.8901 47.0454 75.8412 47.0794C75.7922 47.1134 75.7347 47.1327 75.6752 47.1352ZM79.9721 47.1352C79.9353 47.1352 79.899 47.1277 79.8652 47.1133C79.8314 47.0988 79.8009 47.0776 79.7755 47.051C79.7478 47.0235 79.7261 46.9906 79.7116 46.9544C79.6971 46.9181 79.6902 46.8793 79.6913 46.8403C79.6912 46.7744 79.709 46.7097 79.7427 46.6531L80.164 45.9978H79.3028C79.2629 45.9998 79.2232 45.9934 79.186 45.9788C79.1489 45.9643 79.1153 45.9421 79.0874 45.9135C79.0393 45.8575 79.0129 45.7861 79.0129 45.7123C79.0129 45.6384 79.0393 45.567 79.0874 45.511C79.1153 45.4825 79.1489 45.4602 79.186 45.4457C79.2232 45.4311 79.2629 45.4247 79.3028 45.4267L80.15 45.4501L79.7521 44.8182C79.7146 44.7559 79.6936 44.685 79.6913 44.6123C79.6902 44.5733 79.6971 44.5345 79.7116 44.4982C79.7261 44.462 79.7478 44.4291 79.7755 44.4016C79.8017 44.3749 79.8331 44.3536 79.8676 44.3392C79.9022 44.3247 79.9393 44.3173 79.9768 44.3174C80.0292 44.3166 80.0807 44.3313 80.1248 44.3596C80.1689 44.3879 80.2037 44.4286 80.2249 44.4765L80.6368 45.2114L81.03 44.5093C81.0547 44.4547 81.094 44.4079 81.1435 44.374C81.193 44.3402 81.2509 44.3206 81.3108 44.3174C81.3476 44.3174 81.3839 44.3249 81.4177 44.3393C81.4515 44.3538 81.482 44.375 81.5074 44.4016C81.5348 44.4274 81.5565 44.4586 81.571 44.4933C81.5856 44.528 81.5926 44.5653 81.5916 44.6029C81.591 44.6694 81.5715 44.7343 81.5355 44.7902L81.1236 45.4501L81.9802 45.4267C82.02 45.4244 82.0599 45.4307 82.097 45.4452C82.1342 45.4598 82.1678 45.4822 82.1955 45.511C82.2436 45.567 82.27 45.6384 82.27 45.7123C82.27 45.7861 82.2436 45.8575 82.1955 45.9135C82.1678 45.9423 82.1342 45.9647 82.097 45.9793C82.0599 45.9938 82.02 46.0001 81.9802 45.9978H81.1142L81.498 46.5969C81.5413 46.6692 81.5655 46.7514 81.5682 46.8356C81.5696 46.8736 81.5632 46.9114 81.5495 46.9468C81.5359 46.9822 81.5152 47.0144 81.4887 47.0416C81.464 47.0679 81.4343 47.0889 81.4013 47.1034C81.3684 47.1178 81.3328 47.1255 81.2968 47.1258C81.2387 47.125 81.1821 47.1073 81.1339 47.0749C81.0857 47.0425 81.048 46.9968 81.0253 46.9433L80.6368 46.2552L80.2483 46.9433C80.2252 46.9982 80.187 47.0454 80.1381 47.0794C80.0892 47.1134 80.0316 47.1327 79.9721 47.1352ZM84.2878 47.1352C84.251 47.1352 84.2146 47.1277 84.1808 47.1133C84.147 47.0988 84.1165 47.0776 84.0912 47.051C84.0635 47.0235 84.0417 46.9906 84.0272 46.9544C84.0127 46.9181 84.0058 46.8793 84.0069 46.8403C84.0069 46.7744 84.0247 46.7097 84.0584 46.6531L84.4797 45.9978H83.6184C83.5786 45.9998 83.5388 45.9934 83.5017 45.9788C83.4646 45.9643 83.431 45.9421 83.4031 45.9135C83.355 45.8575 83.3285 45.7861 83.3285 45.7123C83.3285 45.6384 83.355 45.567 83.4031 45.511C83.431 45.4825 83.4646 45.4602 83.5017 45.4457C83.5388 45.4311 83.5786 45.4247 83.6184 45.4267L84.4656 45.4501L84.0678 44.8182C84.0302 44.7559 84.0093 44.685 84.0069 44.6123C84.0058 44.5733 84.0127 44.5345 84.0272 44.4982C84.0417 44.462 84.0635 44.4291 84.0912 44.4016C84.1174 44.3749 84.1487 44.3536 84.1833 44.3392C84.2179 44.3247 84.255 44.3173 84.2924 44.3174C84.3449 44.3166 84.3963 44.3313 84.4405 44.3596C84.4846 44.3879 84.5194 44.4286 84.5405 44.4765L84.9524 45.2114L85.3456 44.5093C85.3704 44.4547 85.4097 44.4079 85.4592 44.374C85.5087 44.3402 85.5666 44.3206 85.6265 44.3174C85.6632 44.3174 85.6996 44.3249 85.7334 44.3393C85.7672 44.3538 85.7977 44.375 85.823 44.4016C85.8505 44.4274 85.8722 44.4586 85.8867 44.4933C85.9012 44.528 85.9082 44.5653 85.9073 44.6029C85.9067 44.6694 85.8872 44.7343 85.8511 44.7902L85.4392 45.4501L86.2958 45.4267C86.3356 45.4244 86.3755 45.4307 86.4127 45.4452C86.4499 45.4598 86.4835 45.4822 86.5111 45.511C86.5592 45.567 86.5857 45.6384 86.5857 45.7123C86.5857 45.7861 86.5592 45.8575 86.5111 45.9135C86.4835 45.9423 86.4499 45.9647 86.4127 45.9793C86.3755 45.9938 86.3356 46.0001 86.2958 45.9978H85.4299L85.8137 46.5969C85.857 46.6692 85.8812 46.7514 85.8839 46.8356C85.8852 46.8736 85.8789 46.9114 85.8652 46.9468C85.8515 46.9822 85.8308 47.0144 85.8043 47.0416C85.7797 47.0679 85.75 47.0889 85.717 47.1034C85.684 47.1178 85.6484 47.1255 85.6124 47.1258C85.5545 47.1244 85.4981 47.1065 85.4501 47.0742C85.402 47.0418 85.3641 46.9964 85.3409 46.9433L84.9524 46.2552L84.5639 46.9433C84.5409 46.9982 84.5026 47.0454 84.4537 47.0794C84.4048 47.1134 84.3473 47.1327 84.2878 47.1352ZM88.566 47.1352C88.5292 47.1352 88.4928 47.1277 88.459 47.1133C88.4252 47.0988 88.3947 47.0776 88.3694 47.051C88.3417 47.0235 88.3199 46.9906 88.3054 46.9544C88.2909 46.9181 88.284 46.8793 88.2851 46.8403C88.2873 46.7747 88.3049 46.7106 88.3366 46.6531L88.7579 45.9978H87.8966C87.8568 45.9998 87.817 45.9934 87.7799 45.9788C87.7428 45.9643 87.7092 45.9421 87.6813 45.9135C87.6332 45.8575 87.6067 45.7861 87.6067 45.7123C87.6067 45.6384 87.6332 45.567 87.6813 45.511C87.7092 45.4825 87.7428 45.4602 87.7799 45.4457C87.817 45.4311 87.8568 45.4247 87.8966 45.4267L88.7438 45.4501L88.346 44.8182C88.3084 44.7559 88.2875 44.685 88.2851 44.6123C88.284 44.5733 88.2909 44.5345 88.3054 44.4982C88.3199 44.462 88.3417 44.4291 88.3694 44.4016C88.3956 44.3749 88.4269 44.3536 88.4615 44.3392C88.4961 44.3247 88.5332 44.3173 88.5707 44.3174C88.6231 44.3166 88.6745 44.3313 88.7187 44.3596C88.7628 44.3879 88.7976 44.4286 88.8187 44.4765L89.2306 45.2114L89.6238 44.5093C89.6486 44.4547 89.6879 44.4079 89.7374 44.374C89.7869 44.3402 89.8448 44.3206 89.9047 44.3174C89.9415 44.3168 89.9781 44.324 90.0119 44.3386C90.0458 44.3531 90.0763 44.3746 90.1013 44.4016C90.1287 44.4274 90.1504 44.4586 90.1649 44.4933C90.1794 44.528 90.1865 44.5653 90.1855 44.6029C90.1849 44.6694 90.1654 44.7343 90.1293 44.7902L89.7174 45.4501L90.574 45.4267C90.6139 45.4244 90.6537 45.4307 90.6909 45.4452C90.7281 45.4598 90.7617 45.4822 90.7893 45.511C90.8374 45.567 90.8639 45.6384 90.8639 45.7123C90.8639 45.7861 90.8374 45.8575 90.7893 45.9135C90.7617 45.9423 90.7281 45.9647 90.6909 45.9793C90.6537 45.9938 90.6139 46.0001 90.574 45.9978H89.7081L90.0919 46.5969C90.1352 46.6692 90.1594 46.7514 90.1621 46.8356C90.1635 46.8736 90.1571 46.9114 90.1434 46.9468C90.1297 46.9822 90.109 47.0144 90.0825 47.0416C90.0579 47.0679 90.0282 47.0889 89.9952 47.1034C89.9622 47.1178 89.9266 47.1255 89.8906 47.1258C89.8327 47.1244 89.7764 47.1065 89.7283 47.0742C89.6802 47.0418 89.6423 46.9964 89.6191 46.9433L89.2306 46.2552L88.8421 46.9433C88.8191 46.9982 88.7809 47.0454 88.732 47.0794C88.683 47.1134 88.6255 47.1327 88.566 47.1352ZM92.8629 47.1352C92.8261 47.1352 92.7898 47.1277 92.756 47.1133C92.7222 47.0988 92.6917 47.0776 92.6663 47.051C92.6386 47.0235 92.6169 46.9906 92.6024 46.9544C92.5879 46.9181 92.581 46.8793 92.5821 46.8403C92.5842 46.7747 92.6019 46.7106 92.6336 46.6531L93.0548 45.9978H92.1982C92.1577 46.0002 92.1171 45.9939 92.0791 45.9794C92.0412 45.9649 92.0068 45.9424 91.9782 45.9135C91.9301 45.8575 91.9037 45.7861 91.9037 45.7123C91.9037 45.6384 91.9301 45.567 91.9782 45.511C92.0068 45.4821 92.0412 45.4596 92.0791 45.4451C92.1171 45.4306 92.1577 45.4243 92.1982 45.4267L93.0408 45.4501L92.6429 44.8182C92.6054 44.7559 92.5844 44.685 92.5821 44.6123C92.581 44.5733 92.5879 44.5345 92.6024 44.4982C92.6169 44.462 92.6386 44.4291 92.6663 44.4016C92.6925 44.3749 92.7239 44.3536 92.7584 44.3392C92.793 44.3247 92.8301 44.3173 92.8676 44.3174C92.92 44.3166 92.9715 44.3313 93.0156 44.3596C93.0597 44.3879 93.0945 44.4286 93.1157 44.4765L93.5276 45.2114L93.9208 44.5093C93.9455 44.4547 93.9848 44.4079 94.0343 44.374C94.0839 44.3402 94.1417 44.3206 94.2016 44.3174C94.2385 44.3168 94.275 44.324 94.3089 44.3386C94.3428 44.3531 94.3732 44.3746 94.3982 44.4016C94.4256 44.4274 94.4473 44.4586 94.4618 44.4933C94.4764 44.528 94.4834 44.5653 94.4824 44.6029C94.4818 44.6694 94.4624 44.7343 94.4263 44.7902L94.0144 45.4501L94.8709 45.4267C94.9108 45.4244 94.9507 45.4307 94.9879 45.4452C95.025 45.4598 95.0586 45.4822 95.0863 45.511C95.1344 45.567 95.1608 45.6384 95.1608 45.7123C95.1608 45.7861 95.1344 45.8575 95.0863 45.9135C95.0586 45.9423 95.025 45.9647 94.9879 45.9793C94.9507 45.9938 94.9108 46.0001 94.8709 45.9978H94.005L94.3888 46.5969C94.4321 46.6692 94.4563 46.7514 94.4591 46.8356C94.4604 46.8736 94.454 46.9114 94.4404 46.9468C94.4267 46.9822 94.406 47.0144 94.3795 47.0416C94.3548 47.0679 94.3251 47.0889 94.2921 47.1034C94.2592 47.1178 94.2236 47.1255 94.1876 47.1258C94.1296 47.1244 94.0733 47.1065 94.0252 47.0742C93.9771 47.0418 93.9392 46.9964 93.9161 46.9433L93.5276 46.2552L93.1391 46.9433C93.116 46.9982 93.0778 47.0454 93.0289 47.0794C92.98 47.1134 92.9224 47.1327 92.8629 47.1352ZM97.1598 47.1352C97.1231 47.1352 97.0867 47.1277 97.0529 47.1133C97.0191 47.0988 96.9886 47.0776 96.9632 47.051C96.9356 47.0235 96.9138 46.9906 96.8993 46.9544C96.8848 46.9181 96.8779 46.8793 96.879 46.8403C96.8789 46.7744 96.8967 46.7097 96.9305 46.6531L97.3518 45.9978H96.4905C96.4507 45.9998 96.4109 45.9934 96.3738 45.9788C96.3366 45.9643 96.303 45.9421 96.2752 45.9135C96.2271 45.8575 96.2006 45.7861 96.2006 45.7123C96.2006 45.6384 96.2271 45.567 96.2752 45.511C96.303 45.4825 96.3366 45.4602 96.3738 45.4457C96.4109 45.4311 96.4507 45.4247 96.4905 45.4267L97.3377 45.4501L96.9258 44.8416C96.8883 44.7793 96.8673 44.7084 96.865 44.6357C96.8639 44.5967 96.8708 44.5579 96.8853 44.5216C96.8998 44.4854 96.9215 44.4525 96.9492 44.4251C96.9754 44.3983 97.0068 44.377 97.0413 44.3626C97.0759 44.3481 97.113 44.3407 97.1505 44.3408C97.2029 44.34 97.2544 44.3547 97.2985 44.383C97.3426 44.4113 97.3774 44.452 97.3986 44.4999L97.8105 45.2348L98.2037 44.5327C98.2284 44.4781 98.2677 44.4313 98.3172 44.3975C98.3667 44.3636 98.4246 44.344 98.4845 44.3408C98.5213 44.3402 98.5579 44.3474 98.5918 44.362C98.6257 44.3765 98.6561 44.398 98.6811 44.4251C98.7085 44.4508 98.7302 44.482 98.7447 44.5167C98.7592 44.5514 98.7663 44.5887 98.7653 44.6263C98.7647 44.6928 98.7452 44.7577 98.7092 44.8136L98.2973 45.4735L99.1539 45.4501C99.1937 45.4478 99.2336 45.4541 99.2707 45.4686C99.3079 45.4832 99.3415 45.5056 99.3692 45.5344C99.4173 45.5904 99.4437 45.6618 99.4437 45.7357C99.4437 45.8095 99.4173 45.8809 99.3692 45.9369C99.3415 45.9657 99.3079 45.9881 99.2707 46.0027C99.2336 46.0172 99.1937 46.0235 99.1539 46.0212H98.2879L98.6717 46.6203C98.715 46.6926 98.7392 46.7748 98.7419 46.859C98.7433 46.897 98.7369 46.9348 98.7232 46.9702C98.7096 47.0056 98.6889 47.0378 98.6624 47.065C98.6377 47.0913 98.608 47.1123 98.575 47.1268C98.542 47.1412 98.5065 47.1489 98.4704 47.1492C98.4125 47.1478 98.3562 47.1299 98.3081 47.0976C98.26 47.0652 98.2221 47.0198 98.199 46.9667L97.8105 46.2786L97.422 46.9667C97.3967 47.0152 97.3593 47.0563 97.3133 47.0858C97.2673 47.1154 97.2144 47.1324 97.1598 47.1352ZM101.457 47.1352C101.42 47.1352 101.384 47.1277 101.35 47.1133C101.316 47.0988 101.286 47.0776 101.26 47.051C101.233 47.0235 101.211 46.9906 101.196 46.9544C101.182 46.9181 101.175 46.8793 101.176 46.8403C101.178 46.7747 101.196 46.7106 101.227 46.6531L101.649 45.9978H100.792C100.752 46.0008 100.712 45.9948 100.675 45.9802C100.638 45.9656 100.604 45.9428 100.577 45.9135C100.526 45.8589 100.497 45.787 100.497 45.7123C100.497 45.6375 100.526 45.5656 100.577 45.511C100.604 45.4817 100.638 45.4589 100.675 45.4443C100.712 45.4297 100.752 45.4237 100.792 45.4267L101.635 45.4501L101.237 44.8182C101.199 44.7559 101.178 44.685 101.176 44.6123C101.175 44.574 101.181 44.5359 101.195 44.5001C101.209 44.4644 101.23 44.4318 101.256 44.4043C101.283 44.3768 101.315 44.3549 101.35 44.34C101.385 44.3251 101.423 44.3174 101.461 44.3174C101.514 44.3166 101.565 44.3313 101.609 44.3596C101.654 44.3879 101.688 44.4286 101.71 44.4765L102.121 45.2114L102.515 44.5093C102.539 44.4547 102.579 44.4079 102.628 44.374C102.678 44.3402 102.736 44.3206 102.795 44.3174C102.832 44.3162 102.869 44.3231 102.903 44.3377C102.937 44.3523 102.967 44.3741 102.992 44.4016C103.019 44.4274 103.041 44.4586 103.056 44.4933C103.07 44.528 103.077 44.5653 103.076 44.6029C103.076 44.6694 103.056 44.7343 103.02 44.7902L102.608 45.4501L103.465 45.4267C103.505 45.4244 103.545 45.4307 103.582 45.4452C103.619 45.4598 103.652 45.4822 103.68 45.511C103.728 45.567 103.755 45.6384 103.755 45.7123C103.755 45.7861 103.728 45.8575 103.68 45.9135C103.652 45.9423 103.619 45.9647 103.582 45.9793C103.545 45.9938 103.505 46.0001 103.465 45.9978H102.599L102.983 46.5969C103.026 46.6692 103.05 46.7514 103.053 46.8356C103.054 46.8725 103.048 46.9093 103.035 46.9439C103.022 46.9784 103.003 47.0101 102.977 47.037C102.952 47.064 102.922 47.0857 102.888 47.1009C102.855 47.1162 102.818 47.1246 102.781 47.1258C102.723 47.1244 102.667 47.1065 102.619 47.0742C102.571 47.0418 102.533 46.9964 102.51 46.9433L102.121 46.2552L101.733 46.9433C101.71 46.9982 101.672 47.0454 101.623 47.0794C101.574 47.1134 101.516 47.1327 101.457 47.1352ZM105.754 47.1352C105.717 47.1352 105.681 47.1277 105.647 47.1133C105.613 47.0988 105.582 47.0776 105.557 47.051C105.529 47.0235 105.508 46.9906 105.493 46.9544C105.479 46.9181 105.472 46.8793 105.473 46.8403C105.475 46.7747 105.493 46.7106 105.524 46.6531L105.946 45.9978H105.084C105.045 46.0001 105.006 45.9937 104.97 45.9792C104.933 45.9646 104.9 45.9422 104.874 45.9135C104.823 45.8589 104.794 45.787 104.794 45.7123C104.794 45.6375 104.823 45.5656 104.874 45.511C104.9 45.4823 104.933 45.4599 104.97 45.4454C105.006 45.4308 105.045 45.4244 105.084 45.4267L105.932 45.4501L105.534 44.8182C105.496 44.7559 105.475 44.685 105.473 44.6123C105.472 44.574 105.478 44.5359 105.492 44.5001C105.506 44.4644 105.526 44.4318 105.553 44.4043C105.58 44.3768 105.612 44.3549 105.647 44.34C105.682 44.3251 105.72 44.3174 105.758 44.3174C105.811 44.3166 105.862 44.3313 105.906 44.3596C105.951 44.3879 105.985 44.4286 106.006 44.4765L106.418 45.2114L106.812 44.5093C106.836 44.4547 106.876 44.4079 106.925 44.374C106.975 44.3402 107.033 44.3206 107.092 44.3174C107.129 44.3162 107.166 44.3231 107.2 44.3377C107.234 44.3523 107.264 44.3741 107.289 44.4016C107.316 44.4274 107.338 44.4586 107.353 44.4933C107.367 44.528 107.374 44.5653 107.373 44.6029C107.373 44.6694 107.353 44.7343 107.317 44.7902L106.905 45.4501L107.762 45.4267C107.802 45.4244 107.841 45.4307 107.879 45.4452C107.916 45.4598 107.949 45.4822 107.977 45.511C108.025 45.567 108.052 45.6384 108.052 45.7123C108.052 45.7861 108.025 45.8575 107.977 45.9135C107.949 45.9423 107.916 45.9647 107.879 45.9793C107.841 45.9938 107.802 46.0001 107.762 45.9978H106.896L107.28 46.5969C107.323 46.6692 107.347 46.7514 107.35 46.8356C107.351 46.8725 107.345 46.9093 107.332 46.9439C107.319 46.9784 107.299 47.0101 107.274 47.037C107.249 47.064 107.219 47.0857 107.185 47.1009C107.152 47.1162 107.115 47.1246 107.078 47.1258C107.02 47.1244 106.964 47.1065 106.916 47.0742C106.868 47.0418 106.83 46.9964 106.807 46.9433L106.418 46.2552L106.03 46.9433C106.007 46.9982 105.969 47.0454 105.92 47.0794C105.871 47.1134 105.813 47.1327 105.754 47.1352ZM110.032 47.1352C109.995 47.1352 109.959 47.1277 109.925 47.1133C109.891 47.0988 109.861 47.0776 109.835 47.051C109.808 47.0235 109.786 46.9906 109.771 46.9544C109.757 46.9181 109.75 46.8793 109.751 46.8403C109.753 46.7747 109.771 46.7106 109.803 46.6531L110.224 45.9978H109.363C109.323 46.0001 109.284 45.9937 109.248 45.9792C109.211 45.9646 109.179 45.9422 109.152 45.9135C109.101 45.8589 109.073 45.787 109.073 45.7123C109.073 45.6375 109.101 45.5656 109.152 45.511C109.179 45.4823 109.211 45.4599 109.248 45.4454C109.284 45.4308 109.323 45.4244 109.363 45.4267L110.21 45.4501L109.812 44.8182C109.774 44.7559 109.753 44.685 109.751 44.6123C109.75 44.5733 109.757 44.5345 109.771 44.4982C109.786 44.462 109.808 44.4291 109.835 44.4016C109.862 44.3749 109.893 44.3536 109.927 44.3392C109.962 44.3247 109.999 44.3173 110.037 44.3174C110.089 44.3166 110.14 44.3313 110.185 44.3596C110.229 44.3879 110.264 44.4286 110.285 44.4765L110.697 45.2114L111.09 44.5093C111.115 44.4547 111.154 44.4079 111.203 44.374C111.253 44.3402 111.311 44.3206 111.371 44.3174C111.408 44.3162 111.444 44.3231 111.478 44.3377C111.512 44.3523 111.543 44.3741 111.567 44.4016C111.595 44.4274 111.616 44.4586 111.631 44.4933C111.645 44.528 111.652 44.5653 111.651 44.6029C111.651 44.6694 111.631 44.7343 111.595 44.7902L111.183 45.4501L112.04 45.4267C112.08 45.4244 112.12 45.4307 112.157 45.4452C112.194 45.4598 112.228 45.4822 112.255 45.511C112.303 45.567 112.33 45.6384 112.33 45.7123C112.33 45.7861 112.303 45.8575 112.255 45.9135C112.228 45.9423 112.194 45.9647 112.157 45.9793C112.12 45.9938 112.08 46.0001 112.04 45.9978H111.174L111.558 46.5969C111.601 46.6692 111.625 46.7514 111.628 46.8356C111.629 46.8736 111.623 46.9114 111.609 46.9468C111.596 46.9822 111.575 47.0144 111.548 47.0416C111.524 47.0679 111.494 47.0889 111.461 47.1034C111.428 47.1178 111.393 47.1255 111.357 47.1258C111.299 47.1244 111.242 47.1065 111.194 47.0742C111.146 47.0418 111.108 46.9964 111.085 46.9433L110.697 46.2552L110.308 46.9433C110.285 46.9982 110.247 47.0454 110.198 47.0794C110.149 47.1134 110.091 47.1327 110.032 47.1352Z" fill="black"/>
<path d="M124.758 57.4892H130.482M45.3578 15.3389V53.3607C45.3578 54.4619 45.7953 55.5179 46.5739 56.2965C47.3525 57.0751 48.4085 57.5126 49.5097 57.5126H119.323M45.3578 5.25659V10.9578" stroke="white" stroke-width="1.40423" stroke-linecap="round" stroke-linejoin="round"/>
</svg>
