<svg width="388" height="524" viewBox="0 0 388 524" fill="none" xmlns="http://www.w3.org/2000/svg">
<path d="M338.774 290.923H251.798C251.309 288.279 255.282 285.305 257.897 284.68C260.513 284.055 263.243 284.809 265.8 285.65C268.358 286.491 270.988 287.425 273.66 287.166C278.108 286.735 281.506 283.178 284.681 280.024C287.85 276.87 291.852 273.702 296.277 274.334C303.203 275.333 306.192 284.795 313.024 286.311C315.841 286.936 318.75 286.045 321.488 285.125C324.218 284.199 327.077 283.214 329.93 283.638C332.782 284.069 338.996 288.042 338.781 290.923H338.774ZM104.573 210.248H0.0233157C2.89713 204.213 9.47815 200.14 16.0017 201.569C19.2707 202.288 22.3313 204.098 25.6721 204.041C32.1094 203.933 36.183 197.359 41.3415 193.508C45.7385 190.218 51.4861 188.803 56.9032 189.665C62.3275 190.527 67.3495 193.659 70.5035 198.15C72.4433 200.908 74.0814 204.436 77.3504 205.241C80.6337 206.053 83.7446 203.667 86.9776 202.662C92.4379 200.966 102.072 205.104 104.565 210.256L104.573 210.248ZM187.195 15.2747H266.813C265.032 8.77988 258.997 3.17597 252.617 1.03498C246.237 -1.10601 238.823 0.129714 233.484 4.23208C229.655 7.17055 226.336 11.6824 221.515 11.8189C217.52 11.9339 214.223 8.92358 210.602 7.22804C203.008 3.67888 191.656 8.16919 187.202 15.2747H187.195ZM66.0204 422.709C65.4241 422.709 64.8996 422.271 64.799 421.667C64.6912 420.992 65.151 420.36 65.8264 420.252C66.8394 420.094 67.8668 419.864 68.887 419.57C69.548 419.376 70.2305 419.756 70.4173 420.41C70.6113 421.064 70.2305 421.754 69.5767 421.94C68.4559 422.264 67.328 422.515 66.2144 422.695C66.1497 422.702 66.085 422.709 66.0204 422.709ZM57.8372 422.494C57.7438 422.494 57.6504 422.486 57.557 422.465C56.4003 422.199 55.2795 421.833 54.2162 421.38C53.5911 421.107 53.2966 420.381 53.5696 419.756C53.8354 419.131 54.5682 418.844 55.1933 419.11C56.1201 419.505 57.1044 419.828 58.1102 420.058C58.7784 420.209 59.1879 420.87 59.037 421.538C58.9077 422.113 58.3976 422.501 57.83 422.501L57.8372 422.494ZM76.6894 418.564C76.2871 418.564 75.8847 418.363 75.6476 417.996C75.274 417.421 75.4393 416.66 76.014 416.286C76.8977 415.719 77.7527 415.086 78.5574 414.425C79.0818 413.994 79.865 414.066 80.296 414.598C80.7271 415.122 80.6553 415.905 80.1236 416.336C79.2471 417.062 78.3131 417.737 77.3504 418.363C77.142 418.499 76.9121 418.564 76.6822 418.564H76.6894ZM48.1596 416.595C47.8076 416.595 47.4627 416.444 47.2185 416.157C46.4641 415.266 45.7887 414.303 45.1996 413.283C44.8548 412.694 45.0631 411.94 45.6522 411.595C46.2414 411.257 46.9957 411.458 47.3406 412.047C47.8579 412.938 48.447 413.779 49.108 414.562C49.5463 415.086 49.4816 415.862 48.9643 416.301C48.7344 416.495 48.447 416.595 48.1668 416.595H48.1596ZM84.8151 410.503C84.5852 410.503 84.3553 410.438 84.1469 410.309C83.5722 409.942 83.4069 409.173 83.7733 408.599C84.3409 407.715 84.8438 406.795 85.2677 405.861C85.5479 405.244 86.2879 404.971 86.9058 405.251C87.5237 405.531 87.8038 406.264 87.5165 406.889C87.0423 407.923 86.4891 408.951 85.8568 409.935C85.6198 410.301 85.2246 410.503 84.8151 410.503ZM43.6981 406.134C43.0874 406.134 42.5557 405.682 42.4767 405.057C42.333 403.95 42.2611 402.801 42.2611 401.644C42.2611 400.962 42.8144 400.394 43.4969 400.394C44.1794 400.394 44.7326 400.933 44.7326 401.615V401.651C44.7326 402.7 44.7973 403.742 44.9266 404.741C45.0128 405.416 44.5386 406.041 43.8633 406.127C43.8058 406.134 43.7555 406.134 43.6981 406.134ZM88.5654 399.704C88.5151 399.704 88.4576 399.704 88.4002 399.697C87.7248 399.611 87.2506 398.986 87.3369 398.31C87.4734 397.276 87.5596 396.213 87.5883 395.156C87.6099 394.474 88.1415 393.928 88.86 393.957C89.5425 393.978 90.0813 394.546 90.0598 395.228C90.0311 396.371 89.9377 397.52 89.794 398.641C89.7149 399.266 89.1833 399.719 88.5726 399.719L88.5654 399.704ZM44.6823 394.725C44.5674 394.725 44.4524 394.711 44.3375 394.675C43.6837 394.488 43.3029 393.799 43.4969 393.145C43.813 392.06 44.1866 390.968 44.6177 389.912C44.8763 389.28 45.5948 388.971 46.227 389.229C46.8592 389.488 47.1682 390.206 46.9095 390.839C46.5144 391.816 46.1695 392.829 45.875 393.835C45.7169 394.373 45.2212 394.725 44.6895 394.725H44.6823ZM88.0841 388.238C87.5093 388.238 86.992 387.835 86.877 387.246C86.6687 386.219 86.4101 385.177 86.1083 384.15C85.9215 383.496 86.2951 382.806 86.9489 382.62C87.6027 382.433 88.2924 382.806 88.4792 383.46C88.7953 384.552 89.0683 385.659 89.291 386.751C89.4276 387.419 88.9965 388.073 88.3283 388.209C88.2421 388.223 88.1631 388.238 88.0769 388.238H88.0841ZM49.7762 384.452C49.5175 384.452 49.2589 384.373 49.0362 384.207C48.4901 383.798 48.3752 383.022 48.7847 382.476C49.4744 381.549 50.2144 380.665 50.9903 379.846C51.4573 379.351 52.2404 379.322 52.7362 379.789C53.2319 380.256 53.2607 381.039 52.7937 381.535C52.0824 382.289 51.407 383.101 50.7676 383.956C50.5233 384.279 50.1569 384.452 49.7762 384.452ZM84.2978 377.382C83.8452 377.382 83.4069 377.131 83.1914 376.692C82.7244 375.744 82.2143 374.788 81.6755 373.854C81.3378 373.265 81.5389 372.511 82.1281 372.166C82.7172 371.828 83.4716 372.03 83.8164 372.619C84.3768 373.596 84.9157 374.594 85.4042 375.593C85.706 376.204 85.4545 376.944 84.8438 377.245C84.6714 377.332 84.4846 377.375 84.2978 377.375V377.382ZM58.1533 376.606C57.7654 376.606 57.3774 376.419 57.1403 376.074C56.7523 375.514 56.8888 374.745 57.4492 374.357C58.3545 373.732 59.31 373.114 60.2871 372.532C60.8763 372.18 61.6306 372.374 61.9827 372.964C62.3347 373.553 62.1407 374.307 61.5516 374.659C60.6176 375.212 59.7124 375.801 58.8502 376.398C58.6347 376.549 58.3904 376.62 58.1461 376.62L58.1533 376.606ZM68.2763 371.139C67.795 371.139 67.3351 370.858 67.1412 370.384C66.8753 369.759 67.1699 369.034 67.8021 368.768C68.7936 368.351 69.8425 367.934 70.913 367.532C71.5524 367.295 72.2637 367.618 72.5008 368.258C72.7379 368.897 72.4146 369.608 71.7752 369.845C70.7334 370.233 69.7204 370.636 68.7577 371.038C68.5996 371.103 68.4344 371.139 68.2763 371.139ZM78.1119 367.676C77.7455 367.676 77.3863 367.518 77.142 367.209C76.4739 366.368 75.777 365.542 75.0585 364.744C74.6059 364.234 74.649 363.458 75.1519 362.999C75.662 362.546 76.4379 362.589 76.8977 363.092C77.4653 363.724 78.0257 364.385 78.5717 365.046C78.6508 365.003 78.737 364.967 78.8232 364.938C79.8865 364.629 80.957 364.342 82.0203 364.055C82.6813 363.882 83.3566 364.27 83.5291 364.931C83.7015 365.592 83.3135 366.268 82.6526 366.44C81.5964 366.72 80.5475 367.008 79.4985 367.309C79.3046 367.367 79.1106 367.374 78.931 367.338C78.9094 367.36 78.8879 367.374 78.8663 367.395C78.6364 367.575 78.3706 367.661 78.0976 367.661L78.1119 367.676ZM90.34 364.493C89.7796 364.493 89.2767 364.112 89.1402 363.545C88.9821 362.884 89.3916 362.215 90.0526 362.057L93.2569 361.289C93.9251 361.131 94.5861 361.54 94.7441 362.201C94.9022 362.862 94.4927 363.53 93.8317 363.688L90.6274 364.457C90.534 364.479 90.4334 364.493 90.34 364.493ZM101.548 361.799C100.987 361.799 100.485 361.418 100.348 360.85C100.19 360.189 100.6 359.521 101.26 359.363L104.465 358.594C105.133 358.436 105.794 358.846 105.952 359.507C106.11 360.168 105.701 360.836 105.04 360.994L101.835 361.763C101.735 361.784 101.641 361.799 101.548 361.799ZM70.1012 359.399C69.8138 359.399 69.5192 359.299 69.2893 359.09C68.499 358.393 67.6584 357.696 66.8035 356.999C66.2718 356.568 66.1928 355.792 66.6239 355.261C67.0549 354.729 67.8309 354.65 68.3625 355.081C69.2462 355.792 70.1012 356.518 70.9202 357.229C71.4303 357.675 71.4878 358.458 71.0352 358.975C70.7909 359.255 70.446 359.399 70.1084 359.399H70.1012ZM112.763 359.097C112.203 359.097 111.7 358.717 111.563 358.149C111.405 357.488 111.815 356.82 112.476 356.662L115.68 355.893C116.348 355.735 117.009 356.145 117.167 356.806C117.325 357.466 116.916 358.135 116.255 358.293L113.05 359.061C112.95 359.083 112.856 359.097 112.763 359.097ZM123.971 356.403C123.41 356.403 122.907 356.022 122.771 355.455C122.613 354.794 123.022 354.126 123.683 353.968L126.888 353.199C127.556 353.041 128.217 353.45 128.375 354.111C128.533 354.772 128.123 355.44 127.462 355.599L124.258 356.367C124.158 356.389 124.064 356.403 123.971 356.403ZM60.9768 352.365C60.7326 352.365 60.4883 352.294 60.2728 352.15C59.3747 351.532 58.4766 350.921 57.5642 350.325C56.9966 349.951 56.8385 349.183 57.2121 348.615C57.5857 348.048 58.3545 347.889 58.9221 348.263C59.8489 348.874 60.7685 349.492 61.6737 350.117C62.2341 350.505 62.3778 351.273 61.9899 351.834C61.7528 352.179 61.3648 352.365 60.9696 352.365H60.9768ZM51.2705 346.144C51.055 346.144 50.8323 346.086 50.6311 345.964C49.6971 345.396 48.756 344.836 47.8148 344.276C47.2257 343.924 47.0389 343.169 47.3837 342.58C47.7358 341.991 48.4901 341.804 49.0793 342.149C50.0276 342.709 50.9688 343.277 51.91 343.845C52.4919 344.197 52.6787 344.958 52.3267 345.54C52.0968 345.921 51.6872 346.136 51.2705 346.136V346.144ZM41.3559 340.252C41.1404 340.252 40.9248 340.195 40.7237 340.08C39.7753 339.52 38.8341 338.952 37.893 338.384C37.311 338.032 37.1242 337.271 37.4763 336.689C37.8283 336.107 38.5899 335.92 39.1718 336.272C40.1058 336.84 41.047 337.4 41.9881 337.96C42.5773 338.312 42.7641 339.067 42.4192 339.656C42.1893 340.044 41.7798 340.26 41.3559 340.26V340.252ZM31.5562 334.174C31.3191 334.174 31.082 334.11 30.8737 333.966C29.954 333.355 29.0344 332.73 28.122 332.098C27.5616 331.71 27.4251 330.941 27.8131 330.381C28.201 329.82 28.977 329.684 29.5302 330.072C30.4282 330.697 31.3263 331.308 32.2315 331.904C32.7991 332.277 32.9572 333.046 32.5836 333.614C32.3465 333.973 31.9513 334.167 31.549 334.167L31.5562 334.174ZM22.2379 327.385C21.9649 327.385 21.6918 327.291 21.4619 327.112C20.5854 326.401 19.7233 325.675 18.9043 324.964C18.3942 324.518 18.3367 323.735 18.7893 323.218C19.2347 322.701 20.0179 322.65 20.5351 323.103C21.3326 323.8 22.166 324.504 23.021 325.194C23.5526 325.625 23.6317 326.401 23.2006 326.932C22.9563 327.234 22.5971 327.392 22.2379 327.392V327.385ZM13.8104 319.525C13.4728 319.525 13.1423 319.388 12.898 319.123C12.1364 318.289 11.3892 317.441 10.6923 316.586C10.2613 316.062 10.3331 315.279 10.8576 314.848C11.3821 314.41 12.1652 314.489 12.5962 315.013C13.2716 315.832 13.9829 316.651 14.7157 317.449C15.1755 317.952 15.1467 318.735 14.6366 319.194C14.3996 319.41 14.0978 319.518 13.8032 319.518L13.8104 319.525ZM6.89891 310.322C6.47502 310.322 6.0655 310.106 5.8356 309.718C5.26084 308.748 4.70763 307.75 4.2119 306.758C3.90296 306.147 4.14723 305.407 4.75792 305.098C5.3686 304.79 6.10861 305.034 6.41754 305.644C6.89172 306.586 7.40901 307.534 7.96222 308.454C8.31426 309.043 8.12028 309.797 7.53115 310.149C7.32998 310.264 7.11444 310.322 6.89891 310.322ZM2.35829 299.768C1.81226 299.768 1.30935 299.401 1.16566 298.841C0.885459 297.756 0.64837 296.635 0.461572 295.507C0.353804 294.832 0.806431 294.2 1.48178 294.085C2.15712 293.97 2.78936 294.429 2.90431 295.105C3.07674 296.154 3.29946 297.203 3.56529 298.216C3.73772 298.877 3.34257 299.552 2.68159 299.724C2.58101 299.753 2.47324 299.768 2.37266 299.768H2.35829ZM1.2375 288.337H1.16566C0.483126 288.301 -0.0341596 287.712 0.00176299 287.037C0.0664237 285.901 0.181377 284.759 0.339437 283.653C0.44002 282.977 1.06507 282.51 1.74042 282.611C2.41576 282.711 2.88276 283.337 2.78217 284.012C2.6313 285.054 2.52353 286.117 2.46606 287.18C2.43013 287.841 1.88411 288.344 1.23032 288.344L1.2375 288.337Z" fill="white"/>
<path d="M118.798 367.561L157.091 334.167L120.041 353.45L118.798 367.561Z" fill="#EFEBFD"/>
<path d="M100.434 341.948L136.802 363.279L159.534 333.025L100.434 341.948Z" fill="white"/>
<path d="M113.503 349.607L118.798 367.561L120.041 353.45L157.091 334.167L113.503 349.607Z" fill="#D4D4F4"/>
<path d="M243.643 175.899C243.291 175.899 242.939 175.748 242.695 175.461C241.998 174.635 241.28 173.816 240.554 173.033C240.094 172.53 240.123 171.746 240.626 171.287C241.129 170.827 241.912 170.856 242.372 171.359C243.119 172.17 243.866 173.018 244.585 173.873C245.023 174.398 244.958 175.173 244.434 175.612C244.204 175.806 243.924 175.899 243.636 175.899H243.643ZM34.272 101.223H36.7435L36.7506 101.338C36.7866 102.021 36.2549 102.595 35.5724 102.631H35.5149C34.8611 102.631 34.3151 102.114 34.2792 101.453L34.272 101.223ZM235.575 167.673C235.288 167.673 234.993 167.572 234.763 167.364C233.959 166.653 233.125 165.949 232.285 165.273C231.753 164.842 231.674 164.066 232.098 163.535C232.529 163.003 233.305 162.924 233.837 163.348C234.699 164.045 235.561 164.77 236.394 165.503C236.904 165.956 236.955 166.732 236.509 167.249C236.265 167.529 235.927 167.666 235.582 167.666L235.575 167.673ZM101.383 165.259C100.707 165.259 100.154 164.713 100.147 164.03C100.14 163.348 100.693 162.787 101.375 162.787C102.259 162.78 103.157 162.751 104.041 162.708L104.601 162.68C105.298 162.644 105.866 163.161 105.909 163.843C105.952 164.526 105.428 165.108 104.752 165.151L104.177 165.18C103.258 165.23 102.317 165.252 101.397 165.259H101.39H101.383ZM93.1707 164.777C93.1204 164.777 93.0701 164.777 93.0198 164.77C91.9134 164.634 90.7998 164.469 89.7006 164.275C89.0252 164.16 88.5798 163.513 88.6947 162.845C88.8097 162.17 89.4635 161.724 90.1245 161.839C91.1806 162.026 92.2583 162.184 93.3216 162.32C93.9969 162.407 94.4783 163.024 94.3993 163.7C94.3202 164.325 93.7886 164.785 93.1779 164.785L93.1707 164.777ZM112.849 164.181C112.26 164.181 111.736 163.757 111.635 163.154C111.52 162.478 111.973 161.839 112.641 161.724C113.683 161.544 114.753 161.336 115.831 161.113C116.499 160.97 117.153 161.401 117.296 162.069C117.44 162.737 117.009 163.391 116.341 163.535C115.234 163.764 114.135 163.98 113.057 164.167C112.986 164.181 112.914 164.188 112.849 164.188V164.181ZM81.9126 162.363C81.7904 162.363 81.6683 162.349 81.5461 162.306C80.4828 161.976 79.4123 161.623 78.3634 161.243C77.724 161.013 77.3935 160.302 77.6234 159.662C77.8533 159.023 78.5646 158.685 79.204 158.922C80.2098 159.289 81.2444 159.633 82.2718 159.949C82.9256 160.151 83.292 160.84 83.0908 161.494C82.9256 162.026 82.437 162.371 81.9126 162.371V162.363ZM124.071 161.559C123.533 161.559 123.037 161.207 122.886 160.661C122.699 160.007 123.08 159.317 123.734 159.13C124.783 158.829 125.824 158.52 126.866 158.196C127.52 157.995 128.21 158.362 128.411 159.015C128.612 159.669 128.246 160.359 127.592 160.56C126.536 160.891 125.472 161.207 124.409 161.509C124.294 161.544 124.179 161.559 124.064 161.559H124.071ZM226.408 160.704C226.178 160.704 225.941 160.639 225.732 160.503C224.834 159.914 223.908 159.339 222.981 158.786C222.392 158.434 222.205 157.679 222.557 157.09C222.909 156.501 223.663 156.314 224.252 156.666C225.208 157.234 226.163 157.83 227.09 158.434C227.658 158.807 227.823 159.569 227.45 160.143C227.212 160.51 226.817 160.704 226.415 160.704H226.408ZM71.2292 158.06C71.0424 158.06 70.8484 158.017 70.676 157.923C69.6773 157.421 68.6858 156.889 67.7231 156.336C67.134 155.998 66.9185 155.244 67.2633 154.654C67.601 154.058 68.3554 153.857 68.9445 154.187C69.8713 154.719 70.834 155.229 71.7968 155.718C72.4074 156.027 72.6517 156.767 72.3428 157.377C72.1272 157.808 71.689 158.053 71.2364 158.053L71.2292 158.06ZM135.056 158.046C134.546 158.046 134.065 157.722 133.885 157.212C133.663 156.566 134.008 155.861 134.654 155.646L137.758 154.568C138.404 154.346 139.109 154.683 139.331 155.33C139.554 155.976 139.216 156.681 138.57 156.903C137.528 157.27 136.493 157.629 135.452 157.988C135.322 158.031 135.186 158.053 135.049 158.053L135.056 158.046ZM216.342 155.093C216.17 155.093 215.99 155.057 215.818 154.978C214.841 154.518 213.842 154.073 212.858 153.656C212.233 153.39 211.938 152.664 212.204 152.039C212.47 151.414 213.195 151.113 213.82 151.386C214.841 151.817 215.868 152.276 216.874 152.751C217.492 153.038 217.758 153.778 217.463 154.396C217.255 154.841 216.809 155.107 216.342 155.107V155.093ZM145.948 154.252C145.431 154.252 144.957 153.929 144.777 153.419C144.554 152.772 144.899 152.068 145.546 151.853C146.588 151.493 147.637 151.141 148.678 150.796C149.325 150.581 150.022 150.933 150.237 151.58C150.453 152.226 150.101 152.93 149.454 153.139C148.42 153.483 147.378 153.835 146.343 154.187C146.214 154.231 146.078 154.252 145.941 154.252H145.948ZM61.4295 152.011C61.1708 152.011 60.9122 151.932 60.6967 151.766C59.7986 151.098 58.9077 150.401 58.0528 149.697C57.5283 149.266 57.4493 148.483 57.8875 147.959C58.3186 147.434 59.1017 147.355 59.6262 147.793C60.4452 148.469 61.3073 149.144 62.1695 149.783C62.7155 150.193 62.8305 150.962 62.4281 151.515C62.1839 151.838 61.8103 152.011 61.4367 152.011H61.4295ZM205.609 150.911C205.486 150.911 205.364 150.89 205.242 150.854C204.215 150.531 203.166 150.229 202.124 149.941C201.463 149.762 201.075 149.086 201.255 148.426C201.434 147.765 202.11 147.377 202.771 147.556C203.841 147.844 204.919 148.16 205.982 148.49C206.636 148.691 206.995 149.388 206.794 150.042C206.629 150.567 206.14 150.911 205.616 150.911H205.609ZM156.933 150.768C156.395 150.768 155.899 150.416 155.748 149.87C155.561 149.216 155.942 148.533 156.603 148.346C157.666 148.045 158.737 147.757 159.814 147.484C160.468 147.312 161.151 147.714 161.316 148.375C161.481 149.036 161.086 149.712 160.425 149.877C159.369 150.143 158.32 150.43 157.278 150.725C157.163 150.753 157.056 150.775 156.941 150.775L156.933 150.768ZM194.401 148.232C194.336 148.232 194.264 148.224 194.192 148.217C193.129 148.038 192.044 147.879 190.981 147.743C190.305 147.657 189.824 147.039 189.91 146.364C189.997 145.688 190.622 145.214 191.29 145.293C192.389 145.43 193.503 145.595 194.602 145.782C195.277 145.897 195.73 146.529 195.615 147.204C195.514 147.808 194.99 148.239 194.401 148.239V148.232ZM168.163 148.188C167.574 148.188 167.049 147.765 166.949 147.161C166.834 146.486 167.286 145.853 167.962 145.738C168.386 145.667 168.809 145.602 169.233 145.537C169.916 145.437 170.591 145.336 171.274 145.257C171.956 145.171 172.567 145.652 172.653 146.328C172.739 147.003 172.258 147.621 171.583 147.707C170.922 147.786 170.268 147.879 169.607 147.98C169.197 148.045 168.781 148.109 168.371 148.181C168.299 148.196 168.235 148.196 168.163 148.196V148.188ZM182.927 147.132H182.898C181.813 147.111 180.736 147.104 179.658 147.125C178.968 147.161 178.415 146.593 178.401 145.911C178.386 145.228 178.932 144.668 179.615 144.654C180.729 144.632 181.842 144.639 182.963 144.661C183.645 144.675 184.184 145.243 184.17 145.925C184.156 146.601 183.602 147.132 182.934 147.132H182.927ZM52.8224 144.352C52.4919 144.352 52.1614 144.223 51.9244 143.964C51.1556 143.145 50.4084 142.304 49.69 141.457C49.2517 140.932 49.3164 140.156 49.8337 139.718C50.3581 139.28 51.1341 139.344 51.5723 139.862C52.262 140.673 52.9805 141.485 53.7205 142.276C54.1875 142.771 54.1659 143.554 53.663 144.021C53.4259 144.244 53.1242 144.359 52.8152 144.359L52.8224 144.352ZM45.7528 135.263C45.3433 135.263 44.9482 135.062 44.7111 134.689C44.1148 133.748 43.5328 132.785 42.9796 131.808C42.6419 131.211 42.8503 130.457 43.4466 130.127C44.0429 129.789 44.7973 129.997 45.1278 130.594C45.6594 131.528 46.2198 132.454 46.7946 133.36C47.161 133.934 46.9958 134.696 46.4138 135.062C46.2055 135.192 45.9756 135.256 45.7528 135.256V135.263ZM40.465 125.033C39.9765 125.033 39.5167 124.745 39.3227 124.264C38.906 123.237 38.5037 122.18 38.1301 121.131C37.9002 120.485 38.2378 119.781 38.8844 119.558C39.531 119.335 40.2351 119.666 40.4578 120.312C40.8171 121.325 41.205 122.346 41.6074 123.337C41.866 123.969 41.5643 124.688 40.932 124.946C40.7812 125.011 40.6231 125.04 40.465 125.04V125.033ZM37.038 114.04C36.4704 114.04 35.9603 113.645 35.831 113.07C35.5939 111.993 35.3784 110.886 35.1916 109.78C35.0766 109.105 35.5293 108.472 36.2046 108.357C36.88 108.25 37.5122 108.695 37.6271 109.37C37.8068 110.434 38.0151 111.504 38.245 112.546C38.3887 113.214 37.972 113.875 37.3038 114.019C37.2104 114.04 37.1242 114.048 37.038 114.048V114.04Z" fill="white"/>
<path d="M231.228 170.827L276.24 194.407L244.836 166.868L231.228 170.827Z" fill="#EFEBFD"/>
<path d="M248.443 144.424L241.747 186.058L278.187 196.274L248.443 144.424Z" fill="white"/>
<path d="M246.036 159.382L231.228 170.827L244.836 166.868L276.24 194.406L246.036 159.382Z" fill="#D4D4F4"/>
<path d="M169.082 523.321V520.225C169.578 520.016 170.167 520.146 170.519 520.577C170.95 521.101 170.871 521.884 170.347 522.315C169.93 522.653 169.506 522.991 169.082 523.321ZM175.563 516.956C175.261 516.956 174.952 516.841 174.715 516.618C174.219 516.151 174.198 515.368 174.665 514.872C175.383 514.111 176.116 513.299 176.842 512.465C177.287 511.948 178.07 511.898 178.587 512.343C179.105 512.789 179.155 513.572 178.71 514.089C177.962 514.944 177.208 515.777 176.468 516.568C176.224 516.826 175.9 516.956 175.57 516.956H175.563ZM182.927 508.09C182.668 508.09 182.41 508.011 182.187 507.846C181.641 507.436 181.526 506.66 181.935 506.114C182.589 505.245 183.229 504.361 183.868 503.478C184.263 502.924 185.039 502.795 185.592 503.197C186.146 503.593 186.275 504.368 185.873 504.922C185.226 505.82 184.572 506.718 183.911 507.601C183.667 507.925 183.3 508.097 182.92 508.097L182.927 508.09ZM189.573 498.664C189.335 498.664 189.091 498.592 188.883 498.448C188.315 498.068 188.172 497.299 188.552 496.731L190.399 494.001C190.78 493.434 191.548 493.29 192.116 493.671C192.683 494.051 192.827 494.82 192.446 495.388L190.6 498.118C190.363 498.47 189.975 498.657 189.58 498.657L189.573 498.664ZM196.089 489.152C195.845 489.152 195.593 489.08 195.378 488.922C194.817 488.527 194.688 487.758 195.083 487.197C195.521 486.58 195.96 485.969 196.398 485.358L197.023 484.503C197.425 483.95 198.201 483.835 198.747 484.237C199.3 484.64 199.415 485.416 199.013 485.962L198.402 486.802C197.964 487.406 197.533 488.009 197.102 488.62C196.858 488.958 196.477 489.144 196.089 489.144V489.152ZM203.108 480.006C202.828 480.006 202.541 479.912 202.311 479.711C201.793 479.266 201.729 478.49 202.167 477.972C202.9 477.103 203.647 476.263 204.373 475.465C204.832 474.962 205.616 474.926 206.119 475.386C206.621 475.846 206.657 476.629 206.198 477.132C205.493 477.908 204.768 478.727 204.049 479.575C203.805 479.862 203.46 480.013 203.108 480.013V480.006ZM211.14 471.743C210.796 471.743 210.458 471.6 210.214 471.327C209.761 470.817 209.811 470.034 210.329 469.581C211.176 468.834 212.046 468.108 212.908 467.433C213.447 467.009 214.223 467.102 214.639 467.641C215.063 468.18 214.97 468.956 214.431 469.38C213.605 470.034 212.771 470.723 211.952 471.442C211.715 471.65 211.428 471.751 211.133 471.751L211.14 471.743ZM220.509 465.069C220.071 465.069 219.654 464.839 219.424 464.43C219.094 463.833 219.309 463.079 219.906 462.748C220.904 462.202 221.917 461.685 222.93 461.225C223.548 460.938 224.281 461.211 224.568 461.836C224.849 462.454 224.583 463.187 223.958 463.474C223.002 463.912 222.039 464.394 221.098 464.918C220.911 465.026 220.703 465.069 220.502 465.069H220.509ZM288.503 464.178C287.842 464.178 287.296 463.654 287.268 462.993C287.239 462.31 287.771 461.735 288.453 461.714C289.552 461.671 290.63 461.599 291.672 461.506C292.354 461.441 292.951 461.944 293.015 462.619C293.08 463.302 292.584 463.898 291.902 463.963C290.817 464.063 289.689 464.142 288.547 464.185H288.496L288.503 464.178ZM280.277 464.027H280.191C279.085 463.948 277.971 463.855 276.872 463.747C276.189 463.682 275.701 463.072 275.765 462.396C275.83 461.714 276.441 461.225 277.116 461.29C278.194 461.398 279.279 461.491 280.363 461.563C281.046 461.606 281.556 462.202 281.513 462.878C281.47 463.532 280.924 464.027 280.284 464.027H280.277ZM268.832 462.677C268.768 462.677 268.703 462.669 268.638 462.662C267.553 462.497 266.469 462.317 265.376 462.145C264.701 462.037 264.241 461.405 264.349 460.73C264.457 460.054 265.089 459.594 265.764 459.702C266.849 459.875 267.934 460.047 269.012 460.22C269.687 460.327 270.147 460.959 270.046 461.628C269.953 462.238 269.429 462.677 268.825 462.677H268.832ZM299.891 462.504C299.352 462.504 298.856 462.145 298.698 461.599C298.511 460.938 298.899 460.263 299.553 460.076C300.588 459.788 301.608 459.458 302.585 459.092C303.225 458.854 303.936 459.178 304.173 459.817C304.41 460.457 304.087 461.168 303.447 461.405C302.406 461.793 301.313 462.152 300.214 462.461C300.099 462.49 299.992 462.504 299.884 462.504H299.891ZM231.228 460.938C230.668 460.938 230.158 460.55 230.029 459.982C229.878 459.314 230.287 458.653 230.955 458.502C232.033 458.251 233.154 458.035 234.275 457.863C234.943 457.762 235.582 458.222 235.683 458.898C235.791 459.573 235.324 460.205 234.648 460.306C233.585 460.471 232.522 460.672 231.501 460.909C231.408 460.931 231.315 460.938 231.221 460.938H231.228ZM257.438 460.902C257.38 460.902 257.323 460.895 257.265 460.888C256.187 460.737 255.103 460.593 254.025 460.457C253.35 460.37 252.868 459.76 252.947 459.077C253.026 458.402 253.651 457.913 254.327 457.999C255.426 458.136 256.518 458.28 257.617 458.438C258.293 458.531 258.76 459.156 258.666 459.832C258.58 460.449 258.048 460.895 257.445 460.895L257.438 460.902ZM245.964 459.767H245.914C244.893 459.724 243.888 459.702 242.925 459.702H242.681C241.962 459.688 241.445 459.156 241.438 458.474C241.438 457.791 241.984 457.238 242.666 457.231H242.925C243.923 457.231 244.965 457.252 246.021 457.295C246.704 457.324 247.236 457.899 247.207 458.581C247.178 459.242 246.632 459.767 245.971 459.767H245.964ZM310.308 457.691C309.921 457.691 309.533 457.504 309.295 457.159C308.908 456.599 309.044 455.83 309.604 455.442C310.459 454.845 311.307 454.199 312.105 453.509C312.622 453.064 313.405 453.121 313.843 453.638C314.289 454.156 314.231 454.939 313.707 455.377C312.837 456.124 311.932 456.828 311.005 457.468C310.79 457.619 310.546 457.691 310.301 457.691H310.308ZM318.463 449.63C318.211 449.63 317.953 449.55 317.737 449.392C317.184 448.99 317.069 448.214 317.471 447.668C318.089 446.828 318.686 445.929 319.253 445.017C319.612 444.435 320.374 444.255 320.956 444.615C321.538 444.974 321.718 445.735 321.358 446.317C320.755 447.295 320.123 448.243 319.469 449.134C319.224 449.464 318.851 449.637 318.47 449.637L318.463 449.63ZM323.995 439.542C323.837 439.542 323.679 439.514 323.528 439.449C322.896 439.19 322.594 438.472 322.853 437.84C323.248 436.863 323.629 435.85 323.988 434.815C324.211 434.168 324.915 433.824 325.561 434.046C326.208 434.269 326.553 434.973 326.33 435.62C325.964 436.69 325.561 437.753 325.152 438.766C324.958 439.248 324.498 439.535 324.009 439.535L323.995 439.542ZM327.343 428.521C327.257 428.521 327.171 428.514 327.084 428.493C326.416 428.349 325.992 427.695 326.136 427.027C326.337 426.1 326.517 425.173 326.682 424.254L326.754 423.844C326.869 423.169 327.508 422.723 328.184 422.838C328.859 422.953 329.304 423.593 329.189 424.268L329.118 424.685C328.945 425.64 328.758 426.596 328.557 427.551C328.435 428.133 327.918 428.529 327.35 428.529L327.343 428.521ZM329.082 417.127C329.039 417.127 328.995 417.127 328.945 417.12C328.27 417.048 327.774 416.437 327.846 415.762C327.961 414.677 328.069 413.592 328.169 412.5C328.234 411.817 328.845 411.322 329.513 411.379C330.195 411.444 330.691 412.04 330.634 412.723C330.533 413.822 330.425 414.921 330.31 416.02C330.246 416.653 329.707 417.127 329.082 417.127ZM330.095 405.639C330.059 405.639 330.03 405.639 329.994 405.631C329.312 405.574 328.809 404.978 328.866 404.302C328.909 403.771 328.952 403.232 328.995 402.7C328.334 402.7 327.673 402.7 327.013 402.686C326.33 402.679 325.784 402.118 325.798 401.436C325.806 400.753 326.373 400.193 327.048 400.222C327.875 400.236 328.694 400.236 329.52 400.229C329.771 399.992 330.116 399.862 330.483 399.891C331.165 399.949 331.668 400.552 331.603 401.227C331.51 402.319 331.417 403.411 331.33 404.504C331.28 405.15 330.734 405.639 330.102 405.639H330.095ZM338.544 402.348C337.897 402.348 337.358 401.852 337.315 401.199C337.272 400.516 337.782 399.927 338.465 399.884C339.557 399.812 340.642 399.726 341.726 399.625C342.416 399.561 343.005 400.071 343.063 400.746C343.12 401.429 342.617 402.025 341.942 402.082C340.843 402.176 339.736 402.262 338.637 402.341H338.551L338.544 402.348ZM318.801 402.255C318.765 402.255 318.722 402.255 318.686 402.248C317.565 402.14 316.451 402.018 315.366 401.874C314.691 401.788 314.21 401.163 314.303 400.487C314.389 399.812 315.014 399.331 315.69 399.424C316.746 399.561 317.831 399.683 318.923 399.783C319.605 399.848 320.101 400.451 320.036 401.127C319.979 401.766 319.44 402.248 318.808 402.248L318.801 402.255ZM350.017 401.184C349.414 401.184 348.882 400.739 348.796 400.121C348.703 399.446 349.177 398.821 349.852 398.727C350.923 398.576 352 398.411 353.071 398.231C353.739 398.116 354.378 398.569 354.493 399.237C354.608 399.913 354.156 400.552 353.487 400.667C352.388 400.854 351.289 401.019 350.19 401.177C350.132 401.184 350.075 401.191 350.017 401.191V401.184ZM307.427 400.416C307.334 400.416 307.234 400.401 307.14 400.38C306.048 400.121 304.956 399.834 303.9 399.532C303.246 399.345 302.865 398.662 303.052 398.002C303.239 397.348 303.921 396.967 304.582 397.154C305.603 397.448 306.659 397.721 307.715 397.973C308.376 398.131 308.793 398.799 308.635 399.46C308.498 400.028 307.995 400.408 307.435 400.408L307.427 400.416ZM361.304 398.871C360.765 398.871 360.277 398.519 360.119 397.98C359.932 397.326 360.306 396.636 360.959 396.45C362.008 396.141 363.043 395.81 364.02 395.458C364.667 395.228 365.371 395.566 365.601 396.205C365.831 396.845 365.493 397.556 364.853 397.786C363.826 398.152 362.748 398.504 361.649 398.821C361.534 398.856 361.419 398.871 361.304 398.871ZM296.485 396.823C296.32 396.823 296.155 396.787 295.997 396.723C294.977 396.284 293.949 395.81 292.951 395.314C292.34 395.013 292.089 394.273 292.39 393.662C292.692 393.051 293.432 392.8 294.043 393.102C295.013 393.576 295.997 394.036 296.974 394.452C297.599 394.718 297.886 395.451 297.621 396.076C297.419 396.543 296.967 396.823 296.485 396.823ZM371.901 394.395C371.478 394.395 371.068 394.179 370.838 393.791C370.493 393.202 370.68 392.448 371.269 392.096C372.189 391.55 373.08 390.968 373.927 390.35C374.481 389.948 375.249 390.077 375.652 390.623C376.054 391.176 375.932 391.945 375.379 392.347C374.473 393.001 373.518 393.633 372.534 394.215C372.332 394.33 372.117 394.388 371.901 394.388V394.395ZM331.244 394.165C331.187 394.165 331.136 394.165 331.079 394.151C330.404 394.064 329.929 393.439 330.016 392.764C330.159 391.665 330.317 390.566 330.497 389.473C330.605 388.798 331.237 388.338 331.912 388.446C332.588 388.554 333.048 389.186 332.94 389.861C332.767 390.932 332.609 392.01 332.473 393.087C332.394 393.712 331.862 394.165 331.251 394.165H331.244ZM286.362 391.349C286.125 391.349 285.888 391.284 285.68 391.14C284.753 390.53 283.834 389.883 282.928 389.222C282.375 388.82 282.26 388.044 282.662 387.498C283.065 386.952 283.841 386.83 284.387 387.232C285.256 387.871 286.147 388.496 287.038 389.086C287.605 389.459 287.763 390.228 287.39 390.795C287.153 391.155 286.758 391.349 286.355 391.349H286.362ZM380.544 386.88C380.279 386.88 380.013 386.794 379.79 386.621C379.251 386.205 379.151 385.429 379.567 384.89C380.207 384.056 380.81 383.18 381.349 382.289C381.701 381.707 382.463 381.513 383.045 381.865C383.627 382.217 383.821 382.979 383.469 383.561C382.879 384.538 382.233 385.486 381.529 386.399C381.284 386.715 380.918 386.88 380.552 386.88H380.544ZM277.339 384.193C277.037 384.193 276.728 384.078 276.491 383.855C275.686 383.094 274.882 382.303 274.106 381.499C273.631 381.01 273.646 380.227 274.134 379.753C274.623 379.279 275.406 379.293 275.88 379.782C276.627 380.557 277.403 381.319 278.179 382.052C278.675 382.519 278.704 383.302 278.23 383.798C277.985 384.056 277.655 384.186 277.332 384.186L277.339 384.193ZM333.414 382.849C333.306 382.849 333.198 382.835 333.091 382.806C332.43 382.627 332.042 381.951 332.221 381.29C332.516 380.198 332.832 379.121 333.177 378.072C333.385 377.425 334.082 377.066 334.736 377.274C335.382 377.483 335.742 378.179 335.533 378.833C335.21 379.839 334.901 380.881 334.614 381.937C334.463 382.49 333.967 382.849 333.421 382.849H333.414ZM385.538 376.577C385.444 376.577 385.351 376.563 385.25 376.541C384.589 376.383 384.173 375.722 384.331 375.054C384.575 374.027 384.74 372.992 384.826 371.979C384.884 371.297 385.48 370.801 386.163 370.851C386.845 370.909 387.348 371.505 387.291 372.188C387.197 373.315 387.01 374.472 386.737 375.615C386.601 376.182 386.098 376.57 385.538 376.57V376.577ZM269.651 375.622C269.278 375.622 268.911 375.449 268.667 375.133C267.992 374.242 267.338 373.33 266.706 372.41C266.318 371.85 266.469 371.081 267.029 370.693C267.589 370.305 268.358 370.456 268.746 371.016C269.35 371.9 269.982 372.784 270.636 373.646C271.045 374.192 270.937 374.968 270.398 375.377C270.176 375.55 269.917 375.629 269.651 375.629V375.622ZM337.423 372.051C337.236 372.051 337.056 372.008 336.877 371.922C336.266 371.62 336.015 370.88 336.316 370.269C336.819 369.249 337.358 368.243 337.911 367.295C338.256 366.706 339.011 366.505 339.6 366.849C340.189 367.194 340.39 367.949 340.045 368.538C339.521 369.443 339.011 370.399 338.529 371.368C338.314 371.807 337.876 372.058 337.423 372.058V372.051ZM263.508 365.872C263.063 365.872 262.632 365.628 262.409 365.204C261.899 364.213 261.403 363.192 260.944 362.187C260.663 361.569 260.936 360.836 261.554 360.549C262.172 360.268 262.905 360.541 263.192 361.159C263.638 362.129 264.112 363.113 264.601 364.069C264.917 364.672 264.672 365.42 264.069 365.736C263.889 365.829 263.695 365.872 263.501 365.872H263.508ZM385.056 365.211C384.553 365.211 384.072 364.895 383.892 364.392C383.727 363.933 383.54 363.473 383.332 363.027C383.109 362.546 382.865 362.079 382.592 361.626C382.247 361.037 382.441 360.283 383.03 359.931C383.619 359.586 384.374 359.78 384.726 360.362C385.035 360.879 385.322 361.425 385.581 361.978C385.818 362.488 386.033 363.02 386.227 363.552C386.457 364.191 386.127 364.902 385.48 365.132C385.344 365.183 385.2 365.204 385.063 365.204L385.056 365.211ZM343.774 362.467C343.479 362.467 343.185 362.366 342.955 362.151C342.445 361.698 342.402 360.915 342.854 360.405C343.616 359.55 344.421 358.731 345.24 357.969C345.743 357.502 346.518 357.531 346.985 358.034C347.452 358.537 347.424 359.313 346.921 359.78C346.159 360.484 345.412 361.253 344.701 362.05C344.457 362.323 344.119 362.46 343.781 362.46L343.774 362.467ZM377.987 356.36C377.757 356.36 377.52 356.295 377.311 356.159C376.464 355.606 375.551 355.103 374.596 354.672C373.971 354.391 373.698 353.659 373.978 353.034C374.258 352.409 374.991 352.136 375.616 352.416C376.694 352.904 377.714 353.465 378.669 354.09C379.237 354.463 379.395 355.232 379.021 355.8C378.784 356.159 378.389 356.36 377.987 356.36ZM352.776 355.361C352.324 355.361 351.893 355.117 351.677 354.686C351.368 354.075 351.612 353.335 352.216 353.026C353.229 352.509 354.299 352.056 355.399 351.676C356.045 351.453 356.749 351.791 356.972 352.437C357.195 353.084 356.857 353.788 356.21 354.011C355.219 354.356 354.249 354.765 353.337 355.232C353.157 355.325 352.97 355.369 352.776 355.369V355.361ZM259.162 355.21C258.63 355.21 258.142 354.866 257.984 354.334C257.66 353.271 257.359 352.179 257.086 351.094C256.92 350.433 257.323 349.765 257.984 349.599C258.645 349.434 259.313 349.836 259.478 350.497C259.737 351.539 260.031 352.588 260.34 353.608C260.541 354.262 260.175 354.952 259.521 355.153C259.399 355.189 259.277 355.21 259.162 355.21ZM367.174 352.725C367.138 352.725 367.095 352.725 367.059 352.717C366.024 352.624 364.968 352.588 363.919 352.617C363.273 352.631 362.669 352.1 362.648 351.417C362.626 350.735 363.165 350.167 363.848 350.145C364.997 350.117 366.154 350.153 367.289 350.26C367.971 350.325 368.467 350.929 368.403 351.604C368.345 352.243 367.806 352.725 367.174 352.725Z" fill="white"/>
<path d="M257.416 373.129L223.649 324.109L260.096 356.741L257.416 373.129Z" fill="#EFEBFD"/>
<path d="M285.687 349.384L238.219 363.034L221.206 322.104L285.687 349.384Z" fill="white"/>
<path d="M268.631 354.291L257.416 373.129L260.096 356.741L223.649 324.109L268.631 354.291Z" fill="#D4D4F4"/>
</svg>
