<svg width="197" height="177" viewBox="0 0 197 177" fill="none" xmlns="http://www.w3.org/2000/svg">
<path d="M196.962 50.9459C196.954 49.7728 195.378 49.3897 194.835 50.4312C189.612 60.4825 175.092 86.411 158.584 98.3298C131.706 117.742 109.026 153.634 118.83 176.726C118.83 176.726 197.8 178.601 196.958 50.9459H196.962Z" fill="#31DB9D"/>
<path d="M150.396 140.754C150.404 140.143 150.416 139.529 150.42 138.906C152.252 136.464 154.035 133.982 155.783 131.481C158.636 127.383 161.322 123.173 163.983 118.947C169.27 110.468 174.098 101.713 178.687 92.8352C180.969 88.3901 183.164 83.8971 185.279 79.3682C186.34 77.1058 187.382 74.8313 188.391 72.5449L189.88 69.1054L190.606 67.3776L190.961 66.5117C191.073 66.2244 191.196 65.9212 191.284 65.6658L191.3 65.6219C191.328 65.5421 191.404 65.4902 191.484 65.4902C191.504 65.4902 191.528 65.4942 191.548 65.5022C191.647 65.5341 191.699 65.6419 191.675 65.7416C191.575 66.0848 191.464 66.3601 191.36 66.6594L191.029 67.5412L190.354 69.2969C189.896 70.4621 189.417 71.6192 188.942 72.7804C187.98 75.0947 186.991 77.3931 185.981 79.6874C183.95 84.2682 181.795 88.7931 179.573 93.2821C177.358 97.7751 175.016 102.208 172.582 106.59C170.144 110.967 167.642 115.316 165.001 119.578C160.496 126.876 155.647 133.966 150.396 140.758V140.754Z" fill="#D9E4FD"/>
<path d="M165.18 1.3594C164.853 0.286031 163.305 0.365837 163.089 1.46714C161.042 12.1091 154.798 39.8451 142.915 55.2832C123.562 80.4177 112.553 119.522 127.844 138.02C127.844 138.02 200.777 118.197 165.18 1.3594Z" fill="#006680"/>
<path d="M150.759 85.8683C150.756 84.6273 150.752 83.3824 150.744 82.1454C151.701 79.0171 152.599 75.8648 153.481 72.7125C156.015 63.4951 158.058 54.15 159.841 44.7531C160.723 40.0526 161.509 35.3362 162.215 30.6037C162.571 28.2375 162.906 25.8713 163.209 23.4972L163.636 19.9339L163.831 18.1543L163.919 17.2644C163.943 16.9692 163.975 16.6579 163.983 16.4026V16.3587C163.987 16.2549 164.071 16.1751 164.175 16.1751H164.183C164.286 16.1791 164.366 16.2629 164.366 16.3627C164.366 16.7058 164.342 16.9891 164.326 17.2924L164.266 18.1902L164.123 19.9818C164.019 21.1788 163.899 22.3679 163.78 23.561C163.528 25.9432 163.249 28.3253 162.95 30.7035C162.339 35.4559 161.597 40.1962 160.783 44.9207C159.977 49.6491 159.039 54.3496 158.002 59.0341C156.96 63.7146 155.851 68.3832 154.59 73.0118C153.425 77.3292 152.148 81.6147 150.748 85.8643L150.759 85.8683Z" fill="#C0D4FC"/>
<path fill-rule="evenodd" clip-rule="evenodd" d="M110.865 176.813C84.1268 176.813 53.9088 175.928 41.0843 175.509C37.4931 175.393 34.6161 172.508 34.5004 168.917C34.4007 165.757 34.3288 162.054 34.2849 157.924C33.838 117.77 35.7294 36.7846 36.3519 11.6422C36.4636 7.10535 40.0109 3.39844 44.5358 3.10715C48.119 2.87572 52.233 2.77197 56.718 2.77197C83.644 2.77197 123.762 6.48687 140.341 8.14281C144.83 8.58971 148.353 12.1689 148.732 16.6619C149.359 24.0518 149.806 33.1695 150.121 43.2647C150.496 55.2593 150.68 68.6306 150.74 82.1454C150.744 83.3864 150.752 84.6274 150.755 85.8683C150.791 98.9922 150.72 112.14 150.6 124.166C150.548 129.314 150.488 134.258 150.42 138.906C150.412 139.529 150.404 140.143 150.396 140.754C150.253 150.602 150.097 159.029 149.969 165.134C149.953 165.952 149.85 166.75 149.67 167.52C148.517 172.428 144.212 176.123 138.98 176.343C130.912 176.682 121.148 176.813 110.865 176.813ZM84.4979 6.3113C83.5522 6.3113 82.6384 6.32327 81.7765 6.35519C80.9187 6.38711 80.2443 7.09737 80.2443 7.95527C80.2443 8.80519 80.9067 9.50746 81.7566 9.55136C85.9503 9.77082 97.7693 10.3933 103.048 10.7005H103.144C104.138 10.7005 104.9 9.79077 104.708 8.8012L104.676 8.62563C104.541 7.92734 103.962 7.40063 103.252 7.33679C100.112 7.04949 91.401 6.31529 84.4939 6.31529L84.4979 6.3113Z" fill="#74309D"/>
<path d="M43.5702 20.2611C42.6006 42.9694 39.5401 118.52 40.5137 146.46C40.6573 150.542 43.8734 153.846 47.9514 154.085C64.7463 155.067 107.821 157.233 132.452 155.262C136.889 154.907 140.369 151.32 140.608 146.875C141.857 123.708 145.441 53.356 144.511 25.7357C144.363 21.3265 140.948 17.7273 136.558 17.3363C118.391 15.7043 71.7252 11.8258 50.7965 12.967C46.8661 13.1824 43.7418 16.3347 43.5742 20.2651L43.5702 20.2611Z" fill="#AD49EB"/>
<path fill-rule="evenodd" clip-rule="evenodd" d="M103.144 10.7005H103.048C97.7693 10.3933 85.9503 9.77479 81.7566 9.55134C80.9067 9.50744 80.2443 8.80517 80.2443 7.95525C80.2443 7.09735 80.9186 6.38709 81.7765 6.35517C82.6384 6.32325 83.5482 6.31128 84.4979 6.31128C91.4049 6.31128 100.116 7.04548 103.256 7.33277C103.966 7.39662 104.545 7.92333 104.68 8.62162L104.712 8.79719C104.904 9.79075 104.142 10.6965 103.148 10.6965L103.144 10.7005Z" fill="url(#paint0_linear_28_557)"/>
<path d="M127.229 102.148L55.8281 100.776C53.5018 100.732 51.7461 103.441 51.9417 106.801C52.1332 110.125 54.5592 111.126 56.8417 111.095L126.694 111.653C128.127 111.633 129.4 109.53 129.559 106.941C129.719 104.331 128.686 102.176 127.233 102.148H127.229ZM127.425 124.051L56.0197 122.682C53.6934 122.638 51.9377 125.348 52.1332 128.707C52.3247 132.031 54.7508 133.033 57.0332 133.001L126.886 133.559C128.318 133.54 129.591 131.437 129.751 128.847C129.911 126.237 128.877 124.083 127.429 124.055L127.425 124.051Z" fill="#FFDB4D"/>
<path fill-rule="evenodd" clip-rule="evenodd" d="M32.8205 81.3912C32.8205 81.3912 30.7217 82.4127 30.3346 83.5859C30.0234 84.5275 27.7051 84.6473 27.4736 86.4987C27.3539 87.4564 26.6477 88.2185 25.698 88.3661C23.3278 88.7292 19.6767 89.9582 19.0902 94.0762C18.6433 97.2165 20.2434 98.4095 21.9272 98.8205C23.1602 99.1238 23.9822 100.325 23.7308 101.57C23.4914 102.767 23.8465 104.147 25.9174 105.237C30.5581 107.687 35.1907 99.435 35.1907 99.435L36.1404 85.0343L32.8165 81.3912H32.8205Z" fill="#701D33"/>
<path fill-rule="evenodd" clip-rule="evenodd" d="M58.0666 77.9796C58.0666 77.9796 48.8053 92.6317 37.7883 95.4608C37.7883 95.4608 39.9351 101.574 41.591 102.272C41.591 102.272 55.1418 90.9638 58.6253 80.0585L58.0666 77.9756V77.9796Z" fill="url(#paint1_linear_28_557)"/>
<path fill-rule="evenodd" clip-rule="evenodd" d="M13.7513 171.694L13.452 174.164C13.3961 174.631 13.025 175.002 12.5582 175.054C11.7681 175.146 10.4992 175.237 9.25427 175.106C8.70761 175.05 8.35648 174.495 8.52007 173.972C8.82333 173.019 9.37797 171.59 10.176 170.748H12.9133C13.4201 170.748 13.8111 171.191 13.7513 171.694Z" fill="url(#paint2_linear_28_557)"/>
<path fill-rule="evenodd" clip-rule="evenodd" d="M35.1947 142.781L35.6576 145.498C35.6576 145.498 34.1094 161.172 33.834 167.444C33.7901 168.426 34.0455 169.4 34.5603 170.238L37.2497 174.607L30.4104 170.573L30.2748 169.739L31.396 168.199L29.9276 150.638C29.8398 149.604 30.0553 148.571 30.5421 147.657L31.9546 144.999L35.1907 142.781H35.1947Z" fill="url(#paint3_linear_28_557)"/>
<path fill-rule="evenodd" clip-rule="evenodd" d="M37.7045 175.241H35.5219C35.1149 175.241 34.7278 175.054 34.4804 174.731C33.8021 173.849 32.3896 172.121 31.7152 172.077C30.8094 172.017 30.9252 175.241 30.9252 175.241H30.4184L29.776 171.235C29.6124 170.226 30.1151 169.228 31.0209 168.753C31.0209 168.753 31.2284 170.285 32.3537 170.964C33.4789 171.642 36.9304 174.072 36.9304 174.072C36.9304 174.072 37.3534 174.012 37.8163 174.096C38.5066 174.22 38.4108 175.241 37.7085 175.241H37.7045Z" fill="url(#paint4_linear_28_557)"/>
<path fill-rule="evenodd" clip-rule="evenodd" d="M25.8297 144.074C25.8297 144.074 16.7639 161.272 15.3234 165.198C13.8829 169.124 13.3762 172.4 13.3562 172.711C13.3243 173.194 12.7218 173.661 11.0619 173.661C10.204 173.661 9.78498 173.318 9.57749 172.987C9.40192 172.704 9.39394 172.348 9.54158 172.049C10.0643 170.988 11.7282 167.596 12.3467 166.056C13.0809 164.22 14.665 155.897 15.5349 153.004C16.4048 150.111 17.3824 146.971 21.1651 144.078C21.1651 144.078 23.7587 141.536 25.8297 144.078V144.074Z" fill="url(#paint5_linear_28_557)"/>
<path fill-rule="evenodd" clip-rule="evenodd" d="M31.5556 115.895C33.8939 105.987 27.9684 100.381 27.9684 100.381C31.7073 96.7935 38.5186 95.1615 38.5186 95.1615C38.5186 95.1615 45.0186 99.9138 44.2445 103.633C43.7936 105.811 39.6757 116.689 39.6757 116.689C39.6757 116.689 35.8691 118.492 31.5516 115.899L31.5556 115.895Z" fill="#F03F6D"/>
<path fill-rule="evenodd" clip-rule="evenodd" d="M26.3723 120.799C27.326 117.93 31.5556 115.891 31.5556 115.891C35.873 118.484 39.6797 116.681 39.6797 116.681C39.6797 116.681 40.5336 119.945 39.9431 122.977C39.3525 126.01 35.6576 145.498 35.6576 145.498C29.8318 146.679 20.8738 144.309 20.8738 144.309C24.5847 137.721 25.4187 123.664 26.3683 120.795L26.3723 120.799Z" fill="#C88FEB"/>
<path fill-rule="evenodd" clip-rule="evenodd" d="M34.269 88.6096L32.3656 97.1487C32.1821 97.9028 32.8684 97.7791 33.6305 97.6355C34.8755 97.4 36.4835 96.9172 37.0182 95.9476C37.0741 95.8478 37.102 95.7361 37.114 95.6244L37.932 89.7029C37.9958 89.2321 37.7405 88.7772 37.3095 88.5856L35.7334 87.8874C35.1269 87.62 34.4246 87.9632 34.269 88.6096Z" fill="url(#paint6_linear_28_557)"/>
<path fill-rule="evenodd" clip-rule="evenodd" d="M37.912 80.8246C37.912 80.8246 39.9351 82.1933 40.8049 85.6847C41.6748 89.1722 40.2623 90.4251 38.8138 90.3493C37.3654 90.2735 35.2625 89.8266 33.443 87.3207C31.6234 84.8188 35.2585 79.1527 37.912 80.8246Z" fill="url(#paint7_linear_28_557)"/>
<path fill-rule="evenodd" clip-rule="evenodd" d="M35.2785 85.9122C35.2785 85.9122 34.5363 80.9124 38.6861 81.6785L39.5241 82.5524C39.5241 82.5524 41.5551 80.262 39.3086 78.5343C37.0621 76.8025 33.9378 77.2494 32.214 80.3977C30.4862 83.546 29.8598 85.7605 31.3082 87.7158C32.7567 89.671 33.842 87.9951 33.842 87.9951C33.842 87.9951 33.1796 86.3032 33.7303 85.573C34.2809 84.8468 34.9912 85.996 34.9912 85.996L35.2785 85.9122Z" fill="#701D33"/>
<path fill-rule="evenodd" clip-rule="evenodd" d="M34.7119 86.3391C34.7119 86.3391 34.3448 83.7654 33.032 84.5036C31.7192 85.2378 33.5068 86.9057 34.2211 87.4723L34.7119 86.3391Z" fill="url(#paint8_linear_28_557)"/>
<path fill-rule="evenodd" clip-rule="evenodd" d="M58.0028 80.9962C58.0307 81.2995 56.9055 81.507 56.5504 80.2181C56.6501 79.6595 56.8217 77.2095 57.2526 76.8264C59.5351 74.7994 63.6091 72.521 63.6091 72.521C64.064 73.2153 63.4654 73.6742 63.4654 73.6742L61.4304 75.0468C61.6419 75.7491 61.9531 76.3716 61.985 77.1736C62.013 77.7801 61.7895 78.3747 61.3865 78.8375C60.9795 79.3004 60.4368 79.8989 59.946 80.3498C59.0163 81.2077 57.9988 80.9962 57.9988 80.9962H58.0028Z" fill="url(#paint9_linear_28_557)"/>
<path fill-rule="evenodd" clip-rule="evenodd" d="M59.1081 79.9947L58.8008 79.867C58.8447 79.7673 59.8184 77.3931 60.2892 76.9023C60.4688 76.7147 60.5565 76.5551 60.5486 76.4235C60.5446 76.3516 60.5087 76.2838 60.4448 76.212L58.7969 77.0938L58.0706 78.231L57.7913 78.0515L58.5654 76.8384L60.4927 75.809L60.5805 75.8808C60.776 76.0404 60.8758 76.212 60.8877 76.4035C60.8997 76.6309 60.788 76.8704 60.5366 77.1337C60.1815 77.5048 59.3914 79.3243 59.1161 79.9947H59.1081Z" fill="url(#paint10_linear_28_557)"/>
<path fill-rule="evenodd" clip-rule="evenodd" d="M27.9684 100.381C27.9684 100.381 17.4422 121.992 13.6316 123.883C13.6316 123.883 9.76104 124.286 7.39085 125.004C6.7963 125.184 6.81625 126.03 7.41479 126.193C9.06275 126.644 11.796 127.019 14.3019 125.659C14.3019 125.659 12.9572 127.674 13.7433 128.46C13.7433 128.46 15.5389 126.329 16.2092 125.659C16.7998 125.068 27.5814 113.313 32.1103 106.226C32.4774 105.652 32.222 103.952 31.9666 103.321C31.3801 101.869 30.0832 99.5547 27.9644 100.381H27.9684Z" fill="url(#paint11_linear_28_557)"/>
<path fill-rule="evenodd" clip-rule="evenodd" d="M124.065 56.197C124.065 73.6343 109.928 87.7676 92.4943 87.7676C75.057 87.7676 60.9236 73.6343 60.9236 56.197C60.9236 38.7597 75.061 24.6224 92.4943 24.6224C109.932 24.6224 124.065 38.7597 124.065 56.197Z" fill="#FFDB4D"/>
<path d="M3.33279 57.6255C3.23703 57.6295 3.14525 57.5776 3.10136 57.4898C2.94973 57.1985 2.80608 56.8993 2.66642 56.6C2.61056 56.4763 2.66642 56.3327 2.79012 56.2768C3.09338 56.1411 3.14126 56.4803 3.54427 57.2704C3.60812 57.3901 3.55624 57.5377 3.43255 57.5976C3.40063 57.6135 3.36471 57.6215 3.3288 57.6255H3.33279ZM26.5519 22.8906C24.6805 22.7988 24.4091 23.0023 24.4012 22.6313C24.3932 22.3958 24.6725 22.3679 24.6446 22.3799C25.287 22.3639 25.9374 22.3719 26.5798 22.4038C26.7155 22.4078 26.8232 22.5235 26.8152 22.6592C26.8073 22.7869 26.6995 22.8946 26.5519 22.8906ZM19.4293 23.3096C19.3974 23.1779 19.4812 23.0462 19.6169 23.0143C20.2433 22.8707 20.8818 22.751 21.5162 22.6552C21.8434 22.6073 21.9153 23.0861 21.592 23.138C20.9696 23.2298 20.3431 23.3495 19.7326 23.4891C19.5969 23.5211 19.4653 23.4373 19.4333 23.3056L19.4293 23.3096ZM31.4559 23.6368C29.6403 23.1699 29.3371 23.3176 29.4049 22.9545C29.4288 22.8228 29.5605 22.735 29.6962 22.7589C30.3266 22.8707 30.9611 23.0103 31.5836 23.1659C31.9028 23.2497 31.7751 23.7206 31.4559 23.6368ZM14.7009 24.9575C14.6451 24.8339 14.6969 24.6902 14.8206 24.6343C15.4032 24.371 16.0017 24.1236 16.6043 23.9041C16.9155 23.7924 17.0871 24.2473 16.7758 24.363C16.1853 24.5785 15.5987 24.8179 15.0281 25.0773C14.9044 25.1331 14.7568 25.0812 14.6969 24.9575H14.7009ZM10.6269 27.615C10.5471 27.619 10.4673 27.5831 10.4154 27.5193C10.3316 27.4115 10.3556 27.2599 10.4673 27.1801C10.982 26.805 11.5167 26.4419 12.0634 26.1067C12.1791 26.0349 12.3347 26.0668 12.4066 26.1826C12.4784 26.2943 12.4465 26.4459 12.3267 26.5177C11.7961 26.8449 11.2693 27.1961 10.7666 27.5672C10.7227 27.5991 10.6748 27.615 10.6269 27.615ZM6.93197 30.9349C6.86813 30.9389 6.80827 30.9189 6.7564 30.875C6.65266 30.7873 6.64467 30.6316 6.73645 30.5319C7.1634 30.061 7.6143 29.6022 8.07716 29.1672C8.17692 29.0755 8.33653 29.0755 8.4283 29.1712C8.52407 29.267 8.52008 29.4226 8.42032 29.5144C7.96943 29.9413 7.52651 30.3922 7.10754 30.8511C7.05966 30.903 6.99581 30.9309 6.93197 30.9309V30.9349ZM3.86349 34.8852C3.74378 34.8174 3.70388 34.6697 3.77172 34.554C4.09093 34.0114 4.43808 33.4727 4.80119 32.954C4.98873 32.6866 5.39973 32.9619 5.21219 33.2293C4.85706 33.736 4.51789 34.2667 4.20266 34.7974C4.13483 34.9132 3.97921 34.9531 3.86349 34.8892V34.8852ZM1.8604 39.3862C1.72872 39.3423 1.6569 39.2066 1.70079 39.0789C1.9003 38.4804 2.12774 37.8859 2.37514 37.3073C2.50283 37.008 2.9617 37.1956 2.83401 37.4948C2.59061 38.0614 2.36716 38.648 2.17164 39.2306C2.12774 39.3583 1.98809 39.4301 1.85641 39.3862H1.8604ZM0.623431 43.9231C0.695255 43.3006 0.79102 42.6701 0.914717 42.0557C0.978561 41.7364 1.46537 41.8322 1.40551 42.1474C1.28581 42.7499 1.19004 43.3684 1.12221 43.9789C1.0863 44.3021 0.587519 44.2463 0.627421 43.9271L0.623431 43.9231ZM0.579539 48.8749C0.519685 48.2445 0.483773 47.606 0.475793 46.9876C0.471803 46.6564 0.97058 46.6604 0.974571 46.9796C0.982551 47.5941 1.01846 48.2126 1.07832 48.8271C1.09029 48.9627 0.990531 49.0784 0.850873 49.0944C0.711216 49.1064 0.591509 49.0066 0.579539 48.8749ZM1.55714 53.735C1.3696 53.1365 1.20201 52.522 1.06635 51.9075C1.03841 51.7758 1.12221 51.6441 1.25788 51.6162C1.62498 51.5364 1.48532 51.8237 2.03597 53.5914C2.07587 53.7191 2.00006 53.8547 1.87237 53.8946C1.7367 53.9345 1.60104 53.8587 1.56113 53.731L1.55714 53.735ZM35.2985 24.9695C34.5363 24.6304 34.1253 24.5785 34.257 24.2712C34.3089 24.1475 34.4525 24.0837 34.5802 24.1356C35.3862 24.4548 35.7653 24.5585 35.6296 24.8458C35.5897 24.9336 35.4221 25.0214 35.2985 24.9695Z" fill="#91B3FA"/>
<path fill-rule="evenodd" clip-rule="evenodd" d="M48.3784 38.7957C48.2706 38.7997 48.1709 38.7358 48.135 38.6321C48.0272 38.3288 47.9075 38.0256 47.7878 37.7303C47.736 37.6066 47.7998 37.4629 47.9275 37.4111C48.0552 37.3592 48.1988 37.423 48.2507 37.5467C48.3744 37.85 48.4941 38.1612 48.6058 38.4685C48.6537 38.5962 48.5819 38.7358 48.4542 38.7797C48.4303 38.7877 48.4063 38.7917 48.3824 38.7957H48.3784Z" fill="url(#paint12_linear_28_557)"/>
<path fill-rule="evenodd" clip-rule="evenodd" d="M49.6034 43.935C49.4757 43.939 49.36 43.8472 49.344 43.7196C49.2642 43.0612 49.1525 42.3988 49.0168 41.7524C48.9889 41.6207 49.0767 41.493 49.2124 41.4651C49.348 41.4372 49.4797 41.5209 49.5076 41.6526C49.6473 42.311 49.759 42.9894 49.8388 43.6597C49.8548 43.7954 49.759 43.9151 49.6193 43.931H49.5994L49.6034 43.935ZM49.6233 49.2101C49.2363 49.1742 49.4877 48.9348 49.5196 46.9516C49.5236 46.6284 50.0224 46.6364 50.0184 46.9596C50.0064 47.638 49.9665 48.3203 49.8987 48.9906C49.8867 49.1263 49.759 49.2221 49.6273 49.2101H49.6233ZM48.4343 54.3615C48.0672 54.2418 48.3624 54.0622 48.8413 52.1349C48.9211 51.8197 49.4039 51.9354 49.3281 52.2507C49.1645 52.909 48.9689 53.5674 48.7535 54.2059C48.7096 54.3335 48.5699 54.4054 48.4382 54.3615H48.4343ZM46.2556 59.1697C46.2077 59.1737 46.1598 59.1617 46.1159 59.1338C45.9962 59.066 45.9603 58.9143 46.0321 58.7986C46.3833 58.232 46.7145 57.6414 47.0137 57.0469C47.0736 56.9272 47.2252 56.8753 47.3489 56.9352C47.4726 56.995 47.5245 57.1387 47.4606 57.2624C47.1534 57.8689 46.8182 58.4674 46.4591 59.05C46.4152 59.1218 46.3354 59.1657 46.2556 59.1657V59.1697ZM42.9756 63.3674C42.9118 63.3714 42.844 63.3475 42.7921 63.2996C42.6923 63.2078 42.6883 63.0522 42.7841 62.9564C43.251 62.4776 43.7058 61.9708 44.1288 61.4561C44.2166 61.3523 44.3722 61.3364 44.4799 61.4202C44.5877 61.504 44.6036 61.6596 44.5159 61.7633C44.0809 62.29 43.6181 62.8048 43.1432 63.2956C43.0953 63.3435 43.0355 63.3674 42.9716 63.3714L42.9756 63.3674ZM38.8418 66.7671C38.758 66.7711 38.6742 66.7312 38.6223 66.6593C38.5465 66.5476 38.5784 66.396 38.6901 66.3202C39.2528 65.9531 39.8074 65.558 40.3381 65.1431C40.4458 65.0593 40.6014 65.0752 40.6892 65.183C40.777 65.2867 40.7571 65.4423 40.6493 65.5261C40.1107 65.9491 39.544 66.3521 38.9694 66.7272C38.9295 66.7511 38.8857 66.7671 38.8418 66.7671ZM34.0455 69.1971C33.9418 69.2011 33.842 69.1413 33.8021 69.0415C33.7542 68.9178 33.8181 68.7742 33.9458 68.7263C34.5802 68.4869 35.2067 68.2195 35.8172 67.9322C35.9409 67.8724 36.0925 67.9242 36.1524 68.0439C36.2122 68.1637 36.1603 68.3113 36.0366 68.3711C35.4142 68.6664 34.7717 68.9378 34.1253 69.1812C34.0974 69.1931 34.0734 69.1971 34.0455 69.1971ZM20.0478 70.2745C19.3735 70.1348 18.6951 69.9632 18.0328 69.7677C17.9011 69.7278 17.8253 69.5922 17.8652 69.4645C17.9769 69.1014 18.1724 69.3887 20.1516 69.7996C20.2872 69.8276 20.371 69.9593 20.3431 70.0909C20.3152 70.2226 20.1795 70.3064 20.0478 70.2785V70.2745ZM28.563 70.3303C28.5071 69.9553 28.8143 70.1308 30.7775 69.6799C30.9132 69.648 31.0449 69.7318 31.0768 69.8595C31.1087 69.9912 31.0249 70.1229 30.8893 70.1548C30.2189 70.3104 29.5286 70.4381 28.8463 70.5378C28.7106 70.5578 28.5829 70.466 28.563 70.3343V70.3303ZM25.4745 70.8012C24.7842 70.8092 24.0819 70.7892 23.3916 70.7413C23.256 70.7334 23.1522 70.6136 23.1602 70.482C23.1881 70.1029 23.4435 70.3383 25.4665 70.3144C25.6062 70.3144 25.7179 70.4221 25.7179 70.5538C25.7219 70.7892 25.4426 70.8132 25.4705 70.8012H25.4745Z" fill="url(#paint13_linear_28_557)"/>
<path fill-rule="evenodd" clip-rule="evenodd" d="M14.8605 68.5906C14.0705 68.2355 13.6994 68.1158 13.847 67.8325C14.0026 67.5372 14.262 67.7846 15.072 68.1477C15.1957 68.2036 15.2516 68.3472 15.1917 68.4709C15.1319 68.5906 14.9842 68.6465 14.8605 68.5906Z" fill="url(#paint14_linear_28_557)"/>
<path fill-rule="evenodd" clip-rule="evenodd" d="M14.9523 61.8352L18.0407 60.0515C19.5291 60.7977 21.1451 61.3204 22.849 61.5718C24.3054 64.6602 24.1897 64.9795 24.5727 64.9475L28.8542 64.6084C28.9779 64.5964 29.0857 64.5126 29.1176 64.3929L30.0154 61.0012C31.6554 60.4865 33.1717 59.7164 34.5164 58.7467L37.8522 60.0196C37.9679 60.0635 38.1036 60.0316 38.1834 59.9398L40.9725 56.7396C41.0523 56.6479 41.0643 56.5122 41.0045 56.4085L39.1849 53.3958C39.951 51.9394 40.4897 50.3553 40.7491 48.6914L44.029 47.2868C44.1448 47.2389 44.2166 47.1232 44.2046 46.9995L43.8654 42.8138C43.8575 42.6901 43.7657 42.5903 43.646 42.5584L40.1785 41.6885C39.6558 40.0845 38.8737 38.6081 37.8801 37.2913C39.0931 34.0792 39.3964 33.9475 39.1091 33.7081C35.8571 31.0945 35.8371 30.7633 35.5019 30.9588L32.4175 32.7425C30.9292 31.9963 29.3091 31.4736 27.6093 31.2222C26.1529 28.1377 26.2686 27.8145 25.8855 27.8465C21.6359 28.2574 21.4364 28.038 21.3407 28.4011L20.4429 31.7888C18.8029 32.3035 17.2866 33.0736 15.9419 34.0433C12.6978 32.8781 12.5263 32.5629 12.2749 32.8502C9.5695 36.0663 9.25826 36.0583 9.45378 36.3815L11.2733 39.3942C10.5072 40.8466 9.97251 42.4347 9.70916 44.0986C6.60476 45.5032 6.2217 45.4074 6.24964 45.7905C6.66063 49.9243 6.43319 50.1398 6.80827 50.2316L10.2758 51.1015C10.7985 52.7055 11.5846 54.1819 12.5741 55.4987C11.3651 58.6988 11.0539 58.8425 11.3451 59.0819C14.5972 61.6955 14.6171 62.0267 14.9523 61.8312V61.8352Z" fill="#404040"/>
<path fill-rule="evenodd" clip-rule="evenodd" d="M24.1258 43.2128C22.3502 43.8034 21.3526 45.6987 21.9671 47.4824C22.5736 49.2381 24.5328 50.1798 26.3284 49.5852C28.124 48.9867 29.0937 47.0714 28.4871 45.3197C27.8766 43.56 25.9174 42.6223 24.1258 43.2168V43.2128ZM21.2609 47.7178C20.5227 45.579 21.6998 43.2487 23.8864 42.5225C26.0731 41.7963 28.4592 42.9415 29.1974 45.0803C29.9356 47.219 28.7585 49.5493 26.5718 50.2755C24.3812 51.0057 21.999 49.8565 21.2609 47.7178Z" fill="url(#paint15_linear_28_557)"/>
<path fill-rule="evenodd" clip-rule="evenodd" d="M25.69 56.8195C25.0715 56.8434 24.453 56.8155 23.8425 56.7397C23.659 56.7158 23.5233 56.5681 23.5193 56.3926C23.5193 56.3726 23.5193 56.3487 23.5233 56.3287C23.5512 56.1292 23.7388 55.9855 23.9423 56.0135C24.6446 56.1053 25.3588 56.1212 26.0691 56.0654C31.4279 55.6424 35.474 51.1414 35.2665 45.9422C35.2625 45.8105 35.2546 45.6748 35.2426 45.5431C34.8037 40.1404 29.9755 36.1621 24.4929 36.5931C19.0144 37.028 14.8845 41.7285 15.3194 47.1193C15.5788 50.3274 17.1908 51.8676 17.2068 52.2068C17.2228 52.5699 16.7439 52.7295 16.5285 52.4343C15.3553 50.8262 14.6331 48.859 14.5493 46.7482C14.1902 37.6385 25.1673 32.4273 32.2579 38.3328C34.4406 40.1484 35.7653 42.6901 35.9928 45.4873C36.0047 45.6309 36.0127 45.7746 36.0207 45.9222C36.1244 48.5637 35.2226 51.1135 33.455 53.1365C31.5915 55.2713 28.9899 56.5761 26.1289 56.7996C25.9813 56.8115 25.8376 56.8195 25.69 56.8275V56.8195Z" fill="url(#paint16_linear_28_557)"/>
<path fill-rule="evenodd" clip-rule="evenodd" d="M46.2436 28.8839C47.1015 29.2431 48.0233 29.4665 48.9769 29.5343L49.9146 31.29C50.0184 31.4856 50.15 31.322 52.4444 30.9948C52.6559 30.9589 52.5482 30.8032 52.9232 28.8999C53.8091 28.5368 54.6151 28.034 55.3174 27.4275L57.2247 28.0061C57.4362 28.0699 57.4122 27.8624 58.8048 26.011C58.8447 25.9551 58.8447 25.8793 58.8048 25.8234L57.6596 24.1954C58.0188 23.3375 58.2422 22.4158 58.31 21.4621C59.97 20.5324 60.1854 20.5683 60.1495 20.3528C59.7346 18.0226 59.8503 17.8949 59.6388 17.859L57.6796 17.5158C57.3165 16.63 56.8137 15.8279 56.2072 15.1217L56.7858 13.2183C56.8496 13.0068 56.6421 13.0268 54.7907 11.6382C54.6191 11.5105 54.5872 11.6941 52.9711 12.7794C52.1132 12.4203 51.1915 12.1968 50.2378 12.129L49.3001 10.3733C49.1964 10.1778 49.0647 10.3414 46.7703 10.6686C46.5588 10.7045 46.6666 10.8521 46.2915 12.7634C45.4057 13.1266 44.5996 13.6293 43.8974 14.2398L41.994 13.6612C41.9262 13.6413 41.8544 13.6652 41.8145 13.7211L40.4139 15.6564C40.374 15.7122 40.374 15.788 40.4139 15.8479L41.5591 17.4759C41.2 18.3338 40.9765 19.2555 40.9087 20.2092C39.2488 21.1389 39.0333 21.103 39.0692 21.3185C39.4842 23.6448 39.3685 23.7765 39.5799 23.8124L41.5391 24.1555C41.9023 25.0414 42.405 25.8434 43.0115 26.5497C42.4968 28.3812 42.3172 28.5089 42.4968 28.6365L44.4321 30.0371C44.6036 30.1608 44.6435 29.9733 46.2516 28.8919L46.2436 28.8839Z" fill="#31DB9D"/>
<path fill-rule="evenodd" clip-rule="evenodd" d="M47.9953 21.522C48.3744 22.4078 49.4079 22.8188 50.2937 22.4358C51.7182 21.8213 51.6943 19.7783 50.2498 19.2037C48.8133 18.6331 47.3808 20.0895 47.9953 21.522ZM47.313 21.8173C46.7703 20.5524 47.3529 19.088 48.6178 18.5413C49.8827 17.9986 51.3471 18.5812 51.8938 19.8461C52.4364 21.111 51.8499 22.5754 50.589 23.1221C49.3281 23.6647 47.8597 23.0782 47.313 21.8173Z" fill="url(#paint17_linear_28_557)"/>
<path fill-rule="evenodd" clip-rule="evenodd" d="M40.1506 29.8296C39.9191 29.5862 39.6957 29.3348 39.4842 29.0715C39.3964 28.9638 39.4124 28.8081 39.5201 28.7243C39.7874 28.5089 39.9151 28.864 40.5097 29.4905C40.6054 29.5902 40.6014 29.7458 40.5017 29.8416C40.4019 29.9334 40.2463 29.9334 40.1506 29.8336V29.8296Z" fill="url(#paint18_linear_28_557)"/>
<path fill-rule="evenodd" clip-rule="evenodd" d="M44.8909 8.92087C44.8431 8.79318 44.9069 8.64953 45.0346 8.60165C45.673 8.36223 46.3314 8.17469 46.9938 8.03504C47.313 7.97119 47.4167 8.45401 47.0935 8.52184C46.4551 8.64953 45.8207 8.83707 45.2062 9.06451C45.0745 9.1124 44.9348 9.04456 44.8869 8.91687L44.8909 8.92087ZM40.7172 11.8656C40.6493 11.8656 40.5815 11.8417 40.5296 11.7898C40.4339 11.6901 40.4379 11.5345 40.5376 11.4387C41.0244 10.9678 41.5551 10.5289 42.1098 10.1419C42.2215 10.0621 42.3771 10.09 42.4569 10.2057C42.5367 10.3174 42.5088 10.4731 42.397 10.5489C41.8624 10.924 41.3516 11.3429 40.8848 11.7938C40.8409 11.8377 40.781 11.8617 40.7212 11.8656H40.7172ZM37.7844 16.1831C37.7484 16.1831 37.7125 16.1791 37.6806 16.1631C37.5529 16.1112 37.4931 15.9636 37.5449 15.8399C37.8043 15.2134 38.1155 14.5989 38.4667 14.0204C38.5385 13.9047 38.6901 13.8647 38.8058 13.9366C38.9216 14.0084 38.9575 14.16 38.8896 14.2757C38.5505 14.8344 38.2512 15.4209 38.0038 16.0274C37.9639 16.1192 37.8801 16.1791 37.7844 16.1791V16.1831ZM36.8068 21.3145C36.6711 21.3145 36.5554 21.2068 36.5554 21.0711C36.5434 20.3927 36.5833 19.7064 36.6791 19.0361C36.723 18.7129 37.2138 18.7807 37.1699 19.1039C37.0781 19.7543 37.0382 20.4127 37.0502 21.0631C37.0541 21.3025 36.7788 21.3305 36.8068 21.3185V21.3145ZM37.7405 26.2584C37.4691 25.6598 37.2257 25.0174 37.0382 24.3431C36.9504 24.0278 37.4252 23.8962 37.517 24.2114C38.0038 25.9511 38.4467 26.2105 38.0716 26.3821C37.948 26.4379 37.8003 26.3821 37.7445 26.2584H37.7405Z" fill="url(#paint19_linear_28_557)"/>
<path fill-rule="evenodd" clip-rule="evenodd" d="M51.2474 8.37818C50.3456 8.25847 50.0303 8.36222 50.0463 8.02704C50.0543 7.89137 50.166 7.78363 50.3057 7.79162C50.6369 7.81157 50.976 7.84349 51.3112 7.88738C51.4469 7.90733 51.5426 8.03103 51.5227 8.1667C51.5067 8.29837 51.383 8.39414 51.2434 8.37818H51.2474Z" fill="url(#paint20_linear_28_557)"/>
<path fill-rule="evenodd" clip-rule="evenodd" d="M59.978 13.745C59.4632 12.9909 59.1759 12.8273 59.4393 12.6158C59.547 12.528 59.7026 12.548 59.7864 12.6557C59.9939 12.9151 60.1974 13.1904 60.385 13.4657C60.4608 13.5775 60.4329 13.7331 60.3211 13.8089C60.2094 13.8847 60.0538 13.8568 59.978 13.745Z" fill="url(#paint21_linear_28_557)"/>
<path fill-rule="evenodd" clip-rule="evenodd" d="M61.9252 18.3937C61.5741 16.626 61.1631 16.3587 61.5541 16.219C61.6818 16.1711 61.8254 16.239 61.8693 16.3666C62.1008 16.9971 62.2803 17.6435 62.412 18.2979C62.4399 18.4336 62.3521 18.5613 62.2165 18.5892C62.0808 18.6171 61.9531 18.5293 61.9252 18.3937ZM62.0808 23.7246C61.6778 23.6368 62.0449 23.3056 62.1447 21.518C62.1646 21.1908 62.6594 21.2188 62.6394 21.546C62.6035 22.2123 62.5118 22.8787 62.3761 23.5331C62.3482 23.6648 62.2165 23.7525 62.0808 23.7246ZM59.9381 28.3932C59.6029 28.1578 60.0658 27.9941 60.8638 26.3901C61.0074 26.0948 61.4543 26.3143 61.3067 26.6095C61.0114 27.2081 60.6683 27.7907 60.2852 28.3333C60.2054 28.445 60.0538 28.473 59.9421 28.3932H59.9381ZM56.1354 31.8447C56.0636 31.729 56.0995 31.5774 56.2152 31.5055C57.7514 30.5559 57.8552 30.081 58.1225 30.3963C58.2103 30.5 58.1983 30.6556 58.0946 30.7474C57.5878 31.1823 57.0412 31.5774 56.4746 31.9285C56.3588 32.0003 56.2072 31.9644 56.1354 31.8487V31.8447ZM51.2793 33.5286C51.2154 33.1216 51.6623 33.345 53.3662 32.8104C53.6774 32.7106 53.829 33.1814 53.5138 33.2812C52.8754 33.4807 52.217 33.6363 51.5586 33.7361C51.4269 33.756 51.2952 33.6643 51.2753 33.5286H51.2793Z" fill="url(#paint22_linear_28_557)"/>
<path fill-rule="evenodd" clip-rule="evenodd" d="M48.2986 33.8198C47.9634 33.7839 47.6282 33.74 47.297 33.6802C47.1614 33.6562 47.0736 33.5285 47.0975 33.3929C47.1574 33.0537 47.4886 33.2412 48.3465 33.329C48.4821 33.345 48.5819 33.4647 48.5699 33.6004C48.554 33.74 48.4303 33.8358 48.2986 33.8238V33.8198Z" fill="url(#paint23_linear_28_557)"/>
<path fill-rule="evenodd" clip-rule="evenodd" d="M49.3121 26.9128C49.0767 26.9008 48.937 26.7172 48.945 26.5217C48.957 26.3142 49.1325 26.1586 49.336 26.1706C49.7151 26.1905 50.1022 26.1706 50.4812 26.1107C50.557 26.0828 52.5801 25.8992 53.9966 23.948C56.7978 20.0735 53.4978 14.7027 48.7734 15.4608C46.0521 15.8958 44.1328 18.3098 44.2405 20.9913C44.3483 23.6966 46.068 24.2553 45.4536 24.774C45.2979 24.9057 45.0625 24.8857 44.9308 24.7301C44.2166 23.8842 43.7497 22.8547 43.5742 21.7574C43.0395 18.4256 45.3139 15.2653 48.6577 14.7266C52.2569 14.148 55.6166 16.8414 55.7603 20.5563C55.88 23.553 53.7532 26.3382 50.6009 26.8449C50.174 26.9128 49.7391 26.9367 49.3121 26.9128Z" fill="url(#paint24_linear_28_557)"/>
<path fill-rule="evenodd" clip-rule="evenodd" d="M96.7678 105.145L58.0187 104.742C56.7538 104.726 55.8042 105.456 55.9119 106.358C56.0156 107.252 57.3364 107.523 58.5734 107.515L96.4805 107.699C97.2586 107.695 97.9489 107.128 98.0327 106.434C98.1165 105.732 97.5538 105.153 96.7678 105.145Z" fill="#F03F6D"/>
<path fill-rule="evenodd" clip-rule="evenodd" d="M102.733 44.8328C102.733 50.2196 98.3679 56.0334 92.9811 56.0334C87.5943 56.0334 83.229 50.2196 83.229 44.8328C83.229 39.446 87.5943 35.6234 92.9811 35.6234C98.3679 35.6234 102.733 39.446 102.733 44.8328Z" fill="#F03F6D"/>
<path fill-rule="evenodd" clip-rule="evenodd" d="M80.8748 76.7746H104.684C107.19 76.7746 109.409 75.1546 110.175 72.7684L111.456 68.7662C112.394 65.8334 110.869 62.6612 107.976 61.6038C98.2881 58.0604 88.2686 58.5153 78.0018 61.931C75.1248 62.8886 73.5327 65.9651 74.3228 68.8899L75.3084 72.525C75.9907 75.0348 78.2691 76.7786 80.8708 76.7786L80.8748 76.7746Z" fill="#F03F6D"/>
<path fill-rule="evenodd" clip-rule="evenodd" d="M62.8629 127.762C62.819 129.166 61.6498 130.287 60.2493 130.275C58.8487 130.259 57.7474 129.11 57.7913 127.702C57.8352 126.297 59.0083 125.172 60.4129 125.188C61.8134 125.208 62.9108 126.357 62.8629 127.762Z" fill="#F03F6D"/>
<path fill-rule="evenodd" clip-rule="evenodd" d="M72.3516 127.869C72.3077 129.266 71.1466 130.387 69.758 130.371C68.3694 130.355 67.276 129.21 67.3199 127.81C67.3638 126.409 68.529 125.292 69.9176 125.308C71.3062 125.324 72.3915 126.473 72.3476 127.869H72.3516Z" fill="#F03F6D"/>
<path fill-rule="evenodd" clip-rule="evenodd" d="M82.5227 128.037C82.4788 129.438 81.3057 130.563 79.9091 130.551C78.5086 130.535 77.4073 129.386 77.4512 127.977C77.4951 126.573 78.6682 125.447 80.0727 125.463C81.4733 125.483 82.5706 126.632 82.5227 128.037Z" fill="#F03F6D"/>
<path fill-rule="evenodd" clip-rule="evenodd" d="M102.637 128.276C102.594 129.673 101.432 130.794 100.044 130.778C98.6552 130.762 97.5619 129.617 97.6058 128.217C97.6497 126.816 98.8148 125.699 100.203 125.715C101.592 125.731 102.681 126.88 102.633 128.276H102.637Z" fill="#F03F6D"/>
<path fill-rule="evenodd" clip-rule="evenodd" d="M112.805 128.444C112.761 129.849 111.588 130.97 110.191 130.958C108.79 130.942 107.689 129.793 107.733 128.388C107.777 126.984 108.95 125.858 110.355 125.874C111.755 125.894 112.852 127.043 112.805 128.444Z" fill="#F03F6D"/>
<path fill-rule="evenodd" clip-rule="evenodd" d="M92.0075 128.149C91.9636 129.545 90.8024 130.667 89.4139 130.651C88.0253 130.635 86.9319 129.489 86.9758 128.089C87.0197 126.688 88.1849 125.571 89.5735 125.587C90.9621 125.603 92.0514 126.752 92.0035 128.149H92.0075Z" fill="#F03F6D"/>
<defs>
<linearGradient id="paint0_linear_28_557" x1="34.5203" y1="89.7947" x2="150.305" y2="89.7947" gradientUnits="userSpaceOnUse">
<stop stop-color="#8480AE"/>
<stop offset="1" stop-color="#8D87C8"/>
</linearGradient>
<linearGradient id="paint1_linear_28_557" x1="40.1625" y1="99.6386" x2="63.9562" y2="68.7343" gradientUnits="userSpaceOnUse">
<stop stop-color="#FEBBBA"/>
<stop offset="1" stop-color="#FF928E"/>
</linearGradient>
<linearGradient id="paint2_linear_28_557" x1="13.7034" y1="172.927" x2="8.59988" y2="172.927" gradientUnits="userSpaceOnUse">
<stop stop-color="#4F52FF"/>
<stop offset="1" stop-color="#4042E2"/>
</linearGradient>
<linearGradient id="paint3_linear_28_557" x1="36.0725" y1="193.776" x2="28.547" y2="104.997" gradientUnits="userSpaceOnUse">
<stop stop-color="#FEBBBA"/>
<stop offset="1" stop-color="#FF928E"/>
</linearGradient>
<linearGradient id="paint4_linear_28_557" x1="38.0716" y1="171.997" x2="29.8678" y2="171.997" gradientUnits="userSpaceOnUse">
<stop stop-color="#4F52FF"/>
<stop offset="1" stop-color="#4042E2"/>
</linearGradient>
<linearGradient id="paint5_linear_28_557" x1="20.798" y1="194.151" x2="13.2166" y2="109.255" gradientUnits="userSpaceOnUse">
<stop stop-color="#FEBBBA"/>
<stop offset="1" stop-color="#FF928E"/>
</linearGradient>
<linearGradient id="paint6_linear_28_557" x1="36.7429" y1="78.227" x2="34.3647" y2="101.522" gradientUnits="userSpaceOnUse">
<stop stop-color="#FEBBBA"/>
<stop offset="1" stop-color="#FF928E"/>
</linearGradient>
<linearGradient id="paint7_linear_28_557" x1="39.2647" y1="93.2023" x2="32.8764" y2="72.1419" gradientUnits="userSpaceOnUse">
<stop stop-color="#FEBBBA"/>
<stop offset="1" stop-color="#FF928E"/>
</linearGradient>
<linearGradient id="paint8_linear_28_557" x1="36.0287" y1="93.4736" x2="30.3546" y2="73.2552" gradientUnits="userSpaceOnUse">
<stop stop-color="#FEBBBA"/>
<stop offset="1" stop-color="#FF928E"/>
</linearGradient>
<linearGradient id="paint9_linear_28_557" x1="42.2135" y1="99.8939" x2="65.1054" y2="69.9633" gradientUnits="userSpaceOnUse">
<stop stop-color="#FEBBBA"/>
<stop offset="1" stop-color="#FF928E"/>
</linearGradient>
<linearGradient id="paint10_linear_28_557" x1="59.6787" y1="74.8792" x2="61.8494" y2="60.2271" gradientUnits="userSpaceOnUse">
<stop stop-color="#FEBBBA"/>
<stop offset="1" stop-color="#FF928E"/>
</linearGradient>
<linearGradient id="paint11_linear_28_557" x1="7.11552" y1="114.65" x2="32.1182" y2="114.65" gradientUnits="userSpaceOnUse">
<stop stop-color="#FEBBBA"/>
<stop offset="1" stop-color="#FF928E"/>
</linearGradient>
<linearGradient id="paint12_linear_28_557" x1="47.7998" y1="38.1094" x2="48.5899" y2="38.1094" gradientUnits="userSpaceOnUse">
<stop stop-color="#DAE3FE"/>
<stop offset="1" stop-color="#E9EFFD"/>
</linearGradient>
<linearGradient id="paint13_linear_28_557" x1="17.8851" y1="56.1371" x2="50.0104" y2="56.1371" gradientUnits="userSpaceOnUse">
<stop stop-color="#DAE3FE"/>
<stop offset="1" stop-color="#E9EFFD"/>
</linearGradient>
<linearGradient id="paint14_linear_28_557" x1="13.9188" y1="68.2115" x2="15.1837" y2="68.2115" gradientUnits="userSpaceOnUse">
<stop stop-color="#DAE3FE"/>
<stop offset="1" stop-color="#E9EFFD"/>
</linearGradient>
<linearGradient id="paint15_linear_28_557" x1="21.5003" y1="46.397" x2="28.954" y2="46.397" gradientUnits="userSpaceOnUse">
<stop stop-color="#DAE3FE"/>
<stop offset="1" stop-color="#E9EFFD"/>
</linearGradient>
<linearGradient id="paint16_linear_28_557" x1="14.8805" y1="47.7737" x2="35.9289" y2="47.7737" gradientUnits="userSpaceOnUse">
<stop stop-color="#DAE3FE"/>
<stop offset="1" stop-color="#E9EFFD"/>
</linearGradient>
<linearGradient id="paint17_linear_28_557" x1="47.4088" y1="20.8317" x2="51.798" y2="20.8317" gradientUnits="userSpaceOnUse">
<stop stop-color="#DAE3FE"/>
<stop offset="1" stop-color="#E9EFFD"/>
</linearGradient>
<linearGradient id="paint18_linear_28_557" x1="46.7743" y1="21.9489" x2="51.5227" y2="21.9489" gradientUnits="userSpaceOnUse">
<stop stop-color="#DAE3FE"/>
<stop offset="1" stop-color="#E9EFFD"/>
</linearGradient>
<linearGradient id="paint19_linear_28_557" x1="46.9898" y1="20.8237" x2="51.9137" y2="20.8237" gradientUnits="userSpaceOnUse">
<stop stop-color="#DAE3FE"/>
<stop offset="1" stop-color="#E9EFFD"/>
</linearGradient>
<linearGradient id="paint20_linear_28_557" x1="47.1893" y1="20.3489" x2="52.0693" y2="20.3489" gradientUnits="userSpaceOnUse">
<stop stop-color="#DAE3FE"/>
<stop offset="1" stop-color="#E9EFFD"/>
</linearGradient>
<linearGradient id="paint21_linear_28_557" x1="59.4792" y1="13.2104" x2="60.4009" y2="13.2104" gradientUnits="userSpaceOnUse">
<stop stop-color="#DAE3FE"/>
<stop offset="1" stop-color="#E9EFFD"/>
</linearGradient>
<linearGradient id="paint22_linear_28_557" x1="51.3312" y1="24.9775" x2="62.6235" y2="24.9775" gradientUnits="userSpaceOnUse">
<stop stop-color="#DAE3FE"/>
<stop offset="1" stop-color="#E9EFFD"/>
</linearGradient>
<linearGradient id="paint23_linear_28_557" x1="47.1135" y1="33.5605" x2="48.5579" y2="33.5605" gradientUnits="userSpaceOnUse">
<stop stop-color="#DAE3FE"/>
<stop offset="1" stop-color="#E9EFFD"/>
</linearGradient>
<linearGradient id="paint24_linear_28_557" x1="43.9014" y1="21.0192" x2="54.8425" y2="21.0192" gradientUnits="userSpaceOnUse">
<stop stop-color="#DAE3FE"/>
<stop offset="1" stop-color="#E9EFFD"/>
</linearGradient>
</defs>
</svg>
