<svg width="155" height="153" viewBox="0 0 155 153" fill="none" xmlns="http://www.w3.org/2000/svg">
<path fill-rule="evenodd" clip-rule="evenodd" d="M57.3453 136.248L54.7279 132.802L100.982 97.6697C105.265 103.308 105.306 104.06 111.425 106.9L83.4906 128.117C79.1861 131.387 73.9182 135.867 69.5259 138.714C65.3562 141.417 60.4817 140.377 57.3453 136.248ZM101.567 11.4496L106.923 18.501C107.624 19.4235 107.365 21.3115 106.443 22.0117L89.9365 34.5495L127.549 84.0688C129.45 86.5717 130.446 90.0183 130.435 92.7538C130.431 93.6586 130.282 94.3789 130.16 95.3168C129.689 98.9237 127.693 102.267 123.67 105.322L74.3323 142.797C72.3927 144.27 70.4333 145.214 68.5699 145.709C66.2046 146.339 64.3076 146.445 62.0379 145.929C60.6158 145.606 60.1842 145.744 58.2925 144.787C56.3823 143.821 54.761 142.365 53.2951 140.707L47.9455 133.664C47.2448 132.742 47.5035 130.854 48.4252 130.154L59.8528 121.474L23.0669 73.0431C21.409 70.8603 20.4366 68.8505 19.9282 66.7613C19.3439 64.3666 19.4256 64.2588 19.5672 62.3227L19.9526 59.6122C20.0424 59.1701 20.1909 58.6185 20.3279 58.2006C21.2645 55.3373 23.6595 52.5707 26.302 50.5636L80.7189 9.2307C84.4844 6.37059 89.5453 5.30616 92.8383 6.19411C93.405 6.34671 93.5939 6.32948 94.1027 6.4564C97.1607 7.21863 99.5191 9.13497 101.569 11.4505L101.567 11.4496ZM83.3233 25.8429C80.5009 22.1269 81.1267 16.6418 84.7992 13.8523C88.9459 10.7027 94.2391 11.5934 97.3847 15.7347L100.14 19.3622L86.3543 29.8333L83.3233 25.8429ZM121.219 99.4601C119.073 101.09 117.304 101.467 115.268 101.376C108.172 101.06 106.067 92.1447 102.908 90.706C102.096 90.3361 101.01 90.2109 100.12 90.8873L64.7491 117.753L27.1363 68.2341C25.5994 66.2107 25.3068 63.2013 25.725 61.376C26.309 58.8273 27.3397 57.4902 30.2002 55.3223L75.3662 21.016C75.8257 22.1386 75.1988 25.3667 79.1069 30.4677L121.136 85.7929C122.715 87.8719 123.605 88.6816 124.135 90.7546C124.925 93.8444 123.782 97.5124 121.218 99.4599L121.219 99.4601Z" fill="#4DDBFF"/>
<path fill-rule="evenodd" clip-rule="evenodd" d="M44.2061 65.8521L41.2819 65.8358C40.3749 65.8875 38.9782 65.8182 38.1053 66.4813C36.6278 67.6035 36.0731 70.5027 38.8476 71.7496C40.3475 72.4233 41.9678 71.2911 44.9484 72.3154C46.3405 72.7933 47.5611 73.601 49.1659 72.382C49.9352 71.7977 50.3381 70.8545 50.3555 70.1067C50.4292 66.9272 50.1188 67.1943 50.7356 62.6802C50.9644 61.0061 51.1889 59.5527 51.5817 57.9187C51.9684 56.3085 53.1357 54.6368 51.8263 52.913C50.5686 51.2571 48.9183 51.4033 47.3142 52.6217C45.258 54.1835 44.4078 65.266 44.2061 65.8521ZM66.8009 95.5993C65.4114 95.6821 61.9779 95.258 60.7001 96.2285C59.3522 97.2524 59.2336 98.8152 59.9461 100.196C61.3747 102.962 63.3181 100.831 67.5377 102.103C68.7694 102.474 70.1986 103.316 71.5793 102.267C73.3671 100.909 72.9145 99.1815 72.8707 97.5664C72.8252 95.9046 73.3261 92.0641 73.635 90.1932C74.0993 87.3855 75.7386 84.3947 74.4211 82.6603C73.1987 81.0509 71.4834 81.1731 69.909 82.369C67.846 83.936 67.0069 95.0016 66.8009 95.5993ZM55.5035 80.7257C54.1636 80.8057 50.5608 80.4753 49.5841 81.2171C47.2497 82.9902 47.742 87.1428 52.0753 86.7777C53.383 86.668 54.811 86.8133 56.0837 87.1846C57.3321 87.5493 58.8669 88.4682 60.2819 87.3935C62.1033 86.01 61.5621 84.3147 61.5685 82.6928C61.5801 80.1328 62.2725 75.3161 62.8789 72.7937C63.2656 71.1834 64.4329 69.5118 63.1236 67.788C61.8658 66.1321 60.2155 66.2783 58.6114 67.4967C57.3291 68.4707 55.7263 76.9797 55.7183 78.9683C55.7155 79.8193 55.7676 79.9576 55.5033 80.727L55.5035 80.7257ZM70.8709 68.1948C72.0458 69.7417 73.6032 70.4103 75.2957 69.1247L88.9 58.7915C91.4281 56.8712 88.7091 51.2132 84.2727 54.5829C81.9504 56.3468 71.4631 63.7956 70.6684 65.5666C70.3735 66.2246 70.3231 67.4736 70.8709 68.1948ZM82.1689 83.0692C83.3571 84.6337 85.043 85.177 86.4123 84.1369L99.8351 73.9415C103.068 71.4856 100.082 66.0309 95.2077 69.733C92.8519 71.5224 82.7929 78.6278 81.9872 80.4432C81.6663 81.1667 81.5759 82.2885 82.1689 83.0692ZM59.5735 53.3212C60.7618 54.8856 62.4476 55.4289 63.8169 54.3889L77.6026 43.9179C78.2041 43.461 78.5109 42.5306 78.5561 41.9348C78.7013 40.0224 77.0943 38.4069 75.0582 38.7415C73.6484 38.9732 72.8318 40.1045 71.1179 41.4062C70.0734 42.1996 69.3565 42.4556 68.6208 43.0144L66.0388 45.2641C64.9943 46.0575 64.2774 46.3134 63.5417 46.8723C62.7854 47.4467 62.4025 48.0489 61.3253 48.8467C60.3127 49.5966 59.632 49.9129 59.3465 50.8523C59.139 51.5352 59.0141 52.5847 59.5741 53.322L59.5735 53.3212Z" fill="#4DDBFF"/>
</svg>
