<svg width="199" height="204" viewBox="0 0 199 204" fill="none" xmlns="http://www.w3.org/2000/svg">
<path d="M178.672 44.7722C166.473 16.9564 137.191 6.48322 114.087 25.1595C105.065 32.4456 99.4366 44.0417 88.3897 48.6948C78.0244 53.0586 64.8936 51.774 53.6849 54.1373C29.8162 59.1386 -2.31929 78.1139 0.132303 107.352C1.2061 120.159 9.84552 134.383 14.1162 146.366C19.0194 160.154 21.9613 177.404 34.94 185.646C57.1907 199.796 84.0308 188.23 104.075 176.82C114.862 170.686 120.8 166.916 132.415 169.019C143.168 170.98 152.852 177.845 163.359 169.701C171.249 163.586 171.901 151.196 178.525 143.92C185.988 135.721 193.553 135.128 197.432 122.806C202.134 107.857 195.206 98.5161 190.523 85.1598C185.841 71.8035 184.419 57.8588 178.672 44.7722Z" fill="#AD49EB"/>
<path opacity="0.7" d="M178.672 44.7722C166.473 16.9564 137.191 6.48322 114.087 25.1595C105.065 32.4456 99.4366 44.0417 88.3897 48.6948C78.0244 53.0586 64.8936 51.774 53.6849 54.1373C29.8162 59.1386 -2.31929 78.1139 0.132303 107.352C1.2061 120.159 9.84552 134.383 14.1162 146.366C19.0194 160.154 21.9613 177.404 34.94 185.646C57.1907 199.796 84.0308 188.23 104.075 176.82C114.862 170.686 120.8 166.916 132.415 169.019C143.168 170.98 152.852 177.845 163.359 169.701C171.249 163.586 171.901 151.196 178.525 143.92C185.988 135.721 193.553 135.128 197.432 122.806C202.134 107.857 195.206 98.5161 190.523 85.1598C185.841 71.8035 184.419 57.8588 178.672 44.7722Z" fill="white"/>
<path d="M133.621 143.744C126.015 138.432 124.292 128.571 124.593 119.705C124.642 118.228 124.48 116.663 125.184 115.368C125.887 114.073 127.532 113.182 128.856 113.803C129.954 114.32 130.431 115.599 131.047 116.658C131.868 118.068 133.071 119.216 134.517 119.971C135.458 120.463 136.624 120.759 137.555 120.247C138.835 119.543 138.982 117.785 138.972 116.308C138.972 113.561 138.956 110.818 138.923 108.077C138.835 106.606 138.984 105.13 139.366 103.706C139.824 102.308 140.843 101.013 142.236 100.619C143.63 100.225 145.367 101.038 145.682 102.475C145.737 103.084 145.751 103.696 145.727 104.306C145.766 104.922 146.052 105.596 146.628 105.783C147.204 105.97 147.804 105.542 148.247 105.109C149.763 103.632 150.797 101.707 151.757 99.8069C152.717 97.9066 153.657 95.9522 155.036 94.3326C156.414 92.713 158.319 91.4281 160.451 91.305C162.583 91.182 164.803 92.4915 165.335 94.5591C165.866 96.6267 164.66 98.7386 163.365 100.417C161.412 102.909 159.109 105.106 156.527 106.94C156.024 107.215 155.622 107.645 155.38 108.166C155.06 109.15 155.991 110.135 156.961 110.445C158.059 110.809 159.25 110.696 160.407 110.834C161.564 110.972 162.794 111.474 163.232 112.557C163.833 114.064 162.573 115.639 161.337 116.673C158.856 118.74 156.039 120.367 153.008 121.482C151.925 121.876 150.787 122.226 149.911 122.984C149.035 123.742 148.513 125.066 149.04 126.105C149.567 127.144 150.92 127.473 152.058 127.262C153.195 127.05 154.204 126.44 155.287 126.031C157.31 125.268 159.919 125.406 161.194 127.153C161.589 127.755 161.839 128.441 161.925 129.156C162.01 129.871 161.929 130.596 161.687 131.274C161.194 132.623 160.436 133.861 159.457 134.912C156.232 138.764 152.043 141.691 147.317 143.394C142.625 145.019 138.278 145.462 133.616 143.753" fill="#AD49EB"/>
<path d="M163.168 92.5209C163.168 92.5209 163.124 92.5701 163.026 92.6587L162.588 93.0476C162.204 93.3922 161.637 93.8944 160.924 94.5589C158.9 96.4381 157.02 98.4671 155.302 100.629C154.204 101.993 153.067 103.538 151.856 105.217C150.645 106.896 149.394 108.707 148.154 110.632C146.831 112.662 145.62 114.762 144.525 116.924C143.954 118.051 143.452 119.228 142.935 120.429L141.409 124.096C139.398 128.716 137.646 133.444 136.161 138.259C134.966 142.199 134.142 146.242 133.7 150.335C133.414 153.098 133.368 155.88 133.562 158.65C133.641 159.635 133.715 160.388 133.784 160.9C133.813 161.146 133.833 161.343 133.853 161.486V161.687C133.831 161.623 133.817 161.557 133.808 161.49C133.784 161.348 133.754 161.156 133.715 160.91C133.626 160.417 133.533 159.639 133.444 158.655C133.207 155.879 133.223 153.088 133.493 150.316C133.908 146.205 134.714 142.143 135.901 138.186C137.372 133.357 139.12 128.617 141.134 123.988L142.699 120.335C143.216 119.139 143.723 117.952 144.299 116.82C145.401 114.652 146.622 112.547 147.957 110.514C149.217 108.545 150.487 106.763 151.683 105.099C152.88 103.435 154.036 101.879 155.129 100.521C156.866 98.3645 158.77 96.3497 160.825 94.4949C161.554 93.8402 162.135 93.3479 162.528 93.0181L162.986 92.6489C163.042 92.6 163.103 92.5571 163.168 92.5209Z" fill="#263238"/>
<path d="M144.363 116.811C144.294 116.608 144.246 116.398 144.22 116.185C144.141 115.777 144.053 115.201 143.949 114.452C143.738 112.976 143.521 110.952 143.29 108.712C143.058 106.473 142.798 104.444 142.581 102.982C142.468 102.254 142.369 101.668 142.3 101.259C142.247 101.05 142.218 100.835 142.217 100.619C142.301 100.816 142.363 101.023 142.399 101.235C142.507 101.638 142.63 102.219 142.768 102.953C143.049 104.43 143.324 106.438 143.556 108.683C143.787 110.928 143.984 112.897 144.137 114.428C144.21 115.117 144.274 115.703 144.324 116.171C144.362 116.382 144.375 116.596 144.363 116.811ZM163.306 113.276C163.067 113.328 162.823 113.358 162.578 113.365C162.085 113.409 161.386 113.468 160.52 113.566C158.787 113.753 156.404 114.098 153.79 114.59C151.176 115.083 148.828 115.639 147.14 116.067C146.298 116.284 145.618 116.481 145.17 116.614C144.931 116.699 144.684 116.758 144.432 116.791C144.659 116.676 144.897 116.583 145.141 116.51C145.604 116.348 146.273 116.121 147.11 115.88C148.789 115.388 151.137 114.802 153.761 114.3C155.983 113.875 158.226 113.563 160.481 113.365C161.352 113.291 162.056 113.261 162.548 113.251C162.801 113.234 163.055 113.242 163.306 113.276ZM136.142 137.841C136.089 137.77 136.046 137.692 136.014 137.61L135.689 136.925C135.408 136.33 135.029 135.449 134.576 134.37C133.661 132.204 132.494 129.172 131.253 125.805C130.013 122.437 128.871 119.405 128.004 117.214C127.581 116.151 127.231 115.28 126.97 114.63L126.695 113.926C126.657 113.845 126.63 113.758 126.616 113.67C126.669 113.741 126.712 113.819 126.744 113.901L127.069 114.585C127.345 115.181 127.729 116.062 128.182 117.14C129.097 119.306 130.264 122.339 131.504 125.706C132.745 129.073 133.887 132.106 134.754 134.297C135.177 135.36 135.526 136.231 135.782 136.881C135.896 137.162 135.989 137.373 136.063 137.585C136.101 137.666 136.128 137.752 136.142 137.841Z" fill="#263238"/>
<path d="M161.288 129.733C161.209 129.778 161.125 129.813 161.037 129.836L160.308 130.082L157.615 130.954C155.341 131.692 152.2 132.746 148.754 133.908C145.308 135.069 142.153 136.103 139.864 136.792C138.721 137.142 137.791 137.408 137.146 137.585L136.403 137.777C136.316 137.804 136.227 137.823 136.137 137.831C136.216 137.786 136.3 137.751 136.388 137.728L137.117 137.482L139.809 136.61C142.084 135.872 145.225 134.818 148.671 133.657C152.117 132.495 155.267 131.461 157.556 130.772C158.703 130.422 159.629 130.156 160.279 129.979L161.022 129.787C161.108 129.76 161.198 129.742 161.288 129.733Z" fill="#263238"/>
<path d="M151.029 10.3187L148.493 11.2245L147.405 7.91139C145.407 1.8021 139.036 -1.44208 133.183 0.620604C127.33 2.68329 124.214 9.38333 126.212 15.4926L127.3 18.8057L124.755 19.7165C123.785 20.0929 122.997 20.8288 122.555 21.7713C122.113 22.7138 122.051 23.7904 122.382 24.7772L129.437 46.3345C129.583 46.823 129.826 47.2771 130.152 47.6698C130.477 48.0625 130.878 48.3857 131.331 48.6204C131.784 48.8551 132.279 48.9963 132.788 49.0358C133.296 49.0752 133.807 49.0121 134.291 48.8501L160.564 39.4523C161.548 39.0765 162.347 38.334 162.794 37.381C163.241 36.428 163.301 35.3388 162.962 34.3423L155.902 12.785C155.752 12.2979 155.505 11.846 155.177 11.4564C154.848 11.0667 154.444 10.7472 153.989 10.5171C153.534 10.2869 153.038 10.1507 152.529 10.1166C152.02 10.0825 151.51 10.1512 151.029 10.3187ZM131.002 13.7647C130.463 12.1762 130.56 10.4408 131.272 8.92199C131.984 7.40322 133.257 6.21896 134.822 5.61733C135.596 5.35279 136.414 5.24671 137.229 5.30541C138.044 5.36411 138.839 5.5864 139.567 5.95901C140.294 6.33162 140.939 6.84692 141.463 7.47415C141.986 8.10139 142.378 8.82771 142.615 9.60979L143.698 12.9229L132.085 17.0778L131.002 13.7647ZM145.771 32.895L147.573 38.3988C147.606 38.5092 147.595 38.628 147.543 38.7307C147.491 38.8334 147.401 38.912 147.292 38.9502L144.767 39.851C144.666 39.8789 144.559 39.8668 144.467 39.8172C144.375 39.7677 144.306 39.6845 144.274 39.5852L142.458 34.106C141.456 34.0515 140.495 33.6922 139.703 33.0763C138.912 32.4605 138.327 31.6174 138.027 30.66C137.599 29.3943 137.677 28.0121 138.245 26.8026C138.813 25.5932 139.827 24.6504 141.075 24.1717C141.69 23.9612 142.342 23.8769 142.992 23.9238C143.641 23.9707 144.274 24.1478 144.853 24.4446C145.432 24.7414 145.946 25.1517 146.363 25.6512C146.781 26.1507 147.093 26.729 147.282 27.3519C147.599 28.3244 147.625 29.3682 147.358 30.3554C147.09 31.3426 146.54 32.2303 145.776 32.9098L145.771 32.895Z" fill="#AD49EB"/>
<path d="M148.38 11.1654C148.38 11.2344 143.679 13.0017 137.83 15.1038C131.982 17.2058 127.212 18.8944 127.187 18.8451C127.162 18.7959 131.888 17.0138 137.742 14.9068C143.595 12.7998 148.355 11.1014 148.38 11.1654ZM153.963 12.0713C153.984 12.114 154.002 12.1584 154.017 12.2042C154.056 12.3026 154.1 12.4306 154.16 12.5882C154.288 12.9475 154.465 13.4447 154.686 14.065L156.577 19.5688C157.364 21.9023 158.305 24.6689 159.348 27.7408C159.841 29.2816 160.421 30.8865 160.963 32.5751C161.253 33.4452 161.378 34.3617 161.332 35.2777C161.29 35.7541 161.155 36.2175 160.933 36.6414C160.697 37.0638 160.381 37.4365 160.003 37.7392C159.242 38.2943 158.398 38.7248 157.502 39.0142L154.967 39.9249L150.167 41.643L142.039 44.5377L136.55 46.4674L135.074 46.9597L134.68 47.0877C134.638 47.1064 134.593 47.1181 134.547 47.1222C134.547 47.1222 134.586 47.1222 134.67 47.0631L135.054 46.9105L136.531 46.3542L141.99 44.3457L150.103 41.3919L154.893 39.6591L157.428 38.7434C158.299 38.4658 159.119 38.0484 159.855 37.5078C160.207 37.227 160.501 36.881 160.722 36.4887C160.93 36.0968 161.056 35.6661 161.091 35.2236C161.136 34.341 161.016 33.4577 160.737 32.6194C160.205 30.9456 159.644 29.326 159.137 27.7851C158.113 24.7083 157.167 21.9318 156.419 19.5983C155.671 17.2649 155.041 15.3893 154.608 14.0699C154.401 13.4251 154.243 12.9229 154.115 12.5586L153.997 12.1648C153.982 12.135 153.971 12.1036 153.963 12.0713Z" fill="#263238"/>
<path d="M140.1 5.2826C140.1 5.2826 139.839 5.1546 139.356 4.95769C138.669 4.69346 137.941 4.54701 137.205 4.52447C136.114 4.48705 135.028 4.69217 134.025 5.12506C132.806 5.6641 131.763 6.53599 131.017 7.64066C130.266 8.74216 129.863 10.0439 129.86 11.3771C129.87 12.4699 130.036 13.5556 130.352 14.6016C130.608 15.4976 130.874 16.2114 131.052 16.7086C131.156 16.9612 131.242 17.2211 131.308 17.4864C131.168 17.2503 131.051 17.0014 130.958 16.7431C130.756 16.2508 130.466 15.5517 130.18 14.6508C129.83 13.5938 129.639 12.4904 129.614 11.3771C129.601 9.99351 130.013 8.63929 130.796 7.49789C131.568 6.35288 132.653 5.45403 133.922 4.90846C134.955 4.47319 136.075 4.28119 137.195 4.34725C137.948 4.38559 138.687 4.56075 139.376 4.86415C139.56 4.9492 139.738 5.04793 139.908 5.15952C139.978 5.19029 140.043 5.23181 140.1 5.2826ZM140.326 24.5458C140.405 24.4982 140.487 24.4571 140.572 24.4228C140.819 24.3116 141.074 24.221 141.335 24.152C141.75 24.0295 142.178 23.9568 142.61 23.9354C143.198 23.9038 143.786 23.9926 144.338 24.1963C145.599 24.6394 146.756 25.9242 147.327 27.6423C147.6 28.5643 147.6 29.546 147.327 30.4681C147.023 31.4688 146.479 32.3798 145.741 33.1215L145.771 32.9886C146.426 34.7854 147.14 36.7349 147.878 38.768L147.922 38.8911L147.799 38.9354L146.672 39.3095L144.21 40.1317L144.087 40.1711L144.048 40.048C143.373 38.0099 142.635 36.1097 142.079 34.2439L142.187 34.3276C141.225 34.2477 140.307 33.8864 139.548 33.2889C138.862 32.7602 138.299 32.0882 137.899 31.3197C137.538 30.6382 137.359 29.8754 137.377 29.1044C137.4 28.3165 137.597 27.5433 137.954 26.8403C138.31 26.1374 138.818 25.5219 139.44 25.0381C139.696 24.8302 139.984 24.664 140.292 24.5458C140.014 24.7108 139.744 24.8899 139.484 25.0824C138.801 25.6608 138.277 26.4049 137.963 27.2436C137.694 27.876 137.568 28.5602 137.594 29.2471C137.621 29.9339 137.799 30.6064 138.116 31.2163C138.509 31.9556 139.058 32.6007 139.726 33.1067C140.449 33.6747 141.324 34.0171 142.241 34.0913H142.325L142.35 34.1651C142.891 35.9964 143.634 37.9114 144.319 39.9594L144.156 39.8806L146.618 39.0585L147.74 38.6794L147.661 38.8468C146.928 36.8136 146.219 34.8593 145.569 33.0624V32.9886L145.628 32.9295C146.344 32.2186 146.877 31.3455 147.184 30.3844C147.445 29.5024 147.445 28.5637 147.184 27.6817C146.647 26.0276 145.54 24.7723 144.338 24.3292C143.807 24.1242 143.239 24.0287 142.67 24.0486C142.244 24.0584 141.822 24.1162 141.409 24.2209C140.676 24.4031 140.331 24.5704 140.326 24.5458Z" fill="#263238"/>
<path d="M125.11 166.689L75.935 166.463C73.0952 166.447 70.3777 165.305 68.3793 163.287C66.381 161.269 65.2651 158.541 65.2769 155.701L65.7988 32.4273C65.8046 31.0204 66.0876 29.6284 66.6317 28.3309C67.1757 27.0334 67.9702 25.8559 68.9696 24.8656C69.969 23.8753 71.1538 23.0917 72.4563 22.5596C73.7587 22.0275 75.1532 21.7572 76.5602 21.7644L125.73 21.9908C128.57 22.0051 131.288 23.146 133.287 25.1628C135.286 27.1796 136.403 29.9075 136.393 32.7473L135.871 156.016C135.865 157.424 135.582 158.816 135.038 160.114C134.494 161.412 133.7 162.59 132.701 163.581C131.701 164.573 130.517 165.357 129.214 165.89C127.912 166.423 126.517 166.695 125.11 166.689Z" fill="#455A64"/>
<path d="M125.656 26.2294H116.125C115.814 26.2352 115.508 26.3021 115.223 26.4265C114.937 26.5508 114.68 26.7301 114.464 26.9542C114.248 27.1782 114.079 27.4425 113.965 27.732C113.851 28.0216 113.796 28.3306 113.802 28.6416V30.3695C113.808 30.6803 113.752 30.9891 113.639 31.2784C113.525 31.5676 113.355 31.8316 113.139 32.0552C112.924 32.2789 112.666 32.4577 112.381 32.5815C112.096 32.7053 111.789 32.7717 111.478 32.7768L92.8992 32.6931C92.2707 32.6764 91.6746 32.4109 91.2417 31.9549C90.8088 31.4989 90.5745 30.8898 90.5904 30.2612V28.5333C90.6063 27.9056 90.3727 27.2972 89.9409 26.8414C89.5091 26.3855 88.9141 26.1194 88.2865 26.1014H84.934L76.5897 26.062C74.605 26.0502 72.6965 26.8253 71.282 28.2176C69.8676 29.6099 69.0625 31.506 69.043 33.4907L68.5507 153.816C68.5461 154.8 68.7356 155.776 69.1082 156.688C69.4808 157.599 70.0292 158.428 70.7223 159.127C71.4153 159.827 72.2393 160.383 73.1472 160.764C74.0551 161.145 75.0292 161.343 76.0138 161.348L125.085 161.574C126.07 161.579 127.047 161.389 127.959 161.016C128.871 160.643 129.7 160.095 130.4 159.401C131.1 158.708 131.656 157.883 132.038 156.975C132.419 156.066 132.617 155.091 132.622 154.106L133.114 33.7811C133.126 31.7909 132.347 29.8774 130.948 28.4613C129.55 27.0452 127.646 26.2424 125.656 26.2294Z" fill="white"/>
<path d="M119.054 145.521L82.5661 145.363C82.187 145.363 81.8818 144.95 81.8867 144.448L81.9261 134.902C81.9261 134.41 82.2362 133.986 82.6153 133.986L119.104 134.154C119.314 134.19 119.502 134.306 119.628 134.478C119.755 134.649 119.81 134.863 119.783 135.074L119.749 144.61C119.749 145.117 119.434 145.526 119.054 145.521Z" fill="#AD49EB"/>
<path d="M94.4156 138.639C94.3985 138.495 94.3293 138.383 94.208 138.304C94.0867 138.224 93.938 138.184 93.7617 138.184C93.6328 138.184 93.52 138.205 93.4234 138.247C93.3277 138.289 93.2528 138.346 93.1988 138.419C93.1457 138.492 93.1192 138.575 93.1192 138.668C93.1192 138.745 93.1377 138.812 93.1746 138.868C93.2125 138.923 93.2609 138.969 93.3196 139.006C93.3784 139.042 93.44 139.072 93.5044 139.095C93.5688 139.118 93.6281 139.137 93.6821 139.151L93.9778 139.23C94.0536 139.25 94.1379 139.278 94.2308 139.313C94.3246 139.348 94.4142 139.396 94.4995 139.457C94.5857 139.516 94.6568 139.593 94.7127 139.687C94.7686 139.781 94.7965 139.896 94.7965 140.032C94.7965 140.19 94.7553 140.332 94.6729 140.459C94.5914 140.586 94.472 140.687 94.3147 140.761C94.1583 140.836 93.9683 140.874 93.7446 140.874C93.5362 140.874 93.3556 140.84 93.203 140.773C93.0514 140.706 92.932 140.612 92.8448 140.491C92.7586 140.371 92.7098 140.231 92.6984 140.072H93.0623C93.0718 140.182 93.1088 140.273 93.1732 140.345C93.2386 140.416 93.321 140.469 93.4205 140.504C93.521 140.538 93.629 140.555 93.7446 140.555C93.8792 140.555 94 140.534 94.1071 140.49C94.2142 140.445 94.299 140.384 94.3616 140.305C94.4241 140.226 94.4554 140.133 94.4554 140.027C94.4554 139.93 94.4284 139.851 94.3744 139.791C94.3203 139.73 94.2493 139.681 94.1611 139.643C94.073 139.605 93.9778 139.572 93.8754 139.543L93.5172 139.441C93.2898 139.375 93.1097 139.282 92.977 139.161C92.8444 139.04 92.778 138.881 92.778 138.685C92.778 138.522 92.8221 138.379 92.9102 138.258C92.9993 138.136 93.1187 138.041 93.2684 137.974C93.4191 137.906 93.5873 137.872 93.7731 137.872C93.9607 137.872 94.1275 137.905 94.2734 137.972C94.4194 138.039 94.535 138.13 94.6203 138.245C94.7065 138.361 94.752 138.492 94.7567 138.639H94.4156ZM95.7287 137.911V140.823H95.3762V137.911H95.7287ZM98.744 137.911V140.823H98.4029L96.8165 138.537H96.7881V140.823H96.4355V137.911H96.7767L98.3688 140.203H98.3972V137.911H98.744ZM101.44 138.821C101.408 138.725 101.367 138.64 101.316 138.564C101.266 138.487 101.205 138.422 101.135 138.368C101.066 138.314 100.988 138.272 100.899 138.244C100.811 138.216 100.715 138.201 100.609 138.201C100.437 138.201 100.28 138.246 100.139 138.335C99.9977 138.424 99.8854 138.555 99.802 138.729C99.7186 138.902 99.6769 139.115 99.6769 139.367C99.6769 139.619 99.7191 139.832 99.8034 140.005C99.8878 140.179 100.002 140.31 100.146 140.399C100.29 140.488 100.452 140.533 100.632 140.533C100.799 140.533 100.946 140.497 101.073 140.426C101.201 140.354 101.3 140.253 101.371 140.122C101.443 139.99 101.479 139.835 101.479 139.657L101.587 139.68H100.712V139.367H101.821V139.68C101.821 139.919 101.769 140.128 101.667 140.305C101.566 140.482 101.425 140.62 101.246 140.717C101.068 140.814 100.863 140.862 100.632 140.862C100.374 140.862 100.148 140.802 99.9527 140.68C99.7584 140.559 99.6068 140.387 99.4978 140.163C99.3898 139.939 99.3357 139.674 99.3357 139.367C99.3357 139.137 99.3665 138.93 99.4281 138.746C99.4907 138.561 99.5788 138.404 99.6925 138.274C99.8063 138.144 99.9408 138.044 100.096 137.975C100.252 137.906 100.423 137.872 100.609 137.872C100.763 137.872 100.906 137.895 101.039 137.941C101.172 137.987 101.291 138.052 101.395 138.136C101.501 138.219 101.588 138.319 101.658 138.436C101.729 138.551 101.777 138.68 101.803 138.821H101.44ZM105.461 137.911H105.813V139.839C105.813 140.038 105.766 140.216 105.672 140.372C105.58 140.527 105.448 140.65 105.279 140.74C105.109 140.829 104.91 140.874 104.682 140.874C104.453 140.874 104.254 140.829 104.085 140.74C103.915 140.65 103.783 140.527 103.689 140.372C103.597 140.216 103.55 140.038 103.55 139.839V137.911H103.903V139.81C103.903 139.953 103.934 140.079 103.996 140.19C104.059 140.3 104.148 140.387 104.264 140.45C104.38 140.513 104.52 140.544 104.682 140.544C104.844 140.544 104.983 140.513 105.1 140.45C105.216 140.387 105.305 140.3 105.367 140.19C105.429 140.079 105.461 139.953 105.461 139.81V137.911ZM106.517 140.823V137.911H107.501C107.729 137.911 107.916 137.953 108.061 138.035C108.207 138.117 108.315 138.227 108.385 138.366C108.455 138.506 108.49 138.661 108.49 138.832C108.49 139.004 108.455 139.16 108.385 139.3C108.316 139.44 108.209 139.552 108.064 139.636C107.919 139.718 107.733 139.759 107.507 139.759H106.801V139.447H107.495C107.652 139.447 107.777 139.42 107.872 139.366C107.967 139.312 108.035 139.239 108.078 139.147C108.122 139.054 108.143 138.949 108.143 138.832C108.143 138.716 108.122 138.612 108.078 138.52C108.035 138.428 107.966 138.356 107.87 138.304C107.775 138.251 107.648 138.224 107.489 138.224H106.87V140.823H106.517Z" fill="#E8E8E3"/>
<path d="M77.1826 61.543L89.8441 61.6005L89.8336 63.9241L77.1721 63.8666L77.1826 61.543Z" fill="#AD49EB"/>
<path opacity="0.1" d="M77.1826 61.543L89.8441 61.6005L89.8336 63.9241L77.1721 63.8666L77.1826 61.543Z" fill="black"/>
<path d="M126.961 75.8668C127.06 75.8568 127.158 75.8336 127.251 75.7979C127.387 75.7446 127.506 75.654 127.593 75.5364C127.68 75.4189 127.732 75.2792 127.743 75.1333V71.7414V69.28V68.5957C127.775 68.3712 127.727 68.1426 127.606 67.9508C127.538 67.8589 127.45 67.7839 127.348 67.7318C127.246 67.6797 127.134 67.6519 127.02 67.6505H119.138L77.9632 67.4979C77.8578 67.4961 77.7536 67.5198 77.6593 67.5669C77.565 67.6141 77.4835 67.6833 77.4217 67.7687C77.3028 67.9612 77.2574 68.1902 77.2937 68.4136V74.321C77.2733 74.5503 77.2733 74.7809 77.2937 75.0102C77.3196 75.1085 77.3677 75.1996 77.4342 75.2764C77.5008 75.3532 77.5841 75.4137 77.6777 75.4533C77.7747 75.4919 77.8786 75.5103 77.9829 75.5074H80.4887L91.4224 75.5665L109.932 75.6797L122.412 75.7782L125.804 75.8176H126.985H109.932L91.4224 75.7585L80.4887 75.7142H77.9829C77.845 75.7198 77.7075 75.6963 77.5793 75.6453C77.4496 75.59 77.3343 75.5058 77.2422 75.3991C77.1501 75.2925 77.0835 75.1662 77.0476 75.0299C77.0191 74.9007 77.0091 74.7681 77.018 74.6361V74.2718V72.7949V69.8412V68.3643C77.0087 68.2332 77.0087 68.1016 77.018 67.9705C77.0365 67.8257 77.0925 67.6882 77.1805 67.5718C77.2654 67.4529 77.3778 67.3564 77.5081 67.2904C77.6384 67.2244 77.7827 67.1909 77.9288 67.1927L119.104 67.4191L126.217 67.4684H126.985C127.121 67.4685 127.254 67.5012 127.374 67.5638C127.494 67.6263 127.597 67.7169 127.674 67.8277C127.813 68.0418 127.869 68.2991 127.832 68.5514V71.6971C127.832 73.174 127.798 74.3063 127.788 75.0939C127.776 75.2454 127.721 75.3902 127.629 75.5114C127.537 75.6327 127.413 75.7252 127.271 75.7782C127.178 75.8359 127.07 75.8666 126.961 75.8668Z" fill="#E0E0E0"/>
<path d="M80.9859 69.9692H104.143V72.1402H80.9859V69.9692Z" fill="#AD49EB"/>
<path opacity="0.2" d="M80.9859 69.9692H104.143V72.1402H80.9859V69.9692Z" fill="white"/>
<path d="M77.0963 82.7404L89.7579 82.7978L89.7473 85.1214L77.0858 85.0639L77.0963 82.7404Z" fill="#AD49EB"/>
<path opacity="0.1" d="M77.0963 82.7404L89.7579 82.7978L89.7473 85.1214L77.0858 85.0639L77.0963 82.7404Z" fill="black"/>
<path d="M126.641 97.0647C126.74 97.0525 126.839 97.0344 126.936 97.0106C127.074 96.9668 127.2 96.8941 127.307 96.7973C127.414 96.7005 127.499 96.5818 127.556 96.4494C127.634 96.2506 127.664 96.0366 127.645 95.8242V95.0463V89.9512C127.668 89.7248 127.618 89.497 127.502 89.3013C127.381 89.1007 127.19 88.9518 126.966 88.8829C126.72 88.8391 126.471 88.8259 126.222 88.8435H119.138L78.106 88.6909C77.8853 88.6914 77.6723 88.7721 77.5066 88.9179C77.3408 89.0636 77.2337 89.2646 77.2051 89.4835V95.391C77.1867 95.621 77.1967 95.8525 77.2346 96.0802C77.2961 96.2798 77.4226 96.4531 77.594 96.5724C77.7758 96.6878 77.9894 96.743 78.2044 96.73H80.3114L91.2058 96.7841L109.652 96.8974L122.087 96.9958L125.469 97.0352H126.646H109.652L91.1959 97.0155L80.3016 96.9761H78.1601C77.8939 96.9919 77.6296 96.9211 77.4069 96.7743C77.1829 96.6191 77.0194 96.3913 76.9442 96.1294C76.9 95.8792 76.8868 95.6246 76.9048 95.3713V93.8944V90.9407V89.4638C76.9407 89.1823 77.078 88.9236 77.2909 88.736C77.5039 88.5484 77.7779 88.4449 78.0617 88.4448L119.094 88.6712L126.178 88.7254C126.442 88.7092 126.706 88.7274 126.966 88.7795C127.221 88.8631 127.437 89.0385 127.571 89.2718C127.698 89.4886 127.754 89.7403 127.729 89.9905V95.8882C127.747 96.1083 127.711 96.3295 127.625 96.5331C127.561 96.6689 127.469 96.7893 127.354 96.8862C127.24 96.983 127.105 97.054 126.961 97.0943C126.853 97.1032 126.745 97.0932 126.641 97.0647Z" fill="#E0E0E0"/>
<path d="M77.0009 104.858L89.6624 104.916L89.6518 107.239L76.9903 107.182L77.0009 104.858Z" fill="#AD49EB"/>
<path opacity="0.1" d="M77.0009 104.858L89.6624 104.916L89.6518 107.239L76.9903 107.182L77.0009 104.858Z" fill="black"/>
<path d="M126.542 119.173C126.642 119.162 126.74 119.144 126.838 119.119C126.974 119.076 127.101 119.004 127.207 118.908C127.314 118.812 127.4 118.694 127.458 118.563C127.535 118.364 127.565 118.15 127.546 117.938V117.155V112.06C127.57 111.834 127.52 111.606 127.404 111.41C127.279 111.213 127.089 111.067 126.867 110.997C126.622 110.951 126.372 110.936 126.124 110.952H119.04L78.0075 110.8C77.7868 110.8 77.5738 110.881 77.4081 111.027C77.2424 111.172 77.1353 111.373 77.1066 111.592V117.5C77.0883 117.728 77.0982 117.958 77.1362 118.184C77.1951 118.385 77.3222 118.559 77.4955 118.676C77.6763 118.794 77.8907 118.85 78.106 118.834H80.2474L91.1418 118.893L109.588 119.006L122.023 119.105L125.405 119.144H126.286H109.588L91.1418 119.09L80.2474 119.045H78.106C77.8395 119.063 77.5746 118.992 77.3528 118.844C77.1288 118.688 76.9653 118.461 76.89 118.199C76.8459 117.949 76.8327 117.694 76.8506 117.441V115.964V113.01V111.509C76.8855 111.227 77.0217 110.969 77.2339 110.781C77.446 110.593 77.7194 110.49 78.0026 110.49L119.035 110.716L126.119 110.77C126.383 110.754 126.647 110.772 126.907 110.824C127.162 110.908 127.378 111.083 127.512 111.317C127.639 111.533 127.695 111.785 127.67 112.035V117.933C127.688 118.153 127.653 118.375 127.566 118.578C127.502 118.714 127.41 118.834 127.295 118.931C127.18 119.028 127.046 119.099 126.902 119.139C126.786 119.179 126.663 119.19 126.542 119.173Z" fill="#E0E0E0"/>
<path d="M80.4918 91.6759L103.649 91.781L103.639 93.952L80.4819 93.8469L80.4918 91.6759Z" fill="#AD49EB"/>
<path opacity="0.2" d="M80.4918 91.6759L103.649 91.781L103.639 93.952L80.4819 93.8469L80.4918 91.6759Z" fill="white"/>
<path d="M82.5858 115.156C82.5712 115.354 82.4989 115.544 82.3777 115.701C82.2566 115.858 82.0919 115.977 81.9041 116.041C81.7163 116.106 81.5138 116.114 81.3215 116.064C81.1292 116.015 80.9557 115.91 80.8224 115.763C80.6892 115.615 80.6021 115.432 80.572 115.236C80.5419 115.04 80.57 114.839 80.6529 114.659C80.7359 114.478 80.8699 114.326 81.0385 114.221C81.2071 114.116 81.4027 114.063 81.6012 114.068C81.8754 114.084 82.1326 114.206 82.3169 114.41C82.5013 114.614 82.5978 114.882 82.5858 115.156ZM85.7216 115.171C85.7313 115.31 85.7124 115.449 85.6659 115.58C85.6194 115.711 85.5465 115.832 85.4516 115.933C85.3567 116.035 85.2419 116.116 85.1143 116.172C84.9867 116.227 84.8491 116.256 84.71 116.256C84.5709 116.256 84.4332 116.227 84.3056 116.172C84.1781 116.116 84.0632 116.035 83.9684 115.933C83.8735 115.832 83.8005 115.711 83.7541 115.58C83.7076 115.449 83.6887 115.31 83.6983 115.171C83.6887 115.032 83.7076 114.893 83.7541 114.762C83.8005 114.631 83.8735 114.511 83.9684 114.409C84.0632 114.307 84.1781 114.226 84.3056 114.171C84.4332 114.115 84.5709 114.086 84.71 114.086C84.8491 114.086 84.9867 114.115 85.1143 114.171C85.2419 114.226 85.3567 114.307 85.4516 114.409C85.5465 114.511 85.6194 114.631 85.6659 114.762C85.7124 114.893 85.7313 115.032 85.7216 115.171ZM88.8624 115.186C88.8479 115.384 88.7756 115.573 88.6544 115.731C88.5332 115.888 88.3685 116.006 88.1808 116.071C87.993 116.135 87.7904 116.143 87.5981 116.094C87.4059 116.044 87.2323 115.939 87.0991 115.792C86.9659 115.645 86.8788 115.462 86.8487 115.266C86.8185 115.069 86.8467 114.869 86.9296 114.688C87.0125 114.508 87.1466 114.356 87.3152 114.251C87.4837 114.146 87.6794 114.093 87.8779 114.098C88.1517 114.114 88.4081 114.238 88.5922 114.441C88.7762 114.644 88.8732 114.912 88.8624 115.186ZM91.9983 115.201C91.9838 115.399 91.9114 115.588 91.7903 115.745C91.6691 115.903 91.5044 116.021 91.3167 116.085C91.1289 116.15 90.9263 116.158 90.734 116.109C90.5417 116.059 90.3682 115.954 90.235 115.807C90.1018 115.66 90.0147 115.477 89.9846 115.28C89.9544 115.084 89.9826 114.883 90.0655 114.703C90.1484 114.523 90.2825 114.37 90.451 114.266C90.6196 114.161 90.8153 114.107 91.0137 114.113C91.2875 114.129 91.544 114.252 91.728 114.456C91.9121 114.659 92.0091 114.927 91.9983 115.201ZM95.1342 115.211C95.1206 115.409 95.049 115.599 94.9284 115.757C94.8078 115.915 94.6433 116.034 94.4556 116.099C94.2678 116.164 94.0651 116.173 93.8724 116.124C93.6798 116.075 93.5058 115.97 93.3721 115.823C93.2383 115.676 93.1508 115.493 93.1203 115.297C93.0898 115.1 93.1178 114.899 93.2006 114.719C93.2835 114.538 93.4176 114.386 93.5863 114.28C93.755 114.175 93.9509 114.122 94.1496 114.127C94.4225 114.144 94.6782 114.266 94.8621 114.469C95.0461 114.671 95.1437 114.937 95.1342 115.211ZM98.275 115.225C98.2616 115.423 98.1907 115.612 98.0712 115.769C97.9517 115.927 97.7888 116.046 97.6024 116.112C97.4161 116.178 97.2144 116.188 97.0224 116.141C96.8303 116.094 96.6561 115.992 96.5213 115.848C96.3865 115.703 96.2969 115.522 96.2636 115.327C96.2303 115.132 96.2547 114.932 96.3338 114.751C96.4129 114.569 96.5433 114.415 96.7089 114.307C96.8745 114.199 97.068 114.142 97.2658 114.142C97.5431 114.153 97.805 114.272 97.9941 114.475C98.1833 114.678 98.2843 114.948 98.275 115.225ZM101.411 115.24C101.421 115.379 101.402 115.518 101.355 115.649C101.309 115.78 101.236 115.901 101.141 116.002C101.046 116.104 100.931 116.185 100.804 116.241C100.676 116.296 100.538 116.325 100.399 116.325C100.26 116.325 100.122 116.296 99.9949 116.241C99.8673 116.185 99.7525 116.104 99.6576 116.002C99.5627 115.901 99.4898 115.78 99.4433 115.649C99.3969 115.518 99.3779 115.379 99.3876 115.24C99.3779 115.101 99.3969 114.962 99.4433 114.831C99.4898 114.7 99.5627 114.58 99.6576 114.478C99.7525 114.376 99.8673 114.295 99.9949 114.239C100.122 114.184 100.26 114.155 100.399 114.155C100.538 114.155 100.676 114.184 100.804 114.239C100.931 114.295 101.046 114.376 101.141 114.478C101.236 114.58 101.309 114.7 101.355 114.831C101.402 114.962 101.421 115.101 101.411 115.24ZM104.547 115.255C104.533 115.452 104.462 115.641 104.343 115.799C104.223 115.956 104.061 116.075 103.874 116.142C103.688 116.208 103.486 116.218 103.294 116.171C103.102 116.124 102.928 116.022 102.793 115.877C102.658 115.733 102.569 115.552 102.535 115.357C102.502 115.162 102.526 114.961 102.606 114.78C102.685 114.599 102.815 114.445 102.981 114.337C103.146 114.229 103.34 114.171 103.538 114.172C103.815 114.182 104.077 114.302 104.266 114.505C104.455 114.708 104.556 114.978 104.547 115.255ZM107.683 115.27C107.669 115.468 107.597 115.658 107.477 115.816C107.356 115.974 107.192 116.093 107.004 116.158C106.816 116.223 106.613 116.232 106.421 116.183C106.228 116.134 106.054 116.03 105.92 115.882C105.787 115.735 105.699 115.552 105.669 115.356C105.638 115.159 105.666 114.958 105.749 114.778C105.832 114.597 105.966 114.445 106.135 114.34C106.303 114.234 106.499 114.181 106.698 114.187C106.971 114.203 107.227 114.326 107.411 114.528C107.594 114.73 107.692 114.996 107.683 115.27Z" fill="#AD49EB"/>
<g opacity="0.2">
<path d="M82.5858 115.156C82.5712 115.354 82.4989 115.544 82.3777 115.701C82.2566 115.858 82.0919 115.977 81.9041 116.041C81.7163 116.106 81.5138 116.114 81.3215 116.064C81.1292 116.015 80.9557 115.91 80.8224 115.763C80.6892 115.615 80.6021 115.432 80.572 115.236C80.5419 115.04 80.57 114.839 80.6529 114.659C80.7359 114.478 80.8699 114.326 81.0385 114.221C81.2071 114.116 81.4027 114.063 81.6012 114.068C81.8754 114.084 82.1326 114.206 82.3169 114.41C82.5013 114.614 82.5978 114.882 82.5858 115.156ZM85.7216 115.171C85.7313 115.31 85.7124 115.449 85.6659 115.58C85.6194 115.711 85.5465 115.832 85.4516 115.933C85.3567 116.035 85.2419 116.116 85.1143 116.172C84.9867 116.227 84.8491 116.256 84.71 116.256C84.5709 116.256 84.4332 116.227 84.3056 116.172C84.1781 116.116 84.0632 116.035 83.9684 115.933C83.8735 115.832 83.8005 115.711 83.7541 115.58C83.7076 115.449 83.6887 115.31 83.6983 115.171C83.6887 115.032 83.7076 114.893 83.7541 114.762C83.8005 114.631 83.8735 114.511 83.9684 114.409C84.0632 114.307 84.1781 114.226 84.3056 114.171C84.4332 114.115 84.5709 114.086 84.71 114.086C84.8491 114.086 84.9867 114.115 85.1143 114.171C85.2419 114.226 85.3567 114.307 85.4516 114.409C85.5465 114.511 85.6194 114.631 85.6659 114.762C85.7124 114.893 85.7313 115.032 85.7216 115.171ZM88.8624 115.186C88.8479 115.384 88.7756 115.573 88.6544 115.731C88.5332 115.888 88.3685 116.006 88.1808 116.071C87.993 116.135 87.7904 116.143 87.5981 116.094C87.4059 116.044 87.2323 115.939 87.0991 115.792C86.9659 115.645 86.8788 115.462 86.8487 115.266C86.8185 115.069 86.8467 114.869 86.9296 114.688C87.0125 114.508 87.1466 114.356 87.3152 114.251C87.4837 114.146 87.6794 114.093 87.8779 114.098C88.1517 114.114 88.4081 114.238 88.5922 114.441C88.7762 114.644 88.8732 114.912 88.8624 115.186ZM91.9983 115.201C91.9838 115.399 91.9114 115.588 91.7903 115.745C91.6691 115.903 91.5044 116.021 91.3167 116.085C91.1289 116.15 90.9263 116.158 90.734 116.109C90.5417 116.059 90.3682 115.954 90.235 115.807C90.1018 115.66 90.0147 115.477 89.9846 115.28C89.9544 115.084 89.9826 114.883 90.0655 114.703C90.1484 114.523 90.2825 114.37 90.451 114.266C90.6196 114.161 90.8153 114.107 91.0137 114.113C91.2875 114.129 91.544 114.252 91.728 114.456C91.9121 114.659 92.0091 114.927 91.9983 115.201ZM95.1342 115.211C95.1206 115.409 95.049 115.599 94.9284 115.757C94.8078 115.915 94.6433 116.034 94.4556 116.099C94.2678 116.164 94.0651 116.173 93.8724 116.124C93.6798 116.075 93.5058 115.97 93.3721 115.823C93.2383 115.676 93.1508 115.493 93.1203 115.297C93.0898 115.1 93.1178 114.899 93.2006 114.719C93.2835 114.538 93.4176 114.386 93.5863 114.28C93.755 114.175 93.9509 114.122 94.1496 114.127C94.4225 114.144 94.6782 114.266 94.8621 114.469C95.0461 114.671 95.1437 114.937 95.1342 115.211ZM98.275 115.225C98.2616 115.423 98.1907 115.612 98.0712 115.769C97.9517 115.927 97.7888 116.046 97.6024 116.112C97.4161 116.178 97.2144 116.188 97.0224 116.141C96.8303 116.094 96.6561 115.992 96.5213 115.848C96.3865 115.703 96.2969 115.522 96.2636 115.327C96.2303 115.132 96.2547 114.932 96.3338 114.751C96.4129 114.569 96.5433 114.415 96.7089 114.307C96.8745 114.199 97.068 114.142 97.2658 114.142C97.5431 114.153 97.805 114.272 97.9941 114.475C98.1833 114.678 98.2843 114.948 98.275 115.225ZM101.411 115.24C101.421 115.379 101.402 115.518 101.355 115.649C101.309 115.78 101.236 115.901 101.141 116.002C101.046 116.104 100.931 116.185 100.804 116.241C100.676 116.296 100.538 116.325 100.399 116.325C100.26 116.325 100.122 116.296 99.9949 116.241C99.8673 116.185 99.7525 116.104 99.6576 116.002C99.5627 115.901 99.4898 115.78 99.4433 115.649C99.3969 115.518 99.3779 115.379 99.3876 115.24C99.3779 115.101 99.3969 114.962 99.4433 114.831C99.4898 114.7 99.5627 114.58 99.6576 114.478C99.7525 114.376 99.8673 114.295 99.9949 114.239C100.122 114.184 100.26 114.155 100.399 114.155C100.538 114.155 100.676 114.184 100.804 114.239C100.931 114.295 101.046 114.376 101.141 114.478C101.236 114.58 101.309 114.7 101.355 114.831C101.402 114.962 101.421 115.101 101.411 115.24ZM104.547 115.255C104.533 115.452 104.462 115.641 104.343 115.799C104.223 115.956 104.061 116.075 103.874 116.142C103.688 116.208 103.486 116.218 103.294 116.171C103.102 116.124 102.928 116.022 102.793 115.877C102.658 115.733 102.569 115.552 102.535 115.357C102.502 115.162 102.526 114.961 102.606 114.78C102.685 114.599 102.815 114.445 102.981 114.337C103.146 114.229 103.34 114.171 103.538 114.172C103.815 114.182 104.077 114.302 104.266 114.505C104.455 114.708 104.556 114.978 104.547 115.255ZM107.683 115.27C107.669 115.468 107.597 115.658 107.477 115.816C107.356 115.974 107.192 116.093 107.004 116.158C106.816 116.223 106.613 116.232 106.421 116.183C106.228 116.134 106.054 116.03 105.92 115.882C105.787 115.735 105.699 115.552 105.669 115.356C105.638 115.159 105.666 114.958 105.749 114.778C105.832 114.597 105.966 114.445 106.135 114.34C106.303 114.234 106.499 114.181 106.698 114.187C106.971 114.203 107.227 114.326 107.411 114.528C107.594 114.73 107.692 114.996 107.683 115.27Z" fill="white"/>
</g>
<path d="M103.227 44.2029C103.569 44.0523 103.86 43.8045 104.062 43.4903C104.264 43.176 104.369 42.8093 104.365 42.4356C104.377 42.1927 104.341 41.9498 104.256 41.7216C104.172 41.4934 104.042 41.2847 103.875 41.1083C103.708 40.9319 103.506 40.7914 103.283 40.6953C103.059 40.5993 102.818 40.5498 102.575 40.5498C102.332 40.5498 102.091 40.5993 101.868 40.6953C101.644 40.7914 101.443 40.9319 101.275 41.1083C101.108 41.2847 100.978 41.4934 100.894 41.7216C100.81 41.9498 100.773 42.1927 100.786 42.4356C100.778 42.813 100.883 43.1842 101.086 43.5022C101.289 43.8202 101.582 44.0709 101.928 44.2226C99.171 44.6362 99.294 47.6293 99.294 47.6293L105.812 47.6588C105.812 47.6588 105.965 44.6115 103.227 44.2029Z" fill="#AD49EB"/>
<path opacity="0.1" d="M103.227 44.2029C103.569 44.0523 103.86 43.8045 104.062 43.4903C104.264 43.176 104.369 42.8093 104.365 42.4356C104.377 42.1927 104.341 41.9498 104.256 41.7216C104.172 41.4934 104.042 41.2847 103.875 41.1083C103.708 40.9319 103.506 40.7914 103.283 40.6953C103.059 40.5993 102.818 40.5498 102.575 40.5498C102.332 40.5498 102.091 40.5993 101.868 40.6953C101.644 40.7914 101.443 40.9319 101.275 41.1083C101.108 41.2847 100.978 41.4934 100.894 41.7216C100.81 41.9498 100.773 42.1927 100.786 42.4356C100.778 42.813 100.883 43.1842 101.086 43.5022C101.289 43.8202 101.582 44.0709 101.928 44.2226C99.171 44.6362 99.294 47.6293 99.294 47.6293L105.812 47.6588C105.812 47.6588 105.965 44.6115 103.227 44.2029Z" fill="black"/>
<path d="M90.588 49.4838L113.819 49.5892L113.806 52.3657L90.5754 52.2603L90.588 49.4838Z" fill="#AD49EB"/>
<path opacity="0.2" d="M90.588 49.4838L113.819 49.5892L113.806 52.3657L90.5754 52.2603L90.588 49.4838Z" fill="white"/>
<path d="M28.4144 63.9781H28.183L27.5135 64.0273C27.1512 64.0491 26.7909 64.0968 26.4354 64.1701C26.2051 64.2024 25.9767 64.2468 25.7511 64.303L24.988 64.5147C23.6893 64.9131 22.4639 65.52 21.3599 66.3115C19.9012 67.3703 18.6831 68.7259 17.7859 70.2892C17.2585 71.1903 16.8388 72.1503 16.5355 73.1494C16.2167 74.2352 16.0332 75.3563 15.989 76.4871C15.9597 77.0811 15.9695 77.6765 16.0186 78.2692C16.0186 78.5695 16.1022 78.8698 16.1416 79.175C16.1747 79.4827 16.2324 79.7872 16.3139 80.0857C16.7566 82.0612 17.6548 83.9058 18.9369 85.4725C20.219 87.0392 21.8494 88.2846 23.6982 89.1094C25.0363 89.6868 26.4705 90.009 27.927 90.0595C29.4313 90.1422 30.9371 89.9264 32.3576 89.4244L32.7908 89.262H32.8499L32.8991 89.2915L39.1069 92.4422L38.9247 92.5997C38.2601 90.5419 37.6202 88.5482 36.9999 86.6332V86.5593L37.054 86.5052C38.5599 84.9884 39.6778 83.1308 40.313 81.09C40.8882 79.2242 41.0561 77.2567 40.8053 75.3204C40.5821 73.5996 40.0289 71.9381 39.1758 70.427C38.4405 69.129 37.4918 67.9641 36.3697 66.981C35.444 66.2029 34.4193 65.5507 33.3225 65.0414C32.4925 64.6835 31.6282 64.4113 30.7429 64.2291L29.7583 64.0667L29.0445 64.0125L28.6113 63.983H28.4636C28.5127 63.9775 28.5622 63.9775 28.6113 63.983H29.0494L29.7632 64.0125L30.7478 64.1553C31.6441 64.3241 32.5203 64.5865 33.3619 64.938C34.4776 65.4413 35.5207 66.092 36.4633 66.8727C37.606 67.8514 38.5747 69.0166 39.3284 70.3187C40.2057 71.846 40.7759 73.53 41.0071 75.2761C41.2788 77.2423 41.1226 79.2439 40.5493 81.1442C39.91 83.2274 38.7748 85.1245 37.2411 86.6725L37.2706 86.5446C37.8909 88.4596 38.5358 90.4533 39.2053 92.5062L39.2989 92.8065L39.0182 92.6637L32.8105 89.518H32.9188L32.4757 89.6804C31.0279 90.1899 29.4942 90.4107 27.9615 90.3303C26.4736 90.2736 25.0094 89.9397 23.6441 89.3457C21.0397 88.2303 18.8729 86.2918 17.4757 83.8271C16.8328 82.6889 16.3632 81.461 16.0825 80.1842C16.0057 79.878 15.9481 79.5672 15.9102 79.2538C15.8709 78.9436 15.8069 78.6384 15.7921 78.3332C15.6589 76.5816 15.844 74.8203 16.3385 73.1346C16.6494 72.1218 17.0808 71.15 17.6234 70.24C18.5421 68.6625 19.7855 67.2983 21.2713 66.2377C22.3935 65.4441 23.6394 64.8419 24.9585 64.4556L25.7314 64.2587C25.9589 64.2059 26.1889 64.1648 26.4206 64.1356C26.7798 64.0691 27.1435 64.0296 27.5086 64.0174L28.183 63.9928C28.2597 63.9825 28.337 63.9776 28.4144 63.9781Z" fill="#AD49EB"/>
<path d="M31.2205 75.4582H30.3097L28.3406 72.6915V70.875C28.3406 70.875 26.9326 70.7864 27.1 73.1641C27.2674 75.5419 27.1 74.9364 27.1 74.9364C27.1 74.9364 24.1118 74.9364 23.8657 75.2071C23.6195 75.4779 23.6048 78.3627 23.5703 79.9725C23.5514 80.3605 23.6628 80.7438 23.8867 81.0613C24.1105 81.3788 24.4341 81.6124 24.806 81.725C24.9102 81.7539 25.0178 81.7688 25.1259 81.7693C25.8742 81.7693 29.6796 81.1638 29.6796 81.1638H31.25L31.2205 75.4582ZM33.8247 74.9708L33.2635 81.1934H31.7078V75.0988L33.8247 74.9708Z" fill="#AD49EB"/>
<path d="M52.3789 201.651V197.442L44.8322 197.388L44.7682 203.753L45.2358 203.788C47.3182 203.921 55.8299 204.118 57.228 203.685C58.7836 203.202 52.3789 201.651 52.3789 201.651Z" fill="#AD49EB"/>
<path d="M57.4052 203.291C57.4052 203.36 54.5795 203.419 51.099 203.419C47.6185 203.419 44.7928 203.36 44.7928 203.291C44.7928 203.222 47.6185 203.163 51.099 203.163C54.5795 203.163 57.4052 203.222 57.4052 203.291ZM52.5119 202.513C52.4479 202.479 52.5119 202.257 52.6645 202.021C52.8171 201.784 53.0238 201.686 53.0731 201.735C53.1223 201.784 53.0189 201.972 52.8712 202.173C52.7235 202.375 52.5759 202.548 52.5119 202.513ZM52.9943 202.789C52.9254 202.789 52.9598 202.513 53.1075 202.252C53.2552 201.991 53.4521 201.834 53.5063 201.873C53.5604 201.912 53.4718 202.134 53.334 202.365C53.1961 202.597 53.0583 202.813 52.9943 202.789Z" fill="#263238"/>
<path d="M47.0672 203.271C47.0376 203.271 46.9244 203.182 46.762 202.995C46.5636 202.755 46.3427 202.534 46.1023 202.336C45.8658 202.147 45.5841 202.023 45.2851 201.976C45.0537 201.947 44.906 201.976 44.8913 201.947C44.8765 201.917 45.0192 201.814 45.29 201.794C45.6473 201.787 45.9959 201.905 46.2746 202.129C46.5357 202.342 46.7559 202.6 46.9244 202.892C47.0376 203.109 47.0967 203.251 47.0672 203.271ZM52.5365 201.72C52.5709 201.779 52.443 201.927 52.2263 202.006C52.0097 202.085 51.8177 202.055 51.8079 202.006C51.7981 201.957 51.9507 201.853 52.1377 201.784C52.3248 201.715 52.4971 201.661 52.5365 201.72ZM52.4183 201.312C52.4183 201.385 52.2214 201.445 51.9654 201.449C51.7094 201.454 51.5076 201.395 51.5125 201.326C51.5175 201.258 51.7193 201.194 51.9654 201.189C52.2116 201.184 52.4085 201.243 52.4183 201.312Z" fill="#263238"/>
<path d="M70.9628 201.651V197.442L63.416 197.388L63.352 203.689L63.8197 203.724C65.9021 203.857 74.4187 204.118 75.8118 203.685C77.3675 203.202 70.9628 201.651 70.9628 201.651Z" fill="#AD49EB"/>
<path d="M75.9891 203.301C75.9891 203.37 73.1683 203.429 69.6829 203.429C66.1975 203.429 63.3816 203.37 63.3816 203.301C63.3816 203.232 66.2024 203.173 69.6829 203.173C73.1634 203.173 75.9891 203.232 75.9891 203.301ZM71.0957 202.513C71.0367 202.479 71.0957 202.257 71.2484 202.021C71.401 201.784 71.6077 201.686 71.657 201.735C71.7062 201.784 71.6028 201.972 71.4551 202.173C71.3074 202.375 71.1597 202.548 71.0957 202.513ZM71.5782 202.789C71.5142 202.789 71.5437 202.513 71.6963 202.252C71.8489 201.991 72.0409 201.834 72.0951 201.873C72.1492 201.912 72.0557 202.134 71.9179 202.365C71.78 202.597 71.6471 202.813 71.5782 202.789Z" fill="#263238"/>
<path d="M65.6511 203.271C65.6215 203.271 65.5132 203.182 65.3458 202.995C65.1475 202.755 64.9266 202.534 64.6862 202.336C64.4497 202.147 64.168 202.023 63.869 201.976C63.6425 201.947 63.4899 201.976 63.4751 201.947C63.4604 201.917 63.6031 201.814 63.8739 201.794C64.2312 201.787 64.5798 201.905 64.8585 202.129C65.1209 202.34 65.3414 202.599 65.5083 202.892C65.6215 203.109 65.6806 203.251 65.6511 203.271ZM71.1204 201.72C71.1548 201.779 71.0268 201.927 70.8102 202.006C70.5936 202.085 70.4016 202.055 70.3918 202.006C70.382 201.957 70.5346 201.853 70.7216 201.784C70.9087 201.715 71.081 201.661 71.1204 201.72ZM71.0121 201.312C71.0121 201.385 70.8152 201.445 70.5592 201.449C70.3032 201.454 70.1063 201.395 70.1112 201.326C70.1161 201.258 70.313 201.194 70.5592 201.189C70.8053 201.184 71.0121 201.243 71.0121 201.312Z" fill="#263238"/>
<path d="M98.7672 76.6594C98.5703 76.4576 98.0829 76.556 98.0829 76.556C98.1318 76.2726 98.1318 75.9829 98.0829 75.6995C97.9943 75.4238 97.374 75.4779 97.374 75.4779C97.3455 75.2458 97.3455 75.011 97.374 74.7789C97.379 74.7274 97.3679 74.6757 97.3424 74.6308C97.3168 74.5858 97.278 74.5499 97.2313 74.5278C96.9378 74.4081 96.6226 74.3511 96.3058 74.3604C95.9267 74.0897 97.4627 71.9384 98.0337 71.2492C98.6048 70.56 98.5014 70.0234 97.9943 70.0234C97.6448 70.0234 95.8529 72.091 95.3015 72.7851C94.7502 73.4792 93.2881 75.409 93.2388 73.8681C93.1896 72.3273 92.5693 71.1655 92.1804 70.9686C91.7915 70.7717 91.378 71.2344 91.5897 71.6627C91.7756 72.1493 91.8917 72.6598 91.9343 73.1789C91.9877 73.5925 91.9694 74.0122 91.8801 74.4195C91.7169 75.1774 91.4947 75.9214 91.2155 76.6447H91.1761C91.1761 76.6447 80.4344 86.9482 79.6566 87.6817C78.9625 88.3414 65.0012 86.899 62.2001 86.6036C61.2482 86.4643 60.2871 86.3985 59.3251 86.4067C58.1091 86.4609 57.8925 86.6332 56.6815 86.6479C53.6231 86.6819 50.5719 86.9502 47.5545 87.4504C46.1882 87.6827 44.912 88.2857 43.865 89.1938C42.8181 90.1018 42.0406 91.28 41.6175 92.5997C38.7967 101.412 32.4068 122.27 31.2794 133.986C30.4276 135.531 29.6585 137.12 28.9755 138.747C28.183 140.903 28.3749 140.977 28.6408 141.026C29.3595 141.159 30.1767 137.29 30.4819 138.225C30.7872 139.16 28.9312 142.838 29.6844 142.946C30.669 143.084 31.4517 139.008 31.5453 138.683C31.6388 138.358 32.1262 138.461 32.0376 138.766C31.8948 139.2 30.5115 143.793 31.4764 143.94C32.008 144.019 32.0671 143.049 32.0671 143.049C32.0671 143.049 33.0517 138.653 33.4997 138.742C33.9476 138.83 33.4701 141.425 33.2437 142.291C33.0172 143.158 33.3323 143.596 33.795 143.384C34.1101 143.236 34.8633 140.603 35.0701 139.746C35.2768 138.89 35.7937 136.517 36.4879 137.89C37.182 139.264 38.2355 140.061 38.6687 140.081C38.7663 140.07 38.8583 140.029 38.9329 139.965C39.0075 139.901 39.0612 139.817 39.0871 139.722C39.1131 139.627 39.1101 139.527 39.0785 139.434C39.0469 139.341 38.9882 139.259 38.9099 139.2C38.5373 138.836 38.2175 138.422 37.9598 137.969C37.7301 137.616 37.5636 137.227 37.4675 136.817C37.2691 136 37.1537 135.166 37.1229 134.326L37.0441 133.834C38.1469 128.374 41.3221 112.35 45.9053 102.116L47.7859 105.985L48.6031 108.85L43.5916 121.221L64.9667 120.941L61.7767 108.663L65.651 95.8636C69.8404 95.9571 80.5969 96.1146 82.3888 95.3024C84.6435 94.3178 96.3058 79.5885 96.3058 79.5885C97.066 78.9978 97.794 78.3668 98.4866 77.6981C98.4866 77.6981 99.1955 77.1025 98.7672 76.6594Z" fill="#FFBE9D"/>
<path d="M42.6513 112.08C43.2716 109.963 46.4567 99.4966 46.4567 99.4966C46.4567 99.4966 48.0222 108.028 47.6087 109.057C47.2283 109.938 46.7789 110.787 46.2647 111.597C42.6513 117.096 43.1239 119.848 43.1239 119.848L64.9569 119.183C65.0061 116.131 63.1994 109.032 62.8253 107.9C62.4512 106.768 63.6967 103.061 63.6967 103.061C63.6967 103.061 66.1581 100.555 66.0695 99.2653C66.0227 98.1067 65.8795 96.954 65.6412 95.8192L78.933 96.3115L78.5145 87.3027L59.4236 85.3926C58.759 87.2682 52.7482 86.3476 52.7482 86.3476C46.2598 86.5642 45.8561 87.7556 43.1584 89.8527C40.4607 91.9499 35.9956 109.948 35.9956 109.948L42.6513 112.08Z" fill="#AD49EB"/>
<path d="M55.5591 109.948C55.1808 110.016 54.7954 110.035 54.4121 110.007C53.6983 110.007 52.7186 109.958 51.6405 109.849C50.5624 109.741 49.5877 109.589 48.8935 109.451C48.5108 109.401 48.1355 109.306 47.776 109.165C48.1609 109.165 48.545 109.202 48.9231 109.274C49.6221 109.362 50.5919 109.485 51.6651 109.594C52.7383 109.702 53.713 109.776 54.417 109.825C54.8007 109.83 55.1832 109.871 55.5591 109.948ZM57.0557 108.092C56.6772 108.277 56.277 108.415 55.8643 108.501C53.9003 109.017 51.8739 109.257 49.8437 109.214C49.4235 109.228 49.0034 109.188 48.5932 109.096C49.0079 109.044 49.4258 109.023 49.8437 109.032C50.6166 109.008 51.6799 108.954 52.8515 108.816C54.0232 108.678 55.0668 108.481 55.8053 108.323C56.2154 108.214 56.6335 108.137 57.0557 108.092ZM64.4006 99.8117C64.3907 100.187 64.3395 100.56 64.248 100.924C64.12 101.609 63.9231 102.544 63.672 103.568C63.421 104.592 63.1797 105.537 62.9631 106.177C62.876 106.543 62.7472 106.898 62.5791 107.235C62.6066 106.861 62.6759 106.491 62.7859 106.133C62.973 105.365 63.1847 104.479 63.421 103.509C63.6573 102.539 63.8837 101.653 64.0708 100.885C64.1374 100.515 64.2482 100.155 64.4006 99.8117ZM42.8827 110.824C41.7438 110.648 40.6198 110.387 39.5204 110.041C38.3969 109.779 37.2945 109.433 36.222 109.008C37.3604 109.186 38.4841 109.448 39.5844 109.79C40.7081 110.052 41.8106 110.398 42.8827 110.824ZM65.8775 95.711C65.6918 95.743 65.502 95.743 65.3163 95.711C64.8021 95.6582 64.2972 95.5374 63.8148 95.3516C63.0095 95.049 62.2763 94.5813 61.6625 93.9785C61.0487 93.3757 60.5678 92.6512 60.2506 91.8515C59.9001 90.9717 59.7504 90.0248 59.8125 89.0799C59.8344 88.3004 60.0675 87.5416 60.4869 86.8843C60.7819 86.4414 61.2225 86.1158 61.7324 85.9637C61.8687 85.9261 62.0095 85.9079 62.1509 85.9095H62.2985C62.2985 85.9095 62.0918 85.9095 61.762 86.0424C61.2942 86.2153 60.8974 86.5392 60.6346 86.963C59.9651 88.0165 59.778 89.9414 60.4919 91.7382C60.8241 92.5855 61.3442 93.3463 62.013 93.9634C62.5611 94.4683 63.1923 94.8747 63.8788 95.1645C64.5231 95.4192 65.1933 95.6024 65.8775 95.711ZM77.3527 96.1344C77.2296 94.6247 77.1901 93.1094 77.2346 91.5955C77.196 90.0827 77.242 88.5691 77.3724 87.0615C77.4956 88.5695 77.5351 90.0831 77.4906 91.5955C77.532 93.1098 77.4859 94.6253 77.3527 96.1344Z" fill="#263238"/>
<path d="M59.2956 85.944C59.3497 84.8461 59.463 83.6056 59.463 83.6056C59.463 83.6056 62.1804 83.3053 62.3428 80.4992C62.5053 77.6932 62.3428 71.2196 62.3428 71.2196L57.42 68.6991L51.9556 72.9968L52.7974 87.027L57.8089 87.347C58.1919 87.3576 58.5636 87.2158 58.8423 86.9528C59.121 86.6898 59.284 86.327 59.2956 85.944Z" fill="#FFBE9D"/>
<path d="M59.7829 78.279C59.7829 78.279 59.7829 78.3331 59.7386 78.3971C59.702 78.4435 59.6546 78.4804 59.6006 78.5044C59.5466 78.5284 59.4875 78.5389 59.4285 78.535C59.1134 78.535 58.8082 78.1707 58.6999 77.7473C58.6484 77.5421 58.6484 77.3273 58.6999 77.1221C58.71 77.0325 58.7423 76.9469 58.7939 76.873C58.8455 76.799 58.9147 76.7391 58.9953 76.6987C59.0615 76.6714 59.1358 76.6714 59.202 76.6987C59.2511 76.7231 59.2909 76.7629 59.3153 76.812C59.3497 76.8956 59.3153 76.9498 59.3153 76.9449C59.3153 76.94 59.3153 76.8957 59.266 76.8464C59.2403 76.8112 59.2025 76.7866 59.1598 76.7776C59.1171 76.7685 59.0725 76.7755 59.0347 76.7972C58.9743 76.8337 58.9241 76.8849 58.8888 76.946C58.8535 77.0071 58.8343 77.0762 58.8328 77.1467C58.7914 77.3298 58.7914 77.5199 58.8328 77.703C58.9313 78.087 59.1971 78.3971 59.4334 78.4267C59.4796 78.4329 59.5267 78.4296 59.5716 78.4169C59.6165 78.4042 59.6582 78.3824 59.6943 78.3528C59.7534 78.3134 59.7731 78.2741 59.7829 78.279Z" fill="#EB996E"/>
<path d="M64.0314 69.7035C63.6523 68.4137 62.2788 67.7737 61.0284 67.4192C59.1233 66.8777 57.0655 66.6414 55.2047 67.3257C53.3438 68.01 51.1088 69.2112 51.1088 71.264C50.011 71.1754 49.3809 72.1354 48.9477 73.3267C48.6707 74.0525 48.5047 74.8159 48.4554 75.5912C48.3175 78.2791 47.5644 81.991 45.8217 83.9601C44.8371 85.0579 43.4734 85.8161 42.9122 87.1846C42.4199 88.371 42.6759 89.779 42.2181 90.9802C41.8095 92.0386 40.9086 92.7918 40.2489 93.7124C39.5769 94.7567 39.1814 95.9547 39.0996 97.1939C39.0178 98.4331 39.2523 99.6728 39.7813 100.796C40.314 101.891 41.0641 102.866 41.9857 103.662C42.9074 104.457 43.9814 105.057 45.1423 105.424C47.4418 106.123 49.8939 106.147 52.2066 105.493C53.9423 105.078 55.5614 104.275 56.9424 103.145C58.3555 101.991 59.326 100.384 59.6894 98.5959C60.0389 96.5873 59.4777 94.5443 59.0593 92.5456C57.7498 86.2296 58.1239 85.8997 59.778 80.0366C59.8174 79.9332 59.8371 79.8249 59.8666 79.7215C59.8962 79.6181 59.9109 79.5689 59.9306 79.4902C59.9776 79.2584 60.0023 79.0227 60.0045 78.7862C59.7629 78.876 59.5006 78.895 59.2486 78.841C58.9966 78.7869 58.7652 78.662 58.5818 78.481C58.3979 78.2879 58.2696 78.0487 58.2107 77.7887C58.1518 77.5287 58.1643 77.2576 58.247 77.0041C58.3632 76.7269 58.5362 76.4772 58.755 76.2711C58.9738 76.065 59.2334 75.9072 59.5171 75.8078C60.0635 75.5814 60.6494 75.4632 61.186 75.2122C62.3231 74.6707 63.1108 73.5482 63.6474 72.3717C64.0886 71.5562 64.2247 70.6102 64.0314 69.7035Z" fill="#263238"/>
<path d="M59.9798 78.4119C60.0839 78.5656 60.1698 78.7308 60.2358 78.9042C60.3835 79.2144 60.5804 79.6525 60.797 80.1596L60.8364 80.2531H60.733L60.2408 80.2974C59.9011 80.2974 59.6156 80.3614 59.2808 80.3565C59.2517 80.3499 59.2246 80.3361 59.2023 80.3163C59.1799 80.2965 59.1629 80.2714 59.1528 80.2432C59.1382 80.1985 59.1382 80.1502 59.1528 80.1054C59.1642 80.039 59.179 79.9733 59.1971 79.9085L59.2857 79.559C59.3303 79.3258 59.3996 79.098 59.4925 78.8796C59.4833 79.1173 59.4487 79.3533 59.3891 79.5836L59.3202 79.9331C59.2956 80.0512 59.2513 80.2334 59.3202 80.2186C59.5663 80.2186 59.9159 80.1645 60.2408 80.1448L60.733 80.1005L60.6691 80.2088C60.4574 79.7165 60.2801 79.2537 60.1768 78.9338C60.0861 78.7703 60.0197 78.5945 59.9798 78.4119Z" fill="#AD49EB"/>
<path d="M43.124 119.848L64.9569 119.183L74.4581 156.272L72.7105 198.816H61.1663L62.5792 157.178L54.1364 131.358L55.4361 200.465L43.7689 200.637L42.5431 135.68C42.4889 133.873 41.8982 129.802 42.1197 128.01L43.124 119.848Z" fill="#263238"/>
<path d="M57.041 131.884C56.6836 131.907 56.3248 131.885 55.9727 131.82C55.313 131.742 54.4121 131.604 53.4226 131.407C52.4331 131.21 51.547 130.983 50.907 130.801C50.5649 130.726 50.234 130.607 49.9225 130.447C49.9225 130.373 51.5273 130.757 53.4965 131.156C55.4656 131.555 57.0508 131.81 57.041 131.884ZM72.5923 196.482C72.5923 196.551 69.9783 196.61 66.7538 196.61C63.5293 196.61 60.9103 196.551 60.9103 196.482C60.9103 196.413 63.5244 196.354 66.7538 196.354C69.9832 196.354 72.5923 196.409 72.5923 196.482ZM55.3327 198.668C55.3327 198.742 52.7925 198.796 49.6616 198.796C46.5306 198.796 43.9953 198.742 43.9953 198.668C43.9953 198.594 46.5355 198.54 49.6616 198.54C52.7876 198.54 55.3327 198.599 55.3327 198.668Z" fill="#455A64"/>
<path d="M53.8263 198.491C53.7574 198.491 53.4521 183.393 53.142 164.769C52.8319 146.146 52.6497 131.038 52.7137 131.038C52.7777 131.038 53.0928 146.131 53.398 164.764C53.7032 183.397 53.9001 198.491 53.8263 198.491ZM71.0416 196.483C71.0362 196.415 71.0362 196.348 71.0416 196.281V195.69C71.0416 195.158 71.081 194.395 71.1105 193.425C71.1794 191.456 71.2779 188.596 71.401 185.091C71.6668 178.041 72.0409 168.324 72.4495 157.597V157.306V157.341C69.865 147.003 67.5267 137.62 65.8283 130.831L63.8591 122.802C63.6327 121.861 63.4604 121.128 63.3373 120.616C63.2782 120.375 63.2388 120.188 63.2044 120.045C63.1852 119.981 63.1736 119.915 63.1699 119.848C63.1955 119.91 63.2153 119.974 63.229 120.04C63.2684 120.178 63.3176 120.365 63.3865 120.601C63.5194 121.094 63.7114 121.842 63.9576 122.777C64.4499 124.677 65.144 127.414 66.0104 130.787C67.7236 137.57 70.0866 146.929 72.7055 157.282V157.607C72.2674 168.333 71.8686 178.046 71.5782 185.096C71.4256 188.606 71.2976 191.446 71.209 193.425C71.1597 194.41 71.1204 195.158 71.0957 195.69C71.0957 195.941 71.0662 196.138 71.0613 196.281C71.062 196.348 71.0554 196.416 71.0416 196.483Z" fill="#455A64"/>
<path d="M67.2756 156.44C66.4464 156.712 65.5922 156.902 64.7256 157.006C63.6622 157.188 62.7564 157.316 62.3478 157.336V157.237C62.4807 157.277 62.5496 157.301 62.5496 157.321C62.5496 157.341 62.466 157.321 62.3281 157.321H62.0327L62.3281 157.232C62.7121 157.119 63.6179 156.932 64.6813 156.74C65.5341 156.555 66.4031 156.454 67.2756 156.44ZM67.0738 157.853C66.3059 157.888 65.5364 157.853 64.7748 157.749C64.0058 157.733 63.2398 157.649 62.4856 157.498C64.0241 157.373 65.5728 157.492 67.0738 157.853Z" fill="#455A64"/>
<path opacity="0.2" d="M43.0304 120.631C43.2889 120.963 43.6146 121.236 43.9862 121.434C44.3577 121.632 44.7667 121.749 45.1866 121.778C46.0659 121.882 46.9553 121.865 47.8302 121.728C53.4669 121.103 59.4383 120.527 64.9569 119.183C57.8138 119.582 50.267 119.449 43.1239 119.848L43.0501 120.458M50.3901 130.698L54.417 146.323L54.1364 131.358L50.3901 130.698Z" fill="black"/>
</svg>
