<svg width="184" height="162" viewBox="0 0 184 162" fill="none" xmlns="http://www.w3.org/2000/svg">
<path d="M96.0043 20.2615V15.7645H92.2374C91.9624 14.4839 91.458 13.2896 90.7692 12.2244L93.4344 9.55917L90.2545 6.3793L87.5893 9.04456C86.5241 8.35573 85.3298 7.85077 84.0492 7.57631V3.80945H79.5522V7.57631C78.2716 7.85077 77.0772 8.35573 76.0121 9.04456L73.3468 6.3793L70.167 9.55917L72.8322 12.2244C72.1434 13.2896 71.6384 14.4839 71.364 15.7645H67.5966V20.2615H71.364C71.6384 21.5421 72.1434 22.7365 72.8322 23.8016L70.167 26.4669L73.3468 29.6468L76.0121 26.9815C77.0772 27.6703 78.2716 28.1753 79.5522 28.4497V32.2171H84.0492V28.4497C85.3298 28.1753 86.5241 27.6703 87.5893 26.9815L90.2545 29.6468L93.4344 26.4669L90.7692 23.8016C91.458 22.7365 91.963 21.5421 92.2374 20.2615H96.0043ZM81.8004 23.3513C78.8521 23.3513 76.4624 20.9611 76.4624 18.0133C76.4624 15.065 78.8521 12.6753 81.8004 12.6753C84.7487 12.6753 87.1385 15.065 87.1385 18.0133C87.1385 20.9616 84.7487 23.3513 81.8004 23.3513ZM31.4788 113.337V109.678H28.4131C28.1896 108.635 27.779 107.664 27.2183 106.797L29.3871 104.628L26.7996 102.04L24.6307 104.209C23.7639 103.649 22.792 103.238 21.75 103.014V99.9487H18.0903V103.014C17.0482 103.238 16.0758 103.649 15.2096 104.209L13.0407 102.04L10.4531 104.628L12.622 106.797C12.0613 107.664 11.6507 108.635 11.4271 109.678H8.36145V113.337H11.4271C11.6507 114.379 12.0613 115.351 12.622 116.218L10.4531 118.387L13.0407 120.974L15.2096 118.806C16.0764 119.366 17.0482 119.777 18.0903 120V123.066H21.75V120C22.792 119.777 23.7639 119.366 24.6307 118.806L26.7996 120.974L29.3871 118.387L27.2183 116.218C27.779 115.351 28.1896 114.379 28.4131 113.337H31.4788ZM19.9204 115.851C17.521 115.851 15.5767 113.907 15.5767 111.508C15.5767 109.108 17.5216 107.164 19.9204 107.164C22.3192 107.164 24.2641 109.109 24.2641 111.508C24.2641 113.907 22.3192 115.851 19.9204 115.851Z" fill="#F288A4"/>
<path d="M183 103.883V99.983H179.733C179.495 98.8723 179.056 97.8361 178.459 96.9119L180.771 94.6005L178.013 91.8425L175.701 94.1539C174.777 93.5568 173.741 93.1183 172.63 92.8803V89.6125H168.729V92.8803C167.618 93.1183 166.582 93.5568 165.658 94.1539" stroke="#006680" stroke-width="0.898428" stroke-miterlimit="10"/>
<path d="M165.659 94.154L163.347 91.8425L160.589 94.6005L162.9 96.912C162.303 97.8356 161.864 98.8718 161.626 99.9831M161.627 99.9831H158.359V103.883H161.627C161.865 104.995 162.303 106.03 162.901 106.954M162.9 106.954L160.589 109.266L163.347 112.024L165.659 109.712C166.582 110.31 167.618 110.748 168.73 110.986M168.729 110.986V114.254H172.63V110.986C173.741 110.748 174.777 110.31 175.701 109.712L178.013 112.024L180.771 109.266L178.459 106.954C179.057 106.031 179.495 104.995 179.733 103.883H183M135.971 150.578V146.677H132.704C132.466 145.566 132.028 144.53 131.43 143.606M170.68 106.564C168.122 106.564 166.049 104.491 166.049 101.933C166.049 99.3757 168.122 97.3028 170.68 97.3028C173.237 97.3028 175.31 99.3757 175.31 101.933C175.31 104.491 173.237 106.564 170.68 106.564Z" stroke="#006680" stroke-width="0.898428" stroke-miterlimit="10"/>
<path d="M131.43 143.607L133.742 141.295L130.983 138.537L128.672 140.848C127.748 140.25 126.712 139.812 125.601 139.574V136.307H121.7V139.575C120.589 139.813 119.553 140.251 118.629 140.849L116.318 138.537L113.559 141.295L115.871 143.607C115.274 144.53 114.836 145.566 114.598 146.678L111.33 146.677V150.578H114.597C114.836 151.689 115.274 152.725 115.871 153.649L113.559 155.961L116.318 158.719L118.629 156.407C119.553 157.004 120.589 157.442 121.7 157.681V160.948H125.601V157.681C126.712 157.442 127.748 157.004 128.672 156.407L130.983 158.719L133.742 155.961L131.43 153.649C132.028 152.725 132.466 151.689 132.704 150.578H135.971M115.047 11.5651V8.67738H112.628C112.451 7.85507 112.127 7.08798 111.685 6.40397L113.396 4.69288L111.354 2.65051L109.643 4.36214C108.959 3.91989 108.192 3.59558 107.37 3.41922M123.651 153.258C121.094 153.258 119.02 151.185 119.02 148.627C119.02 146.07 121.093 143.997 123.651 143.997C126.208 143.997 128.281 146.07 128.281 148.627C128.281 151.185 126.208 153.258 123.651 153.258Z" stroke="#006680" stroke-width="0.898428" stroke-miterlimit="10"/>
<path d="M107.37 3.41915V0.999939H104.481V3.41915C103.659 3.59552 102.892 3.91983 102.208 4.36207" stroke="#006680" stroke-width="0.898428" stroke-miterlimit="10"/>
<path d="M102.209 4.36214L100.497 2.65051L98.4551 4.69288L100.167 6.40397C99.7245 7.08798 99.4001 7.85507 99.2238 8.67738H96.8046V11.5651H99.2238C99.4001 12.3874 99.7245 13.1545 100.167 13.8385L98.4551 15.5496L100.497 17.592L102.209 15.8803C102.893 16.3226 103.659 16.6469 104.481 16.8233V19.2425H107.37V16.8233C108.192 16.6469 108.959 16.3226 109.643 15.8803" stroke="#006680" stroke-width="0.898428" stroke-miterlimit="10"/>
<path d="M109.643 15.8803L111.354 17.592L113.396 15.5496L111.685 13.8385C112.127 13.1545 112.451 12.3874 112.628 11.5651H115.047M105.926 13.549C104.033 13.549 102.497 12.0143 102.497 10.121C102.497 8.22815 104.032 6.69342 105.926 6.69342C107.819 6.69342 109.354 8.22815 109.354 10.121C109.354 12.0143 107.819 13.549 105.926 13.549Z" stroke="#006680" stroke-width="0.898428" stroke-miterlimit="10"/>
<path d="M50.7237 83.4655H4.95154C2.21712 83.4655 0 81.2489 0 78.5145C0 75.7801 2.21659 73.563 4.95154 73.563H50.7237C53.4581 73.563 55.6747 75.7796 55.6747 78.5145C55.6747 81.2489 53.4581 83.4655 50.7237 83.4655ZM64.6005 93.3681H18.8284C16.094 93.3681 13.8774 91.1515 13.8774 88.4171C13.8774 85.6827 16.094 83.4655 18.8284 83.4655H64.6005C67.3349 83.4655 69.5515 85.6821 69.5515 88.4171C69.5515 91.1515 67.3349 93.3681 64.6005 93.3681Z" fill="#F288A4"/>
<path d="M156.649 35.2351H110.876C108.142 35.2351 105.925 33.0185 105.925 30.2841C105.925 27.5497 108.142 25.3326 110.876 25.3326H156.649C159.383 25.3326 161.6 27.5497 161.6 30.2841C161.6 33.0185 159.383 35.2351 156.649 35.2351Z" fill="#F288A4"/>
<path d="M170.525 45.1376H124.753C122.019 45.1376 119.802 42.921 119.802 40.1861C119.802 37.4517 122.018 35.2346 124.753 35.2346H170.525C173.26 35.2346 175.476 37.4511 175.476 40.1861C175.476 42.9205 173.26 45.1376 170.525 45.1376Z" fill="#F288A4"/>
<path d="M76.4151 74.2958H21.2213V19.102H76.4151V74.2958Z" fill="#565656" fill-opacity="0.290196"/>
<path d="M76.4151 23.6295H21.2213V18.9063H76.4151V23.6295Z" fill="#565656" fill-opacity="0.290196"/>
<path d="M71.7059 20.0825L74.4832 22.9439M74.525 20.1248L71.6636 22.9021" stroke="#565656" stroke-opacity="0.290196" stroke-width="0.898428" stroke-miterlimit="10" stroke-linecap="round" stroke-linejoin="round"/>
<path d="M57.5064 39.4598C57.5064 44.258 53.6168 48.1476 48.8186 48.1476C44.0204 48.1476 40.1307 44.258 40.1307 39.4598C40.1307 34.6616 44.0204 30.7714 48.8186 30.7714C53.6168 30.7714 57.5064 34.6616 57.5064 39.4598Z" fill="#565656" fill-opacity="0.290196"/>
<path d="M43.1599 34.5543V43.1537H54.5307L54.6996 34.5543C54.6996 34.5543 54.1447 29.3712 48.9439 29.3712C43.7431 29.3712 43.1604 34.5543 43.1604 34.5543H43.1599Z" fill="#565656" fill-opacity="0.290196"/>
<path d="M50.4079 43.6903H47.2731V40.5555H50.4079V43.6903Z" fill="#565656" fill-opacity="0.290196"/>
<path d="M48.6201 44.1476H46.2379V42.6841H48.6201V44.1476ZM51.614 44.1476H49.2318V42.6841H51.614V44.1476Z" fill="#565656" fill-opacity="0.290196"/>
<path d="M54.4095 48.9812H43.2714V46.3449C43.2714 44.786 44.5354 43.522 46.0942 43.522H51.5867C53.1455 43.522 54.4095 44.786 54.4095 46.3449V48.9812ZM46.5788 36.4289C46.5788 37.4715 45.7335 38.3169 44.6908 38.3169C43.6482 38.3169 42.8029 37.4715 42.8029 36.4289C42.8029 35.3863 43.6482 34.5409 44.6908 34.5409C45.7335 34.5409 46.5788 35.3863 46.5788 36.4289ZM54.8341 36.2627C54.8341 37.3054 53.9887 38.1507 52.9461 38.1507C51.9035 38.1507 51.0586 37.3054 51.0586 36.2627C51.0586 35.2201 51.904 34.3748 52.9461 34.3748C53.9887 34.3748 54.8341 35.2201 54.8341 36.2627Z" fill="#565656" fill-opacity="0.290196"/>
<path d="M48.9766 42.1384H48.9434C46.4872 42.1384 44.4957 40.147 44.4957 37.6908V34.7237C44.4957 32.2675 46.4872 30.2761 48.9434 30.2761H48.9766C51.4328 30.2761 53.4243 32.2675 53.4243 34.7237V37.6908C53.4243 40.147 51.4328 42.1384 48.9766 42.1384Z" fill="#565656" fill-opacity="0.290196"/>
<path d="M46.834 36.9119C46.834 37.0438 46.7274 37.1504 46.596 37.1504C46.4642 37.1504 46.358 37.0438 46.358 36.9119C46.358 36.7806 46.4647 36.6739 46.596 36.6739C46.7279 36.6739 46.834 36.7806 46.834 36.9119ZM51.4323 36.9119C51.4323 37.0438 51.3256 37.1504 51.1943 37.1504C51.0624 37.1504 50.9558 37.0438 50.9558 36.9119C50.9558 36.7806 51.0624 36.6739 51.1943 36.6739C51.3256 36.6739 51.4323 36.7806 51.4323 36.9119ZM46.9279 37.9567C46.9279 38.2933 46.655 38.5662 46.3184 38.5662C45.9817 38.5662 45.7089 38.2933 45.7089 37.9567C45.7089 37.62 45.9817 37.3472 46.3184 37.3472C46.655 37.3472 46.9279 37.62 46.9279 37.9567ZM52.2766 37.9567C52.2766 38.2933 52.0043 38.5662 51.6671 38.5662C51.3305 38.5662 51.0576 38.2933 51.0576 37.9567C51.0576 37.62 51.3299 37.3472 51.6671 37.3472C52.0038 37.3472 52.2766 37.62 52.2766 37.9567ZM47.7748 38.3903H50.2112C50.2112 38.3903 48.9407 39.9942 47.7748 38.3903Z" fill="#565656" fill-opacity="0.290196"/>
<path d="M65.328 55.9569H32.3086C31.1615 55.9569 30.2319 55.0273 30.2319 53.8802M30.2319 53.8796C30.2319 52.7325 31.162 51.8024 32.3086 51.8024H65.328C66.4757 51.8024 67.4052 52.7325 67.4052 53.8796C67.4052 55.0268 66.4757 55.9563 65.328 55.9563M65.328 62.1553H32.3086C31.1615 62.1553 30.2319 61.2252 30.2319 60.078C30.2319 58.9309 31.162 58.0008 32.3086 58.0008H65.328C66.4757 58.0008 67.4052 58.9309 67.4052 60.078C67.4052 61.2252 66.4757 62.1553 65.328 62.1553Z" stroke="#565656" stroke-opacity="0.290196" stroke-width="0.898428" stroke-miterlimit="10"/>
<path d="M57.1424 70.4657H44.7183C43.5711 70.4657 42.6416 69.5356 42.6416 68.3885C42.6416 67.2413 43.5717 66.3113 44.7183 66.3113H57.1424C58.2896 66.3113 59.2196 67.2413 59.2196 68.3885C59.2196 69.5356 58.2896 70.4657 57.1424 70.4657Z" fill="#565656" fill-opacity="0.290196"/>
<path d="M55.0302 68.3537H42.6061C41.4589 68.3537 40.5294 67.4236 40.5294 66.277C40.5294 65.1298 41.4595 64.1998 42.6061 64.1998H55.0302C56.1774 64.1998 57.1074 65.1298 57.1074 66.277C57.1074 67.4241 56.1774 68.3537 55.0302 68.3537Z" fill="#565656" fill-opacity="0.290196"/>
<path d="M45.4065 54.2415C45.5834 54.2415 45.6751 54.1369 45.6751 53.9536V53.0793H45.5014V53.9665C45.5014 54.0485 45.4671 54.078 45.4097 54.078C45.3524 54.078 45.3181 54.0485 45.3181 53.9665V53.0793H45.1379V53.9536C45.1379 54.1369 45.2296 54.2415 45.4065 54.2415Z" fill="#555555"/>
<path d="M46.037 54.2415C46.2139 54.2415 46.3087 54.1369 46.3087 53.9498C46.3087 53.8072 46.261 53.7156 46.1104 53.5832C45.9925 53.4803 45.9549 53.4191 45.9549 53.3361C45.9549 53.2573 45.9876 53.2262 46.045 53.2262C46.1024 53.2262 46.1351 53.2573 46.1351 53.3387V53.3977H46.3055V53.35C46.3055 53.1667 46.2187 53.0621 46.0434 53.0621C45.8686 53.0621 45.7748 53.1672 45.7748 53.3473C45.7748 53.4781 45.8241 53.5714 45.9748 53.7043C46.0927 53.8072 46.1286 53.8684 46.1286 53.9632C46.1286 54.0485 46.0927 54.0774 46.0353 54.0774C45.978 54.0774 45.9421 54.0479 45.9421 53.9659V53.8877H45.7716V53.9531C45.7716 54.1364 45.8601 54.2409 46.037 54.2409V54.2415Z" fill="#555555"/>
<path d="M46.4116 54.2248H46.9026V54.0613H46.5917V53.7091H46.8389V53.5451H46.5917V53.2422H46.9026V53.0787H46.4116V54.2248Z" fill="#555555"/>
<path d="M47.0061 54.2248H47.1862V53.7338H47.2484C47.3304 53.7338 47.361 53.7681 47.361 53.8742V54.0838C47.361 54.1771 47.3674 54.1953 47.3776 54.2248H47.5609C47.5427 54.1825 47.5411 54.1412 47.5411 54.086V53.8844C47.5411 53.7552 47.5116 53.67 47.4215 53.6421V53.6389C47.502 53.6062 47.5395 53.5312 47.5395 53.4132V53.3425C47.5395 53.1656 47.4591 53.0787 47.2725 53.0787H47.0061V54.2248ZM47.1862 53.5698V53.2422H47.2682C47.332 53.2422 47.3599 53.2781 47.3599 53.3602V53.4486C47.3599 53.5403 47.3186 53.5698 47.2522 53.5698H47.1868H47.1862Z" fill="#555555"/>
<path d="M47.666 54.2248H47.8258V53.388H47.8295L48.0455 54.2248H48.2305V53.0787H48.0702V53.7649H48.0664L47.8917 53.0787H47.666V54.2248Z" fill="#555555"/>
<path d="M48.3173 54.2249H48.4845L48.5172 54.0003H48.722V53.997L48.7547 54.2243H48.9348L48.7482 53.0782H48.5043L48.3178 54.2243L48.3173 54.2249ZM48.5381 53.8453L48.6164 53.2787H48.6196L48.7 53.8453H48.5381Z" fill="#555555"/>
<path d="M49.0217 54.2248H49.1788V53.3569H49.182L49.3128 54.2248H49.4634L49.5948 53.3569H49.598V54.2248H49.7685V53.0787H49.5111L49.3964 53.8989H49.3932L49.2785 53.0787H49.0217V54.2248Z" fill="#555555"/>
<path d="M49.9025 54.2248H50.3935V54.0613H50.0826V53.7091H50.3297V53.5451H50.0826V53.2422H50.3935V53.0787H49.9025V54.2248Z" fill="#555555"/>
<path d="M46.0739 66.7482H46.7203V66.5257H46.3183V65.1926H46.0739V66.7482Z" fill="#555555"/>
<path d="M47.1831 66.7701C47.4232 66.7701 47.554 66.6281 47.554 66.3793V65.5613C47.554 65.3126 47.4227 65.1705 47.1831 65.1705C46.9429 65.1705 46.8121 65.3126 46.8121 65.5613V66.3793C46.8121 66.6281 46.9435 66.7701 47.1831 66.7701ZM47.1831 66.5482C47.1054 66.5482 47.0566 66.5058 47.0566 66.3949V65.5458C47.0566 65.4348 47.1054 65.3925 47.1831 65.3925C47.2608 65.3925 47.3096 65.4348 47.3096 65.5458V66.3949C47.3096 66.5058 47.2608 66.5482 47.1831 66.5482Z" fill="#555555"/>
<path d="M48.0653 66.7701C48.3055 66.7701 48.4293 66.6281 48.4293 66.3793V65.8706H48.076V66.0926H48.1983V66.397C48.1983 66.508 48.1495 66.5482 48.0718 66.5482C47.994 66.5482 47.9452 66.508 47.9452 66.397V65.5458C47.9452 65.4348 47.994 65.3925 48.0718 65.3925C48.1495 65.3925 48.1983 65.4348 48.1983 65.5458V65.6948H48.4293V65.5613C48.4293 65.3126 48.3049 65.1705 48.0653 65.1705C47.8252 65.1705 47.7008 65.3126 47.7008 65.5613V66.3793C47.7008 66.6281 47.8252 66.7701 48.0653 66.7701Z" fill="#555555"/>
<path d="M48.5875 66.7482H48.8314V65.1926H48.5875V66.7482Z" fill="#555555"/>
<path d="M49.0142 66.7482H49.2318V65.6123H49.2361L49.5293 66.7482H49.7802V65.1926H49.5631V66.1237H49.5583L49.3208 65.1926H49.0142V66.7482Z" fill="#555555"/>
<path d="M45.094 60.4259H45.2741V59.9596H45.3593C45.5395 59.9596 45.6279 59.8599 45.6279 59.6765V59.5634C45.6279 59.3801 45.5395 59.2804 45.3593 59.2804H45.094V60.4265V60.4259ZM45.2741 59.7955V59.4434H45.3593C45.4167 59.4434 45.4478 59.4696 45.4478 59.5511V59.6873C45.4478 59.7693 45.4167 59.795 45.3593 59.795H45.2741V59.7955Z" fill="#555555"/>
<path d="M45.621 60.4259H45.7882L45.8209 60.2013H46.0257V60.1981L46.0584 60.4254H46.2385L46.052 59.2793H45.8081L45.6215 60.4254L45.621 60.4259ZM45.8418 60.0464L45.9201 59.4798H45.9233L46.0037 60.0464H45.8418Z" fill="#555555"/>
<path d="M46.5542 60.442C46.7311 60.442 46.8259 60.3375 46.8259 60.1504C46.8259 60.0078 46.7782 59.9161 46.6276 59.7837C46.5097 59.6808 46.4721 59.6197 46.4721 59.5366C46.4721 59.4578 46.5048 59.4267 46.5622 59.4267C46.6196 59.4267 46.6523 59.4578 46.6523 59.5393V59.5983H46.8227V59.5506C46.8227 59.3672 46.7359 59.2627 46.5606 59.2627C46.3858 59.2627 46.292 59.3678 46.292 59.5479C46.292 59.6787 46.3414 59.7719 46.492 59.9049C46.6099 60.0078 46.6458 60.0689 46.6458 60.1638C46.6458 60.249 46.6099 60.278 46.5526 60.278C46.4952 60.278 46.4593 60.2485 46.4593 60.1665V60.0882H46.2888V60.1536C46.2888 60.3369 46.3773 60.4415 46.5542 60.4415V60.442Z" fill="#555555"/>
<path d="M47.1632 60.442C47.3401 60.442 47.435 60.3375 47.435 60.1504C47.435 60.0078 47.3872 59.9161 47.2366 59.7837C47.1187 59.6808 47.0812 59.6197 47.0812 59.5366C47.0812 59.4578 47.1139 59.4267 47.1712 59.4267C47.2286 59.4267 47.2613 59.4578 47.2613 59.5393V59.5983H47.4317V59.5506C47.4317 59.3672 47.3449 59.2627 47.1696 59.2627C46.9949 59.2627 46.901 59.3678 46.901 59.5479C46.901 59.6787 46.9504 59.7719 47.101 59.9049C47.2189 60.0078 47.2548 60.0689 47.2548 60.1638C47.2548 60.249 47.2189 60.278 47.1616 60.278C47.1042 60.278 47.0683 60.2485 47.0683 60.1665V60.0882H46.8978V60.1536C46.8978 60.3369 46.9863 60.4415 47.1632 60.4415V60.442Z" fill="#555555"/>
<path d="M47.6118 60.4259H47.8509L47.9329 59.6529H47.9361L48.0176 60.4259H48.2422L48.3585 59.2793H48.2025L48.1227 60.1606H48.1189L48.0342 59.2793H47.8375L47.7528 60.1606H47.749L47.6692 59.2793H47.4955L47.6118 60.4259Z" fill="#555555"/>
<path d="M48.7103 60.442C48.8872 60.442 48.9837 60.3375 48.9837 60.1542V59.5517C48.9837 59.3683 48.8872 59.2638 48.7103 59.2638C48.5334 59.2638 48.4369 59.3689 48.4369 59.5517V60.1542C48.4369 60.3375 48.5334 60.442 48.7103 60.442ZM48.7103 60.278C48.6529 60.278 48.617 60.2469 48.617 60.1654V59.5399C48.617 59.4578 48.6529 59.4273 48.7103 59.4273C48.7676 59.4273 48.8035 59.4584 48.8035 59.5399V60.1654C48.8035 60.2475 48.7676 60.278 48.7103 60.278Z" fill="#555555"/>
<path d="M49.1047 60.426H49.2848V59.935H49.347C49.429 59.935 49.4596 59.9693 49.4596 60.0754V60.285C49.4596 60.3783 49.466 60.3965 49.4762 60.426H49.6596C49.6413 60.3836 49.6397 60.3424 49.6397 60.2872V60.0856C49.6397 59.9564 49.6102 59.8712 49.5202 59.8433V59.8401C49.6006 59.8074 49.6381 59.7323 49.6381 59.6144V59.5436C49.6381 59.3668 49.5577 59.2799 49.3712 59.2799H49.1047V60.426ZM49.2848 59.7709V59.4434H49.3669C49.4307 59.4434 49.4585 59.4793 49.4585 59.5613V59.6498C49.4585 59.7415 49.4173 59.7709 49.3508 59.7709H49.2854H49.2848Z" fill="#555555"/>
<path d="M49.7646 60.4259H50.0396C50.2198 60.4259 50.3082 60.3262 50.3082 60.1429V59.5634C50.3082 59.3801 50.2198 59.2804 50.0396 59.2804H49.7646V60.4265V60.4259ZM49.9448 60.2619V59.4434H50.0364C50.0938 59.4434 50.1281 59.4728 50.1281 59.5549V60.1509C50.1281 60.233 50.0938 60.2625 50.0364 60.2625H49.9448V60.2619Z" fill="#555555"/>
<path d="M44.2294 34.5983L53.7015 34.5313C53.7015 34.5313 53.2463 30.2766 48.9772 30.2766C44.7075 30.2766 44.2294 34.5988 44.2294 34.5988V34.5983ZM44.4095 38.0805C44.4095 38.2515 44.2706 38.3903 44.0996 38.3903C43.9281 38.3903 43.7898 38.252 43.7898 38.0805C43.7898 37.9095 43.9281 37.7707 44.0996 37.7707C44.2706 37.7707 44.4095 37.9095 44.4095 38.0805ZM54.2011 38.0805C54.2011 38.2515 54.0622 38.3903 53.8912 38.3903C53.7202 38.3903 53.5814 38.252 53.5814 38.0805C53.5814 37.9095 53.7202 37.7707 53.8912 37.7707C54.0622 37.7707 54.2011 37.9095 54.2011 38.0805Z" fill="#565656" fill-opacity="0.290196"/>
<path d="M74.3036 72.1838H19.1093V16.99H74.3036V72.1838Z" fill="white"/>
<path d="M74.3036 21.5175H19.1093V16.7943H74.3036V21.5175Z" fill="#74309D"/>
<path d="M69.5939 17.9709L72.3712 20.8319M72.413 18.0128L69.5515 20.7901" stroke="#F4F4F4" stroke-width="0.898428" stroke-miterlimit="10" stroke-linecap="round" stroke-linejoin="round"/>
<path d="M55.3943 37.3477C55.3943 42.1459 51.5047 46.0355 46.7064 46.0355C41.9077 46.0355 38.0181 42.1459 38.0181 37.3477C38.0181 32.5495 41.9077 28.6599 46.7064 28.6599C51.5047 28.6599 55.3943 32.5495 55.3943 37.3477Z" fill="#C88FEB"/>
<path d="M41.0479 32.4423V41.0422H52.4186L52.587 32.4423C52.587 32.4423 52.0322 27.2592 46.8313 27.2592C41.6305 27.2592 41.0479 32.4423 41.0479 32.4423Z" fill="#F03F6D"/>
<path d="M48.2959 41.5783H45.161V38.4434H48.2959V41.5783Z" fill="#F6CDAF"/>
<path d="M46.5082 42.036H44.1265V40.5721H46.5082V42.036ZM49.502 42.036H47.1198V40.5721H49.502V42.036Z" fill="#F2F2F2"/>
<path d="M52.2975 46.8692H41.1593V44.2328C41.1593 42.674 42.4228 41.41 43.9822 41.41H49.4746C51.0334 41.41 52.2975 42.674 52.2975 44.2328V46.8692Z" fill="#F687AC"/>
<path d="M44.4668 34.3169C44.4668 35.3595 43.6215 36.2048 42.5789 36.2048C41.5362 36.2048 40.6914 35.3595 40.6914 34.3169C40.6914 33.2742 41.5368 32.4294 42.5789 32.4294C43.6215 32.4294 44.4668 33.2748 44.4668 34.3169ZM52.7221 34.1507C52.7221 35.1933 51.8767 36.0381 50.8346 36.0381C49.792 36.0381 48.9467 35.1928 48.9467 34.1507C48.9467 33.1081 49.792 32.2627 50.8346 32.2627C51.8773 32.2627 52.7221 33.1081 52.7221 34.1507Z" fill="#F6CDAF"/>
<path d="M46.8645 40.0264H46.8313C44.3751 40.0264 42.3837 38.035 42.3837 35.5788V32.6117C42.3837 30.1555 44.3746 28.1641 46.8313 28.1641H46.8645C49.3208 28.1641 51.3122 30.155 51.3122 32.6117V35.5788C51.3122 38.035 49.3213 40.0264 46.8645 40.0264Z" fill="#FFD8B8"/>
<path d="M44.722 34.8004C44.722 34.9317 44.6154 35.0384 44.4835 35.0384C44.3522 35.0384 44.2455 34.9317 44.2455 34.8004C44.2455 34.6685 44.3522 34.5618 44.4835 34.5618C44.6154 34.5618 44.722 34.6685 44.722 34.8004ZM49.3203 34.8004C49.3203 34.9317 49.2136 35.0384 49.0818 35.0384C48.9504 35.0384 48.8438 34.9317 48.8438 34.8004C48.8438 34.6685 48.9504 34.5618 49.0818 34.5618C49.2136 34.5618 49.3203 34.6685 49.3203 34.8004Z" fill="#5046AF"/>
<path d="M44.8158 35.8446C44.8158 36.1812 44.5429 36.4541 44.2063 36.4541C43.8697 36.4541 43.5968 36.1812 43.5968 35.8446C43.5968 35.508 43.8697 35.2351 44.2063 35.2351C44.5429 35.2351 44.8158 35.508 44.8158 35.8446ZM50.1651 35.8446C50.1651 36.1812 49.8922 36.4541 49.5556 36.4541C49.2189 36.4541 48.9461 36.1812 48.9461 35.8446C48.9461 35.508 49.2189 35.2351 49.5556 35.2351C49.8922 35.2351 50.1651 35.508 50.1651 35.8446Z" fill="#FFB19E"/>
<path d="M45.6627 36.2788H48.0991C48.0991 36.2788 46.8286 37.8821 45.6627 36.2788Z" fill="#F2F2F2"/>
<path d="M63.2158 53.8448H30.197C29.0498 53.8448 28.1198 52.9147 28.1198 51.7676C28.1198 50.6204 29.0498 49.6904 30.197 49.6904H63.2158C64.363 49.6904 65.2925 50.6204 65.2925 51.7676M65.293 51.7676C65.293 52.9147 64.3635 53.8448 63.2163 53.8448M63.2158 60.0432H30.197C29.0498 60.0432 28.1198 59.1131 28.1198 57.966C28.1198 56.8188 29.0498 55.8888 30.197 55.8888H63.2158C64.363 55.8888 65.2925 56.8188 65.2925 57.966M65.293 57.966C65.293 59.1131 64.3635 60.0432 63.2163 60.0432" stroke="#701D33" stroke-width="0.898428" stroke-miterlimit="10"/>
<path d="M55.0302 68.3537H42.6061C41.4589 68.3537 40.5294 67.4236 40.5294 66.277C40.5294 65.1298 41.4595 64.1998 42.6061 64.1998H55.0302C56.1774 64.1998 57.1074 65.1298 57.1074 66.277C57.1074 67.4241 56.1774 68.3537 55.0302 68.3537Z" fill="#565656" fill-opacity="0.290196"/>
<path d="M52.9182 66.2416H40.4941C39.3469 66.2416 38.4169 65.3116 38.4169 64.1644C38.4169 63.0173 39.3469 62.0872 40.4941 62.0872H52.9182C54.0654 62.0872 54.9954 63.0173 54.9954 64.1644C54.9954 65.3116 54.0654 66.2416 52.9182 66.2416Z" fill="#5046AF"/>
<path d="M43.2944 52.1295C43.4713 52.1295 43.563 52.0249 43.563 51.8416V50.9673H43.3893V51.8545C43.3893 51.9365 43.355 51.966 43.2977 51.966C43.2403 51.966 43.206 51.9365 43.206 51.8545V50.9673H43.0259V51.8416C43.0259 52.0249 43.1175 52.1295 43.2944 52.1295Z" fill="#F03F6D"/>
<path d="M43.9249 52.1295C44.1018 52.1295 44.1967 52.0249 44.1967 51.8378C44.1967 51.6953 44.149 51.6036 43.9983 51.4712C43.8804 51.3683 43.8429 51.3071 43.8429 51.2241C43.8429 51.1453 43.8756 51.1142 43.9329 51.1142C43.9903 51.1142 44.023 51.1453 44.023 51.2267V51.2857H44.1935V51.238C44.1935 51.0547 44.1066 50.9501 43.9313 50.9501C43.7566 50.9501 43.6628 51.0552 43.6628 51.2353C43.6628 51.3661 43.7121 51.4594 43.8627 51.5923C43.9806 51.6952 44.0166 51.7564 44.0166 51.8512C44.0166 51.9365 43.9806 51.9654 43.9233 51.9654C43.8659 51.9654 43.83 51.9359 43.83 51.8539V51.7757H43.6595V51.8411C43.6595 52.0244 43.748 52.1289 43.9249 52.1289V52.1295Z" fill="#F03F6D"/>
<path d="M44.3 52.1128H44.7911V51.9493H44.4802V51.5971H44.7273V51.4331H44.4802V51.1302H44.7911V50.9667H44.3V52.1128Z" fill="#F03F6D"/>
<path d="M44.894 52.1128H45.0742V51.6218H45.1363C45.2184 51.6218 45.2489 51.6561 45.2489 51.7622V51.9718C45.2489 52.0651 45.2553 52.0833 45.2655 52.1128H45.4489C45.4306 52.0705 45.429 52.0292 45.429 51.974V51.7724C45.429 51.6432 45.3995 51.558 45.3095 51.5301V51.5269C45.3899 51.4942 45.4274 51.4192 45.4274 51.3012V51.2305C45.4274 51.0536 45.347 50.9667 45.1605 50.9667H44.894V52.1128ZM45.0742 51.4578V51.1302H45.1562C45.22 51.1302 45.2478 51.1661 45.2478 51.2482V51.3366C45.2478 51.4283 45.2066 51.4578 45.1401 51.4578H45.0747H45.0742Z" fill="#F03F6D"/>
<path d="M45.554 52.1128H45.7142V51.276H45.7175L45.9335 52.1128H46.1184V50.9667H45.9581V51.6529H45.9549L45.7796 50.9667H45.554V52.1128Z" fill="#F03F6D"/>
<path d="M46.2053 52.1128H46.3726L46.4053 51.8882H46.61V51.885L46.6427 52.1123H46.8229L46.6363 50.9662H46.3924L46.2059 52.1123L46.2053 52.1128ZM46.4262 51.7333L46.5044 51.1667H46.5077L46.5881 51.7333H46.4262Z" fill="#F03F6D"/>
<path d="M46.9097 52.1128H47.0667V51.2449H47.0699L47.2013 52.1128H47.3519L47.4827 51.2449H47.4859V52.1128H47.6564V50.9667H47.3996L47.2849 51.7869H47.2817L47.167 50.9667H46.9097V52.1128Z" fill="#F03F6D"/>
<path d="M47.7903 52.1128H48.2818V51.9493H47.9704V51.5971H48.2175V51.4331H47.9704V51.1302H48.2818V50.9667H47.7903V52.1128Z" fill="#F03F6D"/>
<path d="M43.9624 64.6356H44.6089V64.4137H44.2063V63.0805H43.9624V64.6356Z" fill="#F2F2F2"/>
<path d="M45.0709 64.6581C45.3111 64.6581 45.4419 64.5161 45.4419 64.2673V63.4493C45.4419 63.2006 45.3105 63.0585 45.0709 63.0585C44.8308 63.0585 44.7 63.2006 44.7 63.4493V64.2673C44.7 64.5161 44.8313 64.6581 45.0709 64.6581ZM45.0709 64.4362C44.9932 64.4362 44.9444 64.3938 44.9444 64.2829V63.4338C44.9444 63.3228 44.9932 63.2805 45.0709 63.2805C45.1486 63.2805 45.1974 63.3228 45.1974 63.4338V64.2829C45.1974 64.3938 45.1486 64.4362 45.0709 64.4362Z" fill="#F2F2F2"/>
<path d="M45.9533 64.6581C46.1934 64.6581 46.3172 64.5161 46.3172 64.2673V63.7586H45.964V63.9806H46.0862V64.285C46.0862 64.396 46.0374 64.4362 45.9597 64.4362C45.882 64.4362 45.8332 64.396 45.8332 64.285V63.4338C45.8332 63.3228 45.882 63.2805 45.9597 63.2805C46.0374 63.2805 46.0862 63.3228 46.0862 63.4338V63.5828H46.3172V63.4493C46.3172 63.2006 46.1929 63.0585 45.9533 63.0585C45.7131 63.0585 45.5887 63.2006 45.5887 63.4493V64.2673C45.5887 64.5161 45.7131 64.6581 45.9533 64.6581Z" fill="#F2F2F2"/>
<path d="M46.4753 64.6356H46.7198V63.0805H46.4753V64.6356Z" fill="#F2F2F2"/>
<path d="M46.9021 64.6356H47.1197V63.5002H47.124L47.4178 64.6356H47.6687V63.0805H47.451V64.0116H47.4462L47.2087 63.0805H46.9021V64.6356Z" fill="#F2F2F2"/>
<path d="M42.9819 58.3133H43.162V57.847H43.2473C43.4274 57.847 43.5158 57.7473 43.5158 57.5639V57.4508C43.5158 57.2675 43.4274 57.1678 43.2473 57.1678H42.9819V58.3139V58.3133ZM43.162 57.6829V57.3307H43.2473C43.3046 57.3307 43.3357 57.357 43.3357 57.4385V57.5746C43.3357 57.6567 43.3046 57.6824 43.2473 57.6824H43.162V57.6829Z" fill="#F03F6D"/>
<path d="M43.5089 58.3134H43.6762L43.7089 58.0888H43.9136V58.0855L43.9463 58.3128H44.1264L43.9399 57.1667H43.696L43.5094 58.3128L43.5089 58.3134ZM43.7298 57.9338L43.808 57.3672H43.8112L43.8917 57.9338H43.7298Z" fill="#F03F6D"/>
<path d="M44.4421 58.33C44.619 58.33 44.7139 58.2254 44.7139 58.0383C44.7139 57.8958 44.6662 57.8041 44.5155 57.6717C44.3976 57.5688 44.3601 57.5076 44.3601 57.4246C44.3601 57.3458 44.3928 57.3147 44.4501 57.3147C44.5075 57.3147 44.5402 57.3458 44.5402 57.4272V57.4862H44.7107V57.4385C44.7107 57.2552 44.6238 57.1506 44.4485 57.1506C44.2738 57.1506 44.18 57.2557 44.18 57.4358C44.18 57.5666 44.2293 57.6599 44.3799 57.7928C44.4979 57.8957 44.5338 57.9569 44.5338 58.0517C44.5338 58.137 44.4979 58.1659 44.4405 58.1659C44.3831 58.1659 44.3472 58.1364 44.3472 58.0544V57.9762H44.1768V58.0416C44.1768 58.2249 44.2652 58.3294 44.4421 58.3294V58.33Z" fill="#F03F6D"/>
<path d="M45.0517 58.33C45.2286 58.33 45.3235 58.2254 45.3235 58.0383C45.3235 57.8958 45.2758 57.8041 45.1252 57.6717C45.0072 57.5688 44.9697 57.5076 44.9697 57.4246C44.9697 57.3458 45.0024 57.3147 45.0598 57.3147C45.1171 57.3147 45.1498 57.3458 45.1498 57.4272V57.4862H45.3203V57.4385C45.3203 57.2552 45.2334 57.1506 45.0582 57.1506C44.8834 57.1506 44.7896 57.2557 44.7896 57.4358C44.7896 57.5666 44.8389 57.6599 44.9895 57.7928C45.1075 57.8957 45.1434 57.9569 45.1434 58.0517C45.1434 58.137 45.1075 58.1659 45.0501 58.1659C44.9928 58.1659 44.9568 58.1364 44.9568 58.0544V57.9762H44.7864V58.0416C44.7864 58.2249 44.8748 58.3294 45.0517 58.3294V58.33Z" fill="#F03F6D"/>
<path d="M45.4999 58.3133H45.7389L45.821 57.5409H45.8242L45.9062 58.3133H46.1303L46.2466 57.1672H46.0911L46.0107 58.0485H46.0075L45.9223 57.1672H45.7261L45.6409 58.0485H45.6376L45.5572 57.1672H45.3835L45.4999 58.3133Z" fill="#F03F6D"/>
<path d="M46.5987 58.33C46.7756 58.33 46.8721 58.2255 46.8721 58.0421V57.4396C46.8721 57.2563 46.7756 57.1517 46.5987 57.1517C46.4218 57.1517 46.3253 57.2568 46.3253 57.4396V58.0421C46.3253 58.2255 46.4218 58.33 46.5987 58.33ZM46.5987 58.166C46.5413 58.166 46.5054 58.1349 46.5054 58.0534V57.4278C46.5054 57.3458 46.5413 57.3152 46.5987 57.3152C46.6561 57.3152 46.692 57.3463 46.692 57.4278V58.0534C46.692 58.1354 46.6561 58.166 46.5987 58.166Z" fill="#F03F6D"/>
<path d="M46.9932 58.3133H47.1733V57.8223H47.2355C47.3175 57.8223 47.348 57.8566 47.348 57.9627V58.1723C47.348 58.2656 47.3545 58.2838 47.3646 58.3133H47.548C47.5298 58.271 47.5281 58.2297 47.5281 58.1745V57.9729C47.5281 57.8437 47.4987 57.7585 47.4086 57.7306V57.7274C47.489 57.6947 47.5265 57.6197 47.5265 57.5017V57.431C47.5265 57.2541 47.4461 57.1672 47.2596 57.1672H46.9932V58.3133ZM47.1733 57.6583V57.3307H47.2553C47.3191 57.3307 47.347 57.3666 47.347 57.4487V57.5371C47.347 57.6288 47.3057 57.6583 47.2392 57.6583H47.1738H47.1733Z" fill="#F03F6D"/>
<path d="M47.6526 58.3133H47.9276C48.1077 58.3133 48.1961 58.2136 48.1961 58.0303V57.4508C48.1961 57.2675 48.1077 57.1678 47.9276 57.1678H47.6526V58.3139V58.3133ZM47.8327 58.1493V57.3307H47.9244C47.9817 57.3307 48.016 57.3602 48.016 57.4422V58.0383C48.016 58.1204 47.9817 58.1498 47.9244 58.1498H47.8327V58.1493Z" fill="#F03F6D"/>
<path d="M42.0005 32.3222L51.4726 32.2547C51.4726 32.2547 51.017 28 46.7478 28C42.4782 28 42 32.3222 42 32.3222H42.0005Z" fill="#701D33"/>
<path d="M42.2974 35.9684C42.2974 36.1394 42.1586 36.2782 41.9876 36.2782C41.8166 36.2782 41.6777 36.1394 41.6777 35.9684C41.6777 35.7974 41.8166 35.6586 41.9876 35.6586C42.1586 35.6586 42.2974 35.7969 42.2974 35.9684ZM52.089 35.9684C52.089 36.1394 51.9502 36.2782 51.7792 36.2782C51.6082 36.2782 51.4693 36.1394 51.4693 35.9684C51.4693 35.7974 51.6082 35.6586 51.7792 35.6586C51.9502 35.6586 52.089 35.7969 52.089 35.9684Z" fill="#F2F2F2"/>
<path d="M117.893 103.308H118.166V102.601H118.295C118.568 102.601 118.703 102.449 118.703 102.171V102C118.703 101.721 118.569 101.57 118.295 101.57H117.893V103.308ZM118.166 102.352V101.818H118.295C118.382 101.818 118.429 101.858 118.429 101.983V102.188C118.429 102.312 118.382 102.352 118.295 102.352H118.166Z" fill="#D1ADFE"/>
<path d="M118.693 103.308H118.946L118.996 102.968H119.306V102.963L119.356 103.308H119.629L119.346 101.57H118.976L118.693 103.308ZM119.028 102.732L119.147 101.873H119.152L119.273 102.732H119.027H119.028Z" fill="#D1ADFE"/>
<path d="M120.109 103.333C120.377 103.333 120.521 103.175 120.521 102.892C120.521 102.676 120.449 102.537 120.22 102.336C120.041 102.179 119.984 102.088 119.984 101.961C119.984 101.842 120.034 101.795 120.121 101.795C120.208 101.795 120.258 101.842 120.258 101.966V102.055H120.515V101.984C120.515 101.705 120.384 101.547 120.118 101.547C119.852 101.547 119.711 101.706 119.711 101.979C119.711 102.178 119.785 102.319 120.014 102.52C120.193 102.677 120.247 102.768 120.247 102.913C120.247 103.042 120.193 103.087 120.106 103.087C120.019 103.087 119.964 103.042 119.964 102.918V102.799H119.706V102.898C119.706 103.176 119.84 103.335 120.109 103.335V103.333Z" fill="#D1ADFE"/>
<path d="M121.032 103.333C121.3 103.333 121.444 103.175 121.444 102.892C121.444 102.676 121.372 102.537 121.144 102.336C120.965 102.179 120.908 102.088 120.908 101.961C120.908 101.842 120.958 101.795 121.044 101.795C121.132 101.795 121.181 101.842 121.181 101.966V102.055H121.439V101.984C121.439 101.705 121.308 101.547 121.042 101.547C120.776 101.547 120.634 101.706 120.634 101.979C120.634 102.178 120.709 102.319 120.937 102.52C121.116 102.677 121.171 102.768 121.171 102.913C121.171 103.042 121.116 103.087 121.029 103.087C120.943 103.087 120.888 103.042 120.888 102.918V102.799H120.63V102.898C120.63 103.176 120.764 103.335 121.032 103.335V103.333Z" fill="#D1ADFE"/>
<path d="M121.712 103.308H122.075L122.199 102.136H122.203L122.328 103.308H122.668L122.844 101.57H122.608L122.487 102.906H122.482L122.352 101.57H122.055L121.926 102.906H121.92L121.799 101.57H121.535L121.712 103.308Z" fill="#D1ADFE"/>
<path d="M123.378 103.333C123.646 103.333 123.793 103.175 123.793 102.896V101.983C123.793 101.705 123.646 101.546 123.378 101.546C123.11 101.546 122.964 101.705 122.964 101.983V102.896C122.964 103.175 123.11 103.333 123.378 103.333ZM123.378 103.085C123.291 103.085 123.237 103.038 123.237 102.914V101.965C123.237 101.841 123.292 101.794 123.378 101.794C123.465 101.794 123.52 101.841 123.52 101.965V102.914C123.52 103.037 123.465 103.085 123.378 103.085Z" fill="#D1ADFE"/>
<path d="M123.977 103.308H124.249V102.564H124.344C124.468 102.564 124.515 102.616 124.515 102.777V103.095C124.515 103.236 124.525 103.264 124.54 103.308H124.818C124.791 103.244 124.788 103.182 124.788 103.097V102.791C124.788 102.595 124.744 102.466 124.607 102.424V102.419C124.729 102.369 124.786 102.255 124.786 102.076V101.97C124.786 101.702 124.664 101.57 124.381 101.57H123.977V103.308ZM124.249 102.315V101.818H124.373C124.47 101.818 124.512 101.873 124.512 101.997V102.131C124.512 102.27 124.45 102.315 124.348 102.315H124.249H124.249Z" fill="#D1ADFE"/>
<path d="M124.977 103.308H125.394C125.667 103.308 125.801 103.156 125.801 102.879V102C125.801 101.721 125.667 101.57 125.394 101.57H124.977V103.308ZM125.25 103.06V101.818H125.389C125.475 101.818 125.527 101.864 125.527 101.987V102.891C125.527 103.016 125.475 103.06 125.389 103.06H125.25Z" fill="#D1ADFE"/>
<path d="M117.893 103.308H118.166V102.601H118.295C118.568 102.601 118.703 102.449 118.703 102.171V102C118.703 101.721 118.569 101.57 118.295 101.57H117.893V103.308ZM118.166 102.352V101.818H118.295C118.382 101.818 118.429 101.858 118.429 101.983V102.188C118.429 102.312 118.382 102.352 118.295 102.352H118.166Z" fill="#D1ADFE"/>
<path d="M118.693 103.308H118.946L118.996 102.968H119.306V102.963L119.356 103.308H119.629L119.346 101.57H118.976L118.693 103.308ZM119.028 102.732L119.147 101.873H119.152L119.273 102.732H119.027H119.028Z" fill="#D1ADFE"/>
<path d="M120.109 103.333C120.377 103.333 120.521 103.175 120.521 102.892C120.521 102.676 120.449 102.537 120.22 102.336C120.041 102.179 119.984 102.088 119.984 101.961C119.984 101.842 120.034 101.795 120.121 101.795C120.208 101.795 120.258 101.842 120.258 101.966V102.055H120.515V101.984C120.515 101.705 120.384 101.547 120.118 101.547C119.852 101.547 119.711 101.706 119.711 101.979C119.711 102.178 119.785 102.319 120.014 102.52C120.193 102.677 120.247 102.768 120.247 102.913C120.247 103.042 120.193 103.087 120.106 103.087C120.019 103.087 119.964 103.042 119.964 102.918V102.799H119.706V102.898C119.706 103.176 119.84 103.335 120.109 103.335V103.333Z" fill="#D1ADFE"/>
<path d="M121.032 103.333C121.3 103.333 121.444 103.175 121.444 102.892C121.444 102.676 121.372 102.537 121.144 102.336C120.965 102.179 120.908 102.088 120.908 101.961C120.908 101.842 120.958 101.795 121.044 101.795C121.132 101.795 121.181 101.842 121.181 101.966V102.055H121.439V101.984C121.439 101.705 121.308 101.547 121.042 101.547C120.776 101.547 120.634 101.706 120.634 101.979C120.634 102.178 120.709 102.319 120.937 102.52C121.116 102.677 121.171 102.768 121.171 102.913C121.171 103.042 121.116 103.087 121.029 103.087C120.943 103.087 120.888 103.042 120.888 102.918V102.799H120.63V102.898C120.63 103.176 120.764 103.335 121.032 103.335V103.333Z" fill="#D1ADFE"/>
<path d="M121.712 103.308H122.075L122.199 102.136H122.203L122.328 103.308H122.668L122.844 101.57H122.608L122.487 102.906H122.482L122.352 101.57H122.055L121.926 102.906H121.92L121.799 101.57H121.535L121.712 103.308Z" fill="#D1ADFE"/>
<path d="M123.378 103.333C123.646 103.333 123.793 103.175 123.793 102.896V101.983C123.793 101.705 123.646 101.546 123.378 101.546C123.11 101.546 122.964 101.705 122.964 101.983V102.896C122.964 103.175 123.11 103.333 123.378 103.333ZM123.378 103.085C123.291 103.085 123.237 103.038 123.237 102.914V101.965C123.237 101.841 123.292 101.794 123.378 101.794C123.465 101.794 123.52 101.841 123.52 101.965V102.914C123.52 103.037 123.465 103.085 123.378 103.085Z" fill="#D1ADFE"/>
<path d="M123.977 103.308H124.249V102.564H124.344C124.468 102.564 124.515 102.616 124.515 102.777V103.095C124.515 103.236 124.525 103.264 124.54 103.308H124.818C124.791 103.244 124.788 103.182 124.788 103.097V102.791C124.788 102.595 124.744 102.466 124.607 102.424V102.419C124.729 102.369 124.786 102.255 124.786 102.076V101.97C124.786 101.702 124.664 101.57 124.381 101.57H123.977V103.308ZM124.249 102.315V101.818H124.373C124.47 101.818 124.512 101.873 124.512 101.997V102.131C124.512 102.27 124.45 102.315 124.348 102.315H124.249H124.249Z" fill="#D1ADFE"/>
<path d="M124.977 103.308H125.394C125.667 103.308 125.801 103.156 125.801 102.879V102C125.801 101.721 125.667 101.57 125.394 101.57H124.977V103.308ZM125.25 103.06V101.818H125.389C125.475 101.818 125.527 101.864 125.527 101.987V102.891C125.527 103.016 125.475 103.06 125.389 103.06H125.25Z" fill="#D1ADFE"/>
<path d="M117.893 103.308H118.166V102.601H118.295C118.568 102.601 118.703 102.449 118.703 102.171V102C118.703 101.721 118.569 101.57 118.295 101.57H117.893V103.308ZM118.166 102.352V101.818H118.295C118.382 101.818 118.429 101.858 118.429 101.983V102.188C118.429 102.312 118.382 102.352 118.295 102.352H118.166Z" fill="#D1ADFE"/>
<path d="M118.693 103.308H118.946L118.996 102.968H119.306V102.963L119.356 103.308H119.629L119.346 101.57H118.976L118.693 103.308ZM119.028 102.732L119.147 101.873H119.152L119.273 102.732H119.027H119.028Z" fill="#D1ADFE"/>
<path d="M120.109 103.333C120.377 103.333 120.521 103.175 120.521 102.892C120.521 102.676 120.449 102.537 120.22 102.336C120.041 102.179 119.984 102.088 119.984 101.961C119.984 101.842 120.034 101.795 120.121 101.795C120.208 101.795 120.258 101.842 120.258 101.966V102.055H120.515V101.984C120.515 101.705 120.384 101.547 120.118 101.547C119.852 101.547 119.711 101.706 119.711 101.979C119.711 102.178 119.785 102.319 120.014 102.52C120.193 102.677 120.247 102.768 120.247 102.913C120.247 103.042 120.193 103.087 120.106 103.087C120.019 103.087 119.964 103.042 119.964 102.918V102.799H119.706V102.898C119.706 103.176 119.84 103.335 120.109 103.335V103.333Z" fill="#D1ADFE"/>
<path d="M121.032 103.333C121.3 103.333 121.444 103.175 121.444 102.892C121.444 102.676 121.372 102.537 121.144 102.336C120.965 102.179 120.908 102.088 120.908 101.961C120.908 101.842 120.958 101.795 121.044 101.795C121.132 101.795 121.181 101.842 121.181 101.966V102.055H121.439V101.984C121.439 101.705 121.308 101.547 121.042 101.547C120.776 101.547 120.634 101.706 120.634 101.979C120.634 102.178 120.709 102.319 120.937 102.52C121.116 102.677 121.171 102.768 121.171 102.913C121.171 103.042 121.116 103.087 121.029 103.087C120.943 103.087 120.888 103.042 120.888 102.918V102.799H120.63V102.898C120.63 103.176 120.764 103.335 121.032 103.335V103.333Z" fill="#D1ADFE"/>
<path d="M121.712 103.308H122.075L122.199 102.136H122.203L122.328 103.308H122.668L122.844 101.57H122.608L122.487 102.906H122.482L122.352 101.57H122.055L121.926 102.906H121.92L121.799 101.57H121.535L121.712 103.308Z" fill="#D1ADFE"/>
<path d="M123.378 103.333C123.646 103.333 123.793 103.175 123.793 102.896V101.983C123.793 101.705 123.646 101.546 123.378 101.546C123.11 101.546 122.964 101.705 122.964 101.983V102.896C122.964 103.175 123.11 103.333 123.378 103.333ZM123.378 103.085C123.291 103.085 123.237 103.038 123.237 102.914V101.965C123.237 101.841 123.292 101.794 123.378 101.794C123.465 101.794 123.52 101.841 123.52 101.965V102.914C123.52 103.037 123.465 103.085 123.378 103.085Z" fill="#D1ADFE"/>
<path d="M123.977 103.308H124.249V102.564H124.344C124.468 102.564 124.515 102.616 124.515 102.777V103.095C124.515 103.236 124.525 103.264 124.54 103.308H124.818C124.791 103.244 124.788 103.182 124.788 103.097V102.791C124.788 102.595 124.744 102.466 124.607 102.424V102.419C124.729 102.369 124.786 102.255 124.786 102.076V101.97C124.786 101.702 124.664 101.57 124.381 101.57H123.977V103.308ZM124.249 102.315V101.818H124.373C124.47 101.818 124.512 101.873 124.512 101.997V102.131C124.512 102.27 124.45 102.315 124.348 102.315H124.249H124.249Z" fill="#D1ADFE"/>
<path d="M124.977 103.308H125.394C125.667 103.308 125.801 103.156 125.801 102.879V102C125.801 101.721 125.667 101.57 125.394 101.57H124.977V103.308ZM125.25 103.06V101.818H125.389C125.475 101.818 125.527 101.864 125.527 101.987V102.891C125.527 103.016 125.475 103.06 125.389 103.06H125.25Z" fill="#D1ADFE"/>
<path d="M148.177 139.97H26.1553V69.7083C26.1553 66.4989 28.7567 63.8975 31.9661 63.8975H142.366C145.575 63.8975 148.177 66.4989 148.177 69.7083V139.97Z" fill="#2F2F2F"/>
<path d="M143.837 136.307H30.4946V69.2231H143.837V136.307Z" fill="#4DDBFF"/>
<path d="M148.177 139.97H26.1553V136.307H148.177V139.97Z" fill="#545454"/>
<path d="M159.715 145.624H14.6172C12.9367 145.624 11.5751 144.262 11.5751 142.582V139.97H162.758V142.582C162.758 144.262 161.395 145.624 159.715 145.624Z" fill="#999999"/>
<path d="M14.6172 145.624H159.715C160.985 145.624 162.072 144.845 162.528 143.741H11.8046C12.2607 144.846 13.3473 145.624 14.6172 145.624ZM97.264 142.079H77.0682C75.9033 142.079 74.9588 141.134 74.9588 139.97H99.3739C99.3739 141.134 98.4294 142.079 97.2646 142.079H97.264Z" fill="#CCCCCC"/>
<path d="M71.32 117.285H45.7379H71.32ZM45.7379 117.285C44.09 117.285 42.7542 115.949 42.7542 114.302L45.7379 117.285ZM42.7542 114.302V93.0063V114.302ZM42.7542 93.0063C42.7542 91.3584 44.09 90.0226 45.7379 90.0226L42.7542 93.0063ZM45.7379 90.0226H71.32H45.7379ZM71.32 90.0226C72.9678 90.0226 74.3037 91.3584 74.3037 93.0063L71.32 90.0226ZM74.3037 93.0063V114.302V93.0063ZM74.3037 114.302C74.3037 115.949 72.9678 117.285 71.32 117.285L74.3037 114.302ZM125.291 96.5121H82.8275H125.291ZM82.8275 96.5121C81.058 96.5121 79.623 95.077 79.623 93.3075L82.8275 96.5121ZM79.623 93.3075V93.2271V93.3075ZM79.623 93.2271C79.623 91.4571 81.0574 90.0226 82.8275 90.0226L79.623 93.2271ZM82.8275 90.0226H125.291H82.8275ZM125.291 90.0226C127.061 90.0226 128.496 91.4571 128.496 93.2271L125.291 90.0226ZM128.496 93.2271V93.3075V93.2271ZM128.496 93.3075C128.496 95.0776 127.061 96.5121 125.291 96.5121L128.496 93.3075ZM125.291 106.945H82.8275H125.291ZM82.8275 106.945C81.058 106.945 79.623 105.51 79.623 103.741L82.8275 106.945ZM79.623 103.741V103.66V103.741ZM79.623 103.66C79.623 101.891 81.0574 100.456 82.8275 100.456L79.623 103.66ZM82.8275 100.456H125.291H82.8275ZM125.291 100.456C127.061 100.456 128.496 101.891 128.496 103.66L125.291 100.456ZM128.496 103.66V103.741V103.66ZM128.496 103.741C128.496 105.51 127.061 106.945 125.291 106.945L128.496 103.741ZM125.291 117.379H82.8275H125.291ZM82.8275 117.379C81.058 117.379 79.623 115.944 79.623 114.175L82.8275 117.379ZM79.623 114.175V114.094V114.175ZM79.623 114.094C79.623 112.324 81.0574 110.89 82.8275 110.89L79.623 114.094ZM82.8275 110.89H125.291H82.8275ZM125.291 110.89C127.061 110.89 128.496 112.324 128.496 114.094L125.291 110.89ZM128.496 114.094V114.175V114.094ZM128.496 114.175C128.496 115.944 127.061 117.379 125.291 117.379L128.496 114.175ZM125.251 127.812H44.9986H125.251ZM44.9986 127.812C43.2066 127.812 41.7539 126.36 41.7539 124.568L44.9986 127.812ZM41.7539 124.568C41.7539 122.776 43.2066 121.323 44.9986 121.323L41.7539 124.568ZM44.9986 121.323H125.251H44.9986ZM125.251 121.323C127.043 121.323 128.496 122.776 128.496 124.568L125.251 121.323ZM128.496 124.568C128.496 126.36 127.043 127.812 125.251 127.812L128.496 124.568Z" fill="#4DDBFF" stroke="#701D33" stroke-width="0.898428" stroke-miterlimit="10"/>
<path d="M43.9362 82.7623C44.3966 82.7623 44.6486 82.4894 44.6486 82.0118V80.4422C44.6486 79.9646 44.3972 79.6918 43.9362 79.6918C43.4757 79.6918 43.2238 79.9646 43.2238 80.4422V82.0118C43.2238 82.4894 43.4752 82.7623 43.9362 82.7623ZM43.9362 82.3361C43.7871 82.3361 43.6933 82.2552 43.6933 82.0418V80.4122C43.6933 80.1989 43.7871 80.1179 43.9362 80.1179C44.0852 80.1179 44.179 80.1989 44.179 80.4122V82.0418C44.179 82.2552 44.0852 82.3361 43.9362 82.3361Z" fill="#4DDBFF"/>
<path d="M44.9644 82.7199H45.3819V80.5403H45.3905L45.9534 82.7199H46.4358V79.7341H46.0177V81.5213H46.0091L45.5524 79.7341H44.9644V82.7199Z" fill="#4DDBFF"/>
<path d="M46.7854 82.7199H48.0264V82.2932H47.2544V79.7341H46.7854V82.7199Z" fill="#4DDBFF"/>
<path d="M48.2524 82.7199H48.7215V79.7341H48.2524V82.7199Z" fill="#4DDBFF"/>
<path d="M49.0715 82.7199H49.4891V80.5403H49.4977L50.0606 82.7199H50.543V79.7341H50.1249V81.5213H50.1163L49.6596 79.7341H49.0715V82.7199Z" fill="#4DDBFF"/>
<path d="M50.8926 82.7199H52.1721V82.2932H51.3616V81.376H52.0054V80.9498H51.3616V80.1608H52.1721V79.7341H50.8926V82.7199Z" fill="#4DDBFF"/>
<path d="M43.2581 87.4603H43.7271V86.1807H43.8895C44.1029 86.1807 44.1838 86.2702 44.1838 86.5479V87.0936C44.1838 87.3364 44.201 87.3836 44.2267 87.4603H44.7043C44.6577 87.3493 44.6529 87.2426 44.6529 87.0979V86.5731C44.6529 86.2359 44.5762 86.014 44.3414 85.9422V85.9336C44.5505 85.8484 44.6486 85.6522 44.6486 85.345V85.1617C44.6486 84.7012 44.4395 84.475 43.9533 84.475H43.2581V87.4608V87.4603ZM43.7271 85.754V84.9011H43.9405C44.1066 84.9011 44.179 84.995 44.179 85.2083V85.4388C44.179 85.6779 44.0723 85.7545 43.8976 85.7545H43.7271V85.754Z" fill="#4DDBFF"/>
<path d="M44.9767 87.4603H46.2562V87.0336H45.4457V86.1169H46.0901V85.6902H45.4457V84.9011H46.2562V84.4744H44.9767V87.4603Z" fill="#4DDBFF"/>
<path d="M47.19 87.5031C47.6505 87.5031 47.8895 87.2303 47.8895 86.7526V85.776H47.2114V86.2021H47.4462V86.7864C47.4462 86.9998 47.3524 87.0764 47.2034 87.0764C47.0544 87.0764 46.9606 86.9998 46.9606 86.7864V85.1531C46.9606 84.9397 47.0544 84.8588 47.2034 84.8588C47.3524 84.8588 47.4462 84.9397 47.4462 85.1531V85.4388H47.8901V85.1825C47.8901 84.7049 47.651 84.4321 47.1905 84.4321C46.7295 84.4321 46.491 84.7049 46.491 85.1825V86.7521C46.491 87.2297 46.7295 87.5026 47.1905 87.5026L47.19 87.5031Z" fill="#4DDBFF"/>
<path d="M48.1924 87.4603H48.6614V84.4744H48.1924V87.4603Z" fill="#4DDBFF"/>
<path d="M49.6211 87.5031C50.0822 87.5031 50.3293 87.2303 50.3293 86.7441C50.3293 86.3731 50.2054 86.1341 49.8131 85.7888C49.5059 85.5203 49.4078 85.3621 49.4078 85.1445C49.4078 84.9397 49.493 84.8588 49.6426 84.8588C49.7916 84.8588 49.8774 84.9397 49.8774 85.1531V85.3069H50.3207V85.1831C50.3207 84.7055 50.095 84.4326 49.6383 84.4326C49.1821 84.4326 48.9388 84.7055 48.9388 85.1751C48.9388 85.516 49.0669 85.7593 49.4593 86.1046C49.7664 86.3731 49.8602 86.5313 49.8602 86.7784C49.8602 87.0003 49.7664 87.077 49.6169 87.077C49.4678 87.077 49.374 87.0003 49.374 86.787V86.5822H48.9302V86.7527C48.9302 87.2303 49.1607 87.5031 49.6211 87.5031Z" fill="#4DDBFF"/>
<path d="M50.9649 87.4603H51.4339V84.9011H51.9244V84.4744H50.4744V84.9011H50.9649V87.4603Z" fill="#4DDBFF"/>
<path d="M52.1506 87.4603H52.6197V86.1807H52.7821C52.9955 86.1807 53.0764 86.2702 53.0764 86.5479V87.0936C53.0764 87.3364 53.0936 87.3836 53.1193 87.4603H53.5969C53.5503 87.3493 53.5455 87.2426 53.5455 87.0979V86.5731C53.5455 86.2359 53.4688 86.014 53.234 85.9422V85.9336C53.4431 85.8484 53.5412 85.6522 53.5412 85.345V85.1617C53.5412 84.7012 53.3321 84.475 52.8459 84.475H52.1506V87.4608V87.4603ZM52.6197 85.754V84.9011H52.833C52.9992 84.9011 53.0716 84.995 53.0716 85.2083V85.4388C53.0716 85.6779 52.9649 85.7545 52.7902 85.7545H52.6197V85.754Z" fill="#4DDBFF"/>
<path d="M53.7455 87.4603H54.1808L54.266 86.876H54.7994V86.8674L54.8846 87.4603H55.3536L54.8674 84.4744H54.2317L53.7455 87.4603ZM54.3212 86.4707L54.526 84.9949H54.5346L54.7436 86.4707H54.3217H54.3212Z" fill="#4DDBFF"/>
<path d="M55.7503 87.4603H56.2193V84.9011H56.7098V84.4744H55.2598V84.9011H55.7503V87.4603Z" fill="#4DDBFF"/>
<path d="M56.936 87.4603H57.4045V84.4744H56.936V87.4603Z" fill="#4DDBFF"/>
<path d="M58.4328 87.5031C58.8932 87.5031 59.1452 87.2303 59.1452 86.7527V85.1831C59.1452 84.7055 58.8938 84.4326 58.4328 84.4326C57.9723 84.4326 57.7203 84.7055 57.7203 85.1831V86.7527C57.7203 87.2303 57.9717 87.5031 58.4328 87.5031ZM58.4328 87.077C58.2837 87.077 58.1899 86.996 58.1899 86.7827V85.1531C58.1899 84.9397 58.2837 84.8588 58.4328 84.8588C58.5818 84.8588 58.6756 84.9397 58.6756 85.1531V86.7827C58.6756 86.996 58.5818 87.077 58.4328 87.077Z" fill="#4DDBFF"/>
<path d="M59.4609 87.4603H59.8791V85.2807H59.8871L60.45 87.4603H60.9324V84.4744H60.5143V86.2622H60.5057L60.0495 84.4744H59.4609V87.4603Z" fill="#4DDBFF"/>
<path d="M75.2069 92.4102L68.1868 90.5292L70.0678 97.5488L71.8148 95.8018L74.5004 98.4869L76.145 96.8423L73.4594 94.1572L75.2069 92.4102Z" fill="#565656" fill-opacity="0.290196"/>
<path d="M73.0949 90.2981L66.0747 88.4171L67.9557 95.4367L69.7033 93.6897L72.3884 96.3754L74.033 94.7308L71.3473 92.0451L73.0949 90.2981Z" fill="#EDEDED"/>
<path d="M167.613 126.346H83.9124V42.645H167.613V126.346Z" fill="#565656" fill-opacity="0.290196"/>
<path d="M167.613 49.5103H83.9124V42.348H167.613V49.5103Z" fill="#565656" fill-opacity="0.290196"/>
<path d="M160.471 44.132L164.682 48.4714M164.746 44.1958L160.407 48.4076" stroke="#565656" stroke-opacity="0.290196" stroke-width="0.898428" stroke-miterlimit="10" stroke-linecap="round" stroke-linejoin="round"/>
<path d="M138.938 73.517C138.938 80.7934 133.039 86.6921 125.763 86.6921C118.486 86.6921 112.588 80.7934 112.588 73.517C112.588 66.2405 118.486 60.3418 125.763 60.3418C133.039 60.3418 138.938 66.2405 138.938 73.517Z" fill="#565656" fill-opacity="0.290196"/>
<path d="M128.173 79.933H123.419V75.1787H128.173V79.933Z" fill="#565656" fill-opacity="0.290196"/>
<path d="M125.643 80.6266H122.031V78.4073H125.643V80.6266ZM130.182 80.6266H126.57V78.4073H130.182V80.6266Z" fill="#565656" fill-opacity="0.290196"/>
<path d="M134.423 87.9561H117.532V83.9582C117.532 81.5942 119.448 79.6772 121.812 79.6772H130.142C132.506 79.6772 134.423 81.5942 134.423 83.9582V87.9561ZM122.366 68.9213C122.366 70.5021 121.084 71.7838 119.503 71.7838C117.921 71.7838 116.64 70.5021 116.64 68.9213C116.64 67.3399 117.921 66.0582 119.503 66.0582C121.084 66.0582 122.366 67.3399 122.366 68.9213ZM134.885 68.9213C134.885 70.5021 133.603 71.7838 132.022 71.7838C130.441 71.7838 129.159 70.5021 129.159 68.9213C129.159 67.3399 130.441 66.0582 132.022 66.0582C133.603 66.0582 134.885 67.3399 134.885 68.9213Z" fill="#565656" fill-opacity="0.290196"/>
<path d="M126.002 77.5791H125.951C122.226 77.5791 119.207 74.5595 119.207 70.8345V66.3348C119.207 62.6098 122.226 59.5902 125.951 59.5902H126.002C129.727 59.5902 132.747 62.6098 132.747 66.3348V70.8345C132.747 74.5595 129.727 77.5791 126.002 77.5791Z" fill="#565656" fill-opacity="0.290196"/>
<path d="M121.277 62.5964C121.879 62.8478 122.484 63.0998 123.117 63.2606C124.366 63.5785 125.677 63.5297 126.96 63.4139C128.202 63.3019 129.454 63.1255 130.61 62.657C131.766 62.1885 132.829 61.4005 133.423 60.3032C134.016 59.2064 134.07 57.7805 133.378 56.7433C133.286 56.6055 133.178 56.472 133.035 56.39C132.868 56.2946 132.667 56.2769 132.474 56.2849C132.106 56.3005 131.742 56.4039 131.421 56.584C131.108 56.7588 130.837 57.0038 130.52 57.171C130.203 57.3383 129.806 57.4203 129.491 57.2493C129.263 57.126 129.117 56.8939 128.922 56.7234C128.494 56.3514 127.874 56.3085 127.31 56.3616C127.116 56.3798 126.917 56.4088 126.751 56.509C126.396 56.7207 126.284 57.1801 126.008 57.4862C125.739 57.7843 125.302 57.9204 124.911 57.8282C124.535 57.7392 124.218 57.461 123.834 57.408C123.384 57.3452 122.944 57.6138 122.648 57.959C122.351 58.3048 122.16 58.7256 121.913 59.1078C121.451 59.825 120.805 60.3986 120.32 61.0987C120.145 61.3506 120.196 62.8162 120.196 62.8162C120.196 62.8162 120.958 62.464 121.276 62.597L121.277 62.5964ZM122.753 69.6541C122.753 69.8535 122.591 70.0154 122.392 70.0154C122.193 70.0154 122.031 69.8535 122.031 69.6541C122.031 69.4542 122.193 69.2928 122.392 69.2928C122.591 69.2928 122.753 69.4547 122.753 69.6541ZM129.726 69.6541C129.726 69.8535 129.564 70.0154 129.365 70.0154C129.165 70.0154 129.004 69.8535 129.004 69.6541C129.004 69.4542 129.166 69.2928 129.365 69.2928C129.564 69.2928 129.726 69.4547 129.726 69.6541ZM122.895 71.2376C122.895 71.748 122.481 72.1618 121.971 72.1618C121.461 72.1618 121.047 71.748 121.047 71.2376C121.047 70.7273 121.461 70.3135 121.971 70.3135C122.481 70.3135 122.895 70.7273 122.895 71.2376ZM131.007 71.2376C131.007 71.748 130.594 72.1618 130.083 72.1618C129.573 72.1618 129.159 71.748 129.159 71.2376C129.159 70.7273 129.573 70.3135 130.083 70.3135C130.594 70.3135 131.007 70.7273 131.007 71.2376ZM124.18 71.8959H127.875C127.875 71.8959 125.949 74.3275 124.18 71.8959Z" fill="#565656" fill-opacity="0.290196"/>
<path d="M97.5763 95.3847C97.5763 97.1242 98.9862 98.5346 100.726 98.5346H150.799C152.539 98.5346 153.949 97.1242 153.949 95.3847C153.949 93.6452 152.539 92.2349 150.799 92.2349H100.726M97.5758 95.3847C97.5758 93.6452 98.9856 92.2349 100.726 92.2349M97.5763 104.784C97.5763 106.524 98.9862 107.934 100.726 107.934H150.799C152.539 107.934 153.949 106.524 153.949 104.784C153.949 103.045 152.539 101.635 150.799 101.635H100.726M97.5758 104.784C97.5758 103.045 98.9856 101.635 100.726 101.635" stroke="#565656" stroke-opacity="0.290196" stroke-width="0.898428" stroke-miterlimit="10"/>
<path d="M137.295 119.446H118.454C116.715 119.446 115.304 118.036 115.304 116.296C115.304 114.557 116.715 113.146 118.454 113.146H137.295C139.034 113.146 140.445 114.557 140.445 116.296C140.445 118.036 139.034 119.446 137.295 119.446Z" fill="#565656" fill-opacity="0.290196"/>
<path d="M135.183 117.335H116.342C114.602 117.335 113.192 115.924 113.192 114.185C113.192 112.445 114.602 111.035 116.342 111.035H135.183C136.922 111.035 138.333 112.445 138.333 114.185C138.333 115.924 136.922 117.335 135.183 117.335Z" fill="#565656" fill-opacity="0.290196"/>
<path d="M120.479 96.0419C120.747 96.0419 120.887 95.8832 120.887 95.605V94.2788H120.624V95.6248C120.624 95.7487 120.572 95.7937 120.485 95.7937C120.398 95.7937 120.346 95.7487 120.346 95.6248V94.2788H120.073V95.605C120.073 95.8832 120.212 96.0419 120.48 96.0419H120.479Z" fill="#555555"/>
<path d="M121.436 96.0419C121.704 96.0419 121.848 95.8832 121.848 95.6002C121.848 95.3842 121.776 95.2453 121.547 95.0443C121.368 94.8878 121.311 94.7961 121.311 94.6696C121.311 94.5506 121.361 94.5034 121.448 94.5034C121.535 94.5034 121.585 94.5506 121.585 94.6744V94.764H121.843V94.6921C121.843 94.4139 121.711 94.2552 121.445 94.2552C121.179 94.2552 121.038 94.4145 121.038 94.6873C121.038 94.8862 121.112 95.0277 121.341 95.2287C121.52 95.3852 121.574 95.4769 121.574 95.6211C121.574 95.7503 121.52 95.7953 121.433 95.7953C121.346 95.7953 121.291 95.7503 121.291 95.6265V95.5075H121.033V95.6066C121.033 95.8849 121.167 96.0435 121.436 96.0435V96.0419Z" fill="#555555"/>
<path d="M122.004 96.0172H122.749V95.769H122.277V95.2351H122.652V94.9869H122.277V94.5275H122.749V94.2788H122.004V96.0172Z" fill="#555555"/>
<path d="M122.906 96.0172H123.178V95.2727H123.273C123.397 95.2727 123.444 95.3247 123.444 95.486V95.8039C123.444 95.9454 123.454 95.9727 123.469 96.0172H123.747C123.72 95.9529 123.717 95.8907 123.717 95.806V95.5005C123.717 95.3043 123.673 95.1751 123.536 95.1333V95.1279C123.658 95.0781 123.715 94.9639 123.715 94.7854V94.6787C123.715 94.4107 123.593 94.2788 123.31 94.2788H122.906V96.0172ZM123.178 95.0239V94.527H123.302C123.399 94.527 123.441 94.5817 123.441 94.706V94.8401C123.441 94.9789 123.379 95.0239 123.277 95.0239H123.178H123.178Z" fill="#555555"/>
<path d="M123.906 96.0172H124.15V94.7484H124.155L124.482 96.0172H124.763V94.2788H124.519V95.3193H124.514L124.249 94.2788H123.906V96.0172Z" fill="#555555"/>
<path d="M124.894 96.0172H125.147L125.197 95.6774H125.508V95.672L125.557 96.0172H125.83L125.547 94.2788H125.177L124.894 96.0172ZM125.229 95.441L125.348 94.5822H125.353L125.475 95.441H125.229H125.229Z" fill="#555555"/>
<path d="M125.962 96.0172H126.2V94.7012H126.205L126.404 96.0172H126.632L126.831 94.7012H126.836V96.0172H127.094V94.2788H126.704L126.53 95.523H126.525L126.352 94.2788H125.962V96.0172Z" fill="#555555"/>
<path d="M127.298 96.0172H128.043V95.769H127.571V95.2351H127.946V94.9869H127.571V94.5275H128.043V94.2788H127.298V96.0172Z" fill="#555555"/>
<path d="M121.492 115.009H122.472V114.671H121.863V112.65H121.492V115.009Z" fill="#555555"/>
<path d="M123.174 115.042C123.538 115.042 123.736 114.827 123.736 114.45V113.209C123.736 112.832 123.538 112.616 123.174 112.616C122.81 112.616 122.611 112.832 122.611 113.209V114.45C122.611 114.827 122.81 115.042 123.174 115.042ZM123.174 114.705C123.056 114.705 122.982 114.641 122.982 114.473V113.185C122.982 113.017 123.056 112.953 123.174 112.953C123.292 112.953 123.365 113.017 123.365 113.185V114.473C123.365 114.641 123.292 114.705 123.174 114.705Z" fill="#555555"/>
<path d="M124.511 115.042C124.875 115.042 125.064 114.827 125.064 114.45V113.678H124.528V114.015H124.713V114.476C124.713 114.645 124.639 114.705 124.521 114.705C124.403 114.705 124.329 114.645 124.329 114.476V113.185C124.329 113.017 124.403 112.953 124.521 112.953C124.639 112.953 124.713 113.017 124.713 113.185V113.411H125.064V113.209C125.064 112.832 124.875 112.616 124.511 112.616C124.147 112.616 123.958 112.832 123.958 113.209V114.45C123.958 114.827 124.147 115.042 124.511 115.042Z" fill="#555555"/>
<path d="M125.303 115.009H125.674V112.65H125.303V115.009Z" fill="#555555"/>
<path d="M125.95 115.009H126.28V113.286H126.287L126.732 115.009H127.113V112.65H126.782V114.061H126.776L126.415 112.65H125.95V115.009Z" fill="#555555"/>
<path d="M120.005 105.42H120.278V104.713H120.407C120.68 104.713 120.815 104.561 120.815 104.283V104.112C120.815 103.833 120.681 103.682 120.407 103.682H120.005V105.42ZM120.278 104.464V103.93H120.407C120.494 103.93 120.541 103.97 120.541 104.095V104.3C120.541 104.424 120.494 104.464 120.407 104.464H120.278Z" fill="#555555"/>
<path d="M120.805 105.42H121.058L121.108 105.08H121.418V105.075L121.468 105.42H121.741L121.458 103.682H121.088L120.805 105.42ZM121.14 104.844L121.259 103.985H121.264L121.385 104.844H121.139H121.14Z" fill="#555555"/>
<path d="M122.22 105.445C122.488 105.445 122.633 105.287 122.633 105.004C122.633 104.788 122.561 104.649 122.332 104.448C122.153 104.291 122.096 104.2 122.096 104.073C122.096 103.954 122.146 103.907 122.233 103.907C122.32 103.907 122.369 103.954 122.369 104.078V104.167H122.627V104.096C122.627 103.817 122.496 103.659 122.23 103.659C121.964 103.659 121.823 103.818 121.823 104.091C121.823 104.29 121.897 104.431 122.126 104.632C122.305 104.789 122.359 104.88 122.359 105.025C122.359 105.154 122.305 105.199 122.218 105.199C122.131 105.199 122.076 105.154 122.076 105.03V104.911H121.818V105.01C121.818 105.288 121.952 105.447 122.22 105.447V105.445Z" fill="#555555"/>
<path d="M123.144 105.445C123.412 105.445 123.556 105.287 123.556 105.004C123.556 104.788 123.484 104.649 123.256 104.448C123.076 104.291 123.02 104.2 123.02 104.073C123.02 103.954 123.07 103.907 123.156 103.907C123.244 103.907 123.293 103.954 123.293 104.078V104.167H123.551V104.096C123.551 103.817 123.42 103.659 123.154 103.659C122.888 103.659 122.746 103.818 122.746 104.091C122.746 104.29 122.821 104.431 123.049 104.632C123.228 104.789 123.283 104.88 123.283 105.025C123.283 105.154 123.228 105.199 123.141 105.199C123.055 105.199 123 105.154 123 105.03V104.911H122.741V105.01C122.741 105.288 122.875 105.447 123.144 105.447V105.445Z" fill="#555555"/>
<path d="M123.824 105.42H124.187L124.31 104.248H124.315L124.44 105.42H124.78L124.956 103.682H124.72L124.599 105.018H124.593L124.464 103.682H124.167L124.038 105.018H124.032L123.911 103.682H123.647L123.824 105.42Z" fill="#555555"/>
<path d="M125.49 105.445C125.758 105.445 125.905 105.287 125.905 105.009V104.095C125.905 103.817 125.758 103.658 125.49 103.658C125.222 103.658 125.075 103.817 125.075 104.095V105.009C125.075 105.287 125.222 105.445 125.49 105.445ZM125.49 105.197C125.403 105.197 125.349 105.15 125.349 105.026V104.077C125.349 103.953 125.404 103.906 125.49 103.906C125.577 103.906 125.632 103.953 125.632 104.077V105.026C125.632 105.15 125.577 105.197 125.49 105.197Z" fill="#555555"/>
<path d="M126.089 105.42H126.361V104.676H126.456C126.58 104.676 126.627 104.728 126.627 104.889V105.207C126.627 105.348 126.638 105.376 126.652 105.42H126.93C126.903 105.356 126.9 105.294 126.9 105.209V104.903C126.9 104.707 126.856 104.578 126.719 104.536V104.531C126.841 104.481 126.898 104.367 126.898 104.188V104.082C126.898 103.814 126.776 103.682 126.493 103.682H126.089V105.42ZM126.361 104.427V103.93H126.485C126.582 103.93 126.624 103.985 126.624 104.109V104.243C126.624 104.382 126.563 104.427 126.46 104.427H126.361H126.361Z" fill="#555555"/>
<path d="M127.089 105.42H127.506C127.779 105.42 127.913 105.268 127.913 104.991V104.112C127.913 103.833 127.779 103.682 127.506 103.682H127.089V105.42ZM127.362 105.172V103.93H127.501C127.587 103.93 127.639 103.976 127.639 104.099V105.003C127.639 105.128 127.587 105.172 127.501 105.172H127.362Z" fill="#555555"/>
<path d="M165.501 124.234H81.8003V40.533H165.501V124.234Z" fill="#F2F2F2"/>
<path d="M165.501 47.3982H81.8003V40.236H165.501V47.3982Z" fill="#FFCB01"/>
<path d="M158.359 42.02L162.571 46.3593M162.634 42.0843L158.295 46.2955" stroke="#F4F4F4" stroke-width="0.898428" stroke-miterlimit="10" stroke-linecap="round" stroke-linejoin="round"/>
<path d="M136.826 71.4054C136.826 78.6818 130.927 84.5805 123.651 84.5805C116.374 84.5805 110.475 78.6818 110.475 71.4054C110.475 64.129 116.374 58.2302 123.651 58.2302C130.927 58.2302 136.826 64.129 136.826 71.4054Z" fill="#75E1BA"/>
<path d="M126.061 77.8209H121.307V73.0667H126.061V77.8209Z" fill="#F6CDAF"/>
<path d="M123.531 78.5146H119.919V76.2953H123.531V78.5146ZM128.071 78.5146H124.458V76.2953H128.071V78.5146Z" fill="#F2F2F2"/>
<path d="M132.311 85.8446H115.42V81.8467C115.42 79.4827 117.336 77.5657 119.7 77.5657H128.03C130.394 77.5657 132.311 79.4821 132.311 81.8467V85.8446H132.311Z" fill="#006680"/>
<path d="M120.254 66.8093C120.254 68.3901 118.972 69.6718 117.391 69.6718C115.81 69.6718 114.528 68.3901 114.528 66.8093C114.528 65.2285 115.81 63.9462 117.391 63.9462C118.972 63.9462 120.254 65.2279 120.254 66.8093ZM132.773 66.8093C132.773 68.3901 131.492 69.6718 129.91 69.6718C128.329 69.6718 127.047 68.3901 127.047 66.8093C127.047 65.2285 128.329 63.9462 129.91 63.9462C131.492 63.9462 132.773 65.2279 132.773 66.8093Z" fill="#F6CDAF"/>
<path d="M123.89 75.4676H123.839C120.114 75.4676 117.095 72.4475 117.095 68.723V64.2233C117.095 60.4983 120.114 57.4787 123.839 57.4787H123.89C127.615 57.4787 130.635 60.4983 130.635 64.2233V68.723C130.635 72.448 127.615 75.4676 123.89 75.4676Z" fill="#FFD8B8"/>
<path d="M119.165 60.4844C119.767 60.7358 120.373 60.9877 121.005 61.1486C122.254 61.4664 123.565 61.4177 124.849 61.3019C126.091 61.1898 127.342 61.0129 128.499 60.5444C129.654 60.0759 130.718 59.2879 131.311 58.1906C131.905 57.0933 131.958 55.6679 131.266 54.6307C131.174 54.4924 131.067 54.3594 130.923 54.2774C130.756 54.1815 130.555 54.1643 130.362 54.1723C129.994 54.1879 129.63 54.2913 129.309 54.4709C128.996 54.6457 128.725 54.8907 128.409 55.0579C128.091 55.2252 127.695 55.3066 127.379 55.1362C127.152 55.0129 127.006 54.7808 126.81 54.6103C126.383 54.2388 125.763 54.1954 125.199 54.2485C125.005 54.2667 124.806 54.2956 124.639 54.3959C124.285 54.6082 124.173 55.067 123.896 55.3731C123.627 55.6712 123.191 55.8073 122.799 55.7151C122.423 55.6261 122.106 55.3479 121.723 55.2948C121.272 55.2321 120.833 55.5007 120.536 55.8464C120.24 56.1917 120.048 56.613 119.802 56.9952C119.34 57.7124 118.694 58.286 118.209 58.9856C118.034 59.2375 118.085 60.7031 118.085 60.7031C118.085 60.7031 118.847 60.3509 119.165 60.4839V60.4844ZM120.641 67.5421C120.641 67.7415 120.479 67.9034 120.28 67.9034C120.08 67.9034 119.919 67.7415 119.919 67.5421C119.919 67.3421 120.081 67.1808 120.28 67.1808C120.479 67.1808 120.641 67.3427 120.641 67.5421ZM127.615 67.5421C127.615 67.7415 127.453 67.9034 127.253 67.9034C127.054 67.9034 126.892 67.7415 126.892 67.5421C126.892 67.3421 127.054 67.1808 127.253 67.1808C127.453 67.1808 127.615 67.3427 127.615 67.5421Z" fill="#006680"/>
<path d="M120.784 69.1256C120.784 69.6359 120.37 70.0497 119.86 70.0497C119.349 70.0497 118.935 69.6359 118.935 69.1256C118.935 68.6152 119.349 68.2014 119.86 68.2014C120.37 68.2014 120.784 68.6152 120.784 69.1256ZM128.895 69.1256C128.895 69.6359 128.481 70.0497 127.971 70.0497C127.461 70.0497 127.047 69.6359 127.047 69.1256C127.047 68.6152 127.461 68.2014 127.971 68.2014C128.481 68.2014 128.895 68.6152 128.895 69.1256Z" fill="#FFB19E"/>
<path d="M122.068 69.7838H125.763C125.763 69.7838 123.837 72.2154 122.068 69.7838Z" fill="#F2F2F2"/>
<path d="M95.4643 93.2727C95.4643 95.0122 96.8746 96.4225 98.6141 96.4225H148.687C150.427 96.4225 151.837 95.0122 151.837 93.2727C151.837 91.5332 150.427 90.1228 148.687 90.1228H98.6141M95.4637 93.2727C95.4637 91.5332 96.8741 90.1228 98.6136 90.1228M148.687 105.823H98.6141C96.8746 105.823 95.4643 104.412 95.4643 102.673M95.4637 102.672C95.4637 100.933 96.8741 99.5225 98.6136 99.5225M98.6141 99.5225H148.687C150.427 99.5225 151.837 100.933 151.837 102.672C151.837 104.412 150.427 105.822 148.687 105.822" stroke="#75E1BA" stroke-width="0.898428" stroke-miterlimit="10"/>
<path d="M135.183 117.335H116.342C114.602 117.335 113.192 115.924 113.192 114.185C113.192 112.445 114.602 111.035 116.342 111.035H135.183C136.922 111.035 138.333 112.445 138.333 114.185C138.333 115.924 136.922 117.335 135.183 117.335Z" fill="#565656" fill-opacity="0.290196"/>
<path d="M133.071 115.223H114.231C112.491 115.223 111.081 113.812 111.081 112.073C111.081 110.333 112.491 108.923 114.231 108.923H133.071C134.811 108.923 136.221 110.333 136.221 112.073C136.221 113.812 134.811 115.223 133.071 115.223Z" fill="#FFCB01"/>
<path d="M118.406 93.9299C118.674 93.9299 118.814 93.7712 118.814 93.493V92.1668H118.551V93.5128C118.551 93.6367 118.499 93.6817 118.412 93.6817C118.325 93.6817 118.273 93.6367 118.273 93.5128V92.1668H118V93.493C118 93.7712 118.139 93.9299 118.407 93.9299H118.406Z" fill="#31DB9D"/>
<path d="M119.363 93.9299C119.631 93.9299 119.775 93.7712 119.775 93.4881C119.775 93.2721 119.703 93.1333 119.474 92.9323C119.295 92.7757 119.238 92.6841 119.238 92.5576C119.238 92.4386 119.288 92.3914 119.375 92.3914C119.462 92.3914 119.512 92.4386 119.512 92.5624V92.6519H119.769V92.5801C119.769 92.3019 119.638 92.1432 119.372 92.1432C119.106 92.1432 118.965 92.3024 118.965 92.5752C118.965 92.7741 119.039 92.9156 119.268 93.1167C119.447 93.2732 119.501 93.3649 119.501 93.5091C119.501 93.6382 119.447 93.6833 119.36 93.6833C119.273 93.6833 119.218 93.6382 119.218 93.5144V93.3954H118.96V93.4946C118.96 93.7728 119.094 93.9315 119.363 93.9315V93.9299Z" fill="#31DB9D"/>
<path d="M119.931 93.9052H120.676V93.657H120.204V93.1231H120.579V92.8749H120.204V92.4155H120.676V92.1668H119.931V93.9052Z" fill="#31DB9D"/>
<path d="M120.833 93.9052H121.105V93.1607H121.2C121.324 93.1607 121.371 93.2127 121.371 93.374V93.6919C121.371 93.8334 121.381 93.8607 121.396 93.9052H121.674C121.647 93.8409 121.644 93.7787 121.644 93.694V93.3885C121.644 93.1923 121.6 93.0631 121.463 93.0213V93.0159C121.585 92.9661 121.642 92.8519 121.642 92.6734V92.5667C121.642 92.2987 121.52 92.1668 121.237 92.1668H120.833V93.9052ZM121.105 92.9119V92.415H121.229C121.326 92.415 121.368 92.4697 121.368 92.594V92.7281C121.368 92.8669 121.306 92.9119 121.204 92.9119H121.105H121.105Z" fill="#31DB9D"/>
<path d="M121.833 93.9052H122.076V92.6364H122.081L122.409 93.9052H122.69V92.1668H122.446V93.2073H122.441L122.176 92.1668H121.833V93.9052Z" fill="#31DB9D"/>
<path d="M122.821 93.9052H123.074L123.124 93.5654H123.435V93.56L123.484 93.9052H123.757L123.474 92.1668H123.104L122.821 93.9052ZM123.156 93.329L123.275 92.4702H123.28L123.402 93.329H123.156H123.156Z" fill="#31DB9D"/>
<path d="M123.889 93.9052H124.127V92.5892H124.133L124.331 93.9052H124.559L124.758 92.5892H124.763V93.9052H125.021V92.1668H124.631L124.457 93.411H124.453L124.279 92.1668H123.889V93.9052Z" fill="#31DB9D"/>
<path d="M125.186 93.9052H125.93V93.657H125.459V93.1231H125.833V92.8749H125.459V92.4155H125.93V92.1668H125.186V93.9052Z" fill="#31DB9D"/>
<path d="M119.38 112.897H120.36V112.559H119.75V110.538H119.38V112.897Z" fill="#F2F2F2"/>
<path d="M121.062 112.93C121.425 112.93 121.624 112.715 121.624 112.337V111.097C121.624 110.72 121.425 110.504 121.062 110.504C120.698 110.504 120.499 110.72 120.499 111.097V112.337C120.499 112.715 120.698 112.93 121.062 112.93ZM121.062 112.593C120.944 112.593 120.87 112.529 120.87 112.361V111.073C120.87 110.905 120.944 110.841 121.062 110.841C121.179 110.841 121.253 110.905 121.253 111.073V112.361C121.253 112.529 121.179 112.593 121.062 112.593Z" fill="#F2F2F2"/>
<path d="M122.399 112.93C122.763 112.93 122.952 112.715 122.952 112.337V111.566H122.415V111.903H122.601V112.364C122.601 112.533 122.527 112.593 122.409 112.593C122.291 112.593 122.217 112.533 122.217 112.364V111.073C122.217 110.905 122.291 110.841 122.409 110.841C122.527 110.841 122.601 110.905 122.601 111.073V111.299H122.952V111.097C122.952 110.72 122.763 110.504 122.399 110.504C122.035 110.504 121.846 110.72 121.846 111.097V112.337C121.846 112.715 122.035 112.93 122.399 112.93Z" fill="#F2F2F2"/>
<path d="M123.191 112.897H123.562V110.538H123.191V112.897Z" fill="#F2F2F2"/>
<path d="M123.838 112.897H124.169V111.174H124.175L124.62 112.897H125.001V110.538H124.67V111.949H124.664L124.303 110.538H123.838V112.897Z" fill="#F2F2F2"/>
<path d="M117.893 103.308H118.166V102.601H118.295C118.568 102.601 118.703 102.449 118.703 102.171V102C118.703 101.721 118.569 101.57 118.295 101.57H117.893V103.308ZM118.166 102.352V101.818H118.295C118.382 101.818 118.429 101.858 118.429 101.983V102.188C118.429 102.312 118.382 102.352 118.295 102.352H118.166Z" fill="#D1ADFE"/>
<path d="M118.693 103.308H118.946L118.996 102.968H119.306V102.963L119.356 103.308H119.629L119.346 101.57H118.976L118.693 103.308ZM119.028 102.732L119.147 101.873H119.151L119.273 102.732H119.027H119.028Z" fill="#D1ADFE"/>
<path d="M120.108 103.333C120.376 103.333 120.521 103.175 120.521 102.892C120.521 102.676 120.449 102.537 120.22 102.336C120.041 102.179 119.984 102.088 119.984 101.961C119.984 101.842 120.034 101.795 120.121 101.795C120.208 101.795 120.257 101.842 120.257 101.966V102.055H120.515V101.984C120.515 101.705 120.384 101.547 120.118 101.547C119.852 101.547 119.711 101.706 119.711 101.979C119.711 102.178 119.785 102.319 120.014 102.52C120.193 102.677 120.247 102.768 120.247 102.913C120.247 103.042 120.193 103.087 120.106 103.087C120.019 103.087 119.964 103.042 119.964 102.918V102.799H119.706V102.898C119.706 103.176 119.84 103.335 120.108 103.335V103.333Z" fill="#D1ADFE"/>
<path d="M121.032 103.333C121.3 103.333 121.444 103.175 121.444 102.892C121.444 102.676 121.372 102.537 121.143 102.336C120.964 102.179 120.908 102.088 120.908 101.961C120.908 101.842 120.957 101.795 121.044 101.795C121.132 101.795 121.181 101.842 121.181 101.966V102.055H121.439V101.984C121.439 101.705 121.308 101.547 121.042 101.547C120.776 101.547 120.634 101.706 120.634 101.979C120.634 102.178 120.709 102.319 120.937 102.52C121.116 102.677 121.171 102.768 121.171 102.913C121.171 103.042 121.116 103.087 121.029 103.087C120.942 103.087 120.888 103.042 120.888 102.918V102.799H120.629V102.898C120.629 103.176 120.763 103.335 121.032 103.335V103.333Z" fill="#D1ADFE"/>
<path d="M121.712 103.308H122.075L122.199 102.136H122.203L122.328 103.308H122.668L122.844 101.57H122.608L122.487 102.906H122.482L122.352 101.57H122.055L121.926 102.906H121.92L121.799 101.57H121.535L121.712 103.308Z" fill="#D1ADFE"/>
<path d="M123.378 103.333C123.646 103.333 123.793 103.175 123.793 102.896V101.983C123.793 101.705 123.646 101.546 123.378 101.546C123.11 101.546 122.963 101.705 122.963 101.983V102.896C122.963 103.175 123.11 103.333 123.378 103.333ZM123.378 103.085C123.291 103.085 123.237 103.038 123.237 102.914V101.965C123.237 101.841 123.291 101.794 123.378 101.794C123.465 101.794 123.52 101.841 123.52 101.965V102.914C123.52 103.037 123.465 103.085 123.378 103.085Z" fill="#D1ADFE"/>
<path d="M123.977 103.308H124.249V102.564H124.344C124.468 102.564 124.515 102.616 124.515 102.777V103.095C124.515 103.236 124.525 103.264 124.54 103.308H124.818C124.791 103.244 124.788 103.182 124.788 103.097V102.791C124.788 102.595 124.744 102.466 124.607 102.424V102.419C124.729 102.369 124.786 102.255 124.786 102.076V101.97C124.786 101.702 124.664 101.57 124.381 101.57H123.977V103.308ZM124.249 102.315V101.818H124.373C124.47 101.818 124.512 101.873 124.512 101.997V102.131C124.512 102.27 124.45 102.315 124.348 102.315H124.249H124.249Z" fill="#D1ADFE"/>
<path d="M124.977 103.308H125.394C125.667 103.308 125.801 103.156 125.801 102.879V102C125.801 101.721 125.667 101.57 125.394 101.57H124.977V103.308ZM125.25 103.06V101.818H125.389C125.475 101.818 125.527 101.864 125.527 101.987V102.891C125.527 103.016 125.475 103.06 125.389 103.06H125.25Z" fill="#D1ADFE"/>
<path d="M117.893 103.308H118.166V102.601H118.295C118.568 102.601 118.703 102.449 118.703 102.171V102C118.703 101.721 118.569 101.57 118.295 101.57H117.893V103.308ZM118.166 102.352V101.818H118.295C118.382 101.818 118.429 101.858 118.429 101.983V102.188C118.429 102.312 118.382 102.352 118.295 102.352H118.166Z" fill="#D1ADFE"/>
<path d="M118.693 103.308H118.946L118.996 102.968H119.306V102.963L119.356 103.308H119.629L119.346 101.57H118.976L118.693 103.308ZM119.028 102.732L119.147 101.873H119.152L119.273 102.732H119.027H119.028Z" fill="#D1ADFE"/>
<path d="M120.109 103.333C120.377 103.333 120.521 103.175 120.521 102.892C120.521 102.676 120.449 102.537 120.22 102.336C120.041 102.179 119.984 102.088 119.984 101.961C119.984 101.842 120.034 101.795 120.121 101.795C120.208 101.795 120.258 101.842 120.258 101.966V102.055H120.515V101.984C120.515 101.705 120.384 101.547 120.118 101.547C119.852 101.547 119.711 101.706 119.711 101.979C119.711 102.178 119.785 102.319 120.014 102.52C120.193 102.677 120.247 102.768 120.247 102.913C120.247 103.042 120.193 103.087 120.106 103.087C120.019 103.087 119.964 103.042 119.964 102.918V102.799H119.706V102.898C119.706 103.176 119.84 103.335 120.109 103.335V103.333Z" fill="#D1ADFE"/>
<path d="M121.032 103.333C121.3 103.333 121.444 103.175 121.444 102.892C121.444 102.676 121.372 102.537 121.144 102.336C120.965 102.179 120.908 102.088 120.908 101.961C120.908 101.842 120.958 101.795 121.044 101.795C121.132 101.795 121.181 101.842 121.181 101.966V102.055H121.439V101.984C121.439 101.705 121.308 101.547 121.042 101.547C120.776 101.547 120.634 101.706 120.634 101.979C120.634 102.178 120.709 102.319 120.937 102.52C121.116 102.677 121.171 102.768 121.171 102.913C121.171 103.042 121.116 103.087 121.029 103.087C120.943 103.087 120.888 103.042 120.888 102.918V102.799H120.63V102.898C120.63 103.176 120.764 103.335 121.032 103.335V103.333Z" fill="#D1ADFE"/>
<path d="M121.712 103.308H122.075L122.199 102.136H122.203L122.328 103.308H122.668L122.844 101.57H122.608L122.487 102.906H122.482L122.352 101.57H122.055L121.926 102.906H121.92L121.799 101.57H121.535L121.712 103.308Z" fill="#D1ADFE"/>
<path d="M123.378 103.333C123.646 103.333 123.793 103.175 123.793 102.896V101.983C123.793 101.705 123.646 101.546 123.378 101.546C123.11 101.546 122.964 101.705 122.964 101.983V102.896C122.964 103.175 123.11 103.333 123.378 103.333ZM123.378 103.085C123.291 103.085 123.237 103.038 123.237 102.914V101.965C123.237 101.841 123.292 101.794 123.378 101.794C123.465 101.794 123.52 101.841 123.52 101.965V102.914C123.52 103.037 123.465 103.085 123.378 103.085Z" fill="#D1ADFE"/>
<path d="M123.977 103.308H124.249V102.564H124.344C124.468 102.564 124.515 102.616 124.515 102.777V103.095C124.515 103.236 124.525 103.264 124.54 103.308H124.818C124.791 103.244 124.788 103.182 124.788 103.097V102.791C124.788 102.595 124.744 102.466 124.607 102.424V102.419C124.729 102.369 124.786 102.255 124.786 102.076V101.97C124.786 101.702 124.664 101.57 124.381 101.57H123.977V103.308ZM124.249 102.315V101.818H124.373C124.47 101.818 124.512 101.873 124.512 101.997V102.131C124.512 102.27 124.45 102.315 124.348 102.315H124.249H124.249Z" fill="#D1ADFE"/>
<path d="M124.977 103.308H125.394C125.667 103.308 125.801 103.156 125.801 102.879V102C125.801 101.721 125.667 101.57 125.394 101.57H124.977V103.308ZM125.25 103.06V101.818H125.389C125.475 101.818 125.527 101.864 125.527 101.987V102.891C125.527 103.016 125.475 103.06 125.389 103.06H125.25Z" fill="#D1ADFE"/>
<path d="M117.893 103.308H118.166V102.601H118.295C118.568 102.601 118.703 102.449 118.703 102.171V102C118.703 101.721 118.569 101.57 118.295 101.57H117.893V103.308ZM118.166 102.352V101.818H118.295C118.382 101.818 118.429 101.858 118.429 101.983V102.188C118.429 102.312 118.382 102.352 118.295 102.352H118.166Z" fill="#D1ADFE"/>
<path d="M118.693 103.308H118.946L118.996 102.968H119.306V102.963L119.356 103.308H119.629L119.346 101.57H118.976L118.693 103.308ZM119.028 102.732L119.147 101.873H119.152L119.273 102.732H119.027H119.028Z" fill="#D1ADFE"/>
<path d="M120.109 103.333C120.377 103.333 120.521 103.175 120.521 102.892C120.521 102.676 120.449 102.537 120.22 102.336C120.041 102.179 119.984 102.088 119.984 101.961C119.984 101.842 120.034 101.795 120.121 101.795C120.208 101.795 120.258 101.842 120.258 101.966V102.055H120.515V101.984C120.515 101.705 120.384 101.547 120.118 101.547C119.852 101.547 119.711 101.706 119.711 101.979C119.711 102.178 119.785 102.319 120.014 102.52C120.193 102.677 120.247 102.768 120.247 102.913C120.247 103.042 120.193 103.087 120.106 103.087C120.019 103.087 119.964 103.042 119.964 102.918V102.799H119.706V102.898C119.706 103.176 119.84 103.335 120.109 103.335V103.333Z" fill="#D1ADFE"/>
<path d="M121.032 103.333C121.3 103.333 121.444 103.175 121.444 102.892C121.444 102.676 121.372 102.537 121.144 102.336C120.965 102.179 120.908 102.088 120.908 101.961C120.908 101.842 120.958 101.795 121.044 101.795C121.132 101.795 121.181 101.842 121.181 101.966V102.055H121.439V101.984C121.439 101.705 121.308 101.547 121.042 101.547C120.776 101.547 120.634 101.706 120.634 101.979C120.634 102.178 120.709 102.319 120.937 102.52C121.116 102.677 121.171 102.768 121.171 102.913C121.171 103.042 121.116 103.087 121.029 103.087C120.943 103.087 120.888 103.042 120.888 102.918V102.799H120.63V102.898C120.63 103.176 120.764 103.335 121.032 103.335V103.333Z" fill="#D1ADFE"/>
<path d="M121.712 103.308H122.075L122.199 102.136H122.203L122.328 103.308H122.668L122.844 101.57H122.608L122.487 102.906H122.482L122.352 101.57H122.055L121.926 102.906H121.92L121.799 101.57H121.535L121.712 103.308Z" fill="#D1ADFE"/>
<path d="M123.378 103.333C123.646 103.333 123.793 103.175 123.793 102.896V101.983C123.793 101.705 123.646 101.546 123.378 101.546C123.11 101.546 122.964 101.705 122.964 101.983V102.896C122.964 103.175 123.11 103.333 123.378 103.333ZM123.378 103.085C123.291 103.085 123.237 103.038 123.237 102.914V101.965C123.237 101.841 123.292 101.794 123.378 101.794C123.465 101.794 123.52 101.841 123.52 101.965V102.914C123.52 103.037 123.465 103.085 123.378 103.085Z" fill="#D1ADFE"/>
<path d="M123.977 103.308H124.249V102.564H124.344C124.468 102.564 124.515 102.616 124.515 102.777V103.095C124.515 103.236 124.525 103.264 124.54 103.308H124.818C124.791 103.244 124.788 103.182 124.788 103.097V102.791C124.788 102.595 124.744 102.466 124.607 102.424V102.419C124.729 102.369 124.786 102.255 124.786 102.076V101.97C124.786 101.702 124.664 101.57 124.381 101.57H123.977V103.308ZM124.249 102.315V101.818H124.373C124.47 101.818 124.512 101.873 124.512 101.997V102.131C124.512 102.27 124.45 102.315 124.348 102.315H124.249H124.249Z" fill="#D1ADFE"/>
<path d="M124.977 103.308H125.394C125.667 103.308 125.801 103.156 125.801 102.879V102C125.801 101.721 125.667 101.57 125.394 101.57H124.977V103.308ZM125.25 103.06V101.818H125.389C125.475 101.818 125.527 101.864 125.527 101.987V102.891C125.527 103.016 125.475 103.06 125.389 103.06H125.25Z" fill="#D1ADFE"/>
<path d="M117.893 103.308H118.166V102.601H118.295C118.568 102.601 118.703 102.449 118.703 102.171V102C118.703 101.721 118.569 101.57 118.295 101.57H117.893V103.308ZM118.166 102.352V101.818H118.295C118.382 101.818 118.429 101.858 118.429 101.983V102.188C118.429 102.312 118.382 102.352 118.295 102.352H118.166Z" fill="#31DB9D"/>
<path d="M118.693 103.308H118.946L118.996 102.968H119.306V102.963L119.356 103.308H119.629L119.346 101.57H118.976L118.693 103.308ZM119.028 102.732L119.147 101.873H119.152L119.273 102.732H119.027H119.028Z" fill="#31DB9D"/>
<path d="M120.108 103.333C120.376 103.333 120.521 103.175 120.521 102.892C120.521 102.676 120.449 102.537 120.22 102.336C120.041 102.179 119.984 102.088 119.984 101.961C119.984 101.842 120.034 101.795 120.121 101.795C120.208 101.795 120.257 101.842 120.257 101.966V102.055H120.515V101.984C120.515 101.705 120.384 101.547 120.118 101.547C119.852 101.547 119.711 101.706 119.711 101.979C119.711 102.178 119.785 102.319 120.014 102.52C120.193 102.677 120.247 102.768 120.247 102.913C120.247 103.042 120.193 103.087 120.106 103.087C120.019 103.087 119.964 103.042 119.964 102.918V102.799H119.706V102.898C119.706 103.176 119.84 103.335 120.108 103.335V103.333Z" fill="#31DB9D"/>
<path d="M121.032 103.333C121.3 103.333 121.444 103.175 121.444 102.892C121.444 102.676 121.372 102.537 121.144 102.336C120.965 102.179 120.908 102.088 120.908 101.961C120.908 101.842 120.958 101.795 121.044 101.795C121.132 101.795 121.181 101.842 121.181 101.966V102.055H121.439V101.984C121.439 101.705 121.308 101.547 121.042 101.547C120.776 101.547 120.634 101.706 120.634 101.979C120.634 102.178 120.709 102.319 120.937 102.52C121.116 102.677 121.171 102.768 121.171 102.913C121.171 103.042 121.116 103.087 121.029 103.087C120.943 103.087 120.888 103.042 120.888 102.918V102.799H120.63V102.898C120.63 103.176 120.764 103.335 121.032 103.335V103.333Z" fill="#31DB9D"/>
<path d="M121.712 103.308H122.075L122.199 102.136H122.203L122.328 103.308H122.668L122.844 101.57H122.608L122.487 102.906H122.482L122.352 101.57H122.055L121.926 102.906H121.92L121.799 101.57H121.535L121.712 103.308Z" fill="#31DB9D"/>
<path d="M123.378 103.333C123.646 103.333 123.793 103.175 123.793 102.896V101.983C123.793 101.705 123.646 101.546 123.378 101.546C123.11 101.546 122.964 101.705 122.964 101.983V102.896C122.964 103.175 123.11 103.333 123.378 103.333ZM123.378 103.085C123.291 103.085 123.237 103.038 123.237 102.914V101.965C123.237 101.841 123.292 101.794 123.378 101.794C123.465 101.794 123.52 101.841 123.52 101.965V102.914C123.52 103.037 123.465 103.085 123.378 103.085Z" fill="#31DB9D"/>
<path d="M123.977 103.308H124.249V102.564H124.344C124.468 102.564 124.515 102.616 124.515 102.777V103.095C124.515 103.236 124.525 103.264 124.54 103.308H124.818C124.791 103.244 124.788 103.182 124.788 103.097V102.791C124.788 102.595 124.744 102.466 124.607 102.424V102.419C124.729 102.369 124.786 102.255 124.786 102.076V101.97C124.786 101.702 124.664 101.57 124.381 101.57H123.977V103.308ZM124.249 102.315V101.818H124.373C124.47 101.818 124.512 101.873 124.512 101.997V102.131C124.512 102.27 124.45 102.315 124.348 102.315H124.249H124.249Z" fill="#31DB9D"/>
<path d="M124.977 103.308H125.394C125.667 103.308 125.801 103.156 125.801 102.879V102C125.801 101.721 125.667 101.57 125.394 101.57H124.977V103.308ZM125.25 103.06V101.818H125.389C125.475 101.818 125.527 101.864 125.527 101.987V102.891C125.527 103.016 125.475 103.06 125.389 103.06H125.25Z" fill="#31DB9D"/>
</svg>
