<svg width="159" height="160" viewBox="0 0 159 160" fill="none" xmlns="http://www.w3.org/2000/svg">
<path fill-rule="evenodd" clip-rule="evenodd" d="M91.5331 101.582C92.7096 100.761 93.927 96.229 94.4691 94.67C95.1925 92.5915 95.1841 91.808 96.9603 92.4824C97.5176 92.6935 97.7743 92.8544 98.3126 93.6264C97.8816 94.1362 96.0744 99.4743 95.779 100.263C95.5156 100.969 94.7281 102.958 94.7831 103.558C94.9145 104.987 96.4585 105.776 97.6794 104.925C99.0081 103.998 100.569 96.9375 101.562 95.7618C104.423 96.8779 104.248 96.7812 101.976 102.752C101.577 103.8 101.311 104.612 100.896 105.672C99.2044 109.998 102.462 109.808 103.114 109.354C103.823 108.86 104.132 107.926 104.344 107.325L105.942 102.769C106.196 101.997 106.405 101.155 106.937 100.526C108.786 102.192 110.383 101.706 105.901 110.543L102.883 116.056C102.255 117.065 101.837 117.707 101.156 118.687C100.071 120.248 98.5503 122.546 97.2097 124.035C96.6567 123.568 92.8175 122.408 91.8545 122.068L80.9545 118.23C79.1486 117.573 79.1479 118.17 78.0216 113.348L73.6757 98.2217C73.4236 97.3666 72.9447 96.0673 72.7847 95.1228C72.3032 92.289 75.6918 91.4853 76.7986 93.0728C79.1401 96.4313 80.046 106.362 83.5027 103.952C84.5129 103.247 86.1057 97.7105 86.5036 96.5329C86.9437 95.2304 87.3987 94.1226 87.8392 92.7945L93.7662 76.043C94.8613 72.6366 96.6677 74.0089 97.0479 74.5541C97.5064 75.2119 97.2521 75.8442 97.0447 76.455L88.6992 99.8695C88.5631 101.402 90.1166 102.569 91.534 101.581L91.5331 101.582ZM82.412 96.4955C80.9488 94.2941 81.1448 91.0623 78.1491 89.376C73.634 86.8336 69.311 90.3096 69.0051 93.7584C68.8489 95.5244 71.0722 103.96 71.9824 105.528C66.5194 109.337 61.0397 113.127 55.5922 116.956C52.6394 119.032 50.5679 119.962 47.9732 119.929C45.8564 119.902 43.008 118.888 41.295 116.659C37.4159 111.608 33.5594 105.555 29.8693 100.262L12.6598 75.5782C10.2056 72.0581 8.97925 70.9597 8.81302 67.6294C8.50456 61.4604 14.4231 58.5025 19.4438 55.0021L68.811 20.5838C73.0352 17.6388 81.38 11.1875 85.3131 9.493C87.6148 8.50198 90.4158 8.65421 92.3942 9.54007C95.3336 10.8555 96.142 12.6456 98.4987 16.0258L121.49 49.0031C127.351 57.4097 133.121 62.9239 121.943 70.6975L97.0612 88.0446C97.0478 87.3406 97.3709 86.5733 97.6191 85.896L100.076 79.0728C101.443 75.3407 105.066 74.9447 109.363 71.22C113.58 67.5638 109.575 63.93 107.86 61.4395C104.74 56.9078 102.377 58.2139 98.2364 61.1076C93.1239 64.6819 84.8787 68.6131 87.4329 73.3583C89.777 77.7135 90.8734 73.2978 85.7597 87.4109C85.4061 88.3862 83.0822 95.7024 82.4126 96.4964L82.412 96.4955ZM7.15892 74.4238L37.86 118.459C41.3512 123.467 48.0653 124.931 53.7496 122.433C55.6262 121.608 69.9289 111.361 72.8622 109.316C73.4791 110.38 74.472 115.597 75.2928 117.012C72.0045 117.416 71.5957 120.268 70.6535 123.1C69.7988 125.669 69.0506 126.157 70.7946 128.658C71.8039 130.106 85.0345 134.063 87.6357 135.052C88.788 135.49 89.93 135.883 91.0529 136.249C92.2087 136.626 93.2752 137.044 94.4721 137.435C99.04 138.931 99.8165 135.019 100.948 131.617C101.952 128.597 102.391 128.52 100.519 125.834C103.844 122.141 106.338 117.622 108.698 113.288C109.276 112.227 109.725 111.212 110.221 110.102C112.111 105.866 114.901 99.9803 108.706 97.3649C106.596 96.4738 108.033 96.6276 106.612 94.5892C105.526 93.0309 103.058 92.1281 101.686 92.1548C101.106 90.7016 101.472 91.2271 100.309 90.1798L123.808 73.7965C128.829 70.2961 130.06 69.244 131.445 64.9574C132.342 62.1776 132.217 57.6548 129.88 54.3038L99.1792 10.2682C95.3725 4.80809 86.8862 3.57944 82.147 6.88351L9.87326 57.272C8.59279 58.1647 7.3104 59.9309 6.71527 61.0311C4.56272 65.0077 4.33185 70.3688 7.15892 74.4238Z" fill="#F03F6D"/>
<path fill-rule="evenodd" clip-rule="evenodd" d="M38.7689 75.5682L36.4288 72.2116L43.9329 66.9798L46.4108 70.5339C47.8148 72.5477 47.2649 75.5136 45.2748 76.9011C43.1816 78.3604 40.2286 77.6598 38.7699 75.5676L38.7689 75.5682ZM32.7787 73.2889C35.221 76.792 35.4181 77.6811 38.1301 80.1227C37.1125 81.3279 36.407 85.8431 37.0122 87.3578L36.6172 87.6332C34.2815 85.6609 33.0677 87.1728 28.5243 80.6561C26.1367 77.2315 25.8669 72.7938 26.5247 69.0603C27.5978 62.9714 32.6864 57.6024 39.4363 56.3244C47.661 54.7667 55.8589 59.7815 58.1108 67.7792C58.4677 69.0485 58.929 71.3417 58.5355 72.3505C57.066 71.5943 56.3993 71.357 54.7866 71.0743C53.6521 70.8752 51.9717 70.5174 50.8276 70.9752C50.1934 69.8824 50.1744 69.1964 49.2948 67.9348C47.7887 65.7746 46.7042 63.8484 44.5821 62.3676C43.8294 61.842 42.4999 61.3491 41.684 61.1638C37.6931 60.2556 32.8083 62.9479 31.9956 67.4423C31.7036 69.0559 31.5183 71.4811 32.7774 73.287L32.7787 73.2889ZM25.916 83.6487C27.7733 86.3126 30.1405 88.3906 32.4507 89.6617C36.6843 91.9917 41.4374 92.8248 46.2116 92.0003C52.9845 90.8298 59.1759 85.5218 61.24 79.2308C65.4538 66.3911 57.6137 54.6261 45.9875 52.5517C28.3454 49.4041 16.0203 69.4549 25.9153 83.6477L25.916 83.6487ZM72.4319 66.1856C71.2664 64.5139 68.7186 61.7317 70.1153 60.758L100.921 39.2806C102.356 38.2798 103.801 41.307 105.213 43.3312C105.855 44.2526 105.716 45.0346 104.794 45.6776L74.7783 66.6042C73.8559 67.2473 73.0749 67.1079 72.4319 66.1856ZM67.0687 65.2287C69.4688 68.6713 72.0044 73.2328 77.7698 69.2132L106.206 49.3881C112.245 45.1775 108.253 40.9602 105.892 37.5743C104.352 35.3649 100.989 34.5373 98.3219 36.3966L68.1087 57.4609C65.6347 59.1857 65.2924 62.681 67.0687 65.2287ZM61.142 49.9922C58.6312 46.3909 56.9653 45.2745 59.5376 43.4811L88.3683 23.3807C90.8725 21.6348 91.2186 23.2612 93.7841 26.941C94.443 27.886 94.0799 28.7893 93.168 29.4251L63.5473 50.0763C62.8253 50.5797 61.5871 50.6327 61.1411 49.9929L61.142 49.9922ZM55.6418 48.8388C57.3693 51.3166 60.5703 56.5544 65.0202 53.452L95.826 31.9746C98.1809 30.3327 98.5205 27.0008 96.8062 24.542L94.6031 21.3819C92.8888 18.9231 89.644 18.0901 87.2901 19.7313L56.4843 41.2087C54.0425 42.9111 53.8926 46.3298 55.6418 48.8388Z" fill="#F03F6D"/>
</svg>
