<svg width="129" height="129" viewBox="0 0 129 129" fill="none" xmlns="http://www.w3.org/2000/svg">
<path fill-rule="evenodd" clip-rule="evenodd" d="M31.627 34.3269C33.6546 32.1196 36.8599 29.4348 38.9107 28.0431C43.7893 24.7316 48.0263 22.7011 53.7253 21.308C57.0212 20.5022 58.1503 20.4617 61.3882 20.0968C59.748 21.8825 58.3832 23.0024 57.9139 24.8403C56.6846 29.6562 62.9955 33.0888 66.2222 29.576L76.7339 18.1326C78.4308 16.2853 78.1149 13.1033 76.2848 11.4222L65.1832 1.22461C61.9212 -1.77181 56.0984 1.10035 56.9685 5.84068C57.3183 7.74623 58.1036 8.26283 59.9736 9.98055C59.5247 10.2663 56.3929 10.5748 55.5726 10.7024C43.4544 12.589 32.7042 18.4125 23.812 28.093C21.033 31.1183 15.364 37.1833 20.2422 40.7622C22.2549 42.239 24.5861 42.1239 26.4949 40.7713C27.4036 40.127 28.2484 38.5538 28.8643 37.7268C29.7025 36.6013 30.7394 35.2932 31.627 34.3269ZM52.5546 117.476L63.6562 127.673C66.8203 130.58 72.6247 128.004 71.9127 123.056C71.6597 121.296 70.6075 120.517 68.8653 118.917C69.3143 118.631 72.4461 118.323 73.2664 118.195C74.8673 117.946 76.0437 117.687 77.66 117.297C80.3676 116.644 83.8828 115.493 86.558 114.253C93.0435 111.245 98.7217 107.669 104.713 101.146C107.581 98.0241 113.41 92.0569 108.749 88.2487C106.835 86.6841 104.325 86.7222 102.344 88.1262C101.435 88.7705 100.591 90.3437 99.9746 91.1708C95.06 97.7698 86.5514 104.219 78.8449 106.538C76.2659 107.314 70.0808 109.011 67.6086 108.63C69.2155 106.88 70.467 105.863 70.9259 104.057C72.157 99.212 65.831 95.8232 62.6176 99.3215L52.106 110.765C50.4091 112.612 50.7245 115.795 52.5546 117.476ZM1.48695 70.5664C2.81779 71.7889 4.40552 72.1437 5.81272 71.9415C7.57249 71.6886 8.35098 70.6363 9.95124 68.8942C10.441 69.6634 10.1915 70.1198 10.3022 71.0132L11.5712 77.6893C12.2243 80.3968 13.3753 83.9121 14.6157 86.5873C17.816 93.4881 21.2594 98.8056 28.0641 105.056C31.0895 107.835 37.1545 113.504 40.7333 108.626C42.2101 106.613 42.095 104.282 40.7425 102.373C40.0982 101.465 38.525 100.62 37.6979 100.004C32.141 95.8651 26.3134 88.9411 23.827 82.5856C22.52 79.2456 22.1255 78.6057 21.2792 75.1438C20.3379 71.2928 20.4931 71.254 20.068 67.4809C21.851 69.1186 22.9772 70.4892 24.8115 70.9552C29.6567 72.1863 33.0455 65.8603 29.5472 62.6469L18.1038 52.1352C16.2565 50.4383 13.0744 50.7542 11.3934 52.5843L1.1958 63.6859C-0.511087 65.5441 -0.370339 68.8603 1.48786 70.5672L1.48695 70.5664ZM94.5414 31.6567C96.7487 33.6843 99.4331 36.89 100.825 38.9405C101.726 40.2666 102.421 41.262 103.178 42.6156C105.187 46.2099 106.594 49.7866 107.561 53.7546C108.017 55.6256 108.865 59.5463 108.6 61.2609C106.851 59.654 105.834 58.4025 104.028 57.9436C99.1828 56.7125 95.7939 63.0385 99.2922 66.252L110.736 76.7636C112.547 78.4276 115.77 78.1387 117.446 76.3145L127.644 65.213C130.672 61.916 127.741 56.0687 122.863 56.9821C121.078 57.3163 120.342 58.4199 118.731 60.1743C118.539 59.3832 118.641 58.8721 118.556 58.0482C117.281 45.6618 110.781 33.0326 101.117 24.1553C99.2984 22.4851 96.2945 20.0259 94.4979 19.0311C92.6152 17.9889 89.8275 18.1503 88.219 20.119C86.6544 22.0334 86.6925 24.5431 88.0965 26.5242C88.7408 27.4329 90.314 28.2777 91.1411 28.8936C92.2665 29.7318 93.5751 30.7691 94.5414 31.6567Z" fill="#75E1BA"/>
<path fill-rule="evenodd" clip-rule="evenodd" d="M58.4998 38.9865C60.118 39.0204 62.3498 39.3612 63.6458 39.6956C66.7288 40.4908 69.0637 41.4831 71.6622 43.2954C73.165 44.3435 73.5843 44.7865 74.8877 45.9685C73.5788 45.941 72.6379 45.7876 71.7256 46.2534C69.3353 47.474 70.1965 51.2564 72.7716 51.3104L81.1604 51.4861C82.5145 51.5145 83.6913 50.2508 83.7194 48.9093L83.8899 40.7711C83.94 38.3798 80.698 37.0453 79.0876 39.0896C78.4402 39.9114 78.5111 40.414 78.4824 41.7848C78.2064 41.7049 76.9637 40.5459 76.6192 40.259C71.5299 36.0215 65.3334 33.7435 58.237 33.5948C56.0192 33.5483 51.5383 33.4156 51.829 36.6696C51.9488 38.0123 52.8274 38.9159 54.0567 39.2067C54.6421 39.345 55.5812 39.1259 56.1361 39.0804C56.8913 39.0184 57.7915 38.9717 58.4998 38.9865ZM32.2734 77.1418L32.103 85.2799C32.0544 87.5994 35.1696 89.0324 36.9209 86.9777C37.5438 86.2472 37.4837 85.543 37.5104 84.2659C37.7864 84.3458 39.0292 85.5048 39.3737 85.7917C40.046 86.3515 40.5707 86.736 41.3054 87.2518C42.5364 88.116 44.2573 89.1297 45.7147 89.7711C49.2481 91.326 52.724 92.3505 57.5056 92.4507C59.7941 92.4986 64.2926 92.7312 64.1724 89.4834C64.1232 88.1492 63.2121 87.1457 61.9361 86.844C61.3507 86.7057 60.4117 86.9248 59.8567 86.9704C55.4286 87.3339 49.7784 86.1876 46.0883 83.8922C44.8534 83.1241 41.9585 81.2232 41.2308 80.0852C42.5132 80.1121 43.3721 80.2561 44.2676 79.7977C46.6704 78.5674 45.7861 74.7944 43.2216 74.7407L34.8328 74.565C33.4786 74.5366 32.3015 75.8002 32.2734 77.1418ZM33.0577 39.7059C33.0372 40.6815 33.4601 41.4516 34.0442 41.9497C34.7747 42.5725 35.479 42.5125 36.7561 42.5392C36.6191 43.0122 36.3452 43.074 36.0226 43.4377L33.7701 46.3345C32.906 47.5655 31.8923 49.2864 31.2508 50.7438C29.5965 54.5035 28.6705 57.7966 28.566 62.7849C28.5196 65.0027 28.3868 69.4836 31.6409 69.193C32.9835 69.0731 33.8872 68.1945 34.178 66.9652C34.3163 66.3798 34.0972 65.4408 34.0516 64.8858C33.7456 61.1569 34.4717 56.3243 36.1598 53.0485C37.0469 51.3268 37.1654 50.9386 38.2663 49.3601C39.4909 47.6043 39.562 47.6534 40.9393 46.1345C40.912 47.4415 40.7585 48.3871 41.2243 49.2967C42.4546 51.6995 46.2275 50.8152 46.2813 48.2507L46.457 39.8619C46.4854 38.5077 45.2217 37.331 43.8802 37.3029L35.742 37.1324C34.3798 37.1039 33.0862 38.3438 33.0577 39.7059ZM82.0351 63.5289C82.0012 65.1471 81.6601 67.3789 81.326 68.6749C81.1099 69.513 80.9549 70.1502 80.6763 70.9398C79.9367 73.0367 78.9895 74.8834 77.7266 76.6913C77.1311 77.5438 75.8449 79.2866 75.0558 79.7915C75.0827 78.5091 75.2267 77.6502 74.7682 76.7547C73.5379 74.3519 69.765 75.2362 69.7113 77.8007L69.5355 86.1895C69.5077 87.5174 70.7751 88.7205 72.1124 88.7485L80.2505 88.919C82.6674 88.9696 83.991 85.6952 81.8797 84.0441C81.1072 83.44 80.3975 83.5358 79.1115 83.5089C79.3638 83.149 79.6071 83.0078 79.9107 82.6793C84.4752 77.7422 87.2732 70.6008 87.4216 63.5164C87.4495 62.1835 87.374 60.0885 87.136 59.0054C86.8864 57.8705 85.8261 56.7985 84.4543 56.8492C83.1201 56.8984 82.1166 57.8095 81.8149 59.0855C81.6766 59.6709 81.8957 60.6099 81.9413 61.1649C82.0033 61.9201 82.0499 62.8206 82.0351 63.5289Z" fill="#75E1BA"/>
</svg>
