<svg width="120" height="107" viewBox="0 0 120 107" fill="none" xmlns="http://www.w3.org/2000/svg">
<path d="M12.5913 107H107.339C117.028 107 123.067 96.4935 118.223 88.126L70.8491 6.27561C66.0048 -2.09187 53.9254 -2.09187 49.0811 6.27561L1.70729 88.126C-3.13704 96.4935 2.90264 107 12.5913 107ZM59.9651 62.9606C56.5049 62.9606 53.6738 60.1295 53.6738 56.6693V44.0866C53.6738 40.6263 56.5049 37.7952 59.9651 37.7952C63.4254 37.7952 66.2565 40.6263 66.2565 44.0866V56.6693C66.2565 60.1295 63.4254 62.9606 59.9651 62.9606ZM66.2565 88.126H53.6738V75.5433H66.2565V88.126Z" fill="#31DB9D"/>
</svg>
